<svg width="318" height="226" viewBox="0 0 318 226" fill="none" xmlns="http://www.w3.org/2000/svg">
<path d="M290.416 207.879H34.7949V210.563H290.416V207.879Z" fill="#263238"/>
<path d="M239.668 28H93.0031C92.4492 28 92 28.5156 92 29.1516V109.271V113.018C92 113.654 92.4492 114.169 93.0031 114.169H239.668C240.222 114.169 240.671 113.654 240.671 113.018V109.271V29.1516C240.671 28.5156 240.222 28 239.668 28ZM239.536 29.3031V114.119H93.1351V29.3031H239.536Z" fill="black" fill-opacity="0.1"/>
<path d="M128.584 58.6147C126.419 58.6147 124.628 60.2604 124.428 62.3555C124.414 62.4869 124.407 62.6252 124.407 62.7566C124.407 63.6624 124.705 64.506 125.202 65.1905L124.684 66.7325L126.288 66.2208C126.952 66.6564 127.74 66.9053 128.584 66.9053C130.886 66.9053 132.76 65.0453 132.76 62.7566C132.76 62.6459 132.753 62.5422 132.746 62.4316C132.58 60.3019 130.776 58.6147 128.584 58.6147ZM131.018 64.4714C130.921 64.7549 130.423 65.0246 130.195 65.0453C129.973 65.066 129.973 65.2251 128.729 64.748C127.491 64.2639 126.71 62.9986 126.648 62.9225C126.599 62.8603 126.336 62.5077 126.212 62.0859C126.177 61.9545 126.15 61.8162 126.15 61.671C126.15 61.0763 126.461 60.779 126.578 60.6615C126.689 60.5439 126.82 60.5093 126.903 60.5093C126.986 60.5093 127.069 60.5232 127.138 60.5232C127.208 60.5232 127.311 60.4817 127.415 60.7237C127.519 60.9657 127.761 61.5604 127.795 61.6226C127.823 61.6848 127.844 61.754 127.802 61.8369C127.775 61.8923 127.754 61.9337 127.726 61.9821C127.712 62.0029 127.699 62.0167 127.685 62.0375C127.622 62.1066 127.56 62.1965 127.498 62.2518C127.436 62.314 127.374 62.3763 127.443 62.5007C127.512 62.6183 127.761 63.0193 128.12 63.3374C128.584 63.7523 128.978 63.8767 129.102 63.939C129.227 64.0012 129.296 63.9874 129.365 63.9113C129.434 63.8352 129.669 63.5587 129.752 63.4411C129.835 63.3166 129.918 63.3374 130.029 63.3789C130.139 63.4204 130.741 63.7108 130.859 63.773C130.976 63.8352 131.059 63.8629 131.094 63.9113C131.121 63.9528 131.121 64.1948 131.018 64.4714Z" fill="#DDE1E5"/>
<path d="M128.231 53.6362C123.135 53.6362 119 57.7642 119 62.8672C119 67.9632 123.128 72.0981 128.231 72.0981C133.327 72.0981 137.462 67.9701 137.462 62.8672C137.462 57.7642 133.327 53.6362 128.231 53.6362ZM128.584 67.6935C127.712 67.6935 126.896 67.4723 126.184 67.0782L123.432 67.9563L124.331 65.308C123.882 64.5612 123.619 63.69 123.619 62.7635C123.619 62.6943 123.619 62.6183 123.626 62.5491C123.743 59.9216 125.921 57.8334 128.591 57.8334C131.294 57.8334 133.493 59.9769 133.555 62.639C133.555 62.6805 133.555 62.722 133.555 62.7635C133.548 65.4878 131.329 67.6935 128.584 67.6935Z" fill="#DDE1E5"/>
<path d="M163.221 60.9398L166.229 59.2319L163.221 57.5171V60.9398Z" fill="#DDE1E5"/>
<path d="M164.395 50C159.299 50 155.164 54.128 155.164 59.231C155.164 64.327 159.299 68.4619 164.395 68.4619C169.491 68.4619 173.626 64.3339 173.626 59.231C173.626 54.1349 169.491 50 164.395 50ZM169.906 62.0175C169.775 62.5154 169.38 62.9095 168.889 63.0409C167.991 63.2829 164.395 63.2829 164.395 63.2829C164.395 63.2829 160.799 63.2829 159.901 63.0409C159.403 62.9095 159.015 62.5154 158.884 62.0175C158.642 61.1117 158.642 59.231 158.642 59.231C158.642 59.231 158.642 57.3502 158.884 56.4444C159.015 55.9465 159.41 55.5524 159.901 55.421C160.799 55.179 164.395 55.179 164.395 55.179C164.395 55.179 167.991 55.179 168.889 55.421C169.387 55.5524 169.775 55.9465 169.906 56.4444C170.148 57.3502 170.148 59.231 170.148 59.231C170.148 59.231 170.148 61.1117 169.906 62.0175Z" fill="#DDE1E5"/>
<path d="M156.568 74.5112C151.472 74.5112 147.337 78.6392 147.337 83.7422C147.337 88.8382 151.465 92.9731 156.568 92.9731C161.664 92.9731 165.799 88.8382 165.799 83.7422C165.792 78.6461 161.664 74.5112 156.568 74.5112ZM154.037 87.6351H152.129V81.4673H154.037V87.6351ZM153.069 80.6583C152.447 80.6583 151.942 80.1466 151.942 79.5174C151.942 78.8881 152.447 78.3765 153.069 78.3765C153.691 78.3765 154.196 78.8881 154.196 79.5174C154.196 80.1466 153.691 80.6583 153.069 80.6583ZM161.194 87.6351H159.292C159.292 87.6351 159.292 85.2841 159.292 84.3991C159.292 83.514 158.953 83.0161 158.255 83.0161C157.487 83.0161 157.093 83.5347 157.093 84.3991C157.093 85.3463 157.093 87.6351 157.093 87.6351H155.261V81.4673H157.093V82.297C157.093 82.297 157.647 81.2806 158.953 81.2806C160.26 81.2806 161.201 82.0827 161.201 83.7353C161.194 85.3809 161.194 87.6351 161.194 87.6351Z" fill="#DDE1E5"/>
<path d="M151.536 59.9893L136.014 61.9609L136.101 62.6469L151.623 60.6753L151.536 59.9893Z" fill="#DDE1E5"/>
<path d="M149.093 63.0673L148.823 62.4312L152.585 60.8132L146.438 58.7043L146.666 58.0474L154.507 60.7441L149.093 63.0673Z" fill="#DDE1E5"/>
<path d="M131.873 72.51L131.514 73.1011L143.754 80.5332L144.113 79.9421L131.873 72.51Z" fill="#DDE1E5"/>
<path d="M145.083 81.5096L140.395 81.0187L140.471 80.3272L144.087 80.7144L142.725 76.6279L143.382 76.4136L145.083 81.5096Z" fill="#DDE1E5"/>
<path d="M178.998 84.2187V56.8716L215.618 57.9503L216.71 83.4996L178.998 84.2187ZM180.381 58.3029V82.815L215.272 82.1512L214.29 59.2986L180.381 58.3029Z" fill="#DDE1E5"/>
<path d="M192.497 65.5338L192.452 66.916L203.171 67.2613L203.216 65.8791L192.497 65.5338Z" fill="#DDE1E5"/>
<path d="M211.487 70.7335L186.942 71.0698L186.961 72.4526L211.506 72.1163L211.487 70.7335Z" fill="#DDE1E5"/>
<path d="M193.583 74.8728L193.48 76.252L202.818 76.9438L202.92 75.5646L193.583 74.8728Z" fill="#DDE1E5"/>
<path d="M35.3229 150.824C36.2197 151.218 38.4139 151.167 38.4139 151.167C38.4393 151.167 37.9432 149.73 37.8987 149.647C37.4154 148.642 35.8953 146.976 34.6551 147.148C33.7647 147.268 33.2686 148.159 33.4658 148.998C33.682 149.857 34.5597 150.493 35.3229 150.824Z" fill="#263238"/>
<path d="M64.0642 143.357C62.824 143.224 61.3422 144.928 60.8906 145.946C60.8524 146.035 60.3945 147.485 60.42 147.485C60.42 147.485 60.439 147.485 60.4454 147.485C60.2101 147.752 59.962 148.038 59.6949 148.362C59.2116 148.96 58.6646 149.641 58.124 150.417C57.5834 151.193 57.011 152.051 56.4958 153.012C55.9743 153.972 55.4782 155.009 55.103 156.147C55.0966 156.16 55.0966 156.172 55.0903 156.185C55.0966 155.816 55.0776 154.792 55.0712 154.716C54.9249 153.609 54.0027 151.555 52.7689 151.326C51.8848 151.161 51.1344 151.854 51.0644 152.719C50.9944 153.597 51.6304 154.481 52.2537 155.034C52.9533 155.657 54.8995 156.268 55.0585 156.312C54.7087 157.4 54.4416 158.538 54.238 159.709C54.1172 160.376 54.0218 161.057 53.9264 161.737C53.92 161.419 53.9137 161.14 53.9073 161.095C53.761 159.988 52.8388 157.934 51.605 157.705C50.721 157.54 49.9705 158.233 49.9005 159.098C49.8306 159.976 50.4666 160.86 51.0898 161.413C51.7195 161.979 53.3667 162.526 53.8056 162.666C53.7738 162.927 53.7356 163.188 53.7102 163.448C53.5575 164.701 53.4176 165.954 53.2395 167.182C53.1759 167.614 53.0996 168.034 53.0233 168.46C53.0169 168.18 53.0106 167.945 53.0106 167.907C52.8643 166.8 51.9421 164.746 50.7082 164.517C49.8242 164.351 49.0737 165.045 49.0038 165.91C48.9338 166.787 49.5698 167.671 50.1931 168.225C50.7973 168.765 52.311 169.287 52.8325 169.452C52.7434 169.885 52.648 170.317 52.5399 170.731C52.4572 171.01 52.4 171.284 52.3046 171.564C52.2156 171.837 52.1265 172.117 52.0375 172.384C51.8467 172.899 51.6622 173.434 51.4651 173.93C51.3315 174.279 51.198 174.604 51.0644 174.941C51.1344 174.515 51.2488 173.669 51.2488 173.599C51.2679 172.855 51.0008 171.653 50.4793 170.807C50.4793 170.699 50.4793 170.591 50.4602 170.482C50.3203 169.63 49.5189 168.994 48.654 169.23C47.4456 169.554 46.6824 171.672 46.6251 172.785C46.6188 172.848 46.6633 173.567 46.7014 174.019C46.6378 173.758 46.587 173.497 46.517 173.23C46.3898 172.696 46.2499 172.168 46.0972 171.595C46.0146 171.322 45.9319 171.049 45.8492 170.769C45.7729 170.489 45.652 170.209 45.5566 169.923C45.315 169.268 45.0415 168.619 44.7553 167.97C45.2259 167.856 46.8795 167.436 47.541 166.927C48.2024 166.418 48.902 165.592 48.8956 164.708C48.8893 163.843 48.196 163.099 47.2993 163.194C46.0591 163.327 44.9779 165.305 44.7553 166.399C44.7426 166.469 44.6662 167.271 44.6344 167.71C44.4564 167.322 44.2783 166.934 44.0875 166.546C43.5342 165.426 42.9363 164.313 42.3448 163.2C42.1668 162.857 41.9887 162.52 41.8106 162.176C41.976 162.138 43.9539 161.68 44.698 161.108C45.3595 160.599 46.0591 159.772 46.0527 158.888C46.0464 158.023 45.3531 157.279 44.4564 157.375C43.2162 157.508 42.135 159.486 41.9124 160.58C41.8933 160.663 41.7915 161.82 41.7788 162.113C41.3845 161.362 41.0029 160.605 40.6594 159.849C40.1761 158.799 39.7627 157.75 39.4383 156.7C39.5146 156.681 41.5816 156.211 42.3448 155.626C43.0063 155.117 43.7059 154.29 43.6995 153.406C43.6932 152.541 42.9999 151.797 42.1032 151.892C40.863 152.026 39.7818 154.004 39.5592 155.098C39.5401 155.187 39.432 156.427 39.4256 156.656C39.4065 156.592 39.3811 156.529 39.362 156.465C39.0313 155.339 38.8468 154.207 38.7324 153.139C38.6624 152.515 38.6306 151.924 38.6115 151.339C39.0058 151.288 40.7994 151.053 41.5435 150.601C42.2558 150.169 43.0444 149.418 43.1335 148.547C43.2225 147.688 42.612 146.868 41.7088 146.868C40.4623 146.868 39.1712 148.712 38.8278 149.774C38.8087 149.832 38.6815 150.442 38.5988 150.881C38.5924 150.62 38.5861 150.347 38.5861 150.099C38.5861 149.151 38.6497 148.286 38.7069 147.523C38.7451 147.09 38.7832 146.696 38.8278 146.327C39.1903 146.079 40.634 145.055 41.0792 144.33C41.5117 143.618 41.8678 142.594 41.5435 141.773C41.2255 140.972 40.3096 140.521 39.5083 140.934C38.3953 141.506 38.1091 143.745 38.2872 144.845C38.3062 144.941 38.7196 146.397 38.7387 146.384L38.7578 146.372C38.7069 146.722 38.6624 147.103 38.6179 147.517C38.5416 148.28 38.4652 149.151 38.4398 150.099C38.4144 151.046 38.4144 152.077 38.5098 153.164C38.6052 154.252 38.7642 155.39 39.0758 156.548C39.0822 156.56 39.0822 156.573 39.0885 156.586C38.8914 156.274 38.3126 155.435 38.2617 155.371C37.5303 154.525 35.6223 153.323 34.4712 153.813C33.6444 154.163 33.4027 155.155 33.8161 155.912C34.2422 156.688 35.2598 157.069 36.0802 157.19C37.0088 157.324 38.9677 156.758 39.1267 156.713C39.4383 157.807 39.839 158.907 40.316 160.001C40.5831 160.624 40.8757 161.241 41.1746 161.865C40.9965 161.604 40.8312 161.369 40.8057 161.343C40.0743 160.497 38.1663 159.295 37.0152 159.785C36.1884 160.135 35.9467 161.127 36.3601 161.884C36.7862 162.66 37.8038 163.041 38.6242 163.162C39.4638 163.283 41.1428 162.831 41.5816 162.711C41.6961 162.946 41.8106 163.181 41.9314 163.417C42.4975 164.542 43.0699 165.668 43.5978 166.787C43.7822 167.182 43.9539 167.576 44.1193 167.97C43.9603 167.735 43.8267 167.544 43.8013 167.519C43.0699 166.673 41.1619 165.471 40.0107 165.961C39.1839 166.31 38.9422 167.302 39.3556 168.059C39.7818 168.835 40.7994 169.217 41.6198 169.338C42.4212 169.452 43.973 169.051 44.5009 168.905C44.6599 169.312 44.8252 169.726 44.9652 170.126C45.0542 170.406 45.156 170.667 45.2323 170.953C45.3086 171.233 45.3849 171.513 45.4612 171.786C45.5884 172.321 45.722 172.867 45.8365 173.395C45.9192 173.758 45.9891 174.108 46.0591 174.457C45.881 174.063 45.5121 173.3 45.474 173.236C44.8825 172.289 43.178 170.813 41.9632 171.125C41.0919 171.347 40.6976 172.289 40.9965 173.103C41.3018 173.93 42.2494 174.464 43.0444 174.706C43.9221 174.973 45.8683 174.731 46.11 174.699C46.2244 175.278 46.3326 175.844 46.428 176.378C46.7523 178.235 46.9558 179.794 47.083 180.881C47.1085 181.072 47.1212 181.25 47.1403 181.409H43.3815L44.7553 208.204H51.1662L52.5399 181.409H49.0356C49.061 181.358 49.0864 181.307 49.1119 181.25C49.5952 180.245 50.2567 178.808 50.9817 177.046C51.2107 176.493 51.446 175.888 51.675 175.272C51.9103 175.322 53.831 175.71 54.7278 175.507C55.5418 175.322 56.5276 174.865 56.8902 174.057C57.2463 173.268 56.9283 172.301 56.0761 172.015C54.8931 171.615 53.0805 172.963 52.4191 173.86C52.3809 173.911 52.0184 174.534 51.8022 174.928C51.8976 174.674 51.993 174.432 52.082 174.171C52.2728 173.656 52.4445 173.135 52.6353 172.575C52.718 172.301 52.8007 172.028 52.8834 171.748C52.9724 171.475 53.0296 171.176 53.106 170.883C53.265 170.209 53.3985 169.516 53.513 168.81C53.9646 168.975 55.58 169.535 56.4132 169.478C57.2463 169.42 58.2894 169.115 58.7664 168.377C59.237 167.652 59.0716 166.647 58.2703 166.234C57.1573 165.662 55.1666 166.717 54.378 167.506C54.3271 167.557 53.8246 168.187 53.5512 168.536C53.6148 168.117 53.6847 167.69 53.742 167.264C53.8946 166.024 54.0154 164.765 54.1363 163.512C54.1744 163.13 54.2126 162.742 54.2571 162.361C54.4161 162.418 56.3178 163.13 57.2527 163.06C58.0858 163.003 59.1289 162.698 59.6059 161.96C60.0765 161.235 59.9112 160.23 59.1098 159.817C57.9968 159.244 56.0061 160.3 55.2175 161.089C55.1602 161.146 54.4352 162.055 54.2635 162.291C54.3525 161.445 54.4479 160.605 54.5815 159.779C54.7596 158.64 54.9949 157.534 55.3002 156.478C55.3765 156.503 57.3544 157.254 58.3148 157.184C59.148 157.126 60.191 156.821 60.668 156.083C61.1386 155.358 60.9733 154.354 60.1719 153.94C59.0589 153.368 57.0682 154.423 56.2796 155.212C56.216 155.276 55.4401 156.249 55.3129 156.433C55.332 156.37 55.3447 156.306 55.3638 156.242C55.7072 155.123 56.1778 154.074 56.6739 153.12C56.9601 152.566 57.259 152.045 57.5643 151.555C57.9205 151.733 59.5486 152.522 60.42 152.56C61.2531 152.592 62.3216 152.407 62.8813 151.72C63.4282 151.053 63.371 150.035 62.6205 149.533C61.5775 148.839 59.485 149.673 58.6137 150.366C58.5692 150.404 58.124 150.843 57.8124 151.167C57.9523 150.945 58.0986 150.716 58.2385 150.506C58.76 149.717 59.2879 149.03 59.7585 148.426C60.032 148.083 60.28 147.777 60.5217 147.497C60.9606 147.491 62.7286 147.434 63.5046 147.071C64.2614 146.715 65.12 146.054 65.3044 145.195C65.4762 144.337 64.9546 143.452 64.0642 143.357ZM50.3012 176.741C49.5507 178.471 48.8575 179.883 48.3614 180.862C48.2596 181.059 48.1706 181.231 48.0879 181.396H48.0052C47.9798 181.205 47.9544 180.996 47.9226 180.76C47.7699 179.66 47.5346 178.089 47.1594 176.226C47.0449 175.634 46.905 175.004 46.765 174.362C46.9113 174.305 47.7381 173.968 48.4759 173.561C49.1182 174.254 50.7528 175.062 50.969 175.17C50.7464 175.71 50.5238 176.245 50.3012 176.741Z" fill="#263238"/>
<path d="M57.5127 151.307C57.5318 151.32 57.9134 149.851 57.9261 149.755C58.0787 148.649 57.7289 146.423 56.6032 145.882C55.7955 145.488 54.886 145.958 54.5935 146.772C54.2945 147.599 54.6761 148.617 55.1277 149.316C55.6556 150.137 57.5127 151.307 57.5127 151.307Z" fill="#263238"/>
<path d="M178.476 174.189L183.379 209.067C183.43 209.411 183.761 209.64 184.098 209.557C184.384 209.487 184.575 209.22 184.549 208.927L181.09 173.617L178.476 174.189Z" fill="#263238" stroke="#263238" stroke-width="0.636" stroke-miterlimit="10" stroke-linecap="round" stroke-linejoin="round"/>
<path d="M150.459 174.189L145.555 209.067C145.504 209.411 145.174 209.64 144.837 209.557C144.55 209.487 144.36 209.22 144.385 208.927L147.845 173.617L150.459 174.189Z" fill="#263238" stroke="#263238" stroke-width="0.636" stroke-miterlimit="10" stroke-linecap="round" stroke-linejoin="round"/>
<path d="M148.615 177.751L146.936 137.709C146.834 135.324 148.742 133.333 151.127 133.333H179.187C181.636 133.333 183.563 135.419 183.372 137.855L180.268 177.751H148.615Z" fill="#263238" stroke="#263238" stroke-width="0.636" stroke-miterlimit="10" stroke-linecap="round" stroke-linejoin="round"/>
<path d="M182.927 168.975H145.689V177.751H182.927V168.975Z" fill="#0085E5" stroke="#263238" stroke-width="0.636" stroke-miterlimit="10" stroke-linecap="round" stroke-linejoin="round"/>
<path d="M148.615 177.752H145.798L143.826 161.261C143.826 159.938 144.901 158.863 146.224 158.863C147.547 158.863 148.622 159.938 148.622 161.261V177.752H148.615Z" fill="#263238" stroke="#263238" stroke-width="0.636" stroke-miterlimit="10" stroke-linecap="round" stroke-linejoin="round"/>
<path d="M180.263 177.752H183.081L185.052 161.261C185.052 159.938 183.977 158.863 182.655 158.863C181.332 158.863 180.257 159.938 180.257 161.261V177.752H180.263Z" fill="#263238" stroke="#263238" stroke-width="0.636" stroke-miterlimit="10" stroke-linecap="round" stroke-linejoin="round"/>
<path d="M152.337 146.734L153.666 160.3H174.68L176.009 146.734H152.337Z" fill="white" stroke="#263238" stroke-width="0.636" stroke-miterlimit="10" stroke-linecap="round" stroke-linejoin="round"/>
<path d="M160.885 124.517L149.672 130.801L143.599 149.347H187.394C187.394 149.347 180.372 131.329 179.011 130.381C177.65 129.44 166.857 124.409 166.857 124.409L160.885 124.517Z" fill="white" stroke="#263238" stroke-width="0.636" stroke-miterlimit="10" stroke-linecap="round" stroke-linejoin="round"/>
<path d="M169.052 118.234C169.052 118.234 170.203 117.394 170.413 118.234C170.622 119.073 170.413 120.854 169.681 121.166C168.95 121.478 168.422 120.854 168.422 120.854L168.943 118.654L169.052 118.234Z" fill="white" stroke="#263238" stroke-width="0.636" stroke-miterlimit="10" stroke-linecap="round" stroke-linejoin="round"/>
<path d="M158.786 118.234C158.786 118.234 157.635 117.394 157.425 118.234C157.215 119.073 157.425 120.854 158.156 121.166C158.888 121.478 159.416 120.854 159.416 120.854L158.894 118.654L158.786 118.234Z" fill="white" stroke="#263238" stroke-width="0.636" stroke-miterlimit="10" stroke-linecap="round" stroke-linejoin="round"/>
<path d="M160.465 122.946C160.465 122.946 159.524 123.677 159.314 124.415C159.104 125.146 158.373 131.118 158.373 131.118C158.373 131.118 162.354 128.498 163.506 128.288C164.657 128.078 170.317 131.538 170.317 131.538C170.317 131.538 168.956 124.727 167.907 123.264C166.857 121.795 162.246 121.267 160.465 122.946Z" fill="white" stroke="#263238" stroke-width="0.636" stroke-miterlimit="10" stroke-linecap="round" stroke-linejoin="round"/>
<path d="M161.095 125.357C161.095 125.357 163.925 134.891 164.135 133.842C164.345 132.792 166.857 125.669 166.857 125.669C166.857 125.669 162.138 126.089 161.095 125.357Z" fill="white" stroke="#263238" stroke-width="0.636" stroke-miterlimit="10" stroke-linecap="round" stroke-linejoin="round"/>
<path d="M159.206 119.384C159.206 119.384 159.836 122.844 160.357 124.205C160.879 125.566 162.768 128.396 164.23 128.078C165.7 127.767 168.104 124.726 168.422 123.575C168.733 122.424 169.153 117.603 169.153 116.554C169.153 115.504 168.104 113.934 164.86 114.875C161.616 115.822 159.314 117.292 159.206 119.384Z" fill="white" stroke="#263238" stroke-width="0.636" stroke-miterlimit="10" stroke-linecap="round" stroke-linejoin="round"/>
<path d="M167.168 115.925C167.168 115.925 165.597 117.394 162.977 119.175C160.357 120.956 158.054 120.224 158.156 119.697C158.258 119.175 158.677 118.437 158.677 118.437C158.677 118.437 157.736 118.749 157.526 116.968C157.316 115.187 156.897 111.206 158.887 109.635C160.878 108.064 165.381 107.434 167.372 108.064C169.362 108.694 170.202 111.626 170.202 112.987C170.202 114.348 169.782 117.07 169.782 117.07C169.782 117.07 170.202 117.699 169.051 118.221C167.899 118.743 167.06 118.221 167.27 117.28C167.48 116.345 167.168 115.925 167.168 115.925Z" fill="#263238" stroke="#263238" stroke-width="0.636" stroke-miterlimit="10" stroke-linecap="round" stroke-linejoin="round"/>
<path d="M145.481 144.316C145.481 144.316 146.741 143.795 148.941 144.628C151.142 145.468 155.543 146.721 156.173 146.721C156.802 146.721 160.364 147.032 160.364 147.032L160.466 149.334C160.466 149.334 144.54 149.646 143.599 149.334C142.651 149.036 142.969 145.995 145.481 144.316Z" fill="white" stroke="#263238" stroke-width="0.636" stroke-miterlimit="10" stroke-linecap="round" stroke-linejoin="round"/>
<path d="M156.668 148.055C156.668 148.055 159.46 145.651 160.319 145.104C161.171 144.564 163.582 148.367 163.658 148.679C163.734 148.99 163.035 149.143 163.035 149.143C163.035 149.143 161.171 148.755 160.783 148.679C160.395 148.602 160.007 148.99 158.996 148.99C157.985 148.99 156.204 148.99 156.204 148.99" fill="white"/>
<path d="M156.668 148.055C156.668 148.055 159.46 145.651 160.319 145.104C161.171 144.564 163.582 148.367 163.658 148.679C163.734 148.99 163.035 149.143 163.035 149.143C163.035 149.143 161.171 148.755 160.783 148.679C160.395 148.602 160.007 148.99 158.996 148.99C157.985 148.99 156.204 148.99 156.204 148.99" stroke="#263238" stroke-width="0.636" stroke-miterlimit="10" stroke-linecap="round" stroke-linejoin="round"/>
<path d="M185.956 144.316C185.956 144.316 184.697 143.795 182.496 144.628C180.295 145.461 175.894 146.721 175.265 146.721C174.635 146.721 171.073 147.032 171.073 147.032L170.972 149.334C170.972 149.334 186.897 149.646 187.838 149.334C188.786 149.036 188.468 145.995 185.956 144.316Z" fill="white" stroke="#263238" stroke-width="0.636" stroke-miterlimit="10" stroke-linecap="round" stroke-linejoin="round"/>
<path d="M173.828 148.055C173.828 148.055 171.036 145.651 170.178 145.104C169.326 144.564 166.915 148.367 166.839 148.679C166.763 148.99 167.462 149.143 167.462 149.143C167.462 149.143 169.326 148.755 169.714 148.679C170.102 148.602 170.489 148.99 171.501 148.99C172.512 148.99 174.293 148.99 174.293 148.99" fill="white"/>
<path d="M173.828 148.055C173.828 148.055 171.036 145.651 170.178 145.104C169.326 144.564 166.915 148.367 166.839 148.679C166.763 148.99 167.462 149.143 167.462 149.143C167.462 149.143 169.326 148.755 169.714 148.679C170.102 148.602 170.489 148.99 171.501 148.99C172.512 148.99 174.293 148.99 174.293 148.99" stroke="#263238" stroke-width="0.636" stroke-miterlimit="10" stroke-linecap="round" stroke-linejoin="round"/>
<path d="M173.878 160.3H153.666V169.077H173.878V160.3Z" fill="white" stroke="#263238" stroke-width="0.636" stroke-miterlimit="10" stroke-linecap="round" stroke-linejoin="round"/>
<path d="M155.529 159.771C155.529 159.771 161.381 161.368 162.443 165.623" stroke="#263238" stroke-width="0.636" stroke-miterlimit="10" stroke-linecap="round" stroke-linejoin="round"/>
<path d="M172.549 160.299C172.549 160.299 167.759 160.032 166.163 165.355" stroke="#263238" stroke-width="0.636" stroke-miterlimit="10" stroke-linecap="round" stroke-linejoin="round"/>
<path d="M157.786 165.343C157.99 162.132 155.827 159.136 152.647 158.602C151.687 158.443 150.676 158.506 149.677 158.971C145.69 160.834 149.582 204.356 149.582 204.356H152.775C152.775 204.356 156.947 178.617 157.786 165.343Z" fill="white" stroke="#263238" stroke-width="0.636" stroke-miterlimit="10" stroke-linecap="round" stroke-linejoin="round"/>
<path d="M149.232 201.761L148.291 205.799L145.117 207.822H153.194L153.328 201.761H149.232Z" fill="white" stroke="#263238" stroke-width="0.636" stroke-miterlimit="10" stroke-linecap="round" stroke-linejoin="round"/>
<path d="M148.291 205.799C148.291 205.799 150.313 204.502 151.751 205.799H148.291Z" fill="white"/>
<path d="M148.291 205.799C148.291 205.799 150.313 204.502 151.751 205.799" stroke="#263238" stroke-width="0.636" stroke-miterlimit="10" stroke-linecap="round" stroke-linejoin="round"/>
<path d="M171.097 165.343C170.894 162.132 173.056 159.136 176.236 158.602C177.196 158.443 178.208 158.506 179.206 158.971C183.194 160.834 179.302 204.356 179.302 204.356H176.109C176.109 204.356 171.93 178.617 171.097 165.343Z" fill="white" stroke="#263238" stroke-width="0.636" stroke-miterlimit="10" stroke-linecap="round" stroke-linejoin="round"/>
<path d="M179.651 201.761L180.592 205.799L183.766 207.822H175.689L175.549 201.761H179.651Z" fill="white" stroke="#263238" stroke-width="0.636" stroke-miterlimit="10" stroke-linecap="round" stroke-linejoin="round"/>
<path d="M180.592 205.799C180.592 205.799 178.569 204.502 177.132 205.799H180.592Z" fill="white"/>
<path d="M180.592 205.799C180.592 205.799 178.569 204.502 177.132 205.799" stroke="#263238" stroke-width="0.636" stroke-miterlimit="10" stroke-linecap="round" stroke-linejoin="round"/>
<path d="M225.187 149.06H202.705C202.533 149.06 202.374 148.959 202.304 148.8L196.078 134.604C195.951 134.318 196.16 133.994 196.478 133.994H218.961C219.133 133.994 219.292 134.095 219.362 134.254L225.588 148.45C225.715 148.736 225.505 149.06 225.187 149.06Z" fill="white" stroke="#263238" stroke-width="0.636" stroke-miterlimit="10" stroke-linecap="round" stroke-linejoin="round"/>
<path d="M223.082 147.953H203.9C203.754 147.953 203.62 147.864 203.557 147.731L198.246 135.621C198.138 135.373 198.316 135.1 198.589 135.1H217.771C217.917 135.1 218.051 135.189 218.115 135.322L223.425 147.432C223.533 147.673 223.349 147.953 223.082 147.953Z" fill="#0085E5" stroke="#263238" stroke-width="0.636" stroke-miterlimit="10" stroke-linecap="round" stroke-linejoin="round"/>
<path d="M202.391 149.218H236.169V148.112H202.391V149.218Z" fill="white" stroke="#263238" stroke-width="0.636" stroke-miterlimit="10" stroke-linecap="round" stroke-linejoin="round"/>
<path d="M202.397 149.218H218.768V148.112H202.397V149.218Z" fill="white" stroke="#263238" stroke-width="0.636" stroke-miterlimit="10" stroke-linecap="round" stroke-linejoin="round"/>
<path d="M214.587 126.883C209.162 126.883 204.768 122.488 204.768 117.063C204.768 111.638 209.162 107.243 214.587 107.243C220.012 107.243 224.407 111.638 224.407 117.063C224.407 122.482 220.012 126.883 214.587 126.883Z" fill="#263238" stroke="#263238" stroke-width="0.636" stroke-miterlimit="10" stroke-linecap="round" stroke-linejoin="round"/>
<path d="M214.587 112.642C216.024 112.642 216.196 112.648 216.762 112.674C217.29 112.699 217.57 112.788 217.761 112.858C218.015 112.954 218.193 113.074 218.378 113.259C218.568 113.45 218.683 113.628 218.778 113.876C218.855 114.067 218.937 114.353 218.963 114.874C218.988 115.44 218.995 115.612 218.995 117.049C218.995 118.487 218.988 118.659 218.963 119.225C218.937 119.752 218.848 120.032 218.778 120.223C218.683 120.478 218.562 120.656 218.378 120.84C218.187 121.031 218.009 121.145 217.761 121.241C217.57 121.317 217.284 121.4 216.762 121.425C216.196 121.451 216.024 121.457 214.587 121.457C213.15 121.457 212.978 121.451 212.412 121.425C211.884 121.4 211.604 121.311 211.413 121.241C211.159 121.145 210.981 121.024 210.797 120.84C210.606 120.649 210.491 120.471 210.396 120.223C210.32 120.032 210.237 119.746 210.211 119.225C210.186 118.659 210.18 118.487 210.18 117.049C210.18 115.612 210.186 115.44 210.211 114.874C210.237 114.346 210.326 114.067 210.396 113.876C210.491 113.621 210.612 113.443 210.797 113.259C210.987 113.068 211.165 112.954 211.413 112.858C211.604 112.782 211.89 112.699 212.412 112.674C212.978 112.648 213.15 112.642 214.587 112.642ZM214.587 111.675C213.124 111.675 212.94 111.682 212.367 111.707C211.795 111.733 211.401 111.822 211.057 111.955C210.701 112.095 210.402 112.279 210.103 112.578C209.804 112.877 209.62 113.176 209.48 113.532C209.346 113.876 209.257 114.264 209.232 114.843C209.207 115.415 209.2 115.599 209.2 117.062C209.2 118.525 209.207 118.709 209.232 119.282C209.257 119.854 209.346 120.249 209.48 120.592C209.62 120.948 209.804 121.247 210.103 121.546C210.402 121.845 210.701 122.029 211.057 122.169C211.401 122.303 211.789 122.392 212.367 122.417C212.94 122.443 213.124 122.449 214.587 122.449C216.05 122.449 216.234 122.443 216.807 122.417C217.379 122.392 217.773 122.303 218.117 122.169C218.473 122.029 218.772 121.845 219.071 121.546C219.37 121.247 219.554 120.948 219.694 120.592C219.828 120.249 219.917 119.861 219.942 119.282C219.968 118.709 219.974 118.525 219.974 117.062C219.974 115.599 219.968 115.415 219.942 114.843C219.917 114.27 219.828 113.876 219.694 113.532C219.554 113.176 219.37 112.877 219.071 112.578C218.772 112.279 218.473 112.095 218.117 111.955C217.773 111.822 217.386 111.733 216.807 111.707C216.234 111.682 216.05 111.675 214.587 111.675Z" fill="white"/>
<path d="M214.587 114.296C213.061 114.296 211.82 115.536 211.82 117.062C211.82 118.589 213.061 119.829 214.587 119.829C216.113 119.829 217.354 118.589 217.354 117.062C217.354 115.536 216.113 114.296 214.587 114.296ZM214.587 118.856C213.595 118.856 212.793 118.055 212.793 117.062C212.793 116.07 213.595 115.269 214.587 115.269C215.579 115.269 216.38 116.07 216.38 117.062C216.387 118.048 215.579 118.856 214.587 118.856Z" fill="white"/>
<path d="M218.111 114.187C218.111 114.543 217.825 114.836 217.462 114.836C217.106 114.836 216.813 114.543 216.813 114.187C216.813 113.831 217.1 113.539 217.462 113.539C217.818 113.539 218.111 113.825 218.111 114.187Z" fill="white"/>
<path d="M212.271 126.68L214.078 138.821L216.145 126.165" fill="#263238"/>
<path d="M212.271 126.68L214.078 138.821L216.145 126.165" stroke="#263238" stroke-width="0.636" stroke-miterlimit="10" stroke-linecap="round" stroke-linejoin="round"/>
<path d="M177.419 149.501H151.343V135.604C151.343 134.726 152.055 134.014 152.933 134.014H175.829C176.706 134.014 177.419 134.726 177.419 135.604V149.501Z" fill="white" stroke="#263238" stroke-width="0.636" stroke-miterlimit="10" stroke-linecap="round" stroke-linejoin="round"/>
<path d="M182.895 116.072C177.47 116.072 173.075 111.678 173.075 106.252C173.075 100.827 177.47 96.4326 182.895 96.4326C188.32 96.4326 192.715 100.827 192.715 106.252C192.715 111.671 188.314 116.072 182.895 116.072Z" fill="#263238" stroke="#263238" stroke-width="0.636" stroke-miterlimit="10" stroke-linecap="round" stroke-linejoin="round"/>
<path d="M181.336 112.187H183.728V106.202H185.394L185.572 104.199H183.728C183.728 104.199 183.728 103.448 183.728 103.06C183.728 102.59 183.823 102.399 184.281 102.399C184.65 102.399 185.572 102.399 185.572 102.399V100.319C185.572 100.319 184.211 100.319 183.919 100.319C182.138 100.319 181.336 101.102 181.336 102.603C181.336 103.906 181.336 104.199 181.336 104.199H180.09V106.228H181.336V112.187Z" fill="white"/>
<path d="M180.242 115.576L175.593 130.293L183.6 115.054" fill="#263238"/>
<path d="M180.242 115.576L175.593 130.293L183.6 115.054" stroke="#263238" stroke-width="0.636" stroke-miterlimit="10" stroke-linecap="round" stroke-linejoin="round"/>
<path d="M114.199 149.06H136.682C136.853 149.06 137.012 148.959 137.082 148.8L143.309 134.604C143.436 134.318 143.226 133.994 142.908 133.994H120.426C120.254 133.994 120.095 134.095 120.025 134.254L113.798 148.45C113.671 148.736 113.881 149.06 114.199 149.06Z" fill="white" stroke="#263238" stroke-width="0.636" stroke-miterlimit="10" stroke-linecap="round" stroke-linejoin="round"/>
<path d="M116.305 147.953H135.487C135.633 147.953 135.767 147.864 135.83 147.731L141.141 135.621C141.249 135.373 141.071 135.1 140.797 135.1H121.616C121.469 135.1 121.336 135.189 121.272 135.322L115.962 147.432C115.86 147.673 116.038 147.953 116.305 147.953Z" fill="#0085E5" stroke="#263238" stroke-width="0.636" stroke-miterlimit="10" stroke-linecap="round" stroke-linejoin="round"/>
<path d="M137.001 148.119H103.223V149.225H137.001V148.119Z" fill="white" stroke="#263238" stroke-width="0.636" stroke-miterlimit="10" stroke-linecap="round" stroke-linejoin="round"/>
<path d="M136.995 148.119H120.624V149.225H136.995V148.119Z" fill="white" stroke="#263238" stroke-width="0.636" stroke-miterlimit="10" stroke-linecap="round" stroke-linejoin="round"/>
<path d="M123.696 126.883C118.271 126.883 113.876 122.488 113.876 117.063C113.876 111.638 118.271 107.243 123.696 107.243C129.121 107.243 133.516 111.638 133.516 117.063C133.516 122.482 129.121 126.883 123.696 126.883Z" fill="#263238" stroke="#263238" stroke-width="0.636" stroke-miterlimit="10" stroke-linecap="round" stroke-linejoin="round"/>
<path d="M118.468 120.345C119.415 120.956 120.547 121.312 121.756 121.312C125.744 121.312 127.995 117.947 127.861 114.926C128.281 114.621 128.644 114.246 128.93 113.813C128.542 113.985 128.129 114.1 127.696 114.151C128.141 113.883 128.478 113.464 128.637 112.961C128.224 113.209 127.766 113.387 127.276 113.483C126.882 113.063 126.329 112.802 125.712 112.802C124.325 112.802 123.308 114.093 123.619 115.442C121.832 115.353 120.255 114.5 119.193 113.197C118.633 114.163 118.9 115.423 119.854 116.065C119.504 116.052 119.174 115.957 118.881 115.798C118.856 116.79 119.568 117.725 120.605 117.928C120.299 118.011 119.969 118.03 119.638 117.967C119.911 118.819 120.706 119.442 121.641 119.455C120.738 120.167 119.606 120.485 118.468 120.345Z" fill="white"/>
<path d="M123.695 126.883L126.004 138.045L126.519 125.643L123.695 126.883Z" fill="#263238" stroke="#263238" stroke-width="0.636" stroke-miterlimit="10" stroke-linecap="round" stroke-linejoin="round"/>
<path d="M196.041 140.441H190.082V149.244H196.041V140.441Z" fill="white" stroke="#263238" stroke-width="0.636" stroke-miterlimit="10" stroke-linecap="round" stroke-linejoin="round"/>
<path d="M195.774 148.041H195.15C194.877 148.041 194.661 147.818 194.661 147.551C194.661 147.278 194.883 147.061 195.15 147.061H195.774C196.289 147.061 196.702 146.642 196.702 146.133V143.996C196.702 143.481 196.282 143.067 195.774 143.067H194.972C194.699 143.067 194.482 142.845 194.482 142.578C194.482 142.311 194.705 142.088 194.972 142.088H195.774C196.829 142.088 197.688 142.946 197.688 144.002V146.139C197.688 147.182 196.829 148.041 195.774 148.041Z" fill="white" stroke="#263238" stroke-width="0.636" stroke-miterlimit="10" stroke-linecap="round" stroke-linejoin="round"/>
<path d="M212.229 153.845L216.852 208.878C216.903 209.228 217.24 209.457 217.577 209.381C217.863 209.311 218.054 209.044 218.022 208.745L214.874 153.845H212.229Z" fill="#263238" stroke="#263238" stroke-width="0.636" stroke-miterlimit="10" stroke-linecap="round" stroke-linejoin="round"/>
<path d="M243.297 153.845L247.94 209.056C247.991 209.406 248.328 209.635 248.665 209.559C248.951 209.489 249.142 209.222 249.11 208.923L245.949 153.839H243.297V153.845Z" fill="#263238" stroke="#263238" stroke-width="0.636" stroke-miterlimit="10" stroke-linecap="round" stroke-linejoin="round"/>
<path d="M115.105 153.845L112.662 208.395C112.637 208.694 112.828 208.967 113.12 209.037C113.457 209.12 113.788 208.891 113.839 208.541L117.75 153.845H115.105Z" fill="#263238" stroke="#263238" stroke-width="0.636" stroke-miterlimit="10" stroke-linecap="round" stroke-linejoin="round"/>
<path d="M86.4787 153.845L84.0491 208.21C84.0237 208.509 84.2145 208.783 84.5071 208.853C84.8441 208.936 85.1749 208.707 85.2257 208.357L89.1244 153.845H86.4787Z" fill="#263238" stroke="#263238" stroke-width="0.636" stroke-miterlimit="10" stroke-linecap="round" stroke-linejoin="round"/>
<path d="M249.333 150.799H84.749V155.525H249.333V150.799Z" fill="#0085E5" stroke="#263238" stroke-width="0.636" stroke-miterlimit="10" stroke-linecap="round" stroke-linejoin="round"/>
<path d="M249.333 150.799H84.749V152.421H249.333V150.799Z" fill="#263238" stroke="#263238" stroke-width="0.636" stroke-miterlimit="10" stroke-linecap="round" stroke-linejoin="round"/>
<path d="M249.332 150.799H208.151V155.525H249.332V150.799Z" fill="#263238" stroke="#263238" stroke-width="0.636" stroke-miterlimit="10" stroke-linecap="round" stroke-linejoin="round"/>
<path d="M250.809 149.222H83.2861V151.022H250.809V149.222Z" fill="#0085E5" stroke="#263238" stroke-width="0.636" stroke-miterlimit="10" stroke-linecap="round" stroke-linejoin="round"/>
<path d="M250.802 149.222H209.869V151.022H250.802V149.222Z" fill="#263238" stroke="#263238" stroke-width="0.636" stroke-miterlimit="10" stroke-linecap="round" stroke-linejoin="round"/>
<path d="M235.461 119.326C235.461 119.326 237.985 125.114 239.62 127.639C241.255 130.164 243.182 130.463 244.072 129.566C244.962 128.675 246.597 127.041 246.597 127.041L249.713 129.865L252.385 125.858C252.385 125.858 250.006 122.742 248.969 120.808C247.933 118.881 245.255 114.276 240.504 115.021C235.759 115.758 235.168 117.991 235.461 119.326Z" fill="white" stroke="#263238" stroke-width="0.636" stroke-miterlimit="10" stroke-linecap="round" stroke-linejoin="round"/>
<path d="M239.92 116.655C239.92 116.655 235.614 121.705 232.498 120.814C229.381 119.924 230.418 113.837 236.212 110.422C241.999 107.007 247.793 107.897 249.873 111.611C251.953 115.325 251.209 120.522 250.764 122.15C250.318 123.784 249.282 125.12 247.348 124.077C245.421 123.04 242.896 120.515 242.896 120.515C242.896 120.515 242.75 123.485 242.006 122.296C241.262 121.107 241.115 119.326 241.115 119.326C241.115 119.326 238.432 119.326 239.92 116.655Z" fill="#263238" stroke="#263238" stroke-width="0.636" stroke-miterlimit="10" stroke-linecap="round" stroke-linejoin="round"/>
<path d="M243.036 122.588C243.036 122.588 242.444 119.173 243.926 119.618C245.408 120.063 245.261 121.997 244.517 123.332" fill="white"/>
<path d="M243.036 122.588C243.036 122.588 242.444 119.173 243.926 119.618C245.408 120.063 245.261 121.997 244.517 123.332" stroke="#263238" stroke-width="0.636" stroke-miterlimit="10" stroke-linecap="round" stroke-linejoin="round"/>
<path d="M232.35 171.326L239.136 203.126L242.742 203.335L239.982 170.899L232.35 171.326Z" fill="white" stroke="#263238" stroke-width="0.636" stroke-miterlimit="10" stroke-linecap="round" stroke-linejoin="round"/>
<path d="M239.136 203.125L231.714 207.997H243.378L242.742 203.335L239.136 203.125Z" fill="white" stroke="#263238" stroke-width="0.636" stroke-miterlimit="10" stroke-linecap="round" stroke-linejoin="round"/>
<path d="M250.756 157.034L249.421 160.15C249.421 160.15 239.029 162.077 233.534 163.267C228.038 164.456 221.806 166.682 221.806 168.018C221.806 169.353 226.448 203.284 226.448 203.284L229.272 203.43L229.826 172.616C229.826 172.616 246.902 171.427 251.653 171.28C256.404 171.134 260.265 171.872 263.68 167.719C267.095 163.559 264.869 156.881 264.869 156.881L250.756 157.034Z" fill="white" stroke="#263238" stroke-width="0.636" stroke-miterlimit="10" stroke-linecap="round" stroke-linejoin="round"/>
<path d="M226.448 203.29L225.971 203.564L216.857 208.868H229.597L229.266 203.436L226.448 203.29Z" fill="white" stroke="#263238" stroke-width="0.636" stroke-miterlimit="10" stroke-linecap="round" stroke-linejoin="round"/>
<path d="M234.545 144.492C234.545 144.492 233.05 144.174 232.083 144.174C231.123 144.174 229.088 146.636 229.088 146.954C229.088 147.272 229.196 147.806 229.73 147.488C230.264 147.17 231.549 146.311 231.549 146.311L236.892 147.914L237.426 145.669L234.545 144.492Z" fill="white" stroke="#263238" stroke-width="0.636" stroke-miterlimit="10" stroke-linecap="round" stroke-linejoin="round"/>
<path d="M234.545 145.669C234.545 145.669 231.015 145.886 230.271 145.987C229.52 146.096 229.202 146.948 230.163 146.948C231.123 146.948 232.408 146.84 232.408 146.84C232.408 146.84 233.158 147.482 234.545 147.59C235.931 147.698 236.256 147.698 236.256 147.698" fill="white"/>
<path d="M234.545 145.669C234.545 145.669 231.015 145.886 230.271 145.987C229.52 146.096 229.202 146.948 230.163 146.948C231.123 146.948 232.408 146.84 232.408 146.84C232.408 146.84 233.158 147.482 234.545 147.59C235.931 147.698 236.256 147.698 236.256 147.698" stroke="#263238" stroke-width="0.636" stroke-miterlimit="10" stroke-linecap="round" stroke-linejoin="round"/>
<path d="M237.433 145.669L236.898 147.915L254.961 153.791L255.387 148.557L237.433 145.669Z" fill="white" stroke="#263238" stroke-width="0.636" stroke-miterlimit="10" stroke-linecap="round" stroke-linejoin="round"/>
<path d="M254.464 126.003C254.464 126.003 248.969 131.944 247.786 134.023C246.596 136.103 250.164 145.751 250.457 148.575C250.756 151.399 251.646 153.18 250.311 154.662C248.975 156.143 250.164 157.04 250.902 157.632C251.646 158.223 258.032 160.748 261.441 160.303C264.856 159.858 265.6 157.479 265.893 153.771C266.192 150.057 265.893 136.993 262.923 131.651C259.959 126.302 256.989 123.631 254.464 126.003Z" fill="white" stroke="#263238" stroke-width="0.636" stroke-miterlimit="10" stroke-linecap="round" stroke-linejoin="round"/>
<path d="M252.538 124.224L246.451 132.244L247.195 134.47C247.195 134.47 250.801 130.66 252.283 129.77C253.765 128.88 257.797 125.318 257.797 125.318C257.797 125.318 255.355 122.443 252.538 124.224Z" fill="white" stroke="#263238" stroke-width="0.636" stroke-miterlimit="10" stroke-linecap="round" stroke-linejoin="round"/>
<path d="M252.837 131.499C252.837 131.499 249.422 133.133 247.641 135.505C245.86 137.884 238.731 149.904 238.731 149.904L222.996 147.081L222.85 149.16C222.85 149.16 232.053 153.911 236.358 154.948C240.664 155.985 243.488 157.473 244.226 156.137C244.97 154.802 251.648 143.665 251.648 143.665L256.545 139.951" fill="white"/>
<path d="M252.837 131.499C252.837 131.499 249.422 133.133 247.641 135.505C245.86 137.884 238.731 149.904 238.731 149.904L222.996 147.081L222.85 149.16C222.85 149.16 232.053 153.911 236.358 154.948C240.664 155.985 243.488 157.473 244.226 156.137C244.97 154.802 251.648 143.665 251.648 143.665L256.545 139.951" stroke="#263238" stroke-width="0.636" stroke-miterlimit="10" stroke-linecap="round" stroke-linejoin="round"/>
<path d="M251.647 143.672L257.435 141.892" stroke="#263238" stroke-width="0.636" stroke-miterlimit="10" stroke-linecap="round" stroke-linejoin="round"/>
<path d="M222.989 147.087C222.989 147.087 219.574 145.452 218.384 145.306C217.195 145.16 214.969 147.386 215.115 148.13C215.262 148.874 217.494 147.539 217.494 147.539C217.494 147.539 217.939 148.283 219.72 148.874C221.501 149.466 222.836 149.173 222.836 149.173L222.989 147.087Z" fill="white" stroke="#263238" stroke-width="0.636" stroke-miterlimit="10" stroke-linecap="round" stroke-linejoin="round"/>
<path d="M257.925 174.19L253.021 209.068C252.97 209.412 252.64 209.641 252.302 209.558C252.016 209.488 251.825 209.221 251.851 208.928L255.311 173.618L257.925 174.19Z" fill="#263238" stroke="#263238" stroke-width="0.636" stroke-miterlimit="10" stroke-linecap="round" stroke-linejoin="round"/>
<path d="M272.018 174.475L280.223 208.73C280.306 209.067 280.077 209.398 279.733 209.449C279.441 209.493 279.167 209.309 279.084 209.029L269.563 175.785L272.018 174.475Z" fill="#263238" stroke="#263238" stroke-width="0.636" stroke-miterlimit="10" stroke-linecap="round" stroke-linejoin="round"/>
<path d="M257.123 174.056L262.345 208.889C262.396 209.233 262.141 209.544 261.798 209.564C261.505 209.583 261.244 209.379 261.187 209.087L254.566 175.15L257.123 174.056Z" fill="#263238" stroke="#263238" stroke-width="0.636" stroke-miterlimit="10" stroke-linecap="round" stroke-linejoin="round"/>
<path d="M238.646 174.19L233.743 209.068C233.692 209.412 233.361 209.641 233.024 209.558C232.738 209.488 232.547 209.221 232.573 208.928L236.032 173.618L238.646 174.19Z" fill="#263238" stroke="#263238" stroke-width="0.636" stroke-miterlimit="10" stroke-linecap="round" stroke-linejoin="round"/>
<path d="M279.784 138.007L273.812 176.835H231.333C231.333 176.835 230.704 165.648 232.574 161.692C234.45 157.736 257.568 166.22 258.395 166.01C259.018 165.858 258.103 145.805 256.964 137.969C256.627 135.622 258.44 133.53 260.812 133.53H275.936C278.327 133.53 280.146 135.654 279.784 138.007Z" fill="#0085E5" stroke="#263238" stroke-width="0.636" stroke-miterlimit="10" stroke-linecap="round" stroke-linejoin="round"/>
<path d="M232.58 161.692C234.456 157.736 257.574 166.22 258.401 166.01C259.024 165.858 258.109 145.805 256.97 137.969C256.639 135.673 258.376 133.619 260.672 133.536C262.98 133.619 264.723 135.699 264.373 138.007L258.401 176.835H231.333C231.333 176.841 230.703 165.648 232.58 161.692Z" fill="#263238" stroke="#263238" stroke-width="0.636" stroke-miterlimit="10" stroke-linecap="round" stroke-linejoin="round"/>
<path d="M91.8226 129.001L88.1401 131.672L85.1318 129.001L90.1499 124.313L91.8226 129.001Z" fill="white" stroke="#263238" stroke-width="0.636" stroke-miterlimit="10" stroke-linecap="round" stroke-linejoin="round"/>
<path d="M110.592 163.707C106.642 163.096 90.5451 165.831 90.5451 165.831C90.5451 165.831 89.1459 171.136 92.0652 170.69C94.9844 170.245 105.167 170.347 105.167 170.347C105.167 170.347 98.6351 185.579 96.9942 193.752C96.1101 198.178 93.6297 200.57 93.0637 202.465C92.4913 204.36 94.2021 203.603 95.913 204.742C97.6238 205.88 100.467 206.828 102.559 206.828C104.645 206.828 98.9531 203.031 98.9531 199.991C98.9531 196.951 105.866 186.857 109.263 181.184C114.192 172.954 110.967 178.233 112.086 175.225C112.487 174.678 112.818 174.08 113.021 173.412C114.236 169.482 114.541 164.318 110.592 163.707Z" fill="white" stroke="#263238" stroke-width="0.636" stroke-miterlimit="10" stroke-linecap="round" stroke-linejoin="round"/>
<path d="M96.8662 206.363C96.5355 205.314 94.513 205.46 94.513 205.46C93.9724 206.185 94.335 207.635 94.335 207.635H93.2474C93.2474 207.635 93.2474 204.735 92.3443 203.832C91.4412 202.929 92.5224 202.929 92.5224 202.929L93.9025 203.279C95.2508 203.749 97.693 204.907 97.9474 205.244C98.2146 205.606 98.6025 206.071 98.9587 206.293C99.5947 206.694 102.024 206.77 102.66 206.732C103.296 206.694 103.258 206.815 103.099 207.088C102.94 207.368 102.342 207.807 101.388 207.807C100.434 207.807 97.8838 207.807 97.8838 207.807C97.8838 207.807 97.0888 207.075 96.8662 206.363Z" fill="#263238" stroke="#263238" stroke-width="0.636" stroke-miterlimit="10" stroke-linecap="round" stroke-linejoin="round"/>
<path d="M97.0079 204.404C96.9888 204.137 99.4756 201.777 99.4756 201.777C99.4756 201.777 100.703 202.057 101.104 203.094L101.206 203.914L98.6615 205.428C98.6552 205.422 97.0461 205.04 97.0079 204.404Z" fill="#263238" stroke="#263238" stroke-width="0.636" stroke-miterlimit="10" stroke-linecap="round" stroke-linejoin="round"/>
<path d="M98.6801 158.765C98.6801 158.765 113.111 157.659 114.453 159.331C115.788 161.004 122.301 199.183 122.301 199.183C122.301 199.183 125.907 205.333 126.518 205.906C127.128 206.478 128.108 206.751 127.574 207.031C127.039 207.311 124.343 207.356 123.713 206.955C123.083 206.548 120.966 204.545 120.291 204.207C119.624 203.87 118.453 204.207 118.116 203.203C117.976 202.789 118.18 202.115 118.472 201.466C119.058 200.156 119.102 198.668 118.574 197.332C117.582 194.801 115.61 188.346 113.989 186.291C111.483 183.111 108.131 172.84 108.468 167.657C108.468 167.657 97.3445 168.63 95.5064 168.801C93.662 168.967 96.1679 159.77 98.6801 158.765Z" fill="white" stroke="#263238" stroke-width="0.636" stroke-miterlimit="10" stroke-linecap="round" stroke-linejoin="round"/>
<path d="M121.754 206.77C121.423 205.721 119.401 205.867 119.401 205.867C118.86 206.592 119.223 208.042 119.223 208.042H118.135C118.135 208.042 118.135 205.142 117.232 204.239C116.329 203.336 117.41 203.336 117.41 203.336L118.79 203.686C120.138 204.156 122.581 205.314 122.835 205.651C123.102 206.013 123.49 206.478 123.846 206.7C124.482 207.101 126.912 207.177 127.548 207.139C128.184 207.101 128.146 207.222 127.987 207.495C127.828 207.775 127.23 208.214 126.276 208.214C125.322 208.214 122.772 208.214 122.772 208.214C122.772 208.214 121.977 207.483 121.754 206.77Z" fill="#263238" stroke="#263238" stroke-width="0.636" stroke-miterlimit="10" stroke-linecap="round" stroke-linejoin="round"/>
<path d="M122.13 205.225C122.111 204.958 124.598 202.598 124.598 202.598C124.598 202.598 125.431 202.878 125.832 203.908L126.15 205.021L123.606 206.535C123.599 206.535 122.168 205.861 122.13 205.225Z" fill="#263238" stroke="#263238" stroke-width="0.636" stroke-miterlimit="10" stroke-linecap="round" stroke-linejoin="round"/>
<path d="M99.7673 145.029L102.655 143.852C102.655 143.852 104.149 143.534 105.116 143.534C106.083 143.534 108.112 145.995 108.112 146.313C108.112 146.631 108.003 147.166 107.469 146.848C106.935 146.53 105.65 145.671 105.65 145.671L100.308 147.274L82.2455 153.15L81.8193 147.916L99.7673 145.029Z" fill="white" stroke="#263238" stroke-width="0.636" stroke-miterlimit="10" stroke-linecap="round" stroke-linejoin="round"/>
<path d="M102.649 145.027C102.649 145.027 106.179 145.244 106.923 145.345C107.674 145.453 107.992 146.306 107.031 146.306C106.071 146.306 104.786 146.198 104.786 146.198C104.786 146.198 104.036 146.84 102.649 146.948C101.263 147.056 100.938 147.056 100.938 147.056" fill="white"/>
<path d="M102.649 145.027C102.649 145.027 106.179 145.244 106.923 145.345C107.674 145.453 107.992 146.306 107.031 146.306C106.071 146.306 104.786 146.198 104.786 146.198C104.786 146.198 104.036 146.84 102.649 146.948C101.263 147.056 100.938 147.056 100.938 147.056" stroke="#263238" stroke-width="0.636" stroke-miterlimit="10" stroke-linecap="round" stroke-linejoin="round"/>
<path d="M85.9647 128.498C85.9647 128.498 89.4754 130.508 90.3149 134.349C91.1481 138.197 91.3198 145.384 90.9827 147.057C90.6457 148.729 86.6325 151.407 86.6325 151.407L85.4623 158.765C85.4623 158.765 104.657 157.818 105.662 157.818C106.667 157.818 106.164 163.338 105.999 165.176C105.833 167.014 104.091 170.9 104.091 170.9C104.091 170.9 94.1246 171.962 89.3292 172.217C83.5924 172.522 81.1184 172.649 76.7681 172.318C72.4179 171.981 69.9121 168.642 69.575 164.127C69.2379 159.611 71.2477 158.441 71.7501 154.091C72.2526 149.741 73.0857 141.383 73.5882 135.526C74.0906 129.668 78.6062 127.328 85.9647 128.498Z" fill="white" stroke="#263238" stroke-width="0.636" stroke-miterlimit="10" stroke-linecap="round" stroke-linejoin="round"/>
<path d="M100.854 120.3C100.854 120.3 100.352 123.983 98.8442 126.654C97.3369 129.331 93.1583 131.004 92.1535 131.004C91.1486 131.004 89.3105 126.825 89.3105 126.825C89.3105 126.825 94.6593 119.13 97.5022 118.297C100.352 117.457 100.854 120.3 100.854 120.3Z" fill="white" stroke="#263238" stroke-width="0.636" stroke-miterlimit="10" stroke-linecap="round" stroke-linejoin="round"/>
<path d="M95.6643 123.315C95.6643 123.315 95.4989 122.144 99.3467 122.144C103.195 122.144 106.203 118.462 106.54 114.449C106.877 110.436 102.527 110.098 99.6838 110.098C96.8409 110.098 93.1584 107.758 88.9799 109.265C84.8014 110.773 84.8014 115.454 84.6297 118.462C84.4643 121.47 84.2926 122.31 77.7736 124.65C71.2482 126.991 67.4068 131.175 66.2366 137.192C65.0663 143.215 71.5853 147.731 76.6034 145.218C81.6214 142.713 81.6214 131.169 85.2975 129.834C88.9799 128.498 93.8262 128.333 95.6643 123.315Z" fill="#263238" stroke="#263238" stroke-width="0.636" stroke-miterlimit="10" stroke-linecap="round" stroke-linejoin="round"/>
<path d="M84.9668 139.704C84.9668 139.704 93.4956 157.932 94.6658 157.932C95.836 157.932 109.217 148.901 109.217 148.901C109.217 148.901 110.388 149.238 111.056 148.901C111.723 148.564 113.065 146.891 113.065 146.891C113.065 146.891 115.743 148.901 115.406 147.559C115.069 146.223 113.396 144.881 111.895 144.881C110.388 144.881 108.219 148.392 108.219 148.392L96.5102 152.571C96.5102 152.571 93.5019 139.526 91.9946 136.346C90.4873 133.166 88.9863 131.163 88.1468 131.665" fill="white"/>
<path d="M84.9668 139.704C84.9668 139.704 93.4956 157.932 94.6658 157.932C95.836 157.932 109.217 148.901 109.217 148.901C109.217 148.901 110.388 149.238 111.056 148.901C111.723 148.564 113.065 146.891 113.065 146.891C113.065 146.891 115.743 148.901 115.406 147.559C115.069 146.223 113.396 144.881 111.895 144.881C110.388 144.881 108.219 148.392 108.219 148.392L96.5102 152.571C96.5102 152.571 93.5019 139.526 91.9946 136.346C90.4873 133.166 88.9863 131.163 88.1468 131.665" stroke="#263238" stroke-width="0.636" stroke-miterlimit="10" stroke-linecap="round" stroke-linejoin="round"/>
<path d="M111.889 144.888C110.382 144.888 108.213 148.399 108.213 148.399L96.5042 152.577C96.5042 152.577 96.1226 150.924 95.5629 148.66L90.8184 151.662C92.5928 155.096 94.2019 157.933 94.6598 157.933C95.83 157.933 109.211 148.901 109.211 148.901C109.211 148.901 110.382 149.238 111.05 148.901C111.717 148.564 113.059 146.892 113.059 146.892C113.059 146.892 115.737 148.901 115.4 147.559C115.069 146.224 113.396 144.888 111.889 144.888Z" fill="white" stroke="#263238" stroke-width="0.636" stroke-miterlimit="10" stroke-linecap="round" stroke-linejoin="round"/>
<path d="M74.3516 174.189L79.2551 209.067C79.306 209.411 79.6367 209.64 79.9738 209.557C80.26 209.487 80.4508 209.22 80.4254 208.927L76.9655 173.617L74.3516 174.189Z" fill="#263238" stroke="#263238" stroke-width="0.636" stroke-miterlimit="10" stroke-linecap="round" stroke-linejoin="round"/>
<path d="M60.2585 174.475L52.0541 208.73C51.9714 209.067 52.2003 209.397 52.5438 209.448C52.8363 209.493 53.1098 209.308 53.1925 209.028L62.7134 175.785L60.2585 174.475Z" fill="#263238" stroke="#263238" stroke-width="0.636" stroke-miterlimit="10" stroke-linecap="round" stroke-linejoin="round"/>
<path d="M75.147 174.055L69.9254 208.888C69.8746 209.232 70.129 209.543 70.4724 209.563C70.765 209.582 71.0257 209.378 71.083 209.086L77.7037 175.149L75.147 174.055Z" fill="#263238" stroke="#263238" stroke-width="0.636" stroke-miterlimit="10" stroke-linecap="round" stroke-linejoin="round"/>
<path d="M93.624 174.189L98.5276 209.067C98.5785 209.411 98.9092 209.64 99.2463 209.557C99.5325 209.487 99.7233 209.22 99.6978 208.927L96.238 173.617L93.624 174.189Z" fill="#263238" stroke="#263238" stroke-width="0.636" stroke-miterlimit="10" stroke-linecap="round" stroke-linejoin="round"/>
<path d="M52.4865 138.007L58.4585 176.835H100.937C100.937 176.835 101.567 165.647 99.6904 161.691C97.8142 157.735 74.6956 166.22 73.8688 166.01C73.2455 165.857 74.1613 145.804 75.2998 137.969C75.6369 135.622 73.8243 133.529 71.452 133.529H56.3279C53.9493 133.529 52.1239 135.654 52.4865 138.007Z" fill="#0085E5" stroke="#263238" stroke-width="0.636" stroke-miterlimit="10" stroke-linecap="round" stroke-linejoin="round"/>
<path d="M99.6968 161.691C97.8206 157.735 74.702 166.22 73.8752 166.01C73.252 165.857 74.1678 145.804 75.3062 137.969C75.637 135.673 73.9007 133.618 71.6047 133.536C69.296 133.618 67.5534 135.698 67.9032 138.007L73.8752 176.835H100.943C100.937 176.841 101.567 165.647 99.6968 161.691Z" fill="#263238" stroke="#263238" stroke-width="0.636" stroke-miterlimit="10" stroke-linecap="round" stroke-linejoin="round"/>
</svg>
