<svg width="17" height="16" viewBox="0 0 17 16" fill="none" xmlns="http://www.w3.org/2000/svg">
<path d="M8.99609 4.75C7.18672 4.75 5.71484 6.22187 5.71484 8.03125C5.71484 9.84063 7.18672 11.3125 8.99609 11.3125C10.8055 11.3125 12.2773 9.84063 12.2773 8.03125C12.2773 6.22187 10.8055 4.75 8.99609 4.75ZM8.99609 4.75C7.18672 4.75 5.71484 6.22187 5.71484 8.03125C5.71484 9.84063 7.18672 11.3125 8.99609 11.3125C10.8055 11.3125 12.2773 9.84063 12.2773 8.03125C12.2773 6.22187 10.8055 4.75 8.99609 4.75ZM14.6523 0H3.33984C2.04609 0 0.996094 1.05 0.996094 2.34375V13.6562C0.996094 14.95 2.04609 16 3.33984 16H14.6523C15.9461 16 16.9961 14.95 16.9961 13.6562V2.34375C16.9961 1.05 15.9461 0 14.6523 0ZM8.99609 12.25C6.67112 12.25 4.77734 10.3562 4.77734 8.03125C4.77734 5.70622 6.67112 3.8125 8.99609 3.8125C11.3211 3.8125 13.2148 5.70622 13.2148 8.03125C13.2148 10.3562 11.3211 12.25 8.99609 12.25ZM14.1523 3.8125C13.6367 3.8125 13.2148 3.39062 13.2148 2.875C13.2148 2.35938 13.6367 1.9375 14.1523 1.9375C14.668 1.9375 15.0898 2.35938 15.0898 2.875C15.0898 3.39062 14.668 3.8125 14.1523 3.8125ZM8.99609 4.75C7.18672 4.75 5.71484 6.22187 5.71484 8.03125C5.71484 9.84063 7.18672 11.3125 8.99609 11.3125C10.8055 11.3125 12.2773 9.84063 12.2773 8.03125C12.2773 6.22187 10.8055 4.75 8.99609 4.75ZM8.99609 4.75C7.18672 4.75 5.71484 6.22187 5.71484 8.03125C5.71484 9.84063 7.18672 11.3125 8.99609 11.3125C10.8055 11.3125 12.2773 9.84063 12.2773 8.03125C12.2773 6.22187 10.8055 4.75 8.99609 4.75ZM8.99609 4.75C7.18672 4.75 5.71484 6.22187 5.71484 8.03125C5.71484 9.84063 7.18672 11.3125 8.99609 11.3125C10.8055 11.3125 12.2773 9.84063 12.2773 8.03125C12.2773 6.22187 10.8055 4.75 8.99609 4.75Z" fill="#0085E5"/>
</svg>
