<svg width="291" height="262" viewBox="0 0 291 262" fill="none" xmlns="http://www.w3.org/2000/svg">
<path d="M6.83333 101H10.9333V84.6607H17.3719V80.9556H0.425185V84.6607H6.83333V101ZM43.884 80.9556L39.4196 92.7393L34.1655 80.5911H32.7988L27.5447 92.8L23.0803 80.9556H18.5247L26.5425 101.364H27.8788L33.4973 88.7911L39.0855 101.364H40.4218L48.4396 80.9556H43.884ZM49.7645 90.9778C49.6733 96.7178 54.6237 101.486 60.3941 101.364C66.1645 101.486 71.1756 96.7178 71.0845 90.9778C71.1756 85.2378 66.1645 80.4696 60.3941 80.5911C54.6237 80.4696 49.6733 85.2378 49.7645 90.9778ZM66.863 90.9778C66.863 94.8348 64.0993 97.5681 60.4245 97.5681C56.7193 97.5681 53.9859 94.8348 53.9859 90.9778C53.9859 87.1207 56.7193 84.3874 60.4245 84.3874C64.0993 84.3874 66.863 87.1815 66.863 90.9778ZM72.7266 98.54C72.7266 100.15 73.9718 101.364 75.5814 101.364C77.191 101.364 78.3755 100.15 78.3755 98.54C78.3755 96.9607 77.1607 95.7156 75.5814 95.7156C73.9718 95.7156 72.7266 96.9607 72.7266 98.54ZM96.4845 101H99.0053L90.3193 80.6215H89.4386L80.7527 101H83.243L84.9438 96.9304H94.7838L96.4845 101ZM93.8727 94.8044H85.8549L89.8638 84.9341L93.8727 94.8044ZM100.933 90.9778C100.811 96.7178 105.67 101.425 111.35 101.334C114.903 101.334 118.001 99.6637 119.671 97.0215L117.91 95.6244C116.361 97.8415 114.144 99.1474 111.38 99.1474C106.855 99.1474 103.393 95.6244 103.393 90.9778C103.393 86.3311 106.855 82.8081 111.38 82.8081C114.144 82.8081 116.361 84.1141 117.91 86.3311L119.671 84.9341C117.97 82.2919 114.903 80.6215 111.35 80.6215C105.67 80.5304 100.811 85.2378 100.933 90.9778ZM128.808 101H131.177V83.0815H138.253V80.9556H121.762V83.0815H128.808V101ZM141.595 101H143.964V80.9556H141.595V101ZM189.516 80.9556V96.0193L176.761 80.6215H175.91V101H178.279V85.9667L191.035 101.334H191.885V80.9556H189.516Z" fill="white"/>
<path d="M49.476 114.333H52.1122C53.5259 114.333 54.4719 113.462 54.4719 112.218C54.4719 110.985 53.5259 110.124 52.1122 110.124H50.6028V108.328H53.8979V107.318H49.476V114.333ZM50.6028 113.345V111.091H52.0696C52.8669 111.091 53.3346 111.538 53.3346 112.218C53.3346 112.898 52.8669 113.345 52.0696 113.345H50.6028ZM60.0825 108.997L57.0318 112.378V109.114H55.905V114.45H56.2983L59.3384 111.091V114.333H60.4651V108.997H60.0825ZM67.7253 111.719C67.7253 110.177 66.641 108.997 65.1635 108.997C64.3982 108.997 63.7285 109.306 63.3458 109.848V109.114H62.3041V116.247H63.4203V113.696C63.8348 114.174 64.4513 114.45 65.1635 114.45C66.641 114.45 67.7253 113.281 67.7253 111.719ZM66.5773 111.729C66.5773 112.728 65.8757 113.43 64.9828 113.43C64.1643 113.43 63.4096 112.867 63.4096 111.719C63.4096 110.581 64.1643 110.018 64.9828 110.018C65.8863 110.018 66.5773 110.73 66.5773 111.729ZM68.5672 109.114L70.5975 111.538L68.4078 114.333H69.7152L71.9156 111.538L69.9172 109.114H68.5672ZM71.9581 114.333H73.0742V109.114H71.9581V114.333ZM74.4454 111.506L76.4544 109.114H75.1151L73.1061 111.538L75.3064 114.333H76.667L74.4454 111.506ZM81.937 111.176C81.937 109.773 81.0866 108.997 79.8004 108.997C78.8969 108.997 78.121 109.359 77.6001 110.114L78.2485 110.773C78.6843 110.252 79.1095 109.997 79.6941 109.997C80.4063 109.997 80.8102 110.39 80.8102 111.113V111.453H79.3327C78.1528 111.453 77.4088 112.037 77.4088 112.941C77.4088 113.845 78.1316 114.45 79.2264 114.45C79.9386 114.45 80.5126 114.206 80.8953 113.749V114.333H81.937V111.176ZM80.8102 112.356C80.8102 113.069 80.215 113.589 79.4603 113.589C78.9182 113.589 78.5461 113.334 78.5461 112.898C78.5461 112.473 78.8757 112.261 79.4709 112.261H80.8102V112.356ZM86.6183 111.74C86.6183 113.239 87.8301 114.45 89.3289 114.45C90.2324 114.45 90.9871 114.015 91.4548 113.324L90.8702 112.867C90.4556 113.419 89.9454 113.696 89.3395 113.696C88.2659 113.696 87.4581 112.824 87.4581 111.74C87.4581 110.666 88.2659 109.795 89.3395 109.795C89.9454 109.795 90.4663 110.071 90.8808 110.634L91.4655 110.167C90.9977 109.476 90.2324 109.04 89.3289 109.04C87.8514 109.019 86.5865 110.262 86.6183 111.74ZM92.5817 111.74C92.5605 113.196 93.8041 114.472 95.2817 114.44C96.7592 114.472 98.0347 113.196 98.0028 111.74C98.0347 110.262 96.7698 109.019 95.2923 109.04C93.8148 109.008 92.5498 110.262 92.5817 111.74ZM97.1631 111.75C97.1631 112.835 96.334 113.685 95.2817 113.685C94.2293 113.685 93.4215 112.835 93.4215 111.75C93.4215 110.634 94.2293 109.795 95.2923 109.795C96.3446 109.795 97.1631 110.634 97.1631 111.75ZM99.2821 111.74C99.2609 113.196 100.505 114.472 101.982 114.44C103.46 114.472 104.735 113.196 104.703 111.74C104.735 110.262 103.47 109.019 101.993 109.04C100.515 109.008 99.2502 110.262 99.2821 111.74ZM103.864 111.75C103.864 112.835 103.034 113.685 101.982 113.685C100.93 113.685 100.122 112.835 100.122 111.75C100.122 110.634 100.93 109.795 101.993 109.795C103.045 109.795 103.864 110.634 103.864 111.75ZM111.457 111.836C111.489 110.443 110.266 109.199 108.874 109.231C108.066 109.231 107.322 109.625 106.886 110.273C106.886 109.72 106.939 109.263 107.035 108.912C107.131 108.551 107.364 108.243 107.726 107.977C108.087 107.711 108.64 107.52 109.373 107.414C110.149 107.297 110.691 107.169 111.021 107.031V106.244C110.734 106.361 110.16 106.499 109.278 106.659C107.524 106.957 106.652 107.647 106.323 108.668C106.163 109.178 106.089 109.827 106.089 110.624V111.527C106.089 113.249 107.173 114.44 108.757 114.44C110.234 114.472 111.478 113.249 111.457 111.836ZM110.617 111.836C110.617 112.867 109.799 113.685 108.767 113.685C107.758 113.685 106.918 112.845 106.918 111.836C106.918 110.804 107.758 109.986 108.767 109.986C109.799 109.986 110.617 110.804 110.617 111.836ZM119.931 115.832H120.75V113.611H119.91V109.157H119.091V113.611H116.912V109.157H116.094V113.611H113.925V109.157H113.107V114.333H119.931V115.832ZM126.714 111.995C126.756 111.782 126.777 111.58 126.777 111.378C126.777 110.007 125.757 109.04 124.418 109.04C122.94 109.04 121.771 110.252 121.771 111.75C121.771 113.271 122.972 114.45 124.513 114.45C125.332 114.45 126.044 114.11 126.586 113.547L126.108 112.994C125.64 113.462 125.109 113.696 124.524 113.696C123.503 113.696 122.717 113.015 122.621 111.995H126.714ZM122.653 111.272C122.834 110.379 123.535 109.784 124.396 109.784C125.257 109.784 125.927 110.347 125.938 111.272H122.653ZM128.056 111.74C128.056 113.239 129.268 114.45 130.767 114.45C131.67 114.45 132.425 114.015 132.893 113.324L132.308 112.867C131.893 113.419 131.383 113.696 130.777 113.696C129.704 113.696 128.896 112.824 128.896 111.74C128.896 110.666 129.704 109.795 130.777 109.795C131.383 109.795 131.904 110.071 132.319 110.634L132.903 110.167C132.435 109.476 131.67 109.04 130.767 109.04C129.289 109.019 128.024 110.262 128.056 111.74ZM135.548 114.333H136.355V109.89H138.099V109.157H133.804V109.89H135.548V114.333ZM143.683 112.771C143.683 112.176 143.311 111.74 142.705 111.527C143.045 111.304 143.247 110.943 143.247 110.528C143.247 109.688 142.598 109.157 141.578 109.157H139.441V114.333H141.844C142.96 114.333 143.683 113.696 143.683 112.771ZM140.26 109.89H141.589C142.152 109.89 142.439 110.114 142.439 110.571C142.439 111.006 142.152 111.272 141.589 111.272H140.26V109.89ZM142.864 112.771C142.864 113.271 142.471 113.611 141.791 113.611H140.26V111.995H141.791C142.471 111.995 142.864 112.293 142.864 112.771Z" fill="white"/>
<rect x="148" y="120" width="42" height="24" rx="12" transform="rotate(-90 148 120)" fill="white" fill-opacity="0.2"/>
<g filter="url(#filter0_d_4007_6702)">
<circle cx="160" cy="90" r="9" fill="white"/>
</g>
<defs>
<filter id="filter0_d_4007_6702" x="29.5185" y="0.518524" width="260.963" height="260.963" filterUnits="userSpaceOnUse" color-interpolation-filters="sRGB">
<feFlood flood-opacity="0" result="BackgroundImageFix"/>
<feColorMatrix in="SourceAlpha" type="matrix" values="0 0 0 0 0 0 0 0 0 0 0 0 0 0 0 0 0 0 127 0" result="hardAlpha"/>
<feOffset dy="41"/>
<feGaussianBlur stdDeviation="60.7407"/>
<feColorMatrix type="matrix" values="0 0 0 0 0 0 0 0 0 0 0 0 0 0 0 0 0 0 0.26 0"/>
<feBlend mode="normal" in2="BackgroundImageFix" result="effect1_dropShadow_4007_6702"/>
<feBlend mode="normal" in="SourceGraphic" in2="effect1_dropShadow_4007_6702" result="shape"/>
</filter>
</defs>
</svg>
