<svg width="199" height="19" viewBox="0 0 199 19" fill="none" xmlns="http://www.w3.org/2000/svg">
<g clip-path="url(#clip0_4080_3)">
<path d="M8.45509 2.44784C7.91313 3.08915 7.046 3.59498 6.17887 3.52272C6.07048 2.65559 6.49501 1.73426 6.99181 1.16521C7.53376 0.505826 8.48219 0.0361305 9.24996 0C9.34029 0.903262 8.98802 1.78846 8.45509 2.44784ZM9.24093 3.69434C7.9854 3.62208 6.91051 4.40792 6.31436 4.40792C5.70918 4.40792 4.79688 3.73047 3.80329 3.74854C2.51163 3.7666 1.31029 4.49824 0.65091 5.66345C-0.703983 7.99387 0.298638 11.4443 1.60837 13.3412C2.24968 14.2806 3.01746 15.3103 4.02911 15.2742C4.98657 15.238 5.36594 14.6509 6.52211 14.6509C7.68732 14.6509 8.02153 15.2742 9.03318 15.2561C10.081 15.238 10.7403 14.3167 11.3817 13.3773C12.1133 12.3115 12.4114 11.2727 12.4294 11.2185C12.4114 11.2004 10.4061 10.4327 10.3881 8.12032C10.37 6.18734 11.9688 5.26602 12.041 5.21182C11.1378 3.87499 9.72869 3.73047 9.24093 3.69434ZM16.4941 1.07488V15.1567H18.68V10.3423H21.7059C24.4699 10.3423 26.4119 8.4455 26.4119 5.69958C26.4119 2.95367 24.5061 1.07488 21.7782 1.07488H16.4941ZM18.68 2.91754H21.2001C23.097 2.91754 24.1809 3.92919 24.1809 5.70861C24.1809 7.48804 23.097 8.50873 21.1911 8.50873H18.68V2.91754ZM30.4044 15.2651C31.7773 15.2651 33.0509 14.5696 33.629 13.4676H33.6742V15.1567H35.6975V8.14742C35.6975 6.11508 34.0716 4.80535 31.5696 4.80535C29.2482 4.80535 27.532 6.13315 27.4688 7.95774H29.4379C29.6004 7.0906 30.4044 6.52155 31.5063 6.52155C32.8432 6.52155 33.5929 7.1448 33.5929 8.29194V9.06875L30.865 9.23133C28.3269 9.38489 26.9539 10.4236 26.9539 12.2302C26.9539 14.0548 28.372 15.2651 30.4044 15.2651ZM30.9915 13.5941C29.8263 13.5941 29.0856 13.0341 29.0856 12.176C29.0856 11.2908 29.7992 10.7759 31.1631 10.6946L33.5929 10.5411V11.3359C33.5929 12.6547 32.4728 13.5941 30.9915 13.5941ZM38.3982 18.9866C40.5299 18.9866 41.5325 18.1736 42.4087 15.7077L46.2476 4.94084H44.0255L41.4512 13.2599H41.4061L38.8318 4.94084H36.5465L40.2499 15.1929L40.0512 15.8161C39.717 16.8729 39.175 17.2794 38.2085 17.2794C38.0369 17.2794 37.7027 17.2613 37.5672 17.2433V18.9324C37.6937 18.9685 38.2356 18.9866 38.3982 18.9866Z" fill="white"/>
</g>
<g clip-path="url(#clip1_4080_3)">
<path d="M80.8594 9.29963V14.8816H79.0938V1.09663H83.7765C84.3355 1.08492 84.8912 1.18435 85.4116 1.38917C85.9321 1.594 86.4069 1.90017 86.8088 2.29001C87.2147 2.65619 87.5377 3.10527 87.7562 3.60706C87.9747 4.10885 88.0835 4.65174 88.0754 5.19923C88.0871 5.74965 87.9799 6.29608 87.7613 6.80107C87.5426 7.30606 87.2177 7.75767 86.8088 8.12494C85.9899 8.90807 84.9792 9.29926 83.7765 9.29853H80.8594V9.29963ZM80.8594 2.79376V7.60579H83.8204C84.145 7.61544 84.468 7.55704 84.7689 7.43431C85.0697 7.31158 85.3416 7.12724 85.5674 6.89306C85.7919 6.67412 85.9704 6.41223 86.0923 6.1229C86.2142 5.83357 86.2769 5.52267 86.2769 5.20858C86.2769 4.89449 86.2142 4.58358 86.0923 4.29425C85.9704 4.00492 85.7919 3.74304 85.5674 3.52409C85.3445 3.28498 85.0735 3.09612 84.7723 2.97002C84.4711 2.84392 84.1466 2.78347 83.8204 2.79266H80.8594V2.79376Z" fill="white"/>
<path d="M92.1426 5.12988C93.4477 5.12988 94.4778 5.47956 95.233 6.17892C95.9883 6.87827 96.3655 7.83714 96.3648 9.05552V14.867H94.6759V13.5585H94.5992C93.8681 14.6361 92.8957 15.1749 91.682 15.1749C90.6461 15.1749 89.7793 14.867 89.0819 14.2512C88.7471 13.9686 88.4795 13.6146 88.2985 13.2151C88.1175 12.8157 88.0277 12.3807 88.0356 11.942C88.0356 10.9663 88.4034 10.1903 89.1389 9.61412C89.8744 9.03792 90.8563 8.74909 92.0845 8.74762C93.1329 8.74762 93.9964 8.94006 94.6748 9.32492V8.92026C94.6768 8.62119 94.6124 8.32541 94.4863 8.05439C94.3602 7.78336 94.1755 7.54388 93.9456 7.35331C93.4787 6.93092 92.8702 6.70045 92.2413 6.70783C91.2551 6.70783 90.4746 7.12496 89.9 7.9592L88.3449 6.97724C89.2003 5.74567 90.4662 5.12988 92.1426 5.12988ZM89.8583 11.9805C89.8571 12.2058 89.9096 12.4281 90.0115 12.629C90.1134 12.8298 90.2616 13.0033 90.4439 13.1351C90.8344 13.4431 91.3191 13.6063 91.8158 13.5969C92.5609 13.5957 93.2751 13.2983 93.8019 12.77C94.3868 12.218 94.6792 11.5703 94.6792 10.827C94.1287 10.3872 93.361 10.1672 92.3762 10.1672C91.659 10.1672 91.061 10.3406 90.5821 10.6873C90.0985 11.0392 89.8583 11.467 89.8583 11.9805Z" fill="white"/>
<path d="M106.06 5.43701L100.164 18.9593H98.3412L100.529 14.2279L96.6523 5.43701H98.5715L101.373 12.179H101.412L104.137 5.43701H106.06Z" fill="white"/>
<path d="M73.7249 8.07573C73.7256 7.53766 73.6801 7.00051 73.5889 6.47021H66.1426V9.51127H70.4075C70.3202 9.99697 70.1355 10.46 69.8645 10.8724C69.5935 11.2847 69.2417 11.638 68.8305 11.9108V13.8848H71.3759C72.8662 12.5106 73.7249 10.4785 73.7249 8.07573Z" fill="white"/>
<path d="M66.1601 15.792C68.2968 15.792 70.0959 15.0923 71.4078 13.886L68.8554 11.912C68.145 12.3923 67.2301 12.6665 66.1601 12.6665C64.095 12.6665 62.3421 11.2781 61.7153 9.40723H59.0859V11.4415C59.7449 12.7493 60.7554 13.8486 62.0046 14.6169C63.2538 15.3851 64.6925 15.7919 66.1601 15.792Z" fill="white"/>
<path d="M61.6865 9.42654C61.3581 8.44244 61.3581 7.37673 61.6865 6.39264V4.35059H59.0814C58.5321 5.45489 58.2461 6.67368 58.2461 7.90959C58.2461 9.1455 58.5321 10.3643 59.0814 11.4686L61.6865 9.42654Z" fill="white"/>
<path d="M66.1601 3.10771C67.2892 3.08941 68.3802 3.51251 69.1973 4.28554L71.4571 2.04439C70.0242 0.709593 68.1258 -0.0232318 66.1601 -0.000461384C64.6925 -0.000395049 63.2538 0.404206 62.0046 1.16817C60.7554 1.93213 59.7449 3.02539 59.0859 4.32589L61.7152 6.34893C62.342 4.48839 64.0949 3.10771 66.1601 3.10771Z" fill="white"/>
</g>
<g clip-path="url(#clip2_4080_3)">
<path d="M125.66 6.66895L124.695 12.3315H126.239L127.204 6.66895H125.66Z" fill="white"/>
<path d="M123.4 6.67258L121.889 10.5343L121.728 9.95119C121.43 9.24863 120.583 8.23964 119.59 7.60377L120.972 12.326L122.605 12.3232L125.035 6.67139L123.4 6.67258Z" fill="white"/>
<path d="M121.144 7.07967C121.054 6.73474 120.794 6.63193 120.471 6.61963H118.078L118.059 6.73236C119.921 7.18406 121.153 8.27243 121.664 9.58109L121.144 7.07967Z" fill="white"/>
<path d="M130.331 7.75364C130.836 7.7457 131.202 7.85605 131.486 7.97036L131.625 8.03585L131.834 6.80856C131.528 6.69385 131.049 6.5708 130.452 6.5708C128.927 6.5708 127.852 7.33885 127.843 8.43953C127.833 9.25283 128.609 9.70691 129.195 9.97801C129.796 10.2559 129.998 10.4325 129.995 10.6806C129.99 11.0596 129.516 11.2335 129.072 11.2335C128.454 11.2335 128.126 11.1482 127.619 10.937L127.42 10.8465L127.203 12.1139C127.564 12.2722 128.231 12.4084 128.923 12.4155C130.545 12.4155 131.599 11.6566 131.61 10.4805C131.617 9.8371 131.205 9.34611 130.313 8.94323C129.774 8.68046 129.443 8.50581 129.447 8.24067C129.447 8.00529 129.727 7.75364 130.331 7.75364Z" fill="white"/>
<path d="M135.794 6.6748H134.602C134.232 6.6748 133.956 6.77562 133.793 7.14476L131.502 12.3342H133.123C133.123 12.3342 133.387 11.6364 133.447 11.4836C133.624 11.4836 135.199 11.4859 135.423 11.4859C135.469 11.6836 135.611 12.3342 135.611 12.3342H137.043L135.794 6.6748ZM133.891 10.3245C134.018 9.99946 134.506 8.74199 134.506 8.74199C134.498 8.75747 134.632 8.41453 134.711 8.20138L134.815 8.6896C134.815 8.6896 135.111 10.0415 135.173 10.3245H133.891Z" fill="white"/>
</g>
<path d="M158.493 0C159.974 0 161.384 0.339368 162.648 0.946438C162.847 1.03592 163.046 1.14301 163.244 1.2502L162.377 2.01832L161.077 0.678833L158.837 2.6432L157.518 1.23212L153.399 4.89343L156.036 7.76881L155.006 8.66155L157.608 11.5369L156.578 12.4293L160.3 16.5192L162.503 14.5188L164.419 16.6625C164.039 16.9483 163.624 17.2346 163.173 17.4842C161.799 18.2521 160.209 18.6977 158.511 18.6977C153.29 18.6977 149.045 14.5017 149.045 9.34084C149.027 4.21487 153.272 0 158.493 0ZM156.758 8.76893L159.017 6.76859L161.041 9.00092L158.782 11.0011L156.758 8.76893ZM158.367 12.6266L160.607 10.6086L162.648 12.8407L160.39 14.8412L158.367 12.6266ZM155.152 4.9651L157.409 2.96476L159.433 5.19709L157.174 7.19734L155.152 4.9651ZM159.288 3.89321L160.968 2.39312L162.486 4.05409L160.806 5.5719L159.288 3.89321ZM162.287 10.769L163.967 9.2688L165.485 10.9471L163.804 12.4482L162.287 10.769ZM163.768 14.1447L165.449 12.6442L166.965 14.3051L165.285 15.8227L163.768 14.1447ZM164.455 6.42922L165.575 5.429L166.586 6.53668L165.466 7.53653L164.455 6.42922ZM163.01 3.12527L164.13 2.10752L165.142 3.23245L164.021 4.23258L163.01 3.12527ZM165.882 9.73344L167.002 8.73332L168.031 9.84063L166.894 10.8405L165.882 9.73344ZM160.842 7.25094L162.522 5.75075L164.039 7.41136L162.36 8.91182L160.842 7.25094Z" fill="white"/>
<path d="M196.812 3.68799C197.257 4.27104 197.634 4.90447 197.935 5.57556L189.402 11.9503L185.836 9.68473V6.95919L189.402 9.22472L196.812 3.68799Z" fill="white"/>
<path d="M182.195 9.4934C182.195 9.37109 182.198 9.2496 182.204 9.12881L180.043 9.02148C180.036 9.17803 180.031 9.33609 180.031 9.4956C180.03 10.742 180.272 11.9762 180.743 13.1275C181.214 14.2789 181.904 15.3247 182.775 16.205L184.308 14.6522C183.638 13.9758 183.106 13.1718 182.744 12.2864C182.381 11.4011 182.195 10.4519 182.195 9.4934Z" fill="white"/>
<path d="M189.399 2.19272C189.52 2.19272 189.64 2.1972 189.759 2.20316L189.867 0.0121655C189.712 0.00471059 189.556 0.000983603 189.399 0.000983603C188.169 -0.000537012 186.951 0.244261 185.814 0.721322C184.677 1.19838 183.644 1.89831 182.775 2.78092L184.308 4.33451C184.976 3.65513 185.769 3.11616 186.643 2.7486C187.517 2.38103 188.453 2.19212 189.399 2.19272Z" fill="white"/>
<path d="M189.398 16.7939C189.278 16.7939 189.158 16.7939 189.038 16.7842L188.93 18.9744C189.085 18.9824 189.241 18.9864 189.398 18.9864C190.628 18.9876 191.846 18.7427 192.982 18.2655C194.118 17.7883 195.15 17.0883 196.019 16.2057L194.489 14.6528C193.821 15.3319 193.028 15.8705 192.154 16.2379C191.281 16.6054 190.344 16.7943 189.398 16.7939Z" fill="white"/>
<path d="M193.46 3.46654L195.281 2.10602C193.617 0.739882 191.539 -0.00379225 189.396 1.45426e-05V2.1925C190.847 2.19067 192.264 2.63492 193.46 3.46654Z" fill="white"/>
<path d="M198.767 9.49369C198.768 8.92333 198.719 8.35396 198.62 7.79248L196.603 9.29836C196.603 9.36326 196.603 9.4281 196.603 9.49369C196.604 10.5137 196.393 11.5225 195.984 12.4546C195.575 13.3867 194.978 14.2213 194.23 14.9044L195.685 16.5334C196.656 15.6443 197.433 14.5582 197.964 13.3455C198.495 12.1327 198.768 10.8204 198.767 9.49369Z" fill="white"/>
<path d="M189.399 16.7941C188.393 16.7945 187.397 16.5806 186.477 16.1663C185.558 15.752 184.734 15.1465 184.06 14.3892L182.453 15.8622C183.33 16.8472 184.402 17.6343 185.599 18.1726C186.795 18.7108 188.09 18.9881 189.399 18.9866V16.7941Z" fill="white"/>
<path d="M184.568 4.08251L183.115 2.45361C182.143 3.34252 181.366 4.42855 180.835 5.64129C180.304 6.85402 180.03 8.16638 180.031 9.49325H182.195C182.195 8.47327 182.406 7.46449 182.815 6.53239C183.224 5.60032 183.821 4.76566 184.568 4.08251Z" fill="white"/>
<defs>
<clipPath id="clip0_4080_3">
<rect width="46.247" height="18.9866" fill="white"/>
</clipPath>
<clipPath id="clip1_4080_3">
<rect width="47.8113" height="18.9866" fill="white" transform="translate(58.2461)"/>
</clipPath>
<clipPath id="clip2_4080_3">
<rect width="18.9866" height="18.9866" fill="white" transform="translate(118.059)"/>
</clipPath>
</defs>
</svg>
