<svg width="240" height="226" viewBox="0 0 240 226" fill="none" xmlns="http://www.w3.org/2000/svg">
<path d="M186.336 182.736C186.336 182.736 165.888 146.832 170.64 137.712C175.344 128.592 187.392 145.008 187.392 145.008C187.392 145.008 176.928 111.552 182.688 96.96C188.448 82.368 198.384 96.96 198.912 107.28C199.44 117.6 196.8 135.264 196.8 135.264C196.8 135.264 200.976 98.784 210.96 109.728C220.896 120.672 198.384 157.2 198.384 157.2C198.384 157.2 213.6 148.704 213.072 159.648C212.544 170.592 194.736 180.336 194.736 180.336" fill="#FFA000"/>
<path d="M186.528 176.064C186.528 176.064 167.616 158.4 176.832 150.528C186.048 142.608 190.896 159.024 190.896 159.024C190.896 159.024 180.72 108.528 197.184 106.704C213.648 104.88 201.552 150.48 201.552 150.48C201.552 150.48 215.616 130.992 214.656 146.832C213.696 162.672 192.816 176.016 192.816 176.016" stroke="#263238" stroke-miterlimit="10"/>
<path d="M195.84 172.848L183.024 159.024" stroke="#263238" stroke-miterlimit="10"/>
<path d="M193.152 173.904L196.608 133.44" stroke="#263238" stroke-miterlimit="10"/>
<path d="M192.624 170.976L204.096 155.808" stroke="#263238" stroke-miterlimit="10"/>
<path d="M209.184 168.144H173.856L177.36 209.856H205.632L209.184 168.144Z" fill="#263238"/>
<path d="M74.2558 119.808C74.2558 119.808 67.0558 116.208 60.0478 114.048C53.0398 111.888 44.7358 113.856 44.5918 116.208C44.3998 118.56 45.6478 117.456 47.2798 120C48.9118 122.496 48.1918 128.448 50.4958 133.872C52.7998 139.296 59.8558 141.984 59.8558 141.984L74.2558 119.808Z" fill="#0085E5" stroke="#263238" stroke-miterlimit="10" stroke-linecap="round" stroke-linejoin="round"/>
<path opacity="0.3" d="M69.552 125.04C69.552 125.04 58.752 118.224 52.464 115.872C46.176 113.52 45.792 116.928 45.792 116.928C45.792 116.928 49.2 117.984 49.2 122.016C49.2 126.048 51.216 134.448 56.112 136.176C61.008 137.904 69.552 125.04 69.552 125.04Z" fill="black"/>
<path d="M146.609 132.672C149.434 131.599 150.793 128.278 149.645 125.254C148.496 122.231 145.275 120.65 142.45 121.723C139.625 122.797 138.266 126.117 139.414 129.141C140.563 132.164 143.784 133.745 146.609 132.672Z" fill="#0085E5" stroke="#263238" stroke-miterlimit="10" stroke-linecap="round" stroke-linejoin="round"/>
<path d="M69.2158 189.984L75.2638 208.176C75.5998 209.184 76.5598 209.856 77.6158 209.856H87.0718C88.0798 209.856 88.9438 209.28 89.3278 208.368L93.5518 198.576" fill="#0085E5"/>
<path opacity="0.3" d="M72.2881 189.984L77.3281 208.176C77.6161 209.184 78.3841 209.856 79.2961 209.856H87.1201C87.9361 209.856 88.6561 209.28 88.9921 208.368L92.4961 198.576" fill="black"/>
<path d="M69.2158 189.984L75.2638 208.176C75.5998 209.184 76.5598 209.856 77.6158 209.856H87.0718C88.0798 209.856 88.9438 209.28 89.3278 208.368L93.5518 198.576" stroke="#263238" stroke-miterlimit="10" stroke-linecap="round" stroke-linejoin="round"/>
<path d="M114.815 189.984L108.767 208.176C108.431 209.184 107.471 209.856 106.415 209.856H96.9595C95.9515 209.856 95.0875 209.28 94.7035 208.368L90.4795 198.576" fill="#263238"/>
<path d="M114.815 189.984L108.767 208.176C108.431 209.184 107.471 209.856 106.415 209.856H96.9595C95.9515 209.856 95.0875 209.28 94.7035 208.368L90.4795 198.576" stroke="#263238" stroke-miterlimit="10" stroke-linecap="round" stroke-linejoin="round"/>
<path d="M134.832 189.984L128.784 208.176C128.448 209.184 127.488 209.856 126.432 209.856H116.976C115.968 209.856 115.104 209.28 114.72 208.368L110.496 198.576" fill="#0085E5"/>
<path opacity="0.3" d="M130.56 189.984L126.432 208.176C126.192 209.184 125.568 209.856 124.848 209.856H118.416C117.744 209.856 117.12 209.28 116.88 208.368L112.848 198.768" fill="black"/>
<path d="M134.832 189.984L128.784 208.176C128.448 209.184 127.488 209.856 126.432 209.856H116.976C115.968 209.856 115.104 209.28 114.72 208.368L110.496 198.576" stroke="#263238" stroke-miterlimit="10" stroke-linecap="round" stroke-linejoin="round"/>
<path d="M102.48 201.936C131.163 201.936 154.416 180.854 154.416 154.848C154.416 128.842 131.163 107.76 102.48 107.76C73.7965 107.76 50.5439 128.842 50.5439 154.848C50.5439 180.854 73.7965 201.936 102.48 201.936Z" fill="#0085E5"/>
<path opacity="0.3" d="M138.24 122.688C141.216 128.64 142.896 135.216 142.896 142.176C142.896 168.192 119.664 189.264 90.9603 189.264C79.7283 189.264 69.3123 186.048 60.8643 180.528C69.9363 192.672 85.2483 200.688 102.624 200.688C130.464 200.688 153.024 180.24 153.024 154.992C152.976 142.368 147.312 130.944 138.24 122.688Z" fill="black"/>
<path d="M102.48 201.936C131.163 201.936 154.416 180.854 154.416 154.848C154.416 128.842 131.163 107.76 102.48 107.76C73.7965 107.76 50.5439 128.842 50.5439 154.848C50.5439 180.854 73.7965 201.936 102.48 201.936Z" stroke="#263238" stroke-miterlimit="10" stroke-linecap="round" stroke-linejoin="round"/>
<path d="M150.048 159.072C148.896 168.576 144.528 177.168 137.952 183.984" stroke="#0085E5" stroke-width="2" stroke-miterlimit="10" stroke-linecap="round" stroke-linejoin="round"/>
<path d="M149.185 144.48C149.953 147.6 150.337 150.864 150.337 154.176" stroke="#0085E5" stroke-width="2" stroke-miterlimit="10" stroke-linecap="round" stroke-linejoin="round"/>
<path d="M89.6162 110.736C93.7922 109.776 98.1602 109.248 102.672 109.248C105.552 109.248 108.336 109.44 111.072 109.872" stroke="#263238" stroke-width="4" stroke-miterlimit="10" stroke-linecap="round" stroke-linejoin="round"/>
<path d="M112.656 143.568C112.656 143.568 117.696 140.16 117.888 133.872C118.08 127.584 109.776 118.416 103.152 114.624C96.4799 110.832 91.6319 111.552 91.4399 114.288C91.2479 116.976 88.9439 120.048 88.0319 125.28C87.1199 130.512 86.7839 138.24 93.7919 140.736" fill="#0085E5"/>
<path d="M112.656 143.568C112.656 143.568 117.696 140.16 117.888 133.872C118.08 127.584 109.776 118.416 103.152 114.624C96.4799 110.832 91.6319 111.552 91.4399 114.288C91.2479 116.976 88.9439 120.048 88.0319 125.28C87.1199 130.512 86.7839 138.24 93.7919 140.736" stroke="#263238" stroke-miterlimit="10" stroke-linecap="round" stroke-linejoin="round"/>
<path opacity="0.3" d="M101.808 141.552C102.144 141.6 102.48 141.648 102.864 141.696C107.28 142.32 108.864 139.44 108.72 135.12C108.528 129.024 100.464 116.064 97.0083 114.24C93.6003 112.464 92.4963 114.96 92.4963 114.96C92.4963 114.96 92.9763 115.296 91.2963 120.864C90.5283 123.456 87.6483 132.432 90.4803 136.464C93.0243 139.968 97.7283 140.928 101.808 141.552Z" fill="black"/>
<path opacity="0.3" d="M116.16 135.312H116.112C115.872 135.264 115.68 135.024 115.68 134.784C115.728 134.4 115.776 134.064 115.776 133.68C115.872 130.32 113.135 125.52 108.623 121.056C108.431 120.864 108.431 120.576 108.623 120.384C108.815 120.192 109.103 120.192 109.295 120.384C114.047 125.088 116.832 130.08 116.736 133.728C116.736 134.112 116.688 134.544 116.64 134.928C116.592 135.168 116.4 135.312 116.16 135.312Z" fill="black"/>
<path opacity="0.3" d="M113.568 141.168C113.472 141.168 113.376 141.12 113.28 141.072C113.088 140.928 113.04 140.592 113.232 140.4C114.048 139.392 114.672 138.336 115.104 137.184C115.2 136.944 115.488 136.8 115.728 136.896C115.968 136.992 116.112 137.28 116.016 137.52C115.536 138.768 114.864 139.92 114 141.024C113.856 141.072 113.712 141.168 113.568 141.168Z" fill="black"/>
<path opacity="0.3" d="M78.5986 163.954C80.0164 158.269 75.077 152.142 67.566 150.269C60.0551 148.396 52.817 151.485 51.3992 157.17C49.9814 162.855 54.9208 168.982 62.4318 170.855C69.9427 172.728 77.1808 169.638 78.5986 163.954Z" fill="black"/>
<path d="M77.9013 162.907C79.3191 157.222 74.3797 151.095 66.8688 149.222C59.3578 147.349 52.1197 150.438 50.7019 156.123C49.2841 161.808 54.2236 167.935 61.7345 169.808C69.2454 171.681 76.4836 168.592 77.9013 162.907Z" fill="#0085E5" stroke="#263238" stroke-miterlimit="10" stroke-linecap="round" stroke-linejoin="round"/>
<path d="M60.0961 157.824C60.1921 159.12 59.7121 160.176 58.9921 160.224C58.3201 160.272 57.6481 159.264 57.6001 157.968C57.5041 156.672 57.9841 155.616 58.7041 155.568C59.3761 155.52 60.0001 156.528 60.0961 157.824Z" stroke="#263238" stroke-miterlimit="10" stroke-linecap="round" stroke-linejoin="round"/>
<path d="M69.6 160.225C69.696 161.521 69.216 162.577 68.496 162.625C67.824 162.673 67.152 161.665 67.104 160.369C67.008 159.073 67.488 158.017 68.208 157.969C68.88 157.921 69.504 158.928 69.6 160.225Z" stroke="#263238" stroke-miterlimit="10" stroke-linecap="round" stroke-linejoin="round"/>
<path d="M85.2955 163.537C85.1995 164.449 84.9595 165.361 84.6715 166.225C81.9355 173.665 71.9515 176.881 62.0635 173.665" stroke="#263238" stroke-width="3" stroke-miterlimit="10" stroke-linecap="round" stroke-linejoin="round"/>
<path d="M83.7119 162.816H86.7359" stroke="#263238" stroke-width="3" stroke-miterlimit="10" stroke-linecap="round" stroke-linejoin="round"/>
<path d="M64.224 142.896C63.888 144.288 63.024 145.296 62.304 145.104C61.584 144.912 61.248 143.664 61.584 142.272C61.92 140.88 62.784 139.872 63.504 140.064C64.224 140.208 64.56 141.504 64.224 142.896Z" fill="#263238" stroke="#263238" stroke-miterlimit="10" stroke-linecap="round" stroke-linejoin="round"/>
<path d="M73.0751 144.84C73.4105 143.448 73.0974 142.179 72.3757 142.005C71.6541 141.831 70.7972 142.818 70.4618 144.21C70.1264 145.602 70.4395 146.871 71.1611 147.045C71.8828 147.219 72.7397 146.232 73.0751 144.84Z" fill="#263238" stroke="#263238" stroke-miterlimit="10" stroke-linecap="round" stroke-linejoin="round"/>
<path d="M86.3037 195.792L91.5837 208.32C91.9677 209.232 92.8797 209.856 93.8397 209.856H103.44C104.448 209.856 105.312 209.28 105.696 208.368L111.456 195.072H111.216" fill="#0085E5"/>
<path opacity="0.3" d="M97.4394 194.256C94.4154 194.256 90.8634 194.64 87.9834 193.968L92.9274 208.32C93.2634 209.232 93.9834 209.856 94.7994 209.856H102.719C103.535 209.856 104.255 209.28 104.591 208.368L109.343 193.728L107.423 194.016C101.375 194.64 101.519 194.256 97.4394 194.256Z" fill="black"/>
<path d="M86.3037 195.792L91.5837 208.32C91.9677 209.232 92.8797 209.856 93.8397 209.856H103.44C104.448 209.856 105.312 209.28 105.696 208.368L111.456 195.072H111.216" stroke="#263238" stroke-miterlimit="10" stroke-linecap="round" stroke-linejoin="round"/>
<path d="M181.921 0.67198L155.377 38.928C155.377 38.928 153.121 44.352 150.289 48.336C147.505 52.368 139.633 56.352 139.633 56.352C139.633 56.352 138.913 63.84 136.657 66.48C134.401 69.12 129.505 67.536 129.505 67.536C129.505 67.536 127.393 69.792 125.137 70.848C122.881 71.904 115.873 68.064 115.873 68.064C115.873 68.064 122.161 74.88 123.025 77.136C123.889 79.392 125.473 81.312 122.689 83.424C119.905 85.536 116.737 82.56 116.737 82.56C116.737 82.56 118.129 87.12 114.097 87.984C110.065 88.848 105.697 80.112 103.969 77.136C102.241 74.16 97.1528 62.976 96.2888 62.448C95.4248 61.92 94.1768 59.136 95.9528 56.496C97.6808 53.856 110.113 37.104 111.505 35.904C112.897 34.704 139.633 28.416 139.633 28.416L149.761 0.47998" fill="white"/>
<path opacity="0.2" d="M152.64 39.3601C152.64 39.3601 149.76 48.0001 146.64 49.6801C143.52 51.3601 125.76 55.9201 118.8 54.9601C111.84 54.0001 108 51.3601 108 51.3601C108 51.3601 104.16 56.4001 102.48 58.0801C100.8 59.7601 98.4004 60.4801 98.4004 60.4801C98.4004 60.4801 106.752 81.4561 112.752 87.9361C113.232 88.0801 113.712 88.0801 114.144 87.9841C118.176 87.1201 116.784 82.5601 116.784 82.5601C116.784 82.5601 119.904 85.5361 122.736 83.4241C125.52 81.3121 123.936 79.3921 123.072 77.1361C122.208 74.8801 115.92 68.0641 115.92 68.0641C115.92 68.0641 122.928 71.9041 125.184 70.8481C127.44 69.7921 129.552 67.5361 129.552 67.5361C129.552 67.5361 134.448 69.1201 136.704 66.4801C138.96 63.8401 139.68 56.3521 139.68 56.3521C139.68 56.3521 147.552 52.3201 150.336 48.3361C153.12 44.3041 155.424 38.9281 155.424 38.9281L166.368 23.1841L152.64 39.3601Z" fill="black"/>
<path d="M181.921 0.67198L155.377 38.928C155.377 38.928 153.121 44.352 150.289 48.336C147.505 52.368 139.633 56.352 139.633 56.352C139.633 56.352 138.913 63.84 136.657 66.48C134.401 69.12 129.505 67.536 129.505 67.536C129.505 67.536 127.393 69.792 125.137 70.848C122.881 71.904 115.873 68.064 115.873 68.064C115.873 68.064 122.161 74.88 123.025 77.136C123.889 79.392 125.473 81.312 122.689 83.424C119.905 85.536 116.737 82.56 116.737 82.56C116.737 82.56 118.129 87.12 114.097 87.984C110.065 88.848 105.697 80.112 103.969 77.136C102.241 74.16 97.1528 62.976 96.2888 62.448C95.4248 61.92 94.1768 59.136 95.9528 56.496C97.6808 53.856 110.113 37.104 111.505 35.904C112.897 34.704 139.633 28.416 139.633 28.416L149.761 0.47998" stroke="#263238" stroke-miterlimit="10" stroke-linecap="round" stroke-linejoin="round"/>
<path d="M91.1045 102.672L91.8245 105.312L102.624 102.672L112.752 76.1281L106.128 73.8721L91.1045 102.672Z" fill="white" stroke="#263238" stroke-miterlimit="10" stroke-linecap="round" stroke-linejoin="round"/>
<path d="M94.4165 67.3921L109.44 73.0081L102.144 106.176L84.4805 100.752L94.4165 67.3921Z" fill="white" stroke="#263238" stroke-miterlimit="10" stroke-linecap="round" stroke-linejoin="round"/>
<path d="M85.0566 98.784L100.705 103.392L107.521 73.8721L93.8406 69.4561L85.0566 98.784Z" fill="#FFA000" stroke="#263238" stroke-miterlimit="10" stroke-linecap="round" stroke-linejoin="round"/>
<path d="M93.7447 76.7523C93.0727 76.5603 92.3527 76.5603 91.6327 76.6563L87.5527 90.3363C88.1287 90.9123 88.8487 91.3443 89.6647 91.5363C92.8807 92.4003 96.3847 89.8083 97.4887 85.7283C98.6407 81.6963 96.9607 77.6643 93.7447 76.7523Z" fill="white" stroke="#263238" stroke-miterlimit="10" stroke-linecap="round" stroke-linejoin="round"/>
<path d="M93.168 79.056C93.12 79.008 93.12 78.96 93.12 78.96L93.312 78.24C93.36 78.096 93.264 78 93.12 77.952L92.352 77.76C92.208 77.712 92.112 77.76 92.064 77.952L91.92 78.672C91.92 78.72 91.872 78.768 91.824 78.768C91.536 78.72 91.296 78.768 91.056 78.768L89.664 83.472C90.768 84.624 92.448 85.152 92.208 86.112C92.064 86.64 91.584 87.072 90.72 86.88C89.808 86.64 89.52 85.968 89.664 85.296L89.712 85.104C89.76 85.008 89.664 84.912 89.52 84.864L89.232 84.816L88.416 87.6C88.704 87.888 89.088 88.128 89.568 88.272C89.616 88.32 89.616 88.368 89.616 88.368L89.424 88.992C89.376 89.136 89.472 89.232 89.616 89.28L90.384 89.472C90.528 89.52 90.624 89.472 90.672 89.28L90.816 88.656C90.816 88.608 90.864 88.56 90.912 88.56C92.592 88.752 93.744 87.888 94.08 86.448C94.368 85.248 93.984 84.24 92.736 83.328C91.584 82.464 90.432 82.032 90.624 81.168C90.768 80.544 91.296 80.304 92.064 80.448C93.024 80.688 93.264 81.408 93.072 82.128L93.024 82.272C93.024 82.368 93.072 82.416 93.216 82.464L94.608 82.8C94.752 82.848 94.848 82.752 94.896 82.608L94.992 82.176C95.424 80.784 94.752 79.584 93.168 79.056Z" fill="#263238"/>
<path d="M106.849 49.9678C106.849 49.9678 108.961 53.0878 109.297 55.9198C109.633 58.7038 108.769 61.1518 107.713 62.7358C106.657 64.3198 105.601 65.7118 104.737 68.1598C103.873 70.6078 103.681 74.1118 102.481 75.8398C101.281 77.5678 100.561 79.3438 102.289 80.9278C104.017 82.5118 108.577 82.3198 111.025 77.8078C113.473 73.2478 115.057 68.3998 116.593 66.6238C118.177 64.8958 123.217 60.8638 123.217 60.8638C123.217 60.8638 136.993 58.9438 139.633 56.4958C142.273 54.0478 144.529 47.4238 144.529 47.4238" fill="white"/>
<path opacity="0.2" d="M143.521 49.6797C143.521 49.6797 136.081 54.4797 130.321 55.9197C124.561 57.3597 120.961 57.3597 118.801 60.2397C116.641 63.1197 114.481 72.2397 111.601 73.9197C108.721 75.5997 108.241 69.5997 104.161 70.7997C104.113 70.7997 104.065 70.8477 104.017 70.8477C103.633 72.7197 103.249 74.6397 102.481 75.7917C101.281 77.5197 100.561 79.2957 102.289 80.8797C104.017 82.4637 108.577 82.2717 111.025 77.7597C113.473 73.1997 115.057 68.3517 116.593 66.5757C118.177 64.8477 123.217 60.8157 123.217 60.8157C123.217 60.8157 136.993 58.8957 139.633 56.4477C141.217 54.9597 142.657 51.9837 143.569 49.8237L143.521 49.6797Z" fill="black"/>
<path d="M106.849 49.9678C106.849 49.9678 108.961 53.0878 109.297 55.9198C109.633 58.7038 108.769 61.1518 107.713 62.7358C106.657 64.3198 105.601 65.7118 104.737 68.1598C103.873 70.6078 103.681 74.1118 102.481 75.8398C101.281 77.5678 100.561 79.3438 102.289 80.9278C104.017 82.5118 108.577 82.3198 111.025 77.8078C113.473 73.2478 115.057 68.3998 116.593 66.6238C118.177 64.8958 123.217 60.8638 123.217 60.8638C123.217 60.8638 136.993 58.9438 139.633 56.4958C142.273 54.0478 144.529 47.4238 144.529 47.4238" stroke="#263238" stroke-miterlimit="10" stroke-linecap="round" stroke-linejoin="round"/>
<path d="M101.425 58.6558C101.425 58.6558 105.985 61.1039 109.297 58.3198" stroke="#263238" stroke-miterlimit="10" stroke-linecap="round" stroke-linejoin="round"/>
<path d="M116.785 82.6082L112.753 74.9282" stroke="#263238" stroke-miterlimit="10" stroke-linecap="round" stroke-linejoin="round"/>
<path d="M129.553 67.5841C129.553 67.5841 132.673 64.9441 132.529 59.1841" stroke="#263238" stroke-miterlimit="10" stroke-linecap="round" stroke-linejoin="round"/>
<path d="M34.0801 209.856H224.16" stroke="#263238" stroke-miterlimit="10" stroke-linecap="round" stroke-linejoin="round"/>
<path d="M17.2803 209.856H25.9203" stroke="#263238" stroke-miterlimit="10" stroke-linecap="round" stroke-linejoin="round"/>
</svg>
