<svg width="321" height="211" viewBox="0 0 321 211" fill="none" xmlns="http://www.w3.org/2000/svg">
<path opacity="0.3" d="M283.237 59.6803C283.237 59.6803 280.378 45.7061 270.846 46.6605C266.515 47.0928 263.613 49.267 261.105 52.6397C257.882 56.9668 256.727 54.4501 252.113 55.8711C247.983 57.1422 248.62 60.6347 246.078 61.2724C243.536 61.9059 241.631 59.0511 238.139 59.6846C234.646 60.318 232.737 63.8148 232.737 63.8148H296.261C296.261 63.8148 295.944 60.0056 291.814 58.7344C287.684 57.459 285.775 60.6347 283.237 59.6803Z" stroke="black" stroke-miterlimit="10"/>
<path opacity="0.3" d="M88.7157 30.1614C88.7157 30.1614 86.764 20.6127 80.2499 21.2632C77.2881 21.5586 75.3065 23.0437 73.5902 25.3464C71.386 28.3038 70.5985 26.5833 67.4441 27.5548C64.6236 28.4237 65.0559 30.8119 63.3225 31.2442C61.5848 31.6765 60.2837 29.7248 57.8954 30.1571C55.5072 30.5894 54.2061 32.9776 54.2061 32.9776H97.6138C97.6138 32.9776 97.3955 30.3754 94.575 29.5065C91.7545 28.642 90.4534 30.8119 88.7157 30.1614Z" stroke="black" stroke-miterlimit="10"/>
<g opacity="0.3">
<path opacity="0.3" d="M220.305 17.8499L211.488 36.3682L243.547 51.6326L252.365 33.1143L220.305 17.8499Z" stroke="black" stroke-miterlimit="10"/>
<path opacity="0.3" d="M224.042 21.8407C223.455 23.0733 221.979 23.5998 220.746 23.0091C220.652 22.9663 220.562 22.915 220.481 22.8593L215.413 33.4909C215.507 33.5208 215.606 33.5593 215.7 33.6021C216.932 34.1885 217.459 35.6651 216.868 36.8977C216.847 36.9448 216.821 36.9876 216.796 37.0347L239.702 47.9444C239.719 47.8973 239.741 47.8503 239.762 47.8032C240.348 46.5705 241.825 46.0441 243.058 46.6347C243.152 46.6775 243.242 46.7289 243.323 46.7845L248.386 36.153C248.292 36.1231 248.194 36.0845 248.099 36.0417C246.867 35.4554 246.34 33.9788 246.931 32.7461C246.974 32.652 247.025 32.5621 247.081 32.4808L224.153 21.5625C224.123 21.6524 224.084 21.7465 224.042 21.8407ZM235.598 36.4954C234.635 38.5199 232.216 39.3759 230.192 38.4129C228.168 37.4499 227.311 35.0317 228.274 33.0072C229.237 30.9828 231.656 30.1268 233.68 31.0898C235.7 32.0528 236.561 34.4753 235.598 36.4954Z" stroke="black" stroke-miterlimit="10"/>
</g>
<g opacity="0.3">
<path opacity="0.3" d="M29.4421 28.345L20.625 46.8633L52.6842 62.1277L61.5013 43.6094L29.4421 28.345Z" stroke="black" stroke-miterlimit="10"/>
<path opacity="0.3" d="M33.1701 32.3268C32.5837 33.5594 31.1071 34.0859 29.8745 33.4952C29.7803 33.4524 29.6905 33.4011 29.6091 33.3454L24.5459 43.977C24.6401 44.0069 24.7385 44.0454 24.8327 44.0882C26.0653 44.6746 26.5917 46.1512 26.0011 47.3838C25.9797 47.4309 25.954 47.4737 25.9283 47.5208L48.8349 58.4305C48.852 58.3834 48.8734 58.3364 48.8948 58.2893C49.4812 57.0566 50.9578 56.5302 52.1904 57.1208C52.2846 57.1636 52.3745 57.215 52.4558 57.2706L57.519 46.6391C57.4249 46.6092 57.3264 46.5706 57.2323 46.5278C55.9996 45.9415 55.4732 44.4649 56.0638 43.2322C56.1066 43.1381 56.158 43.0482 56.2136 42.9669L33.2814 32.04C33.2514 32.1385 33.2172 32.2326 33.1701 32.3268ZM44.7261 46.9815C43.7631 49.006 41.3449 49.862 39.3205 48.899C37.296 47.936 36.44 45.5178 37.403 43.4933C38.366 41.4689 40.7842 40.6129 42.8087 41.5759C44.8288 42.5389 45.6891 44.9614 44.7261 46.9815Z" stroke="black" stroke-miterlimit="10"/>
</g>
<g opacity="0.3">
<path opacity="0.3" d="M258.43 85.5008L249.613 104.019L281.672 119.283L290.49 100.765L258.43 85.5008Z" stroke="black" stroke-miterlimit="10"/>
<path opacity="0.3" d="M262.167 89.495C261.581 90.7276 260.104 91.2541 258.872 90.6634C258.777 90.6206 258.688 90.5693 258.606 90.5136L253.543 101.145C253.637 101.175 253.736 101.214 253.83 101.256C255.062 101.843 255.589 103.319 254.998 104.552C254.977 104.599 254.951 104.642 254.925 104.689L277.832 115.599C277.849 115.552 277.87 115.505 277.892 115.457C278.478 114.225 279.955 113.698 281.187 114.289C281.282 114.332 281.371 114.383 281.453 114.439L286.516 103.807C286.422 103.777 286.323 103.739 286.229 103.696C284.997 103.11 284.47 101.633 285.061 100.4C285.104 100.306 285.155 100.216 285.211 100.135L262.283 89.2168C262.248 89.3067 262.21 89.4051 262.167 89.495ZM273.719 104.154C272.756 106.174 270.338 107.034 268.313 106.071C266.289 105.108 265.433 102.69 266.396 100.666C267.359 98.6414 269.777 97.7854 271.801 98.7484C273.826 99.7114 274.682 102.13 273.719 104.154Z" stroke="black" stroke-miterlimit="10"/>
</g>
<g opacity="0.3">
<path opacity="0.3" d="M157.551 55.0247L169.59 71.6294L198.336 50.7869L186.297 34.1821L157.551 55.0247Z" stroke="black" stroke-miterlimit="10"/>
<path opacity="0.3" d="M162.838 53.6544C163.638 54.7586 163.394 56.308 162.286 57.1083C162.2 57.1682 162.114 57.2239 162.024 57.271L168.937 66.8025C169.009 66.734 169.086 66.6656 169.172 66.6056C170.276 65.8053 171.826 66.0492 172.626 67.1578C172.656 67.2006 172.682 67.2434 172.712 67.2862L193.251 52.396C193.217 52.3575 193.187 52.319 193.157 52.2762C192.357 51.172 192.601 49.6226 193.709 48.8222C193.795 48.7623 193.88 48.7067 193.97 48.6596L187.058 39.128C186.985 39.1965 186.908 39.265 186.823 39.3249C185.718 40.1253 184.169 39.8813 183.369 38.7728C183.309 38.6872 183.253 38.6016 183.206 38.5117L162.641 53.419C162.709 53.4917 162.778 53.5688 162.838 53.6544ZM181.233 50.5257C182.547 52.3404 182.145 54.8742 180.33 56.1881C178.515 57.5021 175.981 57.0998 174.668 55.285C173.354 53.4703 173.756 50.9366 175.571 49.6226C177.385 48.3044 179.919 48.711 181.233 50.5257Z" stroke="black" stroke-miterlimit="10"/>
</g>
<g opacity="0.15">
<path opacity="0.15" d="M20.7407 86.9867C23.4542 87.0766 29.061 84.6969 29.0653 84.6926C29.1252 84.6669 26.3775 81.474 26.1806 81.2943C23.9079 79.1928 18.2754 76.4707 15.2537 78.1699C13.0795 79.3982 12.7157 82.2102 14.0981 84.1662C15.5063 86.1735 18.4295 86.9139 20.7407 86.9867Z" fill="black"/>
<path opacity="0.15" d="M29.2147 102.592C31.7528 101.988 36.2168 98.5127 36.5721 98.2345C38.4938 100.743 40.668 103.161 43.0049 105.485C44.3403 106.816 45.7227 108.113 47.1308 109.401C46.4032 108.909 45.7484 108.477 45.6499 108.425C42.9022 107 36.7518 105.861 34.2865 108.301C32.5103 110.06 32.9041 112.868 34.7531 114.391C36.6405 115.949 39.6579 115.889 41.9092 115.354C44.1905 114.811 48.0596 111.926 49.0697 111.147C49.6132 111.635 50.1525 112.127 50.7003 112.611C53.3197 114.939 55.9433 117.251 58.4514 119.596C59.3331 120.422 60.172 121.269 61.0151 122.113C60.3689 121.676 59.8167 121.317 59.7269 121.269C56.9791 119.844 50.8287 118.701 48.3635 121.145C46.5873 122.904 46.981 125.712 48.83 127.236C50.7217 128.794 53.7349 128.734 55.9861 128.199C58.1647 127.681 61.7556 125.049 62.9625 124.133C63.8014 125.023 64.6403 125.913 65.4107 126.812C65.9243 127.437 66.4593 128.006 66.9387 128.665C67.4266 129.307 67.9102 129.941 68.3896 130.57C69.267 131.815 70.1829 133.095 71.0089 134.332C71.591 135.188 72.1303 136.014 72.6739 136.844C71.805 136.01 70.0673 134.418 69.909 134.298C67.4095 132.47 61.5031 130.416 58.6954 132.453C56.6752 133.921 56.6367 136.754 58.2374 138.544C59.8681 140.367 62.8598 140.769 65.1625 140.577C67.7005 140.367 72.4599 137.739 73.0505 137.409C73.945 138.787 74.8053 140.136 75.5971 141.42C76.3076 142.571 76.9667 143.667 77.5916 144.72L79.6117 143.915C78.9055 142.776 78.1523 141.582 77.3391 140.324C76.436 138.92 75.4387 137.444 74.403 135.933C74.7197 135.633 76.513 133.917 77.9853 132.106C80.3436 133.236 85.4026 133.643 86.0574 133.69C86.0446 135.334 86.0189 136.93 85.9675 138.441C85.9376 139.481 85.8948 140.474 85.852 141.437L87.992 140.585C88.0048 139.9 88.0177 139.207 88.0262 138.484C88.0476 136.814 88.0348 135.03 88.0005 133.202C88.6554 133.087 94.0182 132.119 96.1197 130.677C98.0286 129.367 100.092 127.172 100.207 124.728C100.318 122.335 98.4994 120.161 96.0041 120.298C92.5416 120.486 89.2589 125.815 88.4756 128.807C88.4285 128.982 88.1418 130.955 87.9791 132.205C87.962 131.456 87.9535 130.733 87.9278 129.962C87.885 128.438 87.7994 126.919 87.7138 125.288C87.6453 124.501 87.5725 123.705 87.5041 122.9C87.4484 122.104 87.2901 121.265 87.1873 120.439C86.9091 118.53 86.5325 116.609 86.1088 114.683C87.4399 114.644 92.1735 114.434 94.2665 113.424C96.3508 112.418 98.7262 110.561 99.2056 108.16C99.6764 105.81 98.2083 103.383 95.7217 103.144C92.2677 102.806 88.2188 107.573 86.9905 110.415C86.9134 110.591 86.2586 112.731 85.9247 113.912C85.6637 112.757 85.4069 111.601 85.103 110.441C84.2256 107.09 83.2369 103.721 82.2653 100.362C81.9657 99.3302 81.6833 98.303 81.3922 97.2715C81.8673 97.2629 87.4955 97.1345 89.841 96.0046C91.9253 95.0031 94.3007 93.1413 94.7801 90.7402C95.2509 88.3905 93.7828 85.9637 91.2961 85.724C87.8465 85.3859 83.7933 90.1538 82.5649 92.9958C82.4708 93.2098 81.5335 96.2871 81.3366 97.0832C80.6989 94.8148 80.0868 92.5506 79.5732 90.2908C78.8585 87.175 78.332 84.0805 78.041 81.0417C78.2635 81.0374 84.14 80.9304 86.5411 79.7748C88.6254 78.769 91.0008 76.9115 91.4845 74.5104C91.9553 72.1607 90.4872 69.734 88.0005 69.4943C84.5466 69.1562 80.4977 73.9241 79.2693 76.766C79.1752 76.9886 78.1651 80.3013 78.0281 80.9133C78.011 80.7336 77.9725 80.5452 77.9597 80.3655C77.69 77.117 77.8398 73.9412 78.1223 70.9709C78.2849 69.246 78.5375 67.6068 78.8157 66.0146C79.9113 66.1088 84.9275 66.4726 87.2045 65.6722C89.3873 64.9018 91.951 63.3182 92.6914 60.9856C93.419 58.7001 92.2249 56.1321 89.781 55.6142C86.387 54.8995 81.8373 59.1923 80.3008 61.8844C80.2195 62.03 79.5347 63.6093 79.0511 64.7692C79.188 64.0544 79.3164 63.314 79.4619 62.6292C80.0012 60.0612 80.6518 57.7457 81.2467 55.6998C81.5934 54.54 81.9315 53.4956 82.2568 52.5241C83.3781 52.0533 87.885 50.1016 89.5028 48.3725C91.0821 46.6862 92.6315 44.0968 92.2163 41.6828C91.8097 39.3203 89.567 37.5869 87.1574 38.2588C83.8147 39.1876 81.756 45.094 81.6319 48.1884C81.6233 48.4581 81.9358 52.6568 81.9914 52.6354C81.9914 52.6354 82.0471 52.614 82.0599 52.6054C81.7261 53.5342 81.3837 54.5357 81.0284 55.6356C80.3864 57.6729 79.6845 59.9841 79.0853 62.5478C78.4818 65.1116 77.8997 67.9107 77.5488 70.9152C77.1935 73.9284 76.9795 77.1127 77.1764 80.4254C77.1764 80.4639 77.185 80.5024 77.1893 80.541C76.8298 79.5908 75.7383 76.9672 75.6313 76.7746C74.1248 74.0696 69.6265 69.7254 66.2239 70.4016C63.7757 70.8896 62.5517 73.4447 63.2536 75.7388C63.9726 78.08 66.5192 79.6935 68.6892 80.4853C71.1373 81.3798 76.7784 80.9476 77.2278 80.909C77.4461 84.0591 77.9297 87.2777 78.5931 90.5048C78.974 92.3495 79.4106 94.1984 79.8728 96.0474C79.5347 95.2342 79.2265 94.5109 79.1752 94.4167C77.6686 91.7118 73.1703 87.3676 69.7677 88.0438C67.3153 88.5317 66.0955 91.0869 66.7974 93.381C67.5122 95.7221 70.0631 97.3357 72.233 98.1318C74.4372 98.9364 79.2522 98.6625 80.5277 98.5726C80.7117 99.2788 80.8915 99.9893 81.0798 100.691C81.9829 104.077 82.8945 107.454 83.6906 110.792C83.9731 111.969 84.2042 113.137 84.4439 114.306C84.1443 113.587 83.8832 112.979 83.8361 112.893C82.3295 110.189 77.8313 105.844 74.4287 106.521C71.9762 107.008 70.7564 109.568 71.4583 111.858C72.1731 114.199 74.724 115.812 76.8939 116.604C78.9954 117.375 83.4466 117.161 84.9575 117.062C85.1629 118.265 85.3726 119.472 85.5224 120.649C85.6037 121.453 85.7407 122.224 85.7749 123.037C85.8306 123.842 85.8819 124.638 85.9333 125.425C85.9804 126.949 86.036 128.52 86.0446 130.005C86.0574 131.041 86.0489 132.025 86.0446 133.018C85.7792 131.845 85.21 129.556 85.1415 129.371C84.4225 127.441 82.5093 124.608 80.288 122.96C80.1853 122.673 80.0569 122.399 79.8985 122.138C78.6701 120.08 75.9523 119.271 73.9493 120.76C71.1673 122.827 71.3685 129.08 72.3657 132.012C72.4256 132.183 73.2731 133.99 73.8252 135.12C73.3972 134.503 72.9906 133.904 72.5455 133.275C71.6723 132.029 70.7607 130.81 69.7891 129.496C69.2969 128.875 68.8005 128.254 68.2954 127.621C67.8118 126.983 67.2169 126.375 66.6776 125.742C65.3893 124.304 64.0197 122.909 62.603 121.535C63.6944 120.764 67.525 117.982 68.7149 115.984C69.9004 113.998 70.8549 111.134 69.9347 108.87C69.0316 106.649 66.4721 105.438 64.2637 106.606C61.1992 108.228 60.4502 114.439 60.9895 117.49C61.0237 117.679 61.6571 119.823 62.0295 120.996C61.1735 120.178 60.3218 119.352 59.4273 118.552C56.8464 116.236 54.1629 113.976 51.4964 111.708C50.6789 111.015 49.8743 110.313 49.0654 109.615C49.4549 109.345 54.0815 106.131 55.4169 103.897C56.6025 101.911 57.5569 99.052 56.6367 96.7836C55.7336 94.5622 53.1742 93.351 50.9657 94.5194C47.9012 96.1416 47.1522 102.352 47.6915 105.403C47.7343 105.635 48.6502 108.716 48.9199 109.491C47.1394 107.95 45.376 106.401 43.7025 104.8C41.3871 102.596 39.2428 100.306 37.3253 97.9306C37.5094 97.8065 42.3501 94.4724 43.7154 92.1826C44.9009 90.1966 45.8554 87.3333 44.9352 85.0692C44.0321 82.8479 41.4727 81.6366 39.2642 82.8051C36.1997 84.4272 35.4507 90.6375 35.9943 93.6891C36.0371 93.9288 37.0257 97.2458 37.2483 97.8364C37.1327 97.6952 37.0001 97.5625 36.8888 97.4213C34.8729 94.8618 33.2465 92.1269 31.8427 89.4947C31.0252 87.9668 30.3318 86.4602 29.6855 84.9793C30.6528 84.4529 35.0398 81.9919 36.495 80.0659C37.8903 78.2212 39.1529 75.482 38.4895 73.128C37.8347 70.8211 35.4207 69.3359 33.101 70.2561C29.8781 71.5316 28.4529 77.622 28.6541 80.7122C28.6669 80.8791 28.9665 82.5782 29.2019 83.8066C28.9237 83.1346 28.6198 82.4456 28.363 81.795C27.3957 79.3554 26.6639 77.0656 26.0304 75.0283C25.6795 73.8684 25.3841 72.8113 25.1188 71.8226C25.795 70.8082 28.4743 66.6952 28.8723 64.3583C29.2618 62.077 29.1206 59.0639 27.4428 57.2834C25.7993 55.5372 22.9745 55.3318 21.3353 57.215C19.0626 59.8343 20.6034 65.8948 22.2084 68.5441C22.3453 68.771 24.9262 72.1051 24.9604 72.0537C24.9604 72.0537 24.9947 72.0024 24.9989 71.9938C25.2343 72.9525 25.4997 73.9797 25.8121 75.0925C26.4028 77.1469 27.0876 79.4624 28.0035 81.9277C28.9151 84.3972 29.9723 87.0551 31.3376 89.7515C32.7029 92.4565 34.278 95.2342 36.2725 97.8878C36.2939 97.9178 36.3238 97.9477 36.3452 97.9777C35.5192 97.3828 33.1609 95.7992 32.9683 95.6964C30.2205 94.2712 24.0702 93.1284 21.6049 95.5723C19.8287 97.3314 20.2225 100.139 22.0714 101.663C23.9503 103.186 26.9677 103.131 29.2147 102.592Z" fill="black"/>
<path opacity="0.15" d="M78.439 65.4539C78.5032 65.4668 77.9724 61.2852 77.9082 61.0241C77.1721 58.0153 73.9749 52.6396 70.5167 52.3914C68.0257 52.2116 66.1725 54.3602 66.2452 56.757C66.318 59.2051 68.3467 61.435 70.2342 62.7747C72.447 64.3454 78.4347 65.4539 78.439 65.4539Z" fill="black"/>
</g>
<g opacity="0.15">
<path opacity="0.15" d="M167.549 131.512C170.69 131.614 177.183 128.858 177.188 128.858C177.256 128.828 174.072 125.13 173.845 124.92C171.213 122.485 164.69 119.335 161.193 121.304C158.672 122.725 158.253 125.978 159.854 128.246C161.488 130.57 164.87 131.426 167.549 131.512Z" fill="black"/>
<path opacity="0.15" d="M231.065 194.53C231.15 194.672 231.227 194.8 231.313 194.937H234.15C233.799 194.389 233.444 193.828 233.072 193.259C232.023 191.637 230.872 189.921 229.674 188.175C230.042 187.828 232.117 185.842 233.821 183.745C236.556 185.05 242.411 185.525 243.164 185.581C243.151 187.486 243.117 189.334 243.061 191.081C243.023 192.283 242.98 193.435 242.929 194.548L245.403 193.563C245.42 192.771 245.433 191.967 245.441 191.132C245.462 189.202 245.45 187.135 245.415 185.016C246.177 184.883 252.383 183.762 254.819 182.093C257.027 180.578 259.42 178.035 259.552 175.202C259.681 172.428 257.575 169.912 254.686 170.07C250.676 170.288 246.879 176.456 245.968 179.923C245.912 180.128 245.578 182.414 245.39 183.856C245.373 182.992 245.36 182.148 245.33 181.258C245.283 179.495 245.18 177.736 245.082 175.844C245 174.932 244.919 174.012 244.838 173.079C244.773 172.155 244.594 171.187 244.474 170.229C244.153 168.016 243.716 165.794 243.228 163.56C244.773 163.513 250.252 163.274 252.674 162.105C255.088 160.941 257.836 158.792 258.397 156.01C258.944 153.288 257.245 150.481 254.365 150.198C250.367 149.809 245.681 155.33 244.256 158.617C244.166 158.822 243.408 161.296 243.019 162.666C242.715 161.326 242.419 159.991 242.068 158.643C241.054 154.761 239.907 150.862 238.781 146.971C238.435 145.777 238.105 144.587 237.771 143.393C238.319 143.384 244.842 143.235 247.555 141.929C249.969 140.769 252.717 138.616 253.278 135.834C253.826 133.112 252.126 130.305 249.246 130.027C245.248 129.637 240.562 135.154 239.137 138.445C239.03 138.694 237.943 142.259 237.711 143.179C236.975 140.551 236.265 137.927 235.67 135.312C234.844 131.704 234.232 128.122 233.898 124.604C234.155 124.599 240.96 124.475 243.738 123.136C246.152 121.972 248.899 119.823 249.46 117.041C250.008 114.319 248.309 111.511 245.428 111.233C241.431 110.844 236.744 116.36 235.319 119.652C235.208 119.909 234.043 123.743 233.881 124.454C233.864 124.244 233.817 124.03 233.804 123.821C233.491 120.063 233.667 116.382 233.996 112.945C234.185 110.946 234.476 109.046 234.801 107.206C236.072 107.313 241.88 107.736 244.517 106.808C247.042 105.917 250.012 104.081 250.872 101.38C251.716 98.7354 250.333 95.7566 247.504 95.1616C243.575 94.3356 238.306 99.3047 236.53 102.421C236.432 102.587 235.64 104.419 235.083 105.759C235.242 104.929 235.392 104.073 235.559 103.281C236.183 100.31 236.937 97.6269 237.626 95.2558C238.028 93.9119 238.418 92.7049 238.794 91.575C240.095 91.0314 245.308 88.7673 247.187 86.7643C249.019 84.8083 250.808 81.8123 250.329 79.0175C249.858 76.2826 247.26 74.2752 244.474 75.0542C240.605 76.1328 238.221 82.9679 238.079 86.5546C238.067 86.8627 238.43 91.7291 238.499 91.6991C238.499 91.6991 238.563 91.6734 238.576 91.6649C238.191 92.7434 237.793 93.899 237.382 95.1745C236.641 97.5328 235.824 100.208 235.135 103.178C234.437 106.144 233.761 109.384 233.354 112.864C232.943 116.352 232.691 120.037 232.922 123.872C232.926 123.915 232.935 123.962 232.935 124.005C232.52 122.905 231.253 119.866 231.129 119.643C229.387 116.51 224.174 111.481 220.236 112.265C217.399 112.829 215.986 115.791 216.799 118.445C217.63 121.154 220.579 123.024 223.095 123.945C225.933 124.98 232.464 124.48 232.982 124.437C233.235 128.088 233.791 131.811 234.561 135.548C235.002 137.688 235.507 139.823 236.046 141.963C235.657 141.022 235.302 140.187 235.238 140.076C233.491 136.943 228.283 131.914 224.345 132.697C221.507 133.262 220.095 136.224 220.908 138.878C221.738 141.587 224.687 143.457 227.204 144.377C229.755 145.31 235.332 144.994 236.808 144.891C237.022 145.708 237.228 146.53 237.446 147.348C238.49 151.268 239.548 155.18 240.468 159.045C240.793 160.406 241.063 161.763 241.337 163.115C240.99 162.281 240.69 161.583 240.635 161.48C238.888 158.347 233.68 153.318 229.742 154.102C226.904 154.666 225.492 157.628 226.301 160.282C227.131 162.991 230.08 164.861 232.597 165.777C235.032 166.668 240.181 166.419 241.936 166.308C242.175 167.703 242.419 169.099 242.586 170.46C242.68 171.393 242.839 172.283 242.882 173.225C242.942 174.158 243.006 175.078 243.066 175.994C243.117 177.757 243.186 179.576 243.194 181.297C243.211 182.495 243.203 183.638 243.198 184.785C242.89 183.424 242.231 180.774 242.154 180.56C241.324 178.326 239.107 175.044 236.534 173.135C236.415 172.805 236.265 172.484 236.085 172.185C234.664 169.801 231.518 168.863 229.194 170.588C225.971 172.985 226.207 180.222 227.358 183.616C227.427 183.818 228.407 185.906 229.049 187.216C228.552 186.505 228.086 185.808 227.568 185.08C226.553 183.638 225.501 182.225 224.375 180.702C223.806 179.987 223.228 179.264 222.646 178.532C222.085 177.796 221.396 177.089 220.771 176.358C219.282 174.693 217.69 173.075 216.055 171.483C217.317 170.592 221.756 167.365 223.129 165.054C224.499 162.756 225.608 159.443 224.542 156.815C223.498 154.243 220.531 152.839 217.972 154.191C214.424 156.07 213.559 163.261 214.184 166.792C214.223 167.01 214.959 169.497 215.387 170.849C214.394 169.899 213.41 168.949 212.374 168.02C209.386 165.341 206.279 162.721 203.193 160.098C202.247 159.293 201.314 158.484 200.377 157.671C200.831 157.359 206.185 153.639 207.73 151.05C209.1 148.752 210.208 145.439 209.138 142.811C208.094 140.239 205.128 138.835 202.573 140.192C199.024 142.07 198.156 149.261 198.785 152.792C198.832 153.057 199.893 156.627 200.21 157.526C198.147 155.741 196.106 153.947 194.167 152.094C191.487 149.543 189.001 146.89 186.779 144.142C186.989 143.996 192.6 140.14 194.18 137.491C195.549 135.188 196.658 131.88 195.588 129.252C194.543 126.68 191.577 125.276 189.018 126.632C185.47 128.511 184.605 135.702 185.23 139.233C185.277 139.511 186.424 143.35 186.681 144.031C186.548 143.868 186.394 143.714 186.266 143.547C183.933 140.581 182.046 137.418 180.424 134.371C179.478 132.603 178.673 130.857 177.928 129.141C179.045 128.529 184.126 125.678 185.812 123.452C187.426 121.317 188.894 118.145 188.119 115.419C187.361 112.748 184.567 111.028 181.879 112.093C178.147 113.57 176.495 120.623 176.73 124.201C176.743 124.398 177.089 126.359 177.368 127.788C177.042 127.009 176.691 126.213 176.396 125.46C175.279 122.635 174.427 119.981 173.695 117.627C173.289 116.283 172.946 115.059 172.643 113.912C173.426 112.74 176.529 107.976 176.987 105.271C177.436 102.63 177.274 99.142 175.33 97.0791C173.43 95.0589 170.156 94.8192 168.26 97.002C165.628 100.037 167.412 107.056 169.27 110.12C169.433 110.386 172.416 114.242 172.459 114.182C172.459 114.182 172.497 114.126 172.506 114.109C172.78 115.218 173.083 116.408 173.443 117.696C174.128 120.076 174.92 122.755 175.981 125.61C177.034 128.469 178.258 131.546 179.842 134.67C181.425 137.803 183.248 141.022 185.555 144.091C185.581 144.125 185.615 144.159 185.641 144.193C184.686 143.504 181.956 141.668 181.729 141.553C178.545 139.9 171.427 138.582 168.572 141.407C166.518 143.444 166.972 146.693 169.112 148.46C171.299 150.262 174.791 150.194 177.393 149.573C180.334 148.871 185.5 144.852 185.911 144.527C188.136 147.429 190.653 150.232 193.362 152.925C194.907 154.465 196.512 155.968 198.139 157.457C197.295 156.888 196.534 156.387 196.422 156.327C193.238 154.675 186.116 153.357 183.266 156.182C181.211 158.219 181.665 161.467 183.805 163.231C185.992 165.033 189.484 164.964 192.087 164.344C194.732 163.714 199.204 160.372 200.377 159.473C201.006 160.038 201.631 160.607 202.264 161.168C205.299 163.864 208.338 166.539 211.24 169.257C212.263 170.216 213.234 171.196 214.21 172.172C213.461 171.667 212.823 171.247 212.72 171.196C209.536 169.544 202.419 168.226 199.564 171.05C197.509 173.088 197.963 176.336 200.103 178.099C202.29 179.901 205.783 179.833 208.389 179.212C210.91 178.609 215.07 175.566 216.47 174.5C217.437 175.531 218.413 176.563 219.303 177.603C219.898 178.331 220.519 178.985 221.075 179.747C221.64 180.492 222.201 181.224 222.757 181.956C223.776 183.398 224.833 184.879 225.787 186.309C226.459 187.297 227.084 188.256 227.713 189.219C226.708 188.256 224.696 186.407 224.508 186.274C221.614 184.16 214.775 181.776 211.526 184.139C209.185 185.838 209.142 189.12 210.996 191.192C212.883 193.306 216.346 193.769 219.016 193.546C221.957 193.302 227.465 190.263 228.15 189.878C229.156 191.483 230.149 193.041 231.065 194.53Z" fill="black"/>
<path opacity="0.15" d="M234.356 106.581C234.429 106.594 233.812 101.753 233.739 101.453C232.883 97.9695 229.186 91.7464 225.179 91.4597C222.295 91.2542 220.15 93.7366 220.232 96.5143C220.317 99.3477 222.667 101.929 224.85 103.478C227.418 105.297 234.351 106.577 234.356 106.581Z" fill="black"/>
</g>
<path d="M73.2736 144.874H23.6855V154.577H73.2736V144.874Z" fill="white" stroke="#263238" stroke-miterlimit="10" stroke-linecap="round" stroke-linejoin="round"/>
<path d="M87.0041 134.679H37.416V144.878H87.0041V134.679Z" fill="white" stroke="#263238" stroke-miterlimit="10" stroke-linecap="round" stroke-linejoin="round"/>
<path d="M100.738 124.479H51.1504V134.674H100.738V124.479Z" fill="white" stroke="#263238" stroke-miterlimit="10" stroke-linecap="round" stroke-linejoin="round"/>
<path d="M114.469 114.285H64.8809V124.48H114.469V114.285Z" fill="white" stroke="#263238" stroke-miterlimit="10" stroke-linecap="round" stroke-linejoin="round"/>
<path d="M128.712 194.941V114.285H114.473V124.48H100.738V134.679H87.008V144.874H73.2734V194.941H128.712Z" fill="#263238" stroke="#263238" stroke-miterlimit="10" stroke-linecap="round" stroke-linejoin="round"/>
<path d="M128.712 185.234H79.124V194.937H128.712V185.234Z" fill="white" stroke="#263238" stroke-miterlimit="10" stroke-linecap="round" stroke-linejoin="round"/>
<path d="M65.3924 185.235H114.98V175.04H65.3924V185.235Z" fill="white" stroke="#263238" stroke-miterlimit="10" stroke-linecap="round" stroke-linejoin="round"/>
<path d="M51.6619 175.04H101.25V164.841H51.6619V175.04Z" fill="white" stroke="#263238" stroke-miterlimit="10" stroke-linecap="round" stroke-linejoin="round"/>
<path d="M37.9266 164.841H87.5146V154.646H37.9266V164.841Z" fill="white" stroke="#263238" stroke-miterlimit="10" stroke-linecap="round" stroke-linejoin="round"/>
<path d="M23.6855 194.941V154.645H37.9251V164.84H51.6553V175.039H65.3899V185.234H79.1244V194.941H23.6855Z" fill="#263238" stroke="#263238" stroke-miterlimit="10" stroke-linecap="round" stroke-linejoin="round"/>
<path d="M290.576 133.669L287.353 144.241L280.197 138.741C280.197 138.741 279.914 137.033 279.769 136.704C279.627 136.37 278.771 135.377 278.583 134.996C278.395 134.615 278.108 134.949 278.108 135.231C278.108 135.514 278.771 136.464 278.771 136.464L278.438 136.798L275.784 135.535C275.651 135.471 275.497 135.531 275.437 135.663C275.39 135.77 275.42 135.899 275.514 135.972L276.965 137.08L276.777 137.461L274.359 136.468C274.23 136.417 274.085 136.481 274.042 136.614C274.008 136.721 274.05 136.84 274.149 136.896L276.349 138.172L274.911 138.45C274.77 138.48 274.68 138.625 274.727 138.762C274.761 138.861 274.851 138.929 274.958 138.929H276.443L275.163 139.404C275.163 139.404 275.33 139.777 275.587 139.764L277.106 139.691L279.336 139.832C279.336 139.832 286.587 147.429 286.822 147.66C287.057 147.891 288.483 148.414 288.765 148.127C289.048 147.844 292.223 144.005 292.223 144.005L291.748 134.05C291.761 134.05 291.286 133.1 290.576 133.669Z" fill="white" stroke="#263238" stroke-miterlimit="10" stroke-linecap="round" stroke-linejoin="round"/>
<path d="M292.287 121.48C292.287 121.48 290.9 121.574 290.254 119.352C289.608 117.135 291.268 116.489 292.193 116.305C293.117 116.121 293.301 114.088 294.872 113.81C296.443 113.532 298.108 114.824 298.476 115.937C298.844 117.045 301.249 115.381 302.636 116.861C304.023 118.338 303.929 121.206 303.929 122.22C303.929 123.234 307.07 123.423 307.07 125.824C307.07 128.225 306.702 129.427 306.886 129.796C307.07 130.164 308.457 137.731 308.457 137.731H291.178C291.178 137.731 290.622 132.197 291.273 130.81C291.919 129.423 292.475 129.333 292.749 128.036C293.027 126.744 292.749 124.711 292.565 123.786C292.381 122.866 292.287 121.48 292.287 121.48Z" fill="#263238" stroke="#263238" stroke-miterlimit="10" stroke-linecap="round" stroke-linejoin="round"/>
<path d="M295.617 131.182L290.442 131.276L291.457 143.932L301.249 144.673L305.872 131.55L300.329 131.088L295.617 131.182Z" fill="#263238" stroke="#263238" stroke-miterlimit="10" stroke-linecap="round" stroke-linejoin="round"/>
<path d="M293.952 118.522C293.952 118.522 292.565 120.461 292.287 121.479C292.009 122.494 291.778 123.718 292.052 125.1C292.33 126.487 293.117 128.777 293.669 128.961C294.226 129.145 295.702 128.961 295.702 128.961L295.608 131.178H294.868L294.962 134.503L298.472 134.687L300.321 131.084L299.396 130.899L298.75 125.447C298.75 125.447 299.674 124.432 299.764 123.692C299.858 122.952 299.858 122.583 299.858 122.583C299.858 122.583 298.75 123.414 297.825 122.583C296.901 121.753 296.623 120.829 296.349 119.904C296.07 118.98 295.518 118.239 295.056 118.239C294.598 118.248 293.952 118.522 293.952 118.522Z" fill="white" stroke="#263238" stroke-miterlimit="10" stroke-linecap="round" stroke-linejoin="round"/>
<path d="M295.707 128.965L297.278 128.409L295.801 130.074L295.707 128.965Z" fill="#263238" stroke="#263238" stroke-miterlimit="10" stroke-linecap="round" stroke-linejoin="round"/>
<path d="M291.457 143.932L290.443 147.168C290.443 147.168 286.745 151.14 286.009 158.531C285.268 165.923 286.471 173.224 286.839 176.182C287.207 179.139 290.777 192.211 290.777 192.211H293.178C293.178 192.211 292.292 180.064 292.292 178.861C292.292 177.659 292.292 172.116 292.292 172.116L299.084 190.794L301.301 190.888C301.301 190.888 300.415 182.067 299.859 178.463C299.302 174.859 298.297 171.47 298.297 171.47C298.297 171.47 303.193 161.767 303.193 155.116C303.193 148.465 301.528 146.984 301.528 146.984L301.25 144.673L291.457 143.932Z" fill="#BABABA" stroke="#263238" stroke-miterlimit="10" stroke-linecap="round" stroke-linejoin="round"/>
<path d="M294.423 154.089C294.744 152.646 294.966 151.696 294.966 151.696" stroke="#263238" stroke-miterlimit="10" stroke-linecap="round" stroke-linejoin="round"/>
<path d="M292.287 172.116C292.287 172.116 291.919 170.267 292.193 166.295C292.356 163.95 293.293 159.293 294.029 155.869" stroke="#263238" stroke-miterlimit="10" stroke-linecap="round" stroke-linejoin="round"/>
<path d="M290.772 192.211C290.772 192.211 286.428 194.244 286.428 194.706C286.428 195.168 293.357 194.706 293.357 194.706C293.357 194.706 293.635 193.966 293.541 193.319C293.447 192.673 293.173 192.211 293.173 192.211H290.772Z" fill="white" stroke="#263238" stroke-miterlimit="10" stroke-linecap="round" stroke-linejoin="round"/>
<path d="M299.079 190.794C299.079 190.794 297.046 193.379 296.4 194.03C295.754 194.676 295.938 195.138 296.494 195.138C297.051 195.138 300.192 194.954 300.744 194.582C301.301 194.214 301.575 193.841 301.575 193.841L301.301 190.888L299.079 190.794Z" fill="white" stroke="#263238" stroke-miterlimit="10" stroke-linecap="round" stroke-linejoin="round"/>
<path d="M305.315 133.215C305.315 133.215 306.146 145.503 305.409 146.8C304.669 148.093 302.546 147.356 302.362 146.8C302.178 146.244 302.546 141.441 302.546 141.441L305.315 133.215Z" fill="white" stroke="#263238" stroke-miterlimit="10" stroke-linecap="round" stroke-linejoin="round"/>
<path d="M282.824 103.853L243.654 109.557L253.529 177.372L292.699 171.668L282.824 103.853Z" fill="#0085E5" stroke="#263238" stroke-miterlimit="10" stroke-linecap="round" stroke-linejoin="round"/>
<path d="M280.423 114.088C277.812 114.469 275.39 112.663 275.009 110.052C274.979 109.855 274.966 109.658 274.962 109.461L252.475 112.736C252.526 112.924 252.569 113.117 252.599 113.313C252.98 115.924 251.174 118.347 248.563 118.728C248.464 118.74 248.366 118.749 248.268 118.753L255.325 167.203C255.424 167.182 255.518 167.16 255.616 167.147C258.227 166.766 260.65 168.573 261.031 171.183C261.061 171.38 261.073 171.577 261.078 171.774L283.565 168.5C283.513 168.311 283.471 168.119 283.441 167.922C283.06 165.311 284.866 162.889 287.477 162.508C287.674 162.478 287.87 162.465 288.067 162.461L281.001 113.96C280.813 114.015 280.62 114.058 280.423 114.088ZM269.295 148.345C265.02 148.97 261.043 146.004 260.423 141.728C259.798 137.453 262.764 133.477 267.04 132.856C271.315 132.231 275.292 135.197 275.912 139.473C276.537 143.749 273.571 147.72 269.295 148.345Z" fill="white" stroke="#263238" stroke-miterlimit="10" stroke-linecap="round" stroke-linejoin="round"/>
<path d="M275.063 105.246L236.827 115.478L254.541 181.675L292.777 171.443L275.063 105.246Z" fill="#0085E5" stroke="#263238" stroke-miterlimit="10" stroke-linecap="round" stroke-linejoin="round"/>
<path d="M273.884 115.719C271.337 116.399 268.718 114.888 268.037 112.342C267.986 112.149 267.952 111.952 267.922 111.76L245.969 117.632C246.042 117.812 246.111 118 246.162 118.193C246.843 120.739 245.332 123.359 242.785 124.039C242.687 124.065 242.593 124.082 242.494 124.099L255.15 171.397C255.244 171.367 255.334 171.333 255.433 171.307C257.979 170.627 260.599 172.138 261.279 174.684C261.33 174.877 261.365 175.074 261.395 175.266L283.347 169.394C283.274 169.215 283.206 169.026 283.154 168.834C282.474 166.287 283.984 163.668 286.531 162.987C286.724 162.936 286.921 162.902 287.113 162.872L274.444 115.522C274.265 115.599 274.076 115.667 273.884 115.719ZM266.822 151.037C262.644 152.154 258.356 149.676 257.239 145.499C256.122 141.322 258.6 137.033 262.777 135.916C266.954 134.799 271.243 137.277 272.36 141.454C273.477 145.632 270.999 149.92 266.822 151.037Z" fill="white" stroke="#263238" stroke-miterlimit="10" stroke-linecap="round" stroke-linejoin="round"/>
<path d="M303.193 144.767L289.424 144.489C289.424 144.489 286.65 143.564 286.188 143.564C285.829 143.564 284.742 143.903 284.275 144.048C284.151 144.087 284.082 144.211 284.104 144.339C284.13 144.472 284.262 144.562 284.395 144.54L285.722 144.305L286.09 144.583L283.423 146.304C283.312 146.376 283.274 146.522 283.338 146.642C283.402 146.762 283.547 146.809 283.672 146.753L285.675 145.811L285.743 146.316L283.599 147.434C283.458 147.506 283.393 147.678 283.453 147.823C283.509 147.964 283.659 148.046 283.809 148.011L284.596 147.832C284.78 148.058 285.08 148.153 285.362 148.071L286.822 147.66L285.897 148.251C285.752 148.345 285.735 148.551 285.863 148.666C285.953 148.748 286.085 148.756 286.188 148.688L288.037 147.425L289.621 146.415L303.569 148.876C303.569 148.876 304.751 148.979 304.952 148.743C305.153 148.508 305.559 146.282 305.594 145.709" fill="white"/>
<path d="M303.193 144.767L289.424 144.489C289.424 144.489 286.65 143.564 286.188 143.564C285.829 143.564 284.742 143.903 284.275 144.048C284.151 144.087 284.082 144.211 284.104 144.339C284.13 144.472 284.262 144.562 284.395 144.54L285.722 144.305L286.09 144.583L283.423 146.304C283.312 146.376 283.274 146.522 283.338 146.642C283.402 146.762 283.547 146.809 283.672 146.753L285.675 145.811L285.743 146.316L283.599 147.434C283.458 147.506 283.393 147.678 283.453 147.823C283.509 147.964 283.659 148.046 283.809 148.011L284.596 147.832C284.78 148.058 285.08 148.153 285.362 148.071L286.822 147.66L285.897 148.251C285.752 148.345 285.735 148.551 285.863 148.666C285.953 148.748 286.085 148.756 286.188 148.688L288.037 147.425L289.621 146.415L303.569 148.876C303.569 148.876 304.751 148.979 304.952 148.743C305.153 148.508 305.559 146.282 305.594 145.709" stroke="#263238" stroke-miterlimit="10" stroke-linecap="round" stroke-linejoin="round"/>
<path d="M284.604 147.827L286.492 147.121" stroke="#263238" stroke-miterlimit="10" stroke-linecap="round" stroke-linejoin="round"/>
<path d="M293.524 122.691C293.524 123.007 293.362 123.264 293.156 123.264C292.951 123.264 292.788 123.007 292.788 122.691C292.788 122.374 292.951 122.117 293.156 122.117C293.362 122.117 293.524 122.374 293.524 122.691Z" fill="#263238"/>
<path d="M295.592 123.127C295.592 123.444 295.429 123.701 295.224 123.701C295.022 123.701 294.855 123.444 294.855 123.127C294.855 122.811 295.018 122.554 295.224 122.554C295.425 122.554 295.592 122.811 295.592 123.127Z" fill="#263238"/>
<path d="M292.698 121.385C292.698 121.385 293.066 120.927 293.802 121.432" stroke="#263238" stroke-miterlimit="10" stroke-linecap="round" stroke-linejoin="round"/>
<path d="M294.809 121.659C294.809 121.659 295.588 121.291 296.14 122.211" stroke="#263238" stroke-miterlimit="10" stroke-linecap="round" stroke-linejoin="round"/>
<path d="M293.893 122.716C293.893 122.716 293.983 123.221 293.846 123.542C293.709 123.863 293.067 124.463 293.109 124.6C293.152 124.736 293.478 124.831 293.478 124.831" stroke="#263238" stroke-miterlimit="10" stroke-linecap="round" stroke-linejoin="round"/>
<path d="M293.066 125.931C293.066 125.931 294.35 126.526 295.36 125.7" stroke="#263238" stroke-miterlimit="10" stroke-linecap="round" stroke-linejoin="round"/>
<path d="M137.225 90.9372C145.371 90.9372 151.974 84.3339 151.974 76.1883C151.974 68.0427 145.371 61.4395 137.225 61.4395C129.08 61.4395 122.477 68.0427 122.477 76.1883C122.477 84.3339 129.08 90.9372 137.225 90.9372Z" fill="white" stroke="#263238" stroke-miterlimit="10" stroke-linecap="round" stroke-linejoin="round"/>
<path d="M138.715 90.9372C146.86 90.9372 153.464 84.3339 153.464 76.1883C153.464 68.0427 146.86 61.4395 138.715 61.4395C130.569 61.4395 123.966 68.0427 123.966 76.1883C123.966 84.3339 130.569 90.9372 138.715 90.9372Z" fill="white" stroke="#263238" stroke-miterlimit="10" stroke-linecap="round" stroke-linejoin="round"/>
<path d="M147.564 85.0371C152.451 80.1499 152.451 72.2261 147.564 67.3388C142.677 62.4516 134.753 62.4516 129.866 67.3388C124.979 72.2261 124.979 80.1499 129.866 85.0371C134.753 89.9244 142.677 89.9244 147.564 85.0371Z" fill="white" stroke="#263238" stroke-miterlimit="10" stroke-linecap="round" stroke-linejoin="round"/>
<path d="M138.856 84.9881V83.3403C137.641 83.2932 136.729 82.9037 136.13 82.1719C135.527 81.44 135.201 80.3486 135.154 78.8934L137.65 78.4697C137.675 79.0603 137.735 79.5525 137.834 79.9505C137.932 80.3443 138.086 80.6396 138.287 80.8365C138.488 81.0334 138.75 81.1275 139.066 81.1275C139.43 81.1275 139.683 81.0077 139.819 80.7723C139.956 80.5369 140.025 80.2673 140.025 79.9591C140.025 79.3556 139.888 78.8506 139.61 78.444C139.332 78.0374 138.951 77.6265 138.467 77.2113L136.96 75.9188C136.618 75.5978 136.31 75.2768 136.04 74.9429C135.766 74.6134 135.552 74.2324 135.394 73.8087C135.236 73.385 135.154 72.88 135.154 72.3022C135.154 71.1936 135.471 70.3291 136.1 69.7085C136.729 69.0879 137.581 68.7369 138.642 68.6556V67.0806H139.494V68.6556C140.132 68.6899 140.654 68.8354 141.061 69.0879C141.467 69.3404 141.78 69.6614 141.989 70.0423C142.203 70.4275 142.353 70.847 142.452 71.3006C142.546 71.7543 142.606 72.1952 142.627 72.6189L140.093 72.9912C140.081 72.5547 140.046 72.1695 139.986 71.8314C139.927 71.4933 139.819 71.2322 139.67 71.0439C139.516 70.8555 139.28 70.7656 138.959 70.7785C138.63 70.7913 138.377 70.9197 138.206 71.168C138.035 71.4162 137.949 71.6944 137.949 71.9983C137.949 72.5419 138.078 72.9784 138.339 73.308C138.6 73.6375 138.895 73.9585 139.225 74.2624L140.693 75.5379C141.082 75.8931 141.442 76.274 141.771 76.6892C142.101 77.1043 142.366 77.558 142.567 78.0631C142.768 78.5638 142.867 79.1416 142.867 79.7879C142.867 80.4128 142.738 80.982 142.486 81.4956C142.233 82.0092 141.865 82.4244 141.39 82.7454C140.911 83.0621 140.346 83.2547 139.7 83.3103V84.9753H138.856V84.9881Z" fill="white" stroke="#263238" stroke-miterlimit="10" stroke-linecap="round" stroke-linejoin="round"/>
<path d="M101.667 74.3651L102.134 95.9834L101.945 111.361L104.462 110.989C104.462 110.989 107.163 96.5441 107.163 95.7052C107.163 94.8663 108.652 84.1492 108.652 84.1492L111.447 98.0335L112.898 111.361L115.414 110.989C115.414 110.989 115.735 96.5441 115.735 93.9333C115.735 91.3225 115.607 74.5449 115.607 74.5449L107.719 72.499L101.667 74.3651Z" fill="#263238" stroke="#263238" stroke-miterlimit="10" stroke-linecap="round" stroke-linejoin="round"/>
<path d="M104.462 110.989C104.462 110.989 108.19 113.412 107.629 113.972C107.068 114.533 103.995 113.972 103.157 113.878C102.318 113.784 102.039 113.6 102.039 113.6L101.945 111.362L104.462 110.989Z" fill="white" stroke="#263238" stroke-miterlimit="10" stroke-linecap="round" stroke-linejoin="round"/>
<path d="M115.419 110.989C115.419 110.989 119.147 113.412 118.586 113.972C118.025 114.533 114.952 113.972 114.114 113.878C113.275 113.784 112.997 113.6 112.997 113.6L112.902 111.362L115.419 110.989Z" fill="white" stroke="#263238" stroke-miterlimit="10" stroke-linecap="round" stroke-linejoin="round"/>
<path d="M134.632 60.9945L137.992 60.2241C137.992 60.2241 141.214 61.949 141.488 62.1758C141.762 62.4026 141.214 62.4497 140.624 62.4497C140.033 62.4497 137.897 61.9062 137.897 61.9062C137.897 61.9062 139.306 62.3128 139.079 62.5439C138.852 62.7707 138.398 62.8178 138.171 62.7707C137.945 62.7236 137.08 62.591 137.08 62.591C137.08 62.591 135.582 62.5439 135.128 62.454C134.675 62.3641 134.675 62.3641 134.675 62.3641L134.632 60.9945Z" fill="white" stroke="#263238" stroke-miterlimit="10" stroke-linecap="round" stroke-linejoin="round"/>
<path d="M112.898 47.6711C112.898 47.6711 105.254 51.9468 104.269 53.1794C103.285 54.4121 102.955 60.5753 102.296 64.9323C101.637 69.2894 101.556 74.7121 101.556 74.7121C101.556 74.7121 107.064 75.4526 110.103 75.3712C113.146 75.2899 115.611 74.5495 115.611 74.5495C115.611 74.5495 116.681 69.0411 116.925 68.2194C117.173 67.3976 119.146 57.5365 119.146 57.5365L125.228 62.3857L134.619 62.39L134.632 60.999C134.632 60.999 127.201 59.2656 127.116 59.0174C127.035 58.7691 120.786 49.8111 118.898 48.7454C117.011 47.6711 114.216 46.6824 112.898 47.6711Z" fill="#0085E5" stroke="#263238" stroke-miterlimit="10" stroke-linecap="round" stroke-linejoin="round"/>
<path d="M113.638 45.2871L112.243 48.6555C112.243 48.6555 111.584 48.8181 111.751 50.1364C111.913 51.4503 113.557 55.1482 114.135 55.0669C114.708 54.9856 116.519 50.055 116.519 50.055L113.638 45.2871Z" fill="white" stroke="#263238" stroke-miterlimit="10" stroke-linecap="round" stroke-linejoin="round"/>
<path d="M114.426 49.0063L115.008 53.4961L116.104 51.2876L114.426 49.0063Z" fill="#263238" stroke="#263238" stroke-miterlimit="10" stroke-linecap="round" stroke-linejoin="round"/>
<path d="M121.449 43.3138C121.449 43.3138 122.189 44.0543 123.422 43.4765C124.655 42.9029 125.228 41.6703 124.162 40.6816C123.092 39.6972 122.519 40.7629 122.189 39.449C121.86 38.135 120.546 37.2277 119.394 37.5572C118.243 37.8868 118.654 38.2977 117.832 38.5416C117.01 38.7899 115.94 38.0494 114.875 39.1151C113.805 40.1851 113.642 42.7317 113.394 43.8831C113.146 45.0344 114.216 45.3639 115.119 45.2783C116.022 45.197 116.762 43.3053 117.503 42.7317C118.243 42.1582 121.449 43.3138 121.449 43.3138Z" fill="#263238" stroke="#263238" stroke-miterlimit="10" stroke-linecap="round" stroke-linejoin="round"/>
<path d="M113.475 45.6167C113.475 45.6167 113.557 47.4229 113.886 48.0007C114.216 48.5742 115.611 51.2877 116.103 51.2877C116.596 51.2877 117.336 51.2877 117.666 51.1251C117.995 50.9624 119.309 49.2333 120.131 47.7567C120.953 46.2758 121.445 43.3183 121.445 43.3183C121.445 43.3183 117.499 40.8531 117.255 41.3453C117.006 41.8375 117.092 42.5779 116.681 42.6592C116.27 42.7405 115.367 42.8219 115.367 42.8219C115.367 42.8219 115.615 43.9732 115.286 44.2171C114.956 44.4654 114.135 43.9689 114.135 43.9689C114.135 43.9689 113.146 44.1358 113.475 45.6167Z" fill="white" stroke="#263238" stroke-miterlimit="10" stroke-linecap="round" stroke-linejoin="round"/>
<path d="M118.047 45.9076C117.974 46.22 117.773 46.4426 117.597 46.404C117.422 46.3612 117.341 46.0745 117.413 45.762C117.486 45.4496 117.687 45.227 117.863 45.2656C118.038 45.3041 118.124 45.5951 118.047 45.9076Z" fill="#263238"/>
<path d="M120.195 46.5072C120.122 46.8196 119.921 47.0422 119.746 47.0037C119.57 46.9609 119.489 46.6741 119.562 46.3617C119.635 46.0492 119.836 45.8267 120.011 45.8652C120.187 45.908 120.268 46.1947 120.195 46.5072Z" fill="#263238"/>
<path d="M117.147 44.7308C117.147 44.7308 117.473 44.4697 118.444 44.7308" stroke="#263238" stroke-miterlimit="10" stroke-linecap="round" stroke-linejoin="round"/>
<path d="M119.874 45.3169C119.874 45.3169 120.456 45.3811 120.717 45.8348" stroke="#263238" stroke-miterlimit="10" stroke-linecap="round" stroke-linejoin="round"/>
<path d="M119.159 46.4854L118.834 48.2359L117.798 48.1075" stroke="#263238" stroke-miterlimit="10" stroke-linecap="round" stroke-linejoin="round"/>
<path d="M117.473 49.1436C117.473 49.1436 116.501 49.1436 116.176 47.7783" stroke="#263238" stroke-miterlimit="10" stroke-linecap="round" stroke-linejoin="round"/>
<path d="M114.541 44.7135C114.541 44.7135 114.378 42.8218 113.638 42.8218C112.897 42.8218 112.242 44.5466 112.653 45.2871C113.064 46.0275 114.134 46.2715 114.134 46.2715" fill="white"/>
<path d="M114.541 44.7135C114.541 44.7135 114.378 42.8218 113.638 42.8218C112.897 42.8218 112.242 44.5466 112.653 45.2871C113.064 46.0275 114.134 46.2715 114.134 46.2715" stroke="#263238" stroke-miterlimit="10" stroke-linecap="round" stroke-linejoin="round"/>
<path d="M107.984 54.6516L109.409 66.4686L121.376 70.5646L121.56 71.9513L105.557 69.7557C105.557 69.7557 103.285 58.0756 102.972 56.462C102.66 54.8484 103.495 53.0979 104.642 52.1178C105.793 51.142 107.599 51.082 107.599 51.082" fill="#0085E5"/>
<path d="M107.984 54.6516L109.409 66.4686L121.376 70.5646L121.56 71.9513L105.557 69.7557C105.557 69.7557 103.285 58.0756 102.972 56.462C102.66 54.8484 103.495 53.0979 104.642 52.1178C105.793 51.142 107.599 51.082 107.599 51.082" stroke="#263238" stroke-miterlimit="10" stroke-linecap="round" stroke-linejoin="round"/>
<path d="M121.376 70.5602C121.376 70.5602 123.281 70.0252 123.525 69.9782C123.768 69.9311 125.048 70.9369 125.309 70.9711C125.566 71.0054 126.003 71.0867 125.986 71.4248C125.968 71.7629 125.853 72.0368 125.224 71.8228C124.595 71.6088 124.188 71.3906 124.188 71.3906C124.188 71.3906 125.78 72.9699 126.054 73.0854C126.212 73.1496 126.486 73.4022 126.696 73.6033C126.833 73.736 126.79 73.9671 126.615 74.0442C126.225 74.2154 125.575 74.4593 124.984 74.4636C124.064 74.4722 121.564 71.9427 121.564 71.9427L121.376 70.5602Z" fill="white" stroke="#263238" stroke-miterlimit="10" stroke-linecap="round" stroke-linejoin="round"/>
<path d="M193.11 105.613C193.11 105.613 205.364 98.7093 207.144 99.377C208.925 100.045 205.587 113.634 205.141 114.524C204.692 115.414 193.11 105.613 193.11 105.613Z" fill="#0085E5" stroke="#263238" stroke-miterlimit="10" stroke-linecap="round" stroke-linejoin="round"/>
<path d="M206.472 101.158C206.472 101.158 205.942 101.984 205.265 103.174C204.084 105.254 202.462 108.447 202.462 110.287C202.462 113.184 204.242 112.962 204.688 110.732L206.245 104.274" stroke="#263238" stroke-miterlimit="10" stroke-linecap="round" stroke-linejoin="round"/>
<path d="M103.513 141.856C106.871 141.856 109.594 138.311 109.594 133.938C109.594 129.565 106.871 126.02 103.513 126.02C100.154 126.02 97.4307 129.565 97.4307 133.938C97.4307 138.311 100.154 141.856 103.513 141.856Z" fill="#0085E5" stroke="#263238" stroke-miterlimit="10" stroke-linecap="round" stroke-linejoin="round"/>
<path d="M158.639 190.755C190.644 190.755 216.59 168.789 216.59 141.693C216.59 114.597 190.644 92.6318 158.639 92.6318C126.633 92.6318 100.688 114.597 100.688 141.693C100.688 168.789 126.633 190.755 158.639 190.755Z" fill="#0085E5" stroke="#263238" stroke-miterlimit="10" stroke-linecap="round" stroke-linejoin="round"/>
<path d="M196.277 175.514C186.451 183.355 173.208 188.161 158.639 188.161C132.638 188.161 110.857 172.852 105.19 152.299" fill="#0085E5"/>
<path d="M196.277 175.514C186.451 183.355 173.208 188.161 158.639 188.161C132.638 188.161 110.857 172.852 105.19 152.299" stroke="#263238" stroke-width="2" stroke-miterlimit="10" stroke-linecap="round" stroke-linejoin="round"/>
<path d="M103.787 143.234C103.765 142.72 103.757 142.207 103.757 141.693C103.757 135.979 104.977 130.505 107.207 125.446" fill="#0085E5"/>
<path d="M103.787 143.234C103.765 142.72 103.757 142.207 103.757 141.693C103.757 135.979 104.977 130.505 107.207 125.446" stroke="#263238" stroke-width="2" stroke-miterlimit="10" stroke-linecap="round" stroke-linejoin="round"/>
<path d="M141.232 98.0332C146.698 96.471 152.553 95.6235 158.639 95.6235C164.751 95.6235 170.632 96.4753 176.114 98.0503" stroke="#263238" stroke-width="5" stroke-miterlimit="10" stroke-linecap="round" stroke-linejoin="round"/>
<path d="M213.38 126.551C213.38 126.551 220.733 124.098 221.846 125.438C222.959 126.773 222.959 142.37 222.069 145.263C221.178 148.16 215.165 147.488 210.932 144.373C206.699 141.257 207.144 136.797 207.144 136.797" fill="#0085E5"/>
<path d="M213.38 126.551C213.38 126.551 220.733 124.098 221.846 125.438C222.959 126.773 222.959 142.37 222.069 145.263C221.178 148.16 215.165 147.488 210.932 144.373C206.699 141.257 207.144 136.797 207.144 136.797" stroke="#263238" stroke-miterlimit="10" stroke-linecap="round" stroke-linejoin="round"/>
<path d="M208.924 136.129L204.469 136.797" stroke="#263238" stroke-miterlimit="10" stroke-linecap="round" stroke-linejoin="round"/>
<path d="M207.812 141.03C207.812 141.03 206.699 148.828 208.034 149.051C209.37 149.273 211.599 145.263 211.599 145.263C211.599 145.263 208.479 141.697 207.812 141.03Z" fill="#263238" stroke="#263238" stroke-miterlimit="10" stroke-linecap="round" stroke-linejoin="round"/>
<path d="M203.759 122.767C204.174 124.376 203.925 125.827 203.211 126.011C202.496 126.195 201.58 125.04 201.169 123.43C200.754 121.821 201.002 120.37 201.717 120.186C202.432 120.002 203.348 121.158 203.759 122.767Z" fill="#263238"/>
<path d="M180.352 101.179C180.352 101.179 194.369 87.1619 197.103 89.8968C199.838 92.6317 198.811 104.599 198.811 106.306C198.811 108.014 198.811 111.091 198.811 111.091" fill="#0085E5"/>
<path d="M180.352 101.179C180.352 101.179 194.369 87.1619 197.103 89.8968C199.838 92.6317 198.811 104.599 198.811 106.306C198.811 108.014 198.811 111.091 198.811 111.091" stroke="#263238" stroke-miterlimit="10" stroke-linecap="round" stroke-linejoin="round"/>
<path d="M197.565 92.9141C197.565 92.9141 197.788 89.3489 196.23 91.5788C194.672 93.8044 190.217 109.178 191.552 110.959C192.887 112.739 196.675 111.849 197.565 108.506C198.456 105.163 197.788 95.5848 197.788 95.5848" stroke="#263238" stroke-miterlimit="10" stroke-linecap="round" stroke-linejoin="round"/>
<path d="M120.838 174.213L128.508 194.941H136.973L140.757 184.245" fill="#0085E5"/>
<path d="M120.838 174.213L128.508 194.941H136.973L140.757 184.245" stroke="#263238" stroke-miterlimit="10" stroke-linecap="round" stroke-linejoin="round"/>
<path d="M191.548 176.896L184.199 194.941H175.733L171.945 184.245" fill="#0085E5"/>
<path d="M191.548 176.896L184.199 194.941H175.733L171.945 184.245" stroke="#263238" stroke-miterlimit="10" stroke-linecap="round" stroke-linejoin="round"/>
<path d="M155.81 165.995V161.672C152.617 161.548 150.229 160.525 148.65 158.604C147.066 156.682 146.214 153.814 146.09 150.001L152.647 148.884C152.707 150.433 152.87 151.73 153.135 152.766C153.4 153.806 153.794 154.581 154.321 155.09C154.847 155.603 155.532 155.856 156.366 155.856C157.325 155.856 157.984 155.548 158.344 154.927C158.699 154.307 158.879 153.596 158.879 152.787C158.879 151.204 158.515 149.881 157.787 148.811C157.06 147.741 156.058 146.663 154.787 145.58L150.832 142.186C149.934 141.347 149.129 140.495 148.414 139.626C147.699 138.757 147.135 137.764 146.715 136.652C146.296 135.535 146.086 134.216 146.086 132.697C146.086 129.782 146.916 127.51 148.573 125.883C150.229 124.257 152.455 123.332 155.245 123.118V118.979H157.479V123.118C159.153 123.212 160.527 123.593 161.597 124.257C162.667 124.924 163.48 125.759 164.036 126.769C164.593 127.775 164.995 128.879 165.247 130.073C165.496 131.267 165.65 132.423 165.714 133.54L159.063 134.516C159.033 133.369 158.939 132.355 158.785 131.469C158.631 130.587 158.352 129.898 157.95 129.397C157.548 128.901 156.927 128.669 156.088 128.699C155.219 128.729 154.56 129.072 154.111 129.722C153.662 130.373 153.439 131.1 153.439 131.909C153.439 133.335 153.781 134.482 154.462 135.35C155.142 136.219 155.917 137.054 156.786 137.863L160.646 141.214C161.669 142.143 162.615 143.153 163.484 144.236C164.353 145.323 165.051 146.521 165.577 147.84C166.103 149.158 166.369 150.669 166.369 152.372C166.369 154.016 166.035 155.514 165.367 156.857C164.7 158.206 163.741 159.297 162.483 160.136C161.224 160.971 159.743 161.467 158.04 161.625V165.995H155.81Z" fill="#263238"/>
<path opacity="0.35" d="M172.262 141.133C179.958 141.133 186.198 135.091 186.198 127.638C186.198 120.185 179.958 114.143 172.262 114.143C164.565 114.143 158.326 120.185 158.326 127.638C158.326 135.091 164.565 141.133 172.262 141.133Z" fill="white"/>
<path d="M6.86133 194.941H315.591" stroke="#263238" stroke-miterlimit="10" stroke-linecap="round" stroke-linejoin="round"/>
</svg>
