<svg width="130" height="130" viewBox="0 0 130 130" fill="none" xmlns="http://www.w3.org/2000/svg">
<path d="M102.18 51.298V53.56H111.358" stroke="#263238" stroke-miterlimit="10" stroke-linecap="round" stroke-linejoin="round"/>
<path d="M106.678 54.08V56.68H100.958" stroke="#263238" stroke-miterlimit="10" stroke-linecap="round" stroke-linejoin="round"/>
<path d="M102.362 57.538V59.618H109.798" stroke="#263238" stroke-miterlimit="10" stroke-linecap="round" stroke-linejoin="round"/>
<path d="M109.122 56.8621H113.282" stroke="#263238" stroke-miterlimit="10" stroke-linecap="round" stroke-linejoin="round"/>
<path d="M106.678 60.658V63.622" stroke="#263238" stroke-miterlimit="10" stroke-linecap="round" stroke-linejoin="round"/>
<path d="M112.397 53.222V50.96" stroke="#263238" stroke-miterlimit="10" stroke-linecap="round" stroke-linejoin="round"/>
<path d="M107.042 50.258V47.84" stroke="#263238" stroke-miterlimit="10" stroke-linecap="round" stroke-linejoin="round"/>
<path d="M110.162 50.6221H115.518" stroke="#263238" stroke-miterlimit="10" stroke-linecap="round" stroke-linejoin="round"/>
<path d="M92.4824 26.702V28.938H101.66" stroke="#263238" stroke-miterlimit="10" stroke-linecap="round" stroke-linejoin="round"/>
<path d="M96.9798 29.458V32.058H91.2598" stroke="#263238" stroke-miterlimit="10" stroke-linecap="round" stroke-linejoin="round"/>
<path d="M92.6377 32.942V35.022H100.1" stroke="#263238" stroke-miterlimit="10" stroke-linecap="round" stroke-linejoin="round"/>
<path d="M99.3975 32.24H103.557" stroke="#263238" stroke-miterlimit="10" stroke-linecap="round" stroke-linejoin="round"/>
<path d="M96.9795 36.062V39" stroke="#263238" stroke-miterlimit="10" stroke-linecap="round" stroke-linejoin="round"/>
<path d="M102.7 28.6V26.338" stroke="#263238" stroke-miterlimit="10" stroke-linecap="round" stroke-linejoin="round"/>
<path d="M97.3184 25.662V23.218" stroke="#263238" stroke-miterlimit="10" stroke-linecap="round" stroke-linejoin="round"/>
<path d="M100.438 26H105.82" stroke="#263238" stroke-miterlimit="10" stroke-linecap="round" stroke-linejoin="round"/>
<path d="M65.4424 83.72V85.982H74.6204" stroke="#263238" stroke-miterlimit="10" stroke-linecap="round" stroke-linejoin="round"/>
<path d="M69.9397 86.5021V89.1021H64.2197" stroke="#263238" stroke-miterlimit="10" stroke-linecap="round" stroke-linejoin="round"/>
<path d="M65.5977 89.96V92.04H73.0597" stroke="#263238" stroke-miterlimit="10" stroke-linecap="round" stroke-linejoin="round"/>
<path d="M72.3584 89.2581H76.5184" stroke="#263238" stroke-miterlimit="10" stroke-linecap="round" stroke-linejoin="round"/>
<path d="M69.9395 93.0801V96.0181" stroke="#263238" stroke-miterlimit="10" stroke-linecap="round" stroke-linejoin="round"/>
<path d="M75.6602 85.6181V83.3821" stroke="#263238" stroke-miterlimit="10" stroke-linecap="round" stroke-linejoin="round"/>
<path d="M70.2783 82.6799V80.262" stroke="#263238" stroke-miterlimit="10" stroke-linecap="round" stroke-linejoin="round"/>
<path d="M73.3975 83.0181H78.7795" stroke="#263238" stroke-miterlimit="10" stroke-linecap="round" stroke-linejoin="round"/>
<path d="M24.8818 74.022V76.258H34.0598" stroke="#263238" stroke-miterlimit="10" stroke-linecap="round" stroke-linejoin="round"/>
<path d="M29.3802 76.778V79.378H23.6602" stroke="#263238" stroke-miterlimit="10" stroke-linecap="round" stroke-linejoin="round"/>
<path d="M25.0381 80.262V82.342H32.5001" stroke="#263238" stroke-miterlimit="10" stroke-linecap="round" stroke-linejoin="round"/>
<path d="M31.7979 79.5601H35.9578" stroke="#263238" stroke-miterlimit="10" stroke-linecap="round" stroke-linejoin="round"/>
<path d="M29.3799 83.3821V86.3201" stroke="#263238" stroke-miterlimit="10" stroke-linecap="round" stroke-linejoin="round"/>
<path d="M35.0996 75.92V73.658" stroke="#263238" stroke-miterlimit="10" stroke-linecap="round" stroke-linejoin="round"/>
<path d="M29.7178 72.982V70.538" stroke="#263238" stroke-miterlimit="10" stroke-linecap="round" stroke-linejoin="round"/>
<path d="M32.8379 73.3201H38.2199" stroke="#263238" stroke-miterlimit="10" stroke-linecap="round" stroke-linejoin="round"/>
<path d="M76.1797 89.96V92.222H85.3577" stroke="#263238" stroke-miterlimit="10" stroke-linecap="round" stroke-linejoin="round"/>
<path d="M80.678 92.7421V95.3421H74.958" stroke="#263238" stroke-miterlimit="10" stroke-linecap="round" stroke-linejoin="round"/>
<path d="M76.3623 96.2001V98.28H83.7983" stroke="#263238" stroke-miterlimit="10" stroke-linecap="round" stroke-linejoin="round"/>
<path d="M83.1221 95.498H87.2821" stroke="#263238" stroke-miterlimit="10" stroke-linecap="round" stroke-linejoin="round"/>
<path d="M80.6777 99.3201V102.258" stroke="#263238" stroke-miterlimit="10" stroke-linecap="round" stroke-linejoin="round"/>
<path d="M86.3975 91.858V89.6221" stroke="#263238" stroke-miterlimit="10" stroke-linecap="round" stroke-linejoin="round"/>
<path d="M81.042 88.9201V86.5021" stroke="#263238" stroke-miterlimit="10" stroke-linecap="round" stroke-linejoin="round"/>
<path d="M84.1621 89.2581H89.5181" stroke="#263238" stroke-miterlimit="10" stroke-linecap="round" stroke-linejoin="round"/>
<path d="M42.5615 89.96V92.222H51.7395" stroke="#263238" stroke-miterlimit="10" stroke-linecap="round" stroke-linejoin="round"/>
<path d="M47.0598 92.7421V95.3421H41.3398" stroke="#263238" stroke-miterlimit="10" stroke-linecap="round" stroke-linejoin="round"/>
<path d="M42.7178 96.2001V98.28H50.1798" stroke="#263238" stroke-miterlimit="10" stroke-linecap="round" stroke-linejoin="round"/>
<path d="M49.4775 95.498H53.6375" stroke="#263238" stroke-miterlimit="10" stroke-linecap="round" stroke-linejoin="round"/>
<path d="M47.0596 99.3201V102.258" stroke="#263238" stroke-miterlimit="10" stroke-linecap="round" stroke-linejoin="round"/>
<path d="M52.7803 91.858V89.6221" stroke="#263238" stroke-miterlimit="10" stroke-linecap="round" stroke-linejoin="round"/>
<path d="M47.3975 88.9201V86.5021" stroke="#263238" stroke-miterlimit="10" stroke-linecap="round" stroke-linejoin="round"/>
<path d="M50.5176 89.2581H55.8996" stroke="#263238" stroke-miterlimit="10" stroke-linecap="round" stroke-linejoin="round"/>
<path d="M18.6416 51.298V53.56H27.8196" stroke="#263238" stroke-miterlimit="10" stroke-linecap="round" stroke-linejoin="round"/>
<path d="M23.1399 54.08V56.68H17.4199" stroke="#263238" stroke-miterlimit="10" stroke-linecap="round" stroke-linejoin="round"/>
<path d="M18.7979 57.538V59.618H26.2599" stroke="#263238" stroke-miterlimit="10" stroke-linecap="round" stroke-linejoin="round"/>
<path d="M25.5576 56.8621H29.7176" stroke="#263238" stroke-miterlimit="10" stroke-linecap="round" stroke-linejoin="round"/>
<path d="M23.1396 60.658V63.622" stroke="#263238" stroke-miterlimit="10" stroke-linecap="round" stroke-linejoin="round"/>
<path d="M28.8604 53.222V50.96" stroke="#263238" stroke-miterlimit="10" stroke-linecap="round" stroke-linejoin="round"/>
<path d="M23.4775 50.258V47.84" stroke="#263238" stroke-miterlimit="10" stroke-linecap="round" stroke-linejoin="round"/>
<path d="M26.5977 50.6221H31.9797" stroke="#263238" stroke-miterlimit="10" stroke-linecap="round" stroke-linejoin="round"/>
<path d="M33.7217 30.6801V32.9421H42.8997" stroke="#263238" stroke-miterlimit="10" stroke-linecap="round" stroke-linejoin="round"/>
<path d="M38.22 33.462V36.062H32.5" stroke="#263238" stroke-miterlimit="10" stroke-linecap="round" stroke-linejoin="round"/>
<path d="M33.8779 36.92V39H41.3399" stroke="#263238" stroke-miterlimit="10" stroke-linecap="round" stroke-linejoin="round"/>
<path d="M40.6377 36.218H44.7977" stroke="#263238" stroke-miterlimit="10" stroke-linecap="round" stroke-linejoin="round"/>
<path d="M38.2197 40.04V42.978" stroke="#263238" stroke-miterlimit="10" stroke-linecap="round" stroke-linejoin="round"/>
<path d="M43.9395 32.578V30.342" stroke="#263238" stroke-miterlimit="10" stroke-linecap="round" stroke-linejoin="round"/>
<path d="M38.5576 29.64V27.222" stroke="#263238" stroke-miterlimit="10" stroke-linecap="round" stroke-linejoin="round"/>
<path d="M41.6777 29.978H47.0597" stroke="#263238" stroke-miterlimit="10" stroke-linecap="round" stroke-linejoin="round"/>
<path d="M91.2598 68.822V71.058H100.438" stroke="#263238" stroke-miterlimit="10" stroke-linecap="round" stroke-linejoin="round"/>
<path d="M95.7581 71.578V74.178H90.0381" stroke="#263238" stroke-miterlimit="10" stroke-linecap="round" stroke-linejoin="round"/>
<path d="M91.4424 75.062V77.142H98.8784" stroke="#263238" stroke-miterlimit="10" stroke-linecap="round" stroke-linejoin="round"/>
<path d="M98.2021 74.36H102.362" stroke="#263238" stroke-miterlimit="10" stroke-linecap="round" stroke-linejoin="round"/>
<path d="M95.7578 78.182V81.12" stroke="#263238" stroke-miterlimit="10" stroke-linecap="round" stroke-linejoin="round"/>
<path d="M101.478 70.72V68.458" stroke="#263238" stroke-miterlimit="10" stroke-linecap="round" stroke-linejoin="round"/>
<path d="M96.1221 67.782V65.338" stroke="#263238" stroke-miterlimit="10" stroke-linecap="round" stroke-linejoin="round"/>
<path d="M99.2422 68.12H104.598" stroke="#263238" stroke-miterlimit="10" stroke-linecap="round" stroke-linejoin="round"/>
<path d="M22.8799 104H111.28" stroke="#263238" stroke-miterlimit="10" stroke-linecap="round" stroke-linejoin="round"/>
<path d="M40.3778 112.84C48.1749 112.84 54.4958 110.861 54.4958 108.42C54.4958 105.979 48.1749 104 40.3778 104C32.5806 104 26.2598 105.979 26.2598 108.42C26.2598 110.861 32.5806 112.84 40.3778 112.84Z" fill="#0085E5"/>
<path opacity="0.5" d="M40.3778 112.84C48.1749 112.84 54.4958 110.861 54.4958 108.42C54.4958 105.979 48.1749 104 40.3778 104C32.5806 104 26.2598 105.979 26.2598 108.42C26.2598 110.861 32.5806 112.84 40.3778 112.84Z" fill="white"/>
<path d="M43.6797 23.2179V81.4579H94.6397V21.3199H55.4577L43.6797 23.2179Z" fill="#0085E5" stroke="#263238" stroke-miterlimit="10"/>
<path d="M88.7118 59.0199C88.7118 57.9279 87.8538 57.0439 86.7618 56.9919C86.7098 57.0179 86.6838 57.0179 86.6318 57.0179C86.5798 57.0179 86.5278 57.0179 86.4758 56.9919H86.4498V56.9659C86.2938 56.8879 86.1898 56.7319 86.1898 56.5499C86.1898 56.3679 86.2938 56.2119 86.4498 56.1339H86.4758C86.5278 56.1079 86.5798 56.1079 86.6318 56.1079C86.6838 56.1079 86.7358 56.1079 86.7618 56.1339C87.8538 56.0559 88.7118 55.1459 88.7118 54.0279V53.5599C88.7118 52.3899 87.7758 51.4539 86.6058 51.4539C86.3718 51.4539 86.1898 51.2459 86.1898 51.0119C86.1898 50.7779 86.3718 50.5699 86.6058 50.5699C86.6058 50.5699 86.6058 50.5699 86.6318 50.5699C87.6978 50.5439 88.5558 49.6859 88.5558 48.6199V47.7359C88.5558 46.6699 87.6718 45.7859 86.6058 45.7859H74.4898C74.4898 45.7859 74.7238 43.9919 75.0618 42.7699C75.3738 41.5479 76.8558 39.7539 77.0898 37.5699C77.3238 35.3859 75.7118 31.1479 73.7618 30.7579C71.8118 30.3419 71.3958 31.9019 71.4998 34.0859C71.5778 36.2699 68.5878 40.1699 66.5338 42.1979C64.4798 44.2259 62.0098 47.5279 62.0098 47.5279L62.1398 63.0759C62.1398 63.0759 62.1398 63.0759 64.6618 64.2979C67.1838 65.5199 70.0958 65.5979 70.0958 65.5979H85.2798C86.1898 65.5979 86.8918 64.8699 86.8918 63.9859V63.5699C86.8918 62.6599 86.5798 62.1659 85.9558 61.9579C85.7218 61.9319 85.5658 61.7499 85.5658 61.5159C85.5658 61.2819 85.7478 61.0999 85.9558 61.0739H85.9818C85.9818 61.0739 85.9818 61.0739 86.0078 61.0739C86.0078 61.0739 86.0078 61.0739 86.0338 61.0739H86.7098C87.8018 61.0479 88.7118 60.1379 88.7118 59.0199Z" fill="white" stroke="#263238" stroke-miterlimit="10" stroke-linecap="round" stroke-linejoin="round"/>
<path d="M60.8137 66.3H53.0917C52.1817 66.3 51.4277 65.546 51.4277 64.636V47.268C51.4277 46.358 52.1817 45.604 53.0917 45.604H60.8137C61.7237 45.604 62.4777 46.358 62.4777 47.268V64.636C62.4777 65.546 61.7237 66.3 60.8137 66.3Z" fill="#263238"/>
<path d="M52.2598 49.9199L49.4778 41.6779C49.4778 41.6779 49.2178 40.6379 49.2178 40.2999C49.2178 39.9619 50.5958 37.9599 50.5958 37.9599C50.5958 37.9599 50.2838 37.0239 50.8038 36.8679C51.3238 36.7119 52.5458 37.8819 52.6758 38.0899C52.8058 38.2979 52.7538 38.6879 52.5978 39.0519C52.4418 39.4159 51.3498 41.6779 51.1938 41.8079C51.0378 41.9379 53.0918 45.3959 54.4698 47.3459C55.8478 49.2959 57.0698 51.0639 56.7838 51.8439C56.4978 52.6239 55.1978 51.9999 54.2358 51.5579C53.2738 51.1159 52.2858 50.1019 52.2858 50.1019L52.2598 49.9199Z" fill="white" stroke="#263238" stroke-miterlimit="10" stroke-linecap="round" stroke-linejoin="round"/>
<path d="M51.0381 37.804L51.6101 38.22" stroke="#263238" stroke-miterlimit="10" stroke-linecap="round" stroke-linejoin="round"/>
<path d="M31.2784 68.354C31.2784 68.354 31.7984 69.914 33.2544 70.278C34.7364 70.616 38.6364 65.806 38.6364 65.806L38.8184 64.324L32.9164 65.026C32.9164 65 31.0184 66.092 31.2784 68.354Z" fill="white" stroke="#263238" stroke-miterlimit="10" stroke-linecap="round" stroke-linejoin="round"/>
<path d="M53.3782 22.022C53.3782 22.022 52.1562 24.7 52.1562 24.96C52.1562 25.22 52.1822 25.376 52.7022 25.48C53.2482 25.584 58.0063 26.494 58.9163 26.26C59.5663 26.104 60.1383 22.802 60.1383 22.802C60.1383 22.802 59.0983 22.542 58.5003 22.542C57.9023 22.542 56.2383 22.36 56.2383 22.36L55.5363 22.958L55.7963 22.178L54.7563 21.996L54.4963 22.594L54.3142 21.892L53.3782 22.022Z" fill="white" stroke="#263238" stroke-miterlimit="10"/>
<path d="M58.9162 26.2599C59.1762 26.1819 59.4362 25.6099 59.6442 24.9339L52.4682 24.1019C52.2862 24.5439 52.1562 24.8819 52.1562 24.9859C52.1562 25.2459 52.1822 25.4019 52.7022 25.5059C53.2482 25.5579 58.0322 26.4939 58.9162 26.2599Z" fill="#263238" stroke="#263238" stroke-miterlimit="10"/>
<path d="M32.63 80.704C32.578 80.704 32.526 80.704 32.474 80.678C32.266 80.6 32.188 80.366 32.266 80.158L55.406 25.298C55.484 25.09 55.718 25.012 55.926 25.09C56.134 25.168 56.212 25.402 56.134 25.61L32.994 80.47C32.942 80.626 32.786 80.704 32.63 80.704Z" fill="#263238" stroke="#263238" stroke-miterlimit="10"/>
<path d="M49.7118 42.3799C49.7118 42.3799 49.1918 41.1319 49.4258 39.1819C49.5038 38.5839 50.1018 37.8039 50.1538 37.5179C50.2058 37.2319 49.9458 36.9199 50.3098 36.9199C50.6738 36.9199 51.0378 37.4139 51.0378 37.8039C51.0378 38.2199 50.7518 38.8439 50.8038 39.0259C50.8558 39.1819 50.7518 39.8059 50.7518 39.8059" fill="white"/>
<path d="M49.7118 42.3799C49.7118 42.3799 49.1918 41.1319 49.4258 39.1819C49.5038 38.5839 50.1018 37.8039 50.1538 37.5179C50.2058 37.2319 49.9458 36.9199 50.3098 36.9199C50.6738 36.9199 51.0378 37.4139 51.0378 37.8039C51.0378 38.2199 50.7518 38.8439 50.8038 39.0259C50.8558 39.1819 50.7518 39.8059 50.7518 39.8059" stroke="#263238" stroke-miterlimit="10" stroke-linecap="round" stroke-linejoin="round"/>
<path d="M43.5497 41.3919C43.5497 41.3919 44.7197 42.6659 44.8497 42.9779C44.9797 43.3159 44.9537 44.0179 44.9537 44.1479C44.9537 44.2779 45.3177 44.4859 45.4217 44.7459C45.5257 45.0319 46.1757 46.9559 46.1757 47.2159C46.1757 47.5019 45.7597 47.8659 45.3437 48.0479C44.9277 48.2299 44.4077 48.4639 44.4077 48.4639L44.2777 49.9719L40.6377 50.5439L40.2217 48.9579C40.2217 48.9579 41.3917 48.6199 41.5217 47.6059C41.6517 46.5659 40.0657 45.1359 40.4557 43.4979C40.7937 41.8599 42.4837 41.0279 43.5497 41.3919Z" fill="white" stroke="#263238" stroke-miterlimit="10" stroke-linecap="round" stroke-linejoin="round"/>
<path d="M43.2641 41.496C43.2641 41.496 42.9261 42.432 42.9261 42.848C42.9261 43.264 43.9141 43.186 43.9141 43.68C43.9141 44.2 43.5501 44.902 43.5501 44.902C43.5501 44.902 44.0701 45.422 43.9661 45.708C43.8621 45.994 43.4461 46.28 43.3161 45.942C43.1861 45.604 42.5621 45.76 42.7961 46.41C43.0301 47.06 43.4981 47.528 43.4981 47.528C43.4981 47.528 43.3161 48.178 42.6141 48.88C41.9121 49.582 40.8461 49.816 40.5601 49.634C40.2741 49.452 38.7401 48.23 37.9341 47.112C37.1281 45.994 36.4261 44.252 37.1281 42.484C37.8301 40.716 39.4681 40.248 39.9361 40.144C40.4041 40.04 39.1301 39.91 39.5981 39.26C40.0661 38.61 41.3661 38.142 42.1201 38.506C42.8741 38.87 42.6401 39.338 43.0561 39.494C43.4721 39.624 43.8881 38.922 44.3301 39.546C44.7721 40.144 45.2401 42.042 43.2641 41.496Z" fill="#263238" stroke="#263238" stroke-miterlimit="10" stroke-linecap="round" stroke-linejoin="round"/>
<path d="M42.9517 42.8479C42.9517 42.8479 42.7697 44.8759 41.6777 46.1239C40.5857 47.3719 38.6357 47.6319 38.6357 47.6319" stroke="white" stroke-miterlimit="10" stroke-linecap="round" stroke-linejoin="round"/>
<path d="M40.1963 48.984C40.1963 48.984 41.2623 49.036 42.5103 47.918" stroke="white" stroke-miterlimit="10" stroke-linecap="round" stroke-linejoin="round"/>
<path d="M43.8359 46.306C43.8359 46.306 43.1339 45.188 42.7699 45.604C42.4059 46.02 42.8739 47.294 43.5239 47.528C44.1739 47.762 44.4079 47.346 44.4079 47.346" fill="white"/>
<path d="M43.8359 46.306C43.8359 46.306 43.1339 45.188 42.7699 45.604C42.4059 46.02 42.8739 47.294 43.5239 47.528C44.1739 47.762 44.4079 47.346 44.4079 47.346" stroke="#263238" stroke-miterlimit="10" stroke-linecap="round" stroke-linejoin="round"/>
<path d="M38.584 51.558C38.584 51.558 38.818 50.518 39.286 50.206C39.754 49.868 43.212 49.504 44.148 49.4C45.084 49.296 46.072 49.868 46.072 49.868L46.54 50.674L38.584 51.558Z" fill="white" stroke="#263238" stroke-miterlimit="10" stroke-linecap="round" stroke-linejoin="round"/>
<path d="M31.7201 64.662C31.7201 64.662 30.7581 65.702 30.6021 66.222C30.4201 66.742 30.3421 67.86 31.3041 68.562C32.2661 69.264 33.7221 69.42 34.4241 69.082C35.1261 68.744 35.5421 68.042 35.5421 66.924C35.5421 65.806 35.2041 65.104 35.2041 65.104C35.2041 65.104 32.9161 63.7 31.7201 64.662Z" fill="white" stroke="#263238" stroke-miterlimit="10" stroke-linecap="round" stroke-linejoin="round"/>
<path d="M51.1162 50.622C51.1162 50.622 51.8182 49.4 53.1182 49.322C54.4182 49.244 55.1202 49.4 56.0562 50.284C57.0182 51.142 57.6942 52.442 57.1742 53.326C56.6542 54.21 56.1342 54.626 55.0942 54.704C54.0542 54.782 53.0142 53.586 53.0142 53.586L51.1162 50.622Z" fill="white" stroke="#263238" stroke-miterlimit="10" stroke-linecap="round" stroke-linejoin="round"/>
<path d="M44.7981 105.118C44.7981 105.118 47.5801 104.936 48.1001 105.638C48.6201 106.34 48.3081 107.354 46.4621 108.394C44.8501 109.304 41.1321 110.214 39.8841 109.954C38.4281 109.668 39.2601 107.016 39.2601 107.016C39.2601 107.016 43.2381 107.198 44.7981 105.118Z" fill="white" stroke="#263238" stroke-miterlimit="10" stroke-linecap="round" stroke-linejoin="round"/>
<path d="M48.0478 105.612C47.8658 106.132 47.5278 106.86 46.8778 107.432C45.7078 108.472 43.0298 109.122 41.3398 109.382C40.2738 109.538 39.4938 109.33 39.0518 109.148C39.1558 109.564 39.3898 109.876 39.8578 109.98C41.1058 110.214 44.7978 109.304 46.4358 108.42C48.3078 107.38 48.5938 106.366 48.0738 105.664C48.0738 105.638 48.0738 105.612 48.0478 105.612Z" fill="#263238" stroke="#263238" stroke-miterlimit="10" stroke-linecap="round" stroke-linejoin="round"/>
<path d="M31.5377 105.898C31.5377 105.898 31.1997 107.458 31.6157 108.16C32.0577 108.862 34.3977 109.2 35.2557 108.758C36.1137 108.316 36.3737 107.198 36.3737 106.158C36.3737 105.118 34.9177 107.302 31.5377 105.898Z" fill="white" stroke="#263238" stroke-miterlimit="10" stroke-linecap="round" stroke-linejoin="round"/>
<path d="M31.4082 107.432C31.4342 107.718 31.4862 107.978 31.6162 108.16C32.0582 108.862 34.3982 109.2 35.2562 108.758C35.6202 108.576 35.8802 108.264 36.0622 107.874C33.5402 108.784 32.0322 107.926 31.4082 107.432Z" fill="#263238" stroke="#263238" stroke-miterlimit="10" stroke-linecap="round" stroke-linejoin="round"/>
<path d="M36.4778 69.082C36.4778 69.082 35.8798 72.28 35.9578 72.904C36.0358 73.502 36.2958 74.984 36.2958 74.984C36.2958 74.984 34.2158 87.386 34.0338 90.402C33.8518 93.444 32.6558 98.8 32.2918 100.802C31.9538 102.804 31.7718 104.702 31.2518 105.482C30.7318 106.262 31.9538 106.86 32.5518 107.224C33.1498 107.562 35.5938 107.146 35.9318 106.964C36.2698 106.782 36.5298 105.742 36.6338 104.962C36.7378 104.182 38.6358 99.32 38.9738 96.2C39.3118 93.08 41.4958 81.64 41.6518 80.782C41.8338 79.924 42.2498 77.402 42.2498 77.402C42.2498 77.402 41.6518 87.88 41.5478 90.662C41.4698 93.444 39.9878 96.98 39.7278 99.424C39.4678 101.842 39.1298 104.026 39.1298 104.962C39.1298 105.924 38.8698 107.64 39.3898 108.004C39.9098 108.342 40.8718 108.082 42.3278 107.666C43.7838 107.25 44.7458 106.288 44.8498 105.586C44.9278 104.884 45.1098 104.546 45.1098 104.104C45.1098 103.662 46.7478 94.562 47.7878 89.804C48.8278 85.046 49.5298 78.702 48.9058 75.062C48.3078 71.422 48.3078 68.562 48.3078 68.562C48.3078 68.562 40.3778 70.72 36.4778 69.082Z" fill="#263238" stroke="#263238" stroke-miterlimit="10" stroke-linecap="round" stroke-linejoin="round"/>
<path d="M42.2753 77.402L39.7793 75.738" stroke="white" stroke-miterlimit="10" stroke-linecap="round" stroke-linejoin="round"/>
<path d="M38.9996 51.298C38.9996 51.298 33.4616 52.858 33.2796 54.34C33.0976 55.822 31.9796 61.802 31.7196 63.518C31.4596 65.26 30.7576 66.716 31.9016 67.6C33.0196 68.458 34.5796 67.86 34.9436 67.158C35.2816 66.456 35.9836 64.818 35.9836 64.818C35.9836 64.818 36.1656 68.198 36.1656 68.718C36.1656 69.238 36.2436 70.018 37.9856 70.2C39.7276 70.382 43.1856 70.538 44.8236 70.122C46.4616 69.68 48.2036 69.602 48.3856 68.562C48.5676 67.522 48.0476 64.064 48.3856 62.062C48.7236 60.06 48.9836 56.862 48.9836 56.862C48.9836 56.862 55.1456 54.34 56.0816 54.002C57.0436 53.664 56.0036 51.22 54.9636 50.622C53.9236 50.024 52.8056 50.024 51.4016 50.284C50.0236 50.544 48.2816 50.206 47.4236 50.206C46.5396 50.18 38.9996 51.298 38.9996 51.298Z" fill="white" stroke="#263238" stroke-miterlimit="10" stroke-linecap="round" stroke-linejoin="round"/>
<path d="M49.478 52.598L48.958 56.862L50.596 53.118" stroke="#263238" stroke-miterlimit="10" stroke-linecap="round" stroke-linejoin="round"/>
<path d="M35.9577 64.818L35.1777 57.1219" stroke="#263238" stroke-miterlimit="10" stroke-linecap="round" stroke-linejoin="round"/>
<path d="M35.2559 59.28L33.8779 55.978" stroke="#263238" stroke-miterlimit="10" stroke-linecap="round" stroke-linejoin="round"/>
<path d="M48.0992 61.438C48.0992 61.438 46.8772 65.676 44.1992 67.34" stroke="#263238" stroke-miterlimit="10" stroke-linecap="round" stroke-linejoin="round"/>
<path d="M45.4997 65.26C45.4997 65.26 44.2777 66.56 41.6777 67.86" stroke="#263238" stroke-miterlimit="10" stroke-linecap="round" stroke-linejoin="round"/>
<path d="M43.6797 23.218L44.7197 28.2359C44.7197 28.2359 49.9197 24.596 56.1597 22.698C62.3997 20.8 68.5877 21.294 68.5877 21.294C68.5877 21.294 56.6797 19.76 51.4797 20.982C46.2797 22.178 43.6797 23.218 43.6797 23.218Z" fill="white" stroke="#263238" stroke-miterlimit="10"/>
<path d="M88.1924 69.082C88.0624 68.536 88.3744 67.99 88.9464 67.912C89.7264 67.808 90.6884 68.848 91.0004 69.498C91.0264 69.55 91.3384 70.46 91.3384 70.46C91.3384 70.46 89.9344 70.486 89.3884 70.252C88.8944 70.044 88.3224 69.628 88.1924 69.082ZM108.394 66.664C108.29 67.21 107.718 67.626 107.25 67.86C106.756 68.094 105.638 68.12 105.352 68.12C105.196 68.302 105.04 68.484 104.858 68.718C104.546 69.108 104.234 69.55 103.896 70.044C103.818 70.174 103.714 70.33 103.636 70.46C103.844 70.252 104.104 69.966 104.156 69.94C104.702 69.498 106.028 68.978 106.704 69.42C107.172 69.732 107.224 70.382 106.86 70.798C106.496 71.24 105.82 71.344 105.3 71.318C104.754 71.292 103.714 70.798 103.48 70.694C103.298 71.006 103.09 71.344 102.908 71.682C102.596 72.28 102.284 72.956 102.076 73.658C102.102 73.658 102.102 73.658 102.128 73.684C102.284 73.476 102.648 73.034 102.674 73.008C103.168 72.514 104.442 71.838 105.144 72.202C105.664 72.462 105.768 73.112 105.456 73.554C105.144 74.022 104.494 74.23 103.948 74.256C103.35 74.308 102.076 73.814 102.024 73.814C101.816 74.49 101.686 75.192 101.556 75.92C101.478 76.44 101.4 76.986 101.348 77.506C101.452 77.35 101.92 76.778 101.946 76.752C102.44 76.258 103.714 75.582 104.416 75.946C104.936 76.206 105.04 76.856 104.728 77.298C104.416 77.766 103.766 77.974 103.22 78C102.622 78.052 101.426 77.584 101.322 77.558C101.296 77.792 101.27 78.052 101.244 78.286C101.166 79.092 101.088 79.872 100.984 80.678C100.958 80.938 100.906 81.224 100.854 81.484C101.036 81.25 101.348 80.86 101.374 80.834C101.868 80.34 103.142 79.664 103.844 80.028C104.364 80.288 104.468 80.938 104.156 81.38C103.844 81.848 103.194 82.056 102.648 82.082C102.128 82.108 101.088 81.77 100.802 81.666C100.724 82.108 100.646 82.55 100.542 82.992C100.49 83.174 100.464 83.356 100.412 83.538C100.36 83.72 100.308 83.902 100.256 84.058C100.126 84.422 100.022 84.734 99.9184 85.072C99.8664 85.228 99.7884 85.384 99.7364 85.566C99.8664 85.306 100.1 84.916 100.126 84.89C100.542 84.318 101.686 83.46 102.44 83.72C102.986 83.902 103.194 84.526 102.96 85.02C102.726 85.54 102.102 85.826 101.582 85.93C101.01 86.06 99.7884 85.8 99.6324 85.774C99.4764 86.164 99.3464 86.554 99.1904 86.892C98.7224 88.01 98.3064 88.92 97.9944 89.57C97.9684 89.596 97.9684 89.648 97.9424 89.674H100.178L99.3984 104.65C99.3464 105.794 98.4104 106.678 97.2664 106.678C96.1224 106.678 95.1864 105.794 95.1344 104.65L94.3544 89.674H96.7464C96.7464 89.57 96.7204 89.466 96.7204 89.336C96.6424 88.634 96.5124 87.646 96.3044 86.476C96.2524 86.138 96.1744 85.774 96.0964 85.41C95.9404 85.436 94.7184 85.592 94.1464 85.41C93.6524 85.254 93.0284 84.916 92.8464 84.396C92.6644 83.876 92.8984 83.278 93.4704 83.148C94.2504 82.94 95.3164 83.902 95.7064 84.5C95.7324 84.526 95.9664 85.02 96.0704 85.28C96.0184 85.046 95.9924 84.838 95.9404 84.604C95.8624 84.266 95.7844 83.928 95.7064 83.59C95.6544 83.408 95.6024 83.252 95.5504 83.07C95.4984 82.888 95.4464 82.732 95.3944 82.55C95.3164 82.29 95.2124 82.03 95.1084 81.77C94.7704 81.874 93.7824 82.108 93.2884 82.056C92.7684 81.978 92.1184 81.744 91.8584 81.25C91.5984 80.782 91.7544 80.132 92.2744 79.924C93.0024 79.612 94.2244 80.366 94.6664 80.912C94.6924 80.938 94.7704 81.042 94.8744 81.198C94.7704 80.938 94.6664 80.704 94.5364 80.444C94.1984 79.742 93.8344 79.014 93.4704 78.312C93.3924 78.156 93.3144 78 93.2364 77.87C92.9504 77.948 91.8844 78.234 91.3644 78.156C90.8444 78.078 90.1944 77.844 89.9344 77.35C89.6744 76.882 89.8304 76.232 90.3504 76.024C91.0784 75.712 92.3004 76.466 92.7424 77.012C92.7684 77.038 92.8724 77.168 92.9764 77.35C92.7944 76.96 92.6124 76.57 92.4304 76.18C92.1184 75.478 91.8844 74.802 91.6764 74.1C91.5724 74.126 90.3244 74.49 89.7524 74.412C89.2324 74.334 88.5824 74.1 88.3224 73.606C88.0624 73.138 88.2184 72.488 88.7384 72.28C89.4664 71.968 90.6884 72.722 91.1304 73.268C91.1564 73.294 91.5204 73.84 91.6504 74.048V74.022C91.4424 73.294 91.3644 72.566 91.2864 71.864C91.2344 71.188 91.2344 70.512 91.2344 69.914C91.2604 69.316 91.2864 68.77 91.3384 68.276C91.3644 68.016 91.3904 67.782 91.4164 67.548H91.3904C91.3904 67.548 91.1044 66.638 91.1044 66.56C91.0004 65.858 91.1824 64.454 91.8844 64.09C92.4044 63.83 92.9764 64.116 93.1844 64.61C93.3924 65.13 93.1584 65.78 92.8984 66.222C92.6124 66.69 91.7024 67.34 91.4684 67.496C91.4424 67.73 91.4164 67.99 91.3904 68.25C91.3644 68.744 91.3124 69.29 91.3124 69.888C91.3124 70.044 91.3124 70.226 91.3124 70.382C91.3644 70.096 91.4424 69.706 91.4684 69.68C91.6764 69.004 92.5084 67.834 93.2884 67.834C93.8604 67.834 94.2504 68.354 94.1984 68.9C94.1464 69.446 93.6524 69.94 93.1844 70.2C92.7164 70.486 91.5724 70.642 91.3124 70.668C91.3124 71.032 91.3384 71.422 91.3904 71.812C91.4684 72.488 91.5724 73.216 91.8064 73.918C91.8324 73.918 91.8324 73.918 91.8584 73.918C91.8844 73.658 91.9364 73.086 91.9364 73.06C92.0924 72.358 92.7684 71.11 93.5484 71.032C94.1204 70.98 94.5624 71.448 94.5624 71.994C94.5624 72.566 94.1204 73.086 93.7044 73.398C93.2104 73.762 91.9104 74.074 91.8584 74.074C92.0664 74.75 92.3264 75.4 92.6384 76.076C92.8464 76.57 93.1064 77.038 93.3404 77.506C93.3404 77.324 93.4184 76.596 93.4184 76.544C93.5744 75.842 94.2504 74.594 95.0304 74.516C95.6024 74.464 96.0444 74.932 96.0444 75.478C96.0444 76.05 95.6024 76.57 95.1864 76.882C94.7184 77.246 93.4704 77.532 93.3664 77.558C93.4704 77.766 93.6004 78 93.7044 78.208C94.0684 78.91 94.4584 79.612 94.8224 80.34C94.9524 80.574 95.0564 80.834 95.1604 81.068C95.1864 80.782 95.2384 80.288 95.2384 80.236C95.3944 79.534 96.0704 78.286 96.8504 78.208C97.4224 78.156 97.8644 78.624 97.8644 79.17C97.8644 79.742 97.4224 80.262 97.0064 80.574C96.5904 80.886 95.5244 81.172 95.2384 81.224C95.4204 81.64 95.6024 82.056 95.7584 82.472C95.8104 82.654 95.8884 82.836 95.9404 83.018C95.9924 83.2 96.0444 83.382 96.0964 83.538C96.2004 83.902 96.2784 84.24 96.3564 84.578C96.4084 84.76 96.4344 84.916 96.4604 85.072C96.4344 84.786 96.4084 84.318 96.4084 84.292C96.4344 83.59 96.9284 82.238 97.7084 82.03C98.2544 81.874 98.7744 82.29 98.8524 82.836C98.8524 82.914 98.8784 82.966 98.8784 83.044C99.2164 83.59 99.3724 84.344 99.3724 84.812C99.3724 84.864 99.2944 85.384 99.2684 85.67C99.3464 85.462 99.4504 85.254 99.5284 85.02C99.6584 84.708 99.7624 84.37 99.8924 84.032C99.9444 83.85 99.9964 83.694 100.048 83.512C100.1 83.33 100.152 83.148 100.204 82.992C100.282 82.732 100.334 82.446 100.386 82.186C100.048 82.082 99.0864 81.744 98.7224 81.406C98.3324 81.042 97.9164 80.496 97.9684 79.924C98.0204 79.378 98.4884 78.936 99.0604 79.04C99.8404 79.196 100.438 80.496 100.516 81.198C100.516 81.224 100.516 81.38 100.516 81.562C100.568 81.302 100.62 81.016 100.646 80.756C100.75 79.976 100.854 79.196 100.958 78.39C100.984 78.234 101.01 78.052 101.01 77.896C100.724 77.818 99.6844 77.454 99.2944 77.09C98.9044 76.726 98.4884 76.18 98.5404 75.608C98.5924 75.062 99.0604 74.62 99.6324 74.724C100.412 74.88 101.01 76.18 101.088 76.882C101.088 76.908 101.088 77.09 101.088 77.298C101.14 76.856 101.218 76.44 101.296 76.024C101.426 75.27 101.608 74.568 101.816 73.866C101.712 73.84 100.49 73.45 100.048 73.06C99.6584 72.696 99.2424 72.15 99.2944 71.578C99.3464 71.032 99.8144 70.59 100.386 70.694C101.166 70.85 101.764 72.15 101.842 72.852C101.842 72.904 101.868 73.554 101.842 73.788V73.762C102.076 73.034 102.388 72.384 102.726 71.786C103.064 71.188 103.428 70.642 103.766 70.148C104.104 69.654 104.468 69.212 104.754 68.848C104.91 68.64 105.092 68.458 105.222 68.302H105.196C105.17 68.302 105.482 67.392 105.508 67.314C105.794 66.664 106.73 65.598 107.51 65.676C108.186 65.572 108.524 66.118 108.394 66.664ZM99.2944 85.696C99.1644 85.618 98.1244 85.124 97.7084 84.682C97.2404 84.942 96.7204 85.15 96.6164 85.202C96.7204 85.618 96.7984 86.008 96.8764 86.372C97.1104 87.568 97.2664 88.556 97.3704 89.258C97.3964 89.414 97.3964 89.544 97.4224 89.648H97.4744C97.5264 89.544 97.5784 89.44 97.6564 89.31C97.9684 88.686 98.4104 87.802 98.8784 86.684C99.0084 86.372 99.1644 86.034 99.2944 85.696ZM103.454 70.538C103.454 70.538 103.714 69.602 103.714 69.55C103.818 68.848 103.584 67.444 102.882 67.08C102.362 66.82 101.79 67.132 101.608 67.652C101.426 68.172 101.66 68.822 101.946 69.264C102.284 69.81 103.454 70.538 103.454 70.538Z" fill="#263238"/>
</svg>
