<svg width="130" height="130" viewBox="0 0 130 130" fill="none" xmlns="http://www.w3.org/2000/svg">
<path d="M88.1015 17.7212C86.0501 20.0638 84.8047 23.1292 84.8047 26.4884H94.9993L88.1015 17.7212Z" stroke="#263238" stroke-width="0.26" stroke-miterlimit="10" stroke-linecap="round" stroke-linejoin="round"/>
<path d="M107.134 16.6836L100.416 26.4882H111.44C111.443 22.609 109.781 19.1172 107.134 16.6836Z" stroke="#263238" stroke-width="0.26" stroke-miterlimit="10" stroke-linecap="round" stroke-linejoin="round"/>
<path d="M88.8281 16.952L96.2823 26.4888H97.1611V13.208C93.9267 13.4394 91.0121 14.8226 88.8281 16.952Z" stroke="#263238" stroke-width="0.26" stroke-miterlimit="10" stroke-linecap="round" stroke-linejoin="round"/>
<path d="M96.4912 63.4526H84.5312V78.4026H96.4912V63.4526Z" stroke="#263238" stroke-width="0.26" stroke-miterlimit="10" stroke-linecap="round" stroke-linejoin="round"/>
<path d="M98.2031 13.1714V26.4886H99.1573L106.339 16.008C104.095 14.2478 101.274 13.1896 98.2031 13.1714Z" stroke="#263238" stroke-width="0.26" stroke-miterlimit="10" stroke-linecap="round" stroke-linejoin="round"/>
<path d="M111.44 28.6616H99.4805V43.6116H111.44V28.6616Z" stroke="#263238" stroke-width="0.26" stroke-miterlimit="10" stroke-linecap="round" stroke-linejoin="round"/>
<path d="M96.4912 46.0591H84.5312V61.0091H96.4912V46.0591Z" stroke="#263238" stroke-width="0.26" stroke-miterlimit="10" stroke-linecap="round" stroke-linejoin="round"/>
<path d="M111.44 46.0591H99.4805V61.0091H111.44V46.0591Z" stroke="#263238" stroke-width="0.26" stroke-miterlimit="10" stroke-linecap="round" stroke-linejoin="round"/>
<path d="M111.44 63.4526H99.4805V78.4026H111.44V63.4526Z" stroke="#263238" stroke-width="0.26" stroke-miterlimit="10" stroke-linecap="round" stroke-linejoin="round"/>
<path d="M96.4912 28.6616H84.5312V43.6116H96.4912V28.6616Z" stroke="#263238" stroke-width="0.26" stroke-miterlimit="10" stroke-linecap="round" stroke-linejoin="round"/>
<path d="M66.4745 118.353C99.9534 118.353 127.093 113.566 127.093 107.661C127.093 101.757 99.9534 96.9702 66.4745 96.9702C32.9955 96.9702 5.85547 101.757 5.85547 107.661C5.85547 113.566 32.9955 118.353 66.4745 118.353Z" fill="#0085E5"/>
<path opacity="0.5" d="M66.4745 118.353C99.9534 118.353 127.093 113.566 127.093 107.661C127.093 101.757 99.9534 96.9702 66.4745 96.9702C32.9955 96.9702 5.85547 101.757 5.85547 107.661C5.85547 113.566 32.9955 118.353 66.4745 118.353Z" fill="white"/>
<path d="M117.356 51.6635C117.356 51.6635 117.356 50.4363 115.64 48.7203C113.921 47.0043 112.819 46.0215 112.819 46.0215C112.819 46.0215 111.961 48.8425 113.554 50.5611C115.148 52.2771 117.358 53.8735 117.358 53.8735V51.6635H117.356Z" fill="#0085E5"/>
<path d="M114.865 59.3261C114.865 59.3261 114.865 58.0989 113.149 56.3829C111.433 54.6669 110.328 53.6841 110.328 53.6841C110.328 53.6841 109.47 56.5051 111.064 58.2237C112.658 59.9397 114.868 61.5361 114.868 61.5361V59.3261H114.865Z" fill="#0085E5"/>
<path d="M117.25 53.7543C117.25 53.7543 117.38 52.5349 119.267 51.0087C121.157 49.4825 122.359 48.6245 122.359 48.6245C122.359 48.6245 122.915 51.5209 121.147 53.0601C119.379 54.5993 117.016 55.9513 117.016 55.9513L117.25 53.7543Z" fill="#0085E5"/>
<path d="M114.239 62.8016C114.239 62.8016 114.496 61.603 116.535 60.2822C118.573 58.964 119.857 58.2334 119.857 58.2334C119.857 58.2334 120.107 61.1714 118.186 62.5182C116.267 63.8624 113.773 64.9596 113.773 64.9596L114.239 62.8016Z" fill="#0085E5"/>
<path d="M114.803 72.664C114.803 72.664 114.803 71.4368 116.519 69.7208C118.235 68.0048 119.34 67.022 119.34 67.022C119.34 67.022 120.198 69.843 118.605 71.5616C117.011 73.2802 114.801 74.874 114.801 74.874V72.664H114.803Z" fill="#0085E5"/>
<path d="M114.775 75.0716C114.775 75.0716 114.949 73.8574 113.493 71.9126C112.037 69.9678 111.083 68.8394 111.083 68.8394C111.083 68.8394 109.832 71.5096 111.166 73.4362C112.5 75.3628 114.46 77.2556 114.46 77.2556L114.775 75.0716Z" fill="#0085E5"/>
<path d="M113.082 82.2089C113.082 82.2089 113.082 80.9817 114.801 79.2657C116.519 77.5471 117.622 76.5669 117.622 76.5669C117.622 76.5669 118.48 79.3879 116.886 81.1065C115.292 82.8225 113.082 84.4189 113.082 84.4189V82.2089Z" fill="#0085E5"/>
<path d="M114.228 88.6766C114.228 88.6766 113.919 87.491 115.143 85.3928C116.371 83.2972 117.19 82.0674 117.19 82.0674C117.19 82.0674 118.734 84.579 117.626 86.6434C116.519 88.7078 114.787 90.8112 114.787 90.8112L114.228 88.6766Z" fill="#0085E5"/>
<path d="M117.513 51.3501C117.411 52.6605 117.263 54.0177 117.042 55.1591C116.363 58.6665 114.666 60.9285 113.987 64.0979C113.308 67.2647 115.256 71.3467 114.736 75.4157C114.213 79.4847 112.63 81.7467 113.082 84.4637C113.535 87.1781 115.911 94.5335 115.911 94.5335" stroke="#263238" stroke-width="0.13" stroke-miterlimit="10" stroke-linecap="round" stroke-linejoin="round"/>
<path d="M117.23 54.5692L119.082 53.147" stroke="#263238" stroke-width="0.13" stroke-miterlimit="10" stroke-linecap="round" stroke-linejoin="round"/>
<path d="M117.318 52.9337L116.543 51.5557" stroke="#263238" stroke-width="0.13" stroke-miterlimit="10" stroke-linecap="round" stroke-linejoin="round"/>
<path d="M114.09 63.9509C114.09 63.9509 115.639 62.7887 117.231 61.6265" stroke="#263238" stroke-width="0.13" stroke-miterlimit="10" stroke-linecap="round" stroke-linejoin="round"/>
<path d="M114.865 61.5322C114.865 61.5322 113.575 58.9998 112.111 57.3228" stroke="#263238" stroke-width="0.13" stroke-miterlimit="10" stroke-linecap="round" stroke-linejoin="round"/>
<path d="M114.865 74.4105C114.865 74.4105 116.069 72.0445 118.18 69.9775" stroke="#263238" stroke-width="0.13" stroke-miterlimit="10" stroke-linecap="round" stroke-linejoin="round"/>
<path d="M114.563 76.1303C114.563 76.1303 113.789 74.2791 112.884 72.9453C111.979 71.6115 111.852 71.4399 111.852 71.4399" stroke="#263238" stroke-width="0.13" stroke-miterlimit="10" stroke-linecap="round" stroke-linejoin="round"/>
<path d="M113.08 84.4619C113.08 84.4619 113.701 82.8889 114.476 81.6409C115.251 80.3929 116.283 79.2749 116.283 79.2749" stroke="#263238" stroke-width="0.13" stroke-miterlimit="10" stroke-linecap="round" stroke-linejoin="round"/>
<path d="M114.787 90.8136C114.787 90.8136 114.605 89.3446 115.253 88.0966C115.897 86.8486 116.631 85.2132 116.932 84.5684" stroke="#263238" stroke-width="0.13" stroke-miterlimit="10" stroke-linecap="round" stroke-linejoin="round"/>
<path d="M106.109 68.0472C106.109 68.0472 105.976 67.2776 106.865 66.014C107.754 64.7504 108.342 64.0146 108.342 64.0146C108.342 64.0146 109.187 65.6916 108.373 66.9396C107.559 68.1902 106.348 69.4304 106.348 69.4304L106.109 68.0472Z" fill="#0085E5"/>
<path d="M108.503 72.5809C108.503 72.5809 108.37 71.8113 109.26 70.5477C110.149 69.2841 110.736 68.5483 110.736 68.5483C110.736 68.5483 111.581 70.2253 110.768 71.4733C109.954 72.7239 108.742 73.9641 108.742 73.9641L108.503 72.5809Z" fill="#0085E5"/>
<path d="M106.403 69.347C106.403 69.347 106.19 68.5956 104.838 67.8442C103.488 67.0928 102.641 66.6846 102.641 66.6846C102.641 66.6846 102.607 68.5618 103.881 69.334C105.155 70.1062 106.785 70.699 106.785 70.699L106.403 69.347Z" fill="#0085E5"/>
<path d="M109.274 74.6932C109.274 74.6932 108.982 73.9678 107.56 73.362C106.138 72.7562 105.254 72.439 105.254 72.439C105.254 72.439 105.418 74.3084 106.767 74.9428C108.117 75.5772 109.799 75.9958 109.799 75.9958L109.274 74.6932Z" fill="#0085E5"/>
<path d="M109.992 80.9406C109.992 80.9406 109.859 80.171 108.596 79.2818C107.332 78.3926 106.534 77.896 106.534 77.896C106.534 77.896 106.302 79.7576 107.488 80.6624C108.674 81.5672 110.231 82.3264 110.231 82.3264L109.992 80.9406Z" fill="#0085E5"/>
<path d="M110.269 82.4459C110.269 82.4459 110.027 81.7023 110.729 80.3269C111.431 78.9489 111.907 78.1377 111.907 78.1377C111.907 78.1377 112.981 79.6769 112.354 81.0289C111.727 82.3809 110.703 83.7823 110.703 83.7823L110.269 82.4459Z" fill="#0085E5"/>
<path d="M112.425 88.6496C112.425 88.6496 112.513 87.8748 113.725 86.9128C114.936 85.9508 115.703 85.4126 115.703 85.4126C115.703 85.4126 116.041 87.2586 114.908 88.2284C113.774 89.1982 112.264 90.0458 112.264 90.0458L112.425 88.6496Z" fill="#0085E5"/>
<path d="M112.105 86.736C112.105 86.736 111.973 85.9664 110.709 85.0772C109.445 84.1854 108.647 83.6914 108.647 83.6914C108.647 83.6914 108.416 85.553 109.601 86.4578C110.787 87.3626 112.344 88.1218 112.344 88.1218L112.105 86.736Z" fill="#0085E5"/>
<path d="M112.09 90.9164C112.09 90.9164 112.155 90.139 111.16 88.956C110.164 87.7756 109.516 87.0918 109.516 87.0918C109.516 87.0918 108.82 88.8338 109.74 90.009C110.658 91.1842 111.973 92.3126 111.973 92.3126L112.09 90.9164Z" fill="#0085E5"/>
<path d="M105.977 67.8682C106.182 68.6794 106.424 69.514 106.684 70.2056C107.49 72.3324 108.8 73.5648 109.57 75.4784C110.339 77.392 109.559 80.161 110.329 82.657C111.099 85.153 112.336 86.3984 112.349 88.1508C112.36 89.9032 111.668 94.773 111.668 94.773" stroke="#263238" stroke-width="0.13" stroke-miterlimit="10" stroke-linecap="round" stroke-linejoin="round"/>
<path d="M106.502 69.8545L105.189 69.1655" stroke="#263238" stroke-width="0.13" stroke-miterlimit="10" stroke-linecap="round" stroke-linejoin="round"/>
<path d="M106.271 68.8411L106.609 67.8921" stroke="#263238" stroke-width="0.13" stroke-miterlimit="10" stroke-linecap="round" stroke-linejoin="round"/>
<path d="M109.491 75.3981C109.491 75.3981 108.393 74.8365 107.268 74.2827" stroke="#263238" stroke-width="0.13" stroke-miterlimit="10" stroke-linecap="round" stroke-linejoin="round"/>
<path d="M108.744 73.9653C108.744 73.9653 109.28 72.2389 110.016 71.0273" stroke="#263238" stroke-width="0.13" stroke-miterlimit="10" stroke-linecap="round" stroke-linejoin="round"/>
<path d="M110.142 82.0402C110.142 82.0402 109.131 80.6856 107.584 79.6196" stroke="#263238" stroke-width="0.13" stroke-miterlimit="10" stroke-linecap="round" stroke-linejoin="round"/>
<path d="M110.516 83.0884C110.516 83.0884 110.802 81.843 111.223 80.9096C111.644 79.9736 111.706 79.854 111.706 79.854" stroke="#263238" stroke-width="0.13" stroke-miterlimit="10" stroke-linecap="round" stroke-linejoin="round"/>
<path d="M112.289 89.4796C112.289 89.4796 113.16 88.411 113.703 88.0106C114.247 87.6102 114.621 87.2124 114.621 87.2124" stroke="#263238" stroke-width="0.13" stroke-miterlimit="10" stroke-linecap="round" stroke-linejoin="round"/>
<path d="M112.349 88.1513C112.349 88.1513 111.79 87.2309 111.168 86.5341C110.547 85.8347 109.777 85.2471 109.777 85.2471" stroke="#263238" stroke-width="0.13" stroke-miterlimit="10" stroke-linecap="round" stroke-linejoin="round"/>
<path d="M111.969 92.3185C111.969 92.3185 111.923 91.3773 111.384 90.6649C110.844 89.9525 110.207 89.0061 109.949 88.6343" stroke="#263238" stroke-width="0.13" stroke-miterlimit="10" stroke-linecap="round" stroke-linejoin="round"/>
<path d="M118.606 103.234H108.954C108.518 103.234 108.164 102.88 108.164 102.444V93.9233H119.399V102.444C119.396 102.88 119.042 103.234 118.606 103.234Z" fill="#263238"/>
<path d="M94.3906 85.1012C94.3906 85.1012 95.753 81.6926 94.8872 74.631C94.5076 71.5318 94.778 65.1618 90.5374 64.9538C86.0134 64.7328 84.1648 65.1826 79.6304 65.2346C63.2738 65.4192 51.2462 67.052 41.2726 66.09C33.2542 65.3178 26.3408 64.0464 23.4912 66.896C20.6416 69.7456 20.8886 75.8192 21.1356 76.9944C21.3826 78.1722 23.2416 86.227 23.2416 86.227L93.9538 85.9072L94.3906 85.1012Z" fill="#999999" stroke="#263238" stroke-width="0.26" stroke-miterlimit="10" stroke-linecap="round" stroke-linejoin="round"/>
<path d="M24.1737 83.065C24.1737 83.065 22.8113 77.6128 20.5805 76.1256C18.3497 74.6384 15.4377 76.2504 13.0223 78.6034C10.6069 80.959 9.92312 83.7462 10.9163 88.3924C11.9069 93.0386 14.8189 99.9156 15.6873 103.015C16.5557 106.114 16.5557 107.723 19.4677 108.714C22.3797 109.705 25.1669 109.767 26.9635 107.289C28.7601 104.811 28.2635 93.4104 26.8387 89.136C25.4139 84.8616 24.1737 83.065 24.1737 83.065Z" fill="#B2B2B2" stroke="#263238" stroke-width="0.26" stroke-miterlimit="10" stroke-linecap="round" stroke-linejoin="round"/>
<path d="M23.9253 107.104C22.6851 104.749 18.9697 87.9606 19.0295 85.6674C19.0919 83.3742 17.2329 79.534 14.9397 79.2246C13.0495 78.9698 11.5415 80.7768 11.0683 81.419C10.3299 83.2364 10.2831 85.4386 10.9123 88.3948C11.9029 93.041 11.7781 100.064 12.6465 103.16C13.5149 106.257 13.5149 107.869 16.4269 108.859C18.3431 109.512 23.2415 109.619 24.8041 109.005C24.5909 108.41 24.2737 107.765 23.9253 107.104Z" fill="#8A8A8A" stroke="#263238" stroke-width="0.26" stroke-miterlimit="10" stroke-linecap="round" stroke-linejoin="round"/>
<path d="M90.6615 82.9614C90.6615 82.9614 92.1019 77.5092 94.4575 76.022C96.8131 74.5348 99.8889 76.1468 102.442 78.4998C104.995 80.8554 105.713 83.6426 104.668 88.2888C103.622 92.935 100.544 99.812 99.6289 102.911C98.7137 106.008 98.7137 107.62 95.6379 108.61C92.5621 109.601 89.6163 109.663 87.7209 107.186C85.8229 104.708 86.3455 93.3068 87.8509 89.0324C89.3537 84.758 90.6615 82.9614 90.6615 82.9614Z" fill="#B2B2B2" stroke="#263238" stroke-width="0.26" stroke-miterlimit="10" stroke-linecap="round" stroke-linejoin="round"/>
<path d="M90.9249 107.344C92.2327 104.959 96.1613 87.9631 96.0937 85.6413C96.0287 83.3195 97.9917 79.4325 100.412 79.1179C102.409 78.8605 104.003 80.6883 104.502 81.3383C105.282 83.1791 105.332 85.4099 104.666 88.3999C103.618 93.1033 102.019 100.066 101.101 103.202C100.186 106.337 100.186 107.968 97.1103 108.971C95.0875 109.632 91.6451 109.884 89.9941 109.265C90.2203 108.664 90.5557 108.012 90.9249 107.344Z" fill="#8A8A8A" stroke="#263238" stroke-width="0.26" stroke-miterlimit="10" stroke-linecap="round" stroke-linejoin="round"/>
<path d="M96.1238 93.527C96.1238 93.527 94.5742 103.147 93.5836 106.368C92.593 109.59 92.9024 109.59 91.228 109.715C89.5562 109.839 26.0902 109.663 24.109 109.351C22.1252 109.041 21.0722 107.554 20.5158 105.448C19.9594 103.342 19.4004 93.7818 19.4004 93.7818L93.4588 93.5244H96.1238V93.527Z" fill="#999999" stroke="#263238" stroke-width="0.26" stroke-miterlimit="10" stroke-linecap="round" stroke-linejoin="round"/>
<path d="M19.4064 95.3056C19.4064 95.3056 19.7626 96.3768 21.073 96.6134C22.3808 96.8526 55.9286 97.2088 56.9998 97.2088C58.071 97.2088 85.4308 97.2088 89.8326 96.8526C94.2344 96.4964 96.4756 95.9114 96.1272 93.5272C95.7788 91.143 95.8984 93.0462 95.8984 93.0462L18.6914 93.9978L19.4064 95.3056Z" fill="#263238"/>
<path d="M24.3581 82.7558C24.3581 82.7558 19.5871 85.9772 18.2247 87.4644C16.8623 88.9516 17.6059 90.1294 17.7281 91.2448C17.8529 92.3602 18.4093 94.838 20.0213 95.7064C21.6333 96.5748 41.6455 96.203 53.2935 96.5748C64.9415 96.9466 89.9925 96.5046 93.0891 95.761C96.1857 95.0174 96.9241 91.1746 97.1087 89.0062C97.2933 86.8378 95.0703 83.8036 93.8327 83.4318C92.5951 83.06 82.2887 83.008 70.8279 83.255C59.3645 83.502 54.1125 84.5004 41.0397 84.2534C27.9643 84.0012 27.3325 82.1968 24.3581 82.7558Z" fill="#B2B2B2"/>
<path d="M17.7285 91.2422C17.8533 92.3576 18.4097 94.8354 20.0217 95.7038C21.6337 96.5722 41.6459 96.2004 53.2939 96.5722C64.9419 96.944 89.9929 96.502 93.0895 95.7584C96.1861 95.0148 98.0451 92.0404 98.2323 89.872C98.2583 89.5756 98.2167 89.248 98.1231 88.9022C97.6863 89.339 96.8439 88.8684 95.8507 88.7228C93.6433 88.4056 70.4149 89.8512 53.0287 89.8512C34.1527 89.8512 27.9985 89.8512 18.6593 88.0546C17.2683 87.7868 18.2225 87.4644 18.2225 87.4644C16.8601 88.9516 17.6037 90.1268 17.7285 91.2422Z" fill="#999999"/>
<path d="M24.3581 82.7558C24.3581 82.7558 19.5871 85.9772 18.2247 87.4644C16.8623 88.9516 17.6059 90.1294 17.7281 91.2448C17.8529 92.3602 18.4093 94.838 20.0213 95.7064C21.6333 96.5748 41.6455 96.203 53.2935 96.5748C64.9415 96.9466 89.9925 96.5046 93.0891 95.761C96.1857 95.0174 96.9241 91.1746 97.1087 89.0062C97.2933 86.8378 95.0703 83.8036 93.8327 83.4318C92.5951 83.06 82.2887 83.008 70.8279 83.255C59.3645 83.502 54.1125 84.5004 41.0397 84.2534C27.9643 84.0012 27.3325 82.1968 24.3581 82.7558Z" stroke="#263238" stroke-width="0.26" stroke-miterlimit="10" stroke-linecap="round" stroke-linejoin="round"/>
<path d="M58.0839 66.3369L57.9877 83.8921C57.9877 83.8921 57.2207 88.6891 57.3169 89.3599C57.4131 90.0307 57.4131 96.5541 57.4131 96.5541" stroke="#263238" stroke-width="0.26" stroke-miterlimit="10" stroke-linecap="round" stroke-linejoin="round"/>
<path d="M26.8693 74.4062C26.8693 74.4062 27.2853 74.3543 28.1693 73.3143C29.0533 72.2743 30.0387 71.4968 30.9747 71.5488C31.9107 71.6008 30.1947 72.2768 30.1947 72.2768C30.1947 72.2768 31.8041 71.8608 32.9481 72.4328C34.0921 73.0048 32.4801 73.5249 32.4801 73.5249C32.4801 73.5249 34.3495 74.0968 34.2455 74.8768C34.1415 75.6568 33.7775 75.4488 31.5441 75.4488C29.3107 75.4488 28.1667 76.0208 27.2333 75.7088C26.2973 75.3942 25.6733 75.2902 26.8693 74.4062Z" fill="#263238" stroke="#263238" stroke-width="0.26" stroke-miterlimit="10" stroke-linecap="round" stroke-linejoin="round"/>
<path d="M23.7586 64.3223C23.7586 64.3223 25.2666 65.1179 25.758 65.9135C26.2468 66.7091 25.758 67.4033 26.8942 67.5359C27.5286 67.6087 28.3632 67.5983 28.3632 68.2093C28.3632 68.8229 28.3008 69.0673 28.3008 69.0673C28.3008 69.0673 28.852 71.2721 28.7896 71.7609C28.7272 72.2497 26.6472 72.8633 26.6472 72.8633C26.6472 72.8633 26.525 73.6589 26.954 74.2101C27.383 74.7613 29.4032 76.4149 29.71 76.6593C30.0168 76.9037 23.769 77.6395 23.769 77.6395C23.769 77.6395 22.3598 74.6989 20.4618 73.6589C18.5638 72.6189 17.6434 72.6787 17.5836 71.6387C17.5212 70.5987 19.2996 66.8001 20.9532 65.5755C22.6068 64.3509 23.7586 64.3223 23.7586 64.3223Z" fill="white" stroke="#263238" stroke-width="0.26" stroke-miterlimit="10" stroke-linecap="round" stroke-linejoin="round"/>
<path d="M25.911 68.1602C25.8044 68.2148 25.7082 68.2564 25.625 68.2876C25.6302 68.3058 25.6354 68.3214 25.6406 68.3396C25.7264 68.5502 25.8616 68.6932 25.9448 68.6594C26.0254 68.6256 26.0228 68.428 25.937 68.2174C25.9318 68.1992 25.9214 68.181 25.911 68.1602Z" fill="#263238"/>
<path d="M25.4043 68.7011C25.4043 68.7011 25.7995 68.7479 26.1947 68.5503L25.4043 68.7011Z" fill="white"/>
<path d="M25.4043 68.7011C25.4043 68.7011 25.7995 68.7479 26.1947 68.5503" stroke="#263238" stroke-width="0.13" stroke-miterlimit="10" stroke-linecap="round" stroke-linejoin="round"/>
<path d="M26.6489 72.8657C26.6489 72.8657 25.2475 73.1985 24.0957 73.0295C24.0957 73.0295 25.8975 74.1371 26.7061 74.0539L26.6489 72.8657Z" fill="#263238" stroke="#263238" stroke-width="0.26" stroke-miterlimit="10" stroke-linecap="round" stroke-linejoin="round"/>
<path d="M25.5706 67.5308L25.9138 68.0898C25.9138 68.0898 25.4016 68.5032 24.9336 68.5786" fill="white"/>
<path d="M25.5706 67.5308L25.9138 68.0898C25.9138 68.0898 25.4016 68.5032 24.9336 68.5786" stroke="#263238" stroke-width="0.26" stroke-miterlimit="10" stroke-linecap="round" stroke-linejoin="round"/>
<path d="M26.332 70.1831C26.332 70.1831 26.5686 70.6901 27.5514 70.3183L26.332 70.1831Z" fill="white"/>
<path d="M26.332 70.1831C26.332 70.1831 26.5686 70.6901 27.5514 70.3183" stroke="#263238" stroke-width="0.26" stroke-miterlimit="10" stroke-linecap="round" stroke-linejoin="round"/>
<path d="M25.1121 66.5924C25.1121 66.5924 24.3659 66.4572 23.9941 67.3386L25.1121 66.5924Z" fill="white"/>
<path d="M25.1121 66.5924C25.1121 66.5924 24.3659 66.4572 23.9941 67.3386" stroke="#263238" stroke-width="0.26" stroke-miterlimit="10" stroke-linecap="round" stroke-linejoin="round"/>
<path d="M24.5362 63.8153C24.5362 63.8153 24.0292 66.7611 23.4858 68.5577C22.945 70.3517 22.3002 71.4359 22.1312 72.1145C21.9622 72.7931 22.8098 74.4857 22.5368 75.1981C22.2664 75.9105 22.0298 74.8601 20.4698 73.9787C18.9124 73.0973 17.6254 72.2523 16.8792 71.7427C13.6214 69.5197 19.1672 63.5475 21.6554 63.2745C24.128 63.0015 24.6714 63.0691 24.5362 63.8153Z" fill="#263238"/>
<path d="M24.6834 63.207C24.6834 63.207 22.983 71.1396 17.6426 73.0818" stroke="#666666" stroke-width="0.26" stroke-miterlimit="10" stroke-linecap="round" stroke-linejoin="round"/>
<path d="M23.5517 62.8018C23.5517 62.8018 21.2039 69.9258 16.4277 71.6236" stroke="#666666" stroke-width="0.26" stroke-miterlimit="10" stroke-linecap="round" stroke-linejoin="round"/>
<path d="M19.0167 64.0161C19.0167 64.0161 18.8555 69.1953 16.0215 71.3013" stroke="#666666" stroke-width="0.26" stroke-miterlimit="10" stroke-linecap="round" stroke-linejoin="round"/>
<path d="M24.5362 63.8153C24.5362 63.8153 24.0292 66.7611 23.4858 68.5577C22.945 70.3517 22.3002 71.4359 22.1312 72.1145C21.9622 72.7931 22.8098 74.4857 22.5368 75.1981C22.2664 75.9105 22.0298 74.8601 20.4698 73.9787C18.9124 73.0973 17.6254 72.2523 16.8792 71.7427C13.6214 69.5197 19.1672 63.5475 21.6554 63.2745C24.128 63.0015 24.6714 63.0691 24.5362 63.8153Z" stroke="#263238" stroke-width="0.26" stroke-miterlimit="10" stroke-linecap="round" stroke-linejoin="round"/>
<path d="M23.0122 71.3014C23.0122 71.3014 21.8604 70.2848 21.148 70.589C20.4356 70.8932 21.0128 72.1802 21.4522 72.2816C21.8916 72.383 22.3674 72.4844 22.8744 72.2478" fill="white"/>
<path d="M23.0122 71.3014C23.0122 71.3014 21.8604 70.2848 21.148 70.589C20.4356 70.8932 21.0128 72.1802 21.4522 72.2816C21.8916 72.383 22.3674 72.4844 22.8744 72.2478" stroke="#263238" stroke-width="0.26" stroke-miterlimit="10" stroke-linecap="round" stroke-linejoin="round"/>
<path opacity="0.3" d="M15.0321 77.8715C15.0321 77.8715 18.3315 79.4288 18.9815 81.1188C19.6315 82.8088 19.7615 84.6288 20.9315 85.2788C22.1015 85.9288 24.1815 87.0988 26.6515 87.6188C29.1215 88.1388 31.0715 88.0089 31.0715 88.0089C31.0715 88.0089 35.6215 88.2688 39.0015 88.2688C42.3815 88.2688 47.5815 87.2288 47.5815 87.2288C47.5815 87.2288 51.3515 87.6188 53.6915 82.9388C56.0315 78.2588 64.7415 71.7588 65.3915 66.8188C65.3915 66.8188 54.8615 71.8888 53.3015 74.0988C51.7415 76.3088 41.2115 82.0288 35.7515 82.0288C30.2915 82.0288 23.9215 77.8688 20.4115 75.5288C16.9015 73.1888 14.8553 75.5367 15.0321 77.8715Z" fill="black"/>
<path d="M26.8217 82.4968C26.8217 82.4968 24.6871 78.2276 23.1115 75.8928C21.5359 73.5554 20.1137 72.4374 18.3873 71.5222C16.6609 70.607 15.6937 70.3028 14.8305 69.8972C13.9673 69.4916 13.7125 69.6944 13.6111 71.4728C13.5097 73.2512 13.1041 76.3504 15.0333 77.874C16.9651 79.3976 17.8283 79.3482 18.9957 79.9072C20.1631 80.4662 20.7741 81.9898 21.7387 83.971C22.7033 85.9522 25.7011 85.9522 26.8711 85.8508C28.0411 85.7468 27.5341 83.6642 26.8217 82.4968Z" fill="white" stroke="#263238" stroke-width="0.26" stroke-miterlimit="10" stroke-linecap="round" stroke-linejoin="round"/>
<path d="M46.9924 76.3134C46.9924 76.3134 49.4988 68.7266 50.4478 67.9804C51.3968 67.2342 60.0678 64.7278 63.388 63.9842C66.7082 63.238 71.0424 59.988 71.5182 59.5122C71.9914 59.039 73.0756 58.4956 72.7376 59.8502C72.3996 61.2048 72.059 61.8834 71.383 62.6946C70.7044 63.5084 71.1126 64.1844 70.7044 64.9306C70.2988 65.6768 69.5526 65.6768 68.4008 64.9982C67.249 64.3196 66.7758 64.3196 65.4212 65.3362C64.0666 66.3528 61.5602 68.7916 58.851 69.6054C56.1418 70.4192 55.2604 70.5544 55.2604 70.5544C55.2604 70.5544 54.041 76.3134 52.416 78.8198C50.791 81.3262 50.18 82.478 47.5384 82.0048C44.8968 81.5316 46.0486 77.4652 46.1838 77.0596C46.3164 76.6514 46.9924 76.3134 46.9924 76.3134Z" fill="#263238" stroke="#263238" stroke-width="0.26" stroke-miterlimit="10" stroke-linecap="round" stroke-linejoin="round"/>
<path d="M70.7036 64.9335C71.1092 64.1873 70.7036 63.5113 71.3822 62.6975C72.0608 61.8837 72.3988 61.2077 72.7368 59.8531C73.0748 58.4985 71.9906 59.0393 71.5174 59.5151C71.1326 59.8999 68.1972 62.1177 65.332 63.3371C65.6492 63.7791 65.969 64.3095 66.1536 64.8451C66.996 64.3563 67.4848 64.4629 68.4026 65.0037C69.5518 65.6771 70.298 65.6771 70.7036 64.9335Z" fill="white" stroke="#263238" stroke-width="0.26" stroke-miterlimit="10" stroke-linecap="round" stroke-linejoin="round"/>
<path d="M71.5172 59.5122C71.4756 59.5538 71.4028 59.6162 71.3066 59.6968C71.5562 59.9854 71.9644 60.313 72.5806 60.4196C72.6326 60.2428 72.6846 60.0556 72.7366 59.8502C73.0746 58.4956 71.9904 59.039 71.5172 59.5122Z" fill="#A8A8A8" stroke="#263238" stroke-width="0.26" stroke-miterlimit="10" stroke-linecap="round" stroke-linejoin="round"/>
<path d="M41.8438 86.4069C41.8438 86.4069 48.9574 87.6939 51.599 86.7449C54.2406 85.7959 55.3247 82.8839 56.0709 80.7831C56.8172 78.6823 56.9524 74.7537 57.358 73.6019C57.7636 72.4501 57.8988 72.1121 57.8988 72.1121C57.8988 72.1121 61.0161 70.6899 62.844 69.7409C64.6744 68.7919 66.1642 65.1337 67.2484 64.3225C68.3326 63.5087 68.4677 64.5929 69.0787 63.9845C69.6897 63.3735 70.7714 60.9347 70.9768 59.3773C71.1796 57.8199 70.2305 56.9385 69.8249 56.9385C69.4193 56.9385 69.487 57.7523 68.8084 58.7689C68.1298 59.7855 67.1158 61.8187 66.0992 62.4947C65.0826 63.1707 60.2726 65.9501 58.4448 66.9667C56.6144 67.9833 54.2458 68.5241 53.0264 70.6249C51.807 72.7257 49.7738 77.1275 49.5034 77.6033C49.233 78.0765 48.8248 78.6199 48.8248 78.6199C48.8248 78.6199 48.0109 78.9579 46.5887 79.3661C45.1665 79.7717 43.4714 79.5689 42.6602 80.3827C41.8438 81.1913 41.8438 86.4069 41.8438 86.4069Z" fill="#263238" stroke="#263238" stroke-width="0.26" stroke-miterlimit="10" stroke-linecap="round" stroke-linejoin="round"/>
<path d="M49.9922 76.6966C49.9922 76.6966 53.4892 69.4244 54.0482 69.2866C54.6072 69.1462 62.0198 65.0928 62.0198 65.0928" stroke="white" stroke-width="0.26" stroke-miterlimit="10" stroke-linecap="round" stroke-linejoin="round"/>
<path d="M46.6523 80.7183C46.6523 80.7183 47.6013 82.6163 47.8041 83.7681" stroke="white" stroke-width="0.26" stroke-miterlimit="10" stroke-linecap="round" stroke-linejoin="round"/>
<path d="M47.1953 80.9209C47.1953 80.9209 47.8739 81.1237 48.4823 82.6811" stroke="white" stroke-width="0.26" stroke-miterlimit="10" stroke-linecap="round" stroke-linejoin="round"/>
<path d="M48.6875 83.1567C48.6875 83.1567 48.8227 83.6975 48.9579 84.0381" stroke="white" stroke-width="0.26" stroke-miterlimit="10" stroke-linecap="round" stroke-linejoin="round"/>
<path d="M69.8231 56.9385C69.4175 56.9385 69.4851 57.7523 68.8065 58.7689C68.1279 59.7855 67.1139 61.8187 66.0973 62.4947C65.8919 62.6299 65.5331 62.8535 65.0781 63.1265C65.5955 63.3501 66.1259 63.9221 66.4951 65.1857C66.7655 64.8035 67.0151 64.4967 67.2491 64.3225C68.3333 63.5087 68.4685 64.5929 69.0795 63.9845C69.6905 63.3735 70.7721 60.9347 70.9775 59.3773C71.1777 57.8199 70.2287 56.9385 69.8231 56.9385Z" fill="white" stroke="#263238" stroke-width="0.26" stroke-miterlimit="10" stroke-linecap="round" stroke-linejoin="round"/>
<path d="M69.8218 56.9385C69.4942 56.9385 69.4734 57.4663 69.125 58.2021C69.5488 58.3633 70.321 58.7013 70.9866 59.2213C71.1088 57.7627 70.2144 56.9385 69.8218 56.9385Z" fill="#A8A8A8" stroke="#263238" stroke-width="0.26" stroke-miterlimit="10" stroke-linecap="round" stroke-linejoin="round"/>
<path d="M37.5878 74.5537C37.5878 74.5537 36.7506 74.9905 36.3866 75.4273C36.0226 75.8641 35.0762 77.5723 35.0762 77.5723L36.5322 79.0985L37.5878 75.4247L38.1338 75.0243L37.5878 74.5537Z" fill="#0085E5" stroke="#263238" stroke-width="0.26" stroke-miterlimit="10" stroke-linecap="round" stroke-linejoin="round"/>
<path d="M24.3833 75.9425C24.3833 75.9425 27.9895 75.2301 30.2255 75.1807C32.4615 75.1287 33.1713 74.8245 33.9357 75.5369C34.6975 76.2493 36.7307 78.4333 37.0869 78.7895C37.4431 79.1457 43.8443 78.4333 43.8443 78.4333C43.8443 78.4333 44.4553 79.9569 44.0471 82.4971C43.6415 85.0373 42.0659 86.4595 42.0659 86.4595C42.0659 86.4595 37.7941 87.0835 34.9523 86.8651C29.5131 86.4491 27.5059 84.4861 26.1331 82.8091C24.7603 81.1321 23.6735 77.5155 23.6215 76.8551C23.5695 76.1947 24.3833 75.9425 24.3833 75.9425Z" fill="#0085E5" stroke="#263238" stroke-width="0.26" stroke-miterlimit="10" stroke-linecap="round" stroke-linejoin="round"/>
<path d="M37.9826 75.7032C37.9826 75.7032 35.341 76.0412 35.0706 76.7874C34.8002 77.5336 36.1548 82.7492 36.5604 83.0196C36.966 83.29 37.9826 82.614 37.9826 82.614C37.9826 82.614 40.3538 82.952 43.8092 82.7492C47.2646 82.5464 48.4164 80.9188 48.822 80.8512C49.2276 80.7836 50.3118 80.5132 50.2442 80.1726C50.1766 79.8346 49.16 76.582 47.6702 75.4302C46.1804 74.2784 43.8768 74.008 41.776 74.684C39.6752 75.3652 37.9826 75.7032 37.9826 75.7032Z" fill="white" stroke="#263238" stroke-width="0.26" stroke-miterlimit="10" stroke-linecap="round" stroke-linejoin="round"/>
<path d="M36.9336 75.6349L37.4952 78.2479L45.6722 77.2105L44.0472 74.8237L36.9336 75.6349Z" fill="white" stroke="#263238" stroke-width="0.26" stroke-miterlimit="10" stroke-linecap="round" stroke-linejoin="round"/>
<path d="M41.4707 75.7953L41.6163 76.1645L42.1233 76.0943L41.9855 75.7251L41.4707 75.7953Z" fill="#263238"/>
<path d="M42.1678 76.2192L41.666 76.2894L41.8428 76.7392L42.3368 76.669L42.1678 76.2192Z" fill="#263238"/>
<path d="M39.1105 77.1185L39.5265 77.0613L39.3809 76.6089L38.9727 76.6661L39.1105 77.1185Z" fill="#263238"/>
<path d="M42.1191 75.7073L42.2543 76.0764L42.7561 76.0062L42.6209 75.6396L42.1191 75.7073Z" fill="#263238"/>
<path d="M39.3438 76.0839L39.4685 76.4661L40.0535 76.3829L39.921 76.0059L39.3438 76.0839Z" fill="#263238"/>
<path d="M40.7695 75.892L40.9177 76.2638L41.4845 76.1832L41.3389 75.814L40.7695 75.892Z" fill="#263238"/>
<path d="M40.0547 75.9878L40.1847 76.3648L40.7853 76.2816L40.6371 75.9072L40.0547 75.9878Z" fill="#263238"/>
<path d="M41.7104 76.7574L41.5336 76.3076L40.9668 76.3882L41.1436 76.8354L41.7104 76.7574Z" fill="#263238"/>
<path d="M42.5137 76.7758L42.5969 76.9994L43.0961 76.937L43.0103 76.7056L42.5137 76.7758Z" fill="#263238"/>
<path d="M43.4126 76.0449L42.9316 76.1125L43.0954 76.5623L43.5998 76.4921L43.4126 76.0449Z" fill="#263238"/>
<path d="M42.3008 76.2011L42.4672 76.6509L42.9664 76.5807L42.8 76.1309L42.3008 76.2011Z" fill="#263238"/>
<path d="M43.8905 76.8403L44.5301 76.7623L44.3949 76.5127L43.7891 76.5985L43.8905 76.8403Z" fill="#263238"/>
<path d="M39.7012 77.1677L39.7584 77.3445L40.3642 77.2691L40.2992 77.0845L39.7012 77.1677Z" fill="#263238"/>
<path d="M40.0993 76.5107L39.5117 76.5913L39.6599 77.0437L40.2553 76.9605L40.0993 76.5107Z" fill="#263238"/>
<path d="M40.8343 76.4062L40.2285 76.4895L40.3871 76.9418L41.0111 76.8535L40.8343 76.4062Z" fill="#263238"/>
<path d="M41.1934 76.9603L41.2714 77.1605L41.8408 77.0903L41.7602 76.8823L41.1934 76.9603Z" fill="#263238"/>
<path d="M42.7089 75.4961L43.1561 75.4337L43.0937 75.2881L42.6543 75.3505L42.7089 75.4961Z" fill="#263238"/>
<path d="M40.0103 75.8626L40.5875 75.7846L40.5381 75.6572L39.9688 75.7404L40.0103 75.8626Z" fill="#263238"/>
<path d="M41.4218 75.6704L41.9392 75.6002L41.8872 75.4624L41.3672 75.5378L41.4218 75.6704Z" fill="#263238"/>
<path d="M40.7213 75.7668L41.2907 75.6888L41.2387 75.5562L40.6719 75.6394L40.7213 75.7668Z" fill="#263238"/>
<path d="M39.304 75.959L39.8786 75.881L39.837 75.7588L39.2676 75.842L39.304 75.959Z" fill="#263238"/>
<path d="M39.1731 75.9769L39.1341 75.8599L38.7441 75.9171L38.7779 76.0289L39.1731 75.9769Z" fill="#263238"/>
<path d="M39.6268 77.3607L39.5696 77.1865L39.1484 77.2463L39.2004 77.4127L39.6268 77.3607Z" fill="#263238"/>
<path d="M43.289 75.4184L43.7648 75.3534L43.6842 75.2026L43.2266 75.2676L43.289 75.4184Z" fill="#263238"/>
<path d="M38.9334 76.5415L39.339 76.4843L39.2142 76.1021L38.8164 76.1567L38.9334 76.5415Z" fill="#263238"/>
<path d="M43.6522 76.6177L43.1426 76.6879L43.2258 76.9219L43.7536 76.8569L43.6522 76.6177Z" fill="#263238"/>
<path d="M42.0715 75.5827L42.5759 75.5151L42.5239 75.3721L42.0195 75.4449L42.0715 75.5827Z" fill="#263238"/>
<path d="M41.0615 76.978L40.4297 77.0664L40.4973 77.2536L41.1395 77.1756L41.0615 76.978Z" fill="#263238"/>
<path d="M42.384 76.7939L41.8926 76.8615L41.9758 77.0747L42.4646 77.0149L42.384 76.7939Z" fill="#263238"/>
<path d="M42.7539 75.6215L42.8865 75.9855L43.3597 75.9205L43.2089 75.5591L42.7539 75.6215Z" fill="#263238"/>
<path d="M44.0883 75.9487L43.5449 76.0241L43.7321 76.4739L44.3275 76.3907L44.0883 75.9487Z" fill="#263238"/>
<path d="M43.4952 75.9015L44.023 75.8261L43.8332 75.4751L43.3418 75.5401L43.4952 75.9015Z" fill="#263238"/>
<path d="M45.6719 77.2106L46.1295 69.6914L44.3511 68.6748L44.0469 74.8238L45.6719 77.2106Z" fill="white" stroke="#263238" stroke-width="0.26" stroke-miterlimit="10" stroke-linecap="round" stroke-linejoin="round"/>
<path d="M44.635 69.3999L44.3984 74.7481L45.3084 76.0481L45.6334 70.0681L44.635 69.3999Z" fill="#0085E5" stroke="#263238" stroke-width="0.13" stroke-miterlimit="10" stroke-linecap="round" stroke-linejoin="round"/>
<path d="M41.0059 73.6782C41.0059 73.6782 41.2945 73.5508 41.6455 73.8368C41.9965 74.1228 42.7661 74.7546 42.6699 74.9132C42.5737 75.0718 42.4463 75.0718 42.2539 74.882C42.0641 74.6896 41.0059 73.6782 41.0059 73.6782Z" fill="white" stroke="#263238" stroke-width="0.26" stroke-miterlimit="10" stroke-linecap="round" stroke-linejoin="round"/>
<path d="M40.2051 73.6801C40.2051 73.6801 40.7875 73.4617 41.0059 73.6801C41.2243 73.8985 42.6413 75.0269 42.5321 75.2427C42.4229 75.4611 42.2409 75.2791 42.0225 75.2791C41.8067 75.2817 40.2051 73.6801 40.2051 73.6801Z" fill="white" stroke="#263238" stroke-width="0.26" stroke-miterlimit="10" stroke-linecap="round" stroke-linejoin="round"/>
<path d="M37.2969 75.2456C37.2969 75.2456 36.8965 74.9544 37.7337 74.4448C38.5709 73.9352 39.5875 73.4984 39.9515 73.5348C40.3155 73.5712 42.0237 75.2794 42.0237 75.2794C42.0237 75.2794 42.0965 75.4978 41.8781 75.5706C41.6597 75.6434 40.2791 74.6242 40.0243 74.6242C39.7695 74.6242 38.9323 75.1338 38.6775 75.2066C38.4253 75.282 37.8429 75.7188 37.2969 75.2456Z" fill="white" stroke="#263238" stroke-width="0.26" stroke-miterlimit="10" stroke-linecap="round" stroke-linejoin="round"/>
<path d="M38.7528 74.6997C38.7528 74.6997 40.6794 75.4277 40.7886 75.4277C40.8978 75.4277 40.7522 75.7189 40.4246 75.7553C40.097 75.7917 39.2962 75.3549 39.005 75.5005C38.7138 75.6461 38.1262 75.5993 37.692 75.5863C37.2578 75.5733 37.2578 75.0637 37.2578 75.0637" fill="white"/>
<path d="M38.7528 74.6997C38.7528 74.6997 40.6794 75.4277 40.7886 75.4277C40.8978 75.4277 40.7522 75.7189 40.4246 75.7553C40.097 75.7917 39.2962 75.3549 39.005 75.5005C38.7138 75.6461 38.1262 75.5993 37.692 75.5863C37.2578 75.5733 37.2578 75.0637 37.2578 75.0637" stroke="#263238" stroke-width="0.26" stroke-miterlimit="10" stroke-linecap="round" stroke-linejoin="round"/>
<path d="M27.0776 76.1445C27.0776 76.1445 25.4006 74.9771 23.7236 75.4841C22.0466 75.9911 22.4522 78.2791 23.6716 80.6659C24.891 83.0527 29.8206 87.7275 30.6318 88.2371C31.4456 88.7441 32.2074 88.2371 32.8158 87.2725C33.4242 86.3079 34.797 80.5645 35.2026 79.6519C35.6082 78.7367 35.8136 78.1777 35.8136 78.1777C35.8136 78.1777 36.6274 77.9749 37.085 77.6187C37.5426 77.2625 38.2524 76.7035 38.2524 76.7035C38.2524 76.7035 40.0828 75.9417 40.2336 75.8403C40.387 75.7389 40.1816 75.5855 39.9788 75.5855C39.776 75.5855 38.7074 75.5855 37.6934 75.5855C36.6794 75.5855 35.356 76.7035 34.8984 77.2105C34.4408 77.7175 31.2402 83.6117 31.2402 83.6117L27.1244 77.9723" fill="#0085E5"/>
<path d="M27.0776 76.1445C27.0776 76.1445 25.4006 74.9771 23.7236 75.4841C22.0466 75.9911 22.4522 78.2791 23.6716 80.6659C24.891 83.0527 29.8206 87.7275 30.6318 88.2371C31.4456 88.7441 32.2074 88.2371 32.8158 87.2725C33.4242 86.3079 34.797 80.5645 35.2026 79.6519C35.6082 78.7367 35.8136 78.1777 35.8136 78.1777C35.8136 78.1777 36.6274 77.9749 37.085 77.6187C37.5426 77.2625 38.2524 76.7035 38.2524 76.7035C38.2524 76.7035 40.0828 75.9417 40.2336 75.8403C40.387 75.7389 40.1816 75.5855 39.9788 75.5855C39.776 75.5855 38.7074 75.5855 37.6934 75.5855C36.6794 75.5855 35.356 76.7035 34.8984 77.2105C34.4408 77.7175 31.2402 83.6117 31.2402 83.6117L27.1244 77.9723" stroke="#263238" stroke-width="0.26" stroke-miterlimit="10" stroke-linecap="round" stroke-linejoin="round"/>
<path d="M38.2563 76.703C38.2563 76.703 40.0867 75.9412 40.2375 75.8398C40.3909 75.7384 40.1855 75.585 39.9827 75.585C39.7799 75.585 38.7113 75.585 37.6973 75.585C36.6833 75.585 35.3599 76.703 34.9023 77.21C34.7437 77.3868 34.2497 78.2188 33.6777 79.225L35.1623 79.7606C35.1779 79.719 35.1935 79.68 35.2065 79.6488C35.6121 78.7336 35.8175 78.1746 35.8175 78.1746C35.8175 78.1746 36.6313 77.9718 37.0889 77.6156C37.5465 77.262 38.2563 76.703 38.2563 76.703Z" fill="white" stroke="#263238" stroke-width="0.26" stroke-miterlimit="10" stroke-linecap="round" stroke-linejoin="round"/>
<path d="M90.8801 42.1977H11.9259C11.2785 42.1977 10.7559 41.6751 10.7559 41.0277V32.9859C10.7559 32.3385 11.2785 31.8159 11.9259 31.8159H90.8801C91.5275 31.8159 92.0501 32.3385 92.0501 32.9859V41.0277C92.0501 41.6725 91.5249 42.1977 90.8801 42.1977Z" fill="white" stroke="#263238" stroke-width="0.26" stroke-miterlimit="10" stroke-linecap="round" stroke-linejoin="round"/>
<path d="M90.8792 42.1977H80.4922V31.8159H90.8792C91.5266 31.8159 92.0492 32.3385 92.0492 32.9859V41.0277C92.0492 41.6725 91.524 42.1977 90.8792 42.1977Z" fill="#263238" stroke="#263238" stroke-width="0.26" stroke-miterlimit="10" stroke-linecap="round" stroke-linejoin="round"/>
<path d="M17.2551 38.8985C17.2551 39.0805 17.2135 39.2183 17.1303 39.3145C17.0471 39.4107 16.9275 39.4601 16.7715 39.4601C16.6233 39.4601 16.5063 39.4107 16.4231 39.3145C16.3399 39.2183 16.2983 39.0805 16.2983 38.8985V37.2761C16.2983 37.0499 16.2411 36.8783 16.1267 36.7587C16.0123 36.6391 15.8667 36.5767 15.6873 36.5767C15.4715 36.5767 15.2843 36.6599 15.1283 36.8263C14.9723 36.9927 14.8943 37.2085 14.8943 37.4763V38.8985C14.8943 39.0805 14.8527 39.2183 14.7695 39.3145C14.6863 39.4107 14.5667 39.4601 14.4107 39.4601C14.2625 39.4601 14.1455 39.4107 14.0623 39.3145C13.9791 39.2183 13.9375 39.0805 13.9375 38.8985V35.0375C13.9375 34.8581 13.9791 34.7203 14.0597 34.6241C14.1403 34.5279 14.2573 34.4785 14.4055 34.4785C14.5615 34.4785 14.6811 34.5279 14.7669 34.6241C14.8527 34.7203 14.8943 34.8581 14.8943 35.0375V36.4883C15.0035 36.3141 15.1491 36.1789 15.3389 36.0853C15.5261 35.9917 15.7497 35.9449 16.0097 35.9449C16.1813 35.9449 16.3425 35.9709 16.4881 36.0229C16.6337 36.0749 16.7663 36.1503 16.8833 36.2543C17.0003 36.3557 17.0913 36.4935 17.1589 36.6651C17.2265 36.8367 17.2577 37.0317 17.2577 37.2527L17.2551 38.8985Z" fill="#263238"/>
<path d="M18.645 39.1992C18.463 39.0042 18.372 38.713 18.372 38.3204V36.646H18.086C17.8598 36.646 17.748 36.5368 17.748 36.3158C17.748 36.2222 17.774 36.1468 17.8286 36.0922C17.8832 36.0376 17.9638 36.009 18.0756 36.009H18.4084L18.502 35.2134C18.5384 34.8832 18.6944 34.7168 18.9674 34.7168C19.2118 34.7168 19.3314 34.8832 19.3314 35.216V36.009H19.8306C20.0464 36.009 20.153 36.1182 20.153 36.3314C20.153 36.5394 20.0412 36.646 19.8202 36.646H19.3314V38.0968C19.3314 38.3412 19.36 38.5154 19.4198 38.6246C19.4796 38.7338 19.581 38.7884 19.7318 38.7884C19.7448 38.7884 19.7604 38.7884 19.7734 38.7884L19.9996 38.778C20.0074 38.778 20.0126 38.778 20.0204 38.778C20.1114 38.778 20.1842 38.8118 20.2362 38.8768C20.2882 38.9444 20.3142 39.0224 20.3142 39.1108C20.3142 39.1628 20.3064 39.2096 20.2882 39.2512C20.27 39.2902 20.2492 39.324 20.2232 39.35C20.1972 39.376 20.1634 39.3994 20.1166 39.4176C20.0698 39.4358 20.0282 39.4514 19.9866 39.4618C19.9476 39.4722 19.893 39.48 19.8254 39.4852C19.7578 39.4904 19.7032 39.493 19.6538 39.493C19.6044 39.493 19.5446 39.4956 19.4666 39.4956C19.4588 39.4956 19.451 39.4956 19.4432 39.4956C19.4328 39.4956 19.425 39.4956 19.4172 39.4956C19.4094 39.4956 19.4016 39.4956 19.3938 39.4956C19.0792 39.4904 18.827 39.3942 18.645 39.1992Z" fill="#263238"/>
<path d="M21.4126 39.1992C21.2306 39.0042 21.1396 38.713 21.1396 38.3204V36.646H20.8536C20.6274 36.646 20.5156 36.5368 20.5156 36.3158C20.5156 36.2222 20.5416 36.1468 20.5962 36.0922C20.6508 36.0376 20.7314 36.009 20.8432 36.009H21.176L21.2696 35.2134C21.306 34.8832 21.462 34.7168 21.735 34.7168C21.9794 34.7168 22.099 34.8832 22.099 35.216V36.009H22.5982C22.814 36.009 22.9206 36.1182 22.9206 36.3314C22.9206 36.5394 22.8088 36.646 22.5878 36.646H22.099V38.0968C22.099 38.3412 22.1276 38.5154 22.1874 38.6246C22.2472 38.7338 22.3486 38.7884 22.4994 38.7884C22.5124 38.7884 22.528 38.7884 22.541 38.7884L22.7672 38.778C22.775 38.778 22.7802 38.778 22.788 38.778C22.879 38.778 22.9518 38.8118 23.0038 38.8768C23.0558 38.9444 23.0818 39.0224 23.0818 39.1108C23.0818 39.1628 23.074 39.2096 23.0558 39.2512C23.0376 39.2902 23.0168 39.324 22.9908 39.35C22.9648 39.376 22.931 39.3994 22.8842 39.4176C22.8374 39.4358 22.7958 39.4514 22.7542 39.4618C22.7126 39.4722 22.6606 39.48 22.593 39.4852C22.5254 39.4904 22.4708 39.493 22.4214 39.493C22.372 39.493 22.3122 39.4956 22.2342 39.4956C22.2264 39.4956 22.2186 39.4956 22.2108 39.4956C22.2004 39.4956 22.1926 39.4956 22.1848 39.4956C22.177 39.4956 22.1692 39.4956 22.1614 39.4956C21.8442 39.4904 21.592 39.3942 21.4126 39.1992Z" fill="#263238"/>
<path d="M23.7661 40.6086C23.6855 40.5124 23.6465 40.3746 23.6465 40.1926V36.5864C23.6465 36.4044 23.6907 36.2614 23.7765 36.1574C23.8649 36.0534 23.9819 36.0014 24.1301 36.0014C24.2757 36.0014 24.3927 36.043 24.4733 36.1236C24.5565 36.2042 24.5981 36.3186 24.5981 36.4668V36.563C24.8139 36.1522 25.1935 35.9468 25.7369 35.9468C26.1867 35.9468 26.5481 36.1106 26.8211 36.4408C27.0941 36.771 27.2319 37.2052 27.2319 37.7434C27.2319 38.2946 27.0889 38.7236 26.8055 39.0356C26.5221 39.345 26.1503 39.501 25.6927 39.501C25.1727 39.501 24.8113 39.3138 24.6007 38.9368V40.1926C24.6007 40.3746 24.5591 40.5124 24.4733 40.6086C24.3875 40.7048 24.2679 40.7516 24.1093 40.7516C23.9637 40.7516 23.8467 40.7022 23.7661 40.6086ZM25.8513 38.7782C25.9605 38.7158 26.0489 38.6326 26.1139 38.5234C26.1789 38.4168 26.2257 38.2946 26.2569 38.162C26.2881 38.0294 26.3037 37.8838 26.3037 37.7278C26.3037 37.59 26.2907 37.4574 26.2621 37.33C26.2335 37.2026 26.1919 37.0804 26.1321 36.9634C26.0723 36.8464 25.9865 36.7528 25.8747 36.6826C25.7629 36.6124 25.6303 36.5786 25.4821 36.5786C25.1701 36.5786 24.9465 36.6774 24.8113 36.8724C24.6761 37.0674 24.6111 37.3534 24.6111 37.733C24.6111 38.0788 24.6839 38.357 24.8295 38.5624C24.9751 38.7678 25.1883 38.8718 25.4717 38.8718C25.6121 38.8692 25.7395 38.8406 25.8513 38.7782Z" fill="#263238"/>
<path d="M27.8587 38.9933C27.8379 38.9517 27.8249 38.9049 27.8249 38.8581C27.8249 38.8191 27.8327 38.7801 27.8483 38.7437C27.8639 38.7073 27.8821 38.6735 27.9081 38.6449C27.9341 38.6163 27.9653 38.5903 28.0043 38.5747C28.0433 38.5565 28.0823 38.5487 28.1239 38.5487C28.1863 38.5487 28.2487 38.5669 28.3111 38.6007C28.3163 38.6033 28.3371 38.6163 28.3761 38.6371C28.4151 38.6579 28.4411 38.6735 28.4541 38.6813C28.4671 38.6891 28.4957 38.7021 28.5347 38.7203C28.5737 38.7385 28.6075 38.7541 28.6309 38.7645C28.6543 38.7749 28.6881 38.7853 28.7297 38.8035C28.7713 38.8191 28.8103 38.8321 28.8441 38.8399C28.8805 38.8477 28.9195 38.8555 28.9637 38.8659C29.0079 38.8763 29.0547 38.8815 29.1041 38.8841C29.1535 38.8867 29.2003 38.8893 29.2497 38.8893C29.3381 38.8893 29.4187 38.8841 29.4967 38.8711C29.5747 38.8581 29.6475 38.8373 29.7151 38.8061C29.7827 38.7775 29.8373 38.7333 29.8789 38.6761C29.9179 38.6189 29.9387 38.5539 29.9387 38.4785C29.9387 38.3953 29.9023 38.3225 29.8269 38.2575C29.7515 38.1925 29.6397 38.1405 29.4915 38.1015L28.9793 37.9663C28.8571 37.9325 28.7583 37.9039 28.6777 37.8779C28.5997 37.8545 28.5139 37.8233 28.4255 37.7895C28.3371 37.7531 28.2643 37.7193 28.2097 37.6829C28.1551 37.6465 28.1005 37.6049 28.0459 37.5529C27.9913 37.5035 27.9497 37.4489 27.9211 37.3891C27.8925 37.3293 27.8691 37.2617 27.8509 37.1837C27.8327 37.1057 27.8223 37.0173 27.8223 36.9211C27.8223 36.7651 27.8561 36.6247 27.9237 36.4999C27.9913 36.3751 28.0875 36.2711 28.2123 36.1879C28.3371 36.1047 28.4827 36.0423 28.6543 35.9981C28.8233 35.9539 29.0131 35.9331 29.2185 35.9331C29.6007 35.9331 29.9751 36.0189 30.3365 36.1879C30.4041 36.2191 30.4561 36.2633 30.4899 36.3179C30.5237 36.3725 30.5393 36.4297 30.5393 36.4895C30.5393 36.5649 30.5133 36.6325 30.4639 36.6871C30.4145 36.7443 30.3469 36.7703 30.2637 36.7703C30.2403 36.7703 30.2169 36.7677 30.1935 36.7625C30.1701 36.7573 30.1441 36.7521 30.1207 36.7417C30.1129 36.7391 30.1025 36.7339 30.0869 36.7287C29.7645 36.6169 29.4915 36.5597 29.2679 36.5597C29.1691 36.5597 29.0781 36.5701 28.9949 36.5883C28.9117 36.6065 28.8389 36.6403 28.7791 36.6897C28.7193 36.7391 28.6881 36.8015 28.6881 36.8743C28.6881 36.9757 28.7193 37.0511 28.7843 37.1005C28.8493 37.1499 28.9663 37.1941 29.1353 37.2357L29.6449 37.3631C29.8321 37.4125 29.9933 37.4645 30.1207 37.5191C30.2507 37.5763 30.3651 37.6439 30.4613 37.7245C30.5601 37.8051 30.6303 37.9039 30.6771 38.0157C30.7239 38.1275 30.7447 38.2601 30.7447 38.4083C30.7447 38.6475 30.6823 38.8503 30.5575 39.0167C30.4327 39.1831 30.2689 39.3079 30.0609 39.3859C29.8529 39.4639 29.6137 39.5055 29.3433 39.5055C28.8077 39.5055 28.3475 39.3703 27.9627 39.0999C27.9133 39.0713 27.8821 39.0349 27.8587 38.9933Z" fill="#263238"/>
<path d="M31.6612 36.7603C31.5598 36.6641 31.5078 36.5393 31.5078 36.3885C31.5078 36.2481 31.5572 36.1285 31.6586 36.0245C31.7574 35.9231 31.8848 35.8711 32.0382 35.8711C32.1838 35.8711 32.3112 35.9205 32.4126 36.0193C32.5166 36.1181 32.5686 36.2403 32.5686 36.3885C32.5686 36.5315 32.5192 36.6537 32.4178 36.7525C32.319 36.8539 32.1916 36.9033 32.0382 36.9033C31.8874 36.9033 31.7626 36.8565 31.6612 36.7603ZM31.6612 39.3265C31.5598 39.2277 31.5078 39.1029 31.5078 38.9573C31.5078 38.8169 31.5572 38.6973 31.6586 38.5933C31.7574 38.4919 31.8848 38.4399 32.0382 38.4399C32.1838 38.4399 32.3112 38.4893 32.4126 38.5855C32.5166 38.6843 32.5686 38.8065 32.5686 38.9547C32.5686 39.0977 32.5192 39.2199 32.4178 39.3213C32.3164 39.4227 32.1916 39.4747 32.0382 39.4747C31.8874 39.4773 31.7626 39.4253 31.6612 39.3265Z" fill="#263238"/>
<path d="M33.4393 39.7972C33.3717 39.7426 33.3379 39.6698 33.3379 39.5762C33.3379 39.532 33.3561 39.4514 33.3899 39.3344L34.9317 34.7688C34.9629 34.6648 35.0097 34.5816 35.0669 34.5218C35.1267 34.4594 35.1943 34.4282 35.2723 34.4282C35.3607 34.4282 35.4387 34.4568 35.5037 34.5114C35.5687 34.5686 35.5999 34.644 35.5999 34.7428C35.5999 34.7948 35.5843 34.8728 35.5505 34.9742L33.9671 39.6568C33.9177 39.805 33.8163 39.8778 33.6681 39.8778C33.5849 39.8804 33.5069 39.8518 33.4393 39.7972Z" fill="#263238"/>
<path d="M36.1229 39.7972C36.0553 39.7426 36.0215 39.6698 36.0215 39.5762C36.0215 39.532 36.0397 39.4514 36.0735 39.3344L37.6153 34.7688C37.6465 34.6648 37.6933 34.5816 37.7505 34.5218C37.8103 34.4594 37.8779 34.4282 37.9559 34.4282C38.0443 34.4282 38.1223 34.4568 38.1873 34.5114C38.2523 34.5686 38.2835 34.644 38.2835 34.7428C38.2835 34.7948 38.2679 34.8728 38.2341 34.9742L36.6507 39.6568C36.6013 39.805 36.4999 39.8778 36.3517 39.8778C36.2659 39.8804 36.1905 39.8518 36.1229 39.7972Z" fill="#263238"/>
<path d="M42.3972 39.3085C42.2932 39.2097 42.197 39.0095 42.106 38.7079L41.4898 36.8463L40.8736 38.7079C40.7852 39.0095 40.6864 39.2097 40.5824 39.3085C40.4784 39.4073 40.3302 39.4593 40.1404 39.4593C39.987 39.4593 39.8596 39.4047 39.7608 39.2929C39.662 39.1811 39.5762 38.9991 39.5034 38.7469L38.8144 36.5707C38.7988 36.5161 38.791 36.4615 38.791 36.4121C38.791 36.3315 38.8118 36.2587 38.8508 36.1963C38.8898 36.1313 38.9418 36.0845 39.0068 36.0507C39.0718 36.0169 39.1394 36.0013 39.2122 36.0013C39.272 36.0013 39.3292 36.0143 39.3838 36.0377C39.4384 36.0611 39.4878 36.1001 39.5346 36.1547C39.5814 36.2093 39.6126 36.2743 39.6334 36.3523L40.2574 38.5051L40.8866 36.5837C40.949 36.3783 41.0218 36.2301 41.1076 36.1365C41.1934 36.0429 41.3208 35.9961 41.4924 35.9961C41.6614 35.9961 41.7914 36.0429 41.8772 36.1365C41.963 36.2301 42.0384 36.3809 42.0982 36.5837L42.7274 38.5051L43.3514 36.3523C43.3826 36.2379 43.4398 36.1495 43.5178 36.0897C43.5958 36.0299 43.6816 36.0013 43.7752 36.0013C43.8844 36.0013 43.9832 36.0403 44.0664 36.1157C44.1496 36.1911 44.1912 36.2899 44.1912 36.4121C44.1912 36.4381 44.1886 36.4641 44.186 36.4901C44.1834 36.5161 44.1756 36.5447 44.1678 36.5707L43.4788 38.7469C43.4086 38.9991 43.3228 39.1811 43.2214 39.2929C43.1226 39.4047 42.9952 39.4593 42.8418 39.4593C42.6494 39.4593 42.5012 39.4099 42.3972 39.3085Z" fill="#263238"/>
<path d="M48.3406 39.3085C48.2366 39.2097 48.1404 39.0095 48.0494 38.7079L47.4332 36.8463L46.817 38.7079C46.7286 39.0095 46.6298 39.2097 46.5258 39.3085C46.4218 39.4073 46.2736 39.4593 46.0838 39.4593C45.9304 39.4593 45.803 39.4047 45.7042 39.2929C45.6054 39.1811 45.5196 38.9991 45.4468 38.7469L44.7578 36.5707C44.7422 36.5161 44.7344 36.4615 44.7344 36.4121C44.7344 36.3315 44.7552 36.2587 44.7942 36.1963C44.8332 36.1313 44.8852 36.0845 44.9502 36.0507C45.0152 36.0169 45.0828 36.0013 45.1556 36.0013C45.2154 36.0013 45.2726 36.0143 45.3272 36.0377C45.3818 36.0611 45.4312 36.1001 45.478 36.1547C45.5248 36.2093 45.556 36.2743 45.5768 36.3523L46.2008 38.5051L46.83 36.5837C46.8924 36.3783 46.9652 36.2301 47.051 36.1365C47.1368 36.0429 47.2642 35.9961 47.4358 35.9961C47.6048 35.9961 47.7348 36.0429 47.8206 36.1365C47.9064 36.2301 47.9818 36.3809 48.0416 36.5837L48.6708 38.5051L49.2948 36.3523C49.326 36.2379 49.3832 36.1495 49.4612 36.0897C49.5392 36.0299 49.625 36.0013 49.7186 36.0013C49.8278 36.0013 49.9266 36.0403 50.0098 36.1157C50.093 36.1911 50.1346 36.2899 50.1346 36.4121C50.1346 36.4381 50.132 36.4641 50.1294 36.4901C50.1268 36.5161 50.119 36.5447 50.1112 36.5707L49.4222 38.7469C49.352 38.9991 49.2662 39.1811 49.1648 39.2929C49.066 39.4047 48.9386 39.4593 48.7852 39.4593C48.5928 39.4593 48.4446 39.4099 48.3406 39.3085Z" fill="#263238"/>
<path d="M54.2839 39.3085C54.1799 39.2097 54.0837 39.0095 53.9927 38.7079L53.3765 36.8463L52.7603 38.7079C52.6719 39.0095 52.5731 39.2097 52.4691 39.3085C52.3651 39.4073 52.2169 39.4593 52.0271 39.4593C51.8737 39.4593 51.7463 39.4047 51.6475 39.2929C51.5487 39.1811 51.4629 38.9991 51.3901 38.7469L50.7011 36.5707C50.6855 36.5161 50.6777 36.4615 50.6777 36.4121C50.6777 36.3315 50.6985 36.2587 50.7375 36.1963C50.7765 36.1313 50.8285 36.0845 50.8935 36.0507C50.9585 36.0169 51.0261 36.0013 51.0989 36.0013C51.1587 36.0013 51.2159 36.0143 51.2705 36.0377C51.3251 36.0611 51.3745 36.1001 51.4213 36.1547C51.4681 36.2093 51.4993 36.2743 51.5201 36.3523L52.1441 38.5051L52.7733 36.5837C52.8357 36.3783 52.9085 36.2301 52.9943 36.1365C53.0801 36.0429 53.2075 35.9961 53.3791 35.9961C53.5481 35.9961 53.6781 36.0429 53.7639 36.1365C53.8497 36.2301 53.9251 36.3809 53.9849 36.5837L54.6141 38.5051L55.2381 36.3523C55.2693 36.2379 55.3265 36.1495 55.4045 36.0897C55.4825 36.0299 55.5683 36.0013 55.6619 36.0013C55.7711 36.0013 55.8699 36.0403 55.9531 36.1157C56.0363 36.1911 56.0779 36.2899 56.0779 36.4121C56.0779 36.4381 56.0753 36.4641 56.0727 36.4901C56.0701 36.5161 56.0623 36.5447 56.0545 36.5707L55.3655 38.7469C55.2953 38.9991 55.2095 39.1811 55.1081 39.2929C55.0093 39.4047 54.8819 39.4593 54.7285 39.4593C54.5361 39.4593 54.3879 39.4099 54.2839 39.3085Z" fill="#263238"/>
<path d="M89.5943 39.869L87.0645 37.1C87.0333 37.0662 86.9969 37.0376 86.9605 37.0116C87.2699 36.5826 87.4545 36.0574 87.4545 35.488C87.4545 34.0476 86.2819 32.875 84.8415 32.875C83.4011 32.875 82.2285 34.0476 82.2285 35.488C82.2285 36.9284 83.4011 38.101 84.8415 38.101C85.3043 38.101 85.7359 37.9788 86.1155 37.7682C86.1389 37.8124 86.1649 37.854 86.2013 37.893L88.7311 40.662C88.8481 40.7894 89.0067 40.8544 89.1653 40.8544C89.3057 40.8544 89.4487 40.8024 89.5605 40.701C89.7971 40.48 89.8153 40.1082 89.5943 39.869ZM82.8135 35.488C82.8135 34.37 83.7235 33.4626 84.8389 33.4626C85.9569 33.4626 86.8643 34.3726 86.8643 35.488C86.8643 36.606 85.9543 37.5134 84.8389 37.5134C83.7235 37.516 82.8135 36.606 82.8135 35.488Z" fill="white"/>
<path d="M45.0312 42.4634V64.5504" stroke="#263238" stroke-width="0.26" stroke-miterlimit="10" stroke-linecap="round" stroke-linejoin="round"/>
</svg>
