<svg width="130" height="130" viewBox="0 0 130 130" fill="none" xmlns="http://www.w3.org/2000/svg">
<path d="M101.4 38.9757C101.218 38.8717 100.984 38.7937 100.672 38.7157C99.1903 38.3777 97.4743 38.0917 97.4743 38.0917C97.4743 38.0917 100.048 35.4917 99.0863 34.3477C98.0983 33.2037 96.3823 34.9717 96.3823 34.9717C96.3823 34.9717 98.0983 30.2397 95.6543 29.5377C93.2103 28.8357 90.5063 34.0877 90.5063 34.0877C90.5063 34.0877 90.3763 32.0857 89.1543 32.3457C87.9323 32.6057 87.6723 34.9717 87.6723 34.9717C87.6723 34.9717 85.8263 33.9317 85.3323 34.8937C84.8383 35.8557 85.9563 37.7797 85.9563 37.7797C85.9563 37.7797 83.8763 36.5577 83.6163 37.7017C83.5123 38.2217 83.4863 38.6637 83.5123 39.0017H101.4V38.9757Z" stroke="#263238" stroke-width="0.26" stroke-miterlimit="10" stroke-linecap="round" stroke-linejoin="round"/>
<path d="M118.43 38.9753L113.646 38.3513C112.398 37.3893 110.89 36.8173 109.304 36.7133L108.758 36.6873C108.758 36.6873 110.058 35.1273 109.278 31.7473C108.498 28.3673 104.078 31.2273 104.078 31.2273C104.078 31.2273 107.328 28.1593 106.808 25.2993C106.288 22.4393 101.738 24.7013 101.738 24.7013C101.738 24.7013 102.258 16.9793 96.5384 17.2393C90.8184 17.4993 89.7784 26.5213 89.7784 26.5213C89.7784 26.5213 85.7484 21.6333 83.0184 27.8213C82.6024 28.7833 82.3164 29.7453 82.1344 30.6813L82.0304 30.5773C82.0304 30.5773 79.8984 27.9773 78.2084 29.8233C76.5184 31.6953 76.7264 34.4773 76.7264 34.4773C76.7264 34.4773 74.1264 33.5413 73.4764 34.6593C72.8264 35.7773 74.3084 37.0773 74.3084 37.0773C74.3084 37.0773 72.9044 36.4273 71.8904 37.3633C71.2404 37.9353 70.5644 38.5593 70.1484 38.9493H118.43V38.9753Z" stroke="#263238" stroke-width="0.26" stroke-miterlimit="10" stroke-linecap="round" stroke-linejoin="round"/>
<path d="M41.0786 65.4943C40.8966 65.3903 40.6626 65.3123 40.3506 65.2343C38.8686 64.8963 37.1526 64.6103 37.1526 64.6103C37.1526 64.6103 39.7267 62.0103 38.7647 60.8663C37.7767 59.7223 36.0607 61.4903 36.0607 61.4903C36.0607 61.4903 37.7766 56.7583 35.3326 56.0563C32.8886 55.3543 30.1587 60.6063 30.1587 60.6063C30.1587 60.6063 30.0287 58.6043 28.8067 58.8643C27.5847 59.1243 27.3247 61.4903 27.3247 61.4903C27.3247 61.4903 25.4787 60.4503 24.9847 61.4123C24.4907 62.3743 25.6087 64.2983 25.6087 64.2983C25.6087 64.2983 23.5287 63.0763 23.2687 64.2203C23.1647 64.7403 23.1387 65.1823 23.1647 65.5203H41.0786V65.4943Z" stroke="#263238" stroke-width="0.26" stroke-miterlimit="10" stroke-linecap="round" stroke-linejoin="round"/>
<path d="M58.1092 65.4947L53.3252 64.8707C52.0772 63.9087 50.5691 63.3367 48.9831 63.2327L48.4372 63.2067C48.4372 63.2067 49.7372 61.6467 48.9572 58.2667C48.1772 54.8867 43.7572 57.7467 43.7572 57.7467C43.7572 57.7467 47.0072 54.6787 46.4872 51.8187C45.9672 48.9587 41.4172 51.2467 41.4172 51.2467C41.4172 51.2467 41.9372 43.5247 36.2172 43.7847C30.4972 44.0447 29.4571 53.0667 29.4571 53.0667C29.4571 53.0667 25.4272 48.1787 22.6972 54.3667C22.2812 55.3287 21.9951 56.2907 21.8131 57.2267L21.7091 57.1227C21.7091 57.1227 19.5772 54.5227 17.8872 56.3687C16.1971 58.2407 16.4051 61.0227 16.4051 61.0227C16.4051 61.0227 13.8051 60.0867 13.1551 61.2047C12.5051 62.3227 13.9871 63.6227 13.9871 63.6227C13.9871 63.6227 12.5831 62.9727 11.5691 63.9087C10.9191 64.4807 10.2431 65.1047 9.82715 65.4947H58.1092Z" stroke="#263238" stroke-width="0.26" stroke-miterlimit="10" stroke-linecap="round" stroke-linejoin="round"/>
<path d="M116.948 95.6019C114.66 95.6019 112.554 96.4339 110.916 97.7859C109.694 96.4339 107.952 95.6019 106.002 95.6019C104.364 95.6019 102.856 96.1999 101.686 97.1879C100.308 96.0179 98.5397 95.3159 96.6157 95.3159C93.6777 95.3159 91.1297 96.9279 89.7777 99.3199C89.3357 99.0859 88.8417 98.9559 88.2957 98.9559C86.5537 98.9559 85.1497 100.36 85.1497 102.102C85.1497 102.232 85.1497 102.362 85.1757 102.466C84.9937 102.44 84.7857 102.44 84.5777 102.44C83.3037 102.44 82.1597 102.908 81.2497 103.662C80.4957 103.012 79.5077 102.622 78.4157 102.622C78.2857 102.622 78.1557 102.622 77.9997 102.648V59.8779C78.3377 59.2279 78.7797 58.7859 78.7797 58.7859C79.2997 58.3179 79.6377 57.6419 79.6377 56.8879C79.6377 55.4839 78.4937 54.3399 77.0897 54.3399C75.6857 54.3399 74.5417 55.4839 74.5417 56.8879C74.5417 57.6419 74.8797 58.3179 75.3997 58.7859C75.3997 58.7859 75.8157 59.2019 76.1277 59.8259V103.272C75.7897 103.48 75.4777 103.74 75.1917 104.052C74.1257 103.168 72.7477 102.622 71.2657 102.622C70.0957 102.622 69.0037 102.96 68.0677 103.506C67.7817 103.324 67.4437 103.168 67.1317 103.038V63.5179C67.5477 61.8799 68.8477 60.5019 68.8477 60.5019C69.6797 59.7739 70.1997 58.7079 70.1997 57.5119C70.1997 55.3019 68.4057 53.4819 66.1697 53.4819C63.9597 53.4819 62.1397 55.2759 62.1397 57.5119C62.1397 58.7079 62.6597 59.7739 63.4917 60.5019V60.5279C63.4917 60.5279 64.8697 61.9579 65.2597 63.6739V102.648C65.1297 102.648 65.0257 102.648 64.8957 102.648C63.3877 102.648 62.0357 103.194 60.9697 104.078C60.1637 103.194 59.0197 102.648 57.7457 102.648C57.1217 102.648 56.5497 102.778 56.0037 103.012V59.8779C56.3417 59.2279 56.7837 58.7859 56.7837 58.7859C57.3037 58.3179 57.6417 57.6419 57.6417 56.8879C57.6417 55.4839 56.4977 54.3399 55.0937 54.3399C53.6897 54.3399 52.5457 55.4839 52.5457 56.8879C52.5457 57.6419 52.8837 58.3179 53.4037 58.7859C53.4037 58.7859 53.8197 59.2019 54.1317 59.8259V103.116C53.3777 102.7 52.5197 102.44 51.6097 102.44C50.2837 102.44 49.0877 102.934 48.2037 103.766C48.2297 103.662 48.2297 103.558 48.2297 103.454C48.2297 102.596 47.5277 101.92 46.6957 101.92C46.5657 101.92 46.4617 101.946 46.3317 101.972C46.1757 100.594 45.0057 99.5019 43.6017 99.5019C43.1597 99.5019 42.7437 99.6059 42.3537 99.7879C41.0797 97.1359 38.4017 95.3159 35.2557 95.3159C33.3057 95.3159 31.5377 96.0179 30.1857 97.1879C29.0157 96.1999 27.5077 95.6019 25.8697 95.6019C23.9197 95.6019 22.1517 96.4339 20.9557 97.7859C19.3177 96.4339 17.2377 95.6019 14.9237 95.6019C9.72372 95.6019 5.51172 99.8139 5.51172 105.014C5.51172 105.43 5.53772 105.82 5.58972 106.21H126.334C126.386 105.82 126.412 105.404 126.412 105.014C126.36 99.8139 122.148 95.6019 116.948 95.6019Z" fill="#C2C2C2"/>
<path d="M56.1076 56.3952C56.1076 55.7972 55.6396 54.8872 55.0416 54.8872C54.4436 54.8872 53.9756 55.8232 53.9756 56.3952C53.9756 56.9932 54.8856 58.1632 55.0416 58.1632C55.1716 58.1372 56.1076 56.9672 56.1076 56.3952Z" fill="#0085E5"/>
<path d="M78.1291 56.3952C78.1291 55.7972 77.6611 54.8872 77.0631 54.8872C76.4651 54.8872 75.9971 55.8232 75.9971 56.3952C75.9971 56.9932 76.9071 58.1632 77.0631 58.1632C77.1931 58.1372 78.1291 56.9672 78.1291 56.3952Z" fill="#0085E5"/>
<path d="M55.1719 49.4008L62.6599 42.8228V48.4128L55.6659 51.7148L55.1719 49.4008Z" fill="#263238" stroke="#263238" stroke-width="0.26" stroke-miterlimit="10"/>
<path d="M56.6799 54.8087H53.4299L52.7539 42.0687C52.7539 41.9647 52.7539 41.8867 52.7539 41.7827C52.8579 40.7167 53.8459 37.2847 55.0679 37.2847C56.2639 37.2847 57.2519 40.7427 57.3819 41.7827C57.3819 41.8867 57.3819 41.9647 57.3819 42.0687L56.6799 54.8087Z" fill="white" stroke="#263238" stroke-width="0.26" stroke-miterlimit="10"/>
<path d="M53.1963 39.9367H56.9143C56.4983 38.6627 55.8223 37.2847 55.0423 37.2847C54.2883 37.2847 53.6123 38.6627 53.1963 39.9367Z" fill="#263238" stroke="#263238" stroke-width="0.26" stroke-miterlimit="10"/>
<path d="M53.2734 52.1304L53.4294 54.8084H56.6794L56.8354 52.1304H53.2734Z" fill="#263238" stroke="#263238" stroke-width="0.26" stroke-miterlimit="10"/>
<path d="M77.0896 49.4008L69.6016 42.8228V48.4128L76.5956 51.7148L77.0896 49.4008Z" fill="#263238" stroke="#263238" stroke-width="0.26" stroke-miterlimit="10"/>
<path d="M75.5819 54.8087H78.8319L79.5079 42.0687C79.5079 41.9647 79.5079 41.8867 79.5079 41.7827C79.4039 40.7167 78.4159 37.2847 77.1939 37.2847C75.9979 37.2847 75.0099 40.7427 74.8799 41.7827C74.8799 41.8867 74.8799 41.9647 74.8799 42.0687L75.5819 54.8087Z" fill="white" stroke="#263238" stroke-width="0.26" stroke-miterlimit="10"/>
<path d="M78.9872 52.1304L78.8312 54.8084H75.5812L75.4512 52.1304H78.9872Z" fill="#263238" stroke="#263238" stroke-width="0.26" stroke-miterlimit="10"/>
<path d="M75.3477 39.9367H79.0657C78.6497 38.6627 77.9737 37.2847 77.1937 37.2847C76.4397 37.2847 75.7637 38.6627 75.3477 39.9367Z" fill="#263238" stroke="#263238" stroke-width="0.26" stroke-miterlimit="10"/>
<path d="M67.8595 56.7066C67.8595 55.7706 67.1055 55.0166 66.1695 55.0166C65.2335 55.0166 64.4795 55.7706 64.4795 56.7066C64.4795 57.6426 65.9095 59.4886 66.1695 59.4886C66.3775 59.4886 67.8595 57.6166 67.8595 56.7066Z" fill="#0085E5"/>
<path d="M70.4337 50.3364H61.9317L60.1377 22.7244C60.1117 22.4904 60.1117 22.2304 60.1377 21.9964C60.4497 19.2404 63.0237 10.1924 66.1957 10.1924C69.3417 10.1924 71.9417 19.2404 72.2537 21.9964C72.2797 22.2304 72.2797 22.4904 72.2537 22.7244L70.4337 50.3364Z" fill="white" stroke="#263238" stroke-width="0.26" stroke-miterlimit="10"/>
<path d="M66.1955 43.5248C64.1415 43.5248 62.4775 41.8608 62.4775 39.8068V24.3108C62.4775 22.2568 64.1415 20.5928 66.1955 20.5928C68.2495 20.5928 69.9135 22.2568 69.9135 24.3108V39.8068C69.9135 41.8608 68.2495 43.5248 66.1955 43.5248Z" fill="#0085E5" stroke="#263238" stroke-width="0.26" stroke-miterlimit="10"/>
<path d="M69.1606 54.2888H63.1806L61.9326 50.1548H70.4346L69.1606 54.2888Z" fill="#263238" stroke="#263238" stroke-width="0.26" stroke-miterlimit="10"/>
<path d="M67.1555 27.2685C68.4897 26.7374 69.1406 25.2252 68.6095 23.8911C68.0783 22.557 66.5662 21.906 65.2321 22.4372C63.8979 22.9683 63.247 24.4805 63.7781 25.8146C64.3093 27.1487 65.8214 27.7997 67.1555 27.2685Z" fill="#263238"/>
<path d="M68.7395 25.5747C68.9656 24.1567 67.9993 22.824 66.5813 22.598C65.1633 22.372 63.8306 23.3382 63.6046 24.7562C63.3785 26.1742 64.3448 27.507 65.7628 27.733C67.1808 27.959 68.5135 26.9927 68.7395 25.5747Z" fill="#0085E5" stroke="#263238" stroke-width="0.26" stroke-miterlimit="10"/>
<path d="M66.196 22.9316C67.522 22.9316 68.588 23.9716 68.64 25.2716C68.64 25.2456 68.64 25.2196 68.64 25.1676C68.64 23.8156 67.548 22.7236 66.196 22.7236C64.844 22.7236 63.752 23.8156 63.752 25.1676C63.752 25.1936 63.752 25.2196 63.752 25.2716C63.804 23.9716 64.87 22.9316 66.196 22.9316Z" fill="#263238"/>
<path d="M68.1029 25.4805C68.2759 24.4175 67.5544 23.4156 66.4914 23.2427C65.4285 23.0697 64.4266 23.7912 64.2536 24.8542C64.0806 25.9171 64.8021 26.919 65.8651 27.092C66.928 27.2649 67.9299 26.5435 68.1029 25.4805Z" fill="white" stroke="#263238" stroke-width="0.26" stroke-miterlimit="10"/>
<path d="M66.1957 26.9363C67.2357 26.9363 68.0937 26.1043 68.1197 25.0903C68.1197 25.1163 68.1197 25.1423 68.1197 25.1683C68.1197 26.2343 67.2617 27.1183 66.1697 27.1183C65.1037 27.1183 64.2197 26.2603 64.2197 25.1683C64.2197 25.1423 64.2197 25.1163 64.2197 25.0903C64.2977 26.1043 65.1557 26.9363 66.1957 26.9363Z" fill="#263238"/>
<path d="M66.1957 33.8787C67.6317 33.8787 68.7957 32.7147 68.7957 31.2787C68.7957 29.8428 67.6317 28.6787 66.1957 28.6787C64.7598 28.6787 63.5957 29.8428 63.5957 31.2787C63.5957 32.7147 64.7598 33.8787 66.1957 33.8787Z" fill="#263238"/>
<path d="M66.1957 34.1907C67.6316 34.1907 68.7957 33.0267 68.7957 31.5907C68.7957 30.1548 67.6316 28.9907 66.1957 28.9907C64.7598 28.9907 63.5957 30.1548 63.5957 31.5907C63.5957 33.0267 64.7598 34.1907 66.1957 34.1907Z" fill="#0085E5" stroke="#263238" stroke-width="0.26" stroke-miterlimit="10"/>
<path d="M66.196 29.3545C67.522 29.3545 68.588 30.3945 68.64 31.6945C68.64 31.6685 68.64 31.6425 68.64 31.5905C68.64 30.2385 67.548 29.1465 66.196 29.1465C64.844 29.1465 63.752 30.2385 63.752 31.5905C63.752 31.6165 63.752 31.6425 63.752 31.6945C63.804 30.3945 64.87 29.3545 66.196 29.3545Z" fill="#263238"/>
<path d="M66.1951 33.5411C67.2721 33.5411 68.1451 32.6681 68.1451 31.5911C68.1451 30.5142 67.2721 29.6411 66.1951 29.6411C65.1182 29.6411 64.2451 30.5142 64.2451 31.5911C64.2451 32.6681 65.1182 33.5411 66.1951 33.5411Z" fill="white" stroke="#263238" stroke-width="0.26" stroke-miterlimit="10"/>
<path d="M66.1967 33.3592C67.2367 33.3592 68.0947 32.5272 68.1207 31.5132C68.1207 31.5392 68.1207 31.5652 68.1207 31.5912C68.1207 32.6572 67.2627 33.5412 66.1707 33.5412C65.1047 33.5412 64.2207 32.6832 64.2207 31.5912C64.2207 31.5652 64.2207 31.5392 64.2207 31.5132C64.2987 32.5272 65.1567 33.3592 66.1967 33.3592Z" fill="#263238"/>
<path d="M67.1604 40.1127C68.4946 39.5816 69.1455 38.0695 68.6143 36.7353C68.0832 35.4012 66.5711 34.7503 65.2369 35.2814C63.9028 35.8126 63.2519 37.3247 63.783 38.6588C64.3142 39.993 65.8263 40.6439 67.1604 40.1127Z" fill="#263238"/>
<path d="M68.7532 38.4077C68.9792 36.9897 68.013 35.657 66.595 35.431C65.177 35.205 63.8442 36.1713 63.6182 37.5892C63.3922 39.0072 64.3585 40.34 65.7765 40.566C67.1945 40.792 68.5272 39.8257 68.7532 38.4077Z" fill="#0085E5" stroke="#263238" stroke-width="0.26" stroke-miterlimit="10"/>
<path d="M66.196 35.7764C67.522 35.7764 68.588 36.8164 68.64 38.1164C68.64 38.0904 68.64 38.0644 68.64 38.0124C68.64 36.6604 67.548 35.5684 66.196 35.5684C64.844 35.5684 63.752 36.6604 63.752 38.0124C63.752 38.0384 63.752 38.0644 63.752 38.1164C63.804 36.8164 64.87 35.7764 66.196 35.7764Z" fill="#263238"/>
<path d="M68.1156 38.314C68.2886 37.251 67.5671 36.2491 66.5041 36.0762C65.4412 35.9032 64.4393 36.6247 64.2663 37.6877C64.0933 38.7506 64.8148 39.7525 65.8778 39.9255C66.9407 40.0984 67.9426 39.3769 68.1156 38.314Z" fill="white" stroke="#263238" stroke-width="0.26" stroke-miterlimit="10"/>
<path d="M66.1957 39.7547C67.2357 39.7547 68.0937 38.9227 68.1197 37.9087C68.1197 37.9347 68.1197 37.9607 68.1197 37.9867C68.1197 39.0527 67.2617 39.9367 66.1697 39.9367C65.1037 39.9367 64.2197 39.0787 64.2197 37.9867C64.2197 37.9607 64.2197 37.9347 64.2197 37.9087C64.2977 38.9487 65.1557 39.7547 66.1957 39.7547Z" fill="#263238"/>
<path d="M61.8799 15.6006H70.4859C69.3939 12.7146 67.8599 10.0366 66.1699 10.0366C64.4799 10.0366 62.9719 12.7146 61.8799 15.6006Z" fill="#263238" stroke="#263238" stroke-width="0.26" stroke-miterlimit="10"/>
<path d="M100.439 64.0908H37.8828V104.573H100.439V64.0908Z" fill="#263238" stroke="#263238" stroke-width="0.26" stroke-miterlimit="10" stroke-linecap="round" stroke-linejoin="round"/>
<path d="M100.439 92.0151H37.8828V104.547H100.439V92.0151Z" fill="#6B6B6B" stroke="#263238" stroke-width="0.26" stroke-miterlimit="10" stroke-linecap="round" stroke-linejoin="round"/>
<path d="M60.8916 81.2505H39.3896V97.7085H60.8916V81.2505Z" fill="#0085E5" stroke="#263238" stroke-width="0.26" stroke-miterlimit="10" stroke-linecap="round" stroke-linejoin="round"/>
<path d="M60.008 82.2388H40.248V96.7208H60.008V82.2388Z" fill="white" stroke="#263238" stroke-width="0.26" stroke-miterlimit="10" stroke-linecap="round" stroke-linejoin="round"/>
<path d="M45.7331 94.7446L44.7451 95.6026" stroke="#263238" stroke-width="0.26" stroke-miterlimit="10" stroke-linecap="round" stroke-linejoin="round"/>
<path d="M59.3047 82.7329L47.1367 93.4969" stroke="#263238" stroke-width="0.26" stroke-miterlimit="10" stroke-linecap="round" stroke-linejoin="round"/>
<path d="M56.5237 86.7891L49.5557 92.9511" stroke="#263238" stroke-width="0.26" stroke-miterlimit="10" stroke-linecap="round" stroke-linejoin="round"/>
<path d="M99.0606 81.2505H77.5586V97.7085H99.0606V81.2505Z" fill="#0085E5" stroke="#263238" stroke-width="0.26" stroke-miterlimit="10" stroke-linecap="round" stroke-linejoin="round"/>
<path d="M98.2024 82.2388H78.4424V96.7208H98.2024V82.2388Z" fill="white" stroke="#263238" stroke-width="0.26" stroke-miterlimit="10" stroke-linecap="round" stroke-linejoin="round"/>
<path d="M83.903 94.7446L82.915 95.6026" stroke="#263238" stroke-width="0.26" stroke-miterlimit="10" stroke-linecap="round" stroke-linejoin="round"/>
<path d="M97.4746 82.7329L85.3066 93.4969" stroke="#263238" stroke-width="0.26" stroke-miterlimit="10" stroke-linecap="round" stroke-linejoin="round"/>
<path d="M94.6936 86.7891L87.7256 92.9511" stroke="#263238" stroke-width="0.26" stroke-miterlimit="10" stroke-linecap="round" stroke-linejoin="round"/>
<path d="M78.6506 102.103L77.5586 100.387L79.2746 101.011L79.0666 99.3472L79.9506 100.725L80.0286 98.2552L80.4966 99.8932L81.5886 96.8252L81.7446 100.049L83.0446 99.2952L82.2906 100.725L83.2526 100.101L83.1746 101.141L84.3966 100.517L83.5906 102.025L78.6506 102.103Z" fill="#0085E5"/>
<path d="M85.8264 102.103L84.7344 100.387L86.4504 101.011L86.2424 99.3472L87.1264 100.725L87.2044 98.2552L87.6724 99.8932L88.7904 96.8252L88.9204 100.049L90.2204 99.2952L89.4664 100.725L90.4284 100.101L90.3504 101.141L91.5724 100.517L90.7664 102.025L85.8264 102.103Z" fill="#0085E5"/>
<path d="M92.9504 102.103L91.8584 100.387L93.5744 101.011L93.3664 99.3472L94.2504 100.725L94.3284 98.2552L94.7964 99.8932L95.8884 96.8252L96.0184 100.049L97.3184 99.2952L96.5644 100.725L97.5264 100.101L97.4484 101.141L98.6964 100.517L97.8644 102.025L92.9504 102.103Z" fill="#0085E5"/>
<path d="M40.0402 102.103L38.9482 100.387L40.6382 101.011L40.4562 99.3472L41.3402 100.725L41.3922 98.2552L41.8862 99.8932L42.9782 96.8252L43.1082 100.049L44.4082 99.2952L43.6542 100.725L44.6162 100.101L44.5382 101.141L45.7862 100.517L44.9542 102.025L40.0402 102.103Z" fill="#0085E5"/>
<path d="M47.217 102.103L46.125 100.387L47.841 101.011L47.633 99.3472L48.517 100.725L48.569 98.2552L49.063 99.8932L50.155 96.8252L50.285 100.049L51.585 99.2952L50.831 100.725L51.793 100.101L51.715 101.141L52.963 100.517L52.131 102.025L47.217 102.103Z" fill="#0085E5"/>
<path d="M54.3147 102.103L53.2227 100.387L54.9387 101.011L54.7307 99.3472L55.6147 100.725L55.6927 98.2552L56.1607 99.8932L57.2527 96.8252L57.4087 100.049L58.7087 99.2952L57.9547 100.725L58.8907 100.101L58.8387 101.141L60.0607 100.517L59.2547 102.025L54.3147 102.103Z" fill="#0085E5"/>
<path d="M100.439 101.661H37.8828V104.573H100.439V101.661Z" fill="#6B6B6B" stroke="#263238" stroke-width="0.26" stroke-miterlimit="10" stroke-linecap="round" stroke-linejoin="round"/>
<path d="M75.8708 79.8462H62.2988V104.572H75.8708V79.8462Z" fill="#0085E5" stroke="#263238" stroke-width="0.26" stroke-miterlimit="10" stroke-linecap="round" stroke-linejoin="round"/>
<path d="M74.7792 93.912H63.1572V81.042H74.7792V93.912ZM74.7792 95.29H63.1572V103.194H74.7792V95.29Z" fill="white" stroke="#263238" stroke-width="0.26" stroke-miterlimit="10" stroke-linecap="round" stroke-linejoin="round"/>
<path d="M75.4551 90.896H75.0391V95.42H75.4551V90.896Z" fill="#263238" stroke="#263238" stroke-width="0.26" stroke-miterlimit="10" stroke-linecap="round" stroke-linejoin="round"/>
<path d="M64.9485 91.3135L64.2725 91.9115" stroke="#263238" stroke-width="0.26" stroke-miterlimit="10" stroke-linecap="round" stroke-linejoin="round"/>
<path d="M74.3082 83.019L65.9102 90.455" stroke="#263238" stroke-width="0.26" stroke-miterlimit="10" stroke-linecap="round" stroke-linejoin="round"/>
<path d="M72.3846 85.8013L67.6006 90.0653" stroke="#263238" stroke-width="0.26" stroke-miterlimit="10" stroke-linecap="round" stroke-linejoin="round"/>
<path d="M67.1079 101.895L66.5879 102.337" stroke="#263238" stroke-width="0.26" stroke-miterlimit="10" stroke-linecap="round" stroke-linejoin="round"/>
<path d="M74.3103 95.5249L67.8623 101.219" stroke="#263238" stroke-width="0.26" stroke-miterlimit="10" stroke-linecap="round" stroke-linejoin="round"/>
<path d="M72.8287 97.6572L69.1367 100.933" stroke="#263238" stroke-width="0.26" stroke-miterlimit="10" stroke-linecap="round" stroke-linejoin="round"/>
<path opacity="0.3" d="M100.439 73.6069H38.0127V82.0049H100.439V73.6069Z" fill="black"/>
<path d="M101.375 68.772H36.999V80.758H101.375V68.772Z" fill="white" stroke="#263238" stroke-width="0.26" stroke-miterlimit="10" stroke-linecap="round" stroke-linejoin="round"/>
<path d="M43.3947 68.7725H40.4307V80.7585H43.3947V68.7725Z" fill="#0085E5" stroke="#263238" stroke-width="0.26" stroke-miterlimit="10" stroke-linecap="round" stroke-linejoin="round"/>
<path d="M49.6867 68.7725H46.7227V80.7585H49.6867V68.7725Z" fill="#0085E5" stroke="#263238" stroke-width="0.26" stroke-miterlimit="10" stroke-linecap="round" stroke-linejoin="round"/>
<path d="M55.9533 68.7725H52.9893V80.7585H55.9533V68.7725Z" fill="#0085E5" stroke="#263238" stroke-width="0.26" stroke-miterlimit="10" stroke-linecap="round" stroke-linejoin="round"/>
<path d="M61.9327 68.7725H58.9688V80.7585H61.9327V68.7725Z" fill="#0085E5" stroke="#263238" stroke-width="0.26" stroke-miterlimit="10" stroke-linecap="round" stroke-linejoin="round"/>
<path d="M67.9132 68.7725H64.9492V80.7585H67.9132V68.7725Z" fill="#0085E5" stroke="#263238" stroke-width="0.26" stroke-miterlimit="10" stroke-linecap="round" stroke-linejoin="round"/>
<path d="M73.8927 68.7725H70.9287V80.7585H73.8927V68.7725Z" fill="#0085E5" stroke="#263238" stroke-width="0.26" stroke-miterlimit="10" stroke-linecap="round" stroke-linejoin="round"/>
<path d="M79.8722 68.7725H76.9082V80.7585H79.8722V68.7725Z" fill="#0085E5" stroke="#263238" stroke-width="0.26" stroke-miterlimit="10" stroke-linecap="round" stroke-linejoin="round"/>
<path d="M85.8527 68.7725H82.8887V80.7585H85.8527V68.7725Z" fill="#0085E5" stroke="#263238" stroke-width="0.26" stroke-miterlimit="10" stroke-linecap="round" stroke-linejoin="round"/>
<path d="M91.8331 68.7725H88.8691V80.7585H91.8331V68.7725Z" fill="#0085E5" stroke="#263238" stroke-width="0.26" stroke-miterlimit="10" stroke-linecap="round" stroke-linejoin="round"/>
<path d="M97.7863 68.7725H94.8223V80.7585H97.7863V68.7725Z" fill="#0085E5" stroke="#263238" stroke-width="0.26" stroke-miterlimit="10" stroke-linecap="round" stroke-linejoin="round"/>
<path d="M108.603 75.8683C108.603 75.8683 107.407 73.6843 104.209 72.3583C101.037 71.0323 94.4593 69.1863 94.5633 67.5483C94.6673 65.9103 99.8153 67.8863 99.8153 67.8863C99.8153 67.8863 91.2613 63.7263 90.1693 61.1003C89.0773 58.4743 98.0473 61.3083 98.0473 61.3083C98.0473 61.3083 93.9913 53.6383 95.0833 51.8963C96.1753 50.1543 100.127 53.4303 100.127 53.4303C100.127 53.4303 98.6973 44.0183 105.613 43.0303C112.503 42.0423 112.633 49.2703 112.633 49.2703C112.633 49.2703 115.051 45.0063 117.781 45.9943C120.511 46.9823 117.573 52.4683 117.573 52.4683C117.573 52.4683 121.629 49.4003 122.721 54.0023C123.813 58.6043 117.911 63.7523 117.911 63.7523C117.911 63.7523 121.967 62.4263 122.175 64.7403C122.383 67.0283 119.549 68.5623 119.549 68.5623C119.549 68.5623 121.967 69.0043 121.083 70.2003C120.225 71.3703 109.383 74.2303 108.603 75.8683Z" fill="#0085E5"/>
<path d="M115.129 64.714C115.129 64.714 111.073 65.676 108.993 68.952L108.915 64.428C109.227 63.882 111.515 60.268 115.129 59.176C115.129 59.176 110.969 60.294 108.915 63.648L108.733 52.416L108.681 66.066C106.653 62.92 102.883 61.984 102.883 61.984C106.263 63.05 108.317 66.326 108.681 66.976L108.655 71.448C106.601 68.328 102.857 67.418 102.857 67.418C106.185 68.484 108.213 71.63 108.629 72.358L108.499 103.61H109.591L109.097 75.244C109.487 74.62 111.593 71.318 115.129 70.252C115.129 70.252 111.203 71.188 109.097 74.36L109.019 69.836C109.409 69.16 111.593 65.78 115.129 64.714Z" fill="#263238"/>
<path d="M113.075 102.804H104.443V104.78H113.075V102.804Z" fill="white" stroke="#263238" stroke-width="0.26" stroke-miterlimit="10" stroke-linecap="round" stroke-linejoin="round"/>
<path d="M115.076 104.546H24.3359V106.21H115.076V104.546Z" fill="white" stroke="#263238" stroke-width="0.26" stroke-miterlimit="10" stroke-linecap="round" stroke-linejoin="round"/>
<path d="M3.25 106.209H128.388" stroke="#263238" stroke-width="0.26" stroke-miterlimit="10"/>
<path d="M28.0793 123.37C37.7719 123.37 45.6293 121.648 45.6293 119.522C45.6293 117.397 37.7719 115.674 28.0793 115.674C18.3867 115.674 10.5293 117.397 10.5293 119.522C10.5293 121.648 18.3867 123.37 28.0793 123.37Z" fill="#0085E5"/>
<path opacity="0.5" d="M28.0793 123.37C37.7719 123.37 45.6293 121.648 45.6293 119.522C45.6293 117.397 37.7719 115.674 28.0793 115.674C18.3867 115.674 10.5293 117.397 10.5293 119.522C10.5293 121.648 18.3867 123.37 28.0793 123.37Z" fill="white"/>
<path d="M25.0889 80.209C25.0889 80.209 23.2169 85.929 22.8009 88.841C22.3849 91.727 21.5529 99.813 21.5529 99.813C21.5529 99.813 19.2649 102.439 18.7709 106.131C18.2509 109.823 18.4329 114.789 18.4329 114.789C18.4329 114.789 18.0169 115.413 18.0169 115.725C18.0169 116.037 18.0949 116.713 18.0949 116.713C18.0949 116.713 16.6909 117.805 15.9109 118.611C15.1569 119.417 15.2869 120.795 15.2869 121.159C15.2869 121.523 15.7289 122.095 15.9889 122.095C16.2229 122.095 17.8869 121.783 18.7189 121.107C19.5509 120.431 19.5769 119.001 19.7849 118.377C19.9929 117.753 21.3969 115.907 21.3969 115.907C21.3969 115.907 22.1509 115.829 22.2289 115.075C22.3069 114.321 22.4629 112.969 22.5409 112.683C22.6189 112.397 25.5049 107.717 26.1549 104.883C26.8049 102.049 28.8329 97.811 29.5609 95.965C30.2889 94.093 31.8489 90.297 31.8489 90.297L32.1609 90.193C32.1609 90.193 31.5629 98.409 31.4069 100.983C31.2249 103.557 31.1989 104.233 31.1989 107.639C31.1989 111.045 32.5509 116.661 32.5509 116.661C32.5509 116.661 32.5509 118.325 32.5509 118.429C32.5509 118.533 32.8369 118.637 33.3569 118.663C33.8769 118.689 35.3849 118.715 35.7749 118.949C36.1649 119.183 37.6989 119.365 39.2849 119.287C40.8709 119.209 41.7029 118.949 41.5209 118.637C41.3389 118.325 38.6349 117.259 38.1669 116.973C37.7249 116.687 36.6849 116.011 36.6849 116.011C36.6849 116.011 36.7629 115.127 36.5029 114.711C36.2689 114.295 36.1649 114.321 36.1649 113.879C36.1649 113.437 37.1529 107.561 37.4389 104.779C37.7249 101.997 39.2069 98.019 39.3109 95.055C39.4149 92.091 39.1289 89.803 38.8949 86.423C38.6609 83.043 37.8289 80.469 37.8289 80.469L25.0889 80.209Z" fill="#263238" stroke="#263238" stroke-width="0.26" stroke-miterlimit="10" stroke-linecap="round" stroke-linejoin="round"/>
<path d="M36.2963 80.4178L31.4863 80.3398V81.4838H36.2963V80.4178Z" fill="#595959" stroke="#263238" stroke-width="0.26" stroke-miterlimit="10" stroke-linecap="round" stroke-linejoin="round"/>
<path d="M36.8682 81.4835H38.0902C37.9342 80.8335 37.8042 80.4435 37.8042 80.4435L36.8682 80.4175V81.4835Z" fill="#595959" stroke="#263238" stroke-width="0.26" stroke-miterlimit="10" stroke-linecap="round" stroke-linejoin="round"/>
<path d="M27.3779 81.4837H30.3159V80.3137L27.3779 80.2617V81.4837Z" fill="#595959" stroke="#263238" stroke-width="0.26" stroke-miterlimit="10" stroke-linecap="round" stroke-linejoin="round"/>
<path d="M26.7802 80.2618L25.0902 80.2358C25.0902 80.2358 24.9342 80.7298 24.7002 81.5098H26.7802V80.2618Z" fill="#595959" stroke="#263238" stroke-width="0.26" stroke-miterlimit="10" stroke-linecap="round" stroke-linejoin="round"/>
<path d="M35.047 80.3911H33.123V81.4571H35.047V80.3911Z" fill="white" stroke="#263238" stroke-width="0.26" stroke-miterlimit="10" stroke-linecap="round" stroke-linejoin="round"/>
<path d="M42.3528 84.9146C42.3528 84.9146 42.9768 87.5665 42.7948 89.1785C42.7168 89.8025 41.9108 91.5965 41.7288 91.7005C41.5468 91.8045 41.2088 91.7005 41.2088 91.7005C41.2088 91.7005 41.4948 90.9465 41.5208 90.6605C41.5468 90.3745 41.5988 89.6206 41.5988 89.6206C41.5988 89.6206 41.0788 90.7125 40.8968 90.8945C40.7148 91.0765 40.1948 91.4925 40.0908 91.4925C39.9868 91.4925 39.8568 91.4145 39.7788 91.3105C39.7008 91.2065 40.0648 90.9725 40.2208 90.5825C40.4028 90.1925 40.6628 89.4906 40.6628 89.4906C40.6628 89.4906 40.1168 90.1925 39.8308 90.3745C39.5448 90.5825 39.0248 90.8165 38.9468 90.8165C38.8428 90.8165 38.6348 90.4265 38.7388 90.4005C38.8428 90.3745 39.7008 89.8805 39.8048 89.6985C39.9088 89.5165 40.1168 89.2825 40.1168 89.2825C40.1168 89.2825 39.0508 89.6985 38.8688 89.6985C38.6868 89.6985 38.6348 89.4125 38.6348 89.4125L39.7788 88.8145L40.0648 88.1125C40.0648 88.1125 39.8308 87.2806 40.0648 86.5006C40.2988 85.6946 40.4028 85.1485 40.4028 85.1485L42.3528 84.9146Z" fill="white" stroke="#263238" stroke-width="0.26" stroke-miterlimit="10" stroke-linecap="round" stroke-linejoin="round"/>
<path d="M41.1562 86.0327C41.1562 86.0327 41.1822 87.1767 41.3902 87.4107C41.5982 87.6447 41.9882 87.9307 41.9882 88.1647C41.9882 88.3987 41.5982 89.7767 41.7022 89.8807C41.8062 89.9847 42.0922 90.0887 42.1962 89.7767C42.3002 89.4647 42.6122 88.1647 42.6382 87.4627" fill="white"/>
<path d="M41.1562 86.0327C41.1562 86.0327 41.1822 87.1767 41.3902 87.4107C41.5982 87.6447 41.9882 87.9307 41.9882 88.1647C41.9882 88.3987 41.5982 89.7767 41.7022 89.8807C41.8062 89.9847 42.0922 90.0887 42.1962 89.7767C42.3002 89.4647 42.6122 88.1647 42.6382 87.4627" stroke="#263238" stroke-width="0.26" stroke-miterlimit="10" stroke-linecap="round" stroke-linejoin="round"/>
<path d="M39.4148 66.014C39.4148 66.014 40.3508 71.63 40.4548 73.32C40.5588 75.01 40.5588 76.284 40.5588 76.284L42.3528 84.916L40.4288 85.228C40.4288 85.228 38.1408 80.574 37.6988 80.028C37.2568 79.482 36.9968 78.442 37.1788 76.96C37.3608 75.478 37.2048 67.366 37.5688 66.404C37.9068 65.416 39.0508 65.52 39.4148 66.014Z" fill="white" stroke="#263238" stroke-width="0.26" stroke-miterlimit="10" stroke-linecap="round" stroke-linejoin="round"/>
<path d="M40.1689 84.6561L42.1189 84.1621" stroke="#263238" stroke-width="0.26" stroke-miterlimit="10" stroke-linecap="round" stroke-linejoin="round"/>
<path d="M28.391 60.3452C28.391 60.3452 20.851 63.4912 20.487 63.6212C20.149 63.7512 19.889 63.6212 19.733 64.3232C19.551 65.0252 16.691 77.3232 16.847 78.2852C16.977 79.2472 19.083 87.6972 19.083 87.6972L21.475 87.2812L21.761 77.1152L23.035 73.8652C23.035 73.8652 24.725 78.1032 24.699 78.4412C24.673 78.7792 24.257 79.5852 24.491 80.0272C24.725 80.4692 25.011 80.6512 25.011 80.6512H38.141C38.141 80.6512 38.973 80.3652 38.999 80.0012C39.025 79.6112 38.791 78.3372 38.791 78.3372C38.791 78.3372 39.961 73.7092 39.961 70.5112C39.961 67.3132 39.571 64.6612 39.077 63.8812C38.557 63.1272 36.685 62.3732 35.021 61.7752C33.331 61.1772 31.927 60.6312 30.393 60.5012C28.833 60.3972 28.391 60.3452 28.391 60.3452Z" fill="white" stroke="#263238" stroke-width="0.26" stroke-miterlimit="10" stroke-linecap="round" stroke-linejoin="round"/>
<path d="M34.1113 62.9453C34.1113 62.9453 35.2813 68.1973 35.2813 71.1613C35.2813 74.1253 35.3593 77.6353 35.5153 78.2073C35.6713 78.7793 35.9053 79.7153 35.3593 80.3653" stroke="#263238" stroke-width="0.26" stroke-miterlimit="10" stroke-linecap="round" stroke-linejoin="round"/>
<path d="M23.0088 73.8655L25.1148 68.7695" stroke="#263238" stroke-width="0.26" stroke-miterlimit="10" stroke-linecap="round" stroke-linejoin="round"/>
<path d="M24.0752 71.5247L26.0512 69.0547" stroke="#263238" stroke-width="0.26" stroke-miterlimit="10" stroke-linecap="round" stroke-linejoin="round"/>
<path d="M18.8232 86.6317L21.4492 86.3457" stroke="#263238" stroke-width="0.26" stroke-miterlimit="10" stroke-linecap="round" stroke-linejoin="round"/>
<path d="M35.5677 61.3335L36.3477 63.0235L34.5537 62.0095L35.5677 61.3335Z" fill="white" stroke="#263238" stroke-width="0.26" stroke-miterlimit="10" stroke-linecap="round" stroke-linejoin="round"/>
<path d="M34.1123 62.9454L35.5683 61.3333L34.1383 60.6313L34.1123 62.9454Z" fill="white" stroke="#263238" stroke-width="0.26" stroke-miterlimit="10" stroke-linecap="round" stroke-linejoin="round"/>
<path d="M34.345 49.8417C34.345 49.8417 35.281 50.8817 35.281 51.1937C35.281 51.5057 35.2029 51.9477 35.2029 51.9477C35.2029 51.9477 36.7629 52.7017 36.5809 53.0137C36.3989 53.3257 36.165 53.8977 36.165 53.8977C36.165 53.8977 37.439 56.6797 37.257 56.9657C37.075 57.2517 35.333 58.9417 35.021 59.7477C34.709 60.5537 34.085 62.9197 34.085 62.9197L28.157 59.6437C28.157 59.6437 28.885 58.4737 28.911 57.6677C28.937 56.8617 29.041 56.2637 28.911 55.7697C28.781 55.2757 28.053 54.0537 27.975 52.8317C27.897 51.6357 29.223 50.2057 30.939 49.3737C32.707 48.5936 34.345 49.8417 34.345 49.8417Z" fill="white" stroke="#263238" stroke-width="0.26" stroke-miterlimit="10" stroke-linecap="round" stroke-linejoin="round"/>
<path d="M33.5127 54.7041C33.5127 54.7041 34.1627 55.5101 35.1767 55.0421" stroke="#263238" stroke-width="0.26" stroke-miterlimit="10" stroke-linecap="round" stroke-linejoin="round"/>
<path d="M34.2931 52.5198C34.3711 52.7278 34.3451 52.9358 34.2151 52.9878C34.0851 53.0398 33.9031 52.9358 33.8251 52.7278C33.7471 52.5198 33.7731 52.3118 33.9031 52.2598C34.0331 52.2078 34.2151 52.3118 34.2931 52.5198Z" fill="#263238"/>
<path d="M32.8623 52.3637C32.8623 52.3637 33.2003 51.4797 34.1363 51.6097" stroke="#263238" stroke-width="0.52" stroke-miterlimit="10" stroke-linecap="round" stroke-linejoin="round"/>
<path d="M30.2379 55.5613C30.2379 55.5613 31.1219 55.5613 31.1219 55.0673C31.1219 54.5733 30.4199 53.6113 30.6019 53.1433C30.7839 52.6493 31.5899 52.3113 31.3039 51.7913C30.9919 51.2713 30.3679 51.2713 30.7059 50.9333C31.0439 50.5953 33.5919 51.0373 34.4759 50.1013C35.3339 49.1653 35.6719 47.7613 35.0739 47.4753C34.4499 47.1893 33.6699 47.8913 33.6699 47.8913C33.6699 47.8913 33.2539 46.9293 32.0059 47.2673C30.7579 47.6053 29.0419 48.9573 28.0799 50.3093C27.1179 51.6613 26.7799 52.1293 27.1439 53.0393C27.5339 53.9233 28.7559 55.6133 29.2499 55.8993C29.7439 56.1853 30.2379 55.5613 30.2379 55.5613Z" fill="#263238" stroke="#263238" stroke-width="0.26" stroke-miterlimit="10" stroke-linecap="round" stroke-linejoin="round"/>
<path d="M30.8099 56.0031C30.8099 56.0031 29.8479 54.6251 29.0159 54.8071C28.1839 54.9891 28.3919 56.1851 28.9379 56.7311C29.4839 57.2771 30.4459 56.9131 30.6539 56.7571C30.6539 56.7571 31.4079 58.5771 32.1619 58.6551C32.9159 58.7331 35.0479 57.7971 35.0479 57.7971" fill="white"/>
<path d="M30.8099 56.0031C30.8099 56.0031 29.8479 54.6251 29.0159 54.8071C28.1839 54.9891 28.3919 56.1851 28.9379 56.7311C29.4839 57.2771 30.4459 56.9131 30.6539 56.7571C30.6539 56.7571 31.4079 58.5771 32.1619 58.6551C32.9159 58.7331 35.0479 57.7971 35.0479 57.7971" stroke="#263238" stroke-width="0.26" stroke-miterlimit="10" stroke-linecap="round" stroke-linejoin="round"/>
<path d="M33.0452 61.0732L34.1112 62.9452L32.0312 61.9052L33.0452 61.0732Z" fill="white" stroke="#263238" stroke-width="0.26" stroke-miterlimit="10" stroke-linecap="round" stroke-linejoin="round"/>
<path d="M28.2882 58.811L33.0462 61.073L31.9282 63.777L27.5342 60.449L28.2882 58.811Z" fill="white" stroke="#263238" stroke-width="0.26" stroke-miterlimit="10" stroke-linecap="round" stroke-linejoin="round"/>
<path d="M34.8395 81.8994C34.8395 81.8994 35.2815 84.7854 34.8135 86.3714" stroke="#5C656A" stroke-width="0.26" stroke-miterlimit="10" stroke-linecap="round" stroke-linejoin="round"/>
<path d="M33.2793 82.5757C33.2793 82.5757 33.7213 85.4357 33.5653 87.4377" stroke="#5C656A" stroke-width="0.26" stroke-miterlimit="10" stroke-linecap="round" stroke-linejoin="round"/>
<path d="M34.8659 86.8657C34.7619 86.9697 33.9819 87.3597 33.7739 87.8277C33.5659 88.3217 33.0459 89.1797 33.0459 89.1797" stroke="#5C656A" stroke-width="0.26" stroke-miterlimit="10" stroke-linecap="round" stroke-linejoin="round"/>
<path d="M29.4321 81.7437L28.4961 84.5517" stroke="#5C656A" stroke-width="0.26" stroke-miterlimit="10" stroke-linecap="round" stroke-linejoin="round"/>
<path d="M29.7959 81.7695L29.5879 86.2155" stroke="#5C656A" stroke-width="0.26" stroke-miterlimit="10" stroke-linecap="round" stroke-linejoin="round"/>
<path d="M37.2842 81.7437L37.8822 84.2917" stroke="#5C656A" stroke-width="0.26" stroke-miterlimit="10" stroke-linecap="round" stroke-linejoin="round"/>
<path d="M37.1539 81.7959C37.1539 81.7959 36.9199 84.2139 36.9199 84.3179" stroke="#5C656A" stroke-width="0.26" stroke-miterlimit="10" stroke-linecap="round" stroke-linejoin="round"/>
<path d="M22.5146 91.624H17.5746C17.3666 91.624 17.1846 91.806 17.1846 92.014V94.042C17.1846 94.25 17.3666 94.432 17.5746 94.432H18.1466C17.9386 94.432 17.7566 94.25 17.7566 94.042V92.716C17.7566 92.508 17.9386 92.326 18.1466 92.326H21.9426C22.1506 92.326 22.3326 92.508 22.3326 92.716V94.042C22.3326 94.25 22.1506 94.432 21.9426 94.432H22.5146C22.7226 94.432 22.9046 94.25 22.9046 94.042V92.014C22.9046 91.806 22.7226 91.624 22.5146 91.624Z" fill="#263238" stroke="#263238" stroke-width="0.26" stroke-miterlimit="10" stroke-linecap="round" stroke-linejoin="round"/>
<path d="M19.0833 87.6977C19.0833 87.6977 18.3553 90.5317 18.4853 90.9997C18.6153 91.4937 19.0053 91.7537 19.0313 91.8577C19.0573 91.9617 19.0573 92.1697 18.9013 92.2737C18.7193 92.3777 18.7193 92.3777 18.7193 92.3777C18.7193 92.3777 18.5893 92.3777 18.6933 92.5857C18.7453 92.6897 18.7973 92.8197 18.9013 92.8717C19.1353 92.9757 19.2653 92.7417 19.4733 92.7157C19.6553 92.6897 19.8113 92.8977 19.9933 92.8977C20.1753 92.8977 20.2793 92.6897 20.4873 92.7157C20.7213 92.7417 20.7993 93.0797 21.0853 92.9497C21.2153 92.8977 21.2933 92.7677 21.3973 92.7157C21.5793 92.6377 21.8133 92.6637 21.9693 92.5077C22.0993 92.3777 22.1513 92.1957 22.1773 92.0397C22.2293 91.6757 21.4233 87.2817 21.4233 87.2817L19.0833 87.6977Z" fill="white" stroke="#263238" stroke-width="0.26" stroke-miterlimit="10" stroke-linecap="round" stroke-linejoin="round"/>
<path d="M27.0912 105.039H12.3232C11.7512 105.039 11.2832 104.571 11.2832 103.999V94.5615C11.2832 93.9895 11.7512 93.5215 12.3232 93.5215H27.0912C27.6632 93.5215 28.1312 93.9895 28.1312 94.5615V103.999C28.1312 104.571 27.6632 105.039 27.0912 105.039Z" fill="#0085E5" stroke="#263238" stroke-width="0.26" stroke-miterlimit="10" stroke-linecap="round" stroke-linejoin="round"/>
<path d="M11.3086 94.5879L19.2906 100.204C19.7326 100.516 20.3306 100.516 20.7726 100.204L28.1046 94.8739" stroke="#263238" stroke-width="0.26" stroke-miterlimit="10" stroke-linecap="round" stroke-linejoin="round"/>
<path d="M20.6948 99.4756H19.3428V101.374H20.6948V99.4756Z" fill="white" stroke="#263238" stroke-width="0.26" stroke-miterlimit="10" stroke-linecap="round" stroke-linejoin="round"/>
</svg>
