<svg width="130" height="130" viewBox="0 0 130 130" fill="none" xmlns="http://www.w3.org/2000/svg">
<path d="M66.3435 112.066C90.8737 112.066 110.759 110.32 110.759 108.166C110.759 106.012 90.8737 104.266 66.3435 104.266C41.8134 104.266 21.9277 106.012 21.9277 108.166C21.9277 110.32 41.8134 112.066 66.3435 112.066Z" fill="#0085E5"/>
<path opacity="0.5" d="M66.3435 112.066C90.8737 112.066 110.759 110.32 110.759 108.166C110.759 106.012 90.8737 104.266 66.3435 104.266C41.8134 104.266 21.9277 106.012 21.9277 108.166C21.9277 110.32 41.8134 112.066 66.3435 112.066Z" fill="white"/>
<path d="M21.0518 58.8379V61.1441" stroke="#263238" stroke-width="0.26" stroke-miterlimit="10" stroke-linecap="round" stroke-linejoin="round"/>
<path d="M22.2056 59.9922H19.8994" stroke="#263238" stroke-width="0.26" stroke-miterlimit="10" stroke-linecap="round" stroke-linejoin="round"/>
<path d="M99.7461 39.0791V41.3853" stroke="#263238" stroke-width="0.26" stroke-miterlimit="10" stroke-linecap="round" stroke-linejoin="round"/>
<path d="M100.898 40.2334H98.5918" stroke="#263238" stroke-width="0.26" stroke-miterlimit="10" stroke-linecap="round" stroke-linejoin="round"/>
<path d="M66.9863 21.2256V23.5318" stroke="#263238" stroke-width="0.26" stroke-miterlimit="10" stroke-linecap="round" stroke-linejoin="round"/>
<path d="M68.1382 22.3779H65.832" stroke="#263238" stroke-width="0.26" stroke-miterlimit="10" stroke-linecap="round" stroke-linejoin="round"/>
<path d="M29.0264 84.666V86.9722" stroke="#263238" stroke-width="0.26" stroke-miterlimit="10" stroke-linecap="round" stroke-linejoin="round"/>
<path d="M30.1783 85.8184H27.8721" stroke="#263238" stroke-width="0.26" stroke-miterlimit="10" stroke-linecap="round" stroke-linejoin="round"/>
<path d="M98.7139 30.7652C98.7139 31.8182 97.8611 32.671 96.8081 32.671C95.7551 32.671 94.9023 31.8182 94.9023 30.7652C94.9023 29.7122 95.7551 28.8594 96.8081 28.8594C97.8585 28.8594 98.7139 29.7122 98.7139 30.7652Z" stroke="#263238" stroke-width="0.26" stroke-miterlimit="10" stroke-linecap="round" stroke-linejoin="round"/>
<path d="M17.1111 76.5559C18.0835 76.1531 18.5453 75.0382 18.1425 74.0657C17.7397 73.0933 16.6248 72.6315 15.6524 73.0343C14.6799 73.4371 14.2181 74.552 14.621 75.5244C15.0238 76.4969 16.1386 76.9587 17.1111 76.5559Z" stroke="#263238" stroke-width="0.26" stroke-miterlimit="10" stroke-linecap="round" stroke-linejoin="round"/>
<path d="M107.38 50.2653C107.38 50.5045 107.185 50.6995 106.946 50.6995C106.707 50.6995 106.512 50.5045 106.512 50.2653C106.512 50.0261 106.707 49.8311 106.946 49.8311C107.185 49.8337 107.38 50.0261 107.38 50.2653Z" stroke="#263238" stroke-width="0.26" stroke-miterlimit="10" stroke-linecap="round" stroke-linejoin="round"/>
<path d="M41.2541 44.025C41.2541 44.2642 41.0591 44.4592 40.8199 44.4592C40.5807 44.4592 40.3857 44.2642 40.3857 44.025C40.3857 43.7858 40.5807 43.5908 40.8199 43.5908C41.0591 43.5908 41.2541 43.7858 41.2541 44.025Z" stroke="#263238" stroke-width="0.26" stroke-miterlimit="10" stroke-linecap="round" stroke-linejoin="round"/>
<path d="M114.119 69.5954L114.127 69.5824C114.127 69.5824 114.122 69.5824 114.111 69.5798C114.109 69.572 114.106 69.5668 114.106 69.5668L114.098 69.5798C113.737 69.5434 109.995 69.2236 106.582 70.9968C107.905 69.2886 108.794 67.0786 108.513 64.2784C107.689 56.039 99.9126 51.32 99.3146 50.969V50.9482C99.3146 50.9482 99.3068 50.9534 99.2964 50.9586C99.2834 50.9508 99.2782 50.9482 99.2782 50.9482V50.969C98.6802 51.32 90.9036 56.039 90.0794 64.2784C89.9 66.0776 90.2016 67.6298 90.7918 68.9662C86.4134 66.348 81.3044 66.79 80.8338 66.8368L80.8234 66.8212C80.8234 66.8212 80.8208 66.8264 80.8156 66.8368C80.8052 66.8368 80.7974 66.8394 80.7974 66.8394L80.8078 66.855C80.5764 67.388 77.654 74.4132 81.1666 80.3854C84.3074 85.7258 90.8932 84.314 92.6794 83.8122C94.1822 85.3904 96.9226 88.9836 98.1342 95.1144H96.426L97.2476 106.726H101.085L101.907 95.1144H99.897C101.08 89.9508 103.051 86.082 104.801 83.4352C106.592 83.8798 111.438 84.6339 113.828 80.5726C116.68 75.7288 114.306 70.0296 114.119 69.5954ZM99.1794 69.5512L95.1234 63.917C95.087 63.8676 95.1 63.7974 95.1494 63.7636C95.1988 63.7272 95.269 63.7402 95.3028 63.7896L99.1872 69.1846V63.4776L99.1794 63.4854L95.1234 57.8512C95.087 57.8018 95.1 57.7316 95.1494 57.6978C95.1988 57.6614 95.269 57.6744 95.3028 57.7238L99.1872 63.1188V54.8118C99.1872 54.752 99.2366 54.7026 99.2964 54.7026C99.3562 54.7026 99.4056 54.752 99.4056 54.8118V62.8432L103.618 57.5002C103.657 57.4534 103.724 57.4456 103.774 57.482C103.82 57.521 103.831 57.5886 103.792 57.638L99.4056 63.1994V68.909L103.618 63.566C103.657 63.5192 103.724 63.5088 103.774 63.5478C103.82 63.5842 103.831 63.6544 103.792 63.7038L99.4056 69.2652V74.0934L103.618 68.7504C103.657 68.7036 103.724 68.6958 103.774 68.7322C103.82 68.7686 103.831 68.8388 103.792 68.8882L99.4056 74.4496V74.5536H99.0468L95.1234 69.104C95.087 69.0546 95.1 68.9844 95.1494 68.9506C95.1988 68.9142 95.269 68.9272 95.3028 68.9766L99.1872 74.3716V69.546L99.1794 69.5512ZM92.734 83.3027L92.3336 82.7566L86.6266 81.1654C86.5772 81.1524 86.5486 81.1004 86.5616 81.051C86.5746 81.0016 86.6266 80.973 86.676 80.986L92.1594 82.5148L89.7752 79.2544L84.0682 77.6632C84.0188 77.6502 83.9902 77.5982 84.0032 77.5488C84.0162 77.4994 84.0682 77.4708 84.1176 77.4838L89.601 79.0126L86.7826 75.1568L81.0756 73.5656C81.0262 73.5526 80.9976 73.5006 81.0106 73.4512C81.0236 73.4018 81.0756 73.3732 81.125 73.3862L86.6084 74.915L82.6434 69.4914C82.6122 69.4498 82.6226 69.3926 82.6642 69.3614C82.7058 69.3302 82.763 69.3406 82.7942 69.3822L86.8944 74.993L86.8554 69.4316C86.8554 69.3796 86.897 69.338 86.9464 69.338C86.9984 69.338 87.04 69.3796 87.04 69.429L87.0816 75.2374L87.0738 75.2348L89.8922 79.088L89.8532 73.5266C89.8532 73.4746 89.8948 73.433 89.9442 73.433C89.9962 73.433 90.0378 73.4746 90.0378 73.524L90.0794 79.3324L90.0716 79.3298L92.4532 82.5876L92.4142 77.0262C92.4142 76.9742 92.4558 76.9326 92.5052 76.9326C92.5572 76.9326 92.5988 76.9742 92.5988 77.0236L92.6404 82.832L92.6326 82.8294L92.9732 83.2974H92.734V83.3027ZM93.384 83.3027C94.2186 82.0364 96.6184 77.879 95.1858 73.8776C96.6262 74.8344 98.0016 75.4194 98.7426 75.6976V93.7494C97.427 88.2192 94.944 84.899 93.4308 83.3027H93.384ZM99.624 92.6392V75.7808C100.232 75.565 101.569 75.0346 103.027 74.122C100.737 77.7932 103.303 82.0338 103.979 83.0322C102.468 85.3306 100.82 88.5104 99.624 92.6392ZM113.903 75.0398L109.273 76.332L106.985 79.4624L111.433 78.2222C111.472 78.2118 111.514 78.2352 111.524 78.2742C111.535 78.3132 111.511 78.3548 111.472 78.3652L106.842 79.6574L104.907 82.3042L109.356 81.064C109.395 81.0536 109.436 81.077 109.447 81.116C109.457 81.155 109.434 81.1966 109.395 81.207L104.764 82.4992L104.52 82.832C104.476 82.806 104.431 82.78 104.39 82.754L104.53 82.5642L104.522 82.5668L104.556 77.8556C104.556 77.814 104.59 77.7802 104.632 77.7802C104.673 77.7802 104.707 77.814 104.707 77.8556L104.676 82.3666L106.608 79.7224L106.6 79.725L106.634 75.0138C106.634 74.9722 106.667 74.9384 106.709 74.9384C106.751 74.9384 106.784 74.9722 106.784 75.0138L106.753 79.5248L109.039 76.397L109.031 76.3996L109.065 71.6884C109.065 71.6468 109.098 71.613 109.14 71.613C109.182 71.613 109.215 71.6468 109.215 71.6884L109.184 76.1994L112.512 71.6468C112.536 71.613 112.582 71.6052 112.616 71.6312C112.65 71.6546 112.658 71.7014 112.632 71.7352L109.416 76.137L113.864 74.8968C113.903 74.8864 113.945 74.9098 113.955 74.9488C113.968 74.9878 113.945 75.0294 113.903 75.0398Z" fill="#263238"/>
<path d="M88.6311 107.818H48.4845C47.5147 107.818 46.7295 107.032 46.7295 106.063V30.8966C46.7295 29.9268 47.5147 29.1416 48.4845 29.1416H88.6311C89.6009 29.1416 90.3861 29.9268 90.3861 30.8966V106.063C90.3861 107.032 89.5983 107.818 88.6311 107.818Z" fill="#263238" stroke="#263238" stroke-width="0.26" stroke-miterlimit="10" stroke-linecap="round" stroke-linejoin="round"/>
<path d="M87.2473 107.818H47.1007C46.1309 107.818 45.3457 107.032 45.3457 106.063V30.8966C45.3457 29.9268 46.1309 29.1416 47.1007 29.1416H87.2473C88.2171 29.1416 89.0023 29.9268 89.0023 30.8966V106.063C88.9997 107.032 88.2145 107.818 87.2473 107.818Z" fill="white"/>
<path d="M88.9997 58.8281L50.6133 107.817H87.2473C88.2171 107.817 89.0023 107.032 89.0023 106.062V58.8281H88.9997Z" fill="#0085E5"/>
<path opacity="0.5" d="M88.9997 58.8281L50.6133 107.817H87.2473C88.2171 107.817 89.0023 107.032 89.0023 106.062V58.8281H88.9997Z" fill="white"/>
<path d="M87.2473 107.818H47.1007C46.1309 107.818 45.3457 107.032 45.3457 106.063V30.8966C45.3457 29.9268 46.1309 29.1416 47.1007 29.1416H87.2473C88.2171 29.1416 89.0023 29.9268 89.0023 30.8966V106.063C88.9997 107.032 88.2145 107.818 87.2473 107.818Z" stroke="#263238" stroke-width="0.26" stroke-miterlimit="10" stroke-linecap="round" stroke-linejoin="round"/>
<path d="M70.1906 33.8433H64.7566C64.4498 33.8433 64.2002 33.5937 64.2002 33.2869C64.2002 32.9801 64.4498 32.7305 64.7566 32.7305H70.1906C70.4974 32.7305 70.747 32.9801 70.747 33.2869C70.747 33.5937 70.4974 33.8433 70.1906 33.8433Z" fill="#263238" stroke="#263238" stroke-width="0.26" stroke-miterlimit="10" stroke-linecap="round" stroke-linejoin="round"/>
<path d="M86.2413 100.784H48.1045V33.9072H57.1447L58.1613 34.7522C58.5175 35.046 58.9647 35.2072 59.4249 35.2072H75.3733C75.8543 35.2072 76.3197 35.033 76.6811 34.7158L77.6015 33.9072H86.2439V100.784H86.2413Z" fill="#263238" stroke="#263238" stroke-width="0.26" stroke-miterlimit="10" stroke-linecap="round" stroke-linejoin="round"/>
<path d="M55.2607 86.3662H79.0871" stroke="white" stroke-width="0.26" stroke-miterlimit="10" stroke-linecap="round" stroke-linejoin="round"/>
<path d="M55.2607 89.502H79.0871" stroke="white" stroke-width="0.26" stroke-miterlimit="10" stroke-linecap="round" stroke-linejoin="round"/>
<path d="M55.2607 92.6377H79.0871" stroke="white" stroke-width="0.26" stroke-miterlimit="10" stroke-linecap="round" stroke-linejoin="round"/>
<path d="M57.467 57.2522C56.154 59.1528 55.3818 61.4616 55.3818 63.9472C55.3818 70.4576 60.6598 75.7382 67.1728 75.7382C73.6832 75.7382 78.9638 70.4602 78.9638 63.9472C78.9638 57.4368 73.6858 52.1562 67.1728 52.1562C66.437 52.1562 65.7168 52.2238 65.0174 52.3538" fill="#FFA000"/>
<path d="M57.467 57.2522C56.154 59.1528 55.3818 61.4616 55.3818 63.9472C55.3818 70.4576 60.6598 75.7382 67.1728 75.7382C73.6832 75.7382 78.9638 70.4602 78.9638 63.9472C78.9638 57.4368 73.6858 52.1562 67.1728 52.1562C66.437 52.1562 65.7168 52.2238 65.0174 52.3538" stroke="white" stroke-width="0.26" stroke-miterlimit="10" stroke-linecap="round" stroke-linejoin="round"/>
<path d="M59.4686 55.0244C59.0708 55.3676 58.699 55.7368 58.3506 56.1294L59.4686 55.0244Z" fill="#FFA000"/>
<path d="M59.4686 55.0244C59.0708 55.3676 58.699 55.7368 58.3506 56.1294" stroke="white" stroke-width="0.26" stroke-miterlimit="10" stroke-linecap="round" stroke-linejoin="round"/>
<path d="M76.3727 67.8707C78.5375 62.7872 76.1716 56.9113 71.0881 54.7464C66.0047 52.5815 60.1287 54.9475 57.9638 60.0309C55.7989 65.1144 58.1649 70.9903 63.2484 73.1552C68.3318 75.3201 74.2078 72.9542 76.3727 67.8707Z" fill="#FFA000"/>
<path d="M62.5527 62.9131L66.3487 67.2265L72.5575 58.4307" fill="#FFA000"/>
<path d="M62.5527 62.9131L66.3487 67.2265L72.5575 58.4307" stroke="#263238" stroke-width="1.56" stroke-miterlimit="10" stroke-linecap="round" stroke-linejoin="round"/>
<path d="M76.6811 34.7139C76.3197 35.0311 75.8543 35.2053 75.3733 35.2053H59.4249C58.9621 35.2053 58.5149 35.0441 58.1613 34.7503L57.1447 33.9053H48.1045V40.7485H86.2413V33.9053H77.5989L76.6811 34.7139Z" fill="#0085E5" stroke="#263238" stroke-width="0.26" stroke-miterlimit="10" stroke-linecap="round" stroke-linejoin="round"/>
<path d="M68.3927 102.847C68.3927 102.369 68.0053 101.981 67.5269 101.981C67.0485 101.981 66.6611 102.369 66.6611 102.847C66.6611 103.326 67.0485 103.713 67.5269 103.713C68.0053 103.713 68.3927 103.326 68.3927 102.847Z" fill="#263238" stroke="#263238" stroke-width="0.26" stroke-miterlimit="10" stroke-linecap="round" stroke-linejoin="round"/>
<path d="M34.4687 76.2475L31.0679 106.665C31.0679 106.665 28.5745 108.833 28.7929 109.709C29.0113 110.586 31.8921 109.197 32.2873 108.467C32.6851 107.736 32.8852 106.571 32.8852 106.571L40.0456 83.6991L45.5525 108.235C45.5525 108.235 47.9054 110.157 49.2054 110.092C50.5028 110.027 50.0452 109.517 49.3016 108.578C48.5606 107.64 46.8836 107.104 46.8836 107.104L46.0568 75.4805L34.4687 76.2475Z" fill="#263238" stroke="#263238" stroke-width="0.26" stroke-miterlimit="10" stroke-linecap="round" stroke-linejoin="round"/>
<path d="M45.8529 74.9454L34.4277 75.5254L34.5068 77.0834L45.932 76.5034L45.8529 74.9454Z" fill="#263238" stroke="#263238" stroke-width="0.26" stroke-miterlimit="10" stroke-linecap="round" stroke-linejoin="round"/>
<path d="M41.5201 75.9336C41.5409 76.321 41.0469 76.659 40.4203 76.6902C39.7937 76.7214 39.2685 76.4354 39.2477 76.048C39.2269 75.6606 39.7209 75.3226 40.3475 75.2914C40.9741 75.2602 41.4993 75.5488 41.5201 75.9336Z" fill="white"/>
<path d="M39.5618 59.9492L35.2666 61.2102L35.7996 75.5648L45.8746 75.3126L44.6006 60.4744L39.5618 59.9492Z" fill="white" stroke="#263238" stroke-width="0.26" stroke-miterlimit="10" stroke-linecap="round" stroke-linejoin="round"/>
<path d="M37.685 60.1094L37.1052 84.6092L31.6348 81.9598L34.0398 74.2222L32.3992 61.1572L37.685 60.1094Z" fill="#FFA000" stroke="#263238" stroke-width="0.26" stroke-miterlimit="10" stroke-linecap="round" stroke-linejoin="round"/>
<path d="M42.0322 59.8896L45.0898 84.2048L50.2664 81.0146L47.0892 73.5605L47.396 60.3966L42.0322 59.8896Z" fill="#FFA000" stroke="#263238" stroke-width="0.26" stroke-miterlimit="10" stroke-linecap="round" stroke-linejoin="round"/>
<path d="M38.7773 62.8528L39.6301 64.2412L38.9489 73.908L40.5661 75.8216L41.4033 73.5232L40.1085 64.2594L40.9067 62.9178L39.7471 61.415L38.7773 62.8528Z" fill="#263238" stroke="#263238" stroke-width="0.26" stroke-miterlimit="10" stroke-linecap="round" stroke-linejoin="round"/>
<path d="M39.8326 62.668L38.2232 63.877L36.9336 60.7336L37.659 59.6104L41.598 59.4102L42.5288 60.666L41.7618 63.526L39.8326 62.668Z" fill="white" stroke="#263238" stroke-width="0.26" stroke-miterlimit="10" stroke-linecap="round" stroke-linejoin="round"/>
<path d="M37.9863 58.4022L38.3503 60.4016L39.8323 62.6688L41.1921 59.996L41.1063 58.3086L37.9863 58.4022Z" fill="white" stroke="#263238" stroke-width="0.26" stroke-miterlimit="10" stroke-linecap="round" stroke-linejoin="round"/>
<path d="M32.3991 61.1582L25.1035 69.9904L29.9525 75.7312L31.9051 74.4624L29.5079 69.5718L33.0855 66.9822L32.3991 61.1582Z" fill="#FFA000" stroke="#263238" stroke-width="0.26" stroke-miterlimit="10" stroke-linecap="round" stroke-linejoin="round"/>
<path d="M31.906 74.4619L32.1972 75.0963L30.554 76.0271L30.333 75.5175L31.906 74.4619Z" fill="white" stroke="#263238" stroke-width="0.26" stroke-miterlimit="10" stroke-linecap="round" stroke-linejoin="round"/>
<path d="M32.1961 75.0957L33.8705 77.2875L33.3193 77.9661L32.9189 77.7919L32.1077 78.4835C32.1077 78.4835 31.5123 78.3197 31.4395 78.1273C31.3641 77.9349 30.5581 77.4565 30.5425 77.1315C30.5269 76.8065 30.5503 76.0239 30.5503 76.0239L32.1961 75.0957Z" fill="white" stroke="#263238" stroke-width="0.26" stroke-miterlimit="10" stroke-linecap="round" stroke-linejoin="round"/>
<path d="M51.46 62.1201C51.46 62.1201 51.6446 61.6209 51.525 61.3115C51.4054 61.0021 51.1402 59.9309 51.1922 59.5773C51.2442 59.2237 51.7772 58.7063 51.824 58.2487C51.8708 57.7911 51.8136 57.3725 51.837 57.1281C51.8604 56.8811 52.1646 56.6913 52.4246 56.9929C52.6846 57.2945 52.8406 57.6013 52.7158 57.9237C52.591 58.2461 52.5962 59.0157 52.5962 59.0157C52.5962 59.0157 53.0096 59.5903 53.2384 59.9647C53.4672 60.3391 53.4464 61.3193 53.293 61.7119C53.137 62.1045 52.7028 62.4763 52.7028 62.4763L52.7288 63.1549L51.46 62.1201Z" fill="white" stroke="#263238" stroke-width="0.26" stroke-miterlimit="10" stroke-linecap="round" stroke-linejoin="round"/>
<path d="M52.2195 58.4747C52.2195 58.4747 52.0375 59.0103 52.3573 59.1325C52.6797 59.2573 53.9849 59.4342 53.9979 59.013C54.0109 58.5918 54.0369 58.3812 53.8263 58.3916C53.6157 58.402 52.6355 58.3811 52.6355 58.3811C52.6355 58.3811 52.1805 58.3707 52.2195 58.4747Z" fill="white" stroke="#263238" stroke-width="0.26" stroke-miterlimit="10" stroke-linecap="round" stroke-linejoin="round"/>
<path d="M52.3674 61.0951C52.3674 61.0951 52.2374 61.4929 52.4688 61.5865C52.7002 61.6801 53.6415 61.8127 53.6493 61.5007C53.6597 61.1861 53.6752 61.0301 53.5244 61.0379C53.3736 61.0457 52.6665 61.0301 52.6665 61.0301C52.6665 61.0301 52.3388 61.0171 52.3674 61.0951Z" fill="white" stroke="#263238" stroke-width="0.26" stroke-miterlimit="10" stroke-linecap="round" stroke-linejoin="round"/>
<path d="M52.1927 60.2525C52.1927 60.2525 52.0419 60.7127 52.3097 60.8193C52.5775 60.9259 53.6669 61.0819 53.6773 60.7205C53.6877 60.3565 53.7085 60.1745 53.5343 60.1849C53.3601 60.1927 52.5411 60.1745 52.5411 60.1745C52.5411 60.1745 52.1589 60.1615 52.1927 60.2525Z" fill="white" stroke="#263238" stroke-width="0.26" stroke-miterlimit="10" stroke-linecap="round" stroke-linejoin="round"/>
<path d="M52.0916 59.4267C52.0916 59.4267 51.9096 59.9623 52.2294 60.0845C52.5518 60.2093 53.857 60.3861 53.87 59.9649C53.883 59.5437 53.909 59.3331 53.6984 59.3435C53.4878 59.3539 52.5076 59.3331 52.5076 59.3331C52.5076 59.3331 52.0526 59.3253 52.0916 59.4267Z" fill="white" stroke="#263238" stroke-width="0.26" stroke-miterlimit="10" stroke-linecap="round" stroke-linejoin="round"/>
<path d="M51.3115 62.6523L51.5143 61.8359L52.9235 62.6757L52.6869 63.5623L51.3115 62.6523Z" fill="white" stroke="#263238" stroke-width="0.26" stroke-miterlimit="10" stroke-linecap="round" stroke-linejoin="round"/>
<path d="M47.3963 60.3955L50.0951 66.1363L51.4185 62.4417L52.7185 63.6767L51.3873 70.5277C51.2027 71.4767 49.9755 71.7445 49.4113 70.9593L47.2559 67.9511L47.3963 60.3955Z" fill="#FFA000" stroke="#263238" stroke-width="0.26" stroke-miterlimit="10" stroke-linecap="round" stroke-linejoin="round"/>
<path d="M36.7304 56.0679C36.7304 56.0679 36.187 55.4855 36.1142 55.9119C36.0414 56.3383 36.2676 57.0741 36.6082 57.3393C36.9488 57.6019 37.2556 57.1651 37.2556 57.1651L36.7304 56.0679Z" fill="white" stroke="#263238" stroke-width="0.26" stroke-miterlimit="10" stroke-linecap="round" stroke-linejoin="round"/>
<path d="M41.8916 55.8051C41.8916 55.8051 42.3752 55.1707 42.4896 55.5867C42.604 56.0027 42.4558 56.7593 42.1438 57.0557C41.8318 57.3521 41.4834 56.9491 41.4834 56.9491L41.8916 55.8051Z" fill="white" stroke="#263238" stroke-width="0.26" stroke-miterlimit="10" stroke-linecap="round" stroke-linejoin="round"/>
<path d="M36.9483 56.6626L36.4231 55.5654C36.4231 55.5654 35.8225 54.801 35.5729 53.5946C35.3233 52.3908 35.7419 51.3846 36.2879 51.0752C36.8339 50.7658 37.3097 50.8828 37.3097 50.8828C37.3097 50.8828 37.4137 50.1756 39.1167 49.5724C40.8197 48.9718 42.6995 50.0456 42.6709 50.4226C42.6423 50.7996 42.1821 50.9634 42.1821 50.9634C42.1821 50.9634 43.5185 51.4574 43.0349 52.0918C42.5513 52.7262 41.9091 52.9914 41.9091 52.9914C41.9091 52.9914 42.0781 53.5452 42.1457 53.9638C42.2133 54.3824 41.8363 56.1816 41.8363 56.1816L40.9107 53.6518L38.0143 53.8C38.0143 53.8 37.8427 55.0272 37.5359 55.464C37.2291 55.9008 37.2161 56.5586 37.2161 56.5586C37.2161 56.5586 37.1069 57.0292 36.9483 56.6626Z" fill="#263238" stroke="#263238" stroke-width="0.26" stroke-miterlimit="10" stroke-linecap="round" stroke-linejoin="round"/>
<path d="M37.4633 52.0947C37.4633 52.0947 37.4451 53.5949 37.2969 54.3515C37.1487 55.1081 36.6963 55.4123 36.6963 55.4123C36.6963 55.4123 37.0655 57.1257 37.5309 58.0383C37.9989 58.9509 38.9739 59.6971 39.9515 59.6009C40.9291 59.5047 41.7169 58.3867 41.8079 57.4455C41.9015 56.5043 41.4413 53.0151 41.4413 53.0151C41.4413 53.0151 38.3811 53.5481 37.4633 52.0947Z" fill="white" stroke="#263238" stroke-width="0.26" stroke-miterlimit="10" stroke-linecap="round" stroke-linejoin="round"/>
<path d="M37.7236 55.6119C37.7236 55.6119 38.2722 55.2791 38.7636 55.5599" stroke="#263238" stroke-width="0.26" stroke-miterlimit="10" stroke-linecap="round" stroke-linejoin="round"/>
<path d="M37.6816 54.8331C37.6816 54.8331 37.7414 54.3079 38.6072 54.2637" stroke="#263238" stroke-width="0.26" stroke-miterlimit="10" stroke-linecap="round" stroke-linejoin="round"/>
<path d="M39.9932 54.1513C39.9932 54.1513 40.6744 53.8549 41.1372 54.4399" stroke="#263238" stroke-width="0.26" stroke-miterlimit="10" stroke-linecap="round" stroke-linejoin="round"/>
<path d="M39.6886 54.9902C39.6886 54.9902 39.829 56.025 39.8342 56.155C39.842 56.285 40.2762 56.3058 40.1592 56.5736C40.0422 56.8414 39.6652 57.1196 39.3506 56.9194" stroke="#263238" stroke-width="0.26" stroke-miterlimit="10" stroke-linecap="round" stroke-linejoin="round"/>
<path d="M40.1774 57.791C40.1774 57.791 39.8472 58.1108 39.1816 57.8404" stroke="#263238" stroke-width="0.26" stroke-miterlimit="10" stroke-linecap="round" stroke-linejoin="round"/>
<path d="M40.8354 55.3238C40.8458 55.5162 40.7548 55.6748 40.6352 55.6826C40.5156 55.6878 40.4116 55.5396 40.4012 55.3472C40.3908 55.1548 40.4818 54.9962 40.6014 54.9884C40.721 54.9832 40.825 55.134 40.8354 55.3238Z" fill="#263238"/>
</svg>
