<svg width="130" height="130" viewBox="0 0 130 130" fill="none" xmlns="http://www.w3.org/2000/svg">
<path d="M65.0016 112.115C91.9398 112.115 113.778 110.762 113.778 109.092C113.778 107.422 91.9398 106.068 65.0016 106.068C38.0633 106.068 16.2256 107.422 16.2256 109.092C16.2256 110.762 38.0633 112.115 65.0016 112.115Z" fill="#0085E5"/>
<path opacity="0.7" d="M65.0016 112.115C91.9398 112.115 113.778 110.762 113.778 109.092C113.778 107.422 91.9398 106.068 65.0016 106.068C38.0633 106.068 16.2256 107.422 16.2256 109.092C16.2256 110.762 38.0633 112.115 65.0016 112.115Z" fill="white"/>
<path d="M75.6811 29.4409L75.5381 30.6317L76.1855 30.8631C76.1933 31.2713 76.2505 31.6769 76.3545 32.0695L75.7929 32.4751L76.2635 33.5801L76.9421 33.4527C77.1553 33.8011 77.4049 34.1235 77.6909 34.4121L77.4049 35.0465L78.3669 35.7667L78.8869 35.3247C79.2431 35.5223 79.6227 35.6757 80.0179 35.7823L80.0907 36.4713L81.2815 36.6143L81.5129 35.9669C81.9211 35.9591 82.3267 35.9019 82.7193 35.7979L83.1275 36.3569L84.2299 35.8837L84.1051 35.2077C84.4535 34.9971 84.7759 34.7449 85.0645 34.4589L85.6989 34.7423L86.4165 33.7829L85.9719 33.2603C86.1695 32.9041 86.3229 32.5245 86.4295 32.1293L87.1185 32.0565L87.2615 30.8657L86.6141 30.6343C86.6063 30.2261 86.5491 29.8205 86.4451 29.4279L87.0067 29.0197L86.5335 27.9147L85.8575 28.0395C85.6443 27.6911 85.3921 27.3713 85.1061 27.0827L85.3895 26.4483L84.4275 25.7307L83.9049 26.1753C83.5487 25.9777 83.1717 25.8243 82.7817 25.7177L82.7089 25.0287L81.5181 24.8857L81.2867 25.5331C80.8785 25.5435 80.4729 25.6007 80.0777 25.7021L79.6695 25.1431L78.5645 25.6137L78.6893 26.2897C78.3409 26.5003 78.0185 26.7525 77.7299 27.0385L77.0955 26.7577L76.3779 27.7197L76.8225 28.2423C76.6249 28.6011 76.4715 28.9807 76.3649 29.3733L75.6811 29.4409ZM78.4449 30.3951C78.6399 28.7623 80.1219 27.5949 81.7547 27.7899C83.3875 27.9849 84.5549 29.4669 84.3599 31.0997C84.1649 32.7325 82.6829 33.8999 81.0501 33.7049C79.4173 33.5099 78.2499 32.0279 78.4449 30.3951Z" stroke="#263238" stroke-width="0.408486" stroke-miterlimit="10" stroke-linejoin="round"/>
<path d="M44.6183 58.7431L44.4883 59.8221L45.0733 60.0301C45.0811 60.3993 45.1305 60.7659 45.2267 61.1247L44.7197 61.4939L45.1461 62.4949L45.7597 62.3805C45.9521 62.6951 46.1809 62.9889 46.4383 63.2515L46.1809 63.8261L47.0545 64.4787L47.5251 64.0783C47.8501 64.2577 48.1933 64.3955 48.5495 64.4943L48.6145 65.1183L49.6935 65.2483L49.9015 64.6607C50.2707 64.6529 50.6373 64.6009 50.9961 64.5073L51.3653 65.0117L52.3637 64.5853L52.2519 63.9717C52.5665 63.7793 52.8603 63.5531 53.1229 63.2931L53.6975 63.5505L54.3475 62.6821L53.9445 62.2089C54.1239 61.8839 54.2617 61.5407 54.3579 61.1845L54.9819 61.1195L55.1119 60.0405L54.5269 59.8325C54.5191 59.4633 54.4671 59.0967 54.3735 58.7379L54.8831 58.3687L54.4541 57.3677L53.8405 57.4795C53.6481 57.1649 53.4193 56.8737 53.1593 56.6111L53.4141 56.0365L52.5405 55.3865L52.0673 55.7895C51.7449 55.6127 51.4043 55.4723 51.0481 55.3761L50.9831 54.7521L49.9041 54.6221L49.6961 55.2071C49.3269 55.2149 48.9577 55.2669 48.6015 55.3605L48.2323 54.8535L47.2313 55.2799L47.3431 55.8935C47.0285 56.0859 46.7347 56.3121 46.4721 56.5721L45.8975 56.3173L45.2475 57.1909L45.6505 57.6641C45.4737 57.9891 45.3333 58.3323 45.2345 58.6885L44.6183 58.7431ZM47.1221 59.6063C47.2989 58.1269 48.6431 57.0687 50.1225 57.2455C51.6019 57.4223 52.6601 58.7665 52.4833 60.2459C52.3065 61.7253 50.9623 62.7835 49.4829 62.6067C48.0035 62.4299 46.9479 61.0883 47.1221 59.6063Z" fill="#263238"/>
<path d="M99.6005 85.2137V82.7671L98.2329 82.4551C98.1185 81.6309 97.9053 80.8223 97.5985 80.0475L98.6359 79.0881L97.4113 76.9639L96.0697 77.3851C95.5549 76.7299 94.9673 76.1397 94.3173 75.6197L94.7411 74.2651L92.6169 73.0405L91.6679 74.0649C90.8957 73.7529 90.0897 73.5345 89.2655 73.4097L88.9509 72.0317H86.5043L86.1923 73.3993C85.3681 73.5137 84.5595 73.7269 83.7847 74.0337L82.8227 73.0015L80.7037 74.2261L81.1171 75.5651C80.4619 76.0773 79.8717 76.6649 79.3517 77.3149L77.9997 76.8963L76.7751 79.0153L77.8021 79.9669C77.4901 80.7391 77.2717 81.5451 77.1495 82.3693L75.7715 82.6839V85.1305L77.1391 85.4425C77.2561 86.2667 77.4667 87.0753 77.7735 87.8501L76.7335 88.8121L77.9581 90.9363L79.2971 90.5229C79.8119 91.1755 80.4021 91.7657 81.0547 92.2805L80.6361 93.6351L82.7603 94.8597L83.7119 93.8327C84.4789 94.1447 85.2823 94.3657 86.1013 94.4879L86.4133 95.8659H88.8625L89.1745 94.4983C89.9987 94.3813 90.8073 94.1655 91.5821 93.8613L92.5415 94.8961L94.6657 93.6715L94.2523 92.3325C94.9075 91.8203 95.4977 91.2327 96.0177 90.5827L97.3697 91.0013L98.5943 88.8771L97.5673 87.9255C97.8793 87.1533 98.0977 86.3473 98.2225 85.5231L99.6005 85.2137ZM95.3703 83.9501C95.3703 88.1907 91.9305 91.6305 87.6899 91.6305C83.4493 91.6305 80.0095 88.1907 80.0095 83.9501C80.0095 79.7095 83.4493 76.2697 87.6899 76.2697C91.9305 76.2697 95.3703 79.7069 95.3703 83.9501Z" fill="white"/>
<path d="M57.0915 24.478H50.7891V25.9314H57.0915V24.478Z" fill="#0085E5"/>
<path d="M54.9309 26.5786H50.7891V28.032H54.9309V26.5786Z" fill="#0085E5"/>
<path d="M53.1733 28.6797H50.7891V30.1331H53.1733V28.6797Z" fill="#0085E5"/>
<path opacity="0.9" d="M57.0915 24.478H50.7891V25.9314H57.0915V24.478Z" fill="white"/>
<path opacity="0.9" d="M54.9309 26.5786H50.7891V28.032H54.9309V26.5786Z" fill="white"/>
<path opacity="0.9" d="M53.1733 28.6797H50.7891V30.1331H53.1733V28.6797Z" fill="white"/>
<path d="M41.9819 40.5776H39.8447V44.956H41.9819V40.5776Z" fill="#0085E5"/>
<path d="M45.0679 42.082H42.9307V44.9576H45.0679V42.082Z" fill="#0085E5"/>
<path d="M48.1577 43.3018H46.0205V44.958H48.1577V43.3018Z" fill="#0085E5"/>
<path opacity="0.9" d="M41.9819 40.5776H39.8447V44.956H41.9819V40.5776Z" fill="white"/>
<path opacity="0.9" d="M45.0679 42.082H42.9307V44.9576H45.0679V42.082Z" fill="white"/>
<path opacity="0.2" d="M48.1577 43.3018H46.0205V44.958H48.1577V43.3018Z" fill="black"/>
<path d="M65.2442 48.2704H39.3664C37.874 48.2678 36.6676 47.0614 36.665 45.569V24.2048C36.6676 22.7124 37.874 21.506 39.3664 21.5034H65.2442C66.7366 21.506 67.943 22.7124 67.9456 24.2048V45.569C67.9456 47.0614 66.7366 48.2704 65.2442 48.2704ZM39.3664 21.7504C38.0066 21.753 36.9042 22.8554 36.9016 24.2152V45.5794C36.9042 46.9392 38.0066 48.0416 39.3664 48.0442H65.2442C66.604 48.0416 67.7064 46.9392 67.709 45.5794V24.2048C67.7064 22.845 66.604 21.7426 65.2442 21.74L39.3664 21.7504Z" fill="#263238"/>
<path d="M64.912 40.6968H55.6846V40.9334H64.912V40.6968Z" fill="#263238"/>
<path d="M64.912 41.687H55.6846V41.9236H64.912V41.687Z" fill="#263238"/>
<path d="M64.912 42.6753H55.6846V42.9119H64.912V42.6753Z" fill="#263238"/>
<path d="M64.912 43.6636H55.6846V43.9002H64.912V43.6636Z" fill="#263238"/>
<path d="M64.912 44.6514H55.6846V44.888H64.912V44.6514Z" fill="#263238"/>
<path d="M48.7889 24.5767H39.5615V24.8133H48.7889V24.5767Z" fill="#263238"/>
<path d="M48.7889 25.5649H39.5615V25.8015H48.7889V25.5649Z" fill="#263238"/>
<path d="M48.7889 26.5522H39.5615V26.7888H48.7889V26.5522Z" fill="#263238"/>
<path d="M48.7889 27.5405H39.5615V27.7771H48.7889V27.5405Z" fill="#263238"/>
<path d="M48.7889 28.5293H39.5615V28.7659H48.7889V28.5293Z" fill="#263238"/>
<path d="M63.0898 32.5582L64.7434 33.424L64.5562 28.7622L60.612 31.2582L62.2656 32.124L61.0202 34.4926C60.8018 34.4926 60.5886 34.5654 60.4144 34.7006L58.2174 33.684V33.671C58.246 33.1146 57.817 32.6414 57.2606 32.6128C56.7042 32.5842 56.231 33.0132 56.2024 33.5696C56.1998 33.6034 56.1998 33.6372 56.2024 33.6684C56.2024 33.8114 56.2336 33.9544 56.2934 34.087L53.4308 37.1966C53.3398 37.168 53.2436 37.1524 53.1474 37.1524C53.098 37.1524 53.0486 37.1576 53.0018 37.168L48.8964 31.9498C49.1096 31.4376 48.8678 30.8474 48.3556 30.6342C47.8564 30.4262 47.2818 30.6498 47.0556 31.1386C46.9984 31.2634 46.9698 31.4012 46.9698 31.539C46.9724 31.643 46.9906 31.7444 47.0218 31.8432L42.3184 36.6428C41.7958 36.453 41.2186 36.7208 41.0288 37.2434C40.839 37.766 41.1068 38.3432 41.6294 38.533C42.152 38.7228 42.7292 38.455 42.919 37.9324C42.9606 37.8232 42.9814 37.7062 42.9788 37.5892C42.9788 37.506 42.9658 37.4254 42.945 37.3448L47.69 32.5036C47.7836 32.5322 47.8798 32.5478 47.9786 32.5504C48.041 32.5504 48.1008 32.5426 48.1606 32.5296L52.2582 37.7192C51.9904 38.2132 52.175 38.832 52.669 39.0998C53.163 39.3676 53.7818 39.1856 54.0496 38.689C54.1224 38.5564 54.164 38.4082 54.1718 38.2574C54.1744 38.2236 54.1744 38.1898 54.1718 38.1586C54.1692 38.052 54.151 37.948 54.1172 37.8492L57.0474 34.6616C57.102 34.672 57.1592 34.6772 57.2164 34.6798C57.4166 34.6798 57.6116 34.62 57.778 34.5082L60.014 35.5482C60.04 36.102 60.5132 36.531 61.067 36.5024C61.6208 36.4764 62.0498 36.0032 62.0212 35.4494C62.0108 35.2622 61.951 35.0802 61.8418 34.9242L63.0898 32.5582Z" fill="#263238"/>
<path d="M65.3055 51.0301C64.4579 51.0327 63.7715 51.7191 63.7715 52.5667V65.8813C63.7715 66.7289 64.4579 67.4153 65.3055 67.4179H81.4333C82.2809 67.4153 82.9673 66.7289 82.9699 65.8813V52.5615C82.9673 51.7139 82.2809 51.0275 81.4333 51.0249L65.3055 51.0301Z" stroke="#263238" stroke-width="0.26" stroke-miterlimit="10" stroke-linejoin="round"/>
<path d="M66.2676 52.8457H65.043V53.0095H66.2676V52.8457Z" fill="#263238"/>
<path d="M66.2676 54.1816H65.043V54.3454H66.2676V54.1816Z" fill="#263238"/>
<path d="M66.2676 55.5181H65.043V55.6819H66.2676V55.5181Z" fill="#263238"/>
<path d="M66.2676 56.8564H65.043V57.0202H66.2676V56.8564Z" fill="#263238"/>
<path d="M66.2207 54.1816H64.9961V54.3454H66.2207V54.1816Z" fill="#263238"/>
<path d="M66.2676 58.1934H65.043V58.3572H66.2676V58.1934Z" fill="#263238"/>
<path d="M74.2969 65.4251C77.5391 65.4901 80.2223 62.9161 80.2873 59.6713C80.3523 56.4291 77.7783 53.7459 74.5335 53.6809C71.2913 53.6159 68.6081 56.1899 68.5431 59.4347C68.4807 62.6769 71.0547 65.3601 74.2969 65.4251ZM74.5023 55.4047C76.7981 55.4515 78.6233 57.3521 78.5765 59.6479C78.5297 61.9437 76.6291 63.7689 74.3333 63.7221C72.0375 63.6753 70.2123 61.7747 70.2591 59.4789C70.3059 57.1831 72.2039 55.3579 74.5023 55.4047Z" fill="#0085E5"/>
<path opacity="0.2" d="M74.2969 65.4251C77.5391 65.4901 80.2223 62.9161 80.2873 59.6713C80.3523 56.4291 77.7783 53.7459 74.5335 53.6809C71.2913 53.6159 68.6081 56.1899 68.5431 59.4347C68.4807 62.6769 71.0547 65.3601 74.2969 65.4251ZM74.5023 55.4047C76.7981 55.4515 78.6233 57.3521 78.5765 59.6479C78.5297 61.9437 76.6291 63.7689 74.3333 63.7221C72.0375 63.6753 70.2123 61.7747 70.2591 59.4789C70.3059 57.1831 72.2039 55.3579 74.5023 55.4047Z" fill="black"/>
<path d="M70.1976 63.7566C72.522 66.1018 76.3076 66.1174 78.6528 63.793C78.697 63.7462 78.6996 63.6734 78.6554 63.6266L77.436 62.4072C77.4126 62.3864 77.3814 62.3734 77.3502 62.3708C77.319 62.3734 77.2904 62.3864 77.267 62.4046C76.4922 63.182 75.4314 63.6058 74.3342 63.5772C74.238 63.5746 74.1418 63.572 74.0456 63.572C73.1642 63.5226 72.3218 63.1846 71.651 62.6074C71.5886 62.5528 71.5288 62.4982 71.469 62.441C70.0572 61.0292 69.8648 58.8036 71.014 57.1708C71.0192 57.163 71.0244 57.1552 71.027 57.1474C71.053 57.111 71.0842 57.0772 71.1128 57.0434C71.9266 56.0164 73.1876 55.447 74.4954 55.5198C74.5604 55.5198 74.6124 55.4704 74.615 55.4054L74.6488 53.6816C74.6514 53.6166 74.5994 53.562 74.5344 53.5594C71.2324 53.5048 68.5102 56.136 68.4556 59.438C68.4348 61.0552 69.0614 62.6126 70.1976 63.7566Z" fill="#263238"/>
<path d="M74.5397 53.5618C77.8417 53.6372 80.4573 56.3724 80.3845 59.6744C80.3091 62.9764 77.5739 65.592 74.2719 65.5192C70.9751 65.4438 68.3595 62.7164 68.4271 59.4196C68.4947 56.1176 71.2247 53.4942 74.5267 53.5618C74.5319 53.5618 74.5371 53.5618 74.5397 53.5618ZM74.3005 65.306C77.4803 65.371 80.1089 62.8464 80.1739 59.6666C80.2389 56.4894 77.7143 53.8582 74.5345 53.7932C71.3547 53.7282 68.7261 56.2528 68.6611 59.4326C68.6013 62.6124 71.1233 65.2384 74.3005 65.306ZM74.5059 55.2856C76.8641 55.3324 78.7361 57.2824 78.6867 59.6406C78.6399 61.9988 76.6899 63.8708 74.3317 63.8214C71.9735 63.7746 70.1015 61.8246 70.1509 59.4664C70.1977 57.1108 72.1477 55.2388 74.5059 55.2856ZM74.3369 63.5822C76.5625 63.6264 78.4059 61.8584 78.4501 59.6328C78.4943 57.4072 76.7263 55.5638 74.5007 55.5196C72.2751 55.4754 70.4317 57.2434 70.3875 59.469C70.3459 61.6946 72.1113 63.5328 74.3369 63.5796V63.5822Z" fill="#263238"/>
<path d="M44.1143 72.3115V88.0831" stroke="#263238" stroke-width="0.228592" stroke-miterlimit="10" stroke-linecap="round" stroke-linejoin="round"/>
<path d="M46.6495 78.2632H45.3105V87.293H46.6495V78.2632Z" fill="#263238"/>
<path d="M48.5636 81.9468H47.2246V87.2898H48.5636V81.9468Z" fill="#0085E5"/>
<path d="M50.8117 75.3433H49.4727V87.2929H50.8117V75.3433Z" fill="white" stroke="#263238" stroke-width="0.228592" stroke-miterlimit="10" stroke-linejoin="round"/>
<path d="M54.5451 73.6196H53.2061V87.2904H54.5451V73.6196Z" fill="#263238"/>
<path d="M56.462 83.9102H55.123V87.2928H56.462V83.9102Z" fill="#0085E5"/>
<path d="M58.7101 79.2197H57.3711V87.2927H58.7101V79.2197Z" fill="white" stroke="#263238" stroke-width="0.228592" stroke-miterlimit="10" stroke-linejoin="round"/>
<path d="M64.1652 80.4556H62.8262V87.291H64.1652V80.4556Z" fill="#263238"/>
<path d="M66.0822 75.1504H64.7432V87.2898H66.0822V75.1504Z" fill="#0085E5"/>
<path d="M68.3302 77.8315H66.9912V87.2903H68.3302V77.8315Z" fill="white" stroke="#263238" stroke-width="0.228592" stroke-miterlimit="10" stroke-linejoin="round"/>
<path d="M42.6768 85.2026H43.4256" stroke="#263238" stroke-width="0.228592" stroke-miterlimit="10" stroke-linecap="round" stroke-linejoin="round"/>
<path d="M42.6768 83.2549H43.4256" stroke="#263238" stroke-width="0.228592" stroke-miterlimit="10" stroke-linecap="round" stroke-linejoin="round"/>
<path d="M42.6768 81.3101H43.4256" stroke="#263238" stroke-width="0.228592" stroke-miterlimit="10" stroke-linecap="round" stroke-linejoin="round"/>
<path d="M42.6768 79.3628H43.4256" stroke="#263238" stroke-width="0.228592" stroke-miterlimit="10" stroke-linecap="round" stroke-linejoin="round"/>
<path d="M42.6768 77.415H43.4256" stroke="#263238" stroke-width="0.228592" stroke-miterlimit="10" stroke-linecap="round" stroke-linejoin="round"/>
<path d="M42.6768 75.4683H43.4256" stroke="#263238" stroke-width="0.228592" stroke-miterlimit="10" stroke-linecap="round" stroke-linejoin="round"/>
<path d="M42.6768 73.521H43.4256" stroke="#263238" stroke-width="0.228592" stroke-miterlimit="10" stroke-linecap="round" stroke-linejoin="round"/>
<path d="M43.2275 87.293H69.2691" stroke="#263238" stroke-width="0.228592" stroke-miterlimit="10" stroke-linecap="round" stroke-linejoin="round"/>
<path opacity="0.3" d="M48.5636 81.9468H47.2246V87.2898H48.5636V81.9468Z" fill="black"/>
<path opacity="0.3" d="M56.462 83.9102H55.123V87.2928H56.462V83.9102Z" fill="black"/>
<path opacity="0.3" d="M66.0822 75.1504H64.7432V87.2898H66.0822V75.1504Z" fill="black"/>
<path d="M41.6135 70.1225C40.6775 70.1251 39.9209 70.8818 39.9209 71.8178V87.2878C39.9209 88.2238 40.6801 88.9803 41.6135 88.9829H70.3305C71.2665 88.9803 72.0231 88.2238 72.0257 87.2878V71.81C72.0231 70.874 71.2665 70.1173 70.3305 70.1147L41.6135 70.1225Z" stroke="#263238" stroke-width="0.26" stroke-miterlimit="10" stroke-linejoin="round"/>
<path d="M18.8896 104.712C18.8896 104.712 19.4902 108.719 18.0368 109.132C16.5834 109.543 15.5746 109 15.3926 108.402C15.2106 107.801 16.4976 103.514 16.4976 103.514L18.8896 104.712Z" fill="white"/>
<path d="M44.1698 105.599L50.4878 107.097C50.4878 107.097 50.9662 107.373 50.9116 107.786C50.857 108.199 47.9762 109.315 47.1702 109.453C46.3616 109.59 41.6946 110.196 41.0316 109.627C40.3686 109.057 41.77 104.513 41.77 104.513L44.1698 105.599Z" fill="white"/>
<path d="M32.7294 32.4793C32.7294 32.4793 33.6186 33.8209 33.629 34.5021C33.642 35.1807 33.5614 35.9529 33.9748 36.3533C34.3882 36.7537 34.7106 37.1905 34.539 37.3881C34.3674 37.5857 34.0372 37.9835 34.0372 37.9835C34.0372 37.9835 34.4662 40.2715 33.9124 40.6823C33.3586 41.0957 31.6842 40.6823 31.6842 40.6823V42.1591C31.6842 42.1591 29.3078 41.3817 27.6672 41.5247L27.376 38.3605C27.376 38.3631 30.9432 31.5147 32.7294 32.4793Z" fill="white"/>
<path d="M47.3464 41.8296C47.3464 41.8296 47.1332 40.2098 47.9236 39.2296C47.9236 39.2296 46.9746 39.0684 47.089 38.7252C47.2034 38.382 48.6464 38.8318 48.6464 38.8318L48.2538 38.0388C48.2538 38.0388 46.8914 37.5864 47.0604 37.1626C47.2294 36.7388 49.2314 37.7814 49.2314 37.7814C49.2314 37.7814 48.0432 36.7882 48.2096 36.3722C48.376 35.9588 49.585 35.9666 50.2298 38.1116L50.5574 37.7034C50.5574 37.7034 50.6744 35.2646 51.0098 35.1294C51.0098 35.1294 51.522 35.418 51.5272 36.8168C51.5272 36.8168 52.0368 37.4434 51.717 37.9738C51.3972 38.5042 50.6094 39.6976 49.949 40.1448C49.2886 40.592 49.2938 42.3366 49.2938 42.3366L47.3464 41.8296Z" fill="white"/>
<path d="M26.4223 28.4938L26.7239 28.0908C26.7239 28.0908 30.0701 26.5984 29.9843 26.133C29.8985 25.6676 28.0057 26.3124 27.6547 26.0628C27.6547 26.0628 28.0005 21.6584 27.6625 21.5154C27.3219 21.3724 26.9345 23.5824 26.9345 23.5824C26.9345 23.5824 26.4483 21.3178 26.0713 21.3802C25.6943 21.4452 25.8529 23.728 25.8529 23.728C25.8529 23.728 25.1379 22.2694 24.8597 22.4046C24.5815 22.5398 25.0001 24.3182 25.0001 24.3182C25.0001 24.3182 24.4905 23.7072 24.2695 23.8918C24.2695 23.8918 24.3475 25.3608 24.9949 26.51L24.2695 27.732L26.4223 28.4938Z" fill="white"/>
<path d="M46.9856 41.8395L49.2918 42.1619C49.2918 42.1619 47.6018 56.4541 47.1078 58.2273C46.6138 60.0005 46.1614 61.2615 44.4688 61.3447C42.7736 61.4279 36.7364 56.3527 36.7364 56.3527L36.4556 63.3623L36.8482 66.2743C36.8482 66.2743 29.4616 70.1561 21.9502 66.7787L22.1192 63.3623L19.4126 47.7467L17.2832 40.3263L24.155 27.3081L26.6458 28.6081L22.2518 40.4667L23.4816 44.4265L24.857 43.8753L26.3806 41.9357C26.3806 41.9357 28.9572 40.5941 32.2228 42.4635L32.735 44.0911C32.735 44.0911 36.5622 44.3797 43.0232 53.3341L46.9856 41.8395Z" fill="#0085E5"/>
<path opacity="0.2" d="M30.498 41.8398L30.7892 43.8444C30.7892 43.8444 32.9368 45.2666 33.7896 45.7476C33.7896 45.7476 35.9008 59.0804 34.3382 61.7038L32.695 64.2804C32.695 64.2804 34.3772 64.2804 35.152 63.1026C35.152 63.1026 34.1874 66.3214 31.6862 67.1872C31.6862 67.1872 35.5264 66.7868 36.8472 66.2772L36.4546 63.3652L37.0838 47.1282C37.0838 47.1282 37.6792 46.0414 32.7314 44.0966L32.0008 42.339L30.498 41.8398Z" fill="black"/>
<path d="M32.7298 32.6616C32.7298 32.6616 33.5358 33.842 33.6294 34.4998C33.723 35.1602 33.4422 35.8804 33.9752 36.351C34.5082 36.8216 34.7604 37.1362 34.5394 37.3858C34.3184 37.638 34.0376 37.9812 34.0376 37.9812C34.0376 37.9812 34.2586 40.2094 33.9128 40.68C33.567 41.1506 31.6846 40.68 31.6846 40.68V42.1568" stroke="#263238" stroke-width="0.26" stroke-miterlimit="10" stroke-linecap="round" stroke-linejoin="round"/>
<path d="M31.6844 37.8925C31.6844 37.8925 30.9304 35.945 30.3662 36.4156C29.802 36.8862 30.3038 39.4603 31.6844 38.8961" stroke="#263238" stroke-width="0.26" stroke-miterlimit="10" stroke-linecap="round" stroke-linejoin="round"/>
<path d="M31.4789 37.4304C31.4789 37.4304 32.3733 37.3602 31.8091 35.2568C31.2449 33.1534 32.4695 33.4368 33.7877 32.8388C35.1059 32.2434 35.4205 31.1436 35.1371 30.4832C34.8537 29.8228 34.3831 29.4796 32.7191 29.7916C32.7191 29.7916 30.8991 27.6882 29.1389 30.0126C29.1389 30.0126 25.1817 29.9502 24.1157 31.8326C23.0471 33.7176 24.4615 38.5198 26.5337 40.1214C28.6059 41.723 30.6313 40.4412 31.0551 38.9358C31.0551 38.9358 29.6433 38.174 30.3635 36.4164C30.3661 36.4164 31.0239 36.1824 31.4789 37.4304Z" fill="#263238"/>
<path d="M19.2041 46.5635C19.2041 46.5635 28.7799 39.6189 37.1259 46.5635L36.4551 63.3647L36.8477 66.2767C36.8477 66.2767 29.7913 69.5813 21.9497 66.7811L22.1187 63.3647L19.2041 46.5635Z" stroke="#263238" stroke-width="0.26" stroke-miterlimit="10" stroke-linecap="round" stroke-linejoin="round"/>
<path d="M24.7266 44.0391L26.3776 41.9383C26.3776 41.9383 29.6094 40.8203 32.2198 42.4661L32.732 44.0937" stroke="#263238" stroke-width="0.26" stroke-miterlimit="10" stroke-linecap="round" stroke-linejoin="round"/>
<path d="M37.126 46.5635L45.4642 56.1523" stroke="#263238" stroke-width="0.26" stroke-miterlimit="10" stroke-linecap="round" stroke-linejoin="round"/>
<path d="M36.7412 56.1528C36.7412 56.1528 42.2636 61.2904 44.4658 61.345C46.668 61.397 47.0346 58.7502 47.0346 58.7502L49.2888 42.1622L46.9826 41.8398L43.015 53.3396" stroke="#263238" stroke-width="0.26" stroke-miterlimit="10" stroke-linecap="round" stroke-linejoin="round"/>
<path d="M49.2519 42.1069C49.2519 42.1069 49.5405 40.2323 50.3049 39.8059C51.0693 39.3795 51.9481 37.7155 51.6621 37.2501C51.3761 36.7821 50.5025 38.3187 49.7173 38.6177C48.9295 38.9141 48.2873 40.3701 48.1807 41.0019" stroke="#263238" stroke-width="0.26" stroke-miterlimit="10" stroke-linecap="round" stroke-linejoin="round"/>
<path d="M51.4068 37.1948C51.4068 37.1948 51.399 35.029 51.009 35.1304C50.619 35.2318 50.5566 37.9748 50.5566 37.9748" stroke="#263238" stroke-width="0.26" stroke-miterlimit="10" stroke-linecap="round" stroke-linejoin="round"/>
<path d="M50.2653 38.253C50.2653 38.253 50.0157 37.0388 49.2903 36.4486C48.5649 35.8584 48.1281 36.1756 48.2087 36.3732C48.2919 36.5708 49.5139 38.188 49.4801 38.7444" stroke="#263238" stroke-width="0.26" stroke-miterlimit="10" stroke-linecap="round" stroke-linejoin="round"/>
<path d="M49.0278 37.6529C49.0278 37.6529 47.0648 36.7533 47.0596 37.2889C47.0544 37.8245 48.253 38.0351 48.253 38.0351L48.6456 38.8281C48.6456 38.8281 46.9894 38.3003 47.0882 38.7215C47.187 39.1427 47.9228 39.2259 47.9228 39.2259C47.9228 39.2259 47.1168 40.0215 47.3456 41.8259" stroke="#263238" stroke-width="0.26" stroke-miterlimit="10" stroke-linecap="round" stroke-linejoin="round"/>
<path d="M35.7093 66.4719L36.2111 69.9871C36.2111 69.9871 40.8313 83.8477 41.5333 86.5569C42.2353 89.2687 42.6383 95.3943 42.8385 98.2075C43.0387 101.021 44.6455 105.74 44.6455 105.74C44.6455 105.74 44.4453 107.648 41.0289 107.346C41.0289 107.346 39.6223 101.723 38.1169 98.4077C36.6115 95.0927 36.4087 90.0721 36.4087 90.0721L29.0767 76.6145C29.0767 76.6145 27.5765 84.4509 26.5651 87.3603C25.5251 90.3581 18.4349 107.008 18.9315 105.839C18.9315 105.839 17.9279 106.442 15.8193 104.934C15.8193 104.934 17.3247 99.9131 17.7277 97.2013C18.1307 94.4895 20.2393 88.2625 20.2393 88.2625C20.2393 88.2625 20.7411 76.5131 21.5445 72.8965C21.5445 72.8965 21.0297 68.9133 22.1347 66.1001C22.1373 66.1027 28.3773 68.4817 35.7093 66.4719Z" fill="#263238"/>
<path d="M25.0518 74.2544L28.3434 75.2112L28.8218 76.3786" stroke="white" stroke-width="0.26" stroke-miterlimit="10" stroke-linecap="round" stroke-linejoin="round"/>
<path d="M41.1115 106.944C41.1115 106.944 40.6669 109.172 41.0309 109.629C41.2233 109.869 41.7953 109.824 42.0605 109.83C42.6949 109.843 43.3345 109.801 43.9663 109.759C45.2351 109.676 46.5351 109.689 47.7597 109.297C48.7451 108.982 49.8241 108.545 50.6899 107.968C51.1891 107.635 50.6899 107.097 50.6899 107.097L44.6449 105.74" stroke="#263238" stroke-width="0.26" stroke-miterlimit="10" stroke-linecap="round" stroke-linejoin="round"/>
<path d="M41.0762 108.844C41.0762 108.844 47.87 109.959 50.6936 107.097" stroke="#263238" stroke-width="0.26" stroke-miterlimit="10" stroke-linecap="round" stroke-linejoin="round"/>
<path d="M16.0685 104.713C16.0685 104.713 15.2885 107.386 15.4055 108.228C15.5225 109.07 16.3649 109.273 17.3503 109.245C18.3383 109.216 18.7439 108.779 18.8895 108.111C19.0351 107.443 18.8895 105.282 18.8895 105.282" stroke="#263238" stroke-width="0.26" stroke-miterlimit="10" stroke-linecap="round" stroke-linejoin="round"/>
<path d="M15.3916 107.822L18.8886 108.113" stroke="#263238" stroke-width="0.26" stroke-miterlimit="10" stroke-linecap="round" stroke-linejoin="round"/>
<path d="M24.5214 27.3839C24.8178 26.8431 24.992 26.5129 24.992 26.5129C24.992 26.5129 24.0274 24.1911 24.2666 23.8947C24.5058 23.5983 25.0674 24.4199 25.0674 24.4199C25.0674 24.4199 24.4954 22.5635 24.8568 22.4075C25.2156 22.2515 25.8656 23.9701 25.8656 23.9701C25.8656 23.9701 25.6966 21.4845 26.071 21.3831C26.4454 21.2791 26.8978 23.7439 26.8978 23.7439C26.8978 23.7439 27.3814 21.5391 27.6622 21.5183C27.943 21.4975 27.6544 26.0657 27.6544 26.0657C28.255 26.3595 30.0126 25.6445 29.9996 26.2217C29.9866 26.8015 26.617 28.1353 26.617 28.1353C26.5442 28.2445 26.5468 28.2237 26.4662 28.3797" stroke="#263238" stroke-width="0.26" stroke-miterlimit="10" stroke-linecap="round" stroke-linejoin="round"/>
<path d="M19.2043 46.564L17.2803 40.3292L24.1521 27.311L26.6429 28.611L22.2489 40.4696L23.4787 44.4294" stroke="#263238" stroke-width="0.26" stroke-miterlimit="10" stroke-linecap="round" stroke-linejoin="round"/>
<path d="M19.4277 39.3433C19.4277 39.3433 21.8925 39.3225 22.2487 40.4691C22.2487 40.4691 20.7173 40.2949 19.2041 41.3115" stroke="#263238" stroke-width="0.26" stroke-miterlimit="10" stroke-linecap="round" stroke-linejoin="round"/>
<path d="M27.5713 41.6683V39.8613" stroke="#263238" stroke-width="0.26" stroke-miterlimit="10" stroke-linecap="round" stroke-linejoin="round"/>
<path opacity="0.2" d="M37.0841 51.5918L37.7133 55.692C37.7133 55.692 38.2177 53.0192 38.5323 53.0192C38.8469 53.0192 38.5323 56.1548 38.5323 56.1548C38.5323 56.1548 43.7011 60.8244 45.9371 60.8582C45.9371 60.8582 44.6943 61.7344 43.4489 61.0818C42.2009 60.4318 36.7461 56.1548 36.7461 56.1548L37.0841 51.5918Z" fill="black"/>
<path opacity="0.2" d="M26.2007 28.3794L21.4739 39.861C21.4739 39.861 19.8281 39.835 19.2041 41.3118L21.7313 40.8594L22.5815 44.7698L23.4759 44.4292L22.2461 40.4694L26.6401 28.6108L26.2007 28.3794Z" fill="black"/>
<path d="M91.3411 48.567L89.4821 44.5942L82.1631 49.4276L88.2003 60.124L92.9089 57.4512L91.3411 48.567Z" fill="white"/>
<path d="M97.3692 82.9547C97.3692 82.9547 98.5496 86.2359 98.7238 87.8349C98.898 89.4339 98.3675 96.1705 98.4793 98.0243C98.5938 99.8807 99.5974 105.421 99.5974 105.421C99.5974 105.421 94.673 109.002 93.1104 107.85C93.1104 107.85 96.5788 105.039 96.9324 103.924L95.8066 96.3343L94.6938 87.3617C94.6938 87.3617 94.4078 85.4897 94.0152 84.5225C93.6226 83.5553 93.6771 81.5117 93.6771 81.5117L97.3692 82.9547Z" fill="white"/>
<path d="M97.2657 82.6638C97.2657 82.6638 98.5449 86.1218 98.8439 88.6048C99.1455 91.0852 98.2433 96.7246 98.5423 99.4338C98.8439 102.14 99.1429 103.646 99.6707 105.073L99.4081 109.262H98.7347L98.4695 106.885C98.4695 106.885 97.4139 106.446 96.7743 107.967C96.1347 109.488 93.7739 109.688 92.6533 108.807C92.6533 108.807 92.6533 108.126 93.4931 107.525C94.3329 106.924 96.5377 105.047 96.9381 103.927C96.9381 103.927 95.7343 96.1214 95.4561 93.5994C95.1753 91.0774 94.7359 86.4754 94.1743 84.996C93.6153 83.5166 93.6153 81.395 93.6153 81.395" stroke="#263238" stroke-width="0.26" stroke-miterlimit="10" stroke-linecap="round" stroke-linejoin="round"/>
<path d="M99.4089 104.285C99.4089 104.285 96.1095 107.873 93.3301 107.852" stroke="#263238" stroke-width="0.26" stroke-miterlimit="10" stroke-linecap="round" stroke-linejoin="round"/>
<path d="M93.1161 107.85C93.1161 107.85 93.7245 107.948 94.4707 107.681C95.2143 107.41 97.9001 106.123 99.2235 104.48L99.6291 104.94L99.4185 109.163L98.7373 109.259L98.4721 106.882C98.4721 106.882 97.6037 106.485 97.0447 107.462C96.4857 108.44 96.0827 109.111 95.1051 109.326C94.1275 109.542 92.6533 108.804 92.6533 108.804C92.6533 108.804 92.3985 108.424 93.1161 107.85Z" fill="#263238"/>
<path d="M99.6738 83.0683C99.6738 83.0683 100.212 85.0703 100.802 86.4249C101.39 87.7795 106.488 101.479 106.488 101.479C106.488 101.479 106.876 108.894 109.049 108.871C111.22 108.847 108.964 103.689 108.964 103.689L107.645 100.86C107.645 100.86 107.141 92.5609 106.517 89.5059L103.857 82.3481L99.6738 83.0683Z" fill="white"/>
<path d="M103.883 82.5895C103.883 82.5895 106.065 87.5529 106.515 89.5081C106.967 91.4633 107.417 100.262 107.643 100.862C107.869 101.463 111.478 107.856 109.297 109.133C107.115 110.412 106.59 101.765 106.59 101.765C106.59 101.765 101.551 87.7791 100.8 86.4245C100.048 85.0699 99.2217 81.1621 99.2217 81.1621L103.883 82.5895Z" stroke="#263238" stroke-width="0.26" stroke-miterlimit="10" stroke-linecap="round" stroke-linejoin="round"/>
<path d="M109.726 105.854C109.726 105.854 109.575 107.586 109.003 107.83C108.431 108.074 107.17 106.122 107.17 106.122" stroke="#263238" stroke-width="0.26" stroke-miterlimit="10" stroke-linecap="round" stroke-linejoin="round"/>
<path d="M107.167 106.421C107.167 106.421 107.955 109.374 108.987 109.249C110.019 109.125 110.214 107.481 109.723 106.218C109.723 106.218 109.549 107.518 109 107.832C108.446 107.838 107.167 106.421 107.167 106.421Z" fill="#263238"/>
<path d="M97.96 56.7705C97.96 56.7705 100.591 60.3585 102.411 66.1409C104.234 71.9233 104.049 82.9655 104.049 82.9655C104.049 82.9655 97.2632 85.1495 90.6904 82.3753L91.8942 57.4517C91.8916 57.4569 96.1218 57.5375 97.96 56.7705Z" fill="#263238"/>
<path d="M94.5658 30.75C94.5658 30.75 92.5222 32.6636 92.283 33.9168C92.0438 35.17 91.3418 36.431 91.3418 36.431C91.3418 36.431 91.724 37.0212 92.2596 37.1486C92.2596 37.1486 92.3922 39.7174 93.1384 39.915L94.922 39.447L95.1144 40.5442L97.6702 39.5718V38.0898L99.6202 36.8158L98.9286 33.4878L95.7566 32.0058L94.5658 30.75Z" fill="white"/>
<path d="M91.8796 57.2585L91.6508 53.6576C91.6508 53.6576 89.9868 50.5272 90.5146 49.404C91.0996 48.1586 94.5966 43.5462 94.5966 43.5462L94.2534 41.032L99.157 38.9312L99.391 41.032L98.8008 41.4688L99.4586 42.878C99.4586 42.878 99.5002 42.4593 100.639 44.5835C101.778 46.7077 106.068 54.2686 106.406 55.7168C106.741 57.1676 99.7368 62.2791 97.3708 63.4855C97.3708 63.4855 97.0978 62.9006 94.2872 65.056C93.5722 64.9312 92.5842 64.289 92.3736 63.8912C92.163 63.4934 93.1822 62.5496 93.1822 62.5496C93.1822 62.5496 93.7958 61.3899 94.88 62.3155H96.0344L102.636 56.164L99.287 51.2629L97.9584 56.7671C97.961 56.7697 93.6632 58.0671 91.8796 57.2585Z" fill="white"/>
<path d="M94.2559 41.032L94.6069 43.6034L99.3935 41.032L99.1595 38.9312L94.2559 41.032Z" stroke="#263238" stroke-width="0.26" stroke-miterlimit="10" stroke-linecap="round" stroke-linejoin="round"/>
<path d="M94.6065 43.604C94.6065 43.604 90.2515 48.9314 90.3685 49.9844C90.4855 51.0348 91.6529 53.6634 91.6529 53.6634L91.8921 57.4594C91.8921 57.4594 95.4151 57.5582 97.9579 56.7756L99.2865 51.2714" stroke="#263238" stroke-width="0.26" stroke-miterlimit="10" stroke-linecap="round" stroke-linejoin="round"/>
<path d="M102.638 56.1671L95.8915 45.9985C95.8915 45.9985 95.2311 43.6663 96.8249 42.8239C98.4213 41.9815 99.8097 43.0475 100.306 43.6039C100.803 44.1629 106.159 54.4797 106.408 55.7199C106.655 56.9601 101 61.9209 97.7271 63.2599C97.7271 63.2599 96.2399 64.1517 96.2399 62.3161L102.638 56.1671Z" stroke="#263238" stroke-width="0.26" stroke-miterlimit="10" stroke-linecap="round" stroke-linejoin="round"/>
<path d="M99.3935 42.8806L98.7617 41.3726" stroke="#263238" stroke-width="0.26" stroke-miterlimit="10" stroke-linecap="round" stroke-linejoin="round"/>
<path d="M96.2371 62.3191H94.8799C94.8799 62.3191 93.8217 61.3727 93.3199 62.3191C92.8181 63.2655 92.1863 63.4527 92.3735 63.8947C92.5633 64.3367 93.6501 65.2181 94.2871 65.0595C94.9241 64.9009 96.7155 63.4267 96.7155 63.4267" stroke="#263238" stroke-width="0.26" stroke-miterlimit="10" stroke-linecap="round" stroke-linejoin="round"/>
<path d="M94.077 31.4233C94.077 31.4233 92.4832 32.8195 92.3064 33.5891C92.1296 34.3587 92.205 35.6613 91.3418 36.4309C91.3418 36.4309 91.386 37.0549 92.2596 37.1485C92.2596 37.1485 92.7068 39.6133 93.1384 39.9149C93.57 40.2165 96.2116 38.8541 97.2464 38.2925C97.483 38.1625 97.6598 37.8869 97.7898 37.5359" stroke="#263238" stroke-width="0.26" stroke-miterlimit="10" stroke-linecap="round" stroke-linejoin="round"/>
<path d="M92.8389 37.8995C92.8389 37.8995 93.5877 37.8085 94.0765 37.1689" stroke="#263238" stroke-width="0.26" stroke-miterlimit="10" stroke-linecap="round" stroke-linejoin="round"/>
<path d="M92.8389 34.338C92.8389 34.338 93.4681 33.9714 93.8139 34.5798" stroke="#263238" stroke-width="0.26" stroke-miterlimit="10" stroke-linecap="round" stroke-linejoin="round"/>
<path d="M93.27 35.6454C93.2804 35.856 93.2102 36.0302 93.114 36.0328C93.0178 36.038 92.9294 35.8716 92.919 35.661C92.9086 35.4504 92.9788 35.2762 93.075 35.2736C93.1738 35.2684 93.2596 35.4348 93.27 35.6454Z" fill="#263238"/>
<path d="M94.9219 39.4438L95.1325 40.658" stroke="#263238" stroke-width="0.26" stroke-miterlimit="10" stroke-linecap="round" stroke-linejoin="round"/>
<path d="M96.9645 35.4842C96.9645 35.4842 97.3571 34.7276 97.7913 35.1696C98.2255 35.6116 99.0497 37.6552 96.8267 37.169C96.8267 37.169 96.6785 38.4196 97.7913 38.7316C98.9041 39.0436 101.018 37.3198 101.086 34.387C101.156 31.4542 98.3243 29.4678 96.8241 30.0372C96.8241 30.0372 94.6531 26.6338 92.5003 28.0846C90.3475 29.5328 91.7983 31.7714 91.3407 32.2758C90.8831 32.7802 89.9055 32.307 89.8743 33.6616C89.8431 35.0162 92.1077 34.8758 92.1077 34.8758L92.3807 33.386L94.2553 31.4256C94.2553 31.4256 93.8133 32.8426 94.5647 34.0698C95.2433 35.1748 96.9645 35.4842 96.9645 35.4842Z" fill="#263238"/>
<path d="M101.086 34.3843C101.086 34.3843 102.129 34.6183 102.012 36.0223C101.895 37.4289 99.552 40.8895 99.7262 42.8785L105.787 54.1729C105.787 54.1729 108.514 53.6581 108.397 50.8449C108.28 48.0317 104.942 45.6709 105.584 43.6013C106.226 41.5317 108.748 36.2615 105.173 33.2429C101.598 30.2243 96.0342 34.8523 96.0342 34.8523L98.759 33.9735L101.086 34.3843Z" fill="#263238"/>
<path d="M91.1071 48.3382L89.4821 44.5942L82.1631 49.4276L88.2003 60.124L91.8611 58.109" stroke="#263238" stroke-width="0.26" stroke-miterlimit="10" stroke-linecap="round" stroke-linejoin="round"/>
<path d="M84.4409 54.7187C84.4409 54.7187 84.0457 53.9023 84.5735 53.4525C85.1013 53.0027 86.9005 51.6689 86.9239 51.9965C86.9317 52.0927 86.9525 52.2383 86.7991 52.4463C86.2869 53.1431 85.0337 54.2767 85.1143 54.3573C85.1143 54.3573 87.3841 52.8493 87.6051 52.9923C87.6597 53.0287 87.6285 53.2237 87.4387 53.4135C86.8693 53.9855 85.4705 54.9527 85.4705 54.9527C85.4705 54.9527 87.8677 54.0271 88.1745 54.1753C88.2655 54.2195 88.2447 54.3521 87.9665 54.5211C87.2957 54.9293 85.8215 55.5403 85.8215 55.5403L86.4221 56.5413C86.4247 56.5439 85.2755 56.7389 84.4409 54.7187Z" fill="white" stroke="#263238" stroke-width="0.26" stroke-miterlimit="10" stroke-linecap="round" stroke-linejoin="round"/>
<path d="M97.5029 37.8999L97.6693 39.5717" stroke="#263238" stroke-width="0.26" stroke-miterlimit="10" stroke-linejoin="round"/>
</svg>
