<svg width="130" height="130" viewBox="0 0 130 130" fill="none" xmlns="http://www.w3.org/2000/svg">
<path d="M97.5513 84.0586H95.4453V95.9146H97.5513V84.0586Z" fill="#0085E5"/>
<path d="M97.6551 96.0193H95.2891V83.9033H97.6551V96.0193ZM95.5751 95.7593H97.4211V84.1633H95.5751V95.7593Z" fill="#263238"/>
<path d="M100.284 90.0137H98.1777V95.8897H100.284V90.0137Z" fill="#0085E5"/>
<path d="M100.413 96.0188H98.0469V89.8828H100.413V96.0188ZM98.3069 95.7588H100.153V90.1428H98.3069V95.7588Z" fill="#263238"/>
<path d="M102.961 86.1396H100.855V95.8896H102.961V86.1396Z" fill="#0085E5"/>
<path d="M103.065 96.0188H100.699V86.0088H103.065V96.0188ZM100.985 95.7588H102.831V86.2688H100.985V95.7588Z" fill="#263238"/>
<path d="M105.352 96.8782H95.3937C95.3157 96.8782 95.2637 96.8262 95.2637 96.7482C95.2637 96.6702 95.3157 96.6182 95.3937 96.6182H105.352C105.43 96.6182 105.482 96.6702 105.482 96.7482C105.482 96.8262 105.404 96.8782 105.352 96.8782Z" fill="#263238"/>
<path d="M104.571 97.5266C104.493 97.5266 104.441 97.4746 104.441 97.3966V87.4386C104.441 87.3606 104.493 87.3086 104.571 87.3086C104.649 87.3086 104.701 87.3606 104.701 87.4386V97.3966C104.701 97.4746 104.649 97.5266 104.571 97.5266Z" fill="#263238"/>
<path d="M28.0798 20.1258C28.0798 20.5158 27.7678 20.8278 27.3778 20.8278C26.9878 20.8278 26.6758 20.5158 26.6758 20.1258C26.6758 19.7358 26.9878 19.4238 27.3778 19.4238C27.7678 19.4238 28.0798 19.7358 28.0798 20.1258Z" fill="#263238"/>
<path d="M35.8527 21.9195C35.8527 22.6215 35.2807 23.1935 34.5787 23.1935C33.8767 23.1935 33.3047 22.6215 33.3047 21.9195C33.3047 21.2175 33.8767 20.6455 34.5787 20.6455C35.2807 20.6455 35.8527 21.2175 35.8527 21.9195Z" fill="#263238"/>
<path d="M24.1271 25.7931C24.1271 26.3391 23.6851 26.7551 23.1651 26.7551C22.6191 26.7551 22.2031 26.3131 22.2031 25.7931C22.2031 25.2471 22.6451 24.8311 23.1651 24.8311C23.6851 24.8311 24.1271 25.2471 24.1271 25.7931Z" fill="#263238"/>
<path d="M23.2432 25.8711L23.0352 25.7151L27.3252 19.9951L34.8392 21.7891L34.7872 22.0231L27.4292 20.2811L23.2432 25.8711Z" fill="#263238"/>
<path d="M103.74 79.4319C103.74 79.7959 103.792 80.1859 103.87 80.5239L102.752 81.3819L103.87 83.3579L105.17 82.8119C105.716 83.3319 106.366 83.7219 107.068 83.9299L107.25 85.3339H109.538L109.746 83.9299C110.474 83.7219 111.124 83.3319 111.67 82.8379L112.97 83.3839L114.114 81.4079L113.022 80.5499C113.204 79.8219 113.204 79.0679 113.022 78.3399L114.14 77.4819L113.022 75.5059L111.722 76.0259C111.176 75.5059 110.526 75.1159 109.824 74.9079L109.642 73.5039H107.354L107.146 74.9079C106.418 75.1159 105.768 75.5059 105.222 75.9999L103.922 75.4539L102.778 77.4299L103.87 78.2879C103.792 78.7039 103.74 79.0679 103.74 79.4319ZM107.874 76.9879C109.226 76.6759 110.604 77.5079 110.916 78.8859C111.228 80.2379 110.396 81.6159 109.018 81.9279C107.666 82.2399 106.288 81.4079 105.976 80.0299C105.898 79.6399 105.898 79.2499 105.976 78.8599C106.21 77.9239 106.938 77.1959 107.874 76.9879Z" fill="#263238"/>
<path d="M94.7179 67.2642C94.7179 67.4722 94.7439 67.6802 94.7959 67.8882L94.1719 68.3822L94.8219 69.5002L95.5499 69.1882C95.8619 69.4742 96.2259 69.6822 96.6159 69.8122L96.7199 70.5922H97.9939L98.0979 69.8122C98.5139 69.6822 98.8779 69.4742 99.1899 69.1882L99.9179 69.5002L100.568 68.3822L99.9439 67.8882C100.048 67.4722 100.048 67.0562 99.9439 66.6402L100.568 66.1462L99.9179 65.0282L99.1899 65.3142C98.8779 65.0282 98.5139 64.8202 98.1239 64.6902L98.0199 63.9102H96.7459L96.6419 64.6902C96.2259 64.8202 95.8619 65.0282 95.5499 65.3142L94.8219 65.0022L94.1719 66.1202L94.7959 66.6142C94.7439 66.8482 94.7179 67.0562 94.7179 67.2642ZM97.1099 65.8602C97.8899 65.7042 98.6439 66.2242 98.7739 66.9782C98.9299 67.7582 98.4099 68.5122 97.6559 68.6422C96.8759 68.7982 96.1219 68.2782 95.9919 67.5242C95.9659 67.3422 95.9659 67.1602 95.9919 66.9782C96.0959 66.4062 96.5379 65.9642 97.1099 65.8602Z" fill="white"/>
<path d="M32.4995 52.0285C32.6035 52.2625 32.7335 52.4965 32.8635 52.7045L32.3695 53.5625L33.6175 54.5505L34.3195 53.8485C34.8135 54.0565 35.3335 54.1345 35.8535 54.0825L36.3475 54.9405L37.8295 54.3425L37.5955 53.3805C38.0115 53.0425 38.3495 52.6265 38.5575 52.1585H39.5455L39.7795 50.5725L38.8435 50.3125C38.7655 49.7925 38.5575 49.2985 38.2715 48.8825L38.7655 48.0245L37.5175 47.0365L36.8155 47.7385C36.3215 47.5305 35.8015 47.4525 35.2815 47.5045L34.7875 46.6465L33.3055 47.2445L33.5395 48.2065C33.1235 48.5445 32.7855 48.9605 32.5775 49.4285H31.5895L31.3555 51.0145L32.2915 51.2745C32.3175 51.5345 32.3955 51.7685 32.4995 52.0285ZM34.5275 49.3245C35.3335 48.7525 36.4515 48.9605 37.0235 49.7665C37.5955 50.5725 37.3875 51.6905 36.5815 52.2625C35.7755 52.8345 34.6575 52.6265 34.0855 51.8205C33.9295 51.5865 33.8255 51.3265 33.7735 51.0665C33.6955 50.3905 33.9815 49.7145 34.5275 49.3245Z" fill="#0085E5"/>
<path d="M33.5657 44.9301C33.6177 45.0341 33.6437 45.1121 33.7217 45.2161L33.5137 45.5541L34.0337 45.9441L34.3197 45.6581C34.5277 45.7361 34.7357 45.7621 34.9437 45.7361L35.1517 46.0741L35.7497 45.8401L35.6457 45.4501C35.8017 45.3201 35.9577 45.1381 36.0357 44.9561H36.4517L36.5557 44.3061L36.1657 44.2021C36.1397 43.9941 36.0617 43.7861 35.9317 43.6041L36.1397 43.2661L35.6197 42.8761L35.3337 43.1621C35.1257 43.0841 34.9177 43.0581 34.7097 43.0841L34.5017 42.7461L33.9037 42.9801L34.0077 43.3701C33.8517 43.5001 33.6957 43.6821 33.6177 43.8641H33.2017L33.0977 44.5141L33.4877 44.6181C33.4877 44.7221 33.5137 44.8261 33.5657 44.9301ZM34.4237 43.8121C34.7617 43.6041 35.2037 43.6821 35.4377 44.0201C35.6457 44.3581 35.5677 44.8001 35.2297 45.0341C34.8917 45.2421 34.4497 45.1641 34.2157 44.8261C34.1637 44.7481 34.1377 44.6441 34.1117 44.5661C34.0337 44.2801 34.1637 43.9681 34.4237 43.8121Z" fill="#0085E5"/>
<path d="M99.7389 72.8268H29.4609V37.6228C29.4609 37.1808 29.7989 36.8428 30.2409 36.8428H99.7389C100.181 36.8428 100.519 37.1808 100.519 37.6228V72.0468C100.519 72.4888 100.181 72.8268 99.7389 72.8268Z" fill="#0085E5"/>
<path opacity="0.2" d="M99.7389 72.8268H29.4609V37.6228C29.4609 37.1808 29.7989 36.8428 30.2409 36.8428H99.7389C100.181 36.8428 100.519 37.1808 100.519 37.6228V72.0468C100.519 72.4888 100.181 72.8268 99.7389 72.8268Z" fill="black"/>
<path d="M101.066 74.7505H28.9417C28.1617 74.7505 27.5117 74.1005 27.5117 73.3205V27.3265C27.5117 26.5465 28.1617 25.8965 28.9417 25.8965H101.326C101.976 25.8965 102.496 26.4165 102.496 27.0665V73.3205C102.496 74.1005 101.846 74.7505 101.066 74.7505ZM28.9417 26.1565C28.2917 26.1565 27.7717 26.6765 27.7717 27.3265V73.3205C27.7717 73.9705 28.2917 74.4905 28.9417 74.4905H101.066C101.716 74.4905 102.236 73.9705 102.236 73.3205V27.0665C102.236 26.5725 101.82 26.1565 101.326 26.1565H28.9417Z" fill="#263238"/>
<path d="M69.32 30.1879H30.372C29.8 30.1879 29.332 29.7199 29.332 29.1479V29.0439C29.332 28.4719 29.8 28.0039 30.372 28.0039H69.06C69.632 28.0039 70.1 28.4719 70.1 29.0439V29.4079C70.1 29.8499 69.736 30.1879 69.32 30.1879Z" fill="#0085E5"/>
<path d="M69.3192 30.317H30.3712C29.7212 30.317 29.2012 29.797 29.2012 29.147V29.043C29.2012 28.393 29.7212 27.873 30.3712 27.873H69.0592C69.7092 27.873 70.2292 28.393 70.2292 29.043V29.407C70.2292 29.927 69.8132 30.317 69.3192 30.317ZM30.3712 28.133C29.8772 28.133 29.4612 28.549 29.4612 29.043V29.147C29.4612 29.641 29.8772 30.057 30.3712 30.057H69.3192C69.6832 30.057 69.9692 29.771 69.9692 29.407V29.043C69.9692 28.549 69.5532 28.133 69.0592 28.133H30.3712Z" fill="#263238"/>
<path d="M31.4597 33.2279C31.4597 33.6699 31.0957 34.0339 30.6537 34.0339C30.2117 34.0339 29.8477 33.6699 29.8477 33.2279C29.8477 32.7859 30.2117 32.4219 30.6537 32.4219C31.0957 32.4219 31.4597 32.7859 31.4597 33.2279Z" fill="white"/>
<path d="M30.6294 34.1894C30.1094 34.1894 29.6934 33.7734 29.6934 33.2534C29.6934 32.7334 30.1094 32.3174 30.6294 32.3174C31.1494 32.3174 31.5654 32.7334 31.5654 33.2534C31.5914 33.7474 31.1494 34.1894 30.6294 34.1894ZM30.6294 32.5514C30.2394 32.5514 29.9534 32.8634 29.9534 33.2274C29.9534 33.6174 30.2654 33.9034 30.6294 33.9034C31.0194 33.9034 31.3054 33.5914 31.3054 33.2274C31.3314 32.8634 31.0194 32.5514 30.6294 32.5514Z" fill="#263238"/>
<path d="M33.4134 34.0339C33.8586 34.0339 34.2194 33.673 34.2194 33.2279C34.2194 32.7827 33.8586 32.4219 33.4134 32.4219C32.9683 32.4219 32.6074 32.7827 32.6074 33.2279C32.6074 33.673 32.9683 34.0339 33.4134 34.0339Z" fill="white"/>
<path d="M33.4126 34.1894C32.8926 34.1894 32.4766 33.7734 32.4766 33.2534C32.4766 32.7334 32.8926 32.3174 33.4126 32.3174C33.9326 32.3174 34.3486 32.7334 34.3486 33.2534C34.3486 33.7474 33.9326 34.1894 33.4126 34.1894ZM33.4126 32.5514C33.0226 32.5514 32.7366 32.8634 32.7366 33.2274C32.7366 33.6174 33.0486 33.9034 33.4126 33.9034C33.8026 33.9034 34.0886 33.5914 34.0886 33.2274C34.0886 32.8634 33.7766 32.5514 33.4126 32.5514Z" fill="#263238"/>
<path d="M37.0007 33.2279C37.0007 33.6699 36.6367 34.0339 36.1947 34.0339C35.7527 34.0339 35.3887 33.6699 35.3887 33.2279C35.3887 32.7859 35.7527 32.4219 36.1947 32.4219C36.6367 32.4219 37.0007 32.7859 37.0007 33.2279Z" fill="white"/>
<path d="M36.1938 34.1894C35.6738 34.1894 35.2578 33.7734 35.2578 33.2534C35.2578 32.7334 35.6738 32.3174 36.1938 32.3174C36.7138 32.3174 37.1298 32.7334 37.1298 33.2534C37.1298 33.7474 36.7138 34.1894 36.1938 34.1894ZM36.1938 32.5514C35.8038 32.5514 35.5178 32.8634 35.5178 33.2274C35.5178 33.6174 35.8298 33.9034 36.1938 33.9034C36.5838 33.9034 36.8698 33.5914 36.8698 33.2274C36.8698 32.8634 36.5578 32.5514 36.1938 32.5514Z" fill="#263238"/>
<path d="M64.9995 114.973C87.1704 114.973 105.143 113.238 105.143 111.099C105.143 108.959 87.1704 107.225 64.9995 107.225C42.8285 107.225 24.8555 108.959 24.8555 111.099C24.8555 113.238 42.8285 114.973 64.9995 114.973Z" fill="#0085E5"/>
<path opacity="0.7" d="M64.9995 114.973C87.1704 114.973 105.143 113.238 105.143 111.099C105.143 108.959 87.1704 107.225 64.9995 107.225C42.8285 107.225 24.8555 108.959 24.8555 111.099C24.8555 113.238 42.8285 114.973 64.9995 114.973Z" fill="white"/>
<path d="M66.3493 107.798C66.3493 107.798 64.6073 109.904 64.2953 111.568C63.9833 113.232 64.5293 113.128 64.9453 113.154C65.3613 113.18 66.5053 111.802 66.7913 111.282C67.0773 110.762 67.7273 107.616 67.7273 107.616L66.3493 107.798Z" fill="white"/>
<path d="M82.4724 107.486L83.4084 106.888C83.4084 106.888 84.9164 108.188 86.1124 108.552C87.3344 108.916 89.7264 108.318 90.1684 109.774C90.1684 109.774 87.9844 110.528 86.6844 110.45C85.3844 110.346 82.3164 110.398 82.3164 110.398L82.4724 107.486Z" fill="white"/>
<path d="M73.4238 61.9075C73.4238 61.9075 71.6038 75.7655 71.0578 79.6395C70.5118 83.4875 68.3798 93.6535 67.9898 95.9415C67.5998 98.2295 66.0918 108.083 66.0918 108.083L67.6778 108.785L79.1698 74.2055C79.1698 74.2055 80.8338 86.9715 80.7558 90.8195C80.6778 94.6675 82.2638 107.901 82.2638 107.901L83.8498 107.199C83.8498 107.199 85.8258 96.8775 85.5138 93.0815C85.2018 89.3115 86.3718 77.0915 85.9818 72.6715C85.5918 68.2515 85.0458 61.6475 85.0458 61.6475C85.0458 61.6475 80.7558 64.2735 73.4238 61.9075Z" fill="#263238"/>
<path d="M64.8164 113.258C64.7644 113.258 64.7384 113.258 64.6864 113.258C64.3484 113.232 64.1404 113.05 64.0624 112.712C63.7244 111.386 65.6744 108.006 66.5324 107.408C66.5844 107.356 66.6624 107.382 66.7144 107.434C66.7664 107.486 66.7404 107.564 66.6884 107.616C65.9084 108.162 64.0104 111.464 64.3224 112.634C64.3744 112.842 64.5044 112.972 64.7124 112.972C64.7384 112.972 64.7904 112.972 64.8164 112.972C66.6364 112.972 67.4944 108.266 67.4944 108.214C67.4944 108.136 67.5724 108.11 67.6504 108.11C67.7284 108.11 67.7544 108.188 67.7544 108.266C67.7024 108.5 66.8444 113.258 64.8164 113.258Z" fill="#263238"/>
<path d="M79.2988 73.7125C79.2728 73.7125 79.2468 73.7125 79.2208 73.6865C79.1688 73.6345 79.1688 73.5565 79.1948 73.5045L82.9388 68.9025C82.9908 68.8505 83.0688 68.8505 83.1208 68.8765C83.1728 68.9285 83.1728 69.0065 83.1468 69.0585L79.4028 73.6605C79.3508 73.6865 79.3248 73.7125 79.2988 73.7125Z" fill="white"/>
<path d="M79.6899 74.2584C79.6379 74.2584 79.6119 74.2324 79.5859 74.2064C79.5599 74.1544 79.5599 74.0764 79.6379 74.0244C80.2099 73.6864 80.7559 73.2964 81.2499 72.8544C81.3019 72.8024 81.3799 72.8024 81.4319 72.8544C81.4839 72.9064 81.4839 72.9844 81.4319 73.0364C80.9119 73.4784 80.3659 73.8944 79.7679 74.2324C79.7419 74.2584 79.7159 74.2584 79.6899 74.2584Z" fill="white"/>
<path d="M86.6822 110.553C86.1102 110.553 85.4082 110.527 84.7062 110.475C83.7442 110.423 82.5482 110.371 82.3662 110.475C82.3142 110.501 82.2622 110.501 82.2362 110.475C82.1842 110.449 82.1582 110.397 82.1582 110.371L82.2362 106.367C82.2362 106.289 82.2882 106.237 82.3662 106.237C82.4442 106.237 82.4962 106.289 82.4962 106.367L82.4442 110.189C82.7822 110.137 83.4842 110.163 84.7322 110.215C85.4082 110.241 86.1102 110.293 86.6822 110.293C87.9822 110.293 89.5942 109.799 90.0362 109.669C89.9322 109.279 89.5162 108.993 89.1262 108.915C88.7882 108.837 88.4242 108.837 88.0602 108.837C87.9302 108.837 87.7742 108.837 87.6442 108.837C86.0322 108.785 84.4202 108.057 83.3542 106.835C83.3022 106.783 83.3022 106.705 83.3542 106.653C83.4062 106.601 83.4842 106.601 83.5362 106.653C84.5502 107.797 86.0842 108.525 87.6442 108.551C87.7742 108.551 87.9042 108.551 88.0602 108.551C88.4242 108.551 88.8142 108.551 89.1782 108.629C89.6722 108.759 90.2182 109.149 90.3222 109.721C90.3222 109.773 90.2962 109.851 90.2442 109.851C90.1402 109.903 88.2162 110.553 86.6822 110.553Z" fill="#263238"/>
<path d="M73.448 65.9622C73.344 65.9622 73.24 65.9362 73.136 65.8842C73.084 65.8582 73.032 65.7802 73.084 65.7022C73.11 65.6502 73.188 65.5982 73.266 65.6502C73.552 65.7802 73.916 65.5982 74.098 65.3642C74.306 65.0782 74.384 64.7142 74.462 64.3762L74.774 62.7642C74.8 62.6862 74.852 62.6602 74.93 62.6602C75.008 62.6862 75.034 62.7382 75.034 62.8162L74.722 64.4282C74.644 64.7922 74.566 65.2082 74.332 65.5202C74.098 65.7542 73.76 65.9622 73.448 65.9622Z" fill="white"/>
<path d="M86.1889 110.033C85.7469 110.033 85.3309 110.007 84.8889 109.955C84.7589 109.929 84.6549 109.929 84.5249 109.903C83.7709 109.799 82.9649 109.669 82.3409 110.033L82.2109 109.799C82.9389 109.409 83.7709 109.513 84.5769 109.643C84.7069 109.669 84.8109 109.669 84.9409 109.695C86.5789 109.903 88.2429 109.695 89.7769 109.071L89.8809 109.305C88.6849 109.799 87.4369 110.033 86.1889 110.033Z" fill="#263238"/>
<path d="M65.181 113.153C64.947 113.049 64.5831 112.763 64.5051 112.451C64.4271 112.191 64.427 111.905 64.453 111.671C64.557 110.293 65.1551 108.915 66.1171 107.901L66.2991 108.083C65.3631 109.045 64.791 110.345 64.713 111.697C64.687 111.905 64.6871 112.165 64.7651 112.373C64.8171 112.555 65.103 112.815 65.311 112.919L65.181 113.153Z" fill="#263238"/>
<path d="M93.0801 47.3971L101.218 34.1891L92.3261 30.7051L84.9941 41.5731L93.0801 47.3971Z" fill="white"/>
<path d="M98.852 42.743C98.852 42.743 99.554 41.859 99.554 40.949C99.58 40.065 98.982 39.961 99.138 39.415C99.294 38.869 99.164 38.609 98.618 38.037C98.072 37.491 96.85 37.153 96.772 37.465C96.694 37.751 97.864 38.219 97.76 38.739C97.76 38.739 95.654 38.817 95.55 39.363L95.524 39.727C95.524 39.727 95.108 39.909 95.212 40.143C95.316 40.377 97.474 40.351 97.474 40.351C97.474 40.351 97.11 41.755 97.578 42.171L98.852 42.743Z" fill="white"/>
<path d="M94.7696 35.3596C97.0056 38.2976 94.9776 41.9896 91.9616 43.9136C88.9456 45.8376 86.0336 44.9796 84.5256 42.5876C83.0176 40.2216 84.2396 36.7376 87.2296 34.8136C90.2456 32.9156 93.0796 33.0976 94.7696 35.3596Z" fill="white"/>
<path d="M97.1882 41.9641L93.4442 50.5701L86.6062 44.6421C86.6062 44.6421 84.1102 43.4201 83.7982 41.3401L78.9622 40.6641C78.9622 40.6641 78.3902 42.9521 77.3762 43.4721L76.2842 41.5741L76.1282 43.9141C76.1282 43.9141 73.6322 42.9001 72.9302 42.3021C72.9302 42.3021 67.3402 44.8241 66.4302 47.5801C65.5202 50.3361 68.5102 56.9921 68.5102 56.9921C68.5102 56.9921 69.6282 59.8781 70.5902 60.0601C71.5522 60.2421 73.4502 58.4741 73.4502 58.4741L72.9302 61.8021C72.9302 61.8021 80.2362 64.6881 85.0722 61.4901L85.0202 50.7001C85.0202 50.7001 91.1822 53.8201 93.0282 54.4961C94.8742 55.1721 95.5502 54.9121 95.5502 54.9121C95.5502 54.9121 98.7222 46.5921 99.2682 42.7441L97.1882 41.9641ZM72.4882 54.8601L71.5522 51.2981L73.1642 54.3141L72.4882 54.8601Z" fill="#FFA000"/>
<path d="M85.6685 43.6536C85.6685 43.6536 89.4385 45.2136 93.0525 41.3656C96.6665 37.5176 94.3525 35.0996 94.3525 35.0996C94.3525 35.0996 97.5505 37.3096 94.7945 41.2096C92.0385 45.1096 88.9965 45.1616 87.2805 44.8756C85.5905 44.5636 85.6685 43.6536 85.6685 43.6536Z" fill="#0085E5"/>
<path opacity="0.2" d="M75.4257 56.7568C75.3737 56.7568 75.4257 56.8608 75.4777 56.8608C76.4397 56.8868 77.3757 56.8348 78.3377 56.7568C77.4797 57.0948 76.6217 57.4328 75.7377 57.7708C75.6597 57.7968 75.5817 57.8488 75.5037 57.9008C75.4517 57.9528 75.4257 58.0568 75.3997 58.1348C75.0097 59.5128 74.2037 62.2688 74.2557 62.2948L72.9297 61.8008L73.4497 58.4728L75.4257 56.7568Z" fill="black"/>
<path opacity="0.2" d="M71.3696 50.6735L71.8636 46.4355C71.8636 46.4355 73.4236 47.6315 72.9556 49.0875C72.4876 50.5695 74.1516 53.5855 74.1516 53.5855L73.1896 54.2875L71.2656 50.3095L71.3696 50.6735Z" fill="black"/>
<path opacity="0.2" d="M85.0715 47.8135C85.0715 47.8135 85.4615 49.8155 85.6175 49.9455C85.7735 50.1015 85.4615 48.2815 85.7475 48.2035C86.0335 48.1255 86.7355 50.5435 86.7355 50.5435C86.7355 50.5435 89.5175 52.1815 90.4535 52.0255C91.3895 51.8695 92.8715 50.2055 92.8715 50.2055L93.4435 50.7255C93.4435 50.7255 92.8715 52.2595 92.1695 52.5715C92.1695 52.5715 93.3395 54.1315 95.9915 53.8455C95.9915 53.8455 95.8095 55.2755 94.7435 55.0415C92.2735 54.5215 85.0195 50.7255 85.0195 50.7255L85.0715 47.8135Z" fill="black"/>
<path opacity="0.2" d="M68.0682 45.0566C66.8982 49.4246 67.3402 50.9586 68.7442 54.6506C68.7442 54.6506 70.6682 53.7406 72.2542 54.5726L72.4102 54.9886L69.8622 56.5746C69.8622 56.5746 70.1222 58.6026 71.8382 59.5126C71.8382 59.5126 71.1362 60.1886 70.6162 60.0846C70.0702 59.9806 67.9382 55.3266 67.4442 54.3906C66.9762 53.4286 64.7402 48.7226 68.0682 45.0566Z" fill="black"/>
<path d="M84.9664 43.2375C84.9664 43.2375 83.4064 41.8335 83.8484 39.5195C84.2904 37.2055 86.5784 34.9435 88.4244 34.1895C90.2704 33.4355 93.3644 33.0975 94.4044 35.0995C94.4044 35.0995 92.2464 33.4615 88.4244 35.5415C84.6024 37.6215 84.3944 41.5735 84.9664 43.2375Z" fill="#0085E5"/>
<path d="M93.4419 50.8307C93.4159 50.8307 93.3899 50.8307 93.3639 50.8047L85.2519 43.5247C85.1999 43.4727 85.1999 43.3947 85.2519 43.3427C85.3039 43.2907 85.3819 43.2907 85.4339 43.3427L93.5459 50.6227C93.5979 50.6747 93.5979 50.7527 93.5459 50.8047C93.4939 50.8307 93.4679 50.8307 93.4419 50.8307Z" fill="#263238"/>
<path d="M95.0007 55.199C92.9207 55.199 85.9007 51.351 85.0427 50.857C84.9907 50.831 84.9647 50.753 84.9907 50.675C85.0167 50.623 85.0947 50.597 85.1727 50.623C88.7867 52.625 94.4807 55.433 95.2867 54.861C96.1967 54.237 98.3287 46.151 99.1347 42.927L97.2627 42.095L93.1027 51.897C93.0767 51.949 92.9987 52.001 92.9467 51.975C92.8687 51.949 92.8427 51.871 92.8687 51.819L97.0807 41.913C97.1067 41.887 97.1067 41.861 97.1587 41.835C97.1847 41.835 97.2367 41.835 97.2627 41.835L99.3427 42.745C99.3947 42.771 99.4207 42.823 99.4207 42.901C99.3167 43.369 96.6387 54.263 95.4427 55.095C95.3387 55.173 95.1827 55.199 95.0007 55.199Z" fill="#263238"/>
<path d="M79.8468 63.3595C76.3368 63.3595 72.9308 61.9555 72.8788 61.9295C72.8268 61.9035 72.8008 61.8515 72.8008 61.7995L73.3208 58.4715C73.3208 58.3935 73.3988 58.3415 73.4768 58.3675C73.5548 58.3675 73.6068 58.4455 73.5808 58.5235L73.0868 61.7475C73.9968 62.1115 81.2508 64.8415 84.9688 61.4615L84.9168 47.5255C84.9168 47.4475 84.9688 47.3955 85.0468 47.3955C85.1248 47.3955 85.1768 47.4475 85.1768 47.5255L85.2288 61.5135C85.2288 61.5395 85.2028 61.5915 85.1768 61.6175C83.7468 62.9175 81.7968 63.3595 79.8468 63.3595Z" fill="#263238"/>
<path d="M83.6409 41.2083L78.8569 40.6363C78.7789 40.6363 78.7269 40.5583 78.7529 40.5063C78.7529 40.4283 78.8309 40.3763 78.8829 40.4023L83.6669 40.9743C83.7449 40.9743 83.7969 41.0523 83.7709 41.1043C83.7709 41.1563 83.7189 41.2083 83.6409 41.2083Z" fill="#263238"/>
<path d="M70.7716 60.2662C70.2256 60.2662 69.8096 59.4862 69.5236 59.0442C69.4976 58.9922 69.4456 58.9142 69.4196 58.8882C68.8216 57.9002 68.3536 56.8342 67.8596 55.7682C66.7156 53.1682 65.7276 50.4382 66.3516 47.9162C66.9756 45.3682 68.9256 44.3022 70.9796 43.1842C71.5516 42.8722 72.1236 42.5602 72.6956 42.1962C72.7476 42.1702 72.8256 42.1702 72.8776 42.2482C72.9036 42.3002 72.9036 42.3782 72.8256 42.4302C72.2536 42.7942 71.6556 43.1062 71.0836 43.4182C69.0816 44.5102 67.1836 45.5502 66.5596 47.9942C65.9616 50.4382 66.9236 53.1422 68.0416 55.6902C68.5096 56.7562 68.9776 57.7962 69.5756 58.7842C69.6016 58.8362 69.6276 58.8882 69.6796 58.9662C69.8876 59.3562 70.3036 60.0582 70.6936 60.0582C71.7856 60.0322 78.0256 54.4162 80.4176 52.1542L79.2996 50.4382L70.4596 56.3662C70.4076 56.4182 70.3296 56.3922 70.2776 56.3402C70.2256 56.2882 70.2516 56.2102 70.3036 56.1582L79.2476 50.1522C79.2736 50.1262 79.2996 50.1262 79.3516 50.1262C79.3776 50.1262 79.4036 50.1522 79.4296 50.1782L79.4556 50.2042L80.6776 52.0762C80.7036 52.1282 80.7036 52.2062 80.6516 52.2322C80.4176 52.5442 72.2276 60.2402 70.7716 60.2662Z" fill="#263238"/>
<path d="M79.0658 33.5136C79.0398 33.5136 79.0138 33.5136 78.9878 33.4876C78.9358 33.4356 78.9098 33.3576 78.9618 33.3056C79.1958 33.0196 79.7158 32.1876 79.4818 31.7716C79.4038 31.6416 79.3258 31.5636 79.2218 31.5376C79.0658 31.5116 78.9358 31.6416 78.9358 31.6416C78.8838 31.6936 78.8058 31.6936 78.7538 31.6416C78.7018 31.5896 78.7018 31.5116 78.7538 31.4596C78.7538 31.4596 78.9878 31.2516 79.2738 31.2776C79.4558 31.3036 79.6118 31.4336 79.7158 31.6416C80.0538 32.2656 79.2738 33.3316 79.1698 33.4356C79.1178 33.4876 79.0918 33.5136 79.0658 33.5136Z" fill="#263238"/>
<path d="M87.6179 44.1722C86.2919 44.1722 85.1739 43.7042 84.4459 42.8202C83.6659 41.8582 83.4579 40.5322 83.8479 39.1022C84.2379 37.6722 85.1999 36.2942 86.4999 35.2282C87.8259 34.1622 89.3599 33.5122 90.8419 33.4342C92.3239 33.3562 93.5979 33.8242 94.3779 34.7862C95.1579 35.7482 95.3659 37.0742 94.9759 38.5042C94.5859 39.9342 93.6239 41.3122 92.3239 42.3782C90.9979 43.4442 89.4639 44.0942 87.9819 44.1722C87.8519 44.1722 87.7479 44.1722 87.6179 44.1722ZM91.2319 33.6682C91.1279 33.6682 90.9979 33.6682 90.8939 33.6682C89.4639 33.7462 87.9819 34.3702 86.7079 35.4102C85.4339 36.4502 84.5239 37.7762 84.1339 39.1542C83.7439 40.5062 83.9519 41.7542 84.6799 42.6642C85.4079 43.5482 86.5779 44.0162 87.9819 43.9122C89.4119 43.8342 90.8939 43.2102 92.1679 42.1702C93.4419 41.1302 94.3519 39.8042 94.7419 38.4262C95.1319 37.0742 94.9239 35.8262 94.1959 34.9162C93.5199 34.1102 92.4799 33.6682 91.2319 33.6682Z" fill="#263238"/>
<path d="M88.4519 45.0821C87.1519 45.0821 86.0079 44.6401 85.2799 43.7301C84.4999 42.7681 84.2919 41.4421 84.6819 40.0121C85.0719 38.5821 86.0339 37.2041 87.3339 36.1381C90.0639 33.9281 93.5999 33.7201 95.2119 35.6961C95.9919 36.6581 96.1999 37.9841 95.8099 39.4141C95.4199 40.8441 94.4579 42.2221 93.1579 43.2881C91.6759 44.4841 89.9599 45.0821 88.4519 45.0821ZM92.0399 34.5781C90.5839 34.5781 88.9459 35.1761 87.5159 36.3201C86.2419 37.3601 85.3319 38.6861 84.9419 40.0641C84.5519 41.4161 84.7599 42.6641 85.4879 43.5741C86.9959 45.4461 90.3499 45.2121 93.0019 43.0801C94.2759 42.0401 95.1859 40.7141 95.5759 39.3361C95.9659 37.9841 95.7579 36.7361 95.0299 35.8261C94.3279 34.9941 93.2619 34.5781 92.0399 34.5781Z" fill="#263238"/>
<path d="M86.4488 44.5889L83.7708 47.6309L80.3128 51.5569L79.6888 50.1009L79.4028 50.2569L79.2988 50.2829C79.3768 50.0489 79.5068 49.8929 79.4808 49.6589C79.6628 49.6069 79.4808 49.4249 79.4808 49.3729V49.0349L81.4828 47.1629L81.5868 47.0329L85.1748 43.4189C85.1748 43.4189 85.2008 43.4189 85.2268 43.4189C85.2788 43.4189 85.3308 43.4189 85.4088 43.4709C85.5388 43.4969 85.6688 43.5749 85.8248 43.6789C86.0328 43.8349 86.2408 44.0949 86.4228 44.4849C86.4228 44.5369 86.4488 44.5629 86.4488 44.5889Z" fill="#263238"/>
<path d="M87.802 41.4682C87.646 41.4682 87.516 41.4422 87.36 41.3642C87.022 41.2082 86.762 40.8442 86.71 40.4022C86.684 40.0642 86.736 39.7522 86.788 39.5442C86.892 39.1282 87.022 38.6342 87.178 38.1402C87.256 37.8802 87.542 37.7502 87.802 37.8282C88.062 37.9062 88.192 38.1922 88.114 38.4522C87.958 38.9202 87.828 39.3882 87.75 39.7782C87.698 39.9862 87.672 40.1682 87.672 40.2982C87.672 40.4022 87.724 40.4542 87.75 40.4802C87.776 40.4802 87.88 40.5062 88.244 40.2722C89.96 39.1022 91.624 37.8022 93.21 36.4762C93.418 36.2942 93.73 36.3202 93.912 36.5282C94.094 36.7362 94.068 37.0482 93.86 37.2302C92.248 38.5822 90.532 39.8822 88.816 41.0782C88.66 41.1822 88.244 41.4682 87.802 41.4682Z" fill="#0085E5"/>
<path d="M87.8013 41.5727C87.6193 41.5727 87.4633 41.5467 87.3073 41.4687C86.9173 41.2867 86.6313 40.8707 86.5793 40.4027C86.5273 40.0387 86.6053 39.7267 86.6833 39.4927C86.7873 39.0767 86.9173 38.5567 87.0733 38.0627C87.1253 37.9067 87.2293 37.7767 87.3853 37.6987C87.5413 37.6207 87.6973 37.6207 87.8533 37.6727C88.0093 37.7247 88.1393 37.8287 88.2173 37.9847C88.2953 38.1407 88.2953 38.2967 88.2433 38.4527C88.0873 38.8947 87.9573 39.3627 87.8793 39.7527C87.8273 39.9347 87.8013 40.1167 87.8013 40.2207C87.8013 40.2467 87.8013 40.2727 87.8273 40.2727C87.8793 40.2467 87.9833 40.2207 88.1913 40.0907C89.9073 38.9207 91.5713 37.6467 93.1573 36.2947C93.2873 36.1907 93.4433 36.1387 93.6253 36.1387C93.7813 36.1647 93.9373 36.2427 94.0413 36.3727C94.1453 36.5027 94.1973 36.6587 94.1973 36.8407C94.1713 36.9967 94.0933 37.1527 93.9633 37.2567C92.3513 38.6087 90.6353 39.9087 88.8933 41.1047C88.7113 41.2867 88.2953 41.5727 87.8013 41.5727ZM87.6713 37.9067C87.6193 37.9067 87.5673 37.9067 87.5153 37.9327C87.4373 37.9847 87.3593 38.0627 87.3333 38.1407C87.1773 38.6347 87.0473 39.1287 86.9433 39.5447C86.8913 39.7527 86.8133 40.0647 86.8653 40.3767C86.9173 40.7667 87.1253 41.1047 87.4373 41.2347C87.5673 41.2867 87.6973 41.3127 87.8273 41.3127C88.2433 41.3127 88.6333 41.0527 88.7893 40.9487C90.5313 39.7527 92.2213 38.4527 93.8333 37.1007C93.9113 37.0487 93.9633 36.9447 93.9633 36.8407C93.9633 36.7367 93.9373 36.6587 93.8853 36.5807C93.8333 36.5027 93.7293 36.4507 93.6253 36.4507C93.5213 36.4507 93.4433 36.4767 93.3653 36.5287C91.7793 37.8547 90.0893 39.1547 88.3733 40.3247C88.0613 40.5327 87.8793 40.6107 87.7493 40.5587C87.6713 40.5327 87.6193 40.4027 87.5933 40.2987C87.5673 40.1427 87.6193 39.9607 87.6713 39.7267C87.7753 39.3367 87.8793 38.8427 88.0353 38.4007C88.0613 38.2967 88.0613 38.2187 88.0093 38.1147C87.9573 38.0367 87.8793 37.9587 87.8013 37.9327C87.7493 37.9067 87.6973 37.9067 87.6713 37.9067Z" fill="#263238"/>
<path d="M90.5825 45.7599C90.5565 45.7599 90.5305 45.7599 90.5045 45.7339L89.4645 45.0059C89.4125 44.9539 89.3865 44.8759 89.4385 44.8239C89.4905 44.7719 89.5685 44.7459 89.6205 44.7979L90.6605 45.5259C90.7125 45.5779 90.7385 45.6559 90.6865 45.7079C90.6605 45.7339 90.6085 45.7599 90.5825 45.7599Z" fill="#263238"/>
<path d="M93.0793 47.5287C93.0533 47.5287 93.0273 47.5287 93.0013 47.5027L91.5973 46.5147C91.5453 46.4627 91.5193 46.3847 91.5713 46.3327C91.6233 46.2807 91.7013 46.2547 91.7533 46.3067L93.0273 47.2167L97.2133 40.4567C97.2393 40.4047 97.3173 40.3787 97.3953 40.4047C97.4473 40.4307 97.4733 40.5087 97.4473 40.5867L93.2093 47.4507C93.1833 47.5027 93.1573 47.5287 93.0793 47.5287C93.1053 47.5287 93.1053 47.5287 93.0793 47.5287Z" fill="#263238"/>
<path d="M98.9558 37.9853C98.9298 37.9853 98.9037 37.9853 98.8777 37.9593C98.8257 37.9333 98.7998 37.8553 98.8258 37.7773L100.984 34.2413L92.3258 30.8353L90.4277 33.5653C90.3757 33.6173 90.2978 33.6433 90.2458 33.5913C90.1938 33.5393 90.1678 33.4613 90.2198 33.4093L92.1958 30.6013C92.2218 30.5493 92.2998 30.5233 92.3518 30.5493L101.244 34.0593C101.27 34.0853 101.296 34.1113 101.322 34.1373C101.322 34.1633 101.322 34.2153 101.322 34.2413L99.0598 37.9073C99.0598 37.9593 99.0078 37.9853 98.9558 37.9853Z" fill="#263238"/>
<path d="M72.4359 54.9624C72.3839 54.9624 72.3579 54.9364 72.3319 54.9104C72.1239 54.5464 70.6159 48.4624 70.4599 47.7604C70.4339 47.6824 70.4859 47.6304 70.5639 47.6044C70.6419 47.5784 70.6939 47.6304 70.7199 47.7084C71.3959 50.4124 72.4359 54.5204 72.5659 54.7804C72.5919 54.8324 72.5919 54.9104 72.5139 54.9624C72.4879 54.9624 72.4619 54.9624 72.4359 54.9624Z" fill="#263238"/>
<path d="M73.1373 54.2872C73.0853 54.2872 73.0593 54.2612 73.0333 54.2092L71.2133 50.7772C71.1873 50.7252 71.2133 50.6472 71.2653 50.5952C71.3173 50.5692 71.3953 50.5952 71.4473 50.6472L73.2673 54.0792C73.2933 54.1312 73.2673 54.2092 73.2153 54.2612C73.1893 54.2872 73.1633 54.2872 73.1373 54.2872Z" fill="#263238"/>
<path d="M69.4191 55.1715C69.3671 55.1715 69.2891 55.1195 69.2891 55.0675C69.2891 54.9895 69.3411 54.9375 69.3931 54.9375C70.1211 54.8595 70.8491 54.7295 71.5771 54.5995C71.6551 54.5735 71.7071 54.6255 71.7331 54.7035C71.7591 54.7815 71.7071 54.8335 71.6291 54.8595C70.9011 54.9635 70.1471 55.0935 69.4191 55.1715Z" fill="#263238"/>
<path d="M71.3956 51.1935C71.3696 51.1935 71.3436 51.1935 71.3436 51.1675C71.2916 51.1415 71.2656 51.0895 71.2656 51.0375C71.2656 50.9855 71.2916 50.9595 71.3176 50.9335L71.6816 47.5795C71.6816 47.5015 71.7596 47.4495 71.8116 47.4755C71.8896 47.4755 71.9416 47.5535 71.9156 47.6055L71.5516 50.9855V51.0115C71.5516 51.0635 71.5516 51.1155 71.4996 51.1415C71.4736 51.1675 71.4476 51.1935 71.3956 51.1935Z" fill="#263238"/>
<path d="M84.0034 47.3709C84.0034 47.8129 83.5614 48.7229 83.5614 48.7229C83.5614 48.7229 83.5614 48.7749 83.5354 48.8269C83.5094 48.9309 83.4834 49.1129 83.4314 49.2949C83.3274 49.6329 83.1194 50.0749 82.7554 50.3609C82.6774 50.4129 82.6254 50.4649 82.5214 50.5429L82.4954 50.5689C81.9494 50.9849 81.1434 51.5569 80.6494 51.8949L80.3894 51.4789C80.3894 51.4789 79.6874 50.4649 79.5054 50.1269C79.5054 50.1009 79.6354 49.9709 79.6354 49.9449C79.6614 49.7629 79.6094 49.5289 79.5574 49.3209C79.5314 49.2429 79.5314 49.1649 79.5054 49.1129C79.4794 49.0089 79.4794 48.9309 79.5314 48.8529C79.5574 48.8269 79.5834 48.7749 79.6354 48.7229C80.0254 48.3069 81.2994 47.0849 81.2994 47.0849C81.2994 47.0849 81.4814 46.9549 81.6894 46.8769C81.7934 46.8249 81.9234 46.7729 82.0014 46.7989C82.0534 46.7989 82.1054 46.8249 82.1054 46.8769C82.1054 46.9029 82.1054 46.9549 82.1054 47.0069C82.0534 47.3709 81.6374 48.2029 81.6114 48.2809C81.6114 48.3329 81.6634 48.3329 81.6894 48.2289C81.7674 48.1769 82.2874 47.8129 82.8334 47.5269H82.8594C83.3534 47.2669 83.8474 47.0849 83.9514 47.1889C83.9514 47.1889 83.9514 47.2149 83.9774 47.2149C83.9774 47.2409 84.0034 47.2669 84.0034 47.2669C84.0034 47.3189 84.0034 47.3449 84.0034 47.3709Z" fill="white"/>
<path d="M80.6754 52.0777C80.6234 52.0777 80.5974 52.0517 80.5714 52.0257C80.5194 51.9737 80.5454 51.8957 80.5974 51.8437C81.1174 51.4797 81.9494 50.9077 82.4174 50.5437L82.4434 50.5177C83.1194 50.0237 83.1974 49.7637 83.2754 49.3477L83.3014 49.2697C83.3274 49.1917 83.3274 49.0877 83.3534 49.0097C83.3534 48.9577 83.3794 48.9057 83.4054 48.8537C83.4574 48.6717 83.5615 48.4637 83.6395 48.2817C83.7695 47.9697 83.8995 47.6577 83.8995 47.4237C83.8995 47.3977 83.8995 47.3977 83.8995 47.3717V47.3457C83.8735 47.3457 83.6654 47.3197 82.9634 47.7097C82.9634 47.7097 82.9374 47.7357 82.9114 47.7357C82.3134 48.0997 81.6374 48.5677 81.6114 48.5677C81.5594 48.5937 81.4814 48.5937 81.4554 48.5677C81.4034 48.5157 81.4035 48.4637 81.4295 48.4117C81.4555 48.3597 81.5074 48.3077 81.5334 48.2557C81.9494 47.5797 82.0274 47.2677 82.0274 47.1117C82.0274 47.0337 82.0014 47.0077 81.9754 47.0077C81.9494 46.9817 81.8974 46.9817 81.8454 46.9817C81.8194 46.9817 81.7934 46.9817 81.7674 46.9817C81.5334 47.0077 81.0914 47.5017 80.6754 47.9177C80.4414 48.1777 80.1814 48.4377 79.9734 48.6197C79.8954 48.6977 79.8174 48.7757 79.7914 48.8537C79.7914 48.8537 79.7914 48.8537 79.7914 48.8797C79.7394 48.9577 79.7134 49.0617 79.7134 49.1657C79.7134 49.2437 79.7134 49.2957 79.7134 49.3737C79.7134 49.4517 79.7395 49.5297 79.7395 49.6077C79.7655 49.7637 79.7914 49.8937 79.7654 50.0237C79.7654 50.0497 79.7654 50.0757 79.6614 50.2577V50.2837C79.6354 50.3357 79.5575 50.3877 79.4795 50.3617C79.4275 50.3357 79.3754 50.2577 79.4014 50.1797L79.4274 50.1537C79.4534 50.1017 79.5054 50.0237 79.5054 49.9717C79.5054 49.8937 79.5055 49.7637 79.4795 49.6337C79.4535 49.5557 79.4534 49.4777 79.4274 49.3997C79.4274 49.2957 79.4014 49.2177 79.4274 49.1397C79.4274 49.0097 79.4794 48.8797 79.5314 48.7497C79.5834 48.6457 79.6614 48.5417 79.7654 48.4377C79.9734 48.2557 80.2334 47.9957 80.4674 47.7357C80.9614 47.2157 81.3775 46.7737 81.6895 46.7217C81.7155 46.7217 81.7674 46.7217 81.7934 46.7217C81.9234 46.7217 82.0015 46.7477 82.0795 46.7737C82.1575 46.8257 82.2354 46.9037 82.2614 47.0857C82.2614 47.2937 82.1574 47.6057 81.9234 48.0477C82.1574 47.8917 82.4694 47.6837 82.7814 47.5277H82.8074C83.7434 47.0077 83.9514 47.0857 84.0554 47.2157C84.0554 47.2157 84.0814 47.2417 84.0814 47.2677C84.0814 47.2937 84.1074 47.3197 84.1074 47.3457C84.1074 47.3717 84.1334 47.4237 84.1334 47.4497C84.1594 47.7357 84.0294 48.0737 83.8734 48.4117C83.7954 48.5937 83.7174 48.7757 83.6654 48.9577C83.6394 49.0097 83.6395 49.0357 83.6395 49.0877C83.6135 49.1917 83.6134 49.2697 83.5874 49.3477L83.5614 49.4257C83.4834 49.8677 83.3534 50.2057 82.6514 50.7257C82.6254 50.7517 82.5994 50.7517 82.5734 50.7777C82.1054 51.1157 81.2995 51.6877 80.7795 52.0517C80.7275 52.0777 80.7014 52.0777 80.6754 52.0777Z" fill="#263238"/>
<path d="M91.4672 52.1032C91.4152 52.1032 91.3892 52.0772 91.3632 52.0512C91.3372 51.9992 91.3372 51.9212 91.4152 51.8692C91.8572 51.5832 92.2732 51.2712 92.6372 50.9072C92.6892 50.8552 92.7672 50.8552 92.8192 50.9072C92.8712 50.9592 92.8712 51.0372 92.8192 51.0892C92.4292 51.4532 92.0132 51.7912 91.5452 52.0772C91.5192 52.1032 91.4932 52.1032 91.4672 52.1032Z" fill="#263238"/>
<path d="M97.3956 42.197C97.3436 42.197 97.2916 42.145 97.2656 42.093C97.1616 41.599 97.1616 41.105 97.2916 40.533C96.6936 40.585 96.0956 40.559 95.4976 40.455C95.4196 40.429 95.2636 40.403 95.1856 40.299C95.0816 40.169 95.1336 39.987 95.2376 39.883C95.3156 39.779 95.4456 39.753 95.5496 39.701C96.0696 39.519 96.6156 39.441 97.0836 39.363C97.2656 39.337 97.4736 39.311 97.6816 39.363C98.0716 39.467 98.2796 39.831 98.4356 40.169C98.4616 40.221 98.4356 40.299 98.3836 40.351C98.3316 40.377 98.2536 40.351 98.2016 40.299C98.0456 39.987 97.8636 39.701 97.6036 39.623C97.4476 39.571 97.2916 39.597 97.1096 39.623C96.6416 39.701 96.1216 39.779 95.6276 39.961C95.5496 39.987 95.4716 40.013 95.4196 40.065C95.3936 40.091 95.3676 40.143 95.3936 40.169C95.4196 40.195 95.4976 40.221 95.5496 40.221C96.1736 40.325 96.8236 40.351 97.4476 40.299C97.4996 40.299 97.5256 40.299 97.5516 40.351C97.5776 40.377 97.5776 40.429 97.5776 40.455C97.4216 41.079 97.3956 41.573 97.5256 42.067C97.5516 42.145 97.4996 42.197 97.4216 42.223C97.4216 42.197 97.4216 42.197 97.3956 42.197Z" fill="#263238"/>
<path d="M95.6272 39.8052C95.5752 39.8052 95.5232 39.7792 95.4712 39.7532C95.3932 39.7012 95.3672 39.6232 95.3672 39.5452C95.3672 39.4412 95.4192 39.3372 95.4972 39.2332C95.6532 39.0512 95.8612 38.9732 96.0692 38.8952C96.7192 38.6872 97.3952 38.6352 97.9672 38.7652C98.0452 38.7912 98.0712 38.8432 98.0712 38.9212C98.0452 38.9992 97.9932 39.0252 97.9152 39.0252C97.3692 38.8952 96.7452 38.9472 96.1472 39.1552C95.9912 39.2072 95.8092 39.2852 95.6792 39.4152C95.6272 39.4672 95.6272 39.4932 95.6272 39.5452C95.6272 39.5452 95.6272 39.5712 95.6532 39.5712C95.7312 39.5452 95.7832 39.5972 95.8092 39.6752C95.8352 39.7532 95.7832 39.8052 95.7052 39.8312C95.6532 39.8052 95.6272 39.8052 95.6272 39.8052Z" fill="#263238"/>
<path d="M98.9285 42.8475C98.9025 42.8475 98.8765 42.8475 98.8505 42.8215C98.7985 42.7695 98.7985 42.6915 98.8245 42.6395C99.4225 41.9115 99.5785 40.8715 99.2145 40.0135L99.1625 39.9095C99.1105 39.7795 99.0325 39.6235 99.0065 39.4675C98.9805 39.3375 99.0065 39.2075 99.0065 39.0775C99.0325 38.9475 99.0325 38.8175 99.0065 38.6875C98.9545 38.4795 98.7465 38.3235 98.5385 38.1935C98.0965 37.8815 97.6025 37.5955 97.0825 37.5435C97.0045 37.5435 96.9265 37.5435 96.8745 37.5695C96.8485 37.5955 96.8485 37.6475 96.8485 37.6735L97.4465 38.0375C97.5765 38.1155 97.7585 38.2195 97.8365 38.4275C97.8885 38.5315 97.8885 38.6355 97.8625 38.7395C97.8625 38.7915 97.8625 38.8435 97.8625 38.8955C97.8625 38.9735 97.8365 39.0255 97.7585 39.0515C97.6805 39.0515 97.6285 39.0255 97.6025 38.9475C97.6025 38.8695 97.6025 38.8175 97.6025 38.7395C97.6025 38.6615 97.6025 38.5835 97.5765 38.5315C97.5245 38.4275 97.4205 38.3495 97.2905 38.2715L96.6665 37.9075C96.5885 37.8555 96.5625 37.7775 96.5625 37.6735C96.5625 37.5695 96.6145 37.4395 96.6925 37.3615C96.8225 37.2835 96.9525 37.2835 97.0565 37.3095C97.6285 37.3615 98.1485 37.6735 98.6165 38.0115C98.8765 38.1675 99.1105 38.3755 99.1885 38.6615C99.2405 38.8175 99.2145 38.9995 99.1885 39.1555C99.1625 39.2595 99.1625 39.3895 99.1885 39.4675C99.2145 39.5975 99.2665 39.7015 99.3185 39.8315L99.3705 39.9355C99.7865 40.8715 99.6045 42.0415 98.9545 42.8215C99.0065 42.8215 98.9805 42.8475 98.9285 42.8475Z" fill="#263238"/>
<path d="M69.6016 32.2412L70.6156 30.9932L71.3436 31.9812C71.3696 31.9812 70.5376 32.3452 69.6016 32.2412Z" fill="white"/>
<path d="M73.7617 40.223L72.9297 42.329L76.1277 43.941V41.653L77.4017 43.655C77.4017 43.655 78.3117 42.355 78.9617 40.717L77.9997 39.625C77.9997 39.625 76.8037 41.497 76.0757 41.445C75.3737 41.341 73.7617 40.223 73.7617 40.223Z" fill="white"/>
<path d="M78.4417 29.4322L78.7277 31.2782C78.7277 31.2782 79.6637 31.3302 79.6377 31.9802C79.5857 32.6302 78.9357 33.6702 78.9357 33.6702C78.9357 33.6702 79.3777 36.5822 77.9997 37.9862V39.4162C77.9997 39.4162 77.0897 41.2102 76.1537 41.6002C76.1537 41.6002 74.5937 41.0542 73.8397 40.3522C73.8397 40.3522 72.7477 36.4782 72.3577 35.2562C72.3577 35.2562 71.6557 35.6722 71.2137 35.2822C70.7717 34.8922 70.0437 33.9562 70.3817 33.4362C70.7197 32.9422 71.6037 33.1502 71.6037 33.1502L70.6157 31.0182C70.6157 31.0182 72.3057 28.8342 74.5417 28.9122C76.7777 28.9902 78.4417 29.4322 78.4417 29.4322Z" fill="white"/>
<path d="M73.3193 29.5107C73.8133 30.3167 74.0473 31.3047 73.9433 32.2407C73.8913 32.7867 73.7613 33.3067 73.7093 33.8267C73.6573 34.6847 73.9173 35.5167 74.1513 36.3487C74.3073 36.8947 74.4373 37.5967 74.9313 37.8567C75.1653 37.9867 75.4513 37.8827 75.7633 38.0907C75.7633 38.1167 75.7893 38.1687 75.7893 38.1947C75.7893 38.9227 75.9193 39.6507 75.8153 40.3787C75.7633 40.7687 75.6593 41.1587 75.3993 41.4447L73.7353 40.2227C73.7353 40.2227 73.0073 37.3887 72.3053 35.3087C72.3053 35.3087 71.1093 35.5947 70.6413 34.6587C70.1473 33.7227 70.1993 33.3327 70.6673 33.2027C71.1613 33.0727 71.8373 33.2287 71.8373 33.2287L71.4993 30.9667L72.8513 29.5887L73.3193 29.5107Z" fill="#0085E5"/>
<path opacity="0.5" d="M73.3193 29.5107C73.8133 30.3167 74.0473 31.3047 73.9433 32.2407C73.8913 32.7867 73.7613 33.3067 73.7093 33.8267C73.6573 34.6847 73.9173 35.5167 74.1513 36.3487C74.3073 36.8947 74.4373 37.5967 74.9313 37.8567C75.1653 37.9867 75.4513 37.8827 75.7633 38.0907C75.7633 38.1167 75.7893 38.1687 75.7893 38.1947C75.7893 38.9227 75.9193 39.6507 75.8153 40.3787C75.7633 40.7687 75.6593 41.1587 75.3993 41.4447L73.7353 40.2227C73.7353 40.2227 73.0073 37.3887 72.3053 35.3087C72.3053 35.3087 71.1093 35.5947 70.6413 34.6587C70.1473 33.7227 70.1993 33.3327 70.6673 33.2027C71.1613 33.0727 71.8373 33.2287 71.8373 33.2287L71.4993 30.9667L72.8513 29.5887L73.3193 29.5107Z" fill="white"/>
<path d="M71.6305 33.775L72.1765 33.463C72.1765 33.463 71.7085 32.527 72.2545 32.085C72.8265 31.643 73.3205 31.097 72.9305 29.797C72.9305 29.797 73.7365 29.407 75.0105 29.719C76.2845 30.031 79.5085 30.395 80.9125 28.913C82.3165 27.431 82.4205 26.859 81.8745 25.845C81.3025 24.857 80.2885 26.287 78.5985 25.559C76.9085 24.831 75.6345 24.233 72.8005 26.079C69.9665 27.925 69.5245 29.563 70.0965 30.681C70.6685 31.799 71.1885 32.787 71.6305 33.775Z" fill="#263238"/>
<path d="M69.7305 31.8243L70.0945 31.0183C70.0945 31.0183 69.4965 29.5103 69.9645 27.7163C70.5365 25.5063 72.9805 24.4143 74.4625 24.2063C75.9445 23.9983 77.0625 24.7003 78.1805 25.2723L80.2345 25.6883C80.2085 25.6623 73.9425 26.4163 69.7305 31.8243Z" fill="white"/>
<path d="M76.9843 38.4029C76.0483 38.4029 74.4623 38.0389 73.7863 37.4409L73.7603 37.4149L72.2783 35.2829C72.2263 35.2309 72.2523 35.1529 72.3043 35.1009C72.3563 35.0489 72.4343 35.0749 72.4863 35.1269L73.9683 37.2589C74.8003 37.9609 76.8543 38.2989 77.4523 38.1169C78.0243 37.9349 78.7263 37.4409 78.8823 35.2309C79.0643 32.9949 78.4663 30.0569 78.4663 30.0309C78.4403 29.9529 78.4923 29.9009 78.5703 29.8749C78.6483 29.8489 78.7003 29.9009 78.7263 29.9789C78.7263 30.0049 79.3243 32.9689 79.1423 35.2309C78.9603 37.5969 78.1803 38.1429 77.5303 38.3249C77.3743 38.3769 77.1923 38.4029 76.9843 38.4029Z" fill="#263238"/>
<path d="M71.7058 35.5151C71.5498 35.5151 71.3678 35.4891 71.1858 35.3851C70.8218 35.2031 70.4578 34.7091 70.3018 34.1891C70.2238 33.9551 70.1718 33.6171 70.3018 33.3831C70.6138 32.8111 71.5238 33.2011 71.5498 33.2271C71.6018 33.2531 71.6538 33.3311 71.6018 33.4091C71.5758 33.4611 71.4978 33.5131 71.4198 33.4611C71.4198 33.4611 70.6918 33.1491 70.4838 33.5131C70.4058 33.6431 70.4058 33.8511 70.5098 34.1111C70.6398 34.5531 70.9778 35.0211 71.2638 35.1511C71.7058 35.3851 72.0958 35.1511 72.0958 35.1251C72.1478 35.0991 72.2258 35.0991 72.2778 35.1511C72.3038 35.2031 72.3038 35.2811 72.2518 35.3331C72.2518 35.3851 72.0178 35.5151 71.7058 35.5151Z" fill="#263238"/>
<path d="M76.9063 34.3226C76.8543 34.3226 76.8023 34.2706 76.7763 34.2186C76.7503 34.1406 76.8023 34.0886 76.8803 34.0626C77.0363 34.0366 77.1663 33.9586 77.2703 33.8286C77.3223 33.7766 77.3483 33.6986 77.3223 33.6466C77.3223 33.6206 77.2963 33.5946 77.2703 33.5686C77.1663 33.4646 77.0883 33.3606 77.0103 33.2566C76.9583 33.1786 76.8803 33.0746 76.8543 32.9706C76.8283 32.8666 76.8283 32.7626 76.8283 32.6846C76.8283 32.3986 76.8283 32.1126 76.8803 31.8266C76.8803 31.7486 76.9583 31.6966 77.0363 31.7226C77.1143 31.7226 77.1663 31.8006 77.1403 31.8786C77.0883 32.1386 77.0883 32.4246 77.0883 32.6846C77.0883 32.7626 77.0883 32.8406 77.1143 32.9186C77.1403 32.9966 77.1923 33.0746 77.2443 33.1526C77.3223 33.2566 77.4003 33.3346 77.4783 33.4386C77.5043 33.4906 77.5563 33.5166 77.5823 33.5686C77.6343 33.6986 77.6083 33.8806 77.5043 34.0106C77.3483 34.1406 77.1403 34.2706 76.9063 34.3226C76.9323 34.3226 76.9323 34.3226 76.9063 34.3226Z" fill="#263238"/>
<path d="M76.1255 35.4915C76.0475 35.4915 75.9435 35.4915 75.8915 35.4655C75.8655 35.4655 75.8395 35.4655 75.8135 35.4655C75.5275 35.4395 75.2415 35.3615 75.0075 35.2315C74.9555 35.2055 74.9295 35.1275 74.9555 35.0495C74.9815 34.9975 75.0595 34.9715 75.1375 34.9975C75.3455 35.1275 75.6055 35.1795 75.8395 35.2055C75.8655 35.2055 75.8915 35.2055 75.9435 35.2055C76.0735 35.2315 76.2295 35.2315 76.3595 35.1795C76.4115 35.1535 76.4895 35.1795 76.5415 35.2315C76.5675 35.2835 76.5415 35.3615 76.4895 35.4135C76.3335 35.4915 76.2295 35.4915 76.1255 35.4915Z" fill="#263238"/>
<path d="M74.2808 31.4091C74.2548 31.4091 74.2288 31.4091 74.2028 31.3831C74.1508 31.3571 74.1248 31.2791 74.1508 31.2011C74.2548 31.0191 74.4108 30.8111 74.5928 30.6551C74.8788 30.3951 75.2688 30.2911 75.6588 30.3691C75.7368 30.3951 75.7628 30.4471 75.7628 30.5251C75.7368 30.6031 75.6848 30.6291 75.6068 30.6291C75.3208 30.5771 74.9828 30.6551 74.7748 30.8631C74.6188 30.9931 74.5148 31.1751 74.3848 31.3571C74.3848 31.3831 74.3328 31.4091 74.2808 31.4091Z" fill="#263238"/>
<path d="M78.4397 31.2524C78.3877 31.2524 78.3357 31.2004 78.3097 31.1484C78.3097 31.0964 78.2837 31.0444 78.2317 31.0184C78.2057 30.9924 78.1537 30.9664 78.0757 30.9404C77.9197 30.8624 77.5037 30.7324 77.1917 30.9144C77.1397 30.9404 77.0617 30.9404 77.0097 30.8624C76.9837 30.8104 76.9837 30.7324 77.0617 30.6804C77.3737 30.4984 77.7637 30.4984 78.1797 30.6804C78.2577 30.7064 78.3357 30.7584 78.3877 30.8104C78.4657 30.8884 78.5177 30.9664 78.5177 31.0704C78.5697 31.1744 78.5177 31.2264 78.4397 31.2524Z" fill="#263238"/>
<path d="M75.554 32.3185C75.58 32.5005 75.502 32.6825 75.424 32.6825C75.32 32.6825 75.242 32.5525 75.216 32.3445C75.19 32.1625 75.268 31.9805 75.346 31.9805C75.45 31.9805 75.554 32.1365 75.554 32.3185Z" fill="#263238"/>
<path d="M77.9486 32.1886C77.9746 32.3706 77.8966 32.5526 77.8186 32.5526C77.7146 32.5526 77.6366 32.4226 77.6106 32.2146C77.5846 32.0326 77.6626 31.8506 77.7406 31.8506C77.8446 31.8506 77.9226 32.0066 77.9486 32.1886Z" fill="#263238"/>
<path d="M78.0234 39.7045C77.9714 39.7045 77.8934 39.6525 77.8934 39.6005C77.7894 38.5605 77.8154 38.0665 77.8154 38.0665C77.8154 37.9885 77.8934 37.9365 77.9454 37.9365C78.0234 37.9365 78.0754 38.0145 78.0754 38.0665C78.0754 38.0665 78.0494 38.5605 78.1534 39.5745C78.1534 39.6265 78.1014 39.7045 78.0234 39.7045Z" fill="#263238"/>
<path d="M73.7349 40.3273C73.6829 40.3273 73.6049 40.2753 73.6049 40.2233C73.4489 38.8973 73.0329 37.7533 72.6169 36.5313C72.4609 36.1153 72.3309 35.6733 72.1749 35.2313C72.1489 35.1533 72.2009 35.1013 72.2529 35.0753C72.3309 35.0493 72.3829 35.1013 72.4089 35.1533C72.5389 35.5953 72.6949 36.0113 72.8509 36.4273C73.2929 37.6493 73.7089 38.8193 73.8649 40.1713C73.8649 40.2493 73.8129 40.3273 73.7349 40.3273C73.7609 40.3273 73.7349 40.3273 73.7349 40.3273Z" fill="#263238"/>
<path d="M69.6018 32.37C69.5758 32.37 69.5758 32.37 69.5498 32.37C69.4978 32.344 69.4458 32.292 69.4718 32.214C70.3038 28.678 72.3578 26.468 75.7638 25.48C77.8178 24.882 80.4698 25.506 80.5738 25.532C80.6258 25.558 80.6778 25.61 80.6778 25.662C80.6778 25.714 80.6258 25.766 80.5738 25.792C73.1118 26.598 69.7578 32.266 69.7058 32.318C69.7058 32.344 69.6538 32.37 69.6018 32.37ZM77.8438 25.48C77.1938 25.48 76.4918 25.532 75.8678 25.714C72.7998 26.598 70.8498 28.522 69.9398 31.538C71.0318 30.082 74.1778 26.494 79.7678 25.61C79.2478 25.558 78.5718 25.48 77.8438 25.48Z" fill="#263238"/>
<path d="M69.8874 32.4737C69.7054 32.4737 69.6014 32.4477 69.6014 32.4477C69.5234 32.4217 69.4974 32.3437 69.5234 32.2917C69.5494 32.2137 69.6274 32.1877 69.6794 32.2137C69.6794 32.2137 70.1474 32.3437 71.0574 31.9277C71.1354 31.9017 71.1874 31.9277 71.2394 32.0057C71.2654 32.0577 71.2394 32.1357 71.1614 32.1877C70.5634 32.4217 70.1474 32.4737 69.8874 32.4737Z" fill="#263238"/>
<path d="M69.9384 30.9148C69.9124 30.8628 68.6644 26.9628 71.7584 25.0648C75.5284 22.7508 78.2064 25.2208 78.2324 25.2468L78.0504 25.4288C77.9464 25.3248 75.4764 23.0628 71.8884 25.2728C68.9764 27.0668 70.1724 30.7848 70.1724 30.8368L69.9384 30.9148Z" fill="#263238"/>
<path d="M76.1525 44.0448C76.1265 44.0448 76.1265 44.0448 76.1005 44.0448C75.9965 43.9928 73.3445 42.8748 72.7985 42.2508C72.7725 42.2248 72.7465 42.1728 72.7725 42.1208L73.6305 40.1708C73.6565 40.1188 73.6825 40.0928 73.7345 40.0928C73.7865 40.0928 73.8125 40.0928 73.8385 40.1188C73.8385 40.1188 74.8005 41.1328 76.1525 41.4968C76.2045 41.5228 76.2565 41.5748 76.2565 41.6268V43.9148C76.2565 43.9668 76.2305 43.9928 76.2045 44.0188C76.2045 44.0448 76.1785 44.0448 76.1525 44.0448ZM73.0585 42.1468C73.5785 42.6408 75.4245 43.4728 76.0225 43.7328V41.7308C74.9305 41.4188 74.1245 40.7428 73.8125 40.4568L73.0585 42.1468Z" fill="#263238"/>
<path d="M77.4274 43.7335C77.4014 43.7335 77.4014 43.7335 77.4274 43.7335C77.3754 43.7335 77.3494 43.7075 77.3234 43.6815L76.0494 41.6795C76.0234 41.6535 76.0234 41.6275 76.0234 41.5755C76.0234 41.5495 76.0494 41.5235 76.0754 41.4975C76.1014 41.4975 77.5574 40.5355 77.9214 39.3915C77.9474 39.3395 77.9734 39.3135 78.0254 39.3135C78.0774 39.3135 78.1294 39.3135 78.1554 39.3655L79.0914 40.6135C79.1174 40.6395 79.1174 40.6915 79.1174 40.7175C79.0914 40.7955 78.6494 42.7195 77.5314 43.7075C77.4794 43.7335 77.4534 43.7335 77.4274 43.7335ZM76.3094 41.6535L77.4274 43.4215C78.3114 42.5375 78.7274 41.0295 78.8054 40.7175L78.0514 39.7035C77.6874 40.6655 76.6474 41.4195 76.3094 41.6535Z" fill="#263238"/>
<path d="M73.5528 28.3926C73.5008 28.3926 73.4488 28.3666 73.4228 28.2886C73.3968 28.2106 73.4488 28.1586 73.5268 28.1326C74.4628 27.8726 75.4248 27.7946 76.3868 27.8466C76.6728 27.8726 76.9588 27.8986 77.2188 27.9246C77.8428 28.0026 78.4928 28.0546 79.0908 27.9766C79.9228 27.8466 80.8328 27.3526 81.0148 26.4946C81.0408 26.4166 81.0928 26.3906 81.1708 26.3906C81.2488 26.4166 81.2748 26.4686 81.2748 26.5466C81.0668 27.5346 80.0528 28.1066 79.1168 28.2366C78.4668 28.3406 77.8168 28.2626 77.1668 28.1846C76.9068 28.1586 76.6208 28.1326 76.3348 28.1066C75.3988 28.0546 74.4628 28.1326 73.5528 28.3926C73.5788 28.3926 73.5788 28.3926 73.5528 28.3926Z" fill="white"/>
<path d="M75.3994 27.4304C75.3474 27.4304 75.3214 27.4044 75.2954 27.3524C75.2694 27.3004 75.2954 27.2224 75.3474 27.1704C76.1274 26.7544 77.0374 26.6764 77.8954 26.6244H77.9734C78.3374 26.5984 78.7274 26.5984 79.0914 26.4944C79.5074 26.3644 79.8194 26.1564 80.0014 25.8444C80.0274 25.7924 80.1054 25.7664 80.1834 25.7924C80.2354 25.8184 80.2614 25.8964 80.2354 25.9744C80.0274 26.3124 79.6634 26.5984 79.1694 26.7284C78.7794 26.8324 78.3894 26.8584 77.9734 26.8844H77.8954C77.0634 26.9364 76.2054 26.9884 75.4514 27.3784C75.4514 27.4044 75.4254 27.4304 75.3994 27.4304Z" fill="white"/>
<path d="M30.4218 78.5991C29.5898 78.9371 32.5798 83.7991 33.5678 84.0591C34.5558 84.3191 37.6238 76.7011 36.7918 76.2851C35.9598 75.8691 33.8278 82.2391 33.4118 82.2391C32.9698 82.2391 31.2278 78.2871 30.4218 78.5991Z" fill="#263238"/>
<path d="M63.0527 83.9039L62.5587 87.3358C62.5587 87.3358 62.7667 89.1819 59.3087 89.9879C57.8267 90.3259 55.6687 90.0918 53.6927 89.7018C51.0667 89.1818 48.7267 88.4279 48.7267 88.4279L49.2727 87.2839L50.1047 85.5418L50.0787 85.3078L50.0007 84.7618L48.9087 85.1258L40.3547 87.9598L39.4707 86.0618L46.6727 81.6418L46.6467 80.4458L45.2687 80.3939C45.2687 79.7179 45.7107 78.5998 45.7107 78.5998L46.5167 78.3658C46.5167 78.3658 45.7887 70.5658 46.0487 69.3698C46.3087 68.1738 48.8047 66.6918 48.8047 66.6918C49.5067 68.5118 50.9887 69.0839 50.9887 69.0839L51.6387 67.4979L52.2627 68.7718C53.8227 68.0698 55.1487 65.5479 55.1487 65.5479C55.1487 65.5479 58.7107 66.4838 61.3107 70.4618C63.8587 74.4138 63.0527 83.9039 63.0527 83.9039Z" fill="#FFA000"/>
<path opacity="0.2" d="M56.3966 85.0737C57.9826 86.8677 51.3526 85.9317 51.0926 85.8797C51.2486 85.9317 53.5886 86.7117 53.6926 89.4937C50.8326 89.1817 48.7266 88.4277 48.7266 88.4277L49.2726 87.2837L50.0786 85.3077L50.0006 84.7617L49.3506 81.0957C49.3506 81.0957 54.2126 81.6937 58.3986 82.3177L51.5346 82.6817C51.5346 82.7077 54.7846 83.2277 56.3966 85.0737Z" fill="black"/>
<path opacity="0.2" d="M48.5977 77.7927L54.6557 76.7267C54.4737 74.7767 54.6557 72.8007 55.5397 71.0587C55.7477 70.6167 56.0597 70.2527 56.3717 69.9147C56.5277 69.7587 57.0997 69.8627 56.9957 70.6167C56.7877 72.2027 56.7357 71.9947 56.5017 73.5547L56.0077 76.7527C56.0077 76.7527 59.3357 75.9207 59.8037 78.7027C59.8297 78.8587 59.6737 78.9887 59.5177 78.9107C58.7377 78.5467 56.8137 77.6887 56.0857 77.8707C56.0857 77.8707 53.2257 77.8447 52.2637 78.0527C51.3017 78.2607 48.7277 78.3127 48.7277 78.3127L48.5977 77.7927Z" fill="black"/>
<path opacity="0.2" d="M39.4707 86.0358L40.3547 87.9598L50.0007 84.7618L49.3507 81.1218L46.6727 80.7578L46.6467 81.6418L39.4707 86.0358Z" fill="black"/>
<path d="M39.7837 86.6846L39.3157 86.2166C39.3157 86.2166 37.8077 85.9826 37.0537 86.3206C36.2737 86.6586 33.8557 87.5686 34.1157 87.6986C34.3757 87.8286 35.7537 87.8546 35.7537 87.8546C35.7537 87.8546 32.7377 89.7006 32.7897 89.9086C32.8157 90.1426 35.6757 89.9086 36.1437 89.8046C36.6117 89.7006 40.1997 87.6726 40.1997 87.6726L39.7837 86.6846Z" fill="white"/>
<path d="M45.2956 80.082L45.6856 78.808C45.6856 78.808 44.3596 77.3 43.6316 77.196C42.9296 77.092 42.0196 77.456 42.0196 77.456C42.0196 77.456 40.7456 76.754 40.5636 77.092C40.3816 77.43 40.5896 78.184 40.5896 78.184C40.5896 78.184 40.0176 79.12 40.4076 79.484C40.7976 79.822 40.7976 80.29 40.7976 80.29C40.7976 80.29 43.5796 80.914 45.2956 80.082Z" fill="white"/>
<path d="M40.5364 77.2226C40.8744 76.8586 41.1344 78.1846 41.3944 78.6266C41.5244 78.8346 41.6544 79.0687 41.8624 79.2247C42.2264 79.5107 42.7204 79.5626 43.1884 79.5626C43.8904 79.5626 44.6184 79.5106 45.3204 79.4066L45.4764 79.9266C45.4764 79.9266 43.8644 80.7846 40.8224 80.2906C40.8224 80.2906 40.7184 79.7706 40.4324 79.4586C40.1464 79.1466 40.5624 78.3666 40.5624 78.3666C40.5624 78.3666 40.2244 77.5606 40.5364 77.2226Z" fill="#FFA000"/>
<path opacity="0.5" d="M40.5364 77.2226C40.8744 76.8586 41.1344 78.1846 41.3944 78.6266C41.5244 78.8346 41.6544 79.0687 41.8624 79.2247C42.2264 79.5107 42.7204 79.5626 43.1884 79.5626C43.8904 79.5626 44.6184 79.5106 45.3204 79.4066L45.4764 79.9266C45.4764 79.9266 43.8644 80.7846 40.8224 80.2906C40.8224 80.2906 40.7184 79.7706 40.4324 79.4586C40.1464 79.1466 40.5624 78.3666 40.5624 78.3666C40.5624 78.3666 40.2244 77.5606 40.5364 77.2226Z" fill="white"/>
<path d="M39.5741 74.1007C38.7941 75.1927 37.0521 75.2967 35.6741 74.3347C34.2961 73.3727 33.9061 71.6827 34.6861 70.5907C35.4661 69.4987 37.1041 69.3947 38.4821 70.3567C39.8341 71.3187 40.3281 72.9827 39.5741 74.1007Z" fill="white"/>
<path d="M35.2851 70.2793C35.2851 70.2793 35.2071 72.9313 39.4191 73.7113C39.4191 73.7113 39.5751 74.8033 38.0931 74.6213C36.6111 74.4393 35.1291 73.0873 34.8171 72.3073C34.5051 71.5273 34.4011 70.5393 35.2851 70.2793Z" fill="#FFA000"/>
<path opacity="0.4" d="M35.2851 70.2793C35.2851 70.2793 35.2071 72.9313 39.4191 73.7113C39.4191 73.7113 39.5751 74.8033 38.0931 74.6213C36.6111 74.4393 35.1291 73.0873 34.8171 72.3073C34.5051 71.5273 34.4011 70.5393 35.2851 70.2793Z" fill="white"/>
<path d="M38.1177 74.7511C38.0657 74.7511 38.0137 74.7511 37.9357 74.7511C37.2337 74.6991 36.4797 74.4131 35.8557 73.8931C35.2317 73.3731 34.7637 72.7231 34.5817 72.0211C34.3997 71.3191 34.4777 70.6691 34.8677 70.2011C35.2577 69.7331 35.8557 69.4991 36.5837 69.5511C37.2857 69.6031 38.0397 69.8891 38.6637 70.4091C39.2877 70.9291 39.7557 71.5791 39.9377 72.2811C40.1197 72.9831 40.0417 73.6331 39.6517 74.1011C39.3137 74.5171 38.7677 74.7511 38.1177 74.7511ZM36.4017 69.7851C35.8297 69.7851 35.3617 69.9931 35.0497 70.3571C34.7117 70.7731 34.6337 71.3191 34.8157 71.9431C34.9977 72.5671 35.4137 73.1911 36.0117 73.6851C36.6097 74.1531 37.2857 74.4391 37.9617 74.4911C38.6117 74.5431 39.1317 74.3351 39.4697 73.9191C39.8077 73.5031 39.8857 72.9571 39.7037 72.3331C39.5217 71.7091 39.1057 71.0851 38.5077 70.5911C37.9097 70.1231 37.2337 69.8371 36.5577 69.7851C36.5057 69.7851 36.4537 69.7851 36.4017 69.7851Z" fill="#263238"/>
<path d="M37.7271 75.1924C37.6751 75.1924 37.6231 75.1924 37.5451 75.1924C36.8431 75.1404 36.0891 74.8544 35.4651 74.3344C34.8411 73.8144 34.3731 73.1644 34.1911 72.4624C34.0091 71.7604 34.0871 71.1104 34.4771 70.6424C35.2571 69.6804 36.9731 69.7844 38.2731 70.8504C39.5991 71.9164 40.0411 73.5804 39.2611 74.5424C38.9231 74.9584 38.3771 75.1924 37.7271 75.1924ZM34.6851 70.7984C34.3471 71.2144 34.2691 71.7604 34.4511 72.3844C34.6331 73.0084 35.0491 73.6324 35.6471 74.1264C36.2451 74.5944 36.9211 74.8804 37.5971 74.9324C38.2471 74.9844 38.7671 74.7764 39.1051 74.3604C39.7811 73.5024 39.3651 72.0204 38.1431 71.0324C36.8951 70.0444 35.3611 69.9404 34.6851 70.7984Z" fill="#263238"/>
<path d="M42.6935 77.793L40.7435 77.221L38.6895 74.881C38.6895 74.855 38.6895 74.855 38.7155 74.829C38.7935 74.647 38.8975 74.517 38.9755 74.465C39.0535 74.413 39.1315 74.387 39.1835 74.361C39.2355 74.361 39.2615 74.335 39.2875 74.335H39.3135L42.6935 77.793Z" fill="#263238"/>
<path d="M40.3537 88.0897C40.3017 88.0897 40.2497 88.0637 40.2497 88.0117L39.3657 86.1137C39.3397 86.0617 39.3657 85.9837 39.4177 85.9577L46.5157 81.5897L46.4897 80.8097C46.4897 80.7317 46.5417 80.6797 46.6197 80.6797C46.6977 80.6797 46.7497 80.7317 46.7497 80.8097L46.7757 81.6677C46.7757 81.7197 46.7497 81.7457 46.7237 81.7717L39.6517 86.1137L40.4317 87.8037L49.9477 84.6577C50.0257 84.6317 50.0777 84.6837 50.1037 84.7357C50.1297 84.8137 50.0777 84.8657 50.0257 84.8917L40.3797 88.0897C40.3797 88.0897 40.3797 88.0897 40.3537 88.0897Z" fill="#263238"/>
<path d="M46.4912 78.5212C46.4132 78.5212 46.3612 78.4692 46.3612 78.3912L45.8672 69.6032C45.8672 69.5772 45.8672 69.5512 45.8672 69.5512C46.4132 68.2512 47.3752 67.1852 48.7272 66.4052C48.7792 66.3792 48.8572 66.3792 48.9092 66.4572C48.9352 66.5092 48.9352 66.5872 48.8572 66.6392C47.5832 67.3932 46.6472 68.4072 46.1272 69.6292L46.6212 78.3652C46.6212 78.4692 46.5692 78.5212 46.4912 78.5212Z" fill="#263238"/>
<path d="M62.2471 89.2598C62.2211 89.2598 62.2211 89.2598 62.2471 89.2598C62.1691 89.2598 62.1171 89.1818 62.1171 89.1038L62.9231 83.8778C62.9231 83.7998 63.1831 75.3498 61.9351 72.0478C60.5571 68.4338 56.7611 66.4058 55.1751 65.7038C55.1231 65.6778 55.0711 65.5998 55.1231 65.5218C55.1491 65.4698 55.2271 65.4178 55.3051 65.4698C56.9171 66.1978 60.7911 68.2518 62.1951 71.9698C63.4691 75.3238 63.2091 83.5658 63.2091 83.9298L62.4031 89.1558C62.3511 89.2078 62.2991 89.2598 62.2471 89.2598Z" fill="#263238"/>
<path d="M48.7012 78.4951C48.6492 78.4951 48.5972 78.4431 48.5712 78.3911L47.5312 72.7751C47.5312 72.6971 47.5572 72.6451 47.6352 72.6191C47.7132 72.6191 47.7652 72.6451 47.7912 72.7231L48.8312 78.3391C48.8572 78.4171 48.8052 78.4691 48.7012 78.4951C48.7272 78.4951 48.7272 78.4951 48.7012 78.4951Z" fill="#263238"/>
<path d="M52.7055 87.5691C52.6795 87.5691 52.6275 87.5431 52.6015 87.5431C52.0815 86.9971 51.3795 86.6331 50.6255 86.5031C50.5475 86.5031 50.5215 86.4251 50.5215 86.3471C50.5215 86.2691 50.5995 86.2171 50.6775 86.2431C51.4835 86.3731 52.2375 86.7891 52.7835 87.3611C52.8355 87.4131 52.8355 87.4911 52.7835 87.5431C52.7835 87.5431 52.7575 87.5691 52.7055 87.5691Z" fill="#263238"/>
<path d="M56.0597 78.0268C55.9817 78.0268 55.9297 77.9748 55.9297 77.8968C55.9297 77.8708 55.9297 75.9988 56.6057 72.7228C56.7617 71.9428 56.9697 71.2928 57.2037 70.7728C57.2297 70.7208 57.3077 70.6688 57.3857 70.7208C57.4377 70.7468 57.4897 70.8248 57.4377 70.9028C57.2037 71.3968 56.9957 72.0468 56.8397 72.8008C56.1637 76.0508 56.1637 77.8968 56.1637 77.9228C56.1897 77.9748 56.1377 78.0268 56.0597 78.0268Z" fill="#263238"/>
<path d="M59.4146 82.4471C57.0486 82.4471 47.3506 80.8871 45.2446 80.5231C45.1926 80.5231 45.1406 80.4711 45.1406 80.3931C45.1406 79.0411 45.7126 78.5211 45.7386 78.5211C45.7646 78.4951 45.7906 78.4951 45.8166 78.4951C46.9606 78.3651 47.9746 78.3131 48.9626 78.2351C49.9506 78.1831 50.9646 78.1311 52.0826 77.9751C54.2146 77.7151 56.8666 77.4031 59.0766 78.4951C59.1286 78.5211 59.1546 78.5991 59.1286 78.6771C59.1026 78.7291 59.0246 78.7551 58.9466 78.7291C56.8146 77.6891 54.1886 77.9751 52.1086 78.2351C50.9646 78.3651 49.9506 78.4171 48.9626 78.4951C48.0006 78.5471 46.9866 78.5991 45.8946 78.7291C45.7906 78.8331 45.4526 79.3011 45.4266 80.2891C50.9646 81.1991 59.2586 82.4211 59.7786 82.1611C60.1946 81.8751 61.2866 77.0651 61.8586 74.1011C61.8846 74.0231 61.9366 73.9971 62.0146 73.9971C62.0926 74.0231 62.1186 74.0751 62.1186 74.1531C61.8586 75.4531 60.5586 81.9531 59.9346 82.3691C59.8566 82.4211 59.6746 82.4471 59.4146 82.4471Z" fill="#263238"/>
<path d="M45.6334 78.8597C45.6074 78.8597 45.5814 78.8597 45.5554 78.8337C44.9314 78.2357 43.9694 77.4037 43.7094 77.3777C43.3974 77.3257 42.4354 77.4557 42.0974 77.5077C42.0194 77.5077 41.9674 77.4817 41.9414 77.4037C41.9414 77.3257 41.9674 77.2737 42.0454 77.2477C42.0974 77.2477 43.3454 77.0657 43.7354 77.1177C44.1514 77.1697 45.4514 78.3917 45.7114 78.6517C45.7634 78.7037 45.7634 78.7817 45.7114 78.8337C45.7114 78.8337 45.6594 78.8597 45.6334 78.8597Z" fill="#263238"/>
<path d="M42.6428 80.6026C41.6808 80.6026 40.8748 80.5246 40.7968 80.5246C40.7188 80.5246 40.6928 80.4726 40.6928 80.3946C40.6928 80.3946 40.6928 79.9526 40.3548 79.7186C39.9388 79.4326 40.3028 78.4966 40.4588 78.1846C40.3808 78.0546 40.2508 77.7166 40.4328 77.1966C40.4588 77.0926 40.5368 77.0146 40.6408 76.9626C41.0568 76.8066 41.9148 77.2486 42.6948 77.7166C42.7728 77.7686 42.8248 77.7946 42.8508 77.8206C42.8768 77.8206 42.9028 77.8466 42.9288 77.8726C42.9548 77.9246 42.9548 78.0026 42.9288 78.0286C42.8508 78.1066 42.7988 78.0806 42.5648 77.9506C42.2008 77.7426 41.0828 77.0926 40.7448 77.2226C40.7188 77.2486 40.6928 77.2486 40.6668 77.3006C40.4588 77.8726 40.6928 78.1066 40.6928 78.1066C40.7188 78.1326 40.7448 78.2106 40.7188 78.2626C40.5108 78.6786 40.3028 79.3806 40.5108 79.5366C40.8228 79.7706 40.9268 80.1086 40.9528 80.2906C41.5248 80.3426 44.1508 80.5246 45.1908 80.0046C45.2428 79.9786 45.3208 80.0046 45.3728 80.0566C45.3988 80.1086 45.3728 80.1866 45.3208 80.2386C44.6708 80.5246 43.6048 80.6026 42.6428 80.6026Z" fill="#263238"/>
<path d="M56.2686 72.3072C56.2166 72.3072 56.1386 72.2552 56.1386 72.2032C56.0866 71.6052 56.0866 71.0072 56.1386 70.3832C56.1386 70.3052 56.2166 70.2532 56.2686 70.2792C56.3466 70.2792 56.3986 70.3572 56.3726 70.4092C56.3206 70.9812 56.3206 71.5792 56.3726 72.1772C56.3986 72.2292 56.3466 72.3072 56.2686 72.3072Z" fill="#263238"/>
<path d="M48.6234 82.733C48.5974 82.733 48.5974 82.733 48.5714 82.733L46.5174 81.901C46.4394 81.875 46.4134 81.797 46.4394 81.745C46.4654 81.667 46.5434 81.641 46.5954 81.667L48.6494 82.499C48.7274 82.525 48.7534 82.603 48.7274 82.655C48.7274 82.707 48.6754 82.733 48.6234 82.733Z" fill="#263238"/>
<path d="M57.0734 77.6373C56.9954 77.6373 56.9434 77.5853 56.9434 77.5073C56.9434 77.4293 56.9954 77.3773 57.0734 77.3773C57.5934 77.3513 58.1134 77.2733 58.6074 77.1173C58.6854 77.0913 58.7374 77.1433 58.7634 77.1953C58.7894 77.2733 58.7374 77.3253 58.6854 77.3513C58.1654 77.5073 57.6194 77.6113 57.0734 77.6373Z" fill="#263238"/>
<path d="M48.8312 88.4795C48.8052 88.4795 48.8052 88.4795 48.7792 88.4795C48.7012 88.4535 48.6752 88.3755 48.7012 88.3235L49.9492 85.2555L49.1952 81.0955C49.1952 81.0175 49.2212 80.9655 49.2992 80.9395C49.3772 80.9395 49.4292 80.9655 49.4552 81.0435L50.2092 85.2295C50.2092 85.2555 50.2092 85.2815 50.2092 85.3075L50.1832 85.3855L48.9612 88.4275C48.9352 88.4535 48.8832 88.4795 48.8312 88.4795Z" fill="#263238"/>
<path d="M53.8232 85.672H53.7972C52.9912 85.49 52.1332 85.412 51.3012 85.386C50.8592 85.386 50.4432 85.412 50.1052 85.464C50.0272 85.464 49.9752 85.438 49.9492 85.36C49.9492 85.282 49.9752 85.23 50.0532 85.204C50.4172 85.152 50.8332 85.126 51.3012 85.126C52.1592 85.126 53.0172 85.23 53.8492 85.412C53.9272 85.438 53.9532 85.49 53.9532 85.568C53.9272 85.62 53.8752 85.672 53.8232 85.672Z" fill="#263238"/>
<path d="M33.5691 90.272C33.2311 90.272 32.9451 90.246 32.8151 90.22C32.7891 90.22 32.6851 90.194 32.6591 90.09C32.6331 89.986 32.5551 89.804 35.2591 88.036C34.7651 88.062 34.1671 88.062 34.0111 87.88C33.9591 87.828 33.9591 87.75 33.9591 87.672C34.0371 87.438 34.5051 87.23 35.5711 86.814C36.1171 86.606 36.6891 86.372 36.9231 86.216C37.7291 85.618 39.5491 86.268 39.6271 86.294C39.7051 86.32 39.7311 86.398 39.7051 86.45C39.6791 86.528 39.6011 86.554 39.5491 86.528C39.5231 86.528 37.7811 85.904 37.0791 86.424C36.8191 86.606 36.2731 86.814 35.6751 87.048C35.1551 87.256 34.3491 87.568 34.2191 87.724C34.3751 87.802 35.0251 87.802 35.7271 87.75C35.7791 87.75 35.8311 87.776 35.8571 87.828C35.8831 87.88 35.8571 87.958 35.8051 87.984C34.5831 88.79 33.2831 89.674 32.9451 89.986C33.4911 90.09 35.7271 89.96 36.3771 89.518C37.4951 88.738 39.9911 87.646 40.0951 87.594C40.1731 87.568 40.2251 87.594 40.2511 87.672C40.2771 87.724 40.2511 87.802 40.1731 87.828C40.1471 87.828 37.5731 88.972 36.4811 89.726C36.0131 90.09 34.5311 90.272 33.5691 90.272Z" fill="#263238"/>
<path d="M34.2719 90.2469C34.2199 90.2469 34.1939 90.2209 34.1679 90.1949C34.1419 90.1429 34.1419 90.0649 34.2199 90.0129L36.2219 88.7909C36.2739 88.7649 36.3519 88.7649 36.4039 88.8429C36.4299 88.8949 36.4299 88.9729 36.3519 89.0249L34.3499 90.2469C34.3239 90.2209 34.2979 90.2469 34.2719 90.2469Z" fill="#263238"/>
<path opacity="0.2" d="M45.9727 69.6299C45.9727 69.6299 47.3247 71.2939 47.7147 73.1919C48.1047 75.1159 48.7027 78.3659 48.7027 78.3659L46.5967 78.5219L45.9727 69.6299Z" fill="black"/>
<path d="M55.8486 107.407C55.8486 107.407 52.3126 110.995 51.8706 111.697C51.4286 112.399 50.9346 112.815 51.7666 113.231C52.5986 113.621 55.1206 113.361 55.7706 113.127C56.5766 112.815 58.9946 109.695 58.9946 109.695L58.6826 107.043L55.8486 107.407Z" fill="white"/>
<path d="M53.1965 113.647C51.9745 113.647 51.2725 113.335 51.1425 112.685C50.9345 111.775 54.9905 108.161 55.4585 107.745L55.5105 107.693L55.5885 107.719C55.6925 107.745 55.7965 107.771 55.9005 107.797C56.5505 108.005 57.3045 108.213 58.9425 108.109H59.0725V108.239C59.1245 108.837 59.1765 109.279 59.1765 109.279V109.331L59.1505 109.357C59.0725 109.513 57.3825 113.075 55.1205 113.465C54.3665 113.569 53.7425 113.647 53.1965 113.647ZM55.5625 107.979C53.7425 109.617 51.2465 112.087 51.3765 112.633C51.5325 113.387 52.8845 113.569 55.0945 113.205C57.0965 112.867 58.7345 109.669 58.9165 109.279C58.8905 109.175 58.8385 108.837 58.8125 108.395C57.2265 108.499 56.4725 108.265 55.8225 108.057C55.7185 108.031 55.6405 108.005 55.5625 107.979Z" fill="#263238"/>
<path d="M54.0569 112.944C52.9909 112.944 52.0029 112.58 51.4309 112.32C51.4049 112.32 51.4049 112.294 51.3789 112.294L51.4569 112.06C51.4569 112.06 51.4829 112.086 51.5349 112.086C52.3149 112.45 53.8229 112.97 55.2009 112.528C56.4749 112.112 58.7369 108.394 58.7629 108.368L58.9709 108.498C58.8669 108.654 56.6309 112.32 55.2789 112.762C54.8629 112.892 54.4469 112.944 54.0569 112.944Z" fill="#263238"/>
<path d="M54.5489 102.442C54.5489 102.442 45.5789 109.722 41.8609 109.722C41.8609 109.722 39.8589 108.994 39.1049 106.134C38.3769 103.274 41.1329 99.1142 41.1329 99.1142L48.5689 89.2082L49.0629 88.5322C49.0629 88.5322 56.7069 91.3142 61.7769 87.4922C61.7769 87.4922 62.2969 93.7322 61.0229 96.3322C59.7229 98.9322 54.5489 102.442 54.5489 102.442Z" fill="#263238"/>
<path d="M42.0422 109.488C41.9382 109.488 41.8602 109.488 41.8082 109.462C40.3262 109.072 39.1302 106.836 38.9222 105.38C38.7142 103.95 40.3522 99.6342 42.3022 97.1642C44.3042 94.6422 48.6722 89.0002 48.7242 88.9482L48.9322 89.1042C48.8802 89.1562 44.4862 94.7982 42.5102 97.3202C40.4562 99.9202 39.0002 104.106 39.1822 105.354C39.3642 106.68 40.5082 108.864 41.8602 109.228C41.9122 109.254 41.9902 109.254 42.0422 109.254C43.7842 109.254 50.7782 105.458 53.4302 102.754L53.6122 102.936C51.0902 105.51 44.0182 109.488 42.0422 109.488Z" fill="#263238"/>
<path d="M45.7328 102.78C45.7068 102.78 45.6548 102.754 45.6288 102.728C45.5768 102.676 45.5768 102.598 45.6288 102.546L54.4948 94.746C54.1568 93.706 53.5848 92.588 52.8568 91.6C52.8048 91.548 52.8308 91.47 52.8828 91.418C52.9348 91.366 53.0128 91.392 53.0648 91.444C53.8188 92.484 54.4168 93.654 54.7548 94.746C54.7808 94.798 54.7548 94.85 54.7288 94.876L45.8108 102.728C45.8108 102.78 45.7588 102.78 45.7328 102.78Z" fill="white"/>
<path d="M59.3068 105.588C59.7748 103.768 63.0248 93.5241 63.0508 91.6781C63.0768 89.7021 61.6208 85.2561 59.8008 84.0081C57.9808 82.7601 55.5888 84.2941 55.0948 85.4381C54.2108 87.4921 55.2768 107.98 55.2768 107.98C55.2768 107.98 55.1988 108.032 55.0948 108.136C55.8488 108.344 57.2008 108.604 59.0988 108.448C59.0468 107.694 59.0468 106.602 59.3068 105.588Z" fill="#263238"/>
<path d="M55.0685 99.6343C54.9905 99.6343 54.9385 99.5823 54.9385 99.5303C54.8865 99.0363 53.8465 87.3883 54.9385 85.1003C54.9645 85.0483 55.0425 85.0223 55.1205 85.0483C55.1725 85.0743 55.1985 85.1523 55.1725 85.2303C54.1065 87.4663 55.1725 99.4263 55.1985 99.5303C55.2245 99.5563 55.1725 99.6083 55.0685 99.6343C55.0945 99.6343 55.0945 99.6343 55.0685 99.6343Z" fill="white"/>
<path d="M63.1283 92.1715C63.0503 92.1715 62.9983 92.1195 62.9983 92.0415C63.0243 91.2095 62.7643 90.1175 62.6343 89.5975L62.6083 89.4675C62.5823 89.3895 62.6343 89.3375 62.7123 89.3115C62.7903 89.2855 62.8423 89.3374 62.8683 89.4154L62.8943 89.5454C63.0243 90.0914 63.2843 91.1835 63.2583 92.0415C63.2583 92.1195 63.2063 92.1715 63.1283 92.1715Z" fill="white"/>
<path d="M62.479 88.6092C62.427 88.6092 62.375 88.5832 62.349 88.5312C61.673 86.4512 60.789 85.0732 60.789 85.0472C60.763 84.9952 60.763 84.9172 60.841 84.8652C60.893 84.8392 60.971 84.8392 61.023 84.9172C61.023 84.9432 61.907 86.3212 62.609 88.4532C62.635 88.5312 62.583 88.5832 62.531 88.6092C62.505 88.6092 62.479 88.6092 62.479 88.6092Z" fill="white"/>
<path d="M53.978 64.8186L55.122 65.5466C55.122 65.5466 53.744 67.8866 52.236 68.7706L51.638 67.6266L50.988 69.1086L49.532 67.8606L48.778 66.5866L48.96 65.7026C48.96 65.7026 47.686 64.4806 46.828 61.9326C45.97 59.3846 45.918 57.9806 45.918 57.9806C45.918 57.9806 49.844 55.7706 50.728 56.3426C51.612 56.9146 52.86 58.4226 52.86 58.4226L54.238 58.1886C54.238 58.1886 55.122 60.7626 53.9 61.2566L53.978 64.8186Z" fill="white"/>
<path d="M50.7537 57.2524C50.0777 57.0444 49.3237 57.4344 48.8037 57.9024C48.2837 58.3964 47.8677 58.9944 47.2957 59.4364C47.7897 61.0224 48.3877 62.5564 49.0897 64.0644C49.2717 64.4544 49.4797 64.8704 49.8437 65.1304C50.4157 65.5724 51.2737 65.4944 51.8977 65.1564C52.5477 64.8184 53.0157 64.4284 53.4837 63.8564C53.4837 63.8564 52.3917 67.5484 51.6117 67.4964L50.1557 66.4044C50.1557 66.4044 49.1157 65.8064 48.5697 65.3124C48.0237 64.8184 46.9057 61.9324 46.5937 61.1784L45.7617 58.0584L49.9737 56.3164L50.7537 57.2524Z" fill="#0085E5"/>
<path opacity="0.5" d="M50.7537 57.2524C50.0777 57.0444 49.3237 57.4344 48.8037 57.9024C48.2837 58.3964 47.8677 58.9944 47.2957 59.4364C47.7897 61.0224 48.3877 62.5564 49.0897 64.0644C49.2717 64.4544 49.4797 64.8704 49.8437 65.1304C50.4157 65.5724 51.2737 65.4944 51.8977 65.1564C52.5477 64.8184 53.0157 64.4284 53.4837 63.8564C53.4837 63.8564 52.3917 67.5484 51.6117 67.4964L50.1557 66.4044C50.1557 66.4044 49.1157 65.8064 48.5697 65.3124C48.0237 64.8184 46.9057 61.9324 46.5937 61.1784L45.7617 58.0584L49.9737 56.3164L50.7537 57.2524Z" fill="white"/>
<path d="M53.5107 61.4381C53.3807 61.4381 53.2507 61.4121 53.0947 61.3601C53.0167 61.3341 52.9907 61.2561 53.0167 61.2041C53.0427 61.1261 53.1207 61.1001 53.1727 61.1261C53.4327 61.2041 53.6927 61.2041 53.8747 61.0741C54.1087 60.9441 54.3167 60.6581 54.4207 60.2681C54.5767 59.6961 54.4987 58.9161 54.2387 58.5781C54.1607 58.4741 54.0567 58.4221 53.9527 58.4221C53.5367 58.4481 53.2247 59.4101 53.1467 59.7221C53.1207 59.8001 53.0687 59.8261 52.9907 59.8261C52.9127 59.8001 52.8867 59.7481 52.8867 59.6701C52.9127 59.5141 53.2507 58.1881 53.9527 58.1621C54.1347 58.1621 54.3167 58.2401 54.4467 58.4221C54.7587 58.8381 54.8627 59.6961 54.6807 60.3461C54.5507 60.8141 54.3167 61.1521 54.0047 61.3081C53.8487 61.3861 53.6927 61.4381 53.5107 61.4381Z" fill="#263238"/>
<path d="M49.8961 63.8834C49.8701 63.8834 49.8181 63.8834 49.7921 63.8834C49.7141 63.8834 49.6621 63.8314 49.6621 63.7534C49.6621 63.6754 49.7141 63.6234 49.7921 63.6234C50.7801 63.6754 51.0661 63.0774 51.0661 63.0774C51.0921 63.0254 51.1701 62.9734 51.2481 63.0254C51.3001 63.0514 51.3521 63.1294 51.3001 63.2074C51.3001 63.2074 50.9621 63.8834 49.8961 63.8834Z" fill="#263238"/>
<path d="M49.4018 62.92C49.1418 62.92 48.9078 62.842 48.6998 62.712C48.6478 62.66 48.5438 62.608 48.4918 62.504C48.4138 62.348 48.4658 62.192 48.4918 62.062C48.5698 61.724 48.6478 61.334 48.6218 60.97C48.5958 60.58 48.4138 60.242 48.1798 60.06C48.1278 60.008 48.1278 59.93 48.1538 59.878C48.2058 59.826 48.2838 59.826 48.3358 59.852C48.6218 60.086 48.8298 60.502 48.8818 60.944C48.9078 61.36 48.8558 61.75 48.7518 62.114C48.7258 62.192 48.6998 62.322 48.7518 62.374C48.7778 62.426 48.8298 62.452 48.8558 62.478C49.0898 62.634 49.3758 62.686 49.6358 62.634C49.7138 62.608 49.7658 62.66 49.7918 62.738C49.8178 62.816 49.7658 62.868 49.6878 62.894C49.5578 62.92 49.4798 62.92 49.4018 62.92Z" fill="#263238"/>
<path d="M50.9361 59.3848C50.9101 59.3848 50.8841 59.3848 50.8581 59.3588C50.3901 59.0468 49.8181 58.9428 49.2721 59.0988C49.1941 59.1248 49.1421 59.0728 49.1161 58.9948C49.0901 58.9168 49.1421 58.8648 49.2201 58.8388C49.8181 58.6828 50.4941 58.7868 51.0141 59.1508C51.0661 59.2028 51.0921 59.2808 51.0401 59.3328C51.0141 59.3588 50.9621 59.3848 50.9361 59.3848Z" fill="#263238"/>
<path d="M46.4117 60.268C46.3857 60.268 46.3597 60.268 46.3337 60.242C46.2817 60.216 46.2557 60.138 46.2817 60.06C46.4377 59.8 46.6717 59.618 46.9837 59.54C47.2697 59.462 47.5817 59.514 47.8157 59.696C47.8677 59.722 47.8937 59.826 47.8417 59.878C47.8157 59.93 47.7117 59.956 47.6597 59.904C47.4777 59.774 47.2437 59.748 47.0097 59.8C46.8017 59.852 46.5937 60.008 46.4897 60.19C46.4897 60.242 46.4377 60.268 46.4117 60.268Z" fill="#263238"/>
<path d="M49.8696 60.5287C49.9476 60.7107 50.0776 60.8407 50.1816 60.8147C50.2856 60.7887 50.3116 60.5807 50.2596 60.3987C50.1816 60.2167 50.0516 60.0867 49.9476 60.1127C49.8436 60.1647 49.7916 60.3467 49.8696 60.5287Z" fill="#263238"/>
<path d="M47.6061 61.1527C47.6841 61.3347 47.8141 61.4647 47.9181 61.4387C48.0221 61.4127 48.0741 61.2047 47.9961 61.0227C47.9181 60.8407 47.7881 60.7107 47.6841 60.7367C47.5801 60.7887 47.5541 60.9707 47.6061 61.1527Z" fill="#263238"/>
<path d="M50.234 66.3008C49.532 66.3008 48.648 65.9368 47.608 63.9608C46.49 61.8548 45.788 58.4228 45.788 58.3708C45.762 58.2928 45.814 58.2408 45.892 58.2148C45.97 58.1888 46.022 58.2408 46.048 58.3188C46.048 58.3448 46.75 61.7508 47.842 63.8308C48.934 65.9108 49.792 66.0928 50.442 66.0148C51.066 65.9368 52.938 64.7668 53.458 63.7528L53.874 61.2828C53.874 61.2048 53.952 61.1528 54.03 61.1788C54.108 61.1788 54.134 61.2568 54.134 61.3348L53.718 63.8308V63.8568C53.198 64.9228 51.248 66.1968 50.494 66.3008C50.39 66.3008 50.312 66.3008 50.234 66.3008Z" fill="#263238"/>
<path d="M53.8979 64.9752C53.8199 64.9752 53.7679 64.9232 53.7679 64.8712C53.6639 63.6752 53.6899 62.3233 53.8719 61.2572C53.8719 61.1792 53.9499 61.1272 54.0279 61.1532C54.1059 61.1532 54.1579 61.2312 54.1319 61.3092C53.9499 62.3492 53.9239 63.6752 54.0279 64.8452C54.0539 64.8972 54.0019 64.9492 53.8979 64.9752C53.9239 64.9752 53.9239 64.9752 53.8979 64.9752Z" fill="#263238"/>
<path d="M52.1811 68.9531L51.4531 67.4711L51.5311 67.4191C52.4931 66.7171 53.8191 64.7931 53.8451 64.7671L53.9231 64.6631L55.2751 65.5211L55.2491 65.6251C54.4431 67.7571 52.3891 68.8751 52.3111 68.9271L52.1811 68.9531ZM51.7911 67.5491L52.3111 68.5891C52.7531 68.3291 54.2871 67.2891 54.9891 65.5991L54.0271 65.0011C53.7411 65.3911 52.6751 66.8471 51.7911 67.5491Z" fill="#263238"/>
<path d="M51.0652 69.2639L50.9352 69.1859C50.8572 69.1339 49.2712 68.1979 48.6992 66.7419V66.7159L48.7772 65.5459L49.0372 65.5719L48.9592 66.6899C49.4012 67.8339 50.5712 68.6399 50.9612 68.8999L51.4812 67.5739C51.2212 67.4699 50.6232 67.1319 49.8952 66.1959L50.1032 66.0399C50.9612 67.1839 51.6632 67.3659 51.6632 67.3659L51.7932 67.3919L51.0652 69.2639Z" fill="#263238"/>
<path d="M53.0668 59.5927C52.9888 59.8267 52.6248 59.8007 52.3908 59.8787C52.3908 59.3327 52.3908 58.8127 52.0268 58.3707C51.8188 58.1107 51.1688 58.2667 50.8828 58.0587C50.6228 57.8507 50.7008 57.5127 50.5188 57.3307C50.2588 57.0967 49.2708 57.2267 48.9848 57.3307C48.5948 57.4607 48.2828 57.7207 47.9188 57.9547C47.0868 58.4747 45.7868 58.8647 44.8508 58.4747C43.6808 57.9807 43.7328 56.0827 44.9808 55.7447C45.7348 55.5367 46.6708 55.6667 47.3728 55.2507C48.2308 54.7567 51.6368 52.0007 53.6648 54.3407C55.6928 56.7067 54.5748 59.2807 54.5748 59.2807C54.5748 59.2807 53.9248 56.8367 53.0668 59.5927Z" fill="#263238"/>
<path d="M44.7472 58.3435C44.6692 58.3435 44.6172 58.2915 44.6172 58.2135C44.6172 58.1355 44.6692 58.0835 44.7472 58.0835C45.6572 58.0315 46.4632 57.4595 47.2432 56.9135C47.5032 56.7315 47.7632 56.5235 48.0492 56.3675C48.5432 56.0555 49.0632 55.7955 49.6092 55.6135C50.1292 55.4315 50.5712 55.3535 50.9612 55.3535C52.0792 55.3535 53.1452 56.0815 53.5872 57.0955C53.6132 57.1735 53.5872 57.2255 53.5092 57.2515C53.4572 57.2775 53.3792 57.2515 53.3532 57.1735C52.9632 56.2375 51.9752 55.5875 50.9612 55.5875C50.5972 55.5875 50.1812 55.6655 49.6872 55.8475C49.1672 56.0295 48.6472 56.2895 48.1792 56.5755C47.9192 56.7315 47.6592 56.9395 47.3992 57.1215C46.5672 57.6935 45.7612 58.2915 44.7472 58.3435Z" fill="white"/>
<path d="M46.046 56.6282C45.89 56.6282 45.76 56.6022 45.604 56.5762C45.526 56.5502 45.5 56.4982 45.5 56.4202C45.526 56.3422 45.578 56.3162 45.656 56.3162C46.358 56.4982 47.112 56.0822 47.788 55.7182C48.698 55.2242 49.738 54.7302 50.856 54.6782C52.078 54.6262 53.196 55.1722 53.69 56.0562C53.716 56.1082 53.69 56.1862 53.638 56.2382C53.586 56.2642 53.508 56.2382 53.456 56.1862C52.988 55.3802 51.974 54.8862 50.856 54.9382C49.79 54.9902 48.776 55.4582 47.918 55.9262C47.346 56.2642 46.722 56.6282 46.046 56.6282Z" fill="white"/>
</svg>
