<svg width="130" height="130" viewBox="0 0 130 130" fill="none" xmlns="http://www.w3.org/2000/svg">
<path d="M117.248 103.578H15.8477V107.738H117.248V103.578Z" fill="#0085E5"/>
<path opacity="0.5" d="M117.248 103.578H15.8477V107.738H117.248V103.578Z" fill="white"/>
<path d="M39.7585 58.836C39.2229 58.9894 38.6847 59.2442 38.2999 59.4028C38.5599 59.2104 38.8173 59.0154 39.0695 58.8126C40.2369 57.8896 41.3263 56.8756 42.3741 55.8226C41.1443 57.003 39.8469 58.1158 38.4637 59.1064C38.6327 58.8022 38.8251 58.4434 38.9629 58.082C39.2099 57.4346 39.2697 56.7846 38.6509 56.4388C37.8917 56.0124 36.9687 56.6494 37.2131 57.7466C37.3873 58.524 37.8137 59.1168 38.0503 59.3976C37.1507 60.0164 36.2173 60.5832 35.2449 61.0772C35.2137 61.0928 35.1825 61.1084 35.1513 61.124C35.3281 60.8016 35.5439 60.4142 35.6947 60.0216C35.9417 59.3742 36.0015 58.7242 35.3827 58.3758C34.6235 57.9494 33.7005 58.5864 33.9449 59.6836C34.1139 60.4428 34.5299 61.0304 34.7665 61.3164C33.5991 61.891 32.3927 62.3798 31.1915 62.9076C31.1317 62.9336 31.0745 62.9596 31.0147 62.9856C31.2305 62.7464 31.4723 62.4734 31.6673 62.1848C32.0573 61.6128 32.2679 60.994 31.7479 60.513C31.1083 59.9202 30.0631 60.3258 30.0449 61.449C30.0319 62.2316 30.3023 62.9024 30.4687 63.2352C29.3585 63.763 28.2769 64.3766 27.2863 65.1228C27.2759 65.1306 27.2655 65.1384 27.2551 65.1462C27.3851 64.9356 27.5177 64.712 27.6217 64.4858C27.9155 63.8592 28.0247 63.217 27.4345 62.8218C26.8963 62.463 26.2281 62.684 25.9837 63.2716C25.9109 63.1572 25.8095 63.0558 25.6717 62.9752C25.0763 62.632 24.4913 63.0038 23.9921 63.529C23.8621 63.6668 23.7373 63.8124 23.6203 63.9606C24.0103 62.8868 24.4913 61.8494 25.0737 60.864C25.4403 61.0252 26.0747 61.241 26.8209 61.2384C28.0065 61.2358 28.5057 60.2504 27.9259 59.6368C27.4527 59.1376 26.7871 59.33 26.1579 59.6914C25.9499 59.811 25.7471 59.9488 25.5573 60.0866C26.1605 59.1818 26.8417 58.3264 27.6035 57.5438C27.8999 57.783 28.4979 58.199 29.2909 58.394C30.4427 58.6774 31.1655 57.8428 30.7495 57.107C30.4115 56.509 29.7173 56.5324 29.0205 56.7326C28.6877 56.8288 28.3523 56.964 28.0533 57.0888C28.3679 56.7846 28.6929 56.4882 29.0231 56.1996C29.4573 55.8304 29.9019 55.4716 30.3569 55.1258C30.6611 55.3676 31.2461 55.7654 32.0183 55.9552C33.1701 56.2386 33.8929 55.404 33.4769 54.6682C33.1389 54.0702 32.4447 54.0936 31.7479 54.2938C31.5841 54.3406 31.4229 54.3978 31.2617 54.4576C31.8623 54.0286 32.4733 53.61 33.0843 53.194C33.2741 53.064 33.4613 52.9366 33.6511 52.8066C33.9189 53.0328 34.5481 53.4956 35.3983 53.7062C36.5501 53.9896 37.2729 53.155 36.8569 52.4192C36.5189 51.8212 35.8247 51.8446 35.1279 52.0448C34.8549 52.1228 34.5793 52.2294 34.3245 52.3334C34.4415 52.2502 34.5585 52.167 34.6729 52.0812C34.8861 51.9252 35.0993 51.7692 35.3099 51.608C35.5725 51.413 35.8169 51.1946 36.0691 50.9892C36.2147 50.8722 36.3525 50.75 36.4903 50.6278C36.7529 50.8514 37.3873 51.3246 38.2479 51.5352C39.3997 51.8186 40.1225 50.984 39.7065 50.2482C39.3685 49.6502 38.6743 49.6736 37.9775 49.8738C37.5797 49.9882 37.1819 50.1572 36.8439 50.3028C37.3145 49.866 37.7695 49.411 38.1985 48.9378C38.2271 48.9066 38.2557 48.8728 38.2843 48.839C38.4689 48.6336 38.6535 48.4256 38.8303 48.2098C39.0357 47.9628 39.2359 47.708 39.4283 47.4506C40.1953 46.4002 40.8947 45.2874 41.3627 44.0732C40.8713 45.2796 40.1511 46.3742 39.3633 47.4012C38.5651 48.4256 37.6655 49.3642 36.6957 50.2222C36.6619 50.2534 36.6229 50.282 36.5891 50.3132C36.7737 49.9752 37.0181 49.5488 37.1819 49.1198C37.4289 48.4724 37.4887 47.8224 36.8699 47.474C36.1107 47.0476 35.1877 47.6846 35.4321 48.7818C35.6271 49.6528 36.1393 50.2924 36.3447 50.5212C36.2693 50.5862 36.1913 50.6538 36.1159 50.7188C36.0249 50.7942 35.9339 50.8696 35.8429 50.9424C35.6921 51.0646 35.5361 51.1816 35.3801 51.2986C35.2969 51.361 35.2137 51.426 35.1305 51.4884C34.9095 51.6522 34.6833 51.8108 34.4571 51.9694C34.3505 52.0448 34.2413 52.115 34.1347 52.1904C34.0125 52.2736 33.8903 52.3568 33.7655 52.44C33.9449 52.1098 34.1763 51.7042 34.3323 51.2934C34.5793 50.646 34.6391 49.996 34.0203 49.6502C33.2611 49.2238 32.3381 49.8608 32.5825 50.958C32.7645 51.7718 33.2273 52.3854 33.4535 52.648C33.3625 52.7078 33.2715 52.7676 33.1805 52.8274C32.8425 53.0484 32.5045 53.2694 32.1665 53.4904C32.1015 53.5346 32.0339 53.5762 31.9689 53.6204C31.7791 53.7452 31.5919 53.87 31.4047 53.9974C31.3241 54.052 31.2409 54.1066 31.1603 54.1612C30.8977 54.3406 30.6351 54.5226 30.3751 54.7098C30.5571 54.377 30.7937 53.961 30.9523 53.545C31.1993 52.8976 31.2591 52.2476 30.6403 51.8992C29.8811 51.4728 28.9581 52.1098 29.2025 53.207C29.3897 54.0442 29.8733 54.6682 30.0917 54.9178C29.6497 55.2428 29.2155 55.5756 28.7891 55.924C28.4797 56.184 28.1755 56.4492 27.8765 56.7248C28.0013 56.4908 28.1261 56.236 28.2249 55.9838C28.4719 55.3364 28.5317 54.6864 27.9129 54.3406C27.1537 53.9142 26.2307 54.5512 26.4751 55.6484C26.6441 56.4076 27.0601 56.9952 27.2967 57.2812C26.4543 58.1158 25.6977 59.0362 25.0321 60.019C25.1023 59.7434 25.1699 59.447 25.2037 59.1558C25.2869 58.4694 25.1881 57.8246 24.5043 57.6348C23.6645 57.4034 22.9235 58.2458 23.4253 59.252C23.7789 59.9592 24.3327 60.4298 24.6317 60.6482C23.9739 61.7142 23.4331 62.8478 22.9989 64.0204C22.9859 63.7786 22.9677 63.5264 22.9261 63.2846C22.8117 62.6034 22.5335 62.0106 21.8237 62.0236C20.9527 62.0392 20.4795 63.0584 21.2465 63.88C21.7431 64.413 22.3437 64.7042 22.7103 64.8446C22.4139 65.7546 22.1747 66.6828 21.9875 67.6188C21.9589 67.767 21.9329 67.9152 21.9069 68.0634C21.8757 68.0894 21.8445 68.1206 21.8159 68.1518C21.7847 68.0218 21.7483 67.8944 21.7067 67.7696C21.4883 67.1118 21.1217 66.571 20.4249 66.6932C19.5669 66.844 19.2575 67.923 20.1415 68.6146C20.6771 69.0358 21.2751 69.2334 21.6625 69.3244C21.6729 69.3478 21.6833 69.3738 21.6937 69.3972C21.5975 70.1044 21.5273 70.8116 21.4831 71.524C21.4493 72.057 21.4311 72.59 21.4207 73.123C20.6771 73.1256 20.1519 73.9368 20.6641 74.8234C20.9033 75.2342 21.2075 75.554 21.4831 75.7906C21.5455 76.7916 21.6443 77.7926 21.7769 78.7858C21.5767 78.5986 21.2933 78.518 20.9813 78.6012C20.5133 78.7286 20.3027 79.103 20.2273 79.5684C20.0635 79.7478 19.9777 79.974 19.9803 80.208C19.6319 79.6906 19.3017 79.1576 18.9845 78.6194C19.2965 78.3776 19.8061 77.9148 20.1701 77.2362C20.7291 76.191 20.0999 75.2836 19.2835 75.5046C18.6205 75.684 18.4723 76.3626 18.4931 77.088C18.5009 77.3636 18.5347 77.6444 18.5711 77.9096C18.4567 77.7094 18.3423 77.5066 18.2279 77.3038C17.9419 76.7916 17.6949 76.2638 17.4271 75.7438C17.3595 75.6164 17.2997 75.4864 17.2425 75.3564C17.5961 75.177 18.1811 74.8182 18.6647 74.2202C19.4109 73.2972 18.9611 72.2884 18.1187 72.3534C17.4323 72.4054 17.1619 73.045 17.0449 73.76C16.9955 74.0746 16.9747 74.4022 16.9617 74.7038L16.7173 74.137C16.1947 72.8604 15.7735 71.5422 15.4355 70.2032C15.7761 70.0836 16.4781 69.782 17.0839 69.171C17.9185 68.3286 17.5727 67.2782 16.7277 67.2574C16.0413 67.2418 15.7059 67.8476 15.5187 68.5496C15.4173 68.9318 15.3601 69.34 15.3107 69.6936C15.1287 68.924 14.9727 68.1466 14.8453 67.3666C14.7543 66.8804 14.6997 66.3916 14.6373 65.9028C14.9545 65.843 15.7475 65.6454 16.4755 65.0786C17.4115 64.3506 17.2035 63.2664 16.3689 63.1364C15.6903 63.0324 15.2795 63.5888 15.0039 64.2622C14.8245 64.7016 14.6997 65.1852 14.5983 65.5674C14.5463 65.0006 14.4865 64.4312 14.4605 63.8618C14.3981 62.6866 14.3799 61.5062 14.4735 60.331C14.3409 61.5036 14.3253 62.6866 14.3513 63.867C14.3591 64.4104 14.3981 64.9538 14.4319 65.4946C14.2915 65.1644 14.1251 64.7692 13.9171 64.4208C13.5635 63.8254 13.0903 63.3756 12.4325 63.646C11.6265 63.9788 11.5563 65.0968 12.5677 65.5856C13.3477 65.96 14.1433 65.9652 14.4709 65.947C14.5177 66.4306 14.5567 66.9168 14.6321 67.3978C14.7335 68.1622 14.8635 68.9266 15.0169 69.6832C14.8557 69.4102 14.6711 69.1112 14.4631 68.8486C14.0341 68.3052 13.5063 67.9204 12.8927 68.2714C12.1361 68.7056 12.2115 69.8236 13.2775 70.1772C14.0497 70.432 14.7933 70.3618 15.1469 70.302C15.4459 71.654 15.8281 72.9904 16.3143 74.2904L16.4703 74.6804C16.3325 74.501 16.1843 74.319 16.0257 74.1578C15.5447 73.6612 14.9805 73.331 14.4033 73.7418C13.6935 74.2488 13.8807 75.3538 14.9779 75.5982C15.7423 75.7672 16.4495 75.6398 16.8109 75.5462C16.8629 75.6814 16.9201 75.814 16.9851 75.9414C17.2399 76.477 17.4765 77.0256 17.7495 77.5508C17.8275 77.7016 17.9081 77.8498 17.9861 78.0006C17.8509 77.8836 17.7105 77.7692 17.5649 77.6678C16.9981 77.27 16.3845 77.049 15.8931 77.5638C15.2899 78.1956 15.6825 79.246 16.8057 79.2798C17.5103 79.3006 18.1265 79.0926 18.4879 78.934C18.8077 79.5164 19.1405 80.091 19.4993 80.6552C19.6319 80.871 19.7697 81.0842 19.9101 81.2974C19.7099 81.1154 19.4915 80.9256 19.2653 80.767C18.6985 80.3692 18.0849 80.1508 17.5935 80.663C16.9903 81.2948 17.3829 82.3452 18.5061 82.379C19.3381 82.405 20.0479 82.1086 20.3573 81.9526C20.5419 82.2152 20.7343 82.4726 20.9345 82.7248C20.5159 83.211 20.6511 84.0326 21.5013 84.3966C21.9693 84.5968 22.4373 84.667 22.8117 84.6852C22.8637 84.7268 22.9183 84.7684 22.9729 84.8074L23.0015 84.8282C23.5345 86.838 24.1793 88.8166 24.9099 90.7614C25.2219 91.5908 25.5573 92.4124 25.9031 93.2288H22.7805V105.535H32.3147V93.2288H27.2057C26.7715 92.2798 26.3529 91.3204 25.9629 90.3506C25.3259 88.7594 24.7487 87.1422 24.2469 85.5016C24.2495 85.5016 24.2521 85.5042 24.2573 85.5042C24.3483 85.525 24.4263 85.5536 24.5251 85.5666C24.6291 85.5796 24.6941 85.5978 24.8761 85.5822L24.7409 84.7268C24.7461 84.7242 24.7513 84.7242 24.7565 84.7242H24.7461H24.7201L24.6473 84.7164C24.6005 84.7138 24.5381 84.693 24.4835 84.6826C24.3691 84.6462 24.2521 84.6124 24.1325 84.5526L23.9973 84.4902C24.3769 84.355 24.8917 84.1184 25.3701 83.7102C26.2723 82.9406 26.0175 81.8668 25.1777 81.7732C24.4939 81.6978 24.1091 82.275 23.8647 82.9588C23.7945 83.1538 23.7373 83.3566 23.6853 83.5542C23.6359 83.3722 23.5865 83.1902 23.5397 83.0082C23.4019 82.47 23.2745 81.9266 23.1549 81.3832C23.5423 81.2584 24.1143 81.0166 24.6395 80.5668C25.5417 79.7972 25.2869 78.7234 24.4471 78.6298C23.7633 78.5544 23.3785 79.1316 23.1341 79.8154C23.0639 80.013 23.0041 80.2184 22.9521 80.4212C22.8741 80.026 22.7961 79.6282 22.7285 79.2304C22.6791 78.934 22.6323 78.6402 22.5881 78.3438C22.5699 77.9226 22.5647 77.5014 22.5699 77.0802C22.5725 76.8488 22.5803 76.6148 22.5907 76.3834C22.9755 76.5056 23.5345 76.6252 24.1689 76.5836C25.3519 76.5082 25.7913 75.4916 25.1725 74.917C24.6681 74.449 24.0155 74.6804 23.4097 75.0808C23.1341 75.2628 22.8689 75.4786 22.6323 75.6814C22.7077 74.6908 22.8507 73.708 23.0795 72.7434C23.2147 72.174 23.3811 71.6124 23.5787 71.0638C23.9635 71.1964 24.5719 71.3472 25.2713 71.303C26.4543 71.2276 26.8937 70.211 26.2749 69.6364C25.7705 69.1684 25.1179 69.3998 24.5121 69.8002C24.2963 69.9432 24.0857 70.107 23.8907 70.2708C24.1221 69.7352 24.3847 69.2126 24.6863 68.7134C25.2895 67.7072 26.0487 66.805 26.9301 66.025C27.2213 66.2902 27.7673 66.7166 28.5031 66.9584C29.6315 67.3276 30.4141 66.5476 30.0553 65.7832C29.7615 65.1618 29.0699 65.1332 28.3575 65.2814C28.0871 65.336 27.8141 65.4192 27.5593 65.5024C27.5645 65.4972 27.5697 65.492 27.5749 65.4894C28.5343 64.725 29.5873 64.0906 30.6871 63.5342C30.9159 63.8332 31.4047 64.3844 32.1379 64.764C33.1909 65.3074 34.0905 64.6652 33.8565 63.8514C33.6667 63.191 32.9881 63.0532 32.2627 63.0844C31.9767 63.0974 31.6855 63.1364 31.4151 63.178C32.5851 62.6242 33.7811 62.099 34.9355 61.488L34.9381 61.4906C34.9381 61.4906 34.9381 61.488 34.9407 61.488C34.9485 61.4828 34.9563 61.4802 34.9667 61.475C35.2059 61.683 35.8559 62.19 36.7581 62.4136C37.9099 62.697 38.6327 61.8624 38.2167 61.1266C37.8787 60.5286 37.1845 60.552 36.4877 60.7522C36.2927 60.8068 36.0977 60.877 35.9105 60.9524C36.6801 60.5026 37.4289 60.0164 38.1465 59.4912C38.1829 59.5328 38.2063 59.5536 38.2063 59.5536C38.2115 59.5458 38.2167 59.5354 38.2193 59.525C38.4481 59.7252 39.1033 60.2478 40.0237 60.474C41.1755 60.7574 41.8983 59.9228 41.4823 59.187C41.1495 58.6124 40.4579 58.6358 39.7585 58.836ZM21.5819 82.3946C21.3479 82.119 21.1217 81.833 20.9033 81.5418C20.9579 81.495 21.0125 81.4404 21.0723 81.3858C21.4337 81.5002 21.7821 81.5496 22.0733 81.5626C22.0759 81.5808 22.0785 81.599 22.0811 81.6172L22.2397 81.586C22.3203 81.9968 22.4087 82.405 22.4997 82.8132C22.2371 82.5298 21.9355 82.3504 21.5819 82.3946ZM22.4295 72.6056C22.3489 72.9124 22.2813 73.2192 22.2163 73.5286C22.2033 73.5104 22.1903 73.4922 22.1747 73.474C22.1669 72.8422 22.1773 72.2078 22.2033 71.5786C22.2215 71.1366 22.2527 70.6946 22.2917 70.2552C22.5491 70.523 22.8091 70.718 22.9937 70.8402C22.7753 71.4148 22.5855 72.0076 22.4295 72.6056ZM23.4955 69.6936C23.5111 69.5766 23.5241 69.4622 23.5293 69.3478C23.5319 69.2906 23.5345 69.2308 23.5345 69.1736C23.6281 69.145 23.7217 69.1112 23.8179 69.0722C23.7061 69.2776 23.5969 69.4856 23.4955 69.6936ZM24.8501 67.4966C24.7669 67.3016 24.6057 67.1404 24.3743 67.0494C23.7321 66.7998 23.2121 67.2574 22.7987 67.8554C22.7909 67.8658 22.7857 67.8736 22.7805 67.884C22.7675 67.8814 22.7545 67.8762 22.7389 67.8736C22.6947 67.8632 22.6505 67.8606 22.6063 67.8554C22.6115 67.819 22.6167 67.7826 22.6245 67.7488C22.7909 66.8102 23.0093 65.882 23.2875 64.9694C23.6853 65.0188 24.3535 65.0448 25.0685 64.8316C25.4845 64.7068 25.7757 64.4832 25.9395 64.2258C26.0747 64.8784 26.3815 65.401 26.5817 65.687C25.9473 66.2252 25.3623 66.8336 24.8501 67.4966Z" fill="#0085E5"/>
<path opacity="0.5" d="M39.7585 58.836C39.2229 58.9894 38.6847 59.2442 38.2999 59.4028C38.5599 59.2104 38.8173 59.0154 39.0695 58.8126C40.2369 57.8896 41.3263 56.8756 42.3741 55.8226C41.1443 57.003 39.8469 58.1158 38.4637 59.1064C38.6327 58.8022 38.8251 58.4434 38.9629 58.082C39.2099 57.4346 39.2697 56.7846 38.6509 56.4388C37.8917 56.0124 36.9687 56.6494 37.2131 57.7466C37.3873 58.524 37.8137 59.1168 38.0503 59.3976C37.1507 60.0164 36.2173 60.5832 35.2449 61.0772C35.2137 61.0928 35.1825 61.1084 35.1513 61.124C35.3281 60.8016 35.5439 60.4142 35.6947 60.0216C35.9417 59.3742 36.0015 58.7242 35.3827 58.3758C34.6235 57.9494 33.7005 58.5864 33.9449 59.6836C34.1139 60.4428 34.5299 61.0304 34.7665 61.3164C33.5991 61.891 32.3927 62.3798 31.1915 62.9076C31.1317 62.9336 31.0745 62.9596 31.0147 62.9856C31.2305 62.7464 31.4723 62.4734 31.6673 62.1848C32.0573 61.6128 32.2679 60.994 31.7479 60.513C31.1083 59.9202 30.0631 60.3258 30.0449 61.449C30.0319 62.2316 30.3023 62.9024 30.4687 63.2352C29.3585 63.763 28.2769 64.3766 27.2863 65.1228C27.2759 65.1306 27.2655 65.1384 27.2551 65.1462C27.3851 64.9356 27.5177 64.712 27.6217 64.4858C27.9155 63.8592 28.0247 63.217 27.4345 62.8218C26.8963 62.463 26.2281 62.684 25.9837 63.2716C25.9109 63.1572 25.8095 63.0558 25.6717 62.9752C25.0763 62.632 24.4913 63.0038 23.9921 63.529C23.8621 63.6668 23.7373 63.8124 23.6203 63.9606C24.0103 62.8868 24.4913 61.8494 25.0737 60.864C25.4403 61.0252 26.0747 61.241 26.8209 61.2384C28.0065 61.2358 28.5057 60.2504 27.9259 59.6368C27.4527 59.1376 26.7871 59.33 26.1579 59.6914C25.9499 59.811 25.7471 59.9488 25.5573 60.0866C26.1605 59.1818 26.8417 58.3264 27.6035 57.5438C27.8999 57.783 28.4979 58.199 29.2909 58.394C30.4427 58.6774 31.1655 57.8428 30.7495 57.107C30.4115 56.509 29.7173 56.5324 29.0205 56.7326C28.6877 56.8288 28.3523 56.964 28.0533 57.0888C28.3679 56.7846 28.6929 56.4882 29.0231 56.1996C29.4573 55.8304 29.9019 55.4716 30.3569 55.1258C30.6611 55.3676 31.2461 55.7654 32.0183 55.9552C33.1701 56.2386 33.8929 55.404 33.4769 54.6682C33.1389 54.0702 32.4447 54.0936 31.7479 54.2938C31.5841 54.3406 31.4229 54.3978 31.2617 54.4576C31.8623 54.0286 32.4733 53.61 33.0843 53.194C33.2741 53.064 33.4613 52.9366 33.6511 52.8066C33.9189 53.0328 34.5481 53.4956 35.3983 53.7062C36.5501 53.9896 37.2729 53.155 36.8569 52.4192C36.5189 51.8212 35.8247 51.8446 35.1279 52.0448C34.8549 52.1228 34.5793 52.2294 34.3245 52.3334C34.4415 52.2502 34.5585 52.167 34.6729 52.0812C34.8861 51.9252 35.0993 51.7692 35.3099 51.608C35.5725 51.413 35.8169 51.1946 36.0691 50.9892C36.2147 50.8722 36.3525 50.75 36.4903 50.6278C36.7529 50.8514 37.3873 51.3246 38.2479 51.5352C39.3997 51.8186 40.1225 50.984 39.7065 50.2482C39.3685 49.6502 38.6743 49.6736 37.9775 49.8738C37.5797 49.9882 37.1819 50.1572 36.8439 50.3028C37.3145 49.866 37.7695 49.411 38.1985 48.9378C38.2271 48.9066 38.2557 48.8728 38.2843 48.839C38.4689 48.6336 38.6535 48.4256 38.8303 48.2098C39.0357 47.9628 39.2359 47.708 39.4283 47.4506C40.1953 46.4002 40.8947 45.2874 41.3627 44.0732C40.8713 45.2796 40.1511 46.3742 39.3633 47.4012C38.5651 48.4256 37.6655 49.3642 36.6957 50.2222C36.6619 50.2534 36.6229 50.282 36.5891 50.3132C36.7737 49.9752 37.0181 49.5488 37.1819 49.1198C37.4289 48.4724 37.4887 47.8224 36.8699 47.474C36.1107 47.0476 35.1877 47.6846 35.4321 48.7818C35.6271 49.6528 36.1393 50.2924 36.3447 50.5212C36.2693 50.5862 36.1913 50.6538 36.1159 50.7188C36.0249 50.7942 35.9339 50.8696 35.8429 50.9424C35.6921 51.0646 35.5361 51.1816 35.3801 51.2986C35.2969 51.361 35.2137 51.426 35.1305 51.4884C34.9095 51.6522 34.6833 51.8108 34.4571 51.9694C34.3505 52.0448 34.2413 52.115 34.1347 52.1904C34.0125 52.2736 33.8903 52.3568 33.7655 52.44C33.9449 52.1098 34.1763 51.7042 34.3323 51.2934C34.5793 50.646 34.6391 49.996 34.0203 49.6502C33.2611 49.2238 32.3381 49.8608 32.5825 50.958C32.7645 51.7718 33.2273 52.3854 33.4535 52.648C33.3625 52.7078 33.2715 52.7676 33.1805 52.8274C32.8425 53.0484 32.5045 53.2694 32.1665 53.4904C32.1015 53.5346 32.0339 53.5762 31.9689 53.6204C31.7791 53.7452 31.5919 53.87 31.4047 53.9974C31.3241 54.052 31.2409 54.1066 31.1603 54.1612C30.8977 54.3406 30.6351 54.5226 30.3751 54.7098C30.5571 54.377 30.7937 53.961 30.9523 53.545C31.1993 52.8976 31.2591 52.2476 30.6403 51.8992C29.8811 51.4728 28.9581 52.1098 29.2025 53.207C29.3897 54.0442 29.8733 54.6682 30.0917 54.9178C29.6497 55.2428 29.2155 55.5756 28.7891 55.924C28.4797 56.184 28.1755 56.4492 27.8765 56.7248C28.0013 56.4908 28.1261 56.236 28.2249 55.9838C28.4719 55.3364 28.5317 54.6864 27.9129 54.3406C27.1537 53.9142 26.2307 54.5512 26.4751 55.6484C26.6441 56.4076 27.0601 56.9952 27.2967 57.2812C26.4543 58.1158 25.6977 59.0362 25.0321 60.019C25.1023 59.7434 25.1699 59.447 25.2037 59.1558C25.2869 58.4694 25.1881 57.8246 24.5043 57.6348C23.6645 57.4034 22.9235 58.2458 23.4253 59.252C23.7789 59.9592 24.3327 60.4298 24.6317 60.6482C23.9739 61.7142 23.4331 62.8478 22.9989 64.0204C22.9859 63.7786 22.9677 63.5264 22.9261 63.2846C22.8117 62.6034 22.5335 62.0106 21.8237 62.0236C20.9527 62.0392 20.4795 63.0584 21.2465 63.88C21.7431 64.413 22.3437 64.7042 22.7103 64.8446C22.4139 65.7546 22.1747 66.6828 21.9875 67.6188C21.9589 67.767 21.9329 67.9152 21.9069 68.0634C21.8757 68.0894 21.8445 68.1206 21.8159 68.1518C21.7847 68.0218 21.7483 67.8944 21.7067 67.7696C21.4883 67.1118 21.1217 66.571 20.4249 66.6932C19.5669 66.844 19.2575 67.923 20.1415 68.6146C20.6771 69.0358 21.2751 69.2334 21.6625 69.3244C21.6729 69.3478 21.6833 69.3738 21.6937 69.3972C21.5975 70.1044 21.5273 70.8116 21.4831 71.524C21.4493 72.057 21.4311 72.59 21.4207 73.123C20.6771 73.1256 20.1519 73.9368 20.6641 74.8234C20.9033 75.2342 21.2075 75.554 21.4831 75.7906C21.5455 76.7916 21.6443 77.7926 21.7769 78.7858C21.5767 78.5986 21.2933 78.518 20.9813 78.6012C20.5133 78.7286 20.3027 79.103 20.2273 79.5684C20.0635 79.7478 19.9777 79.974 19.9803 80.208C19.6319 79.6906 19.3017 79.1576 18.9845 78.6194C19.2965 78.3776 19.8061 77.9148 20.1701 77.2362C20.7291 76.191 20.0999 75.2836 19.2835 75.5046C18.6205 75.684 18.4723 76.3626 18.4931 77.088C18.5009 77.3636 18.5347 77.6444 18.5711 77.9096C18.4567 77.7094 18.3423 77.5066 18.2279 77.3038C17.9419 76.7916 17.6949 76.2638 17.4271 75.7438C17.3595 75.6164 17.2997 75.4864 17.2425 75.3564C17.5961 75.177 18.1811 74.8182 18.6647 74.2202C19.4109 73.2972 18.9611 72.2884 18.1187 72.3534C17.4323 72.4054 17.1619 73.045 17.0449 73.76C16.9955 74.0746 16.9747 74.4022 16.9617 74.7038L16.7173 74.137C16.1947 72.8604 15.7735 71.5422 15.4355 70.2032C15.7761 70.0836 16.4781 69.782 17.0839 69.171C17.9185 68.3286 17.5727 67.2782 16.7277 67.2574C16.0413 67.2418 15.7059 67.8476 15.5187 68.5496C15.4173 68.9318 15.3601 69.34 15.3107 69.6936C15.1287 68.924 14.9727 68.1466 14.8453 67.3666C14.7543 66.8804 14.6997 66.3916 14.6373 65.9028C14.9545 65.843 15.7475 65.6454 16.4755 65.0786C17.4115 64.3506 17.2035 63.2664 16.3689 63.1364C15.6903 63.0324 15.2795 63.5888 15.0039 64.2622C14.8245 64.7016 14.6997 65.1852 14.5983 65.5674C14.5463 65.0006 14.4865 64.4312 14.4605 63.8618C14.3981 62.6866 14.3799 61.5062 14.4735 60.331C14.3409 61.5036 14.3253 62.6866 14.3513 63.867C14.3591 64.4104 14.3981 64.9538 14.4319 65.4946C14.2915 65.1644 14.1251 64.7692 13.9171 64.4208C13.5635 63.8254 13.0903 63.3756 12.4325 63.646C11.6265 63.9788 11.5563 65.0968 12.5677 65.5856C13.3477 65.96 14.1433 65.9652 14.4709 65.947C14.5177 66.4306 14.5567 66.9168 14.6321 67.3978C14.7335 68.1622 14.8635 68.9266 15.0169 69.6832C14.8557 69.4102 14.6711 69.1112 14.4631 68.8486C14.0341 68.3052 13.5063 67.9204 12.8927 68.2714C12.1361 68.7056 12.2115 69.8236 13.2775 70.1772C14.0497 70.432 14.7933 70.3618 15.1469 70.302C15.4459 71.654 15.8281 72.9904 16.3143 74.2904L16.4703 74.6804C16.3325 74.501 16.1843 74.319 16.0257 74.1578C15.5447 73.6612 14.9805 73.331 14.4033 73.7418C13.6935 74.2488 13.8807 75.3538 14.9779 75.5982C15.7423 75.7672 16.4495 75.6398 16.8109 75.5462C16.8629 75.6814 16.9201 75.814 16.9851 75.9414C17.2399 76.477 17.4765 77.0256 17.7495 77.5508C17.8275 77.7016 17.9081 77.8498 17.9861 78.0006C17.8509 77.8836 17.7105 77.7692 17.5649 77.6678C16.9981 77.27 16.3845 77.049 15.8931 77.5638C15.2899 78.1956 15.6825 79.246 16.8057 79.2798C17.5103 79.3006 18.1265 79.0926 18.4879 78.934C18.8077 79.5164 19.1405 80.091 19.4993 80.6552C19.6319 80.871 19.7697 81.0842 19.9101 81.2974C19.7099 81.1154 19.4915 80.9256 19.2653 80.767C18.6985 80.3692 18.0849 80.1508 17.5935 80.663C16.9903 81.2948 17.3829 82.3452 18.5061 82.379C19.3381 82.405 20.0479 82.1086 20.3573 81.9526C20.5419 82.2152 20.7343 82.4726 20.9345 82.7248C20.5159 83.211 20.6511 84.0326 21.5013 84.3966C21.9693 84.5968 22.4373 84.667 22.8117 84.6852C22.8637 84.7268 22.9183 84.7684 22.9729 84.8074L23.0015 84.8282C23.5345 86.838 24.1793 88.8166 24.9099 90.7614C25.2219 91.5908 25.5573 92.4124 25.9031 93.2288H22.7805V105.535H32.3147V93.2288H27.2057C26.7715 92.2798 26.3529 91.3204 25.9629 90.3506C25.3259 88.7594 24.7487 87.1422 24.2469 85.5016C24.2495 85.5016 24.2521 85.5042 24.2573 85.5042C24.3483 85.525 24.4263 85.5536 24.5251 85.5666C24.6291 85.5796 24.6941 85.5978 24.8761 85.5822L24.7409 84.7268C24.7461 84.7242 24.7513 84.7242 24.7565 84.7242H24.7461H24.7201L24.6473 84.7164C24.6005 84.7138 24.5381 84.693 24.4835 84.6826C24.3691 84.6462 24.2521 84.6124 24.1325 84.5526L23.9973 84.4902C24.3769 84.355 24.8917 84.1184 25.3701 83.7102C26.2723 82.9406 26.0175 81.8668 25.1777 81.7732C24.4939 81.6978 24.1091 82.275 23.8647 82.9588C23.7945 83.1538 23.7373 83.3566 23.6853 83.5542C23.6359 83.3722 23.5865 83.1902 23.5397 83.0082C23.4019 82.47 23.2745 81.9266 23.1549 81.3832C23.5423 81.2584 24.1143 81.0166 24.6395 80.5668C25.5417 79.7972 25.2869 78.7234 24.4471 78.6298C23.7633 78.5544 23.3785 79.1316 23.1341 79.8154C23.0639 80.013 23.0041 80.2184 22.9521 80.4212C22.8741 80.026 22.7961 79.6282 22.7285 79.2304C22.6791 78.934 22.6323 78.6402 22.5881 78.3438C22.5699 77.9226 22.5647 77.5014 22.5699 77.0802C22.5725 76.8488 22.5803 76.6148 22.5907 76.3834C22.9755 76.5056 23.5345 76.6252 24.1689 76.5836C25.3519 76.5082 25.7913 75.4916 25.1725 74.917C24.6681 74.449 24.0155 74.6804 23.4097 75.0808C23.1341 75.2628 22.8689 75.4786 22.6323 75.6814C22.7077 74.6908 22.8507 73.708 23.0795 72.7434C23.2147 72.174 23.3811 71.6124 23.5787 71.0638C23.9635 71.1964 24.5719 71.3472 25.2713 71.303C26.4543 71.2276 26.8937 70.211 26.2749 69.6364C25.7705 69.1684 25.1179 69.3998 24.5121 69.8002C24.2963 69.9432 24.0857 70.107 23.8907 70.2708C24.1221 69.7352 24.3847 69.2126 24.6863 68.7134C25.2895 67.7072 26.0487 66.805 26.9301 66.025C27.2213 66.2902 27.7673 66.7166 28.5031 66.9584C29.6315 67.3276 30.4141 66.5476 30.0553 65.7832C29.7615 65.1618 29.0699 65.1332 28.3575 65.2814C28.0871 65.336 27.8141 65.4192 27.5593 65.5024C27.5645 65.4972 27.5697 65.492 27.5749 65.4894C28.5343 64.725 29.5873 64.0906 30.6871 63.5342C30.9159 63.8332 31.4047 64.3844 32.1379 64.764C33.1909 65.3074 34.0905 64.6652 33.8565 63.8514C33.6667 63.191 32.9881 63.0532 32.2627 63.0844C31.9767 63.0974 31.6855 63.1364 31.4151 63.178C32.5851 62.6242 33.7811 62.099 34.9355 61.488L34.9381 61.4906C34.9381 61.4906 34.9381 61.488 34.9407 61.488C34.9485 61.4828 34.9563 61.4802 34.9667 61.475C35.2059 61.683 35.8559 62.19 36.7581 62.4136C37.9099 62.697 38.6327 61.8624 38.2167 61.1266C37.8787 60.5286 37.1845 60.552 36.4877 60.7522C36.2927 60.8068 36.0977 60.877 35.9105 60.9524C36.6801 60.5026 37.4289 60.0164 38.1465 59.4912C38.1829 59.5328 38.2063 59.5536 38.2063 59.5536C38.2115 59.5458 38.2167 59.5354 38.2193 59.525C38.4481 59.7252 39.1033 60.2478 40.0237 60.474C41.1755 60.7574 41.8983 59.9228 41.4823 59.187C41.1495 58.6124 40.4579 58.6358 39.7585 58.836ZM21.5819 82.3946C21.3479 82.119 21.1217 81.833 20.9033 81.5418C20.9579 81.495 21.0125 81.4404 21.0723 81.3858C21.4337 81.5002 21.7821 81.5496 22.0733 81.5626C22.0759 81.5808 22.0785 81.599 22.0811 81.6172L22.2397 81.586C22.3203 81.9968 22.4087 82.405 22.4997 82.8132C22.2371 82.5298 21.9355 82.3504 21.5819 82.3946ZM22.4295 72.6056C22.3489 72.9124 22.2813 73.2192 22.2163 73.5286C22.2033 73.5104 22.1903 73.4922 22.1747 73.474C22.1669 72.8422 22.1773 72.2078 22.2033 71.5786C22.2215 71.1366 22.2527 70.6946 22.2917 70.2552C22.5491 70.523 22.8091 70.718 22.9937 70.8402C22.7753 71.4148 22.5855 72.0076 22.4295 72.6056ZM23.4955 69.6936C23.5111 69.5766 23.5241 69.4622 23.5293 69.3478C23.5319 69.2906 23.5345 69.2308 23.5345 69.1736C23.6281 69.145 23.7217 69.1112 23.8179 69.0722C23.7061 69.2776 23.5969 69.4856 23.4955 69.6936ZM24.8501 67.4966C24.7669 67.3016 24.6057 67.1404 24.3743 67.0494C23.7321 66.7998 23.2121 67.2574 22.7987 67.8554C22.7909 67.8658 22.7857 67.8736 22.7805 67.884C22.7675 67.8814 22.7545 67.8762 22.7389 67.8736C22.6947 67.8632 22.6505 67.8606 22.6063 67.8554C22.6115 67.819 22.6167 67.7826 22.6245 67.7488C22.7909 66.8102 23.0093 65.882 23.2875 64.9694C23.6853 65.0188 24.3535 65.0448 25.0685 64.8316C25.4845 64.7068 25.7757 64.4832 25.9395 64.2258C26.0747 64.8784 26.3815 65.401 26.5817 65.687C25.9473 66.2252 25.3623 66.8336 24.8501 67.4966Z" fill="white"/>
<path d="M103.867 94.2165C103.867 94.2165 102.609 91.4085 102.317 91.1173C102.026 90.8261 99.6057 89.9551 98.9271 87.7269C98.2485 85.4987 96.9901 79.5915 100.185 79.9789C103.381 80.3663 102.606 86.5647 103.768 86.3723C104.93 86.1773 102.798 76.2973 104.834 74.9427C106.867 73.5855 110.162 74.8465 109.774 80.0777C109.387 85.3089 108.612 88.3119 109.291 88.0207C109.969 87.7295 111.906 86.6635 111.906 88.8917C111.906 91.1199 110.065 92.6695 108.999 92.7657C107.933 92.8619 107.45 92.9607 107.45 92.9607V94.4141L103.867 94.2165Z" fill="#263238" stroke="#263238" stroke-width="0.26" stroke-miterlimit="10" stroke-linecap="round" stroke-linejoin="round"/>
<path d="M102.843 88.7696C102.112 88.078 101.439 87.4046 101.132 86.791C100.516 85.5612 100.056 82.1006 100.056 82.1006" stroke="white" stroke-width="0.13" stroke-miterlimit="10" stroke-linecap="round" stroke-linejoin="round"/>
<path d="M98.9658 83.7954C99.4494 85.8078 99.517 87.3288 100.978 89.0968C101.769 90.0536 103.823 90.8648 104.054 91.7098C104.285 92.5548 104.514 94.7856 104.514 94.7856L105.669 94.8636C105.669 94.8636 105.905 92.8616 105.242 91.4342" stroke="white" stroke-width="0.13" stroke-miterlimit="10" stroke-linecap="round" stroke-linejoin="round"/>
<path d="M99.2879 80.564C99.2879 80.564 98.4273 81.227 98.7341 82.8598" stroke="white" stroke-width="0.13" stroke-miterlimit="10" stroke-linecap="round" stroke-linejoin="round"/>
<path d="M104.819 86.5103L104.361 87.2512" stroke="white" stroke-width="0.13" stroke-miterlimit="10" stroke-linecap="round" stroke-linejoin="round"/>
<path d="M104.977 86.2529L104.818 86.5103" stroke="white" stroke-width="0.13" stroke-miterlimit="10" stroke-linecap="round" stroke-linejoin="round"/>
<path d="M106.514 75.1822C106.514 75.1822 104.746 75.1042 104.746 76.7968C104.746 78.2242 105.183 83.0966 105.089 85.3248" stroke="white" stroke-width="0.13" stroke-miterlimit="10" stroke-linecap="round" stroke-linejoin="round"/>
<path d="M107.889 89.0272C107.845 89.607 107.819 90.0178 107.819 90.1764C107.819 91.0214 109.971 87.7922 110.97 87.7168C110.97 87.7168 111.968 87.6388 111.586 89.4848C111.201 91.3308 109.74 92.1758 108.895 92.4072C108.05 92.6386 107.358 92.2538 107.205 92.6386C107.052 93.0234 106.974 94.0218 106.974 94.0218" stroke="white" stroke-width="0.13" stroke-miterlimit="10" stroke-linecap="round" stroke-linejoin="round"/>
<path d="M108.401 76.7861C108.513 77.2177 108.589 77.7767 108.589 78.4891C108.589 80.2883 108.245 84.5341 108.017 87.3967" stroke="white" stroke-width="0.13" stroke-miterlimit="10" stroke-linecap="round" stroke-linejoin="round"/>
<path d="M107.512 75.3374C107.512 75.3374 107.78 75.4518 108.05 75.9042" stroke="white" stroke-width="0.13" stroke-miterlimit="10" stroke-linecap="round" stroke-linejoin="round"/>
<path d="M106.262 88.5586L106.207 89.635" stroke="white" stroke-width="0.13" stroke-miterlimit="10" stroke-linecap="round" stroke-linejoin="round"/>
<path d="M106.666 76.2583C106.666 76.2583 106.206 76.4117 106.36 78.0263C106.487 79.3601 106.352 85.4155 106.3 87.4799" stroke="white" stroke-width="0.13" stroke-miterlimit="10" stroke-linecap="round" stroke-linejoin="round"/>
<path d="M111.511 88.1738C111.511 88.1738 110.588 90.0952 108.513 90.9402C106.438 91.7852 106.36 91.4004 106.36 92.248C106.36 93.0956 106.282 94.6322 106.282 94.6322" stroke="white" stroke-width="0.13" stroke-miterlimit="10" stroke-linecap="round" stroke-linejoin="round"/>
<path d="M108.629 105.552H101.91L100.47 95.8203H110.066L108.629 105.552Z" fill="#0085E5" stroke="#263238" stroke-width="0.26" stroke-miterlimit="10" stroke-linecap="round" stroke-linejoin="round"/>
<path d="M110.89 94.2861H99.6475V96.8913H110.89V94.2861Z" fill="#0085E5" stroke="#263238" stroke-width="0.26" stroke-miterlimit="10" stroke-linecap="round" stroke-linejoin="round"/>
<path d="M71.7399 99.001V93.7178H56.1815V99.001C56.1815 100.725 55.5991 102.399 54.5279 103.749L53.8467 104.609H74.0747L73.3935 103.749C72.3223 102.399 71.7399 100.725 71.7399 99.001Z" fill="white" stroke="#263238" stroke-width="0.26" stroke-miterlimit="10" stroke-linecap="round" stroke-linejoin="round"/>
<path d="M55.2246 102.701H72.694C72.07 101.575 71.7398 100.301 71.7398 99.001V98.0598V93.7178H56.1814V98.0598V99.001C56.1814 100.301 55.8486 101.575 55.2246 102.701Z" fill="#0085E5"/>
<path d="M93.0205 95.3841H34.9001C33.6807 95.3841 32.6953 94.3962 32.6953 93.1794V50.6902C32.6953 49.4708 33.6833 48.4854 34.9001 48.4854H93.0231C94.2425 48.4854 95.2279 49.4734 95.2279 50.6902V93.1794C95.2279 94.3962 94.2399 95.3841 93.0205 95.3841Z" fill="#263238" stroke="#263238" stroke-width="0.26" stroke-miterlimit="10" stroke-linecap="round" stroke-linejoin="round"/>
<path d="M93.0205 95.384H34.9001C33.6807 95.384 32.6953 94.396 32.6953 93.1792V88.0962H95.2279V93.1792C95.2279 94.396 94.2399 95.384 93.0205 95.384Z" fill="white" stroke="#263238" stroke-width="0.26" stroke-miterlimit="10" stroke-linecap="round" stroke-linejoin="round"/>
<path d="M92.0821 51.4028H35.8389V84.5372H92.0821V51.4028Z" fill="white" stroke="#263238" stroke-width="0.26" stroke-miterlimit="10" stroke-linecap="round" stroke-linejoin="round"/>
<path d="M65.1145 91.7389C65.1145 91.1019 64.5971 90.5845 63.9601 90.5845C63.3231 90.5845 62.8057 91.1019 62.8057 91.7389C62.8057 92.3759 63.3231 92.8933 63.9601 92.8933C64.5971 92.8933 65.1145 92.3759 65.1145 91.7389Z" fill="#263238" stroke="#263238" stroke-width="0.26" stroke-miterlimit="10" stroke-linecap="round" stroke-linejoin="round"/>
<path d="M74.0773 104.612H53.8467V105.556H74.0773V104.612Z" fill="white" stroke="#263238" stroke-width="0.26" stroke-miterlimit="10" stroke-linecap="round" stroke-linejoin="round"/>
<path d="M91.5537 53.7373H36.2803V56.6415H91.5537V53.7373Z" fill="white" stroke="#263238" stroke-width="0.26" stroke-miterlimit="10" stroke-linecap="round" stroke-linejoin="round"/>
<path d="M45.4011 56.6417L44.7381 54.8477H36.2803V56.6417V59.0207V83.1253H91.5537V56.6417H45.4011Z" fill="#0085E5" stroke="#263238" stroke-width="0.26" stroke-miterlimit="10" stroke-linecap="round" stroke-linejoin="round"/>
<path d="M51.1582 69.7734H77.075" stroke="#263238" stroke-width="0.52" stroke-miterlimit="10" stroke-linecap="round" stroke-linejoin="round"/>
<path d="M51.1582 72.3218H77.075" stroke="#263238" stroke-width="0.52" stroke-miterlimit="10" stroke-linecap="round" stroke-linejoin="round"/>
<path d="M51.1582 74.8696H77.075" stroke="#263238" stroke-width="0.52" stroke-miterlimit="10" stroke-linecap="round" stroke-linejoin="round"/>
<path d="M51.1582 77.4204H77.075" stroke="#263238" stroke-width="0.52" stroke-miterlimit="10" stroke-linecap="round" stroke-linejoin="round"/>
<path d="M75.7042 62.9803H52.2184C51.1992 62.9803 50.375 62.1561 50.375 61.1369C50.375 60.1177 51.1992 59.2935 52.2184 59.2935H75.7042C76.7234 59.2935 77.5476 60.1177 77.5476 61.1369C77.5476 62.1561 76.7208 62.9803 75.7042 62.9803Z" fill="white" stroke="#263238" stroke-width="0.26" stroke-miterlimit="10" stroke-linecap="round" stroke-linejoin="round"/>
<path d="M75.7048 62.9803H72.499V59.2935H75.7048C76.724 59.2935 77.5482 60.1177 77.5482 61.1369C77.5482 62.1561 76.7214 62.9803 75.7048 62.9803Z" fill="#263238" stroke="#263238" stroke-width="0.26" stroke-miterlimit="10" stroke-linecap="round" stroke-linejoin="round"/>
<path d="M74.9899 59.762C74.5635 59.3616 73.8927 59.385 73.4949 59.8114C73.0945 60.2378 73.1179 60.9086 73.5443 61.3064C73.9707 61.7068 74.6415 61.6834 75.0393 61.257C75.4397 60.8306 75.4163 60.1598 74.9899 59.762ZM74.8859 61.114C74.5661 61.4572 74.0279 61.4728 73.6847 61.153C73.3415 60.8332 73.3259 60.295 73.6457 59.9518C73.9655 59.6086 74.5037 59.593 74.8469 59.9128C75.1901 60.2352 75.2083 60.7734 74.8859 61.114Z" fill="white"/>
<path d="M75.7853 61.6416C75.7359 61.5948 75.6657 61.5844 75.6059 61.6052L75.2237 61.2464C75.1821 61.2074 75.1171 61.21 75.0781 61.2516L75.0443 61.288C75.0053 61.3296 75.0079 61.3946 75.0495 61.4336L75.4265 61.7872C75.4031 61.8522 75.4187 61.925 75.4707 61.9744L76.1181 62.6114C76.2091 62.6972 76.3547 62.692 76.4405 62.601C76.5263 62.51 76.5211 62.3644 76.4301 62.2786L75.7853 61.6416Z" fill="white"/>
<path d="M82.4974 74.0925C82.6508 74.4747 82.9524 74.7737 83.332 74.9297C83.6258 75.0493 84.0158 75.0233 84.4708 75.2781C85.4926 75.8527 88.0432 75.3431 89.8918 75.5329C91.7404 75.7253 94.2286 73.6843 94.2286 73.6843L101.563 74.0821V66.8099C101.563 66.8099 93.9088 67.1297 92.25 66.4901C90.5912 65.8531 88.7426 64.5115 87.9132 64.5765C87.0838 64.6415 80.2588 65.4059 80.2588 65.4059L82.4922 74.0795L82.4974 74.0925Z" fill="white" stroke="#263238" stroke-width="0.26" stroke-miterlimit="10" stroke-linecap="round" stroke-linejoin="round"/>
<path d="M80.6076 44.7467C76.38 45.2147 73.3302 49.0237 73.8008 53.2513C74.2688 57.4789 78.0778 60.5287 82.3054 60.0581C86.533 59.5901 89.5828 55.7811 89.1122 51.5535C88.6442 47.3259 84.8352 44.2787 80.6076 44.7467ZM82.1364 58.5475C78.7434 58.9245 75.6884 56.4779 75.3114 53.0849C74.9344 49.6919 77.381 46.6369 80.774 46.2599C84.167 45.8829 87.222 48.3295 87.599 51.7225C87.976 55.1155 85.5294 58.1731 82.1364 58.5475Z" fill="white" stroke="#263238" stroke-width="0.26" stroke-miterlimit="10" stroke-linecap="round" stroke-linejoin="round"/>
<path d="M80.5578 44.3072C76.3302 44.7752 73.2804 48.5842 73.751 52.8118C74.219 57.0394 78.028 60.0892 82.2556 59.6186C86.4832 59.1506 89.533 55.3416 89.0624 51.114C88.5944 46.889 84.788 43.8392 80.5578 44.3072ZM82.0866 58.108C78.6936 58.485 75.6386 56.0384 75.2616 52.6454C74.8846 49.2524 77.3312 46.1974 80.7242 45.8204C84.1172 45.4434 87.1722 47.89 87.5492 51.283C87.9262 54.676 85.4822 57.7336 82.0866 58.108Z" fill="white" stroke="#263238" stroke-width="0.26" stroke-miterlimit="10" stroke-linecap="round" stroke-linejoin="round"/>
<path d="M83.2617 66.592L82.9003 66.631C82.4895 66.6778 82.1177 66.3788 82.0735 65.968L81.4833 60.6328C81.4365 60.222 81.7355 59.8502 82.1463 59.806L82.5077 59.767C82.9185 59.7202 83.2903 60.0192 83.3345 60.43L83.9247 65.7652C83.9689 66.176 83.6725 66.5478 83.2617 66.592Z" fill="#0085E5" stroke="#263238" stroke-width="0.26" stroke-miterlimit="10" stroke-linecap="round" stroke-linejoin="round"/>
<path d="M84.2866 77.6365L84.2346 77.6417C83.335 77.7405 82.5238 77.0931 82.425 76.1935L81.255 65.6375C81.177 64.9355 81.684 64.3011 82.386 64.2231L83.1504 64.1373C83.8524 64.0593 84.4868 64.5663 84.5648 65.2683L85.7348 75.8243C85.8336 76.7265 85.1862 77.5351 84.2866 77.6365Z" fill="#263238" stroke="#263238" stroke-width="0.26" stroke-miterlimit="10" stroke-linecap="round" stroke-linejoin="round"/>
<path d="M83.5222 73.019C83.5222 73.019 81.6762 73.0892 81.4162 73.4064C81.1562 73.7236 81.203 74.839 81.7048 74.9716C82.984 75.3096 85.7036 75.112 85.8076 74.8832C85.9116 74.6544 86.1352 73.3258 85.571 73.1802C85.0094 73.0346 83.5222 73.019 83.5222 73.019Z" fill="white" stroke="#263238" stroke-width="0.26" stroke-miterlimit="10" stroke-linecap="round" stroke-linejoin="round"/>
<path d="M82.9889 70.4396C82.9889 70.4396 80.8387 70.3564 80.5033 70.7464C80.1679 71.1338 80.1029 72.582 80.6697 72.8004C82.1153 73.3568 85.3679 73.1384 85.5161 72.8524C85.6617 72.5664 85.9867 71.0818 85.3497 70.8426C84.7127 70.6008 82.9889 70.4396 82.9889 70.4396Z" fill="white" stroke="#263238" stroke-width="0.26" stroke-miterlimit="10" stroke-linecap="round" stroke-linejoin="round"/>
<path d="M82.6775 67.5274C82.6775 67.5274 80.3791 67.439 80.0203 67.855C79.6615 68.271 79.5913 69.818 80.1997 70.0494C81.7467 70.6422 85.1423 70.6422 85.2983 70.3354C85.4543 70.0286 85.8833 68.2112 85.2021 67.9564C84.5183 67.7016 82.6775 67.5274 82.6775 67.5274Z" fill="white" stroke="#263238" stroke-width="0.26" stroke-miterlimit="10" stroke-linecap="round" stroke-linejoin="round"/>
<path d="M81.3539 64.8028C81.3539 64.8028 79.0555 64.7144 78.6967 65.1304C78.3379 65.5464 78.2521 67.1376 78.8761 67.3248C79.5001 67.512 83.8187 67.9176 83.9747 67.6108C84.1307 67.304 84.5597 65.4866 83.8785 65.2318C83.1947 64.977 81.3539 64.8028 81.3539 64.8028Z" fill="white" stroke="#263238" stroke-width="0.26" stroke-miterlimit="10" stroke-linecap="round" stroke-linejoin="round"/>
<path d="M88.8807 72.4491C88.4881 72.3399 88.0955 72.1683 87.7237 71.9135C85.8751 70.6369 85.9375 67.7041 85.9375 67.7041C85.9375 67.7041 85.9375 67.7041 85.4903 67.5767C85.0431 67.4493 84.4685 67.0021 84.4685 67.0021C84.4685 67.0021 84.7233 68.0239 84.7233 68.8507C84.7233 69.6801 84.0213 70.1273 83.4467 70.1897C82.8721 70.2547 82.6173 70.3171 82.4249 69.5527C82.2325 68.7883 81.2757 65.7255 81.2133 65.2783C81.1561 64.8727 81.8373 64.1499 82.9215 63.9731C84.5881 64.1109 86.2339 64.5763 87.9109 64.5763C88.1917 64.5763 88.8469 64.7167 89.5359 65.1743" fill="white"/>
<path d="M88.8807 72.4491C88.4881 72.3399 88.0955 72.1683 87.7237 71.9135C85.8751 70.6369 85.9375 67.7041 85.9375 67.7041C85.9375 67.7041 85.9375 67.7041 85.4903 67.5767C85.0431 67.4493 84.4685 67.0021 84.4685 67.0021C84.4685 67.0021 84.7233 68.0239 84.7233 68.8507C84.7233 69.6801 84.0213 70.1273 83.4467 70.1897C82.8721 70.2547 82.6173 70.3171 82.4249 69.5527C82.2325 68.7883 81.2757 65.7255 81.2133 65.2783C81.1561 64.8727 81.8373 64.1499 82.9215 63.9731C84.5881 64.1109 86.2339 64.5763 87.9109 64.5763C88.1917 64.5763 88.8469 64.7167 89.5359 65.1743" stroke="#263238" stroke-width="0.26" stroke-miterlimit="10" stroke-linecap="round" stroke-linejoin="round"/>
<path d="M90.6387 72.6108C90.4489 72.6238 90.2435 72.629 90.0303 72.6238L90.6387 72.6108Z" fill="white"/>
<path d="M90.6387 72.6108C90.4489 72.6238 90.2435 72.629 90.0303 72.6238" stroke="#263238" stroke-width="0.26" stroke-miterlimit="10" stroke-linecap="round" stroke-linejoin="round"/>
<path d="M91.9985 72.3589C91.9985 72.3589 91.4317 72.5513 90.6387 72.6085L91.9985 72.3589Z" fill="white"/>
<path d="M91.9985 72.3589C91.9985 72.3589 91.4317 72.5513 90.6387 72.6085" stroke="#263238" stroke-width="0.26" stroke-miterlimit="10" stroke-linecap="round" stroke-linejoin="round"/>
<path d="M94.2939 71.5317H96.5897" stroke="#263238" stroke-width="0.26" stroke-miterlimit="10" stroke-linecap="round" stroke-linejoin="round"/>
<path d="M94.4863 72.1689H95.4431" stroke="#263238" stroke-width="0.26" stroke-miterlimit="10" stroke-linecap="round" stroke-linejoin="round"/>
<path d="M85.9385 67.7048C85.9385 67.7048 87.2073 67.6996 88.0393 66.9482" stroke="#263238" stroke-width="0.26" stroke-miterlimit="10" stroke-linecap="round" stroke-linejoin="round"/>
<path d="M84.4424 66.9191C84.4424 66.9191 84.4164 66.5161 84.2266 65.8999" stroke="#263238" stroke-width="0.26" stroke-miterlimit="10" stroke-linecap="round" stroke-linejoin="round"/>
<path d="M82.4299 69.2281C82.4299 69.2281 82.1881 68.5573 82.4845 68.3155C82.7809 68.0737 83.5583 67.7253 83.6935 67.9931C83.8287 68.2609 84.1225 69.4959 84.0419 69.7377C83.9613 69.9795 83.9613 69.9795 83.9613 69.9795" stroke="#263238" stroke-width="0.13" stroke-miterlimit="10" stroke-linecap="round" stroke-linejoin="round"/>
<path d="M117.663 77.3632H95.6797V66.5576H117.663" fill="#0085E5"/>
<path d="M117.663 77.3632H95.6797V66.5576H117.663" stroke="#263238" stroke-width="0.26" stroke-miterlimit="10" stroke-linecap="round" stroke-linejoin="round"/>
<path d="M97.2919 76.6408C97.5647 76.6408 97.7859 76.4197 97.7859 76.1468C97.7859 75.874 97.5647 75.6528 97.2919 75.6528C97.019 75.6528 96.7979 75.874 96.7979 76.1468C96.7979 76.4197 97.019 76.6408 97.2919 76.6408Z" fill="white" stroke="#263238" stroke-width="0.26" stroke-miterlimit="10" stroke-linecap="round" stroke-linejoin="round"/>
<path d="M62.3562 56.2665C62.7384 56.1131 63.0374 55.8115 63.1934 55.4319C63.313 55.1381 63.287 54.7481 63.5418 54.2931C64.1164 53.2713 63.6068 50.7207 63.7966 48.8721C63.989 47.0235 61.948 44.5353 61.948 44.5353L62.3458 37.2007H55.0736C55.0736 37.2007 55.3934 44.8551 54.7538 46.5139C54.1168 48.1727 52.7752 50.0213 52.8402 50.8507C52.9052 51.6801 53.6696 58.5051 53.6696 58.5051L62.3432 56.2717L62.3562 56.2665Z" fill="white" stroke="#263238" stroke-width="0.26" stroke-miterlimit="10" stroke-linecap="round" stroke-linejoin="round"/>
<path d="M33.0113 58.159C33.4793 62.3866 37.2883 65.4364 41.5159 64.9658C45.7435 64.4978 48.7933 60.6888 48.3227 56.4612C47.8547 52.2336 44.0457 49.1838 39.8181 49.6544C35.5905 50.1224 32.5433 53.9288 33.0113 58.159ZM46.8121 56.6276C47.1891 60.0206 44.7425 63.0756 41.3495 63.4526C37.9565 63.8296 34.9015 61.383 34.5245 57.99C34.1475 54.597 36.5941 51.542 39.9871 51.165C43.3801 50.788 46.4351 53.2346 46.8121 56.6276Z" fill="white" stroke="#263238" stroke-width="0.26" stroke-miterlimit="10" stroke-linecap="round" stroke-linejoin="round"/>
<path d="M32.5719 58.2058C33.0399 62.4334 36.8489 65.4832 41.0765 65.0126C45.3041 64.5446 48.3539 60.7356 47.8833 56.508C47.4153 52.2804 43.6063 49.2306 39.3787 49.7012C35.1511 50.1692 32.1039 53.9782 32.5719 58.2058ZM46.3727 56.677C46.7497 60.07 44.3031 63.125 40.9101 63.502C37.5171 63.879 34.4621 61.4324 34.0851 58.0394C33.7081 54.6464 36.1547 51.5914 39.5477 51.2144C42.9407 50.8374 45.9957 53.284 46.3727 56.677Z" fill="white" stroke="#263238" stroke-width="0.26" stroke-miterlimit="10" stroke-linecap="round" stroke-linejoin="round"/>
<path d="M54.8562 55.5043L54.8952 55.8657C54.942 56.2765 54.643 56.6483 54.2322 56.6925L48.897 57.2827C48.4862 57.3295 48.1144 57.0305 48.0702 56.6197L48.0312 56.2583C47.9844 55.8475 48.2834 55.4757 48.6942 55.4315L54.0294 54.8413C54.4402 54.7945 54.812 55.0909 54.8562 55.5043Z" fill="#0085E5" stroke="#263238" stroke-width="0.26" stroke-miterlimit="10" stroke-linecap="round" stroke-linejoin="round"/>
<path d="M65.8994 54.4777L65.9046 54.5297C66.0034 55.4293 65.356 56.2379 64.4564 56.3393L53.8978 57.5093C53.1958 57.5873 52.5614 57.0803 52.4834 56.3783L52.3976 55.6139C52.3196 54.9119 52.8266 54.2775 53.5286 54.1995L64.0846 53.0295C64.9894 52.9307 65.8006 53.5781 65.8994 54.4777Z" fill="#263238" stroke="#263238" stroke-width="0.26" stroke-miterlimit="10" stroke-linecap="round" stroke-linejoin="round"/>
<path d="M61.2803 55.2444C61.2803 55.2444 61.3505 57.0904 61.6677 57.3504C61.9849 57.6104 63.1003 57.5636 63.2329 57.0618C63.5709 55.7826 63.3733 53.063 63.1445 52.959C62.9157 52.8524 61.5871 52.6314 61.4415 53.1956C61.2985 53.7572 61.2803 55.2444 61.2803 55.2444Z" fill="white" stroke="#263238" stroke-width="0.26" stroke-miterlimit="10" stroke-linecap="round" stroke-linejoin="round"/>
<path d="M58.7037 55.7755C58.7037 55.7755 58.6205 57.9257 59.0105 58.2611C59.3979 58.5965 60.8461 58.6615 61.0645 58.0947C61.6209 56.6491 61.4025 53.3965 61.1165 53.2483C60.8305 53.1027 59.3459 52.7777 59.1067 53.4147C58.8649 54.0543 58.7037 55.7755 58.7037 55.7755Z" fill="white" stroke="#263238" stroke-width="0.26" stroke-miterlimit="10" stroke-linecap="round" stroke-linejoin="round"/>
<path d="M55.7911 56.0898C55.7911 56.0898 55.7027 58.3882 56.1187 58.747C56.5347 59.1058 58.0817 59.176 58.3131 58.5676C58.9059 57.0206 58.9059 53.625 58.5991 53.469C58.2923 53.313 56.4749 52.884 56.2201 53.5652C55.9653 54.2464 55.7911 56.0898 55.7911 56.0898Z" fill="white" stroke="#263238" stroke-width="0.26" stroke-miterlimit="10" stroke-linecap="round" stroke-linejoin="round"/>
<path d="M53.0665 57.4131C53.0665 57.4131 52.9781 59.7115 53.3941 60.0703C53.8101 60.4291 55.4013 60.5149 55.5885 59.8909C55.7757 59.2669 56.1813 54.9483 55.8745 54.7923C55.5677 54.6363 53.7503 54.2073 53.4955 54.8885C53.2381 55.5697 53.0665 57.4131 53.0665 57.4131Z" fill="white" stroke="#263238" stroke-width="0.26" stroke-miterlimit="10" stroke-linecap="round" stroke-linejoin="round"/>
<path d="M60.8716 48.1211C60.9314 48.9713 60.8378 50.0841 60.1748 51.0409C58.8982 52.8895 55.9654 52.8271 55.9654 52.8271C55.9654 52.8271 55.9654 52.8271 55.838 53.2743C55.7106 53.7215 55.2634 54.2961 55.2634 54.2961C55.2634 54.2961 56.2852 54.0413 57.112 54.0413C57.9414 54.0413 58.3886 54.7433 58.451 55.3179C58.516 55.8925 58.5784 56.1473 57.814 56.3397C57.0496 56.5321 53.9868 57.4889 53.5396 57.5513C53.134 57.6085 52.4112 56.9273 52.2344 55.8431C52.3722 54.1765 52.8376 52.5307 52.8376 50.8537C52.8376 50.5729 52.978 49.9177 53.4356 49.2287" fill="white"/>
<path d="M60.8716 48.1211C60.9314 48.9713 60.8378 50.0841 60.1748 51.0409C58.8982 52.8895 55.9654 52.8271 55.9654 52.8271C55.9654 52.8271 55.9654 52.8271 55.838 53.2743C55.7106 53.7215 55.2634 54.2961 55.2634 54.2961C55.2634 54.2961 56.2852 54.0413 57.112 54.0413C57.9414 54.0413 58.3886 54.7433 58.451 55.3179C58.516 55.8925 58.5784 56.1473 57.814 56.3397C57.0496 56.5321 53.9868 57.4889 53.5396 57.5513C53.134 57.6085 52.4112 56.9273 52.2344 55.8431C52.3722 54.1765 52.8376 52.5307 52.8376 50.8537C52.8376 50.5729 52.978 49.9177 53.4356 49.2287" stroke="#263238" stroke-width="0.26" stroke-miterlimit="10" stroke-linecap="round" stroke-linejoin="round"/>
<path d="M60.623 46.7686C60.623 46.7686 60.7218 47.0572 60.7998 47.5122L60.623 46.7686Z" fill="white"/>
<path d="M60.623 46.7686C60.623 46.7686 60.7218 47.0572 60.7998 47.5122" stroke="#263238" stroke-width="0.26" stroke-miterlimit="10" stroke-linecap="round" stroke-linejoin="round"/>
<path d="M59.793 44.4701V42.1743" stroke="#263238" stroke-width="0.26" stroke-miterlimit="10" stroke-linecap="round" stroke-linejoin="round"/>
<path d="M60.4297 44.28V43.3232" stroke="#263238" stroke-width="0.26" stroke-miterlimit="10" stroke-linecap="round" stroke-linejoin="round"/>
<path d="M55.9656 52.8269C55.9656 52.8269 55.9604 51.5581 55.209 50.7261" stroke="#263238" stroke-width="0.26" stroke-miterlimit="10" stroke-linecap="round" stroke-linejoin="round"/>
<path d="M55.1833 54.3247C55.1833 54.3247 54.7803 54.3507 54.1641 54.5405" stroke="#263238" stroke-width="0.26" stroke-miterlimit="10" stroke-linecap="round" stroke-linejoin="round"/>
<path d="M57.4918 56.3367C57.4918 56.3367 56.821 56.5785 56.5792 56.2821C56.3374 55.9857 55.989 55.2083 56.2568 55.0731C56.5246 54.9379 57.7596 54.6441 58.0014 54.7247C58.2432 54.8053 58.2432 54.8053 58.2432 54.8053" stroke="#263238" stroke-width="0.13" stroke-miterlimit="10" stroke-linecap="round" stroke-linejoin="round"/>
<path d="M65.6275 21.1016V43.0846H54.8193V21.1016" fill="#0085E5"/>
<path d="M65.6275 21.1016V43.0846H54.8193V21.1016" stroke="#263238" stroke-width="0.26" stroke-miterlimit="10" stroke-linecap="round" stroke-linejoin="round"/>
<path d="M64.4081 41.967C64.6809 41.967 64.9021 41.7458 64.9021 41.473C64.9021 41.2002 64.6809 40.979 64.4081 40.979C64.1352 40.979 63.9141 41.2002 63.9141 41.473C63.9141 41.7458 64.1352 41.967 64.4081 41.967Z" fill="white" stroke="#263238" stroke-width="0.26" stroke-miterlimit="10" stroke-linecap="round" stroke-linejoin="round"/>
<path d="M51.473 95.4245C51.3196 95.8067 51.018 96.1057 50.6384 96.2617C50.3446 96.3813 49.9546 96.3553 49.4996 96.6101C48.4778 97.1847 45.9272 96.6751 44.0786 96.8649C42.23 97.0573 39.7418 95.0163 39.7418 95.0163L32.4072 95.4141V88.1419C32.4072 88.1419 40.0616 88.4617 41.7204 87.8221C43.3792 87.1851 45.2278 85.8435 46.0572 85.9085C46.8866 85.9735 53.7116 86.7379 53.7116 86.7379L51.4782 95.4115L51.473 95.4245Z" fill="white" stroke="#263238" stroke-width="0.26" stroke-miterlimit="10" stroke-linecap="round" stroke-linejoin="round"/>
<path d="M53.366 66.0806C57.5936 66.5486 60.6434 70.3576 60.1728 74.5852C59.7048 78.8128 55.8958 81.8626 51.6682 81.392C47.4406 80.924 44.3908 77.115 44.8614 72.8874C45.3294 68.6598 49.1358 65.61 53.366 66.0806ZM51.8372 79.8814C55.2302 80.2584 58.2852 77.8118 58.6622 74.4188C59.0392 71.0258 56.5926 67.9708 53.1996 67.5938C49.8066 67.2168 46.7516 69.6634 46.3746 73.0564C45.9976 76.4494 48.4416 79.5044 51.8372 79.8814Z" fill="white" stroke="#263238" stroke-width="0.26" stroke-miterlimit="10" stroke-linecap="round" stroke-linejoin="round"/>
<path d="M53.4129 65.6407C57.6405 66.1087 60.6903 69.9177 60.2197 74.1453C59.7491 78.3729 55.9427 81.4227 51.7151 80.9521C47.4875 80.4841 44.4377 76.6751 44.9083 72.4475C45.3789 68.2199 49.1853 65.1727 53.4129 65.6407ZM51.8841 79.4415C55.2771 79.8185 58.3321 77.3719 58.7091 73.9789C59.0861 70.5859 56.6395 67.5309 53.2465 67.1539C49.8535 66.7769 46.7959 69.2235 46.4215 72.6165C46.0445 76.0095 48.4911 79.0645 51.8841 79.4415Z" fill="white" stroke="#263238" stroke-width="0.26" stroke-miterlimit="10" stroke-linecap="round" stroke-linejoin="round"/>
<path d="M50.7108 87.9255L51.0722 87.9645C51.483 88.0113 51.8548 87.7123 51.899 87.3015L52.4892 81.9663C52.536 81.5555 52.237 81.1837 51.8262 81.1395L51.4648 81.1005C51.054 81.0537 50.6822 81.3527 50.638 81.7635L50.0478 87.0987C50.001 87.5095 50.2974 87.8787 50.7108 87.9255Z" fill="#0085E5" stroke="#263238" stroke-width="0.26" stroke-miterlimit="10" stroke-linecap="round" stroke-linejoin="round"/>
<path d="M49.6862 98.9677L49.7382 98.9729C50.6378 99.0717 51.449 98.4243 51.5478 97.5247L52.7178 86.9661C52.7958 86.2641 52.2888 85.6297 51.5868 85.5517L50.8224 85.4659C50.1204 85.3879 49.486 85.8949 49.408 86.5969L48.238 97.1529C48.1366 98.0577 48.7866 98.8689 49.6862 98.9677Z" fill="#263238" stroke="#263238" stroke-width="0.26" stroke-miterlimit="10" stroke-linecap="round" stroke-linejoin="round"/>
<path d="M50.4509 94.3511C50.4509 94.3511 52.2969 94.4213 52.5569 94.7385C52.8169 95.0557 52.7701 96.1711 52.2683 96.3037C50.9891 96.6417 48.2695 96.4441 48.1655 96.2153C48.0615 95.9865 47.8379 94.6579 48.4021 94.5123C48.9637 94.3693 50.4509 94.3511 50.4509 94.3511Z" fill="white" stroke="#263238" stroke-width="0.26" stroke-miterlimit="10" stroke-linecap="round" stroke-linejoin="round"/>
<path d="M50.9816 91.774C50.9816 91.774 53.1318 91.6908 53.4672 92.0808C53.8026 92.4682 53.8676 93.9164 53.3008 94.1348C51.8552 94.6912 48.6026 94.4728 48.4544 94.1868C48.3088 93.9008 47.9838 92.4162 48.6208 92.177C49.2604 91.9352 50.9816 91.774 50.9816 91.774Z" fill="white" stroke="#263238" stroke-width="0.26" stroke-miterlimit="10" stroke-linecap="round" stroke-linejoin="round"/>
<path d="M51.2954 88.8594C51.2954 88.8594 53.5938 88.771 53.9526 89.187C54.3114 89.603 54.3816 91.15 53.7732 91.3814C52.2262 91.9742 48.8306 91.9742 48.6746 91.6674C48.5186 91.3606 48.0896 89.5432 48.7708 89.2884C49.4546 89.0336 51.2954 88.8594 51.2954 88.8594Z" fill="white" stroke="#263238" stroke-width="0.26" stroke-miterlimit="10" stroke-linecap="round" stroke-linejoin="round"/>
<path d="M52.6187 86.1373C52.6187 86.1373 54.9171 86.0489 55.2759 86.4649C55.6347 86.8809 55.7205 88.4721 55.0965 88.6593C54.4725 88.8465 50.1539 89.2521 49.9979 88.9453C49.8419 88.6385 49.4129 86.8211 50.0941 86.5663C50.7753 86.3089 52.6187 86.1373 52.6187 86.1373Z" fill="white" stroke="#263238" stroke-width="0.26" stroke-miterlimit="10" stroke-linecap="round" stroke-linejoin="round"/>
<path d="M43.6855 93.9554C44.4759 93.9658 45.4197 93.815 46.2465 93.2456C48.0951 91.969 48.0327 89.0362 48.0327 89.0362C48.0327 89.0362 48.0327 89.0362 48.4799 88.9088C48.9271 88.7814 49.5017 88.3342 49.5017 88.3342C49.5017 88.3342 49.2469 89.356 49.2469 90.1828C49.2469 91.0122 49.9489 91.4594 50.5235 91.5218C51.0981 91.5868 51.3529 91.6492 51.5453 90.8848C51.7377 90.1204 52.6945 87.0576 52.7569 86.6104C52.8141 86.2048 52.1329 85.482 51.0487 85.3052C49.3821 85.443 47.7363 85.9084 46.0593 85.9084C45.7785 85.9084 45.1233 86.0488 44.4343 86.5064" fill="white"/>
<path d="M43.6855 93.9554C44.4759 93.9658 45.4197 93.815 46.2465 93.2456C48.0951 91.969 48.0327 89.0362 48.0327 89.0362C48.0327 89.0362 48.0327 89.0362 48.4799 88.9088C48.9271 88.7814 49.5017 88.3342 49.5017 88.3342C49.5017 88.3342 49.2469 89.356 49.2469 90.1828C49.2469 91.0122 49.9489 91.4594 50.5235 91.5218C51.0981 91.5868 51.3529 91.6492 51.5453 90.8848C51.7377 90.1204 52.6945 87.0576 52.7569 86.6104C52.8141 86.2048 52.1329 85.482 51.0487 85.3052C49.3821 85.443 47.7363 85.9084 46.0593 85.9084C45.7785 85.9084 45.1233 86.0488 44.4343 86.5064" stroke="#263238" stroke-width="0.26" stroke-miterlimit="10" stroke-linecap="round" stroke-linejoin="round"/>
<path d="M41.9746 93.6924C41.9746 93.6924 42.427 93.8484 43.09 93.9212L41.9746 93.6924Z" fill="white"/>
<path d="M41.9746 93.6924C41.9746 93.6924 42.427 93.8484 43.09 93.9212" stroke="#263238" stroke-width="0.26" stroke-miterlimit="10" stroke-linecap="round" stroke-linejoin="round"/>
<path d="M39.6757 92.8638H37.3799" stroke="#263238" stroke-width="0.26" stroke-miterlimit="10" stroke-linecap="round" stroke-linejoin="round"/>
<path d="M39.4861 93.5H38.5293" stroke="#263238" stroke-width="0.26" stroke-miterlimit="10" stroke-linecap="round" stroke-linejoin="round"/>
<path d="M48.0334 89.0359C48.0334 89.0359 46.7646 89.0307 45.9326 88.2793" stroke="#263238" stroke-width="0.26" stroke-miterlimit="10" stroke-linecap="round" stroke-linejoin="round"/>
<path d="M49.5303 88.2511C49.5303 88.2511 49.5563 87.8481 49.7461 87.2319" stroke="#263238" stroke-width="0.26" stroke-miterlimit="10" stroke-linecap="round" stroke-linejoin="round"/>
<path d="M51.5428 90.5602C51.5428 90.5602 51.7846 89.8894 51.4882 89.6476C51.1918 89.4058 50.4144 89.0574 50.2792 89.3252C50.144 89.593 49.8502 90.828 49.9308 91.0698C50.0114 91.3116 50.0114 91.3116 50.0114 91.3116" stroke="#263238" stroke-width="0.13" stroke-miterlimit="10" stroke-linecap="round" stroke-linejoin="round"/>
<path d="M16.3076 98.6952H38.2906V87.8896H16.3076" fill="#0085E5"/>
<path d="M16.3076 98.6952H38.2906V87.8896H16.3076" stroke="#263238" stroke-width="0.26" stroke-miterlimit="10" stroke-linecap="round" stroke-linejoin="round"/>
<path d="M36.1846 97.4779C36.1846 97.7509 36.4056 97.9719 36.6786 97.9719C36.9516 97.9719 37.1726 97.7509 37.1726 97.4779C37.1726 97.2049 36.9516 96.9839 36.6786 96.9839C36.4056 96.9839 36.1846 97.2049 36.1846 97.4779Z" fill="white" stroke="#263238" stroke-width="0.26" stroke-miterlimit="10" stroke-linecap="round" stroke-linejoin="round"/>
</svg>
