<svg width="130" height="130" viewBox="0 0 130 130" fill="none" xmlns="http://www.w3.org/2000/svg">
<path d="M101.534 44.7974L102.238 43.279C102.238 43.279 102.236 43.2348 102.228 43.1594C102.228 43.1594 102.145 40.6062 102.03 39.8158C101.947 39.223 101.692 39.1424 101.568 39.1372C101.419 39.0098 101.23 38.8902 100.983 38.7836C100.447 38.4612 99.7736 38.0946 99.1964 37.8502C98.5828 37.5304 98.0654 37.3484 97.847 37.6968C97.7352 37.8736 97.6598 38.0244 97.6052 38.1518C97.587 38.196 97.5688 38.2402 97.5558 38.2818C97.5532 38.2896 97.5506 38.3 97.548 38.3078C97.4986 38.4534 97.47 38.5912 97.4518 38.6978L96.5678 39.34L96.3052 39.4752L96.8304 42.1896L98.3644 43.9783C98.3644 43.9783 98.354 44.0485 98.3358 44.1656C98.2604 44.5452 98.003 45.4629 97.1762 46.4692C96.937 46.6928 96.7316 46.919 96.5652 47.1192C96.4976 47.1842 96.43 47.2466 96.3572 47.3116C95.247 48.2814 94.8232 49.025 94.636 49.5866L94.6334 49.623C93.8898 48.869 93.0188 48.2346 92.179 47.5819C91.9918 47.4363 90.2602 45.9232 89.0278 44.7506L88.084 43.2062C88.3882 43.7652 87.8422 42.7356 87.7928 42.629C87.2416 41.4018 86.9998 40.0472 86.3732 38.8564C85.4216 37.0468 83.2038 35.6558 81.0354 35.3724L82.0884 33.035L81.0692 32.6294C81.1004 32.6528 81.1316 32.671 81.168 32.684C81.3968 32.7672 81.8414 32.9284 82.3796 33.1C85.9676 34.4727 86.9712 33.633 87.057 33.5524C87.3248 33.399 87.4834 33.1 87.4626 32.7854L87.1532 28.2588C87.1454 28.147 87.1844 28.0352 87.2598 27.952L88.0476 27.0914C88.1776 26.9484 88.1932 26.7326 88.0788 26.574L87.0154 25.079C86.9582 24.9958 86.9296 24.897 86.9426 24.7956L87.0622 23.6724C87.07 23.5918 87.0544 23.5112 87.018 23.4384L85.5594 20.6226C85.8792 20.4406 86.1314 20.2352 86.277 20.0012C87.0752 18.7168 87.0518 17.9004 86.498 17.5936C85.9468 17.2894 84.8704 19.1432 82.182 18.566C80.8378 18.2774 78.0064 20.9268 76.9664 23.025L78.0688 20.4796C76.9534 21.9512 76.332 22.401 76.5634 23.0926C76.54 23.1082 76.501 23.1342 76.4464 23.1732C75.487 23.935 75.409 24.6994 75.409 24.6994C75.1386 25.6094 75.5104 26.9718 77.0444 28.7502L74.3222 32.3954C74.1272 32.2654 73.901 32.1692 73.6358 32.125C72.5204 31.9455 70.8954 32.5202 70.3988 32.71C70.118 32.6372 69.8476 32.5748 69.5902 32.5202C68.8206 32.2394 68.012 32.1301 67.2502 32.1146C66.4572 32.0417 65.594 32.0522 64.7698 32.2394C64.7698 32.2394 64.2316 32.372 63.4022 32.7438C63.0226 32.8842 62.6326 33.0843 62.24 33.3261C61.8344 33.5471 61.4704 33.7864 61.1376 34.036C60.2146 34.686 59.2136 35.5492 58.2698 36.688C57.9812 37.0364 57.6978 37.3744 57.417 37.7072C57.105 38.0348 56.7982 38.365 56.4888 38.6952C55.2174 39.9666 53.4832 41.589 52.0506 42.6342C50.7272 43.4584 49.175 44.1812 47.2302 44.8052C46.0602 45.1796 44.8356 45.5046 43.6136 45.7932C42.311 46.074 40.9902 46.3236 39.6642 46.5836C38.9882 46.698 38.2992 46.8435 37.631 47.0047C36.9056 47.1633 36.1828 47.3349 35.4652 47.5247C34.4486 47.7666 33.5906 48.0162 32.9614 48.2918C32.7274 48.375 32.4934 48.4608 32.262 48.5518C32.4232 48.583 32.5818 48.6246 32.7404 48.6688C33.2448 48.8794 34.3134 49.3942 35.2052 50.2626C36.1542 51.3832 36.5546 52.7585 36.6326 53.7127C36.6092 54.8307 36.24 56.1073 35.9514 57.3554C35.551 58.6892 35.226 59.8513 35.7486 60.868C35.8578 61.1721 36.0424 61.4529 36.2712 61.7207C36.5624 62.0873 36.9316 62.3968 37.3268 62.6854C38.0548 63.2522 38.8842 63.806 39.5342 64.469C39.9294 65.0383 40.3662 65.9328 40.7614 66.822C40.9148 67.303 41.102 67.8359 41.4218 68.4443C41.5336 68.7069 41.6558 68.9644 41.791 69.2114C41.843 69.3232 41.9262 69.4635 42.0354 69.6195C42.8362 70.8883 43.9594 71.8529 45.262 72.5523C47.3498 73.8237 49.1802 73.8289 49.1802 73.8289V73.8264C49.019 74.6844 48.98 75.2433 48.98 75.2433C48.98 75.2433 47.9478 75.4799 46.2656 76.2547C44.6146 76.9438 42.584 77.937 41.2918 79.0836C40.2232 80.0326 39.3938 81.1168 38.7256 82.2607C37.8104 83.7869 37.2228 85.3859 36.8692 86.5611C36.6716 87.1591 36.4922 87.7467 36.3206 88.3187L36.305 88.285C36.2972 88.3525 36.2816 88.4202 36.2712 88.4877C36.058 89.1975 35.8526 89.8814 35.6394 90.5158C34.7892 92.4735 33.3878 94.4105 32.7014 95.4427C32.7014 95.4427 32.7014 95.4427 32.7014 95.4454C32.3426 95.9055 31.9708 96.3553 31.586 96.7999C30.754 97.7178 29.701 98.7942 28.8898 99.7431C28.6246 100.037 28.3776 100.336 28.1774 100.638C27.9798 100.913 27.8264 101.163 27.7328 101.376C27.1166 102.811 28.4764 103.81 29.4358 105.034C29.4462 105.047 29.454 105.06 29.4644 105.073C29.7504 105.637 29.9298 106.264 30.0416 107.104C30.0572 107.72 30.0312 108.354 30.2158 109.004C30.3432 109.457 30.6474 109.896 31.0322 110.299C31.4664 110.801 32.0384 111.246 32.691 111.589C33.0576 111.807 33.4008 111.979 33.6608 112.083C34.6332 112.47 37.8416 112.447 38.5592 111.201C38.606 111.121 38.645 111.04 38.6814 110.965C38.775 110.804 38.8244 110.64 38.8348 110.468C38.97 109.667 38.3512 109.163 38.3512 109.163C38.3304 109.192 38.4396 109.259 38.4188 109.285C37.2826 107.585 34.225 105.614 34.251 103.885C34.3004 100.599 36.292 98.3235 38.5644 96.1942C40.7744 94.1245 43.4758 93.7657 45.5298 91.5765C46.8558 90.1647 48.3066 88.7113 49.2062 85.7682C54.557 84.1354 55.8882 79.7309 55.8882 79.7309C56.4394 79.5074 56.8944 79.2915 57.4014 79.0653C58.8678 81.2831 59.9182 82.7469 60.0742 82.6507L71.8652 74.7182C72.1226 75.0275 74.46 77.7861 76.7194 78.5245C76.7428 78.5323 76.761 78.5401 76.7844 78.5453L79.153 79.7336C78.7474 81.174 76.7506 81.5873 76.7506 81.5873L76.7454 81.6107C76.6856 81.6237 76.6258 81.6367 76.566 81.6471C76.1448 81.6289 73.7918 81.6394 71.7586 83.8493C70.794 84.7853 69.5226 86.4831 68.5762 87.8065C67.7832 88.8933 67.2606 89.6811 67.2606 89.6811C67.2606 89.6811 66.8004 89.7826 66.2232 90.0035C64.0288 90.7966 63.8416 91.7325 63.9664 92.2733C63.969 92.3591 63.9768 92.4449 63.995 92.5359C64.0522 92.8271 64.2394 93.0793 64.4864 93.3316C64.7126 93.6124 64.9882 93.8385 65.2508 94.0439C65.6148 94.3845 65.9892 94.7771 66.2752 95.2893C66.5222 95.8717 66.7016 96.6205 66.8966 97.4577C67.232 98.8904 68.9168 102.075 71.2594 102.213C72.0316 102.257 72.5646 102.195 72.9364 102.088C73.3212 102.016 73.6982 101.886 73.7372 101.566C73.7632 101.516 73.7684 101.488 73.7684 101.488C73.7684 101.488 73.7554 101.462 73.7294 101.42C73.719 101.353 73.6956 101.277 73.6566 101.194C73.368 100.583 72.9598 100.04 72.5906 99.4701C72.12 98.6563 71.5428 97.099 71.2568 95.5364C71.2464 95.4506 71.2334 95.3622 71.223 95.2764C71.1762 94.876 71.1138 94.4366 71.0852 93.992C71.0826 93.9452 71.08 93.8984 71.08 93.8541C71.0722 93.0274 71.2048 92.3903 71.4596 91.8989C71.9042 91.1813 72.7206 90.7939 73.524 90.5989C74.0882 90.4611 74.7928 90.2739 75.5702 90.0425C76.5088 89.8008 77.5124 89.4991 78.3964 89.1195C81.5372 87.9911 84.795 86.4597 85.3748 84.9673C86.2978 82.5935 88.1126 80.0247 88.1126 80.0247C87.2052 74.0942 82.6864 67.4849 82.6864 67.4849L94.8804 59.2351C94.9896 59.1675 94.5528 58.3069 93.7702 56.9576L93.9834 57.2955V57.3008C93.986 57.3033 93.9912 57.3033 93.9964 57.306C94.7946 57.7609 96.2558 57.9689 97.1112 58.0521C97.1736 58.0599 97.2386 58.0652 97.301 58.0704C97.5948 58.0964 97.704 58.0885 97.704 58.0885C98.6348 57.2643 99.4642 55.7122 100.021 54.1782C100.658 52.6623 101.245 50.7566 101.484 48.5388C101.596 47.816 101.666 46.8748 101.586 45.7698C101.578 45.4473 101.562 45.125 101.534 44.7974ZM76.735 29.2754C76.8364 29.1168 76.93 28.966 77.0132 28.8282C77.0158 28.8308 77.0184 28.8334 77.021 28.836L77.0496 28.771C77.3278 28.3134 77.4916 28.0118 77.4916 28.0118L77.385 27.9884L77.4188 27.9104C77.463 27.9754 77.4916 28.0118 77.4916 28.0118C77.4006 28.277 77.1068 28.7424 76.735 29.2754Z" fill="white"/>
<path d="M96.001 47.8336C96.001 47.8336 96.963 51.0238 101.048 50.1346C101.048 50.1346 101.887 48.039 101.445 44.8852L102.192 43.281C102.192 43.281 101.971 40.7668 102.004 40.3924C102.038 40.018 102.051 39.238 100.873 38.7596C99.6982 38.2786 98.2136 37.0436 97.8002 37.7014C97.3868 38.3592 97.4388 38.6764 97.4388 38.6764L96.3884 39.4408L96.781 42.1968L98.315 43.9856C98.315 43.9856 98.1148 45.6132 97.2958 46.323C96.4742 47.0328 96.001 47.8336 96.001 47.8336Z" fill="#FFA000"/>
<path opacity="0.2" d="M100.093 50.3244C100.093 50.3244 101.073 46.0838 100.433 43.5904C100.433 43.5904 101.863 42.2644 101.455 39.1418C101.455 39.1418 101.871 39.0248 101.986 39.8152C102.097 40.6056 102.183 43.1588 102.183 43.1588L101.486 44.7682C101.486 44.7682 101.434 48.4342 101.203 49.885C101.2 49.8824 101.146 50.2022 100.093 50.3244Z" fill="black"/>
<path d="M80.8143 36.1152L93.9781 55.3526C93.9781 55.3526 94.7529 56.1508 96.6509 56.5096C96.6509 56.5096 99.4563 53.4026 100.093 50.3268L101.123 50.1188C101.123 50.1188 99.9191 56.1742 97.7325 58.106C97.7325 58.106 95.1117 57.9734 93.9391 57.3L80.6973 36.3466L80.8143 36.1152Z" fill="#0085E5"/>
<path opacity="0.6" d="M80.8143 36.1152L93.9781 55.3526C93.9781 55.3526 94.7529 56.1508 96.6509 56.5096C96.6509 56.5096 99.4563 53.4026 100.093 50.3268L101.123 50.1188C101.123 50.1188 99.9191 56.1742 97.7325 58.106C97.7325 58.106 95.1117 57.9734 93.9391 57.3L80.6973 36.3466L80.8143 36.1152Z" fill="white"/>
<path d="M81.0508 35.4443C83.2582 35.5795 85.2888 36.9055 86.3184 38.8633C86.945 40.0541 87.1868 41.4087 87.738 42.6333C88.6532 44.6665 90.364 46.2239 92.1242 47.5889C93.2318 48.4469 94.394 49.2711 95.2416 50.3891C95.6654 50.9481 96.0008 51.5981 96.175 52.2767" stroke="#263238" stroke-width="0.26" stroke-miterlimit="10" stroke-linecap="round" stroke-linejoin="round"/>
<path d="M94.5839 49.5913C94.7711 49.0297 95.1949 48.2861 96.3051 47.3163C98.1641 45.6939 98.3123 43.9831 98.3123 43.9831L96.7783 42.1943L96.2531 39.4799L97.3763 38.9027C97.3763 38.9027 97.4413 37.9199 98.0003 37.6183C98.5593 37.3167 101.198 38.8845 101.776 39.3343C102.153 39.6255 101.926 41.0451 102.179 43.1589C101.776 44.0715 101.482 44.7683 101.482 44.7683C102.155 52.7893 97.7325 58.1037 97.7325 58.1037C96.1101 58.0231 94.8751 57.6409 93.9365 57.2977" stroke="#263238" stroke-width="0.26" stroke-miterlimit="10" stroke-linecap="round" stroke-linejoin="round"/>
<path d="M97.668 39.8301C97.9384 40.0719 98.2088 40.3163 98.4766 40.5581C98.5962 40.6647 98.7158 40.7739 98.8536 40.8545C99.0928 40.9949 99.2696 41.1301 99.5452 41.1405C99.7428 41.1457 99.9846 41.1223 100.164 41.0443C100.346 40.9663 100.739 40.2773 100.791 40.0875" stroke="#263238" stroke-width="0.26" stroke-miterlimit="10" stroke-linecap="round" stroke-linejoin="round"/>
<path d="M95.9619 47.6543C95.9619 47.6543 96.7965 51.2241 101.211 50.0567" stroke="#263238" stroke-width="0.26" stroke-miterlimit="10" stroke-linecap="round" stroke-linejoin="round"/>
<path d="M99.2797 37.9404C98.7831 38.1458 98.5309 38.4396 98.3229 38.9336C98.1175 39.4302 98.0863 39.88 98.2917 40.3766" stroke="#263238" stroke-width="0.26" stroke-miterlimit="10" stroke-linecap="round" stroke-linejoin="round"/>
<path d="M100.512 38.541C99.9868 38.6736 99.4564 39.1598 99.264 39.6642C99.0716 40.1686 99.043 40.4728 99.1522 41.0032" stroke="#263238" stroke-width="0.26" stroke-miterlimit="10" stroke-linecap="round" stroke-linejoin="round"/>
<path d="M98.9775 40.9385C99.2557 41.1101 99.5391 41.2843 99.7575 41.5287C100.233 42.0617 100.327 42.8235 100.397 43.5359" stroke="#263238" stroke-width="0.26" stroke-miterlimit="10" stroke-linecap="round" stroke-linejoin="round"/>
<path d="M97.376 38.9027C97.376 38.9027 98.221 38.3723 98.364 38.6635" stroke="#263238" stroke-width="0.26" stroke-miterlimit="10" stroke-linecap="round" stroke-linejoin="round"/>
<path d="M42.072 93.9396C42.072 93.9396 37.1008 92.6526 36.3728 88.3574C36.3728 88.3574 35.4368 91.4592 33.492 94.2568C31.5498 97.0518 27.6992 100.258 27.6836 101.378C27.6654 102.499 27.8994 103.185 28.9082 104.126C29.917 105.068 30.0262 107.553 30.0652 108.138C30.1042 108.723 30.4734 110.143 31.919 111.188C33.3646 112.233 35.6968 112.66 37.4128 111.955C39.1288 111.25 39.0014 109.932 38.4268 109.29C37.8522 108.648 34.3916 105.476 34.2616 104.402C34.1316 103.328 34.506 101.142 35.6526 99.4048C36.8018 97.6654 39.6254 95.0056 42.072 93.9396Z" fill="#FFA000"/>
<path d="M82.0805 33.0898C82.0805 33.0898 81.0171 34.8292 80.6973 36.345" stroke="#263238" stroke-width="0.26" stroke-miterlimit="10" stroke-linecap="round" stroke-linejoin="round"/>
<path d="M83.0861 21.374C83.4605 22.4426 83.7595 23.6204 83.3903 24.6916C83.1641 25.3468 82.7039 25.9006 82.4699 26.5532C82.2151 27.2656 82.2437 28.043 82.2749 28.7996C82.3191 29.8188 82.3867 30.9108 83.0159 31.7116C83.9363 32.8816 85.6367 32.9726 87.0095 33.5498C87.0095 33.5498 86.0891 34.5508 82.3035 33.0974L80.9905 32.6242L80.3041 35.778C80.3041 35.778 79.8985 35.0968 79.2563 35.2008C78.6141 35.3048 76.9371 36.5606 76.9371 36.5606C76.9371 36.5606 75.9725 35.6038 75.7541 34.959C75.5383 34.3142 74.9481 32.7698 74.2617 32.4162C74.2617 32.4162 77.1191 28.953 77.4389 28.0144C77.4389 28.0144 75.8165 25.8772 77.6781 25.0374C79.5371 24.1976 80.5615 26.3244 80.5615 26.3244L79.9245 23.5632L82.4075 21.452L83.0861 21.374Z" fill="#0085E5"/>
<path opacity="0.6" d="M83.0861 21.374C83.4605 22.4426 83.7595 23.6204 83.3903 24.6916C83.1641 25.3468 82.7039 25.9006 82.4699 26.5532C82.2151 27.2656 82.2437 28.043 82.2749 28.7996C82.3191 29.8188 82.3867 30.9108 83.0159 31.7116C83.9363 32.8816 85.6367 32.9726 87.0095 33.5498C87.0095 33.5498 86.0891 34.5508 82.3035 33.0974L80.9905 32.6242L80.3041 35.778C80.3041 35.778 79.8985 35.0968 79.2563 35.2008C78.6141 35.3048 76.9371 36.5606 76.9371 36.5606C76.9371 36.5606 75.9725 35.6038 75.7541 34.959C75.5383 34.3142 74.9481 32.7698 74.2617 32.4162C74.2617 32.4162 77.1191 28.953 77.4389 28.0144C77.4389 28.0144 75.8165 25.8772 77.6781 25.0374C79.5371 24.1976 80.5615 26.3244 80.5615 26.3244L79.9245 23.5632L82.4075 21.452L83.0861 21.374Z" fill="white"/>
<path d="M85.4342 20.4893L86.963 23.4403C86.9994 23.5131 87.0151 23.5937 87.0073 23.6743L86.8876 24.7975C86.8772 24.8963 86.9032 24.9977 86.9604 25.0809L88.0238 26.5759C88.1356 26.7345 88.1226 26.9503 87.9926 27.0933L87.2048 27.9539C87.1294 28.0371 87.0904 28.1489 87.0982 28.2607L87.4076 32.7873C87.431 33.1435 87.2256 33.4815 86.8902 33.6089C86.6354 33.7077 86.2636 33.7883 85.7228 33.8065C84.3656 33.8533 81.789 32.9381 81.113 32.6885C81.0064 32.6495 80.9206 32.5689 80.8764 32.4623L79.748 29.8025" stroke="#263238" stroke-width="0.26" stroke-miterlimit="10" stroke-linecap="round" stroke-linejoin="round"/>
<path d="M79.6291 26.3989C79.6291 26.3989 78.8517 24.6517 78.1809 24.8519C77.5101 25.0495 76.7145 25.6293 76.7327 26.4249C76.7509 27.2231 77.9729 28.6037 78.4929 28.7285C79.0103 28.8533 79.6395 28.6401 79.6395 28.6401" stroke="#263238" stroke-width="0.26" stroke-miterlimit="10" stroke-linecap="round" stroke-linejoin="round"/>
<path d="M85.8475 25.1275C85.8423 25.3875 85.7383 25.5955 85.6161 25.5929C85.4913 25.5903 85.3925 25.3797 85.3977 25.1197C85.4029 24.8597 85.5069 24.6517 85.6317 24.6543C85.7539 24.6595 85.8527 24.8701 85.8475 25.1275Z" fill="#263238"/>
<path d="M84.9113 28.2197C84.9113 28.2197 84.8749 29.1297 85.8707 29.3949" stroke="#263238" stroke-width="0.26" stroke-miterlimit="10" stroke-linecap="round" stroke-linejoin="round"/>
<path d="M85.9098 23.493C85.9098 23.493 84.745 22.4816 84.0664 24.3432" stroke="#263238" stroke-width="0.52" stroke-miterlimit="10" stroke-linecap="round" stroke-linejoin="round"/>
<path d="M77.2364 27.9668L77.4418 28.011C77.4418 28.011 75.8584 30.8892 74.2646 32.4128" stroke="#263238" stroke-width="0.26" stroke-miterlimit="10" stroke-linecap="round" stroke-linejoin="round"/>
<path d="M77.8133 28.3359C77.8133 28.3359 77.1633 33.3019 78.0707 35.5899" stroke="#263238" stroke-width="0.26" stroke-miterlimit="10" stroke-linecap="round" stroke-linejoin="round"/>
<path d="M76.6616 23.4749C76.6616 23.4749 75.5904 21.3741 77.0906 19.3955" stroke="#263238" stroke-width="0.26" stroke-miterlimit="10" stroke-linecap="round" stroke-linejoin="round"/>
<path d="M77.0752 23.1131C75.0342 23.0013 74.4258 25.4427 74.4258 25.4427" stroke="#263238" stroke-width="0.26" stroke-miterlimit="10" stroke-linecap="round" stroke-linejoin="round"/>
<path d="M86.4457 17.5984C85.8945 17.2942 84.8181 19.148 82.1297 18.5708C80.4163 18.2042 76.2979 19.3352 76.5371 23.0844C76.5371 23.0844 73.3963 24.8914 76.9687 28.8382L77.4288 27.7696C77.4288 27.7696 75.9364 26.1732 77.226 25.3646C78.3622 24.6522 78.5079 24.738 79.5947 26.4592C79.5947 26.4592 79.9587 27.2132 80.6659 27.0026C81.3731 26.792 81.3419 26.493 81.0559 25.7858C80.9493 25.5232 80.7725 25.0838 80.6269 24.6002C81.2717 24.4156 82.8212 23.7526 82.8004 21.6128C82.8004 21.605 82.8004 21.5998 82.8004 21.592C84.1706 21.2124 85.7515 20.7678 86.2247 20.006C87.0229 18.719 86.9969 17.9026 86.4457 17.5984Z" fill="#263238"/>
<path d="M77.2674 22.9831C77.0698 21.8157 77.8706 20.6587 78.9106 20.0919C79.9506 19.5251 81.1752 19.4315 82.3582 19.4107C83.1122 19.3977 83.8766 19.4081 84.6072 19.2287C84.8646 19.1663 85.1168 19.0779 85.356 18.9609" stroke="white" stroke-width="0.13" stroke-miterlimit="10" stroke-linecap="round" stroke-linejoin="round"/>
<path d="M77.8506 23.6123C77.9884 22.7075 78.7476 21.9327 79.6498 21.7819C80.1204 21.7013 80.6092 21.7793 81.0772 21.6831C81.5452 21.5869 82.0236 21.2255 82.0028 20.7471" stroke="white" stroke-width="0.13" stroke-miterlimit="10" stroke-linecap="round" stroke-linejoin="round"/>
<path d="M66.0234 44.2516L78.4696 35.3882C79.078 34.9566 79.9256 35.1386 80.3052 35.7808C80.3052 35.7808 95.419 58.8688 94.834 59.2354L60.0226 82.6536C59.4272 83.028 45.5432 60.2312 45.5432 60.2312C45.1844 59.6592 45.3352 58.9078 45.8864 58.5152L52.48 53.7364" stroke="#263238" stroke-width="0.26" stroke-miterlimit="10" stroke-linecap="round" stroke-linejoin="round"/>
<path d="M75.1236 72.3838C75.7424 73.8866 77.0996 74.9448 78.4412 75.8652C79.7828 76.7856 81.2076 77.6826 82.0994 79.0424C82.9912 80.4022 83.1732 82.3912 82.037 83.5534C81.8108 83.7848 81.5014 83.9824 81.1842 83.92C80.4458 83.7718 80.5784 82.568 79.9778 82.1156C79.0704 83.3974 77.1958 83.894 76.1454 84.0422L76.7044 81.5852C76.7044 81.5852 78.0798 81.4318 79.1094 79.9602C79.1094 79.9602 79.0678 79.2998 76.6732 78.5198C74.2786 77.7398 71.793 74.6848 71.793 74.6848L75.1236 72.3838Z" fill="#0085E5"/>
<path opacity="0.6" d="M75.1236 72.3838C75.7424 73.8866 77.0996 74.9448 78.4412 75.8652C79.7828 76.7856 81.2076 77.6826 82.0994 79.0424C82.9912 80.4022 83.1732 82.3912 82.037 83.5534C81.8108 83.7848 81.5014 83.9824 81.1842 83.92C80.4458 83.7718 80.5784 82.568 79.9778 82.1156C79.0704 83.3974 77.1958 83.894 76.1454 84.0422L76.7044 81.5852C76.7044 81.5852 78.0798 81.4318 79.1094 79.9602C79.1094 79.9602 79.0678 79.2998 76.6732 78.5198C74.2786 77.7398 71.793 74.6848 71.793 74.6848L75.1236 72.3838Z" fill="white"/>
<path d="M79.0645 88.7769C79.0645 88.7769 75.2295 86.7801 76.5815 81.6529C76.5815 81.6529 73.9503 81.4137 71.7091 83.8499C69.4679 86.2861 67.2137 89.6817 67.2137 89.6817C67.2137 89.6817 63.8961 90.6879 63.9299 91.9619C63.9611 93.2359 64.9205 93.8105 65.5757 94.3305C66.2309 94.8505 66.5195 96.0257 66.8523 97.4583C67.1877 98.8909 68.8725 102.076 71.2151 102.214C73.5577 102.352 73.7241 101.488 73.7241 101.488C73.7241 101.488 73.2275 100.615 72.5827 99.5331C71.9353 98.4541 71.0591 95.8905 71.0383 93.8521C71.0175 91.8137 71.8469 90.9089 73.2795 90.5735C74.7069 90.2407 77.3173 89.7181 79.0645 88.7769Z" fill="#FFA000"/>
<path d="M71.9279 74.7787C71.5249 74.3705 74.2939 77.6959 77.2085 78.7177C80.0711 79.7213 80.0581 81.1487 80.0581 81.1487" stroke="#263238" stroke-width="0.26" stroke-miterlimit="10" stroke-linecap="round" stroke-linejoin="round"/>
<path d="M82.6394 67.4854C82.6394 67.4854 87.1582 74.0946 88.0656 80.0252C88.0656 80.0252 86.2508 82.594 85.3278 84.9678C84.4048 87.3416 76.7088 89.8194 73.477 90.602C72.606 90.8126 71.709 91.2494 71.3008 92.0918C70.8458 93.033 71.059 94.281 71.176 95.2794C71.3034 96.3766 71.54 97.4712 71.9872 98.4826C72.4188 99.4602 73.1598 100.245 73.6096 101.197C73.9814 101.98 73.0298 102.081 72.4474 102.159C68.8646 102.643 67.081 98.7348 66.6546 96.4624C66.2282 94.19 64.169 93.6492 63.948 92.539C63.5372 90.4902 67.2136 89.6842 67.2136 89.6842C67.1434 89.835 69.9462 85.5658 71.709 83.8524C72.3928 83.1894 73.1286 82.5394 74.0386 82.1832C74.972 81.8192 76.012 81.7932 76.9896 81.5462C77.9646 81.2992 78.9656 80.7142 79.1658 79.786" stroke="#263238" stroke-width="0.26" stroke-miterlimit="10" stroke-linecap="round" stroke-linejoin="round"/>
<path d="M76.6314 81.6836C76.6314 81.6836 74.7906 86.3454 79.1768 88.8024" stroke="#263238" stroke-width="0.26" stroke-miterlimit="10" stroke-linecap="round" stroke-linejoin="round"/>
<path d="M73.1338 73.9199C73.1338 73.9199 75.0396 76.4757 78.3 77.6977" stroke="#263238" stroke-width="0.26" stroke-miterlimit="10" stroke-linecap="round" stroke-linejoin="round"/>
<path d="M77.1974 82.4609C76.3446 82.5363 75.4892 82.6793 74.691 82.9887C73.8928 83.2981 73.1466 83.7817 72.6162 84.4525" stroke="#263238" stroke-width="0.26" stroke-miterlimit="10" stroke-linecap="round" stroke-linejoin="round"/>
<path opacity="0.2" d="M76.2253 84.1435C74.6627 84.7701 73.1 85.4149 71.6622 86.2911C70.2244 87.1673 68.9088 88.2879 68.0092 89.7101C67.8974 89.8869 67.7908 90.0715 67.6426 90.2197C67.2968 90.5655 66.7872 90.6695 66.3322 90.8437C65.3234 91.2285 64.1014 92.8275 64.1222 92.7261C64.1222 92.7261 62.6247 90.9087 67.2136 89.6867C67.2136 89.6867 69.5692 86.2469 71.15 84.5075C72.7308 82.7681 73.6226 81.9647 76.5034 81.6709L76.2253 84.1435Z" fill="black"/>
<path d="M76.4385 36.8416L76.7557 36.5582C76.7557 36.5582 75.9731 35.4376 75.6273 34.6524C75.2815 33.8672 74.9123 32.3462 73.5837 32.1304C72.2551 31.9146 70.1959 32.7752 70.1959 32.7752C70.1959 32.7752 67.2605 31.665 64.7177 32.2448C64.7177 32.2448 61.1973 33.1002 58.2177 36.6934C55.2381 40.2866 52.8929 42.9776 47.1807 44.808C41.4685 46.6384 34.5161 47.2572 32.3945 48.5598C32.3945 48.5598 36.3517 49.9066 36.5961 53.1566C36.8379 56.4092 34.6903 58.9078 35.6991 60.8734C36.7079 62.8364 38.5851 63.255 39.4145 64.373C40.2413 65.491 41.2657 68.1716 41.7415 69.2168C42.2173 70.262 45.2931 73.4756 49.1333 73.8344C49.1333 73.8344 49.8925 70.353 50.8571 68.9048L45.5453 60.2286C45.5453 60.2286 44.9187 59.2588 45.9717 58.3982C47.0247 57.5376 52.4821 53.7364 52.4821 53.7364C52.4821 53.7364 51.5877 52.0854 51.4135 50.7516C51.2393 49.4178 50.2747 48.5832 50.2747 48.5832C50.2747 48.5832 50.8883 46.6826 52.3365 45.5698C53.7821 44.4544 56.5173 41.8336 57.7133 40.1306C58.9093 38.4276 61.5821 33.433 66.4961 32.8272C66.4961 32.8272 67.7883 33.2042 69.1351 34.3612C70.4819 35.5156 73.0845 37.5046 76.4385 36.8416Z" fill="#FFA000"/>
<path opacity="0.38" d="M70.4662 32.7438C70.4662 32.7438 73.1988 31.8182 74.0672 32.3382C74.9356 32.8582 76.766 36.7114 76.766 36.7114L76.2746 37.1196C76.2746 37.1196 72.4552 36.7608 71.0876 35.7728C69.72 34.7848 67.978 32.684 64.8242 32.45C64.8242 32.4526 66.587 31.7168 70.4662 32.7438Z" fill="white"/>
<path d="M64.4314 32.4268C60.9942 33.4226 59.9308 35.1256 58.0952 36.9638C56.7484 38.3106 55.5186 39.7744 54.1224 41.0666C48.301 46.459 39.6092 45.6764 32.2148 48.5546C34.43 48.9966 36.1356 50.6086 36.5308 52.9226C36.9416 55.3146 34.8798 58.8142 35.8184 61.0528C36.432 62.5166 38.1948 63.0834 39.2946 64.2274C40.5842 65.5716 40.8468 67.5814 41.7412 69.2142C43.218 71.9078 46.065 73.3404 49.133 73.8318" stroke="#263238" stroke-width="0.26" stroke-miterlimit="10" stroke-linecap="round" stroke-linejoin="round"/>
<path d="M50.7403 49.2744C50.3217 49.7008 49.9473 50.1662 49.5339 50.5978C47.4669 52.761 44.6121 53.9622 41.8457 55.1036" stroke="#263238" stroke-width="0.26" stroke-miterlimit="10" stroke-linecap="round" stroke-linejoin="round"/>
<path d="M51.4602 51.207C49.9158 53.0296 47.7604 53.9006 45.6674 55.0524C43.5744 56.2042 41.458 57.694 40.6416 59.9404" stroke="#263238" stroke-width="0.26" stroke-miterlimit="10" stroke-linecap="round" stroke-linejoin="round"/>
<path d="M71.6154 33.9295C68.9582 30.8719 63.8154 32.6061 63.8154 32.6061C65.781 32.3591 67.2708 32.6009 70.1776 35.0449C72.4474 36.9507 75.1618 37.0443 76.2148 36.9819" stroke="#263238" stroke-width="0.26" stroke-miterlimit="10" stroke-linecap="round" stroke-linejoin="round"/>
<path d="M70.1494 32.7961C71.0074 32.5491 71.8784 32.3489 72.7572 32.2007C72.9938 32.1617 73.233 32.1253 73.4722 32.1513C73.9844 32.2085 74.4264 32.5491 74.7358 32.9599C75.0452 33.3707 75.2454 33.8517 75.4664 34.3171C75.8382 35.0971 76.2802 35.8433 76.7846 36.5453" stroke="#263238" stroke-width="0.26" stroke-miterlimit="10" stroke-linecap="round" stroke-linejoin="round"/>
<path d="M53.4186 73.1426C53.4186 73.1426 50.3636 75.6256 49.5264 79.718C49.5264 79.718 48.6268 78.8834 49.0142 77.4742C49.0142 77.4742 40.429 81.1298 37.0932 90.43L36.373 88.3552C36.373 88.3552 37.53 81.8084 41.677 78.8938C45.8734 75.948 48.9336 75.246 48.9336 75.246C48.9336 75.246 49.451 70.7142 50.8888 69.0918L53.4186 73.1426Z" fill="#0085E5"/>
<path opacity="0.6" d="M53.4186 73.1528C53.4186 73.1528 50.3636 75.6228 49.5264 79.7152C49.5264 79.7152 48.6268 78.8806 49.0142 77.4714C49.0142 77.4714 40.429 81.127 37.0932 90.4272L36.373 88.3524C36.373 88.3524 37.53 81.8056 41.677 78.891C45.8734 75.9452 48.9336 75.2432 48.9336 75.2432C48.9336 75.2432 49.451 70.7712 50.8888 69.1514L53.4186 73.1528Z" fill="white"/>
<path d="M57.3626 79.0623C56.8504 79.2911 56.3928 79.5095 55.839 79.7331C55.839 79.7331 54.5078 84.1375 49.157 85.7703C48.2574 88.7135 46.8066 90.1669 45.4806 91.5787C43.4266 93.7653 40.7252 94.1267 38.5152 96.1963C36.2402 98.3257 34.2512 100.598 34.2018 103.887C34.1628 106.51 41.2114 109.693 37.9068 111.632C34.5996 113.572 30.2472 110.915 30.1068 108.382C29.9638 105.847 29.5452 104.904 28.2946 103.528C26.901 101.997 27.9566 100.673 29.1812 99.3813C31.7058 96.7163 33.8664 94.3191 35.4394 90.9729C36.6718 87.5331 37.4596 82.4501 41.2504 79.0883C43.7334 76.8861 48.9386 75.2481 48.9386 75.2481C48.9386 75.2481 49.1752 71.8655 50.886 68.9795" stroke="#263238" stroke-width="0.26" stroke-miterlimit="10" stroke-linecap="round" stroke-linejoin="round"/>
<path d="M36.3311 88.1308C36.4195 87.876 37.1007 93.3022 42.2357 93.8092" stroke="#263238" stroke-width="0.26" stroke-miterlimit="10" stroke-linecap="round" stroke-linejoin="round"/>
<path d="M45.2207 77.6689C43.1537 78.6335 41.3805 80.2221 40.3145 82.2319" stroke="#263238" stroke-width="0.26" stroke-miterlimit="10" stroke-linecap="round" stroke-linejoin="round"/>
<path d="M47.5063 76.8857C46.9109 77.0183 46.3285 77.2029 45.7617 77.4317" stroke="#263238" stroke-width="0.26" stroke-miterlimit="10" stroke-linecap="round" stroke-linejoin="round"/>
<path d="M31.6406 109.719C31.6406 109.719 33.1304 112.171 36.227 111.557" stroke="#263238" stroke-width="0.26" stroke-miterlimit="10" stroke-linecap="round" stroke-linejoin="round"/>
<path opacity="0.2" d="M37.1295 90.1854C36.2481 92.6528 34.9949 94.8628 33.0579 96.6282C32.2337 97.377 31.3289 98.0452 30.5879 98.8746C29.8469 99.7066 29.2671 100.749 29.2671 101.862C29.2671 102.502 29.4569 103.126 29.6467 103.739C29.9457 104.709 30.2447 105.679 30.5463 106.651C30.7543 107.327 30.9675 108.014 31.3601 108.604C31.7449 109.181 32.2857 109.644 32.8759 110.008C33.7183 110.528 34.6933 110.868 35.6813 110.835C36.6693 110.798 37.8601 110.016 38.4321 109.207C38.4321 109.207 39.2303 109.961 38.5127 111.206C37.7951 112.452 34.5867 112.475 33.6143 112.088C32.6419 111.7 30.5671 110.411 30.1693 109.007C29.7715 107.603 30.3513 106.261 29.3919 105.037C28.4325 103.812 27.0753 102.811 27.6889 101.378C28.3051 99.9432 31.7033 96.8752 32.6575 95.4452C33.6117 94.0152 35.9439 90.8458 36.2611 88.29L37.1295 90.1854Z" fill="black"/>
<path d="M74.9766 55.1943L94.2218 57.9529L94.7002 59.1697L75.0286 55.7377L74.9766 55.1943Z" fill="#0085E5"/>
<path opacity="0.6" d="M74.9766 55.1943L94.2218 57.9529L94.7002 59.1697L75.0286 55.7377L74.9766 55.1943Z" fill="white"/>
<path d="M64.9896 62.9541L58.9238 81.2477L60.008 82.5737L65.2366 63.4689L64.9896 62.9541Z" fill="#0085E5"/>
<path opacity="0.6" d="M64.9896 62.9541L58.9238 81.2477L60.008 82.5737L65.2366 63.4689L64.9896 62.9541Z" fill="white"/>
<path d="M79.6639 35.2871L73.4109 65.5589L45.5467 60.2289L45.4219 59.7609L72.5425 64.1679L79.6639 35.2871Z" fill="#0085E5"/>
<path opacity="0.6" d="M79.6639 35.2871L73.4109 65.5589L45.5467 60.2289L45.4219 59.7609L72.5425 64.1679L79.6639 35.2871Z" fill="white"/>
<path d="M79.5416 47.5539C81.4819 46.5989 82.2806 44.2519 81.3256 42.3117C80.3706 40.3714 78.0236 39.5727 76.0834 40.5277C74.1432 41.4827 73.3445 43.8297 74.2994 45.7699C75.2544 47.7101 77.6014 48.5088 79.5416 47.5539Z" fill="#0085E5"/>
<path d="M78.3818 40.0993L79.5492 35.2451" stroke="#263238" stroke-width="0.26" stroke-miterlimit="10" stroke-linecap="round" stroke-linejoin="round"/>
<path d="M59.9902 82.5233L65.4736 62.9453" stroke="#263238" stroke-width="0.26" stroke-miterlimit="10" stroke-linecap="round" stroke-linejoin="round"/>
<path d="M74.6045 55.7178L94.7727 59.1394" stroke="#263238" stroke-width="0.26" stroke-miterlimit="10" stroke-linecap="round" stroke-linejoin="round"/>
<path d="M61.958 52.0201L71.6638 45.0391" stroke="#263238" stroke-width="0.26" stroke-miterlimit="10" stroke-linecap="round" stroke-linejoin="round"/>
<path d="M62.4756 53.4534L72.4076 46.3008" stroke="#263238" stroke-width="0.26" stroke-miterlimit="10" stroke-linecap="round" stroke-linejoin="round"/>
<path d="M63.5957 55.7908C64.7085 55.8792 65.9877 55.0914 66.6221 54.184C67.2565 53.2792 67.7609 52.234 68.6735 51.6022C69.2637 51.194 69.9735 50.9964 70.6651 50.7858C71.3541 50.5778 72.0587 50.3386 72.6021 49.868C73.1455 49.3974 73.4913 48.6408 73.2729 47.9648" stroke="#263238" stroke-width="0.26" stroke-miterlimit="10" stroke-linecap="round" stroke-linejoin="round"/>
<path d="M64.2666 56.7108C65.3794 56.8798 66.4012 56.1024 67.098 55.2288C67.7948 54.3552 68.3356 53.3256 69.2482 52.6704C69.9658 52.153 70.7822 51.7136 71.6532 51.5524C73.13 51.2794 74.1102 50.3902 74.1596 49.5088" stroke="#263238" stroke-width="0.26" stroke-miterlimit="10" stroke-linecap="round" stroke-linejoin="round"/>
<path d="M81.3582 45.6011C82.244 43.6345 81.3679 41.3222 79.4013 40.4364C77.4348 39.5507 75.1225 40.4268 74.2367 42.3933C73.3509 44.3599 74.227 46.6722 76.1936 47.558C78.1601 48.4438 80.4724 47.5676 81.3582 45.6011Z" stroke="#263238" stroke-width="0.26" stroke-miterlimit="10" stroke-linecap="round" stroke-linejoin="round"/>
<path d="M66.0243 44.2516L78.4705 35.3882C79.0789 34.9566 79.9265 35.1386 80.3061 35.7808C80.3061 35.7808 95.4199 58.8688 94.8349 59.2354L60.0235 82.6536C59.4281 83.028 45.5441 60.2312 45.5441 60.2312C45.1853 59.6592 45.3361 58.9078 45.8873 58.5152L52.4809 53.7364" stroke="#263238" stroke-width="0.26" stroke-miterlimit="10" stroke-linecap="round" stroke-linejoin="round"/>
<path d="M72.7656 63.1638L76.4888 47.7354" stroke="#263238" stroke-width="0.26" stroke-miterlimit="10" stroke-linecap="round" stroke-linejoin="round"/>
<path d="M45.3516 59.7627L65.5302 62.9321" stroke="#263238" stroke-width="0.26" stroke-miterlimit="10" stroke-linecap="round" stroke-linejoin="round"/>
<path d="M58.21 58.5407C58.21 58.5407 61.3508 58.9229 62.8848 54.8799C62.8848 54.8799 64.7022 57.5709 66.1946 58.5771C66.1946 58.5771 66.829 58.4107 68.2252 58.7487C69.6214 59.0867 71.5636 59.0529 71.5636 59.0529C71.5636 59.0529 71.2178 60.2671 70.4456 60.2905C69.6734 60.3139 69.0078 59.9447 69.0078 59.9447L68.8362 60.3685L73.9972 64.2321C73.9972 64.2321 74.473 64.8457 73.8542 65.3553L70.209 62.8359L70.0374 63.2597C70.0374 63.2597 72.2162 66.1665 72.2786 66.6241C72.341 67.0817 72.237 67.1155 71.886 67.1441C71.535 67.1727 71.0176 66.6397 71.0176 66.6397L69.0702 63.8421L68.7322 64.1489C68.7322 64.1489 70.1258 66.9985 69.9464 67.6147C69.767 68.2309 68.974 67.3781 68.974 67.3781L67.8898 64.8379C67.8898 64.8379 68.3162 66.8425 67.6792 67.1129C67.0448 67.3833 66.998 66.5747 66.829 64.6637L65.1442 62.3627C65.139 62.3653 60.2276 60.1293 58.21 58.5407Z" fill="#FFA000"/>
<path opacity="0.2" d="M59.9776 58.1816L65.4532 61.9464L66.8234 64.666L65.3778 62.5912L58.1836 58.7926L59.9776 58.1816Z" fill="black"/>
<path d="M68.3933 33.8459C66.0065 35.1563 65.6711 35.5437 64.4283 36.6357C62.8683 38.0033 61.4279 39.7479 61.2719 41.8149C61.2459 42.1711 61.2615 42.5455 61.4357 42.8575C61.7633 43.4425 62.5641 43.6193 63.2089 43.4347C63.8537 43.2501 64.3789 42.7925 64.8807 42.3479C64.7429 42.4701 64.6623 42.8861 64.5453 43.0603C64.3945 43.2891 64.2073 43.4893 63.9941 43.6635C63.5261 44.0483 62.9489 44.2797 62.3717 44.4435C60.9443 44.8491 59.3765 44.8257 57.8997 45.1195C56.3501 45.4289 55.2763 46.2349 54.2753 47.4387C53.5681 48.2915 54.8083 50.4937 55.1541 51.5441C55.9809 54.0583 58.0895 56.3203 59.9719 58.1819L58.2039 58.5381C58.2039 58.5381 53.4355 56.0135 52.4761 53.7333C51.5167 51.4531 50.9889 49.5187 50.1699 48.4475C50.1699 48.4475 50.8641 46.8147 53.9165 44.1289C56.9689 41.4431 58.5471 38.7963 59.7301 37.1843C61.3265 35.0081 65.0081 32.9593 66.4927 32.8215C66.4901 32.8163 67.1245 32.9229 68.3933 33.8459Z" fill="#0085E5"/>
<path opacity="0.6" d="M68.4301 33.8278C66.0433 35.1382 65.6741 35.5438 64.4312 36.6332C62.8713 38.0008 61.4309 39.7454 61.2748 41.8124C61.2489 42.1686 61.2645 42.543 61.4387 42.855C61.7663 43.44 62.567 43.6168 63.2118 43.4322C63.8566 43.2476 64.3819 42.79 64.8837 42.3454C64.7459 42.4676 64.6652 42.8836 64.5482 43.0578C64.3974 43.2866 64.2103 43.4868 63.9971 43.661C63.5291 44.0458 62.9518 44.2772 62.3746 44.441C60.9472 44.8466 59.3794 44.8232 57.9027 45.117C56.3531 45.4264 55.2792 46.2324 54.2782 47.4362C53.571 48.289 54.8113 50.4912 55.1571 51.5416C55.9839 54.0558 58.0925 56.3178 59.9749 58.1794L58.2069 58.5356C58.2069 58.5356 53.4385 56.011 52.4791 53.7308C51.5197 51.4506 50.9919 49.5162 50.1729 48.445C50.1729 48.445 50.8671 46.8122 53.9195 44.1264C56.9719 41.4406 58.5501 38.7938 59.7331 37.1818C61.3295 35.0056 65.1905 32.9698 66.6751 32.832C66.6751 32.8372 67.5019 33.196 68.4301 33.8278Z" fill="white"/>
<path d="M60.6143 50.0048C62.7697 48.5332 66.1991 45.5224 66.8023 41.8252" stroke="#263238" stroke-width="0.26" stroke-miterlimit="10" stroke-linecap="round" stroke-linejoin="round"/>
<path d="M66.9013 59.0368C66.1837 58.5844 63.8047 57.0972 62.5827 53.7848C61.4673 50.761 60.2921 49.0034 57.3203 47.875" stroke="#263238" stroke-width="0.26" stroke-miterlimit="10" stroke-linecap="round" stroke-linejoin="round"/>
<path d="M53.2949 53.3203C54.2049 54.7789 55.5387 55.9775 57.1013 56.6977" stroke="#263238" stroke-width="0.26" stroke-miterlimit="10" stroke-linecap="round" stroke-linejoin="round"/>
<path d="M52.3877 51.3594C52.5411 51.8456 52.7413 52.3162 52.9779 52.766" stroke="#263238" stroke-width="0.26" stroke-miterlimit="10" stroke-linecap="round" stroke-linejoin="round"/>
<path d="M58.209 58.5411C58.209 58.5411 61.6618 58.6321 62.954 54.7217" stroke="#263238" stroke-width="0.26" stroke-miterlimit="10" stroke-linecap="round" stroke-linejoin="round"/>
<path d="M64.2461 34.6805C64.7817 34.4621 65.3693 34.2801 66.0141 34.1553" stroke="#263238" stroke-width="0.26" stroke-miterlimit="10" stroke-linecap="round" stroke-linejoin="round"/>
<path d="M59.6211 38.8798C59.6211 38.8798 60.7495 36.402 63.6199 34.9668" stroke="#263238" stroke-width="0.26" stroke-miterlimit="10" stroke-linecap="round" stroke-linejoin="round"/>
<path d="M57.2783 47.1895C58.2273 47.4313 59.0567 48.1073 59.4805 48.9887" stroke="#263238" stroke-width="0.26" stroke-miterlimit="10" stroke-linecap="round" stroke-linejoin="round"/>
<path d="M66.3918 58.6731C67.0782 58.3585 67.9388 58.6159 68.3626 58.7459C68.9242 58.9201 71.1394 59.2321 71.558 59.0501C71.9766 58.8681 71.1914 60.0043 70.7078 60.2279C70.2242 60.4515 69.0022 59.9445 69.0022 59.9445L68.8306 60.3683C68.8306 60.3683 73.8174 63.8549 74.093 64.3489C74.3686 64.8429 74.184 65.3187 73.8486 65.3577C73.5158 65.3941 70.2034 62.8383 70.2034 62.8383L70.0318 63.2621C70.0318 63.2621 72.6344 66.5927 72.3692 66.9437C72.104 67.2947 71.5632 67.1517 71.142 66.7071C70.7208 66.2625 69.0646 63.8445 69.0646 63.8445L68.7266 64.1513C68.7266 64.1513 70.1228 67.2765 69.9408 67.6171C69.7588 67.9577 69.322 67.8381 69.0672 67.5105C68.8098 67.1829 67.7828 64.6271 67.7828 64.6271C67.7828 64.6271 68.0558 66.7773 67.8972 67.0165C67.7386 67.2531 67.3304 67.2479 67.1666 66.9957C67.0028 66.7435 66.8234 64.6661 66.8234 64.6661L65.1386 62.3651C61.613 60.9689 55.2924 56.7257 55.2924 56.7257C51.9592 54.0451 51.6498 51.8663 51.2572 50.4337C50.9348 49.2585 50.2744 48.5825 50.2744 48.5825C51.1766 45.1011 55.3366 44.3913 58.5372 38.8663C61.7378 33.3413 66.735 32.8447 66.735 32.8447" stroke="#263238" stroke-width="0.26" stroke-miterlimit="10" stroke-linecap="round" stroke-linejoin="round"/>
<path d="M22.9347 83.125L17.1055 87.9454" stroke="#263238" stroke-width="0.26" stroke-miterlimit="10" stroke-linecap="round" stroke-linejoin="round"/>
<path d="M38.1447 70.5459L26.4629 80.2049" stroke="#263238" stroke-width="0.26" stroke-miterlimit="10" stroke-linecap="round" stroke-linejoin="round"/>
<path d="M22.8254 66.2559L20.5244 68.1591" stroke="#263238" stroke-width="0.26" stroke-miterlimit="10" stroke-linecap="round" stroke-linejoin="round"/>
<path d="M33.7325 57.2363L24.6299 64.7633" stroke="#263238" stroke-width="0.26" stroke-miterlimit="10" stroke-linecap="round" stroke-linejoin="round"/>
<path d="M28.025 63.7803L22.4766 68.3693" stroke="#263238" stroke-width="0.26" stroke-miterlimit="10" stroke-linecap="round" stroke-linejoin="round"/>
<path d="M57.1847 86.6133L49.9619 92.5855" stroke="#263238" stroke-width="0.26" stroke-miterlimit="10" stroke-linecap="round" stroke-linejoin="round"/>
<path d="M61.0458 83.4209L58.1729 85.7947" stroke="#263238" stroke-width="0.26" stroke-miterlimit="10" stroke-linecap="round" stroke-linejoin="round"/>
<path d="M59.9453 86.0391L57.0723 88.4155" stroke="#263238" stroke-width="0.26" stroke-miterlimit="10" stroke-linecap="round" stroke-linejoin="round"/>
<path d="M92.1853 34.1094L90.4199 35.5706" stroke="#263238" stroke-width="0.26" stroke-miterlimit="10" stroke-linecap="round" stroke-linejoin="round"/>
<path d="M99.3567 28.1787L93.0283 33.4125" stroke="#263238" stroke-width="0.26" stroke-miterlimit="10" stroke-linecap="round" stroke-linejoin="round"/>
<path d="M87.1592 64.2888H112.244C112.244 64.2888 111.994 63.098 110.926 62.721C109.86 62.344 109.108 62.721 109.108 61.4678C109.108 60.2146 108.794 59.5854 107.603 59.3358C107.603 59.3358 106.852 56.6396 104.467 56.3874C102.083 56.1378 100.391 56.4498 100.014 57.8928C99.6366 59.3358 99.2622 60.0872 98.5706 60.0248C97.8816 59.9624 96.7532 59.2734 96.1864 60.589C95.6222 61.9072 95.6222 62.6586 94.7434 62.409C93.8646 62.1594 92.1096 61.0284 90.729 63.2878C90.7342 63.2878 88.4748 62.3466 87.1592 64.2888Z" fill="white"/>
<path d="M43.8748 37.1443H18.79C18.79 37.1443 19.0396 35.9535 20.1082 35.5765C21.1742 35.1995 21.9256 35.5765 21.9256 34.3233C21.9256 33.0701 22.2402 32.4409 23.431 32.1913C23.431 32.1913 24.1824 29.4951 26.5666 29.2429C28.9508 28.9933 30.6434 29.3053 31.0204 30.7483C31.3974 32.1913 31.7718 32.9427 32.4634 32.8803C33.1524 32.8179 34.2808 32.1289 34.8476 33.4445C35.4118 34.7627 35.4118 35.5141 36.2906 35.2619C37.1694 35.0123 38.9244 33.8813 40.305 36.1407C40.2998 36.1407 42.5592 35.1995 43.8748 37.1443Z" fill="white"/>
</svg>
