<svg width="130" height="130" viewBox="0 0 130 130" fill="none" xmlns="http://www.w3.org/2000/svg">
<path d="M108.847 88.2652C108.847 88.2652 109.474 87.5034 109.508 87.4514C109.892 86.8352 110.275 85.4208 109.749 84.7916C109.396 84.3938 108.787 84.3574 108.392 84.711C108.366 84.7344 108.34 84.7604 108.317 84.7864C107.919 85.1972 107.872 85.907 107.958 86.4426C108.052 87.0744 108.845 88.2652 108.847 88.2652Z" fill="#0085E5"/>
<path d="M115.036 85.3367C115.007 85.3159 114.979 85.2977 114.95 85.2769C114.246 84.8661 112.914 85.4875 112.371 85.9737C112.324 86.0179 111.679 86.7615 111.679 86.7615L111.692 86.7667C111.484 86.8629 111.261 86.9695 111.011 87.0891C110.569 87.3179 110.057 87.5753 109.529 87.8925C108.952 88.2305 108.398 88.6023 107.865 89.0053C107.267 89.4525 106.711 89.9543 106.204 90.4977L106.583 89.6475C106.794 88.9507 106.789 87.4817 106.118 87.0189C105.673 86.7277 105.078 86.8525 104.787 87.2971C104.766 87.3257 104.75 87.3595 104.732 87.3907C104.457 87.8951 104.602 88.5893 104.823 89.0859C105.075 89.6449 106.071 90.5263 106.149 90.5965C105.645 91.1633 105.177 91.7691 104.753 92.3983C104.503 92.7649 104.264 93.1419 104.03 93.5215L104.202 93.1393C104.412 92.4425 104.41 90.9735 103.739 90.5107C103.294 90.2195 102.694 90.3469 102.403 90.7941L102.353 90.8825C102.078 91.3869 102.221 92.0811 102.442 92.5777C102.663 93.0743 103.502 93.8491 103.726 94.0467L103.456 94.4887C103.034 95.1959 102.613 95.9005 102.179 96.5817C102.026 96.8209 101.867 97.0523 101.708 97.2837L101.854 96.9561C102.065 96.2567 102.059 94.7877 101.389 94.3249C100.944 94.0337 100.343 94.1611 100.052 94.6083C100.037 94.6369 100.018 94.6681 100.003 94.6967C99.7245 95.2037 99.8701 95.8953 100.094 96.3945C100.317 96.8937 101.071 97.5879 101.337 97.8271C101.168 98.0611 100.999 98.2925 100.824 98.5083C100.7 98.6565 100.593 98.8047 100.463 98.9425C100.333 99.0803 100.208 99.2207 100.086 99.3611C99.8363 99.6185 99.5789 99.8863 99.3319 100.131C99.1603 100.302 98.9913 100.463 98.8223 100.625C98.9757 100.385 99.2721 99.9175 99.2903 99.8759C99.5425 99.2883 99.6439 98.6461 99.5789 98.0091C99.6075 97.9441 99.6335 97.8791 99.6517 97.8089C99.8077 97.2993 99.5217 96.7611 99.0121 96.6025C98.9783 96.5947 98.9471 96.5843 98.9107 96.5765C98.1047 96.4465 97.0855 97.5047 96.7527 98.1521C96.7345 98.1911 96.5655 98.6279 96.4667 98.9061C96.5031 98.7345 96.5369 98.5681 96.5681 98.3887C96.6331 98.0377 96.6903 97.6841 96.7527 97.3045C96.7787 97.1199 96.7995 96.9327 96.8255 96.7481C96.8515 96.5635 96.8593 96.3607 96.8775 96.1631C96.9087 95.7133 96.9191 95.2531 96.9191 94.7877C97.2311 94.8475 98.3231 95.0347 98.8535 94.9099C99.3839 94.7851 100.024 94.4783 100.252 93.9505C100.484 93.4721 100.281 92.8923 99.8025 92.6609C99.7713 92.6479 99.7401 92.6323 99.7089 92.6219C98.9315 92.3723 97.7615 93.2615 97.3377 93.8543C97.3195 93.8933 97.0517 94.3457 96.9165 94.6005C96.9165 94.3223 96.9139 94.0441 96.9009 93.7633C96.8697 92.9495 96.8125 92.1279 96.7579 91.3063L96.7111 90.5523C96.8203 90.5731 98.1203 90.8279 98.7157 90.6875C99.2461 90.5627 99.8831 90.2507 100.117 89.7255C100.341 89.2419 100.13 88.6699 99.6439 88.4463C99.5789 88.4151 99.5087 88.3917 99.4385 88.3787C98.6611 88.1291 97.4937 89.0183 97.0673 89.6085C97.0439 89.6605 96.6669 90.3131 96.5785 90.4847C96.5473 89.9361 96.5187 89.3823 96.5161 88.8389C96.5031 88.1005 96.5447 87.3673 96.6305 86.6367C96.6747 86.6575 98.0345 86.9253 98.6455 86.7719C99.1759 86.6471 99.8155 86.3403 100.044 85.8125C100.273 85.3315 100.07 84.7569 99.5919 84.5255C99.5607 84.5125 99.5295 84.4969 99.4983 84.4865C98.7209 84.2369 97.5535 85.1261 97.1297 85.7163C97.1115 85.7579 96.8177 86.2545 96.6877 86.4989L96.6487 86.4807C96.7527 85.7501 96.9217 85.0325 97.1531 84.3331C97.2805 83.9457 97.4183 83.5817 97.5613 83.2307C97.8083 83.3087 98.9419 83.6415 99.5061 83.5739C100.07 83.5037 100.715 83.2749 101.004 82.7757C101.285 82.3207 101.147 81.7253 100.692 81.4419C100.663 81.4211 100.637 81.4081 100.606 81.3925C99.8597 81.0597 98.6013 81.8163 98.1151 82.3545C98.0995 82.3909 97.8525 82.7159 97.6835 82.9551L97.8915 82.4897C98.1437 81.9255 98.4115 81.4263 98.6507 80.9895C98.7885 80.7399 98.9185 80.5163 99.0433 80.3109C99.3241 80.2563 100.458 80.0353 100.915 79.7181C101.373 79.4009 101.849 78.8965 101.88 78.3219C101.924 77.7915 101.532 77.3287 101.004 77.2819C100.965 77.2793 100.931 77.2793 100.892 77.2793C100.078 77.3261 99.2955 78.5715 99.1239 79.2839C99.0979 79.3411 98.9705 80.3161 98.9965 80.3291C98.8717 80.5267 98.7417 80.7399 98.6065 80.9739C98.3569 81.4081 98.0787 81.9047 97.8109 82.4611C97.7121 82.6665 97.6159 82.8745 97.5223 83.0851C97.3455 83.4855 97.1843 83.8937 97.0387 84.3071C96.7839 85.0091 96.5967 85.7319 96.4719 86.4703L96.4615 86.4963C96.4303 86.2571 96.3107 85.6019 96.2951 85.5525C96.0845 84.8557 95.2707 83.6285 94.4517 83.6129C93.9161 83.6181 93.4923 84.0549 93.4949 84.5879C93.4923 84.6217 93.4949 84.6555 93.5001 84.6893C93.5729 85.2405 94.0695 85.7501 94.5297 86.0413C95.0575 86.3767 96.3653 86.5535 96.4693 86.5717C96.3627 87.3231 96.3055 88.0823 96.3003 88.8415C96.2951 89.2861 96.3029 89.7307 96.3133 90.1805C96.2795 89.9751 96.2431 89.7931 96.2353 89.7697C96.0247 89.0729 95.2109 87.8483 94.3919 87.8327C93.8563 87.8379 93.4299 88.2721 93.4351 88.8051C93.4351 88.8415 93.4377 88.8779 93.4403 88.9117C93.4871 89.4863 93.9811 89.9777 94.4491 90.2767C94.9197 90.5757 96.0351 90.7525 96.3367 90.7837C96.3445 90.9553 96.3497 91.1269 96.3575 91.2985C96.3913 92.1201 96.4355 92.9443 96.4459 93.7477C96.4537 94.0363 96.4459 94.3145 96.4433 94.5927C96.4095 94.4107 96.3809 94.2599 96.3809 94.2261C96.1703 93.5293 95.3565 92.3047 94.5375 92.2891C94.0045 92.2891 93.5755 92.7181 93.5781 93.2511C93.5781 93.2953 93.5781 93.3395 93.5859 93.3837C93.6327 93.9583 94.1241 94.4523 94.5947 94.7487C95.0653 95.0451 96.0819 95.2115 96.4225 95.2583C96.4095 95.5443 96.3965 95.8329 96.3783 96.1137C96.3575 96.3035 96.3497 96.4881 96.3159 96.6753C96.2821 96.8625 96.2613 97.0471 96.2327 97.2317C96.1651 97.5853 96.1001 97.9493 96.0273 98.2899C95.9779 98.5291 95.9259 98.7579 95.8765 98.9815C95.8739 98.6981 95.8609 98.1469 95.8531 98.1001C95.7491 97.3773 95.1277 96.0461 94.3269 95.9083C93.7991 95.8381 93.3129 96.2099 93.2427 96.7377C93.2375 96.7689 93.2349 96.8001 93.2349 96.8313C93.1959 97.4033 93.6197 97.9727 94.0279 98.3315C94.4803 98.7241 95.7023 99.0985 95.8531 99.1479C95.7673 99.5223 95.6789 99.8915 95.5931 100.235C95.2941 101.425 94.9977 102.406 94.7819 103.089C94.7559 103.175 94.7299 103.258 94.7039 103.331L95.1953 103.56C95.2317 103.464 95.2525 103.355 95.2889 103.235C95.4917 102.538 95.7673 101.54 96.0429 100.331C96.1339 99.9487 96.2171 99.5379 96.3055 99.1167C96.7163 99.1323 97.1245 99.1245 97.5353 99.0959C97.7329 99.6783 98.4895 100.599 98.5883 100.718C98.3101 100.983 98.0345 101.241 97.7719 101.477C96.8645 102.309 96.0871 102.967 95.5203 103.414C95.4319 103.479 95.3539 103.544 95.2837 103.604L95.8557 103.875C95.8661 103.867 95.8765 103.856 95.8869 103.849C96.4355 103.378 97.2207 102.699 98.1203 101.844C98.4037 101.574 98.7105 101.285 99.0095 100.973C99.1369 101.067 100.177 101.81 100.765 101.932C101.3 102.039 102.007 102.029 102.439 101.644C102.847 101.306 102.907 100.695 102.566 100.284C102.548 100.258 102.522 100.232 102.499 100.209C101.898 99.6549 100.463 99.9747 99.8285 100.331C99.7895 100.354 99.4099 100.627 99.1733 100.804C99.2981 100.679 99.4125 100.573 99.5451 100.432C99.7947 100.175 100.037 99.9097 100.299 99.6263C100.419 99.4859 100.544 99.3455 100.666 99.1999C100.788 99.0543 100.908 98.8983 101.03 98.7449C101.305 98.3835 101.571 98.0065 101.825 97.6191C102.052 97.8349 102.86 98.6019 103.372 98.7865C103.885 98.9711 104.597 99.0777 105.078 98.7631C105.538 98.4953 105.692 97.9051 105.424 97.4475C105.406 97.4189 105.387 97.3903 105.367 97.3617C104.86 96.7247 103.393 96.8157 102.712 97.0809C102.668 97.0939 102.202 97.3331 101.948 97.4709C102.098 97.2369 102.252 97.0055 102.397 96.7637C102.821 96.0695 103.227 95.3493 103.632 94.6343C103.76 94.4133 103.885 94.1975 104.012 93.9817C104.09 94.0597 105.034 94.9879 105.608 95.1985C106.118 95.3857 106.836 95.4871 107.314 95.1751C107.774 94.9047 107.928 94.3119 107.657 93.8491C107.642 93.8231 107.623 93.7945 107.605 93.7685C107.093 93.1315 105.632 93.2225 104.948 93.4877C104.896 93.5085 104.23 93.8439 104.061 93.9531C104.34 93.4747 104.62 92.9989 104.919 92.5439C105.317 91.9225 105.757 91.3245 106.23 90.7577C106.266 90.7941 107.249 91.7691 107.837 91.9849C108.346 92.1695 109.048 92.2683 109.542 91.9589C110 91.6859 110.148 91.0905 109.872 90.6355C109.857 90.6043 109.839 90.5757 109.815 90.5497C109.308 89.9127 107.842 90.0037 107.158 90.2689C107.114 90.2871 106.602 90.5497 106.36 90.6797L106.331 90.6433C106.823 90.0895 107.361 89.5825 107.946 89.1249C108.263 88.8701 108.583 88.6439 108.895 88.4281C109.059 88.6309 109.818 89.5357 110.32 89.7853C110.821 90.0349 111.49 90.1987 112.01 89.9413C112.496 89.7203 112.706 89.1509 112.488 88.6673C112.472 88.6361 112.454 88.6049 112.439 88.5737C112.002 87.8821 110.535 87.8197 109.831 88.0017C109.792 88.0121 109.423 88.1577 109.139 88.2617C109.282 88.1681 109.428 88.0693 109.568 87.9835C110.088 87.6533 110.587 87.3829 111.027 87.1489C111.284 87.0163 111.513 86.9019 111.734 86.7875C111.997 86.9045 113.063 87.3387 113.622 87.3283C114.178 87.3179 114.854 87.1541 115.2 86.6783C115.53 86.2727 115.455 85.6669 115.036 85.3367Z" fill="#0085E5"/>
<path d="M95.7647 82.0613C96.1937 82.5319 97.5145 83.0883 97.5145 83.0883C97.5145 83.0883 97.6107 82.1159 97.6159 82.0457C97.6029 81.3177 97.1375 79.9215 96.3549 79.6901C95.8375 79.5549 95.3071 79.8617 95.1719 80.3791C95.1641 80.4103 95.1563 80.4441 95.1511 80.4753C95.0445 81.0473 95.3981 81.6583 95.7647 82.0613Z" fill="#0085E5"/>
<path opacity="0.5" d="M115.036 85.3367C115.007 85.3159 114.979 85.2977 114.95 85.2769C114.246 84.8661 112.914 85.4875 112.371 85.9737C112.324 86.0179 111.679 86.7615 111.679 86.7615L111.692 86.7667C111.484 86.8629 111.261 86.9695 111.011 87.0891C110.569 87.3179 110.057 87.5753 109.529 87.8925C108.952 88.2305 108.398 88.6023 107.865 89.0053C107.267 89.4525 106.711 89.9543 106.204 90.4977L106.583 89.6475C106.794 88.9507 106.789 87.4817 106.118 87.0189C105.673 86.7277 105.078 86.8525 104.787 87.2971C104.766 87.3257 104.75 87.3595 104.732 87.3907C104.457 87.8951 104.602 88.5893 104.823 89.0859C105.075 89.6449 106.071 90.5263 106.149 90.5965C105.645 91.1633 105.177 91.7691 104.753 92.3983C104.503 92.7649 104.264 93.1419 104.03 93.5215L104.202 93.1393C104.412 92.4425 104.41 90.9735 103.739 90.5107C103.294 90.2195 102.694 90.3469 102.403 90.7941L102.353 90.8825C102.078 91.3869 102.221 92.0811 102.442 92.5777C102.663 93.0743 103.502 93.8491 103.726 94.0467L103.456 94.4887C103.034 95.1959 102.613 95.9005 102.179 96.5817C102.026 96.8209 101.867 97.0523 101.708 97.2837L101.854 96.9561C102.065 96.2567 102.059 94.7877 101.389 94.3249C100.944 94.0337 100.343 94.1611 100.052 94.6083C100.037 94.6369 100.018 94.6681 100.003 94.6967C99.7245 95.2037 99.8701 95.8953 100.094 96.3945C100.317 96.8937 101.071 97.5879 101.337 97.8271C101.168 98.0611 100.999 98.2925 100.824 98.5083C100.7 98.6565 100.593 98.8047 100.463 98.9425C100.333 99.0803 100.208 99.2207 100.086 99.3611C99.8363 99.6185 99.5789 99.8863 99.3319 100.131C99.1603 100.302 98.9913 100.463 98.8223 100.625C98.9757 100.385 99.2721 99.9175 99.2903 99.8759C99.5425 99.2883 99.6439 98.6461 99.5789 98.0091C99.6075 97.9441 99.6335 97.8791 99.6517 97.8089C99.8077 97.2993 99.5217 96.7611 99.0121 96.6025C98.9783 96.5947 98.9471 96.5843 98.9107 96.5765C98.1047 96.4465 97.0855 97.5047 96.7527 98.1521C96.7345 98.1911 96.5655 98.6279 96.4667 98.9061C96.5031 98.7345 96.5369 98.5681 96.5681 98.3887C96.6331 98.0377 96.6903 97.6841 96.7527 97.3045C96.7787 97.1199 96.7995 96.9327 96.8255 96.7481C96.8515 96.5635 96.8593 96.3607 96.8775 96.1631C96.9087 95.7133 96.9191 95.2531 96.9191 94.7877C97.2311 94.8475 98.3231 95.0347 98.8535 94.9099C99.3839 94.7851 100.024 94.4783 100.252 93.9505C100.484 93.4721 100.281 92.8923 99.8025 92.6609C99.7713 92.6479 99.7401 92.6323 99.7089 92.6219C98.9315 92.3723 97.7615 93.2615 97.3377 93.8543C97.3195 93.8933 97.0517 94.3457 96.9165 94.6005C96.9165 94.3223 96.9139 94.0441 96.9009 93.7633C96.8697 92.9495 96.8125 92.1279 96.7579 91.3063L96.7111 90.5523C96.8203 90.5731 98.1203 90.8279 98.7157 90.6875C99.2461 90.5627 99.8831 90.2507 100.117 89.7255C100.341 89.2419 100.13 88.6699 99.6439 88.4463C99.5789 88.4151 99.5087 88.3917 99.4385 88.3787C98.6611 88.1291 97.4937 89.0183 97.0673 89.6085C97.0439 89.6605 96.6669 90.3131 96.5785 90.4847C96.5473 89.9361 96.5187 89.3823 96.5161 88.8389C96.5031 88.1005 96.5447 87.3673 96.6305 86.6367C96.6747 86.6575 98.0345 86.9253 98.6455 86.7719C99.1759 86.6471 99.8155 86.3403 100.044 85.8125C100.273 85.3315 100.07 84.7569 99.5919 84.5255C99.5607 84.5125 99.5295 84.4969 99.4983 84.4865C98.7209 84.2369 97.5535 85.1261 97.1297 85.7163C97.1115 85.7579 96.8177 86.2545 96.6877 86.4989L96.6487 86.4807C96.7527 85.7501 96.9217 85.0325 97.1531 84.3331C97.2805 83.9457 97.4183 83.5817 97.5613 83.2307C97.8083 83.3087 98.9419 83.6415 99.5061 83.5739C100.07 83.5037 100.715 83.2749 101.004 82.7757C101.285 82.3207 101.147 81.7253 100.692 81.4419C100.663 81.4211 100.637 81.4081 100.606 81.3925C99.8597 81.0597 98.6013 81.8163 98.1151 82.3545C98.0995 82.3909 97.8525 82.7159 97.6835 82.9551L97.8915 82.4897C98.1437 81.9255 98.4115 81.4263 98.6507 80.9895C98.7885 80.7399 98.9185 80.5163 99.0433 80.3109C99.3241 80.2563 100.458 80.0353 100.915 79.7181C101.373 79.4009 101.849 78.8965 101.88 78.3219C101.924 77.7915 101.532 77.3287 101.004 77.2819C100.965 77.2793 100.931 77.2793 100.892 77.2793C100.078 77.3261 99.2955 78.5715 99.1239 79.2839C99.0979 79.3411 98.9705 80.3161 98.9965 80.3291C98.8717 80.5267 98.7417 80.7399 98.6065 80.9739C98.3569 81.4081 98.0787 81.9047 97.8109 82.4611C97.7121 82.6665 97.6159 82.8745 97.5223 83.0851C97.3455 83.4855 97.1843 83.8937 97.0387 84.3071C96.7839 85.0091 96.5967 85.7319 96.4719 86.4703L96.4615 86.4963C96.4303 86.2571 96.3107 85.6019 96.2951 85.5525C96.0845 84.8557 95.2707 83.6285 94.4517 83.6129C93.9161 83.6181 93.4923 84.0549 93.4949 84.5879C93.4923 84.6217 93.4949 84.6555 93.5001 84.6893C93.5729 85.2405 94.0695 85.7501 94.5297 86.0413C95.0575 86.3767 96.3653 86.5535 96.4693 86.5717C96.3627 87.3231 96.3055 88.0823 96.3003 88.8415C96.2951 89.2861 96.3029 89.7307 96.3133 90.1805C96.2795 89.9751 96.2431 89.7931 96.2353 89.7697C96.0247 89.0729 95.2109 87.8483 94.3919 87.8327C93.8563 87.8379 93.4299 88.2721 93.4351 88.8051C93.4351 88.8415 93.4377 88.8779 93.4403 88.9117C93.4871 89.4863 93.9811 89.9777 94.4491 90.2767C94.9197 90.5757 96.0351 90.7525 96.3367 90.7837C96.3445 90.9553 96.3497 91.1269 96.3575 91.2985C96.3913 92.1201 96.4355 92.9443 96.4459 93.7477C96.4537 94.0363 96.4459 94.3145 96.4433 94.5927C96.4095 94.4107 96.3809 94.2599 96.3809 94.2261C96.1703 93.5293 95.3565 92.3047 94.5375 92.2891C94.0045 92.2891 93.5755 92.7181 93.5781 93.2511C93.5781 93.2953 93.5781 93.3395 93.5859 93.3837C93.6327 93.9583 94.1241 94.4523 94.5947 94.7487C95.0653 95.0451 96.0819 95.2115 96.4225 95.2583C96.4095 95.5443 96.3965 95.8329 96.3783 96.1137C96.3575 96.3035 96.3497 96.4881 96.3159 96.6753C96.2821 96.8625 96.2613 97.0471 96.2327 97.2317C96.1651 97.5853 96.1001 97.9493 96.0273 98.2899C95.9779 98.5291 95.9259 98.7579 95.8765 98.9815C95.8739 98.6981 95.8609 98.1469 95.8531 98.1001C95.7491 97.3773 95.1277 96.0461 94.3269 95.9083C93.7991 95.8381 93.3129 96.2099 93.2427 96.7377C93.2375 96.7689 93.2349 96.8001 93.2349 96.8313C93.1959 97.4033 93.6197 97.9727 94.0279 98.3315C94.4803 98.7241 95.7023 99.0985 95.8531 99.1479C95.7673 99.5223 95.6789 99.8915 95.5931 100.235C95.2941 101.425 94.9977 102.406 94.7819 103.089C94.7559 103.175 94.7299 103.258 94.7039 103.331L95.1953 103.56C95.2317 103.464 95.2525 103.355 95.2889 103.235C95.4917 102.538 95.7673 101.54 96.0429 100.331C96.1339 99.9487 96.2171 99.5379 96.3055 99.1167C96.7163 99.1323 97.1245 99.1245 97.5353 99.0959C97.7329 99.6783 98.4895 100.599 98.5883 100.718C98.3101 100.983 98.0345 101.241 97.7719 101.477C96.8645 102.309 96.0871 102.967 95.5203 103.414C95.4319 103.479 95.3539 103.544 95.2837 103.604L95.8557 103.875C95.8661 103.867 95.8765 103.856 95.8869 103.849C96.4355 103.378 97.2207 102.699 98.1203 101.844C98.4037 101.574 98.7105 101.285 99.0095 100.973C99.1369 101.067 100.177 101.81 100.765 101.932C101.3 102.039 102.007 102.029 102.439 101.644C102.847 101.306 102.907 100.695 102.566 100.284C102.548 100.258 102.522 100.232 102.499 100.209C101.898 99.6549 100.463 99.9747 99.8285 100.331C99.7895 100.354 99.4099 100.627 99.1733 100.804C99.2981 100.679 99.4125 100.573 99.5451 100.432C99.7947 100.175 100.037 99.9097 100.299 99.6263C100.419 99.4859 100.544 99.3455 100.666 99.1999C100.788 99.0543 100.908 98.8983 101.03 98.7449C101.305 98.3835 101.571 98.0065 101.825 97.6191C102.052 97.8349 102.86 98.6019 103.372 98.7865C103.885 98.9711 104.597 99.0777 105.078 98.7631C105.538 98.4953 105.692 97.9051 105.424 97.4475C105.406 97.4189 105.387 97.3903 105.367 97.3617C104.86 96.7247 103.393 96.8157 102.712 97.0809C102.668 97.0939 102.202 97.3331 101.948 97.4709C102.098 97.2369 102.252 97.0055 102.397 96.7637C102.821 96.0695 103.227 95.3493 103.632 94.6343C103.76 94.4133 103.885 94.1975 104.012 93.9817C104.09 94.0597 105.034 94.9879 105.608 95.1985C106.118 95.3857 106.836 95.4871 107.314 95.1751C107.774 94.9047 107.928 94.3119 107.657 93.8491C107.642 93.8231 107.623 93.7945 107.605 93.7685C107.093 93.1315 105.632 93.2225 104.948 93.4877C104.896 93.5085 104.23 93.8439 104.061 93.9531C104.34 93.4747 104.62 92.9989 104.919 92.5439C105.317 91.9225 105.757 91.3245 106.23 90.7577C106.266 90.7941 107.249 91.7691 107.837 91.9849C108.346 92.1695 109.048 92.2683 109.542 91.9589C110 91.6859 110.148 91.0905 109.872 90.6355C109.857 90.6043 109.839 90.5757 109.815 90.5497C109.308 89.9127 107.842 90.0037 107.158 90.2689C107.114 90.2871 106.602 90.5497 106.36 90.6797L106.331 90.6433C106.823 90.0895 107.361 89.5825 107.946 89.1249C108.263 88.8701 108.583 88.6439 108.895 88.4281C109.059 88.6309 109.818 89.5357 110.32 89.7853C110.821 90.0349 111.49 90.1987 112.01 89.9413C112.496 89.7203 112.706 89.1509 112.488 88.6673C112.472 88.6361 112.454 88.6049 112.439 88.5737C112.002 87.8821 110.535 87.8197 109.831 88.0017C109.792 88.0121 109.423 88.1577 109.139 88.2617C109.282 88.1681 109.428 88.0693 109.568 87.9835C110.088 87.6533 110.587 87.3829 111.027 87.1489C111.284 87.0163 111.513 86.9019 111.734 86.7875C111.997 86.9045 113.063 87.3387 113.622 87.3283C114.178 87.3179 114.854 87.1541 115.2 86.6783C115.53 86.2727 115.455 85.6669 115.036 85.3367Z" fill="#0085E5"/>
<path opacity="0.3" d="M108.847 88.2652C108.847 88.2652 109.474 87.5034 109.508 87.4514C109.892 86.8352 110.275 85.4208 109.749 84.7916C109.396 84.3938 108.787 84.3574 108.392 84.711C108.366 84.7344 108.34 84.7604 108.317 84.7864C107.919 85.1972 107.872 85.907 107.958 86.4426C108.052 87.0744 108.845 88.2652 108.847 88.2652Z" fill="#0085E5"/>
<path opacity="0.3" d="M95.7647 82.0613C96.1937 82.5319 97.5145 83.0883 97.5145 83.0883C97.5145 83.0883 97.6107 82.1159 97.6159 82.0457C97.6029 81.3177 97.1375 79.9215 96.3549 79.6901C95.8375 79.5549 95.3071 79.8617 95.1719 80.3791C95.1641 80.4103 95.1563 80.4441 95.1511 80.4753C95.0445 81.0473 95.3981 81.6583 95.7647 82.0613Z" fill="#0085E5"/>
<path d="M33.8043 88.0594C33.8043 88.0594 33.7107 87.1468 33.7003 87.0896C33.5443 86.4292 32.8605 85.2488 32.0987 85.1812C31.6047 85.1526 31.1809 85.5322 31.1523 86.0262C31.1497 86.06 31.1497 86.0938 31.1523 86.1276C31.1627 86.6606 31.6021 87.1572 32.0129 87.4536C32.4965 87.8046 33.8017 88.0594 33.8043 88.0594Z" fill="#0085E5"/>
<path d="M35.9329 82.0428C35.9017 82.048 35.8705 82.0558 35.8367 82.061C35.1035 82.2586 34.6381 83.5456 34.6043 84.2242C34.6017 84.284 34.6719 85.1992 34.6719 85.1992L34.6849 85.194C34.6121 85.3942 34.5367 85.6126 34.4509 85.8544C34.3131 86.2964 34.1467 86.8034 34.0089 87.3624C33.8529 87.9656 33.7359 88.5766 33.6527 89.1928C33.5565 89.8818 33.5227 90.5786 33.5487 91.2728L33.2367 90.4642C32.9143 89.8688 31.9367 88.9068 31.1905 89.0472C30.7043 89.1512 30.3975 89.6244 30.5015 90.1106C30.5067 90.1418 30.5171 90.1756 30.5275 90.2094C30.6783 90.7216 31.2347 91.083 31.7079 91.2624C32.2435 91.4652 33.4785 91.382 33.5773 91.3768C33.6215 92.084 33.7125 92.7886 33.8529 93.4828C33.9309 93.8884 34.0245 94.294 34.1207 94.6996L33.9803 94.3356C33.6579 93.7402 32.6829 92.7782 31.9367 92.916C31.4505 93.02 31.1411 93.501 31.2451 93.9846L31.2711 94.0756C31.4219 94.5878 31.9757 94.9492 32.4489 95.1286C32.9221 95.308 33.9855 95.2612 34.2637 95.2456L34.3781 95.7136C34.5679 96.4572 34.7577 97.1982 34.9241 97.9314C34.9813 98.1914 35.0307 98.4462 35.0801 98.7036L34.9605 98.3916C34.6381 97.7936 33.6605 96.8316 32.9143 96.972C32.4281 97.076 32.1187 97.557 32.2227 98.0406C32.2305 98.0718 32.2409 98.103 32.2487 98.1316C32.4021 98.6464 32.9533 99.0052 33.4317 99.1872C33.9101 99.3666 34.8617 99.325 35.1945 99.3042C35.2387 99.5694 35.2803 99.832 35.3089 100.092C35.3245 100.271 35.3531 100.44 35.3609 100.617C35.3661 100.794 35.3791 100.968 35.3895 101.14C35.3947 101.475 35.4051 101.821 35.4025 102.146C35.4025 102.372 35.3973 102.591 35.3947 102.806C35.3375 102.546 35.2205 102.045 35.2049 102.006C34.9813 101.452 34.6225 100.963 34.1571 100.589C34.1337 100.526 34.1077 100.466 34.0713 100.409C33.8373 99.9698 33.2913 99.806 32.8545 100.04C32.8259 100.056 32.7973 100.071 32.7713 100.089C32.1551 100.537 32.1863 101.907 32.3969 102.552C32.4125 102.588 32.5893 102.988 32.7063 103.235C32.6179 103.1 32.5295 102.968 32.4307 102.827C32.2409 102.554 32.0459 102.284 31.8353 101.995C31.7287 101.857 31.6221 101.72 31.5155 101.582C31.4089 101.444 31.2815 101.304 31.1619 101.166C30.8863 100.849 30.5873 100.542 30.2805 100.235C30.5249 100.066 31.3647 99.468 31.6325 99.0338C31.8977 98.5996 32.1161 97.9756 31.9159 97.479C31.7521 97.011 31.2347 96.764 30.7667 96.9304C30.7381 96.9408 30.7069 96.9538 30.6783 96.9668C30.0023 97.3178 29.8229 98.675 29.9347 99.3458C29.9503 99.3822 30.0725 99.858 30.1505 100.115C29.9659 99.9334 29.7813 99.7514 29.5863 99.5746C29.0273 99.0598 28.4475 98.558 27.8677 98.0562L27.3399 97.5934C27.4257 97.5362 28.4475 96.842 28.7439 96.3558C29.0091 95.9216 29.2223 95.2976 29.0273 94.7984C28.8531 94.333 28.3357 94.0964 27.8703 94.2706C27.8079 94.2914 27.7455 94.3252 27.6883 94.3616C27.0123 94.7126 26.8355 96.0698 26.9447 96.738C26.9629 96.7874 27.1475 97.466 27.2047 97.635C26.8199 97.2944 26.4377 96.9512 26.0737 96.5976C25.5771 96.1218 25.1195 95.6122 24.6931 95.074C24.7373 95.0584 25.8059 94.3356 26.1049 93.8312C26.3701 93.397 26.5885 92.773 26.3883 92.2764C26.2219 91.8084 25.7071 91.5666 25.2391 91.7304C25.2105 91.7408 25.1793 91.7538 25.1507 91.7668C24.4747 92.1178 24.2979 93.475 24.4097 94.1406C24.4253 94.1822 24.5605 94.6996 24.6359 94.9466L24.5995 94.9622C24.1835 94.4136 23.8195 93.8312 23.5101 93.2176C23.3359 92.8796 23.1877 92.5468 23.0499 92.2244C23.2631 92.1126 24.2303 91.5822 24.5527 91.1636C24.8777 90.745 25.1481 90.1678 25.0077 89.6504C24.8933 89.1668 24.4045 88.8652 23.9209 88.9822C23.8897 88.9874 23.8611 88.9952 23.8325 89.0082C23.1227 89.2812 22.7977 90.6124 22.8315 91.2884C22.8445 91.3222 22.8965 91.6992 22.9459 91.967L22.7899 91.5198C22.5819 90.9816 22.4285 90.4798 22.2959 90.0326C22.2231 89.7778 22.1581 89.5464 22.1035 89.328C22.2517 89.107 22.8497 88.2126 22.9407 87.7004C23.0317 87.1908 23.0109 86.5434 22.6495 86.1456C22.3271 85.7686 21.7629 85.7244 21.3859 86.0416C21.3573 86.065 21.3365 86.0884 21.3105 86.1144C20.8061 86.6838 21.1181 88.0176 21.4743 88.6C21.4951 88.6546 22.0567 89.38 22.0801 89.3696C22.1295 89.5828 22.1841 89.809 22.2491 90.0508C22.3739 90.5006 22.5169 91.0102 22.7119 91.5536C22.7821 91.7538 22.8575 91.954 22.9329 92.1542C23.0811 92.5338 23.2449 92.9082 23.4243 93.2748C23.7233 93.904 24.0769 94.5046 24.4851 95.0688L24.4955 95.0922C24.3161 94.957 23.8039 94.606 23.7623 94.5852C23.1643 94.2654 21.8175 94.0002 21.2689 94.5306C20.9205 94.8868 20.9309 95.4562 21.2871 95.802C21.3079 95.8254 21.3313 95.8462 21.3573 95.8644C21.7681 96.179 22.4337 96.1842 22.9277 96.0724C23.4971 95.9424 24.4721 95.1962 24.5501 95.1364C24.9791 95.7006 25.4419 96.2362 25.9411 96.738C26.2323 97.0344 26.5313 97.3204 26.8355 97.6064C26.6769 97.4946 26.5339 97.3984 26.5131 97.388C25.9151 97.0682 24.5709 96.8056 24.0197 97.336C23.6713 97.6922 23.6791 98.2616 24.0327 98.6074C24.0587 98.6308 24.0821 98.6542 24.1081 98.675C24.5189 99.0208 25.1663 99.0182 25.6733 98.9038C26.1803 98.7894 27.0305 98.168 27.2489 97.9886C27.3685 98.0978 27.4855 98.207 27.6025 98.3136C28.1693 98.831 28.7413 99.3432 29.2821 99.8632C29.4771 100.048 29.6565 100.235 29.8411 100.42C29.6981 100.323 29.5811 100.243 29.5577 100.219C28.9597 99.8996 27.6155 99.637 27.0643 100.167C26.7133 100.518 26.7159 101.085 27.0721 101.436C27.1007 101.465 27.1319 101.493 27.1657 101.517C27.5765 101.863 28.2265 101.863 28.7309 101.746C29.2353 101.629 30.0127 101.064 30.2701 100.872C30.4495 101.067 30.6315 101.267 30.8057 101.462C30.9175 101.6 31.0345 101.727 31.1359 101.873C31.2373 102.019 31.3465 102.154 31.4505 102.294C31.6403 102.57 31.8379 102.853 32.0147 103.124C32.1395 103.313 32.2565 103.495 32.3735 103.677C32.1863 103.493 31.8119 103.139 31.7755 103.113C31.2295 102.705 29.9425 102.245 29.3237 102.684C28.9311 102.988 28.8583 103.553 29.1599 103.945C29.1781 103.969 29.1963 103.989 29.2171 104.013C29.5707 104.416 30.2233 104.509 30.7303 104.473C31.2867 104.431 32.3371 103.87 32.4671 103.802C32.6595 104.106 32.8441 104.405 33.0157 104.689C33.6059 105.669 34.0609 106.509 34.3703 107.099C34.4119 107.172 34.4483 107.245 34.4795 107.31L34.9527 107.135C34.9137 107.05 34.8565 106.964 34.7993 106.86C34.4717 106.27 33.9933 105.432 33.3745 104.455C33.1795 104.143 32.9663 103.818 32.7427 103.482C33.0209 103.22 33.2861 102.944 33.5357 102.656C34.0505 102.908 35.1555 103.012 35.3011 103.022C35.2933 103.381 35.2829 103.729 35.2699 104.06C35.2231 105.206 35.1503 106.153 35.0723 106.821C35.0593 106.922 35.0489 107.016 35.0411 107.102L35.5949 106.901C35.5949 106.888 35.5975 106.875 35.5975 106.862C35.6469 106.192 35.7145 105.227 35.7379 104.07C35.7457 103.706 35.7561 103.313 35.7457 102.91C35.8913 102.887 37.0665 102.689 37.5319 102.38C37.9531 102.097 38.4107 101.621 38.4419 101.083C38.4861 100.589 38.1221 100.149 37.6255 100.105C37.5969 100.1 37.5631 100.102 37.5319 100.102C36.7727 100.136 36.0421 101.296 35.8601 101.948C35.8523 101.99 35.7821 102.419 35.7431 102.692C35.7431 102.528 35.7457 102.383 35.7405 102.203C35.7353 101.868 35.7171 101.535 35.7041 101.176C35.6911 101.005 35.6781 100.83 35.6625 100.654C35.6469 100.477 35.6209 100.295 35.6001 100.115C35.5429 99.6942 35.4675 99.273 35.3791 98.8492C35.6703 98.8414 36.7077 98.8102 37.1679 98.5918C37.6281 98.3734 38.1663 97.973 38.2729 97.4478C38.3977 96.9668 38.1091 96.478 37.6281 96.3558C37.5969 96.348 37.5683 96.3428 37.5345 96.3376C36.7805 96.2544 35.8783 97.284 35.6053 97.908C35.5871 97.947 35.4389 98.4124 35.3609 98.6698C35.3063 98.415 35.2517 98.1654 35.1867 97.908C35.0047 97.1722 34.7967 96.4312 34.5887 95.6928C34.5263 95.464 34.4665 95.2404 34.4067 95.0116C34.5081 95.0116 35.7431 94.996 36.2605 94.7542C36.7181 94.541 37.2563 94.1328 37.3655 93.6102C37.4877 93.1266 37.1965 92.6378 36.7129 92.513C36.6843 92.5052 36.6557 92.4974 36.6245 92.4948C35.8679 92.4168 34.9683 93.4412 34.6927 94.0678C34.6719 94.1172 34.4561 94.7776 34.4171 94.9596C34.2845 94.4604 34.1545 93.9638 34.0479 93.4672C33.8971 92.7964 33.7905 92.1126 33.7281 91.4262C33.7775 91.4262 35.0671 91.4184 35.5949 91.1688C36.0525 90.953 36.5777 90.5526 36.6973 90.0222C36.8169 89.5412 36.5205 89.0524 36.0395 88.9354C36.0083 88.925 35.9771 88.9198 35.9459 88.9172C35.1919 88.834 34.2897 89.8636 34.0141 90.4902C33.9959 90.5318 33.8347 91.0414 33.7619 91.2884L33.7203 91.2832C33.6787 90.5942 33.6969 89.9052 33.7775 89.2188C33.8165 88.8418 33.8763 88.483 33.9413 88.132C34.1831 88.1554 35.2803 88.249 35.7743 88.08C36.2683 87.911 36.8169 87.5756 36.9859 87.066C37.1575 86.6006 36.9209 86.0858 36.4581 85.9116C36.4269 85.9012 36.3957 85.8934 36.3645 85.883C35.6209 85.7192 34.6173 86.6474 34.2741 87.2324C34.2559 87.2636 34.1077 87.6042 33.9907 87.8616C34.0219 87.703 34.0531 87.5444 34.0895 87.3936C34.2143 86.832 34.3599 86.325 34.4951 85.8804C34.5757 85.623 34.6511 85.3968 34.7213 85.1758C34.9709 85.0796 35.9589 84.6584 36.3177 84.2814C36.6765 83.9044 37.0145 83.3532 36.9261 82.8098C36.8741 82.3314 36.4243 81.983 35.9329 82.0428Z" fill="#0085E5"/>
<path d="M21.111 92.6407C21.7038 92.6641 22.9388 92.1571 22.9388 92.1571C22.9388 92.1571 22.359 91.4525 22.3148 91.4057C21.826 90.9351 20.5962 90.3293 19.9306 90.6933C19.5016 90.9455 19.3586 91.4993 19.6108 91.9283C19.6264 91.9543 19.642 91.9803 19.6602 92.0063C19.967 92.4483 20.604 92.6173 21.111 92.6407Z" fill="#0085E5"/>
<path opacity="0.5" d="M35.9329 82.0428C35.9017 82.048 35.8705 82.0558 35.8367 82.061C35.1035 82.2586 34.6381 83.5456 34.6043 84.2242C34.6017 84.284 34.6719 85.1992 34.6719 85.1992L34.6849 85.194C34.6121 85.3942 34.5367 85.6126 34.4509 85.8544C34.3131 86.2964 34.1467 86.8034 34.0089 87.3624C33.8529 87.9656 33.7359 88.5766 33.6527 89.1928C33.5565 89.8818 33.5227 90.5786 33.5487 91.2728L33.2367 90.4642C32.9143 89.8688 31.9367 88.9068 31.1905 89.0472C30.7043 89.1512 30.3975 89.6244 30.5015 90.1106C30.5067 90.1418 30.5171 90.1756 30.5275 90.2094C30.6783 90.7216 31.2347 91.083 31.7079 91.2624C32.2435 91.4652 33.4785 91.382 33.5773 91.3768C33.6215 92.084 33.7125 92.7886 33.8529 93.4828C33.9309 93.8884 34.0245 94.294 34.1207 94.6996L33.9803 94.3356C33.6579 93.7402 32.6829 92.7782 31.9367 92.916C31.4505 93.02 31.1411 93.501 31.2451 93.9846L31.2711 94.0756C31.4219 94.5878 31.9757 94.9492 32.4489 95.1286C32.9221 95.308 33.9855 95.2612 34.2637 95.2456L34.3781 95.7136C34.5679 96.4572 34.7577 97.1982 34.9241 97.9314C34.9813 98.1914 35.0307 98.4462 35.0801 98.7036L34.9605 98.3916C34.6381 97.7936 33.6605 96.8316 32.9143 96.972C32.4281 97.076 32.1187 97.557 32.2227 98.0406C32.2305 98.0718 32.2409 98.103 32.2487 98.1316C32.4021 98.6464 32.9533 99.0052 33.4317 99.1872C33.9101 99.3666 34.8617 99.325 35.1945 99.3042C35.2387 99.5694 35.2803 99.832 35.3089 100.092C35.3245 100.271 35.3531 100.44 35.3609 100.617C35.3661 100.794 35.3791 100.968 35.3895 101.14C35.3947 101.475 35.4051 101.821 35.4025 102.146C35.4025 102.372 35.3973 102.591 35.3947 102.806C35.3375 102.546 35.2205 102.045 35.2049 102.006C34.9813 101.452 34.6225 100.963 34.1571 100.589C34.1337 100.526 34.1077 100.466 34.0713 100.409C33.8373 99.9698 33.2913 99.806 32.8545 100.04C32.8259 100.056 32.7973 100.071 32.7713 100.089C32.1551 100.537 32.1863 101.907 32.3969 102.552C32.4125 102.588 32.5893 102.988 32.7063 103.235C32.6179 103.1 32.5295 102.968 32.4307 102.827C32.2409 102.554 32.0459 102.284 31.8353 101.995C31.7287 101.857 31.6221 101.72 31.5155 101.582C31.4089 101.444 31.2815 101.304 31.1619 101.166C30.8863 100.849 30.5873 100.542 30.2805 100.235C30.5249 100.066 31.3647 99.468 31.6325 99.0338C31.8977 98.5996 32.1161 97.9756 31.9159 97.479C31.7521 97.011 31.2347 96.764 30.7667 96.9304C30.7381 96.9408 30.7069 96.9538 30.6783 96.9668C30.0023 97.3178 29.8229 98.675 29.9347 99.3458C29.9503 99.3822 30.0725 99.858 30.1505 100.115C29.9659 99.9334 29.7813 99.7514 29.5863 99.5746C29.0273 99.0598 28.4475 98.558 27.8677 98.0562L27.3399 97.5934C27.4257 97.5362 28.4475 96.842 28.7439 96.3558C29.0091 95.9216 29.2223 95.2976 29.0273 94.7984C28.8531 94.333 28.3357 94.0964 27.8703 94.2706C27.8079 94.2914 27.7455 94.3252 27.6883 94.3616C27.0123 94.7126 26.8355 96.0698 26.9447 96.738C26.9629 96.7874 27.1475 97.466 27.2047 97.635C26.8199 97.2944 26.4377 96.9512 26.0737 96.5976C25.5771 96.1218 25.1195 95.6122 24.6931 95.074C24.7373 95.0584 25.8059 94.3356 26.1049 93.8312C26.3701 93.397 26.5885 92.773 26.3883 92.2764C26.2219 91.8084 25.7071 91.5666 25.2391 91.7304C25.2105 91.7408 25.1793 91.7538 25.1507 91.7668C24.4747 92.1178 24.2979 93.475 24.4097 94.1406C24.4253 94.1822 24.5605 94.6996 24.6359 94.9466L24.5995 94.9622C24.1835 94.4136 23.8195 93.8312 23.5101 93.2176C23.3359 92.8796 23.1877 92.5468 23.0499 92.2244C23.2631 92.1126 24.2303 91.5822 24.5527 91.1636C24.8777 90.745 25.1481 90.1678 25.0077 89.6504C24.8933 89.1668 24.4045 88.8652 23.9209 88.9822C23.8897 88.9874 23.8611 88.9952 23.8325 89.0082C23.1227 89.2812 22.7977 90.6124 22.8315 91.2884C22.8445 91.3222 22.8965 91.6992 22.9459 91.967L22.7899 91.5198C22.5819 90.9816 22.4285 90.4798 22.2959 90.0326C22.2231 89.7778 22.1581 89.5464 22.1035 89.328C22.2517 89.107 22.8497 88.2126 22.9407 87.7004C23.0317 87.1908 23.0109 86.5434 22.6495 86.1456C22.3271 85.7686 21.7629 85.7244 21.3859 86.0416C21.3573 86.065 21.3365 86.0884 21.3105 86.1144C20.8061 86.6838 21.1181 88.0176 21.4743 88.6C21.4951 88.6546 22.0567 89.38 22.0801 89.3696C22.1295 89.5828 22.1841 89.809 22.2491 90.0508C22.3739 90.5006 22.5169 91.0102 22.7119 91.5536C22.7821 91.7538 22.8575 91.954 22.9329 92.1542C23.0811 92.5338 23.2449 92.9082 23.4243 93.2748C23.7233 93.904 24.0769 94.5046 24.4851 95.0688L24.4955 95.0922C24.3161 94.957 23.8039 94.606 23.7623 94.5852C23.1643 94.2654 21.8175 94.0002 21.2689 94.5306C20.9205 94.8868 20.9309 95.4562 21.2871 95.802C21.3079 95.8254 21.3313 95.8462 21.3573 95.8644C21.7681 96.179 22.4337 96.1842 22.9277 96.0724C23.4971 95.9424 24.4721 95.1962 24.5501 95.1364C24.9791 95.7006 25.4419 96.2362 25.9411 96.738C26.2323 97.0344 26.5313 97.3204 26.8355 97.6064C26.6769 97.4946 26.5339 97.3984 26.5131 97.388C25.9151 97.0682 24.5709 96.8056 24.0197 97.336C23.6713 97.6922 23.6791 98.2616 24.0327 98.6074C24.0587 98.6308 24.0821 98.6542 24.1081 98.675C24.5189 99.0208 25.1663 99.0182 25.6733 98.9038C26.1803 98.7894 27.0305 98.168 27.2489 97.9886C27.3685 98.0978 27.4855 98.207 27.6025 98.3136C28.1693 98.831 28.7413 99.3432 29.2821 99.8632C29.4771 100.048 29.6565 100.235 29.8411 100.42C29.6981 100.323 29.5811 100.243 29.5577 100.219C28.9597 99.8996 27.6155 99.637 27.0643 100.167C26.7133 100.518 26.7159 101.085 27.0721 101.436C27.1007 101.465 27.1319 101.493 27.1657 101.517C27.5765 101.863 28.2265 101.863 28.7309 101.746C29.2353 101.629 30.0127 101.064 30.2701 100.872C30.4495 101.067 30.6315 101.267 30.8057 101.462C30.9175 101.6 31.0345 101.727 31.1359 101.873C31.2373 102.019 31.3465 102.154 31.4505 102.294C31.6403 102.57 31.8379 102.853 32.0147 103.124C32.1395 103.313 32.2565 103.495 32.3735 103.677C32.1863 103.493 31.8119 103.139 31.7755 103.113C31.2295 102.705 29.9425 102.245 29.3237 102.684C28.9311 102.988 28.8583 103.553 29.1599 103.945C29.1781 103.969 29.1963 103.989 29.2171 104.013C29.5707 104.416 30.2233 104.509 30.7303 104.473C31.2867 104.431 32.3371 103.87 32.4671 103.802C32.6595 104.106 32.8441 104.405 33.0157 104.689C33.6059 105.669 34.0609 106.509 34.3703 107.099C34.4119 107.172 34.4483 107.245 34.4795 107.31L34.9527 107.135C34.9137 107.05 34.8565 106.964 34.7993 106.86C34.4717 106.27 33.9933 105.432 33.3745 104.455C33.1795 104.143 32.9663 103.818 32.7427 103.482C33.0209 103.22 33.2861 102.944 33.5357 102.656C34.0505 102.908 35.1555 103.012 35.3011 103.022C35.2933 103.381 35.2829 103.729 35.2699 104.06C35.2231 105.206 35.1503 106.153 35.0723 106.821C35.0593 106.922 35.0489 107.016 35.0411 107.102L35.5949 106.901C35.5949 106.888 35.5975 106.875 35.5975 106.862C35.6469 106.192 35.7145 105.227 35.7379 104.07C35.7457 103.706 35.7561 103.313 35.7457 102.91C35.8913 102.887 37.0665 102.689 37.5319 102.38C37.9531 102.097 38.4107 101.621 38.4419 101.083C38.4861 100.589 38.1221 100.149 37.6255 100.105C37.5969 100.1 37.5631 100.102 37.5319 100.102C36.7727 100.136 36.0421 101.296 35.8601 101.948C35.8523 101.99 35.7821 102.419 35.7431 102.692C35.7431 102.528 35.7457 102.383 35.7405 102.203C35.7353 101.868 35.7171 101.535 35.7041 101.176C35.6911 101.005 35.6781 100.83 35.6625 100.654C35.6469 100.477 35.6209 100.295 35.6001 100.115C35.5429 99.6942 35.4675 99.273 35.3791 98.8492C35.6703 98.8414 36.7077 98.8102 37.1679 98.5918C37.6281 98.3734 38.1663 97.973 38.2729 97.4478C38.3977 96.9668 38.1091 96.478 37.6281 96.3558C37.5969 96.348 37.5683 96.3428 37.5345 96.3376C36.7805 96.2544 35.8783 97.284 35.6053 97.908C35.5871 97.947 35.4389 98.4124 35.3609 98.6698C35.3063 98.415 35.2517 98.1654 35.1867 97.908C35.0047 97.1722 34.7967 96.4312 34.5887 95.6928C34.5263 95.464 34.4665 95.2404 34.4067 95.0116C34.5081 95.0116 35.7431 94.996 36.2605 94.7542C36.7181 94.541 37.2563 94.1328 37.3655 93.6102C37.4877 93.1266 37.1965 92.6378 36.7129 92.513C36.6843 92.5052 36.6557 92.4974 36.6245 92.4948C35.8679 92.4168 34.9683 93.4412 34.6927 94.0678C34.6719 94.1172 34.4561 94.7776 34.4171 94.9596C34.2845 94.4604 34.1545 93.9638 34.0479 93.4672C33.8971 92.7964 33.7905 92.1126 33.7281 91.4262C33.7775 91.4262 35.0671 91.4184 35.5949 91.1688C36.0525 90.953 36.5777 90.5526 36.6973 90.0222C36.8169 89.5412 36.5205 89.0524 36.0395 88.9354C36.0083 88.925 35.9771 88.9198 35.9459 88.9172C35.1919 88.834 34.2897 89.8636 34.0141 90.4902C33.9959 90.5318 33.8347 91.0414 33.7619 91.2884L33.7203 91.2832C33.6787 90.5942 33.6969 89.9052 33.7775 89.2188C33.8165 88.8418 33.8763 88.483 33.9413 88.132C34.1831 88.1554 35.2803 88.249 35.7743 88.08C36.2683 87.911 36.8169 87.5756 36.9859 87.066C37.1575 86.6006 36.9209 86.0858 36.4581 85.9116C36.4269 85.9012 36.3957 85.8934 36.3645 85.883C35.6209 85.7192 34.6173 86.6474 34.2741 87.2324C34.2559 87.2636 34.1077 87.6042 33.9907 87.8616C34.0219 87.703 34.0531 87.5444 34.0895 87.3936C34.2143 86.832 34.3599 86.325 34.4951 85.8804C34.5757 85.623 34.6511 85.3968 34.7213 85.1758C34.9709 85.0796 35.9589 84.6584 36.3177 84.2814C36.6765 83.9044 37.0145 83.3532 36.9261 82.8098C36.8741 82.3314 36.4243 81.983 35.9329 82.0428Z" fill="#0085E5"/>
<path opacity="0.3" d="M33.8043 88.0594C33.8043 88.0594 33.7107 87.1468 33.7003 87.0896C33.5443 86.4292 32.8605 85.2488 32.0987 85.1812C31.6047 85.1526 31.1809 85.5322 31.1523 86.0262C31.1497 86.06 31.1497 86.0938 31.1523 86.1276C31.1627 86.6606 31.6021 87.1572 32.0129 87.4536C32.4965 87.8046 33.8017 88.0594 33.8043 88.0594Z" fill="#0085E5"/>
<path opacity="0.3" d="M21.111 92.6407C21.7038 92.6641 22.9388 92.1571 22.9388 92.1571C22.9388 92.1571 22.359 91.4525 22.3148 91.4057C21.826 90.9351 20.5962 90.3293 19.9306 90.6933C19.5016 90.9455 19.3586 91.4993 19.6108 91.9283C19.6264 91.9543 19.642 91.9803 19.6602 92.0063C19.967 92.4483 20.604 92.6173 21.111 92.6407Z" fill="#0085E5"/>
<path d="M65.0002 113.285C89.7156 113.285 109.751 110.611 109.751 107.313C109.751 104.015 89.7156 101.341 65.0002 101.341C40.2848 101.341 20.249 104.015 20.249 107.313C20.249 110.611 40.2848 113.285 65.0002 113.285Z" fill="#0085E5"/>
<path opacity="0.5" d="M65.0002 113.285C89.7156 113.285 109.751 110.611 109.751 107.313C109.751 104.015 89.7156 101.341 65.0002 101.341C40.2848 101.341 20.249 104.015 20.249 107.313C20.249 110.611 40.2848 113.285 65.0002 113.285Z" fill="white"/>
<path d="M116.609 50.855C116.609 50.855 115.018 58.1766 112.93 61.6424L110.546 60.8026L109.36 61.7958L104.319 66.0312C104.319 66.0312 96.6902 63.4884 95.2732 61.0054C93.8562 58.5224 95.8218 55.249 95.8218 55.249L100.801 43.263L100.845 43.237L102.985 42.0956C102.985 42.0956 103.372 42.0462 103.96 42.0046C104.163 41.989 104.389 41.976 104.631 41.9682C105.824 41.9188 107.4 41.95 108.427 42.3374C110.267 43.0316 111.786 42.7742 111.786 42.7742C111.786 42.7742 113.92 45.6342 115.244 47.6232C116.567 49.6226 116.609 50.855 116.609 50.855Z" fill="#FFA000"/>
<path d="M88.7178 73.8574C88.7178 73.8574 87.0018 78.3944 86.7314 81.0958C86.461 83.7972 89.7942 88.3914 89.7942 88.3914C89.7942 88.3914 88.1822 91.2722 88.7178 92.1744C89.2534 93.074 90.8108 90.8224 91.5648 87.8506C92.3162 84.8788 90.9668 80.8254 90.9668 80.8254C90.9668 80.8254 93.1716 77.7028 93.2834 76.3378C93.3952 74.9728 88.7178 73.8574 88.7178 73.8574Z" fill="white"/>
<path d="M88.7494 73.8574C88.7494 73.8574 87.0048 78.3944 86.7318 81.0958C86.4562 83.7972 89.844 88.3914 89.844 88.3914C89.844 88.3914 88.206 91.2722 88.7494 92.1744C89.2954 93.074 90.8788 90.8224 91.6432 87.8506C92.4076 84.8788 91.0348 80.8254 91.0348 80.8254C91.0348 80.8254 93.276 77.7028 93.3904 76.3378C93.5074 74.9728 88.7494 73.8574 88.7494 73.8574Z" stroke="#263238" stroke-width="0.26" stroke-miterlimit="10" stroke-linecap="round" stroke-linejoin="round"/>
<path d="M89.3245 89.0397C89.3245 89.0397 88.8825 88.2285 89.1399 88.0075C89.3973 87.7865 90.3541 88.3377 90.5023 88.7433C90.6505 89.1489 91.3837 88.4963 91.3837 88.4963L91.8075 86.9727C91.8075 86.9727 92.2339 87.9685 92.2703 88.4105C92.3067 88.8525 91.4903 89.6897 91.3863 90.7297C91.2641 91.9543 89.7665 93.1607 88.8825 93.0489C87.9985 92.9449 88.5133 90.2929 89.3245 89.0397Z" fill="#263238"/>
<path d="M92.0094 88.2197C91.505 88.9399 91.1384 89.6705 90.7796 90.4713C90.5586 90.9679 90.4754 91.5191 90.0542 91.8675C89.6616 92.1925 89.2144 92.3823 88.7178 92.4889" stroke="white" stroke-width="0.26" stroke-miterlimit="10" stroke-linecap="round" stroke-linejoin="round"/>
<path opacity="0.1" d="M109.36 61.7958L104.319 66.0312C104.319 66.0312 96.6902 63.4884 95.2732 61.0054C93.8562 58.5224 95.8218 55.249 95.8218 55.249L100.801 43.263L100.845 43.237C101.885 42.9432 102.925 42.3582 103.957 42.0046C104.194 41.924 104.425 41.8538 104.659 41.8018C104.649 41.8564 104.638 41.911 104.628 41.9656C103.723 46.9264 104.755 52.2174 107.462 56.4736C108.005 57.3264 108.213 58.3534 108.632 59.2712C108.892 59.8458 109.157 60.4282 109.279 61.0444C109.329 61.294 109.355 61.5462 109.36 61.7958Z" fill="black"/>
<path d="M109.043 44.2456C109.043 44.2456 109.188 45.2648 110.689 45.4572C112.189 45.6496 113.023 44.516 113.023 44.516C113.023 44.516 112.771 43.2628 113.039 41.8484C113.309 40.4366 113.731 40.0102 113.731 40.0102C113.731 40.0102 115.473 40.031 115.579 38.6686C115.683 37.3062 113.975 36.5626 113.413 37.1398C112.849 37.717 112.108 35.6136 112.108 35.6136L110.114 34.4644L108.65 33.1514L107.511 34.2512C107.511 34.2512 107.137 35.5512 107.046 36.1752C106.955 36.7992 106.536 37.899 106.539 38.4424C106.544 38.9832 106.695 41.9758 107.033 42.917C107.371 43.8582 108.252 44.1234 108.648 44.048C109.043 43.9752 109.043 44.2456 109.043 44.2456Z" fill="white"/>
<path d="M93.4679 103.208C93.2859 102.275 93.4393 101.19 93.8657 100.052C94.6067 98.0755 95.2697 85.1561 97.1495 83.6741C98.3611 82.7173 101.356 84.0043 101.356 84.0043C101.356 84.0043 101.52 85.7333 101.356 88.5309C101.193 91.3285 96.0939 100.546 96.0497 101.37C96.0419 101.521 96.1537 101.765 96.3383 102.077L93.4679 103.208Z" fill="white"/>
<path d="M93.4679 103.208C93.2859 102.275 93.4393 101.19 93.8657 100.052C94.6067 98.0755 95.2697 85.1561 97.1495 83.6741C98.3611 82.7173 101.356 84.0043 101.356 84.0043C101.356 84.0043 101.52 85.7333 101.356 88.5309C101.193 91.3285 96.0939 100.546 96.0497 101.37C96.0419 101.521 96.1537 101.765 96.3383 102.077L93.4679 103.208Z" stroke="#263238" stroke-width="0.26" stroke-miterlimit="10" stroke-linecap="round" stroke-linejoin="round"/>
<path d="M93.5643 101.032C93.5643 101.032 92.9222 102.982 93.0236 104.095C93.125 105.208 93.9336 104.599 95.5196 106.443C97.1056 108.286 98.5486 108.468 99.0608 108.109C99.573 107.751 99.2713 106.82 97.6593 104.095C96.0473 101.368 96.6427 102.564 96.6427 102.564C96.6427 102.564 96.9704 101.427 96.3515 101.266C95.452 101.032 94.919 102.34 94.3548 102.34C93.7932 102.34 93.5643 101.032 93.5643 101.032Z" fill="#263238"/>
<path d="M93.2061 103.56C93.3361 103.76 93.5181 103.937 93.7131 104.077C94.1031 104.358 94.5555 104.535 94.9585 104.797C95.4759 105.138 95.8867 105.608 96.3209 106.048C96.6225 106.352 96.9397 106.646 97.2673 106.921C97.5273 107.14 97.8003 107.353 98.1201 107.467C98.4399 107.579 98.8195 107.577 99.0977 107.382" stroke="white" stroke-width="0.26" stroke-miterlimit="10" stroke-linecap="round" stroke-linejoin="round"/>
<path d="M109.05 32.8281C108.338 33.3923 107.568 34.0345 107.282 34.9315C106.999 35.8233 107.077 36.8269 106.705 37.6979C106.448 38.3011 106.557 39.1539 106.593 39.7909C106.651 40.7893 106.794 41.7877 106.996 42.7653C107.147 43.4959 107.454 43.9535 108.226 44.0445C108.983 44.1329 109.817 43.7403 110.473 43.3997C111.528 42.8537 112.784 41.1091 113.411 40.0691C114.243 39.8715 115.831 39.9729 115.543 38.3791C115.254 36.7879 114.053 37.5627 113.717 38.0203" stroke="#263238" stroke-width="0.26" stroke-miterlimit="10" stroke-linecap="round" stroke-linejoin="round"/>
<path d="M109.536 37.4467C109.944 37.0125 110.368 37.1477 110.857 37.4415" stroke="#263238" stroke-width="0.26" stroke-miterlimit="10" stroke-linecap="round" stroke-linejoin="round"/>
<path d="M108.486 37.7246C108.593 38.3382 108.445 38.9986 108.065 39.4952C107.961 39.633 107.834 39.7708 107.818 39.9424C107.8 40.1348 107.927 40.309 108.068 40.4442" stroke="#263238" stroke-width="0.26" stroke-miterlimit="10" stroke-linecap="round" stroke-linejoin="round"/>
<path d="M108.449 41.5499C109.078 41.6045 109.435 41.4563 109.767 40.9727" stroke="#263238" stroke-width="0.26" stroke-miterlimit="10" stroke-linecap="round" stroke-linejoin="round"/>
<path d="M110.179 38.5985C110.16 38.8195 110.054 38.9911 109.945 38.9833C109.835 38.9729 109.76 38.7857 109.781 38.5647C109.799 38.3437 109.906 38.1721 110.015 38.1799C110.124 38.1903 110.199 38.3775 110.179 38.5985Z" fill="#263238"/>
<path d="M107.798 38.2831C107.78 38.5041 107.673 38.6757 107.564 38.6679C107.455 38.6575 107.379 38.4703 107.4 38.2493C107.418 38.0283 107.525 37.8567 107.634 37.8645C107.743 37.8749 107.816 38.0621 107.798 38.2831Z" fill="#263238"/>
<path d="M107.143 37.106C107.143 37.106 107.53 36.7732 107.894 37.171" stroke="#263238" stroke-width="0.26" stroke-miterlimit="10" stroke-linecap="round" stroke-linejoin="round"/>
<path d="M113.41 40.0732C113.145 40.9312 113.052 41.667 112.95 42.5614C112.877 43.214 112.849 43.8822 113.02 44.5166C112.62 45.1666 111.596 45.5384 110.836 45.4734C110.407 45.437 109.976 45.3226 109.627 45.0678C109.282 44.813 109.029 44.4048 109.042 43.9732" stroke="#263238" stroke-width="0.26" stroke-miterlimit="10" stroke-linecap="round" stroke-linejoin="round"/>
<path d="M95.1658 60.2617C95.1658 60.2617 99.7314 64.9261 104.692 65.7191C104.692 65.7191 106.081 68.1995 105.386 70.5811C104.692 72.9627 102.012 83.2821 102.012 83.2821L96.952 82.6867V70.0845C96.952 70.0845 95.2698 74.3641 93.7202 76.4545L88.7178 73.8545C88.7178 73.8571 90.4026 64.1331 95.1658 60.2617Z" fill="#263238"/>
<path d="M95.2734 66.4893L96.7918 68.2261L96.953 70.0877" stroke="white" stroke-width="0.26" stroke-miterlimit="10" stroke-linecap="round" stroke-linejoin="round"/>
<path d="M96.1124 79.9588C96.1124 79.9588 95.8368 81.5552 96.4426 84.033C96.4426 84.033 99.9656 84.969 102.113 84.3086C102.113 84.3086 103.158 82.1064 103.325 81.225C103.322 81.225 99.8564 79.1866 96.1124 79.9588Z" fill="#263238"/>
<path d="M87.8525 74.8946C87.8525 74.8946 90.2185 76.7666 93.1929 77.3178C93.1929 77.3178 94.7061 76.2726 95.2703 75.555C95.2703 75.555 92.0359 72.3076 88.2373 72.3076L87.8525 74.8946Z" fill="#263238"/>
<path d="M109.635 53.5799C109.635 53.5799 110.397 50.6783 112.932 49.9893" stroke="#263238" stroke-width="0.26" stroke-miterlimit="10" stroke-linecap="round" stroke-linejoin="round"/>
<path d="M113.793 37.8861C113.556 38.0733 113.624 38.4763 113.445 38.7181C113.281 38.9365 113.044 39.0821 112.771 39.1003C112.748 39.1029 112.719 39.1029 112.701 39.0873C112.68 39.0717 112.672 39.0431 112.667 39.0197C112.589 38.6349 112.652 38.2371 112.654 37.8445C112.657 37.1945 112.389 36.8903 111.95 36.4743C111.606 36.1493 111.619 35.5773 111.292 35.2341C111.06 34.9923 110.702 34.9169 110.366 34.9039C110.031 34.8909 109.69 34.9299 109.36 34.8623C108.741 34.7323 108.273 34.2331 108.135 33.5623C107.618 33.9783 107.168 35.3719 107.168 35.3719L106.841 35.0885C106.05 34.3501 105.899 33.0397 106.445 32.1037C107.002 31.1495 108.185 30.6321 109.279 30.7855C110.007 30.8869 110.683 31.2483 111.417 31.3133C112.308 31.3939 113.237 31.0273 114.087 31.3107C114.934 31.5915 115.462 32.4495 115.714 33.3075C115.964 34.1655 116.011 35.0729 116.279 35.9257C116.367 36.2091 116.481 36.4847 116.52 36.7785C116.606 37.4571 116.232 38.1721 115.623 38.4893C115.623 38.4893 115.379 36.6381 113.793 37.8861Z" fill="#263238"/>
<path opacity="0.2" d="M107.179 34.2979C106.843 33.8013 106.737 33.1409 106.965 32.5871C107.194 32.0333 107.777 31.6277 108.375 31.6667C108.978 31.7057 109.474 32.1503 109.854 32.6209C110.234 33.0889 110.564 33.6193 111.068 33.9547C111.619 34.3213 112.308 34.4123 112.896 34.7165C113.816 35.1949 114.417 36.2323 114.375 37.2697" stroke="white" stroke-width="0.26" stroke-miterlimit="10" stroke-linecap="round" stroke-linejoin="round"/>
<path opacity="0.2" d="M110.884 32.251C111.139 32.7216 111.666 32.9738 112.184 33.1194C112.699 33.265 113.242 33.3378 113.715 33.5874C114.446 33.9722 114.927 34.7886 114.911 35.6154" stroke="white" stroke-width="0.26" stroke-miterlimit="10" stroke-linecap="round" stroke-linejoin="round"/>
<path d="M105.98 37.1985L86.516 84.0895C86.1078 85.0697 84.9846 85.5377 84.0018 85.1295L58.54 74.5605C57.5598 74.1523 57.0944 73.0265 57.5 72.0463L76.9636 25.1553C77.3718 24.1751 78.4976 23.7097 79.4778 24.1153L104.94 34.6843C105.922 35.0899 106.388 36.2157 105.98 37.1985Z" fill="white" stroke="#263238" stroke-width="0.26" stroke-miterlimit="10"/>
<path d="M98.84 38.458L97.9118 40.6966C97.631 41.37 96.8562 41.6924 96.1828 41.4116L80.9 35.0676C80.341 34.8362 80.0264 34.2668 80.0914 33.6948C80.1044 33.5752 80.1356 33.453 80.1824 33.3386L81.1106 31.1C81.3914 30.424 82.1662 30.1042 82.8422 30.385L98.125 36.729C98.801 37.0072 99.1208 37.782 98.84 38.458Z" fill="#0085E5"/>
<path d="M87.9437 34.08L87.1689 35.9468L86.8231 35.8038L87.1559 35.003L86.1913 34.6026L85.8585 35.4034L85.5127 35.2604L86.2875 33.3936L86.6333 33.5366L86.3135 34.3062L87.2781 34.7066L87.5979 33.937L87.9437 34.08Z" fill="#263238"/>
<path d="M89.2227 36.0895L88.1073 35.6267C88.0605 35.8503 88.1801 36.0557 88.4271 36.1597C88.5857 36.2273 88.7339 36.2273 88.8769 36.1649L88.9705 36.4431C88.7807 36.5419 88.5467 36.5393 88.3023 36.4379C87.8265 36.2403 87.6445 35.8061 87.8187 35.3823C87.9955 34.9585 88.4323 34.7843 88.8561 34.9611C89.2721 35.1327 89.4541 35.5513 89.2695 35.9959C89.2565 36.0193 89.2383 36.0583 89.2227 36.0895ZM88.1957 35.4031L89.0043 35.7385C89.0615 35.5227 88.9653 35.3147 88.7469 35.2263C88.5285 35.1353 88.3127 35.2081 88.1957 35.4031Z" fill="#263238"/>
<path d="M90.1175 34.8516L90.4503 34.9894L89.6287 36.968L89.2959 36.8302L90.1175 34.8516Z" fill="#263238"/>
<path d="M90.887 35.1719L91.2198 35.3097L90.3982 37.2883L90.0654 37.1505L90.887 35.1719Z" fill="#263238"/>
<path d="M91.0142 36.7086C91.191 36.2822 91.6356 36.1132 92.0724 36.2952C92.5144 36.4798 92.7068 36.9114 92.53 37.3378C92.3532 37.7642 91.9086 37.9358 91.4666 37.7538C91.0324 37.5718 90.8374 37.135 91.0142 36.7086ZM92.1946 37.1974C92.3064 36.9244 92.1972 36.6774 91.9554 36.576C91.7162 36.4772 91.4614 36.5734 91.3496 36.8464C91.2378 37.1194 91.347 37.3664 91.5862 37.4652C91.8306 37.5692 92.0828 37.4704 92.1946 37.1974Z" fill="#263238"/>
<path d="M92.5741 37.9671C92.6209 37.8527 92.7509 37.8007 92.8757 37.8527C92.9979 37.9047 93.0499 38.0295 93.0005 38.1465C92.9537 38.2609 92.8263 38.318 92.7041 38.266C92.5767 38.214 92.5247 38.0815 92.5741 37.9671ZM93.2865 36.2979L93.6817 36.4617L93.0967 37.681L92.8341 37.5718L93.2865 36.2979Z" fill="#263238"/>
<path d="M94.9651 50.4715L75.5381 42.4092L75.0488 43.5882L94.4758 51.6506L94.9651 50.4715Z" fill="#263238"/>
<path d="M93.7063 53.5028L74.2793 45.4404L73.79 46.6195L93.217 54.6818L93.7063 53.5028Z" fill="#263238"/>
<path d="M92.4495 56.5321L73.0225 48.4697L72.5331 49.6488L91.9601 57.7111L92.4495 56.5321Z" fill="#263238"/>
<path d="M91.1897 59.5633L71.7627 51.501L71.2734 52.68L90.7004 60.7424L91.1897 59.5633Z" fill="#263238"/>
<path d="M89.9338 62.5965L70.5068 54.5342L70.0175 55.7132L89.4445 63.7756L89.9338 62.5965Z" fill="#263238"/>
<path d="M88.676 65.6248L69.249 57.5625L68.7597 58.7416L88.1867 66.8039L88.676 65.6248Z" fill="#263238"/>
<path d="M91.8219 71.3062L86.5153 84.0904C86.1071 85.0706 84.9839 85.5386 84.001 85.1304L65.7646 77.5618C66.8982 76.2124 68.4427 75.2088 70.1665 74.8266C72.8367 74.2338 75.8812 74.9566 78.1666 73.4538C80.01 72.2422 80.9123 69.8164 82.9377 68.9428C83.9569 68.5034 85.1216 68.5346 86.2084 68.7478C88.1688 69.1352 90.1683 70.0972 91.8219 71.3062Z" fill="#0085E5" stroke="#263238" stroke-width="0.26" stroke-miterlimit="10"/>
<path d="M79.7136 29.2587C79.009 29.7761 78.5488 30.5587 78.1666 31.3413C77.2618 33.1899 76.6638 35.1737 75.746 37.0145C74.8282 38.8527 73.5152 40.6025 71.651 41.4683C71.1362 41.7075 70.572 41.8609 70 41.9259L76.9602 25.1533C77.3684 24.1731 78.4942 23.7077 79.4744 24.1133L83.9204 25.9593C83.5642 27.5687 81.1046 28.2447 79.7136 29.2587Z" fill="#0085E5" stroke="#263238" stroke-width="0.26" stroke-miterlimit="10"/>
<path opacity="0.1" d="M98.84 38.4575L97.9118 40.6961C97.631 41.3695 96.8562 41.6919 96.1828 41.4111L80.9 35.0671C80.341 34.8357 80.0264 34.2663 80.0914 33.6943C80.887 33.7047 81.8724 34.3729 82.5302 34.6407C83.5936 35.0775 84.6674 35.4883 85.7516 35.8731C89.1576 37.0821 92.8938 38.0363 96.3414 36.9573C96.7444 36.8325 97.1448 36.6739 97.5166 36.4737L98.125 36.7259C98.801 37.0067 99.1208 37.7815 98.84 38.4575Z" fill="black"/>
<path d="M98.84 38.458L97.9118 40.6966C97.631 41.37 96.8562 41.6924 96.1828 41.4116L80.9 35.0676C80.341 34.8362 80.0264 34.2668 80.0914 33.6948C80.1044 33.5752 80.1356 33.453 80.1824 33.3386L81.1106 31.1C81.3914 30.424 82.1662 30.1042 82.8422 30.385L98.125 36.729C98.801 37.0072 99.1208 37.782 98.84 38.458Z" stroke="#263238" stroke-width="0.26" stroke-miterlimit="10"/>
<path d="M110.891 61.2109C110.891 61.2109 107.084 64.0397 105.831 64.9471C105.831 64.9471 99.703 61.0289 97.532 58.9931C95.361 56.9573 94.4146 56.2475 94.2768 53.9387C94.2768 53.9387 91.0528 54.2845 90.7148 53.5877C90.7148 53.5877 91.2426 53.2419 92.0954 53.1951C92.0954 53.1951 90.5952 52.7635 90.59 52.2149L93.5982 52.0485C93.5982 52.0485 90.2104 51.5415 90.2494 51.2295C90.2884 50.9175 94.4146 50.4339 95.5222 51.2295C95.5222 51.2295 96.8534 53.5773 97.3994 55.1633C97.3994 55.1633 101.533 58.8735 105.831 59.7237L107.391 58.0597L110.891 61.2109Z" fill="white"/>
<path d="M107.389 58.0623L105.829 59.7263C105.829 59.7263 100.356 58.2963 97.3969 55.1659C97.3969 55.1659 96.1541 52.0355 95.5197 51.2321C94.8853 50.4261 89.9921 50.8733 90.2469 51.2321C90.5017 51.5909 93.2577 52.1655 93.2577 52.1655" stroke="#263238" stroke-width="0.26" stroke-miterlimit="10" stroke-linecap="round" stroke-linejoin="round"/>
<path d="M110.891 61.0606C110.891 61.0606 108.312 63.5618 105.831 64.9476C105.831 64.9476 99.4953 61.3934 96.3623 57.7794L96.0789 57.5844C94.8855 56.768 94.2017 55.3874 94.2771 53.9418C93.1643 54.2876 91.9267 54.2174 90.8607 53.7468C90.7905 53.7156 90.7099 53.6662 90.7151 53.5882C90.7177 53.5336 90.7645 53.4946 90.8113 53.4634C91.1623 53.2346 91.6771 53.2112 92.0957 53.193C92.8809 53.1592 93.6011 52.9382 94.3733 53.076" stroke="#263238" stroke-width="0.26" stroke-miterlimit="10" stroke-linecap="round" stroke-linejoin="round"/>
<path d="M94.6207 52.1892C94.2723 52.1814 93.9265 52.1762 93.5781 52.1684C92.6421 52.1502 91.7087 52.132 90.7727 52.1164C90.6947 52.1138 90.5907 52.1372 90.5881 52.2152C90.5855 52.2516 90.6089 52.2828 90.6323 52.3088C90.8507 52.5688 91.1497 52.7456 91.4461 52.912C91.6125 53.0082 91.7841 53.1018 91.9661 53.1616" stroke="#263238" stroke-width="0.26" stroke-miterlimit="10" stroke-linecap="round" stroke-linejoin="round"/>
<path d="M103.323 65.7168C103.323 65.7168 102.634 69.8612 105.387 70.5814" stroke="white" stroke-width="0.26" stroke-miterlimit="10" stroke-linecap="round" stroke-linejoin="round"/>
<path d="M97.4111 79.8788C97.4111 79.8788 99.9669 79.7098 101.969 80.716" stroke="white" stroke-width="0.26" stroke-miterlimit="10" stroke-linecap="round" stroke-linejoin="round"/>
<path d="M94.2255 74.6609C94.2255 74.6609 93.6327 74.2059 92.7773 73.7041" stroke="white" stroke-width="0.26" stroke-miterlimit="10" stroke-linecap="round" stroke-linejoin="round"/>
<path d="M104.004 41.9632C104.823 41.8956 106.006 41.8956 106.846 42.101" stroke="#263238" stroke-width="0.26" stroke-miterlimit="10" stroke-linecap="round" stroke-linejoin="round"/>
<path d="M112.932 44.0615C112.932 44.0615 115.876 47.9147 116.609 50.8579C116.609 50.8579 115.384 57.8857 112.932 61.6453C112.932 61.6453 109.888 61.5647 106.955 57.3137C106.955 57.3137 108.533 54.6981 111.058 51.9187" stroke="#263238" stroke-width="0.26" stroke-miterlimit="10" stroke-linecap="round" stroke-linejoin="round"/>
<path d="M104.693 65.7211L105.583 64.9463" stroke="#263238" stroke-width="0.26" stroke-miterlimit="10" stroke-linecap="round" stroke-linejoin="round"/>
<path d="M109.11 44.1109C109.11 44.1109 109.807 44.9897 110.891 44.6595C111.973 44.3267 112.932 40.8193 112.932 40.8193C112.932 40.8193 111.11 43.4583 109.11 44.1109Z" fill="#263238"/>
<path d="M83.2039 38.3246V102.976C83.2039 104.43 82.0261 105.607 80.5727 105.607H48.3457C47.7477 105.607 47.1965 105.407 46.7519 105.072C46.1201 104.593 45.7119 103.832 45.7119 102.976V38.3246C45.7119 36.8712 46.8897 35.6934 48.3431 35.6934H80.5727C82.0261 35.6934 83.2039 36.8712 83.2039 38.3246Z" fill="#263238"/>
<path d="M84.284 38.3246V102.976C84.284 104.43 83.1062 105.607 81.6528 105.607H49.4258C48.8278 105.607 48.2766 105.407 47.832 105.072C47.2002 104.593 46.792 103.832 46.792 102.976V38.3246C46.792 36.8712 47.9698 35.6934 49.4232 35.6934H81.6502C83.1062 35.6934 84.284 36.8712 84.284 38.3246Z" fill="#263238"/>
<path d="M60.2773 38.582H68.9873" stroke="white" stroke-width="0.52" stroke-miterlimit="10" stroke-linecap="round" stroke-linejoin="round"/>
<path opacity="0.1" d="M83.2039 38.3246V102.976C83.2039 104.43 82.0261 105.607 80.5728 105.607H48.3458C47.7478 105.607 47.1966 105.407 46.752 105.072L74.8839 35.6934H80.5728C82.0261 35.6934 83.2039 36.8712 83.2039 38.3246Z" fill="white"/>
<path d="M83.2039 38.3246V102.976C83.2039 104.43 82.0261 105.607 80.5727 105.607H48.3457C47.7477 105.607 47.1965 105.407 46.7519 105.072C46.1201 104.593 45.7119 103.832 45.7119 102.976V38.3246C45.7119 36.8712 46.8897 35.6934 48.3431 35.6934H80.5727C82.0261 35.6934 83.2039 36.8712 83.2039 38.3246Z" stroke="#263238" stroke-width="0.26" stroke-miterlimit="10"/>
<path d="M77.762 99.697H51.2056C49.3648 99.697 47.875 98.2046 47.875 96.3664V43.5786C47.875 41.7378 49.3674 40.248 51.2056 40.248H77.762C79.6028 40.248 81.0926 41.7404 81.0926 43.5786V96.3664C81.0952 98.2072 79.6028 99.697 77.762 99.697Z" fill="white" stroke="#263238" stroke-width="0.26" stroke-miterlimit="10"/>
<path d="M65.9321 102.833C65.9321 103.701 65.2275 104.406 64.3591 104.406C63.4907 104.406 62.7861 103.701 62.7861 102.833C62.7861 101.964 63.4907 101.26 64.3591 101.26C65.2275 101.26 65.9321 101.964 65.9321 102.833Z" fill="#263238"/>
<path d="M75.2246 104.256V101.411L78.069 102.833L75.2246 104.256Z" fill="#263238"/>
<path d="M53.6521 101.569H51.0703V104.151H53.6521V101.569Z" fill="#263238"/>
<path d="M73.945 55.9442L73.5368 55.0498L72.4552 55.2396L72.3798 56.225C72.0496 56.3498 71.735 56.5162 71.4464 56.719L70.5858 56.212L69.8214 56.9816L70.3362 57.8448C69.9982 58.344 69.7694 58.9056 69.6602 59.4958L68.6748 59.735V60.8244L69.668 61.0766C69.733 61.4146 69.837 61.7422 69.98 62.0568L69.3066 62.8342L69.928 63.726L70.8848 63.3594C71.1318 63.5986 71.4022 63.8066 71.696 63.9834L71.5894 65.0078L72.6112 65.3822L73.1884 64.532C73.425 64.5736 73.6668 64.5944 73.906 64.5944C74.01 64.5944 74.1114 64.5944 74.2128 64.5814L74.712 65.4732L75.765 65.1898L75.7494 64.1784C76.064 64.0302 76.3604 63.843 76.6334 63.622L77.5408 64.0588L78.2402 63.2268L77.6604 62.4182C77.8372 62.1114 77.975 61.7838 78.0712 61.4432L79.0488 61.2794L79.1424 60.1952L78.2194 59.8676C78.183 59.5114 78.1024 59.1604 77.9802 58.825L78.677 58.1412L78.131 57.1974L77.1924 57.4548C76.961 57.1844 76.6958 56.9426 76.402 56.7372L76.5788 55.7804L75.5934 55.3202L74.9746 56.0716C74.6418 55.991 74.2934 55.9468 73.945 55.9442ZM73.9268 57.5562C75.4296 57.5562 76.6464 58.773 76.6464 60.2758C76.6464 61.7786 75.4296 62.9954 73.9268 62.9954C72.424 62.9954 71.2072 61.7786 71.2072 60.2758C71.2072 58.773 72.424 57.5562 73.9268 57.5562Z" fill="#263238"/>
<path d="M74.4128 55.3622L74.0046 54.4678L72.923 54.6576L72.8476 55.643C72.5174 55.7678 72.2028 55.9342 71.9142 56.137L71.0536 55.63L70.2892 56.3996L70.804 57.2628C70.466 57.7594 70.2372 58.3236 70.128 58.9138L69.1426 59.153V60.2424L70.1358 60.4946C70.2008 60.8326 70.3048 61.1602 70.4478 61.4748L69.7744 62.2522L70.3958 63.144L71.3526 62.7774C71.5996 63.0166 71.87 63.2246 72.1638 63.4014L72.0572 64.4258L73.079 64.8002L73.6562 63.95C73.8928 63.9916 74.1346 64.0124 74.3738 64.0124C74.4778 64.0124 74.5792 64.0124 74.6806 63.9994L75.1798 64.8912L76.2328 64.6078L76.2172 63.5964C76.5318 63.4482 76.8282 63.261 77.1012 63.04L78.0086 63.4768L78.708 62.6448L78.1282 61.8362C78.305 61.5294 78.4428 61.2018 78.539 60.8612L79.5166 60.6974L79.6102 59.6132L78.6872 59.2856C78.6508 58.9294 78.5702 58.5784 78.448 58.243L79.1448 57.5592L78.5988 56.6154L77.6602 56.8728C77.4288 56.6024 77.1636 56.3606 76.8698 56.1552L77.0466 55.1984L76.0612 54.7382L75.4424 55.4896C75.107 55.409 74.7612 55.3648 74.4128 55.3622ZM74.392 56.9742C75.8948 56.9742 77.1116 58.191 77.1116 59.6938C77.1116 61.1966 75.8948 62.4134 74.392 62.4134C72.8892 62.4134 71.6724 61.1966 71.6724 59.6938C71.6724 58.191 72.8918 56.9742 74.392 56.9742Z" fill="#0085E5" stroke="#263238" stroke-width="0.26" stroke-miterlimit="10"/>
<path d="M58.2078 46.6885L57.5552 45.2559L55.8236 45.5575L55.7014 47.1357C55.1736 47.3359 54.6718 47.6011 54.2064 47.9261L52.831 47.1149L51.609 48.3473L52.4332 49.7305C51.895 50.5261 51.5258 51.4283 51.3516 52.3747L49.7734 52.7569V54.4989L51.3646 54.9019C51.466 55.4427 51.635 55.9679 51.8638 56.4697L50.7874 57.7151L51.7832 59.1451L53.3146 58.5601C53.7072 58.9423 54.144 59.2777 54.6146 59.5611L54.4456 61.2017L56.081 61.7997L57.004 60.4399C57.3836 60.5049 57.7684 60.5387 58.1532 60.5387C58.317 60.5387 58.4834 60.5387 58.6446 60.5205L59.4402 61.9505L61.125 61.4981L61.1016 59.8809C61.606 59.6417 62.0818 59.3427 62.516 58.9917L63.9668 59.6885L65.0848 58.3547L64.1566 57.0599C64.44 56.5711 64.661 56.0459 64.8144 55.4999L66.377 55.2399L66.5252 53.5031L65.051 52.9779C64.9938 52.4085 64.8638 51.8469 64.6688 51.3087L65.7842 50.2141L64.9106 48.7035L63.4078 49.1169C63.036 48.6827 62.6122 48.2953 62.1442 47.9677L62.4276 46.4363L60.8494 45.7005L59.8562 46.9043C59.3206 46.7613 58.7668 46.6911 58.2078 46.6885ZM58.1766 50.7107C59.7808 50.7107 61.0834 52.0133 61.0834 53.6175C61.0834 55.2217 59.7808 56.5243 58.1766 56.5243C56.5724 56.5243 55.2698 55.2217 55.2698 53.6175C55.2698 52.0133 56.5724 50.7107 58.1766 50.7107Z" fill="#263238"/>
<path d="M71.3841 83.6112L70.8979 82.54L69.6031 82.7662L69.5121 83.9466C69.1169 84.0974 68.7425 84.295 68.3941 84.5368L67.3645 83.9284L66.4519 84.8514L67.0681 85.8862C66.6651 86.4816 66.3895 87.155 66.2595 87.8622L65.0791 88.1482V89.4508L66.2673 89.7524C66.3427 90.1554 66.4675 90.5506 66.6391 90.925L65.8331 91.8558L66.5767 92.9244L67.7233 92.485C68.0171 92.771 68.3421 93.0206 68.6957 93.2338L68.5709 94.461L69.7929 94.9082L70.4845 93.8916C70.7679 93.941 71.0565 93.967 71.3451 93.967C71.4673 93.967 71.5921 93.967 71.7117 93.9514L72.3071 95.02L73.5681 94.682L73.5499 93.473C73.9269 93.2936 74.2831 93.0726 74.6081 92.8074L75.6949 93.33L76.5321 92.3342L75.8379 91.367C76.0511 91.0004 76.2149 90.6078 76.3319 90.2022L77.5019 90.0072L77.6137 88.7098L76.5113 88.3172C76.4671 87.8908 76.3709 87.4722 76.2253 87.0692L77.0599 86.2502L76.4073 85.1218L75.2841 85.4312C75.0059 85.1062 74.6887 84.8176 74.3377 84.5706L74.5509 83.424L73.3705 82.8728L72.6295 83.7724C72.2161 83.6658 71.8001 83.6112 71.3841 83.6112ZM71.3607 86.6194C72.5619 86.6194 73.5343 87.5918 73.5343 88.793C73.5343 89.9942 72.5619 90.9666 71.3607 90.9666C70.1595 90.9666 69.1871 89.9942 69.1871 88.793C69.1871 87.5918 70.1595 86.6194 71.3607 86.6194Z" fill="#263238"/>
<path d="M71.845 82.8339L71.3588 81.7627L70.064 81.9889L69.973 83.1693C69.5778 83.3201 69.2034 83.5177 68.855 83.7595L67.8254 83.1511L66.9128 84.0741L67.529 85.1089C67.126 85.7043 66.8504 86.3777 66.7204 87.0849L65.54 87.3709V88.6735L66.7282 88.9751C66.8036 89.3781 66.9284 89.7733 67.1 90.1477L66.294 91.0785L67.0376 92.1471L68.1842 91.7077C68.478 91.9937 68.803 92.2433 69.1566 92.4565L69.0318 93.6837L70.2538 94.1309L70.9454 93.1143C71.2288 93.1637 71.5174 93.1897 71.806 93.1897C71.9282 93.1897 72.053 93.1897 72.1726 93.1741L72.768 94.2427L74.029 93.9047L74.0108 92.6957C74.3878 92.5163 74.744 92.2953 75.069 92.0301L76.1558 92.5527L76.993 91.5569L76.2988 90.5897C76.512 90.2231 76.6758 89.8305 76.7928 89.4249L77.9628 89.2299L78.0746 87.9325L76.9722 87.5399C76.928 87.1135 76.8318 86.6949 76.6862 86.2919L77.5208 85.4729L76.8682 84.3445L75.745 84.6539C75.4668 84.3289 75.1496 84.0403 74.7986 83.7933L75.0118 82.6467L73.8314 82.0955L73.0904 82.9951C72.677 82.8885 72.261 82.8339 71.845 82.8339ZM71.8216 85.8421C73.0228 85.8421 73.9952 86.8145 73.9952 88.0157C73.9952 89.2169 73.0228 90.1893 71.8216 90.1893C70.6204 90.1893 69.648 89.2169 69.648 88.0157C69.648 86.8145 70.6204 85.8421 71.8216 85.8421Z" fill="#0085E5" stroke="#263238" stroke-width="0.26" stroke-miterlimit="10"/>
<path d="M80.5913 74.4118V72.7842C79.1119 72.5294 78.1213 71.1228 78.3761 69.646C78.5711 68.5124 79.4603 67.3502 80.5913 67.1552V64.8984L79.5903 65.0752L79.5149 66.058C79.1847 66.1854 78.8701 66.3518 78.5815 66.5546L77.7209 66.045L76.9487 66.8146L77.4583 67.6804C77.1203 68.177 76.8915 68.7412 76.7823 69.3314L75.7969 69.5706V70.66L76.7901 70.8992C76.8551 71.2372 76.9591 71.5674 77.1021 71.882L76.4261 72.6594L77.0501 73.5512L78.0069 73.1846C78.2513 73.4238 78.5243 73.6344 78.8181 73.8086L78.7115 74.8356L79.7333 75.2074L80.3105 74.3598C80.4145 74.391 80.5029 74.4014 80.5913 74.4118Z" fill="#263238"/>
<path d="M57.4775 66.9981L56.5051 65.8177L54.9555 66.5405L55.2337 68.0433C54.7735 68.3657 54.3575 68.7453 53.9935 69.1717L52.5193 68.7661L51.6613 70.2481L52.7559 71.3245C52.5635 71.8523 52.4361 72.4035 52.3789 72.9625L50.9307 73.4773L51.0763 75.1803L52.6103 75.4351C52.7611 75.9707 52.9769 76.4855 53.2577 76.9639L52.3477 78.2353L53.4449 79.5431L54.8697 78.8593C55.2961 79.2051 55.7615 79.4963 56.2581 79.7303L56.2347 81.3163L57.8883 81.7609L58.6709 80.3595C58.8295 80.3777 58.9907 80.3777 59.1519 80.3777C59.5289 80.3777 59.9085 80.3439 60.2803 80.2789L61.1851 81.6127L62.7893 81.0251L62.6229 79.4157C63.0831 79.1375 63.5121 78.8099 63.8969 78.4355L65.3997 79.0101L66.3773 77.6087L65.3217 76.3867C65.5453 75.8953 65.7091 75.3805 65.8105 74.8501L67.3705 74.4549V72.7441L65.8209 72.3671C65.6519 71.4389 65.2905 70.5549 64.7601 69.7723L65.5687 68.4151L64.3701 67.2035L63.0207 68.0017C62.5657 67.6845 62.0743 67.4245 61.5543 67.2269L61.4347 65.6773L59.7343 65.3809L59.0947 66.7875C58.5539 66.7953 58.0079 66.8655 57.4775 66.9981ZM59.1311 69.3225C61.4893 69.3225 63.4029 71.2335 63.4029 73.5943C63.4029 75.9525 61.4919 77.8661 59.1311 77.8661C56.7703 77.8661 54.8593 75.9525 54.8593 73.5943C54.8593 71.2335 56.7729 69.3225 59.1311 69.3225Z" fill="#263238"/>
<path d="M56.6347 66.5264L55.6623 65.346L54.1127 66.0688L54.3909 67.5716C53.9307 67.894 53.5147 68.2736 53.1507 68.7L51.6765 68.2944L50.8185 69.7764L51.9131 70.8528C51.7207 71.3806 51.5933 71.9318 51.5361 72.4908L50.0879 73.0056L50.2335 74.7086L51.7675 74.9634C51.9183 75.499 52.1341 76.0138 52.4149 76.4922L51.5049 77.7636L52.6021 79.0714L54.0269 78.3876C54.4533 78.7334 54.9187 79.0246 55.4153 79.2586L55.3919 80.8446L57.0455 81.2892L57.8281 79.8878C57.9867 79.906 58.1479 79.906 58.3091 79.906C58.6861 79.906 59.0657 79.8722 59.4375 79.8072L60.3423 81.141L61.9465 80.5534L61.7801 78.944C62.2403 78.6658 62.6693 78.3382 63.0541 77.9638L64.5569 78.5384L65.5345 77.137L64.4789 75.915C64.7025 75.4236 64.8663 74.9088 64.9677 74.3784L66.5277 73.9832V72.2724L64.9781 71.8954C64.8091 70.9672 64.4477 70.0832 63.9173 69.3006L64.7259 67.9434L63.5273 66.7318L62.1779 67.53C61.7229 67.2128 61.2315 66.9528 60.7115 66.7552L60.5919 65.2056L58.8915 64.9092L58.2519 66.3158C57.7111 66.3236 57.1651 66.3912 56.6347 66.5264ZM58.2883 68.8508C60.6465 68.8508 62.5601 70.7618 62.5601 73.1226C62.5601 75.4808 60.6491 77.3944 58.2883 77.3944C55.9301 77.3944 54.0165 75.4834 54.0165 73.1226C54.0165 70.7618 55.9301 68.8508 58.2883 68.8508Z" fill="#0085E5" stroke="#263238" stroke-width="0.26" stroke-miterlimit="10"/>
<path d="M48.3066 95.4912L49.2114 96.8224L50.8156 96.24L50.6492 94.628C51.112 94.3524 51.5384 94.0248 51.9232 93.6478L53.426 94.2224L54.4062 92.8236L53.3454 91.6016C53.569 91.1102 53.7328 90.5928 53.8342 90.0598L55.3942 89.6828V87.972L53.8446 87.595C53.6756 86.6668 53.3142 85.7828 52.7838 85.0002L53.5846 83.6404L52.373 82.434L51.0236 83.2348C50.5686 82.915 50.0772 82.655 49.5572 82.4574L49.4376 80.913L47.8672 80.6348V84.6128C49.6456 84.9196 51.0392 86.3132 51.346 88.0916C51.7464 90.4134 50.189 92.6208 47.8672 93.0212V95.577C48.0128 95.5614 48.1532 95.5458 48.3066 95.4912Z" fill="#263238"/>
<path d="M48.3066 94.4795L49.2114 95.8106L50.8156 95.2283L50.6492 93.6163C51.112 93.3406 51.5384 93.0131 51.9232 92.6361L53.426 93.2107L54.4062 91.8118L53.3454 90.5899C53.569 90.0985 53.7328 89.581 53.8342 89.048L55.3942 88.6711V86.9602L53.8446 86.5833C53.6756 85.6551 53.3142 84.771 52.7838 83.9884L53.5846 82.6286L52.373 81.4223L51.0236 82.223C50.5686 81.9032 50.0772 81.6432 49.5572 81.4456L49.4376 79.9012L47.8672 79.623V83.6011C49.6456 83.9079 51.0392 85.3015 51.346 87.0799C51.7464 89.4017 50.189 91.6091 47.8672 92.0095V94.5652C48.0128 94.5496 48.1532 94.5341 48.3066 94.4795Z" fill="#0085E5" stroke="#263238" stroke-width="0.26" stroke-miterlimit="10"/>
<path d="M57.7394 46.0547L57.0894 44.6221L55.3578 44.9237L55.2356 46.5019C54.7078 46.7021 54.206 46.9673 53.7406 47.2923L52.3652 46.4811L51.1432 47.7135L51.9674 49.0967C51.4292 49.8923 51.06 50.7945 50.8858 51.7409L49.3076 52.1231V53.8651L50.8988 54.2681C51.0002 54.8089 51.1692 55.3341 51.398 55.8359L50.3216 57.0813L51.3174 58.5113L52.8488 57.9263C53.2414 58.3085 53.6782 58.6439 54.1488 58.9273L53.9798 60.5679L55.6152 61.1659L56.5382 59.8061C56.9178 59.8711 57.3026 59.9049 57.6874 59.9049C57.8512 59.9049 58.0176 59.9049 58.1788 59.8867L58.9744 61.3167L60.6592 60.8643L60.6358 59.2471C61.1402 59.0079 61.616 58.7089 62.0502 58.3579L63.501 59.0547L64.619 57.7209L63.6908 56.4261C63.9742 55.9347 64.1952 55.4121 64.3486 54.8661L65.9112 54.6061L66.0594 52.8693L64.5852 52.3441C64.528 51.7747 64.398 51.2131 64.203 50.6749L65.3184 49.5803L64.4448 48.0697L62.942 48.4831C62.5702 48.0489 62.1464 47.6615 61.6784 47.3339L61.9618 45.8025L60.3836 45.0667L59.3904 46.2705C58.8548 46.1275 58.2984 46.0573 57.7394 46.0547ZM57.7082 50.0795C59.3124 50.0795 60.615 51.3821 60.615 52.9863C60.615 54.5905 59.3124 55.8931 57.7082 55.8931C56.104 55.8931 54.8014 54.5905 54.8014 52.9863C54.8014 51.3821 56.104 50.0795 57.7082 50.0795Z" fill="#0085E5" stroke="#263238" stroke-width="0.26" stroke-miterlimit="10"/>
<path d="M81.0955 73.9965V72.3689C79.6161 72.1141 78.6255 70.7075 78.8803 69.2307C79.0753 68.0971 79.9645 67.2105 81.0955 67.0155V64.4805L80.0945 64.6573L80.0191 65.6401C79.6889 65.7675 79.3743 65.9339 79.0857 66.1367L78.2251 65.6271L77.4555 66.3967L77.9651 67.2625C77.6271 67.7591 77.3983 68.3233 77.2891 68.9135L76.3037 69.1527V70.2421L77.2969 70.4813C77.3619 70.8193 77.4659 71.1495 77.6089 71.4641L76.9329 72.2415L77.5569 73.1333L78.5137 72.7667C78.7581 73.0059 79.0311 73.2165 79.3249 73.3907L79.2183 74.4177L80.2401 74.7895L80.8173 73.9419C80.9187 73.9783 81.0071 73.9887 81.0955 73.9965Z" fill="#0085E5" stroke="#263238" stroke-width="0.26" stroke-miterlimit="10"/>
<path d="M57.6879 57.203C60.017 57.203 61.9051 55.3148 61.9051 52.9858C61.9051 50.6567 60.017 48.7686 57.6879 48.7686C55.3588 48.7686 53.4707 50.6567 53.4707 52.9858C53.4707 55.3148 55.3588 57.203 57.6879 57.203Z" stroke="white" stroke-width="0.26" stroke-miterlimit="10"/>
<path d="M58.1767 78.6347C61.2223 78.6347 63.6913 76.1657 63.6913 73.1201C63.6913 70.0744 61.2223 67.6055 58.1767 67.6055C55.1311 67.6055 52.6621 70.0744 52.6621 73.1201C52.6621 76.1657 55.1311 78.6347 58.1767 78.6347Z" stroke="white" stroke-width="0.26" stroke-miterlimit="10"/>
<path d="M71.8033 91.3311C73.6427 91.3311 75.1339 89.84 75.1339 88.0005C75.1339 86.1611 73.6427 84.6699 71.8033 84.6699C69.9638 84.6699 68.4727 86.1611 68.4727 88.0005C68.4727 89.84 69.9638 91.3311 71.8033 91.3311Z" stroke="#263238" stroke-width="0.26" stroke-miterlimit="10"/>
<path d="M24.0932 43.4202C24.9252 43.9818 25.8586 44.4186 26.5554 45.1414C27.3744 45.989 27.7878 47.1746 27.8476 48.3498C27.9048 49.5276 27.6292 50.7002 27.208 51.8C26.961 52.45 26.649 53.1 26.1264 53.5602C25.635 53.9944 24.9954 54.2284 24.3532 54.3558C23.0974 54.608 21.7844 54.491 20.5572 54.1244C19.4756 53.802 18.4356 53.2716 17.6556 52.4552C17.0342 51.8052 16.6 51.0018 16.2438 50.1776C15.6926 48.8984 15.313 47.5412 15.1804 46.1554C15.053 44.8164 15.1518 43.467 15.2532 42.1254C15.3364 41.0178 15.4196 39.9102 15.5028 38.8052C15.547 38.202 15.4794 36.6394 16.2412 36.3898C16.8704 36.1844 17.8454 37.2296 18.2692 37.6092C19.5952 38.8 20.6742 40.2274 21.904 41.5118C22.5748 42.2164 23.2898 42.8794 24.0932 43.4202Z" fill="#263238"/>
<path d="M20.4999 48.3553C20.4999 48.3553 23.5965 48.5841 25.1643 47.6091C26.7321 46.6341 30.2863 50.6069 30.2863 50.6069L29.0617 71.3913C29.0617 71.3913 25.9469 72.0491 24.0255 71.1339C22.1041 70.2187 21.1577 70.2629 20.6975 69.1657C20.2373 68.0685 20.2295 66.2459 18.2431 64.6573C16.2567 63.0713 16.2541 62.2445 15.6405 61.2435C15.0243 60.2425 13.0379 58.8489 12.9001 57.7413C12.7623 56.6337 12.9677 53.8439 12.9677 53.8439L16.7637 50.8903C16.7611 50.8903 17.6919 47.6117 20.4999 48.3553Z" fill="#FFA000"/>
<path opacity="0.1" d="M22.9235 51.3141C23.0431 52.6791 23.3317 54.0311 23.7789 55.3259C22.1357 55.3675 20.5029 55.8173 19.0703 56.6233C20.1753 58.3003 21.5611 59.7927 23.1497 61.0199C23.5163 60.5519 24.0441 60.2113 24.6239 60.0761C24.8475 60.0241 25.0815 60.0007 25.2999 59.9279C25.5079 59.8577 25.6977 59.7459 25.8823 59.6263C27.9207 58.3003 29.2389 55.9343 29.2987 53.5033C29.3325 52.0681 28.9529 50.6459 28.3601 49.3381C27.8791 48.2747 27.1433 47.1879 26.0097 46.9045C25.4195 46.7563 24.7955 46.8499 24.2027 46.9851C23.7399 47.0917 23.0587 47.1775 22.6557 47.4375C22.0265 47.8405 22.2033 47.7079 22.4113 48.4021C22.7051 49.3823 22.8351 50.2897 22.9235 51.3141Z" fill="black"/>
<path d="M18.4643 38.3431C18.4643 38.3431 20.1023 41.1745 20.5807 42.5551C21.0591 43.9357 20.9525 45.4827 20.8537 46.0365C20.8537 46.0365 20.9473 46.9907 21.5635 48.1789L22.5697 48.3557C22.5697 48.3557 23.9607 51.2755 24.0439 55.5811C24.0439 55.5811 21.6727 52.5807 20.0295 51.7955C18.3863 51.0103 18.7243 51.0961 18.7243 51.0961C18.7243 51.0961 17.3827 48.7301 16.6807 48.0047C15.9787 47.2793 12.9445 49.6401 12.9445 49.6401L9.78809 44.5987L11.3455 41.6607L13.4593 40.0201L15.5289 38.3379H16.6807H18.4643V38.3431Z" fill="white"/>
<path d="M31.0376 109.551C32.0698 110.89 33.6324 111.81 35.3042 112.057C35.6968 112.117 36.196 112.083 36.3598 111.722C36.4326 111.563 36.417 111.378 36.3858 111.207C36.0062 108.955 33.8534 107.491 32.699 105.521C32.3714 104.964 31.9398 103.526 31.2274 103.63C30.905 103.677 30.008 104.657 29.8468 104.972C29.1552 106.316 30.2212 108.492 31.0376 109.551Z" fill="white" stroke="#263238" stroke-width="0.26" stroke-miterlimit="10"/>
<path d="M29.8467 104.973C29.8467 104.973 30.0209 107.443 31.5913 108.883C33.1617 110.323 33.5829 111.135 36.3857 111.207" fill="white"/>
<path d="M29.8467 104.973C29.8467 104.973 30.0209 107.443 31.5913 108.883C33.1617 110.323 33.5829 111.135 36.3857 111.207" stroke="#263238" stroke-width="0.26" stroke-miterlimit="10"/>
<path d="M38.2166 100.458C38.2166 100.458 37.7252 103.263 38.7912 104.675C39.8572 106.087 40.9232 105.785 42.647 106.1C43.791 106.308 44.7426 107.127 45.9594 106.825C47.0488 106.555 46.3702 105.765 45.8502 105.33C44.7036 104.371 43.3516 103.687 42.1972 102.738C40.1874 101.085 40.5384 99.626 40.5384 99.626L38.2166 100.458Z" fill="white" stroke="#263238" stroke-width="0.26" stroke-miterlimit="10"/>
<path d="M38.4141 103.968C38.8769 104.267 39.1317 104.652 39.6101 104.919C40.2991 105.304 41.1389 105.247 41.9241 105.322C42.3843 105.367 42.8419 105.46 43.2839 105.601C43.7623 105.754 44.2303 105.962 44.7295 106.024C45.2131 106.084 45.7149 105.998 46.1491 105.78" stroke="#263238" stroke-width="0.26" stroke-miterlimit="10"/>
<path d="M24.327 71.1387C24.327 71.1387 22.286 77.9741 24.327 85.1163C26.368 92.2585 24.4284 96.6447 28.9186 105.521C28.9186 105.521 31.0194 107.255 32.4676 104.705C32.4676 104.705 32.0568 94.8091 31.3548 92.4613C30.6528 90.1135 33.6662 84.9915 32.6704 80.1061C31.6746 75.2181 29.5322 71.1387 29.5322 71.1387C29.5322 71.1387 26.1652 71.8537 24.327 71.1387Z" fill="#263238"/>
<path d="M34.374 87.8597C34.374 87.8597 35.869 97.7943 37.7358 101.528C37.7358 101.528 39.9016 103.096 41.2458 101.081C41.2458 101.081 41.394 84.5733 40.0498 83.3045C38.7056 82.0331 34.374 87.8597 34.374 87.8597Z" fill="#263238"/>
<path d="M57.764 23.0146L66.5962 81.4418C66.7808 82.6664 65.9384 83.8078 64.7138 83.9924L32.9886 88.7868C32.3906 88.8778 31.8108 88.7218 31.3532 88.3968C30.8748 88.0562 30.5316 87.531 30.4354 86.9044L21.6084 28.4824C21.4238 27.2578 22.2662 26.1164 23.4908 25.9318L55.2134 21.1348C56.1416 20.9944 57.0256 21.4468 57.4754 22.206C57.621 22.4478 57.7198 22.7208 57.764 23.0146Z" fill="white"/>
<path d="M55.0862 27.1375L50.9316 27.7656L50.9857 28.123L55.1402 27.4948L55.0862 27.1375Z" fill="#263238"/>
<path d="M54.9319 26.1101L50.7773 26.7383L50.8314 27.0956L54.9859 26.4675L54.9319 26.1101Z" fill="#263238"/>
<path d="M54.7756 25.0828L50.6211 25.7109L50.6751 26.0683L54.8297 25.4402L54.7756 25.0828Z" fill="#263238"/>
<path d="M56.906 65.2098L57.3272 67.997C57.4546 68.8394 56.8774 69.622 56.035 69.7494L36.9926 72.6276C36.1502 72.755 35.365 72.1778 35.2376 71.3354L34.8164 68.5482C34.689 67.7058 35.2688 66.9206 36.1112 66.7932L55.1536 63.915C55.9934 63.7876 56.7786 64.3674 56.906 65.2098Z" fill="#0085E5"/>
<path d="M42.9051 67.9268L42.6087 69.648L42.2863 69.6974L41.6987 68.5456L41.4699 69.8222L41.1449 69.8716L40.3545 68.3142L40.6717 68.2674L41.2671 69.453L41.5037 68.1426L41.7845 68.101L42.3877 69.2918L42.6165 67.9762L42.9051 67.9268Z" fill="#263238"/>
<path d="M44.3717 68.8398L43.3915 68.988C43.4539 69.1648 43.6229 69.2584 43.8413 69.2272C43.9817 69.2064 44.0857 69.144 44.1611 69.04L44.3457 69.196C44.2521 69.3468 44.0883 69.443 43.8725 69.4768C43.4539 69.5392 43.1419 69.313 43.0847 68.9386C43.0275 68.5668 43.2616 68.2574 43.6334 68.2028C43.9974 68.1482 44.3041 68.3614 44.3639 68.754C44.3665 68.7748 44.3691 68.8112 44.3717 68.8398ZM43.3577 68.793L44.0675 68.6864C44.0181 68.5096 43.8595 68.4056 43.6671 68.4368C43.4799 68.4628 43.3603 68.6058 43.3577 68.793Z" fill="#263238"/>
<path d="M44.4756 67.5891L44.7694 67.5449L45.032 69.2817L44.7382 69.3259L44.4756 67.5891Z" fill="#263238"/>
<path d="M45.2163 68.6165C45.1591 68.2421 45.4009 67.9353 45.7961 67.8755C46.0405 67.8391 46.2485 67.9093 46.3733 68.0861L46.1679 68.2525C46.0743 68.1433 45.9547 68.1069 45.8299 68.1251C45.6141 68.1589 45.4737 68.3331 45.5101 68.5723C45.5465 68.8167 45.7337 68.9389 45.9495 68.9051C46.0743 68.8869 46.1783 68.8167 46.2355 68.6841L46.4799 68.7803C46.4123 68.9831 46.2329 69.1157 45.9911 69.1547C45.5959 69.2145 45.2735 68.9909 45.2163 68.6165Z" fill="#263238"/>
<path d="M46.5601 68.4127C46.5029 68.0383 46.7447 67.7315 47.1295 67.6717C47.5195 67.6119 47.8367 67.8355 47.8939 68.2099C47.9511 68.5843 47.7119 68.8937 47.3245 68.9535C46.9371 69.0107 46.6147 68.7871 46.5601 68.4127ZM47.5975 68.2541C47.5611 68.0149 47.3791 67.8875 47.1659 67.9187C46.9553 67.9499 46.8201 68.1267 46.8539 68.3659C46.8903 68.6051 47.0723 68.7325 47.2829 68.7013C47.4961 68.6701 47.6339 68.4933 47.5975 68.2541Z" fill="#263238"/>
<path d="M50.2524 67.7618L50.3616 68.4794L50.0678 68.5236L49.9664 67.845C49.9326 67.6214 49.813 67.5304 49.6362 67.5564C49.4438 67.585 49.3294 67.7306 49.3684 67.9802L49.4646 68.6146L49.1708 68.6587L49.0694 67.9802C49.0356 67.7566 48.916 67.6655 48.7392 67.6915C48.5442 67.7201 48.4324 67.8657 48.4714 68.1153L48.5676 68.7498L48.2738 68.794L48.084 67.5434L48.3622 67.5018L48.3856 67.6603C48.461 67.5329 48.5988 67.4497 48.7704 67.4237C48.9524 67.3951 49.1162 67.442 49.2228 67.5694C49.3034 67.4264 49.4594 67.3198 49.6596 67.2912C49.9586 67.247 50.1952 67.3848 50.2524 67.7618Z" fill="#263238"/>
<path d="M51.8385 67.7114L50.8583 67.8596C50.9207 68.0364 51.0897 68.13 51.3081 68.0988C51.4485 68.078 51.5526 68.0156 51.628 67.9116L51.8125 68.0676C51.7215 68.2184 51.5552 68.3146 51.3394 68.3484C50.9208 68.4108 50.6087 68.1846 50.5515 67.8102C50.4943 67.4384 50.7283 67.129 51.1001 67.0718C51.4641 67.0172 51.771 67.233 51.8308 67.623C51.8334 67.6464 51.8359 67.6828 51.8385 67.7114ZM50.8245 67.6646L51.5344 67.558C51.485 67.3812 51.3263 67.2772 51.1339 67.3084C50.9441 67.3344 50.8245 67.4774 50.8245 67.6646Z" fill="#263238"/>
<path d="M62.1844 73.618L32.375 78.125L32.4555 78.6572L62.2648 74.1502L62.1844 73.618Z" fill="#263238"/>
<path d="M62.4031 75.0692L32.5938 79.5762L32.6742 80.1083L62.4836 75.6014L62.4031 75.0692Z" fill="#263238"/>
<path d="M62.6238 76.5165L32.8145 81.0234L32.8949 81.5556L62.7043 77.0486L62.6238 76.5165Z" fill="#263238"/>
<path d="M62.8426 77.9676L33.0332 82.4746L33.1137 83.0068L62.923 78.4998L62.8426 77.9676Z" fill="#263238"/>
<path opacity="0.1" d="M56.906 65.2098L57.3272 67.997C57.4546 68.8394 56.8774 69.622 56.035 69.7494L36.9926 72.6276C36.1502 72.755 35.365 72.1778 35.2376 71.3354L35.2324 71.3042C38.7372 71.3432 50.9754 70.9688 54.9092 63.9514L55.1536 63.915C55.9934 63.7876 56.7786 64.3674 56.906 65.2098Z" fill="black"/>
<path d="M56.906 65.2098L57.3272 67.997C57.4546 68.8394 56.8774 69.622 56.035 69.7494L36.9926 72.6276C36.1502 72.755 35.365 72.1778 35.2376 71.3354L34.8164 68.5482C34.689 67.7058 35.2688 66.9206 36.1112 66.7932L55.1536 63.915C55.9934 63.7876 56.7786 64.3674 56.906 65.2098Z" stroke="#263238" stroke-width="0.26" stroke-miterlimit="10" stroke-linecap="round" stroke-linejoin="round"/>
<path d="M43.1886 60.9251C43.2276 61.1773 43.0534 61.4139 42.8012 61.4503C42.549 61.4893 42.3124 61.3151 42.276 61.0629C42.237 60.8107 42.4112 60.5741 42.6634 60.5377C42.9156 60.4987 43.1496 60.6729 43.1886 60.9251Z" fill="#263238"/>
<path d="M45.3702 60.595C45.4092 60.8472 45.235 61.0838 44.9828 61.1202C44.7306 61.1592 44.494 60.985 44.4576 60.7328C44.4186 60.4806 44.5928 60.244 44.845 60.2076C45.0972 60.1686 45.3338 60.3428 45.3702 60.595Z" fill="#263238"/>
<path d="M47.5538 60.2649C47.5928 60.5171 47.4186 60.7537 47.1664 60.7901C46.9142 60.8291 46.6776 60.6549 46.6412 60.4027C46.6022 60.1505 46.7764 59.9139 47.0286 59.8775C47.2808 59.8385 47.5148 60.0127 47.5538 60.2649Z" fill="#263238"/>
<path d="M40.742 29.489L26.312 31.6704C25.7816 31.751 25.285 31.3844 25.2044 30.854L25.1576 30.5472C25.077 30.0168 25.4436 29.5202 25.974 29.4396L40.404 27.2582C40.9344 27.1776 41.431 27.5442 41.5116 28.0746L41.5584 28.3814C41.639 28.9118 41.2724 29.4084 40.742 29.489Z" fill="white" stroke="#263238" stroke-width="0.26" stroke-miterlimit="10"/>
<path d="M26.7149 31.062L26.5459 29.9492" stroke="#263238" stroke-width="0.26" stroke-miterlimit="10" stroke-linecap="round" stroke-linejoin="round"/>
<path d="M55.7087 31.2582L25.9482 35.7578L29.7847 61.1324L59.5452 56.6328L55.7087 31.2582Z" fill="#0085E5"/>
<path opacity="0.5" d="M55.7087 31.2582L25.9482 35.7578L29.7847 61.1324L59.5452 56.6328L55.7087 31.2582Z" fill="white"/>
<path d="M55.7087 31.2582L25.9482 35.7578L29.7847 61.1324L59.5452 56.6328L55.7087 31.2582Z" stroke="#263238" stroke-width="0.26" stroke-miterlimit="10"/>
<path d="M53.5357 39.5579C54.4809 38.2602 54.1952 36.442 52.8976 35.4968C51.6 34.5515 49.7818 34.8372 48.8365 36.1348C47.8913 37.4324 48.1769 39.2506 49.4746 40.1959C50.7722 41.1411 52.5904 40.8555 53.5357 39.5579Z" fill="#0085E5" stroke="#263238" stroke-width="0.26" stroke-miterlimit="10"/>
<path d="M57.4126 42.5547L59.542 56.6337L29.7824 61.1317L28.4512 52.3281C29.3612 50.2611 30.7158 47.8535 32.2966 47.1541C35.2294 45.8567 38.248 54.5043 43.8172 53.0925C49.3864 51.6807 50.4238 42.6171 57.4126 42.5547Z" fill="#0085E5"/>
<path opacity="0.1" d="M57.4126 42.5547L59.542 56.6337L29.7824 61.1317L28.4512 52.3281C29.3612 50.2611 30.7158 47.8535 32.2966 47.1541C35.2294 45.8567 38.248 54.5043 43.8172 53.0925C49.3864 51.6807 50.4238 42.6171 57.4126 42.5547Z" fill="black"/>
<path d="M57.4126 42.5547L59.542 56.6337L29.7824 61.1317L28.4512 52.3281C29.3612 50.2611 30.7158 47.8535 32.2966 47.1541C35.2294 45.8567 38.248 54.5043 43.8172 53.0925C49.3864 51.6807 50.4238 42.6171 57.4126 42.5547Z" stroke="#263238" stroke-width="0.26" stroke-miterlimit="10"/>
<path opacity="0.1" d="M57.7643 23.0153L66.5965 81.4425C66.7811 82.6671 65.9387 83.8085 64.7141 83.9931L32.9889 88.7875C32.3909 88.8785 31.8111 88.7225 31.3535 88.3975C38.4229 82.1289 60.7075 59.2463 57.4731 22.2041C57.6213 22.4485 57.7201 22.7215 57.7643 23.0153Z" fill="black"/>
<path d="M57.764 23.0146L66.5962 81.4418C66.7808 82.6664 65.9384 83.8078 64.7138 83.9924L32.9886 88.7868C32.3906 88.8778 31.8108 88.7218 31.3532 88.3968C30.8748 88.0562 30.5316 87.531 30.4354 86.9044L21.6084 28.4824C21.4238 27.2578 22.2662 26.1164 23.4908 25.9318L55.2134 21.1348C56.1416 20.9944 57.0256 21.4468 57.4754 22.206C57.621 22.4478 57.7198 22.7208 57.764 23.0146Z" stroke="#263238" stroke-width="0.26" stroke-miterlimit="10"/>
<path d="M18.7923 38.8213C18.7923 38.8213 20.5109 42.2039 20.9399 43.4415C21.3689 44.6791 20.9321 46.7227 19.8505 47.6431C18.7715 48.5635 17.5625 48.5037 16.2183 47.8407C14.8767 47.1751 13.5143 46.1637 13.5117 46.1611C13.4857 46.1403 13.2699 46.1819 13.2309 46.1819C12.9657 46.1793 11.9205 45.7763 11.5669 45.1185C10.6881 43.4909 12.6277 44.0707 13.0177 44.3385" stroke="#263238" stroke-width="0.26" stroke-miterlimit="10" stroke-linecap="round" stroke-linejoin="round"/>
<path d="M18.4648 42.2891C18.6442 42.7051 18.9536 43.0665 19.3384 43.3083C19.4944 43.4045 19.6738 43.4929 19.7544 43.6593C19.8428 43.8335 19.7934 44.0519 19.6816 44.2131C19.5698 44.3743 19.406 44.4887 19.2474 44.6005" stroke="#263238" stroke-width="0.26" stroke-miterlimit="10" stroke-linecap="round" stroke-linejoin="round"/>
<path d="M17.7344 45.9004C17.7344 45.9004 18.3454 46.1994 18.9616 45.9134" stroke="#263238" stroke-width="0.26" stroke-miterlimit="10" stroke-linecap="round" stroke-linejoin="round"/>
<path d="M17.3434 43.2153C17.45 43.4415 17.4578 43.665 17.3616 43.7092C17.2628 43.756 17.0964 43.6105 16.9898 43.3816C16.8832 43.1554 16.8754 42.9319 16.9716 42.8877C17.0704 42.8409 17.2368 42.9865 17.3434 43.2153Z" fill="#263238"/>
<path d="M19.3248 41.8812C19.4314 42.1074 19.4392 42.331 19.343 42.3752C19.2442 42.422 19.0778 42.2764 18.9712 42.0476C18.8646 41.8214 18.8568 41.5978 18.953 41.5536C19.0492 41.5068 19.2182 41.655 19.3248 41.8812Z" fill="#263238"/>
<path d="M16.7617 41.9072C16.7617 41.9072 15.9427 41.9098 15.7451 42.903" stroke="#263238" stroke-width="0.26" stroke-miterlimit="10" stroke-linecap="round" stroke-linejoin="round"/>
<path d="M18.2256 41.0254C18.2256 41.0254 18.5194 40.3676 19.0654 40.755" stroke="#263238" stroke-width="0.26" stroke-miterlimit="10" stroke-linecap="round" stroke-linejoin="round"/>
<path d="M12.8745 44.2593C12.9213 44.2931 15.3783 42.9905 15.6643 39.2959C15.6643 39.2959 17.0735 40.3723 19.3667 39.4753C19.3667 39.4753 17.4817 35.5883 14.7179 36.1239C11.9541 36.6595 9.54653 38.4873 9.45293 41.7217C9.38533 44.0227 9.87153 46.3133 9.88973 48.6169C9.90013 49.7817 9.82473 50.9673 9.47633 52.0853C8.89133 53.9599 7.57053 55.2157 8.13733 57.3347C8.55853 58.9025 9.94693 60.7147 11.6239 60.4963C12.3311 60.4053 13.9509 59.9919 14.2213 59.6669C13.6545 58.8219 13.4049 58.0471 13.3841 57.7403C13.2489 55.8371 13.6883 55.1117 13.6883 55.1117L18.0901 50.0313L16.8655 48.1099L13.5167 46.1599C13.5167 46.1599 12.1283 46.3185 11.3665 44.5973C11.2209 43.5781 12.8745 44.2593 12.8745 44.2593Z" fill="#263238"/>
<path d="M23.241 61.2462C23.241 61.2462 19.8896 58.6852 18.4102 55.8408" stroke="#263238" stroke-width="0.26" stroke-miterlimit="10" stroke-linecap="round" stroke-linejoin="round"/>
<path d="M25.1649 60.1852C25.0765 59.946 24.7281 59.9226 24.5071 60.05C24.2861 60.18 24.1405 60.4036 23.9377 60.5596C23.7869 60.6766 23.6075 60.7572 23.4853 60.9028C23.3501 61.0614 23.3033 61.2772 23.2669 61.4826C23.1187 62.3536 23.1057 63.248 23.2305 64.1242" stroke="#263238" stroke-width="0.26" stroke-miterlimit="10" stroke-linecap="round" stroke-linejoin="round"/>
<path d="M22.2168 64.1264C22.287 63.4478 22.456 62.7822 22.7134 62.1504" stroke="#263238" stroke-width="0.26" stroke-miterlimit="10" stroke-linecap="round" stroke-linejoin="round"/>
<path d="M26.5449 64.8838C26.8361 65.1256 26.8413 65.6326 26.5553 65.8796C26.4487 65.9732 26.3135 66.0278 26.1939 66.1058C25.8273 66.345 25.6245 66.774 25.2891 67.0548C24.8263 67.4448 24.0541 67.4786 23.6459 67.0288C23.3027 66.6518 23.2195 65.8484 23.2377 65.3388" stroke="#263238" stroke-width="0.26" stroke-miterlimit="10" stroke-linecap="round" stroke-linejoin="round"/>
<path d="M23.4513 67.0515C21.2699 67.3089 14.2213 59.6675 14.2213 59.6675C13.1683 58.3779 13.1475 56.3941 13.9327 54.9173C14.6841 53.5055 16.1687 52.6215 17.0371 51.2773" stroke="#263238" stroke-width="0.26" stroke-miterlimit="10" stroke-linecap="round" stroke-linejoin="round"/>
<path d="M17.0527 48.2744C17.6793 49.0804 18.1603 49.8318 18.4099 50.8198" stroke="#263238" stroke-width="0.26" stroke-miterlimit="10" stroke-linecap="round" stroke-linejoin="round"/>
<path d="M20.8536 46.0352C20.8458 47.1064 21.3034 48.006 22.0704 48.7652" stroke="#263238" stroke-width="0.26" stroke-miterlimit="10" stroke-linecap="round" stroke-linejoin="round"/>
<path d="M17.4693 50.5049C16.9493 51.0431 17.1677 52.1663 17.8203 52.5329C18.5119 52.9229 19.3933 52.5771 20.1629 52.7643C20.2695 52.7903 20.3761 52.8267 20.4515 52.9047C20.5893 53.0399 20.5945 53.2557 20.5997 53.4507C20.6101 53.8589 20.6803 54.3191 21.0157 54.5505C21.2211 54.6935 21.4837 54.7169 21.7255 54.7741C23.0541 55.0835 23.9485 55.8973 24.6245 57.0829" stroke="#263238" stroke-width="0.26" stroke-miterlimit="10" stroke-linecap="round" stroke-linejoin="round"/>
<path d="M18.2412 50.8906C21.2858 52.1022 23.7688 54.658 24.8894 57.7364" stroke="#263238" stroke-width="0.26" stroke-miterlimit="10" stroke-linecap="round" stroke-linejoin="round"/>
<path d="M15.4951 61.0381C16.2673 63.5627 19.1169 64.7977 19.9983 67.2859C20.2219 67.9177 20.3155 68.6119 20.6951 69.1657C21.1813 69.8729 22.0341 70.2135 22.8375 70.5177C23.3835 70.7231 24.0153 71.1859 24.5639 71.3913" stroke="#263238" stroke-width="0.26" stroke-miterlimit="10" stroke-linecap="round" stroke-linejoin="round"/>
<path d="M27.1174 71.5166C26.431 71.4308 25.898 70.89 25.4716 70.3466C25.0452 69.8032 24.6396 69.2026 24.0234 68.8906" stroke="#263238" stroke-width="0.26" stroke-miterlimit="10" stroke-linecap="round" stroke-linejoin="round"/>
<path d="M21.6191 48.2512C22.5785 48.428 23.4313 48.3526 24.3439 48.0068" stroke="#263238" stroke-width="0.26" stroke-miterlimit="10" stroke-linecap="round" stroke-linejoin="round"/>
<path d="M22.6738 48.3555C23.4226 50.6357 24.2 53.4125 24.031 55.8409" stroke="#263238" stroke-width="0.26" stroke-miterlimit="10" stroke-linecap="round" stroke-linejoin="round"/>
<path d="M24.625 60.627C24.625 60.627 24.729 63.7418 26.094 65.0756C26.094 65.0756 29.4636 61.7398 30.8988 59.6754C32.3366 57.6136 33.9356 55.1644 34.4062 53.4536C34.8768 51.7428 33.6808 51.28 33.6808 51.28C33.6808 51.28 33.322 50.3076 32.9554 50.4168C32.5888 50.526 31.9804 52.3122 31.9804 52.3122C31.9804 52.3122 31.5982 51.3918 30.8442 52.736C30.0876 54.0776 29.7262 54.6912 30.2488 55.9132L27.2796 58.8096L24.625 60.627Z" fill="white"/>
<path d="M31.5592 53.4362C31.5592 53.4362 32.2014 51.663 31.5592 52.0452C30.917 52.4274 30.3138 53.4726 30.0876 54.0784C29.8614 54.6816 30.2462 55.9114 30.2462 55.9114C28.642 58.0512 26.1278 59.7048 24.625 60.6278" stroke="#263238" stroke-width="0.26" stroke-miterlimit="10" stroke-linecap="round" stroke-linejoin="round"/>
<path d="M31.6395 53.1938C31.6395 53.1938 32.5392 50.7186 32.9552 50.417C33.3712 50.1154 33.3712 51.0956 33.3712 51.0956C33.3712 51.0956 34.0133 51.4024 34.1251 51.7768C34.2395 52.1512 34.5412 52.4294 34.4658 53.1964C34.3904 53.9634 32.4689 57.359 32.4689 57.359C31.8397 58.6928 28.6236 62.6552 26.0938 65.0732" stroke="#263238" stroke-width="0.26" stroke-miterlimit="10" stroke-linecap="round" stroke-linejoin="round"/>
<path d="M33.3723 51.0957C33.3723 51.0957 33.2215 52.2163 33.0967 52.5595" stroke="#263238" stroke-width="0.26" stroke-miterlimit="10" stroke-linecap="round" stroke-linejoin="round"/>
<path d="M24.7068 60.5439C24.5742 60.6323 24.5612 60.8169 24.5638 60.9755C24.608 62.6135 25.2398 64.2281 26.3188 65.4605" stroke="#263238" stroke-width="0.26" stroke-miterlimit="10" stroke-linecap="round" stroke-linejoin="round"/>
<path opacity="0.2" d="M11.015 45.0273C11.5142 46.8629 11.6728 48.7947 11.4752 50.6875C11.3244 52.1487 10.963 53.5969 11.0124 55.0659C11.0618 56.5349 11.613 58.0949 12.8584 58.8749" stroke="white" stroke-width="0.26" stroke-miterlimit="10" stroke-linecap="round" stroke-linejoin="round"/>
<path opacity="0.2" d="M12.1885 42.9184C12.9919 41.5014 13.6809 40.0168 14.2425 38.4854" stroke="white" stroke-width="0.26" stroke-miterlimit="10" stroke-linecap="round" stroke-linejoin="round"/>
<path opacity="0.2" d="M11.2617 42.6693C11.8961 41.1483 11.7635 39.4089 12.2783 37.8438" stroke="white" stroke-width="0.26" stroke-miterlimit="10" stroke-linecap="round" stroke-linejoin="round"/>
<path d="M17.5674 48.2956C17.5674 48.2956 19.3042 49.1146 20.1804 48.7636C21.054 48.4126 20.6874 46.4678 20.6874 46.4678C20.6874 46.4678 19.8112 48.6596 17.5674 48.2956Z" fill="#263238"/>
</svg>
