<svg width="130" height="130" viewBox="0 0 130 130" fill="none" xmlns="http://www.w3.org/2000/svg">
<path opacity="0.03" d="M115.128 51.87H11.8301V57.174H115.128V51.87Z" fill="black"/>
<path opacity="0.03" d="M115.128 62.634H11.8301V67.938H115.128V62.634Z" fill="black"/>
<path opacity="0.03" d="M115.128 73.424H11.8301V78.728H115.128V73.424Z" fill="black"/>
<path opacity="0.03" d="M115.128 84.188H11.8301V89.492H115.128V84.188Z" fill="black"/>
<path opacity="0.03" d="M115.128 94.9519H11.8301V100.256H115.128V94.9519Z" fill="black"/>
<path d="M99.1381 46.644L86.7881 31.98L85.4881 33.28L89.9861 38.636L46.9301 74.828L36.9981 63.57C36.5041 62.998 35.7501 62.686 34.9961 62.686C34.2421 62.712 33.514 63.05 33.0201 63.648L10.998 90.688L15.028 93.964L35.1 69.316L44.694 80.184C45.6301 81.25 47.2421 81.354 48.3081 80.444L93.3401 42.588L97.8381 47.944L99.1381 46.644Z" fill="white" stroke="#263238" stroke-miterlimit="10"/>
<path d="M105.69 28.626L86.7879 31.98L91.2859 37.336L48.2299 73.528L38.2979 62.27C37.8039 61.698 37.0499 61.386 36.2959 61.386C35.5419 61.412 34.8139 61.75 34.3199 62.348L12.2979 89.388L16.3279 92.664L36.3999 68.016L45.9939 78.884C46.9299 79.95 48.5419 80.054 49.6079 79.144L94.6399 41.314L99.1379 46.67L105.69 28.626Z" fill="#263238" stroke="#263238" stroke-miterlimit="10"/>
<path d="M88.01 82.8359H63.752V112.476H88.01V82.8359Z" fill="#0186E6"/>
<path opacity="0.5" d="M88.01 82.8359H63.752V112.476H88.01V82.8359Z" fill="black" stroke="#263238" stroke-miterlimit="10" stroke-linecap="round" stroke-linejoin="round"/>
<path d="M88.01 82.8359H63.752V112.476H88.01V82.8359Z" stroke="#263238" stroke-miterlimit="10" stroke-linecap="round" stroke-linejoin="round"/>
<path d="M88.0095 82.862H63.7515L61.6455 77.844H85.9035L88.0095 82.862Z" fill="#0186E6"/>
<path opacity="0.5" d="M88.0095 82.862H63.7515L61.6455 77.844H85.9035L88.0095 82.862Z" fill="white" stroke="#263238" stroke-miterlimit="10" stroke-linecap="round" stroke-linejoin="round"/>
<path d="M88.0095 82.862H63.7515L61.6455 77.844H85.9035L88.0095 82.862Z" stroke="#263238" stroke-miterlimit="10" stroke-linecap="round" stroke-linejoin="round"/>
<path d="M61.6455 77.844V112.476H63.7515V82.836L61.6455 77.844Z" fill="#263238" stroke="#263238" stroke-miterlimit="10" stroke-linecap="round" stroke-linejoin="round"/>
<path d="M62.2443 96.0699H37.9863V112.424H62.2443V96.0699Z" fill="#0186E6" stroke="#263238" stroke-miterlimit="10" stroke-linecap="round" stroke-linejoin="round"/>
<path d="M62.2699 96.122H37.9859L35.8799 91.104H60.1639L62.2699 96.122Z" fill="#0186E6"/>
<path opacity="0.5" d="M62.2699 96.122H37.9859L35.8799 91.104H60.1639L62.2699 96.122Z" fill="white" stroke="#263238" stroke-miterlimit="10" stroke-linecap="round" stroke-linejoin="round"/>
<path d="M62.2699 96.122H37.9859L35.8799 91.104H60.1639L62.2699 96.122Z" stroke="#263238" stroke-miterlimit="10" stroke-linecap="round" stroke-linejoin="round"/>
<path d="M35.8799 91.104V112.45H37.9859V96.07L35.8799 91.104Z" fill="#263238" stroke="#263238" stroke-miterlimit="10" stroke-linecap="round" stroke-linejoin="round"/>
<path d="M36.1916 88.1659H11.9336V104.52H36.1916V88.1659Z" fill="#0186E6"/>
<path opacity="0.5" d="M36.1916 88.1659H11.9336V104.52H36.1916V88.1659Z" fill="black" stroke="#263238" stroke-miterlimit="10" stroke-linecap="round" stroke-linejoin="round"/>
<path d="M36.1916 88.1659H11.9336V104.52H36.1916V88.1659Z" stroke="#263238" stroke-miterlimit="10" stroke-linecap="round" stroke-linejoin="round"/>
<path d="M36.1918 88.192H11.9338L9.80176 83.174H34.0858L36.1918 88.192Z" fill="#0186E6"/>
<path opacity="0.5" d="M36.1918 88.192H11.9338L9.80176 83.174H34.0858L36.1918 88.192Z" fill="white" stroke="#263238" stroke-miterlimit="10" stroke-linecap="round" stroke-linejoin="round"/>
<path d="M36.1918 88.192H11.9338L9.80176 83.174H34.0858L36.1918 88.192Z" stroke="#263238" stroke-miterlimit="10" stroke-linecap="round" stroke-linejoin="round"/>
<path d="M9.80176 83.174V104.52H11.9338V88.166L9.80176 83.174Z" fill="#263238" stroke="#263238" stroke-miterlimit="10" stroke-linecap="round" stroke-linejoin="round"/>
<path opacity="0.15" d="M75.1139 81.952C80.1684 81.952 84.2659 81.2419 84.2659 80.366C84.2659 79.4901 80.1684 78.78 75.1139 78.78C70.0594 78.78 65.9619 79.4901 65.9619 80.366C65.9619 81.2419 70.0594 81.952 75.1139 81.952Z" fill="black"/>
<path d="M69.4985 77.2981C69.4985 77.2981 68.0165 79.5601 68.1205 80.1581C68.1985 80.7561 69.8625 81.4581 70.3825 81.7181C70.9025 81.9781 74.2045 82.3161 74.6205 81.7961C75.0625 81.2761 74.0224 81.0941 73.3985 80.8341C72.8005 80.5741 71.2405 79.2741 71.2405 79.2741L71.0585 77.7921L69.4985 77.2981Z" fill="#263238" stroke="#263238" stroke-miterlimit="10"/>
<path d="M74.6198 81.8221C74.7498 81.6661 74.7498 81.5361 74.6458 81.4321C73.6578 81.5361 72.1498 81.6141 71.0578 81.4061C69.7838 81.1461 68.6658 80.3141 68.1458 79.8721C68.1198 80.0021 68.0938 80.1321 68.0938 80.2101C68.1718 80.8081 69.8358 81.5101 70.3558 81.7701C70.8758 82.0301 74.1778 82.3421 74.6198 81.8221Z" fill="white" stroke="#263238" stroke-miterlimit="10" stroke-linecap="round" stroke-linejoin="round"/>
<path d="M78.5199 75.66C78.5199 75.66 76.9599 77.402 77.2979 77.922C77.6359 78.442 78.7799 78.26 79.4559 78.884C80.1579 79.482 81.1979 80.262 82.2379 80.626C83.2779 80.99 84.1359 80.366 83.7199 80.028C83.2779 79.69 81.3019 77.948 81.1199 77.35C80.9379 76.752 80.9379 75.79 80.9379 75.79L78.5199 75.66Z" fill="#263238" stroke="#263238" stroke-miterlimit="10"/>
<path d="M83.772 80.366C83.382 80.392 82.862 80.366 82.42 80.262C81.64 80.08 80.6 78.962 79.56 78.182C78.91 77.688 77.922 77.584 77.272 77.558C77.246 77.714 77.246 77.818 77.298 77.922C77.636 78.442 78.78 78.26 79.456 78.884C80.158 79.482 81.198 80.262 82.238 80.626C82.94 80.834 83.564 80.626 83.772 80.366Z" fill="white" stroke="#263238" stroke-miterlimit="10" stroke-linecap="round" stroke-linejoin="round"/>
<path d="M74.2561 48.516C74.2561 48.516 73.008 53.04 73.268 54.34C73.528 55.64 75.2961 66.404 75.2961 66.404L69.498 77.324L71.6561 78.546C71.6561 78.546 79.274 68.588 79.378 67.366C79.456 66.144 79.664 56.732 79.664 56.732L84.656 65.702L78.1561 75.582C78.1561 75.582 79.196 76.44 79.898 76.44C80.6 76.44 81.0161 76.44 81.0161 76.44C81.0161 76.44 89.258 66.222 89.336 65.598C89.414 65 83.798 52.702 83.798 52.702L83.46 49.894L74.2561 48.516Z" fill="#0186E6" stroke="#263238" stroke-miterlimit="10" stroke-linecap="round" stroke-linejoin="round"/>
<path d="M75.972 51.636C75.972 51.636 76.596 53.144 76.024 53.976C75.452 54.808 74.334 55.12 74.334 55.12" stroke="#263238" stroke-miterlimit="10" stroke-linecap="round" stroke-linejoin="round"/>
<path d="M79.6641 56.706L82.6021 54.106" stroke="#263238" stroke-miterlimit="10" stroke-linecap="round" stroke-linejoin="round"/>
<path d="M81.7181 52.078L81.2501 53.066C81.2501 53.066 82.4981 53.404 81.9781 54.002C81.4581 54.6 81.1201 54.678 81.1201 54.678" stroke="#263238" stroke-miterlimit="10" stroke-linecap="round" stroke-linejoin="round"/>
<path d="M79.8984 56.68L82.1604 55.302" stroke="#263238" stroke-miterlimit="10" stroke-linecap="round" stroke-linejoin="round"/>
<path d="M74.4116 51.636C74.4116 51.636 74.0996 53.716 74.0996 54.73" stroke="#263238" stroke-miterlimit="10" stroke-linecap="round" stroke-linejoin="round"/>
<path d="M70.9802 76.856L70.6162 77.48" stroke="#263238" stroke-miterlimit="10" stroke-linecap="round" stroke-linejoin="round"/>
<path d="M74.3336 55.978C74.3336 55.978 75.7116 65.806 75.8416 66.118C75.9716 66.43 76.4656 66.43 76.3356 66.69C76.2056 66.95 75.8416 67.132 75.8416 67.132L76.1536 67.834L71.4736 75.972" stroke="#263238" stroke-miterlimit="10" stroke-linecap="round" stroke-linejoin="round"/>
<path d="M80.0021 74.906L79.4561 75.764" stroke="#263238" stroke-miterlimit="10" stroke-linecap="round" stroke-linejoin="round"/>
<path d="M80.3916 56.6281C80.3916 56.6281 84.6816 63.8821 85.3056 64.9481C85.9296 66.0141 86.8136 65.5201 86.5536 65.8841C86.2936 66.2741 85.3576 66.4561 85.3576 66.4561L80.4956 74.1261" stroke="#263238" stroke-miterlimit="10" stroke-linecap="round" stroke-linejoin="round"/>
<path d="M73.8662 50.4401C73.9702 50.5181 74.1002 50.5961 74.3602 50.7261C75.0622 51.0641 75.3482 51.2461 75.3482 51.2461L75.5822 50.1021L76.4402 50.2841L76.3362 51.2721C76.3362 51.2721 76.2322 51.5061 77.3762 51.5581C78.5202 51.6101 78.8842 51.8441 78.8842 51.8441L79.1182 50.5181L79.9762 50.4661V51.9741C79.9762 51.9741 81.2502 51.9741 82.0042 51.8701C82.7582 51.7661 83.2262 51.4021 83.2262 51.4021V50.3621L82.7582 49.8421L74.3342 48.5681C74.2562 48.5161 74.0742 49.5301 73.8662 50.4401Z" fill="#263238"/>
<path d="M81.1982 51.0121V51.8181C81.1982 51.8181 81.9522 51.7661 82.7063 51.4801L82.8102 50.7781C82.8102 50.7781 81.4842 50.8821 81.1982 51.0121Z" fill="white" stroke="#263238" stroke-miterlimit="10" stroke-linecap="round" stroke-linejoin="round"/>
<path d="M89.102 50.83L87.75 50.934L86.71 52.156C86.71 52.156 87.698 52.962 88.244 53.456C88.79 53.9501 89.232 54.418 89.674 54.288C90.09 54.184 91.546 52.182 91.546 51.714C91.546 51.246 89.908 50.44 89.102 50.83Z" fill="white" stroke="#263238" stroke-miterlimit="10" stroke-linecap="round" stroke-linejoin="round"/>
<path d="M88.2959 51.2201C88.2959 51.2201 88.6859 50.8041 89.1019 50.5701C89.5179 50.3361 90.0119 50.3101 90.5319 50.5961C91.0259 50.9081 91.1039 51.2201 90.8439 51.5581C90.5839 51.8961 89.5439 53.1181 89.4659 52.8321C89.3879 52.5201 89.8559 51.5581 89.8559 51.5581C89.8559 51.5581 89.2319 52.9881 88.3999 52.0521" fill="white"/>
<path d="M88.2959 51.2201C88.2959 51.2201 88.6859 50.8041 89.1019 50.5701C89.5179 50.3361 90.0119 50.3101 90.5319 50.5961C91.0259 50.9081 91.1039 51.2201 90.8439 51.5581C90.5839 51.8961 89.5439 53.1181 89.4659 52.8321C89.3879 52.5201 89.8559 51.5581 89.8559 51.5581C89.8559 51.5581 89.2319 52.9881 88.3999 52.0521" stroke="#263238" stroke-miterlimit="10" stroke-linecap="round" stroke-linejoin="round"/>
<path d="M89.414 54.002C89.414 54.002 88.79 53.43 88.79 53.17C88.79 52.91 89.596 52.208 89.596 52.208" stroke="#263238" stroke-miterlimit="10" stroke-linecap="round" stroke-linejoin="round"/>
<path d="M87.4646 50.2061L88.2186 50.8301L86.9706 52.3381L86.2686 51.6621L87.4646 50.2061Z" fill="white" stroke="#263238" stroke-miterlimit="10" stroke-linecap="round" stroke-linejoin="round"/>
<path d="M83.6682 46.722L87.7762 50.206L86.0602 51.896L82.5762 49.582L83.6682 46.722Z" fill="#0186E6" stroke="#263238" stroke-miterlimit="10" stroke-linecap="round" stroke-linejoin="round"/>
<path d="M77.74 33.488C77.74 33.488 75.738 34.554 75.426 36.322C75.088 38.09 74.126 48.048 74.126 48.932C74.126 49.816 76.648 50.882 78.832 50.934C81.016 50.986 83.252 50.934 83.564 50.18C83.902 49.426 84.552 40.976 84.266 38.558C83.98 36.14 83.382 34.788 82.498 34.19C81.588 33.592 78.962 32.812 77.74 33.488Z" fill="white" stroke="#263238" stroke-miterlimit="10" stroke-linecap="round" stroke-linejoin="round"/>
<path d="M74.9844 48.958C74.9844 48.958 79.9764 46.982 81.9524 44.304" stroke="#263238" stroke-miterlimit="10" stroke-linecap="round" stroke-linejoin="round"/>
<path d="M74.6455 49.556C74.6455 49.556 77.4795 49.998 80.8335 48.776" stroke="#263238" stroke-miterlimit="10" stroke-linecap="round" stroke-linejoin="round"/>
<path d="M78.4939 29.2241C78.4939 29.2241 78.4939 29.3021 78.5199 29.4581C78.5459 29.8741 78.5719 30.8101 78.4679 31.7201C78.3379 32.9681 78.3379 32.9681 78.3379 32.9681L81.8739 33.9821C81.8739 33.9821 82.0039 33.2281 82.3419 32.1621C82.6799 31.0961 83.3299 30.0301 83.3299 30.0301C83.3299 30.0301 81.6919 29.5101 80.7819 28.7301C79.7939 27.9761 78.8059 28.2361 78.4939 29.2241Z" fill="white" stroke="#263238" stroke-miterlimit="10" stroke-linecap="round" stroke-linejoin="round"/>
<path d="M81.9263 22.672C81.9263 22.672 82.9403 21.892 82.3423 20.358C81.7443 18.824 79.1703 19.006 78.2603 19.656C77.3243 20.306 77.7923 20.722 78.3123 20.774C78.8323 20.826 79.0663 21.372 78.4163 21.554C77.7663 21.736 77.0123 21.268 75.9463 22.438C74.8803 23.608 75.8943 24.622 76.0763 24.336C76.2583 24.05 76.5963 23.4 76.6743 23.816C76.7523 24.232 75.7383 24.804 75.6083 26.104C75.4783 27.404 76.6743 28.704 77.4803 29.354C78.2603 30.004 79.3003 30.186 79.7683 29.588C80.2363 28.99 80.7043 27.95 81.1983 27.3C81.7183 26.65 81.0943 25.064 80.9123 24.466C80.7303 23.868 81.9263 22.672 81.9263 22.672Z" fill="#263238" stroke="#263238" stroke-miterlimit="10" stroke-linecap="round" stroke-linejoin="round"/>
<path d="M79.6123 28.002C79.6123 28.002 78.9623 27.014 78.3643 27.352C77.7663 27.69 78.3643 29.016 78.9103 29.432C79.4563 29.848 80.2103 29.198 80.2103 29.198C80.2103 29.198 81.3283 30.784 82.1603 30.784C82.9923 30.784 85.5663 30.654 85.7483 29.796C85.9303 28.964 84.5783 26.208 84.5783 26.208C84.5783 26.208 84.9943 25.688 84.9423 25.376C84.8903 25.064 84.0063 25.194 83.8243 25.038C83.6423 24.908 83.1743 23.686 82.6283 23.036C82.0823 22.386 81.7963 22.386 81.7963 22.386C81.7963 22.386 78.8583 23.868 79.5083 24.336C80.1583 24.804 80.3923 24.388 80.3403 24.7C80.2883 25.038 79.2743 26.234 79.4563 26.364C79.6383 26.494 80.2883 26.884 80.2103 27.3C80.1063 27.768 80.1583 28.158 79.6123 28.002Z" fill="white" stroke="#263238" stroke-miterlimit="10" stroke-linecap="round" stroke-linejoin="round"/>
<path d="M83.3827 25.1939C83.4867 25.4539 83.4867 25.7139 83.3827 25.7659C83.2787 25.8179 83.0707 25.6359 82.9667 25.3759C82.8627 25.1159 82.8627 24.8559 82.9667 24.8039C83.0967 24.7519 83.2787 24.9339 83.3827 25.1939Z" fill="#263238"/>
<path d="M82.9923 24.284C82.9923 24.284 82.3163 24.076 82.0303 24.596" stroke="#263238" stroke-miterlimit="10" stroke-linecap="round" stroke-linejoin="round"/>
<path d="M84.5523 27.4559C84.5523 27.4559 84.2403 27.8199 83.6943 27.5079" stroke="#263238" stroke-miterlimit="10" stroke-linecap="round" stroke-linejoin="round"/>
<path d="M71.2656 39.754C71.2656 39.754 66.5076 39.78 65.5456 39.936C64.5836 40.092 65.6236 42.666 65.7276 43.29C65.8056 43.888 71.2656 39.754 71.2656 39.754Z" fill="#0186E6" stroke="#263238" stroke-miterlimit="10" stroke-linecap="round" stroke-linejoin="round"/>
<path d="M81.4579 34.58C81.4579 34.58 83.0959 36.4 82.1599 38.922C81.1979 41.444 75.7379 45.942 72.7999 48.022C69.8619 50.102 66.8199 51.662 66.8199 51.662C66.8199 51.662 63.5179 48.984 62.5819 46.462C61.6199 43.94 62.8419 42.692 66.2999 41.47C69.7579 40.248 74.2039 38.74 74.9839 36.582C75.7639 34.424 76.7259 32.786 78.3379 32.994C79.8979 33.202 81.4579 34.58 81.4579 34.58Z" fill="#0186E6" stroke="#263238" stroke-miterlimit="10" stroke-linecap="round" stroke-linejoin="round"/>
<path d="M75.1404 46.202C75.1404 46.202 71.9424 47.424 69.1604 48.282C66.3784 49.14 62.9204 48.984 62.9984 49.66C63.0764 50.362 65.0784 51.662 65.5204 51.922C65.9624 52.182 66.8204 51.584 67.8604 51.324C68.9004 51.064 73.7364 47.918 75.1404 46.202Z" fill="#263238" stroke="#263238" stroke-miterlimit="10" stroke-linecap="round" stroke-linejoin="round"/>
<path d="M64.5587 54.0541L64.2207 56.7841L64.7667 56.8621L65.0527 54.5741L69.6807 55.1721L69.3947 57.4341L69.9667 57.5121L70.3047 54.7561L64.5587 54.0541Z" fill="white" stroke="#263238" stroke-miterlimit="10" stroke-linecap="round" stroke-linejoin="round"/>
<path d="M71.4223 67.8081L60.2683 66.4301C59.5923 66.3521 59.0983 65.7281 59.2023 65.0521L60.1643 57.2001C60.2423 56.5241 60.8663 56.0301 61.5423 56.1341L72.6963 57.5121C73.3723 57.5901 73.8663 58.2141 73.7623 58.8901L72.8003 66.7421C72.7223 67.4181 72.0983 67.9121 71.4223 67.8081Z" fill="white" stroke="#263238" stroke-miterlimit="10" stroke-linecap="round" stroke-linejoin="round"/>
<path d="M60.2422 61.1001L72.7222 62.6861" stroke="#263238" stroke-miterlimit="10" stroke-linecap="round" stroke-linejoin="round"/>
<path d="M61.7497 56.472L60.7617 64.7661L61.4637 66.0661L62.4517 65.0521L63.5177 56.68" fill="white"/>
<path d="M61.7497 56.472L60.7617 64.7661L61.4637 66.0661L62.4517 65.0521L63.5177 56.68" stroke="#263238" stroke-miterlimit="10" stroke-linecap="round" stroke-linejoin="round"/>
<path d="M63.1167 62.3336L60.668 62.0103L60.5148 63.1702L62.9636 63.4935L63.1167 62.3336Z" fill="white" stroke="#263238" stroke-miterlimit="10" stroke-linecap="round" stroke-linejoin="round"/>
<path d="M63.0591 62.7718L60.6104 62.4485L60.5729 62.732L63.0217 63.0554L63.0591 62.7718Z" fill="white" stroke="#263238" stroke-miterlimit="10" stroke-linecap="round" stroke-linejoin="round"/>
<path d="M70.4867 57.6161L69.4727 65.8841L70.1747 67.1841L71.1886 66.1701L72.2546 57.7981" fill="white"/>
<path d="M70.4867 57.6161L69.4727 65.8841L70.1747 67.1841L71.1886 66.1701L72.2546 57.7981" stroke="#263238" stroke-miterlimit="10" stroke-linecap="round" stroke-linejoin="round"/>
<path d="M71.8277 63.4497L69.3789 63.1263L69.2258 64.2863L71.6745 64.6096L71.8277 63.4497Z" fill="white" stroke="#263238" stroke-miterlimit="10" stroke-linecap="round" stroke-linejoin="round"/>
<path d="M71.7691 63.8879L69.3203 63.5646L69.2829 63.8481L71.7316 64.1714L71.7691 63.8879Z" fill="white" stroke="#263238" stroke-miterlimit="10" stroke-linecap="round" stroke-linejoin="round"/>
<path d="M79.9759 35.36C79.9759 35.36 79.0139 34.84 77.4539 35.022C75.8939 35.204 68.1719 39.884 67.0539 40.404C65.9359 40.924 66.0139 42.484 66.0139 42.484L66.7159 52.442H68.8739L70.2519 42.744C70.2519 42.744 80.1839 40.118 80.4959 38.142" fill="#0186E6"/>
<path d="M79.9759 35.36C79.9759 35.36 79.0139 34.84 77.4539 35.022C75.8939 35.204 68.1719 39.884 67.0539 40.404C65.9359 40.924 66.0139 42.484 66.0139 42.484L66.7159 52.442H68.8739L70.2519 42.744C70.2519 42.744 80.1839 40.118 80.4959 38.142" stroke="#263238" stroke-miterlimit="10" stroke-linecap="round" stroke-linejoin="round"/>
<path d="M68.8999 52.442L69.4199 54.262C69.4199 54.262 69.4199 56.004 69.1599 56.16C68.8999 56.316 68.8219 56.68 68.3799 56.342C67.9379 56.004 67.9379 56.004 67.9379 56.004C67.9379 56.004 67.2359 55.822 66.9759 55.822C66.7159 55.822 66.1959 55.822 66.0139 55.38C65.8319 54.938 66.7159 52.442 66.7159 52.442H68.8999Z" fill="white" stroke="#263238" stroke-miterlimit="10" stroke-linecap="round" stroke-linejoin="round"/>
<path d="M82.0301 35.308L82.3941 36.92C82.3941 36.92 81.2761 37.362 79.7941 37.362C78.3121 37.362 75.8161 35.022 74.0741 33.722C72.3321 32.422 70.6161 34.164 69.0561 34.684C67.4961 35.204 66.2741 34.944 63.8561 34.086C61.4381 33.228 58.7341 35.204 58.7341 35.204L57.9541 37.102L60.3721 38.402C60.3721 38.402 62.6341 35.88 64.2721 35.88C65.9101 35.88 69.1341 37.102 70.3301 36.4C71.5521 35.698 72.4881 34.398 73.3721 34.58C74.2301 34.762 78.0521 38.558 79.9501 38.74C81.8481 38.922 82.6281 37.44 82.6281 37.44L83.3301 35.438C83.3561 35.438 82.1861 33.8 82.0301 35.308Z" fill="#263238" stroke="#263238" stroke-miterlimit="10" stroke-linecap="round" stroke-linejoin="round"/>
<path d="M82.4465 33.9041L83.3305 34.0081L84.5785 36.1921L83.2785 35.2041L82.4725 35.5421L82.3945 34.7881L82.4465 33.9041Z" fill="white" stroke="#263238" stroke-miterlimit="10" stroke-linecap="round" stroke-linejoin="round"/>
<path d="M77.6363 31.4861L82.6803 33.5401L82.5763 35.6721L76.9863 32.9681L77.6363 31.4861Z" fill="white" stroke="#263238" stroke-miterlimit="10" stroke-linecap="round" stroke-linejoin="round"/>
</svg>
