<svg width="240" height="240" viewBox="0 0 240 240" fill="none" xmlns="http://www.w3.org/2000/svg">
<path d="M85.9681 175.824C81.0241 179.04 75.4561 187.68 72.7201 191.136C69.9361 194.64 69.9361 199.632 68.7841 200.976C67.6321 202.32 63.6001 198.192 64.4641 195.168C65.3761 192.144 66.8641 191.472 66.5281 190.08C66.1921 188.64 65.3761 187.728 66.2401 185.856C67.1521 183.984 69.7441 185.76 72.3361 183.984C74.9281 182.208 77.5201 174.48 80.7841 166.416C84.0481 158.352 90.8161 158.544 91.6321 157.296C92.4481 156.048 97.0081 139.728 101.664 140.544C106.32 141.36 114.768 149.616 112.08 154.08C109.392 158.544 106.272 158.496 102.48 161.088C98.7361 163.68 99.1681 164.208 96.6721 166.896C94.1761 169.584 92.3521 170.016 91.0081 170.4C91.0081 170.4 89.1361 172.464 87.9841 174C86.7361 175.488 85.9681 175.824 85.9681 175.824Z" fill="white"/>
<path d="M76.9446 180.72C78.4806 177.792 83.1366 170.832 87.9846 166.56C92.8326 162.288 108.145 155.904 108.145 155.904L111.121 155.328C111.409 154.944 111.697 154.56 111.937 154.08C114.625 149.616 106.177 141.36 101.521 140.544C96.8646 139.728 92.3046 156.048 91.4886 157.296C90.6726 158.544 83.8566 158.352 80.6406 166.416C77.4246 174.48 74.8326 182.208 72.1926 183.984C69.6006 185.76 67.0086 183.984 66.0966 185.856C65.1846 187.728 66.0006 188.64 66.3846 190.08C66.7206 191.52 65.2326 192.144 64.3206 195.168C63.4086 198.192 67.4406 202.32 68.6406 200.976C69.0246 200.544 69.2646 199.728 69.5526 198.72C69.0246 197.328 68.5446 195.552 68.9286 192.48C69.6006 187.728 75.4086 183.648 76.9446 180.72Z" fill="#0085E5"/>
<path opacity="0.5" d="M76.9446 180.72C78.4806 177.792 83.1366 170.832 87.9846 166.56C92.8326 162.288 108.145 155.904 108.145 155.904L111.121 155.328C111.409 154.944 111.697 154.56 111.937 154.08C114.625 149.616 106.177 141.36 101.521 140.544C96.8646 139.728 92.3046 156.048 91.4886 157.296C90.6726 158.544 83.8566 158.352 80.6406 166.416C77.4246 174.48 74.8326 182.208 72.1926 183.984C69.6006 185.76 67.0086 183.984 66.0966 185.856C65.1846 187.728 66.0006 188.64 66.3846 190.08C66.7206 191.52 65.2326 192.144 64.3206 195.168C63.4086 198.192 67.4406 202.32 68.6406 200.976C69.0246 200.544 69.2646 199.728 69.5526 198.72C69.0246 197.328 68.5446 195.552 68.9286 192.48C69.6006 187.728 75.4086 183.648 76.9446 180.72Z" fill="white"/>
<path d="M85.9681 175.824C81.0241 179.04 75.4561 187.68 72.7201 191.136C69.9361 194.64 69.9361 199.632 68.7841 200.976C67.6321 202.32 63.6001 198.192 64.4641 195.168C65.3761 192.144 66.8641 191.472 66.5281 190.08C66.1921 188.64 65.3761 187.728 66.2401 185.856C67.1521 183.984 69.7441 185.76 72.3361 183.984C74.9281 182.208 77.5201 174.48 80.7841 166.416C84.0481 158.352 90.8161 158.544 91.6321 157.296C92.4481 156.048 97.0081 139.728 101.664 140.544C106.32 141.36 114.768 149.616 112.08 154.08C109.392 158.544 106.272 158.496 102.48 161.088C98.7361 163.68 99.1681 164.208 96.6721 166.896C94.1761 169.584 92.3521 170.016 91.0081 170.4C91.0081 170.4 89.1361 172.464 87.9841 174C86.7361 175.488 85.9681 175.824 85.9681 175.824Z" stroke="#263238" stroke-miterlimit="10" stroke-linecap="round"/>
<path d="M85.2481 176.304C84.3361 176.256 83.2321 176.064 82.0801 175.536C80.1121 174.72 79.3441 172.56 79.0561 170.688C76.5601 177.024 74.4481 182.496 72.3361 183.984C69.7441 185.76 67.1521 183.984 66.2401 185.856C65.3281 187.728 66.1441 188.64 66.5281 190.08C66.8641 191.52 65.3761 192.144 64.4641 195.168C63.5521 198.192 67.5841 202.32 68.7841 200.976C69.9841 199.632 69.9361 194.592 72.7201 191.136C75.3121 187.824 80.4961 179.856 85.2481 176.304Z" fill="#0085E5"/>
<path opacity="0.2" d="M68.7365 201.024C68.7845 200.928 68.8805 200.88 68.9285 200.784L68.9765 200.736C69.0245 200.64 69.0725 200.544 69.1205 200.4C69.1205 200.4 69.1205 200.352 69.1685 200.352C69.2165 200.256 69.2645 200.16 69.3125 200.016C69.3125 199.968 69.3605 199.92 69.3605 199.92C69.4085 199.776 69.4565 199.632 69.5045 199.488C69.5045 199.44 69.5525 199.392 69.5525 199.344C69.6005 199.248 69.6005 199.104 69.6485 199.008C69.6485 198.96 69.6965 198.912 69.6965 198.816C69.1685 197.424 68.6885 195.648 69.0725 192.576C69.6485 187.728 75.4565 183.648 77.0405 180.72C77.7605 179.376 79.1525 177.168 80.9285 174.72C79.8725 173.664 79.3925 172.128 79.1525 170.688C79.0085 171.072 78.8645 171.408 78.7205 171.744C78.7205 171.792 78.6725 171.888 78.6725 171.936C78.5285 172.32 78.3845 172.656 78.2405 172.992C78.0965 173.328 77.9525 173.664 77.8565 174C77.8565 174.048 77.8085 174.096 77.8085 174.144C77.6645 174.48 77.5685 174.768 77.4245 175.104C77.4245 175.152 77.3765 175.2 77.3765 175.248C77.2325 175.584 77.1365 175.872 76.9925 176.208C76.8485 176.496 76.7525 176.832 76.6085 177.12C76.5605 177.168 76.5605 177.216 76.5125 177.312C76.3685 177.6 76.2725 177.888 76.1285 178.176C76.1285 178.224 76.0805 178.272 76.0805 178.32C75.9845 178.56 75.8405 178.848 75.7445 179.088C75.7445 179.136 75.6965 179.136 75.6965 179.184C75.5525 179.424 75.4565 179.712 75.3125 179.952C75.2645 180 75.2645 180.048 75.2165 180.096C75.0725 180.336 74.9765 180.576 74.8325 180.768C74.8325 180.816 74.7845 180.816 74.7845 180.864C74.6885 181.056 74.5445 181.248 74.4485 181.44C74.4485 181.488 74.4005 181.488 74.4005 181.536C74.3045 181.728 74.1605 181.92 74.0645 182.112C74.0165 182.16 74.0165 182.208 73.9685 182.208C73.8725 182.4 73.7285 182.544 73.6325 182.736C73.6325 182.736 73.6325 182.784 73.5845 182.784C73.4885 182.928 73.3445 183.072 73.2485 183.216C73.2485 183.264 73.2005 183.264 73.2005 183.312C73.1045 183.456 72.9605 183.552 72.8645 183.648L72.8165 183.696C72.7205 183.792 72.5765 183.888 72.4805 183.984C71.6645 184.56 70.8485 184.752 70.0805 184.848C69.6005 184.896 69.1685 184.896 68.7845 184.896C68.4005 184.896 68.0165 184.896 67.6805 184.944C67.1045 185.04 66.6725 185.28 66.3845 185.856C66.0965 186.432 66.0005 186.96 66.0005 187.392C66.0005 187.584 66.0005 187.728 66.0485 187.92C66.0485 188.016 66.0965 188.064 66.0965 188.16C66.2405 188.784 66.5285 189.36 66.7205 190.08C66.7685 190.272 66.7685 190.416 66.7685 190.608C66.7205 191.232 66.2885 191.808 65.8085 192.624C65.4245 193.248 64.9925 194.064 64.6565 195.216C64.4165 195.984 64.5125 196.8 64.8005 197.616C64.9925 198.192 65.3285 198.768 65.6645 199.296C65.8085 199.488 65.9045 199.632 66.0485 199.776C66.8645 201.024 68.1605 201.696 68.7365 201.024Z" fill="black"/>
<path d="M85.2481 176.304C84.3361 176.256 83.2321 176.064 82.0801 175.536C80.1121 174.72 79.3441 172.56 79.0561 170.688C76.5601 177.024 74.4481 182.496 72.3361 183.984C69.7441 185.76 67.1521 183.984 66.2401 185.856C65.3281 187.728 66.1441 188.64 66.5281 190.08C66.8641 191.52 65.3761 192.144 64.4641 195.168C63.5521 198.192 67.5841 202.32 68.7841 200.976C69.9841 199.632 69.9361 194.592 72.7201 191.136C75.3121 187.824 80.4961 179.856 85.2481 176.304Z" stroke="#263238" stroke-miterlimit="10" stroke-linecap="round"/>
<path d="M64.3203 127.872C64.3203 127.872 68.7363 133.776 73.3923 133.728C78.0483 133.68 80.7843 129.552 83.1843 129.84C85.5843 130.128 88.3203 131.232 88.3203 131.232C88.3203 131.232 104.976 108.912 108.816 105.168C112.656 101.376 114.864 97.056 109.584 95.712C104.304 94.368 93.3603 96.72 87.8403 101.568C82.3203 106.416 64.8483 125.664 64.8483 125.664L64.3203 127.872Z" fill="#0085E5"/>
<path opacity="0.5" d="M64.3203 127.872C64.3203 127.872 68.7363 133.776 73.3923 133.728C78.0483 133.68 80.7843 129.552 83.1843 129.84C85.5843 130.128 88.3203 131.232 88.3203 131.232C88.3203 131.232 104.976 108.912 108.816 105.168C112.656 101.376 114.864 97.056 109.584 95.712C104.304 94.368 93.3603 96.72 87.8403 101.568C82.3203 106.416 64.8483 125.664 64.8483 125.664L64.3203 127.872Z" fill="black" stroke="#263238" stroke-miterlimit="10" stroke-linecap="round"/>
<path d="M64.3203 127.872C64.3203 127.872 68.7363 133.776 73.3923 133.728C78.0483 133.68 80.7843 129.552 83.1843 129.84C85.5843 130.128 88.3203 131.232 88.3203 131.232C88.3203 131.232 104.976 108.912 108.816 105.168C112.656 101.376 114.864 97.056 109.584 95.712C104.304 94.368 93.3603 96.72 87.8403 101.568C82.3203 106.416 64.8483 125.664 64.8483 125.664L64.3203 127.872Z" stroke="#263238" stroke-miterlimit="10" stroke-linecap="round"/>
<path d="M127.2 75.7922C127.2 75.7922 128.544 72.5762 131.232 71.1362C133.92 69.6962 136.992 69.6962 136.992 69.6962L144 65.3762C144 65.3762 145.968 58.5602 152.688 55.7762C159.408 52.9922 188.016 42.5762 188.256 42.4322C188.544 42.2402 191.856 40.6562 191.856 40.8962C191.856 41.1842 191.856 41.5202 191.568 42.2402C191.28 42.9602 184.656 47.2802 184.656 47.2802C184.656 47.2802 187.872 45.3122 187.968 46.2722C188.064 47.2802 187.968 47.5202 186.816 48.2402C185.664 48.9602 183.504 50.3042 183.072 50.5922C182.64 50.8802 180.912 52.4642 179.568 52.6562C178.224 52.8482 174.816 53.0882 174.528 53.3762C174.24 53.6642 165.456 62.1602 162.624 64.5602C159.792 66.9602 155.088 69.2162 155.088 69.2162C155.088 69.2162 148.8 75.9362 144.048 79.4402C139.296 82.9442 136.08 83.8562 136.08 83.8562L135.744 84.1922C135.744 84.1922 136.032 87.3122 136.032 87.6962C136.032 88.0802 138.624 96.9122 137.472 101.856C136.32 106.8 134.064 108.864 134.064 108.864C134.064 108.864 133.728 114.672 132.288 116.832C130.848 118.992 126.912 121.584 124.128 123.648C121.344 125.712 121.008 130.272 120.816 130.8C120.624 131.328 118.416 140.496 117.216 142.704C116.064 144.96 112.416 146.208 111.792 146.4C111.456 146.496 108.144 151.584 104.928 151.296C100.656 150.96 97.1524 147.552 96.9124 143.28C96.8644 142.416 96.9124 141.552 97.0084 140.64C97.7284 135.168 99.8884 132.912 99.8884 132.912C99.8884 132.912 104.496 114.96 104.016 110.208C103.584 105.456 103.488 102.48 104.832 99.7922C106.176 97.1042 110.592 92.9762 117.36 90.0002C124.176 87.0242 124.992 85.0562 124.992 81.6482C124.944 78.2882 127.2 75.7922 127.2 75.7922Z" fill="white"/>
<path d="M137.184 93.4081C137.136 93.4081 137.136 93.4081 137.136 93.4081C137.136 93.4081 136.752 99.2161 135.792 103.104C134.832 106.992 130.752 109.488 130.752 109.488L128.64 115.296C128.64 115.296 123.792 119.76 120.672 119.76C117.552 119.76 117.168 117.216 117.168 117.216C114.24 114.72 107.904 112.992 103.776 114C103.152 119.088 101.328 126.768 100.416 130.608C102.144 131.52 104.928 132.432 109.008 132C114.384 131.472 118.896 129.744 121.2 128.688C121.584 127.056 122.4 124.896 124.08 123.648C124.368 123.408 124.704 123.216 124.992 122.976C122.16 124.128 118.608 127.968 115.968 128.304C113.04 128.688 112.08 128.112 112.272 126.96C112.464 125.808 116.496 126.528 117.888 126C119.28 125.472 118.08 125.232 115.152 124.848C112.224 124.464 112.8 123.312 112.8 123.312C112.8 123.312 117.504 123.696 118.416 123.312C119.328 122.928 125.616 121.392 128.496 118.848C131.424 116.304 131.616 110.88 131.616 110.88L133.872 109.776C133.92 109.248 133.92 108.912 133.92 108.912C133.92 108.912 136.176 106.848 137.328 101.904C137.952 99.5041 137.664 96.2401 137.184 93.4081Z" fill="#0085E5"/>
<path d="M160.848 62.5441C155.232 64.9921 154.128 64.2241 154.128 64.2241C154.128 64.2241 154.704 64.6081 155.472 65.3761C156.288 66.1441 155.232 68.6881 152.256 70.9441C149.28 73.2001 139.536 79.1521 137.856 79.1521C136.177 79.1521 136.177 73.5361 136.177 73.5361C135.265 78.2881 135.456 81.9361 135.744 84.0961L136.032 83.8082C136.032 83.8082 139.248 82.8961 144 79.3921C148.752 75.8881 155.04 69.1681 155.04 69.1681C155.04 69.1681 159.696 66.9121 162.576 64.5121C164.16 63.1681 167.52 60.0001 170.256 57.4081C167.904 58.9441 164.256 61.1041 160.848 62.5441Z" fill="#0085E5"/>
<path opacity="0.5" d="M160.848 62.5441C155.232 64.9921 154.128 64.2241 154.128 64.2241C154.128 64.2241 154.704 64.6081 155.472 65.3761C156.288 66.1441 155.232 68.6881 152.256 70.9441C149.28 73.2001 139.536 79.1521 137.856 79.1521C136.177 79.1521 136.177 73.5361 136.177 73.5361C135.265 78.2881 135.456 81.9361 135.744 84.0961L136.032 83.8082C136.032 83.8082 139.248 82.8961 144 79.3921C148.752 75.8881 155.04 69.1681 155.04 69.1681C155.04 69.1681 159.696 66.9121 162.576 64.5121C164.16 63.1681 167.52 60.0001 170.256 57.4081C167.904 58.9441 164.256 61.1041 160.848 62.5441Z" fill="white"/>
<path opacity="0.5" d="M137.184 93.4081C137.136 93.4081 137.136 93.4081 137.136 93.4081C137.136 93.4081 136.752 99.2161 135.792 103.104C134.832 106.992 130.752 109.488 130.752 109.488L128.64 115.296C128.64 115.296 123.792 119.76 120.672 119.76C117.552 119.76 117.168 117.216 117.168 117.216C114.24 114.72 107.904 112.992 103.776 114C103.152 119.088 101.328 126.768 100.416 130.608C102.144 131.52 104.928 132.432 109.008 132C114.384 131.472 118.896 129.744 121.2 128.688C121.584 127.056 122.4 124.896 124.08 123.648C124.368 123.408 124.704 123.216 124.992 122.976C122.16 124.128 118.608 127.968 115.968 128.304C113.04 128.688 112.08 128.112 112.272 126.96C112.464 125.808 116.496 126.528 117.888 126C119.28 125.472 118.08 125.232 115.152 124.848C112.224 124.464 112.8 123.312 112.8 123.312C112.8 123.312 117.504 123.696 118.416 123.312C119.328 122.928 125.616 121.392 128.496 118.848C131.424 116.304 131.616 110.88 131.616 110.88L133.872 109.776C133.92 109.248 133.92 108.912 133.92 108.912C133.92 108.912 136.176 106.848 137.328 101.904C137.952 99.5041 137.664 96.2401 137.184 93.4081Z" fill="white"/>
<path d="M127.2 75.7922C127.2 75.7922 128.544 72.5762 131.232 71.1362C133.92 69.6962 136.992 69.6962 136.992 69.6962L144 65.3762C144 65.3762 145.968 58.5602 152.688 55.7762C159.408 52.9922 188.016 42.5762 188.256 42.4322C188.544 42.2402 191.856 40.6562 191.856 40.8962C191.856 41.1842 191.856 41.5202 191.568 42.2402C191.28 42.9602 184.656 47.2802 184.656 47.2802C184.656 47.2802 187.872 45.3122 187.968 46.2722C188.064 47.2802 187.968 47.5202 186.816 48.2402C185.664 48.9602 183.504 50.3042 183.072 50.5922C182.64 50.8802 180.912 52.4642 179.568 52.6562C178.224 52.8482 174.816 53.0882 174.528 53.3762C174.24 53.6642 165.456 62.1602 162.624 64.5602C159.792 66.9602 155.088 69.2162 155.088 69.2162C155.088 69.2162 148.8 75.9362 144.048 79.4402C139.296 82.9442 136.08 83.8562 136.08 83.8562L135.744 84.1922C135.744 84.1922 136.032 87.3122 136.032 87.6962C136.032 88.0802 138.624 96.9122 137.472 101.856C136.32 106.8 134.064 108.864 134.064 108.864C134.064 108.864 133.728 114.672 132.288 116.832C130.848 118.992 126.912 121.584 124.128 123.648C121.344 125.712 121.008 130.272 120.816 130.8C120.624 131.328 118.416 140.496 117.216 142.704C116.064 144.96 112.416 146.208 111.792 146.4C111.456 146.496 108.144 151.584 104.928 151.296C100.656 150.96 97.1524 147.552 96.9124 143.28C96.8644 142.416 96.9124 141.552 97.0084 140.64C97.7284 135.168 99.8884 132.912 99.8884 132.912C99.8884 132.912 104.496 114.96 104.016 110.208C103.584 105.456 103.488 102.48 104.832 99.7922C106.176 97.1042 110.592 92.9762 117.36 90.0002C124.176 87.0242 124.992 85.0562 124.992 81.6482C124.944 78.2882 127.2 75.7922 127.2 75.7922Z" stroke="#263238" stroke-miterlimit="10" stroke-linecap="round"/>
<path d="M133.913 106.747C134.86 102.722 133.536 98.9662 130.956 98.3589C128.375 97.7516 125.515 100.523 124.568 104.548C123.621 108.574 124.944 112.329 127.525 112.937C130.105 113.544 132.965 110.773 133.913 106.747Z" fill="#0085E5"/>
<path d="M117.601 123.648C112.753 124.704 110.881 122.4 110.881 122.4C110.881 122.4 111.409 126 116.545 126.528" stroke="#263238" stroke-miterlimit="10" stroke-linecap="round" stroke-linejoin="round"/>
<path d="M128.977 102.048C128.977 102.048 131.761 108.768 129.505 113.904C127.249 118.992 124.033 121.008 117.937 121.968" stroke="#263238" stroke-miterlimit="10" stroke-linecap="round"/>
<path d="M123.168 123.744C123.168 123.744 119.472 127.056 116.64 128.16C113.808 129.264 111.552 131.136 109.104 127.872" stroke="#263238" stroke-miterlimit="10" stroke-linecap="round"/>
<path d="M152.017 65.4722C152.017 65.4722 154.273 63.9362 155.521 65.3762C156.769 66.8162 155.089 69.2162 155.089 69.2162" stroke="#263238" stroke-miterlimit="10" stroke-linecap="round" stroke-linejoin="round"/>
<path d="M136.416 72.144C136.416 72.144 135.504 76.56 135.36 79.392C135.168 82.272 135.696 84.24 135.696 84.24" stroke="#263238" stroke-miterlimit="10" stroke-linecap="round" stroke-linejoin="round"/>
<path d="M115.296 104.736L120.672 101.856" stroke="#263238" stroke-miterlimit="10" stroke-linecap="round"/>
<path d="M188.209 42.4322C187.969 42.5762 165.265 50.8802 155.521 54.6242C156.385 54.6722 160.993 55.0562 162.193 58.9922C162.865 61.1042 162.961 62.9282 162.913 64.2242C166.081 61.4402 174.193 53.6162 174.481 53.3282C174.769 53.0402 178.177 52.8002 179.521 52.6082C180.865 52.4162 182.544 50.8322 183.024 50.5442C183.456 50.2562 185.617 48.9122 186.769 48.1922C187.921 47.4722 188.017 47.1842 187.921 46.2242C187.825 45.2162 184.609 47.2322 184.609 47.2322C184.609 47.2322 191.233 42.9122 191.521 42.1922C191.809 41.4722 191.809 41.1362 191.809 40.8482C191.809 40.6562 188.497 42.2882 188.209 42.4322Z" fill="#0085E5" stroke="#263238" stroke-miterlimit="10" stroke-linecap="round" stroke-linejoin="round"/>
<path d="M184.656 47.2803L181.488 48.9123" stroke="#263238" stroke-miterlimit="10" stroke-linecap="round" stroke-linejoin="round"/>
<path d="M121.345 127.968C120.337 128.352 119.089 128.88 117.841 129.456C115.249 130.704 111.553 132.048 107.137 132.384C104.209 132.624 101.713 131.328 100.369 130.416C99.9848 131.952 99.7448 132.912 99.7448 132.912C99.7448 132.912 97.5848 135.168 96.8648 140.64C96.7688 141.552 96.7208 142.464 96.7688 143.28C97.0088 147.6 100.513 151.008 104.785 151.296C108.001 151.536 111.361 146.496 111.649 146.4C112.273 146.208 115.873 144.96 117.073 142.704C118.225 140.448 120.481 131.328 120.673 130.8C120.817 130.56 120.961 129.408 121.345 127.968Z" fill="#263238" stroke="#263238" stroke-miterlimit="10" stroke-linecap="round"/>
<path d="M102.145 135.552C102.145 135.552 105.985 133.92 109.873 135.264" stroke="white" stroke-width="0.75" stroke-miterlimit="10" stroke-linecap="round" stroke-linejoin="round"/>
<path d="M110.257 130.848C105.313 131.424 102.433 129.6 100.993 128.16C100.657 129.552 100.369 130.752 100.177 131.616C102.241 132.864 105.169 133.968 108.673 133.536C114.001 132.864 118.849 130.704 121.009 129.6C121.009 129.504 121.057 129.36 121.057 129.264C121.153 128.928 121.249 128.544 121.345 128.112C121.345 128.064 121.345 128.064 121.345 128.016C121.393 127.872 121.441 127.776 121.489 127.632V127.584C121.633 127.152 121.825 126.72 122.017 126.288C120.049 127.68 115.873 130.224 110.257 130.848Z" fill="#0085E5" stroke="#263238" stroke-miterlimit="10" stroke-linecap="round"/>
<path d="M95.2329 99.3603C95.2329 99.3603 94.3689 99.7923 97.4889 97.7283C100.609 95.6643 99.6969 98.6403 101.809 93.3603C103.969 88.0803 106.273 84.1443 110.161 82.7043C114.001 81.2643 125.377 83.3283 125.377 83.3283L128.065 85.2003L124.321 92.4483C124.321 92.4483 121.537 90.9123 118.513 92.2563C115.489 93.6003 113.857 95.2323 114.193 96.6723C114.529 98.1123 117.409 102.048 117.409 102.048C117.409 102.048 103.825 96.7203 101.665 97.8723C99.5049 99.0243 92.9769 101.424 92.5929 101.616C92.2569 101.808 95.2329 99.3603 95.2329 99.3603Z" fill="#0085E5" stroke="#263238" stroke-miterlimit="10" stroke-linecap="round"/>
<path d="M103.585 95.1365C104.017 94.4645 104.545 93.6965 105.073 92.8325C107.425 88.8965 112.081 87.1685 112.081 87.1685" stroke="#263238" stroke-miterlimit="10" stroke-linecap="round"/>
<path d="M112.368 91.4883C112.368 91.4883 108.528 92.2083 106.272 95.9523" stroke="#263238" stroke-miterlimit="10" stroke-linecap="round"/>
<path d="M109.872 104.304C109.872 104.304 104.4 103.488 100.272 106.992C96.1444 110.496 96.5764 114.24 96.5764 114.24C96.5764 114.24 92.5444 116.016 91.7284 118.08C90.9124 120.144 90.7204 121.824 90.7204 121.824C90.7204 121.824 88.5604 123.888 86.7844 125.952C85.0084 128.016 83.4724 128.352 83.0884 131.04C82.7524 133.728 82.8964 140.352 84.8644 146.928C86.8324 153.456 88.1764 156.336 88.7044 157.488C89.2324 158.64 93.8884 164.592 94.7044 164.736C95.5204 164.928 96.3364 165.072 96.9604 164.736C97.5844 164.4 102.24 163.296 102.048 161.952C101.856 160.608 101.52 160.272 101.328 159.984C101.136 159.696 101.136 159.696 101.136 159.696C101.136 159.696 101.952 158.16 101.424 157.44C100.896 156.72 100.416 156.624 99.4564 155.76C98.4484 154.848 97.9204 154.608 96.7684 154.608C95.6164 154.608 94.3684 154.704 94.3684 154.704C94.3684 154.704 92.5924 153.984 92.5924 148.8C92.5924 143.616 94.2244 139.104 94.9924 136.8C95.8084 134.448 95.8084 132.672 95.8084 132.672C95.8084 132.672 96.4324 133.584 100.848 131.52C105.264 129.456 106.224 123.648 106.224 123.648L99.7924 124.656C99.7924 124.656 104.112 124.368 109.104 122.784C114.144 121.152 116.256 120.912 118.224 113.28" fill="white"/>
<path d="M101.376 120.912C100.464 119.664 105.696 116.112 107.088 114.72C108.48 113.328 102.624 117.024 101.232 117.36C99.8404 117.648 98.5924 116.736 99.3604 112.416C100.08 108.432 102.768 105.6 103.152 105.216C102.192 105.6 101.184 106.176 100.272 106.944C96.1444 110.448 96.5764 114.192 96.5764 114.192C96.5764 114.192 92.5444 115.968 91.7284 118.032C90.9124 120.096 90.7204 121.776 90.7204 121.776C90.7204 121.776 88.5604 123.84 86.7844 125.904C85.0084 127.968 83.4724 128.304 83.0884 130.992C82.7044 133.68 82.8964 140.304 84.8644 146.88C86.8324 153.408 88.1764 156.288 88.7044 157.44C89.2324 158.592 93.8884 164.544 94.7044 164.688C95.5204 164.88 96.3364 165.024 96.9604 164.688C97.5844 164.352 102.24 163.248 102.048 161.904C102 161.52 101.904 161.184 101.856 160.944C100.128 161.184 97.0084 162.24 96.1444 162.24C95.2324 162.24 94.2724 160.848 92.9284 159.312C91.5364 157.776 89.3764 153.744 89.0884 148.848C88.8004 143.904 90.9604 139.296 90.9604 136.992C90.9604 134.688 88.1764 140.064 88.8004 137.76C89.4244 135.456 91.8724 132.048 93.7444 131.136C95.6164 130.224 97.7764 129.6 98.5444 128.064C99.3124 126.528 95.7604 127.584 97.0084 126.384C98.2564 125.136 106.272 123.6 108.864 122.064C111.552 120.672 102.288 122.16 101.376 120.912Z" fill="#0085E5"/>
<path opacity="0.5" d="M101.376 120.912C100.464 119.664 105.696 116.112 107.088 114.72C108.48 113.328 102.624 117.024 101.232 117.36C99.8404 117.648 98.5924 116.736 99.3604 112.416C100.08 108.432 102.768 105.6 103.152 105.216C102.192 105.6 101.184 106.176 100.272 106.944C96.1444 110.448 96.5764 114.192 96.5764 114.192C96.5764 114.192 92.5444 115.968 91.7284 118.032C90.9124 120.096 90.7204 121.776 90.7204 121.776C90.7204 121.776 88.5604 123.84 86.7844 125.904C85.0084 127.968 83.4724 128.304 83.0884 130.992C82.7044 133.68 82.8964 140.304 84.8644 146.88C86.8324 153.408 88.1764 156.288 88.7044 157.44C89.2324 158.592 93.8884 164.544 94.7044 164.688C95.5204 164.88 96.3364 165.024 96.9604 164.688C97.5844 164.352 102.24 163.248 102.048 161.904C102 161.52 101.904 161.184 101.856 160.944C100.128 161.184 97.0084 162.24 96.1444 162.24C95.2324 162.24 94.2724 160.848 92.9284 159.312C91.5364 157.776 89.3764 153.744 89.0884 148.848C88.8004 143.904 90.9604 139.296 90.9604 136.992C90.9604 134.688 88.1764 140.064 88.8004 137.76C89.4244 135.456 91.8724 132.048 93.7444 131.136C95.6164 130.224 97.7764 129.6 98.5444 128.064C99.3124 126.528 95.7604 127.584 97.0084 126.384C98.2564 125.136 106.272 123.6 108.864 122.064C111.552 120.672 102.288 122.16 101.376 120.912Z" fill="white"/>
<path d="M109.872 104.304C109.872 104.304 104.4 103.488 100.272 106.992C96.1444 110.496 96.5764 114.24 96.5764 114.24C96.5764 114.24 92.5444 116.016 91.7284 118.08C90.9124 120.144 90.7204 121.824 90.7204 121.824C90.7204 121.824 88.5604 123.888 86.7844 125.952C85.0084 128.016 83.4724 128.352 83.0884 131.04C82.7524 133.728 82.8964 140.352 84.8644 146.928C86.8324 153.456 88.1764 156.336 88.7044 157.488C89.2324 158.64 93.8884 164.592 94.7044 164.736C95.5204 164.928 96.3364 165.072 96.9604 164.736C97.5844 164.4 102.24 163.296 102.048 161.952C101.856 160.608 101.52 160.272 101.328 159.984C101.136 159.696 101.136 159.696 101.136 159.696C101.136 159.696 101.952 158.16 101.424 157.44C100.896 156.72 100.416 156.624 99.4564 155.76C98.4484 154.848 97.9204 154.608 96.7684 154.608C95.6164 154.608 94.3684 154.704 94.3684 154.704C94.3684 154.704 92.5924 153.984 92.5924 148.8C92.5924 143.616 94.2244 139.104 94.9924 136.8C95.8084 134.448 95.8084 132.672 95.8084 132.672C95.8084 132.672 96.4324 133.584 100.848 131.52C105.264 129.456 106.224 123.648 106.224 123.648L99.7924 124.656C99.7924 124.656 104.112 124.368 109.104 122.784C114.144 121.152 116.256 120.912 118.224 113.28" stroke="#263238" stroke-miterlimit="10" stroke-linecap="round"/>
<path d="M95.904 132.72L95.376 128.592" stroke="#263238" stroke-miterlimit="10" stroke-linecap="round" stroke-linejoin="round"/>
<path d="M121.249 100.896C123.841 100.08 124.465 96.8644 126.001 93.4564C127.537 90.0484 130.033 86.1124 130.033 86.1124C130.033 86.1124 126.337 86.3044 122.305 84.8644C118.273 83.4244 113.521 84.4324 112.609 85.3924C111.697 86.4004 111.793 85.1044 111.985 88.1764C112.177 91.2004 113.329 95.6164 114.385 97.1524C115.441 98.6884 116.065 99.5524 116.065 99.5524" fill="white"/>
<path d="M128.929 86.1124C127.537 86.0644 125.041 85.8244 122.353 84.8644C118.321 83.4244 113.569 84.4324 112.657 85.3924C111.745 86.4004 111.841 85.1044 112.033 88.1764C112.225 91.2004 113.377 95.6164 114.433 97.1524C114.577 97.3444 114.673 97.5364 114.817 97.6804L129.169 86.2084L128.929 86.1124Z" fill="#0085E5"/>
<path opacity="0.5" d="M128.929 86.1124C127.537 86.0644 125.041 85.8244 122.353 84.8644C118.321 83.4244 113.569 84.4324 112.657 85.3924C111.745 86.4004 111.841 85.1044 112.033 88.1764C112.225 91.2004 113.377 95.6164 114.433 97.1524C114.577 97.3444 114.673 97.5364 114.817 97.6804L129.169 86.2084L128.929 86.1124Z" fill="white"/>
<path d="M121.249 100.896C123.841 100.08 124.465 96.8644 126.001 93.4564C127.537 90.0484 130.033 86.1124 130.033 86.1124C130.033 86.1124 126.337 86.3044 122.305 84.8644C118.273 83.4244 113.521 84.4324 112.609 85.3924C111.697 86.4004 111.793 85.1044 111.985 88.1764C112.177 91.2004 113.329 95.6164 114.385 97.1524C115.441 98.6884 116.065 99.5524 116.065 99.5524" stroke="#263238" stroke-miterlimit="10" stroke-linecap="round"/>
<path d="M120.625 95.6164C122.305 95.6164 123.889 95.4244 125.329 95.0404C125.521 94.5124 125.761 93.9844 126.001 93.4564C127.537 90.0484 130.033 86.1124 130.033 86.1124C130.033 86.1124 126.337 86.3044 122.305 84.8644C118.273 83.4244 113.521 84.4324 112.609 85.3924C111.697 86.4004 111.793 85.1044 111.985 88.1764C112.081 89.7604 112.417 91.6324 112.897 93.3604C114.433 94.5604 116.785 95.5684 120.625 95.6164Z" stroke="#263238" stroke-miterlimit="10" stroke-linecap="round"/>
<path d="M121.489 99.4566L119.329 89.9526" stroke="#263238" stroke-miterlimit="10" stroke-linecap="round" stroke-linejoin="round"/>
<path d="M123.985 68.2563C123.985 68.2563 124.369 66.7203 124.561 65.0403C124.753 63.3603 120.625 60.3363 116.449 60.6723C112.225 61.0083 113.761 65.1363 113.233 66.4803C112.705 67.8243 108.673 66.3843 107.569 68.8323C106.513 71.2323 108.385 71.9523 108.385 72.6723C108.385 73.3923 105.073 75.2643 105.505 79.4883C105.937 83.7123 113.233 87.8403 114.817 88.1763C116.449 88.5123 118.417 87.0243 118.417 85.7763C118.417 84.5283 121.105 84.0963 121.825 82.8963C122.545 81.7443 120.673 77.7123 120.769 76.8003C120.865 75.8883 123.649 72.3363 122.737 71.4243C121.825 70.5123 123.985 68.2563 123.985 68.2563Z" fill="#263238" stroke="#263238" stroke-miterlimit="10" stroke-linecap="round"/>
<path d="M119.713 69.2643C119.713 69.2643 121.105 69.1203 121.105 66.0483C121.105 62.9763 116.641 63.7443 116.017 64.9923C115.393 66.2403 115.873 68.5443 114.337 69.1683C112.801 69.7923 110.305 69.7923 110.305 71.0403C110.305 72.2883 110.305 72.7203 110.305 72.7203" stroke="white" stroke-width="0.75" stroke-miterlimit="10" stroke-linecap="round" stroke-linejoin="round"/>
<path d="M115.681 71.7123C115.681 71.7123 109.969 71.4243 107.041 76.6563" stroke="white" stroke-width="0.75" stroke-miterlimit="10" stroke-linecap="round" stroke-linejoin="round"/>
<path d="M116.449 73.1045C116.449 73.1045 112.609 73.2485 110.593 75.8885" stroke="white" stroke-width="0.75" stroke-miterlimit="10" stroke-linecap="round" stroke-linejoin="round"/>
<path d="M123.024 68.7842C123.264 68.4482 126.576 71.9042 126.72 72.2882C126.864 72.6722 126.96 73.3442 127.008 73.7282C127.056 73.9202 127.152 74.0642 127.296 74.1602L129.6 75.7442C129.936 75.9842 129.984 76.4162 129.792 76.7042L128.976 77.8562C128.832 78.0482 128.832 78.3362 128.928 78.5282C129.6 79.9202 131.856 84.8642 131.712 85.2482C131.52 85.6802 131.184 86.1602 130.704 86.3042C130.272 86.4962 122.016 89.2802 121.008 89.3282C120.24 89.3762 118.416 86.3042 117.6 84.8162C117.408 84.4802 116.976 84.3842 116.64 84.5762C116.16 84.8642 115.344 85.1042 114.336 84.6242C112.56 83.8082 110.496 82.2722 111.36 80.5922C112.272 78.9122 113.712 78.8162 114.336 79.2482C114.768 79.5362 115.488 80.1602 115.92 80.5442C116.16 80.7362 116.448 80.7842 116.736 80.6402L117.12 80.4002C117.504 80.1602 117.6 79.6802 117.312 79.3442C117.12 79.1522 116.976 78.7202 116.976 78.7202C116.976 78.7202 119.568 76.4642 118.656 75.2162C117.744 73.9682 115.344 72.0962 115.632 71.0882C115.92 70.0802 119.472 68.8322 121.008 68.8322C121.68 68.9762 122.832 69.0722 123.024 68.7842Z" fill="white"/>
<path d="M118.752 75.36C119.664 76.608 117.072 78.864 117.072 78.864C117.072 78.864 117.216 79.296 117.408 79.488C117.696 79.824 117.6 80.304 117.216 80.544L116.832 80.784C116.592 80.928 116.256 80.88 116.016 80.688C115.584 80.304 114.816 79.68 114.432 79.392C113.808 78.96 112.368 79.056 111.456 80.736C110.544 82.416 112.608 83.952 114.432 84.768C115.44 85.2 116.208 85.008 116.736 84.72C117.072 84.528 117.504 84.624 117.696 84.96C118.512 86.4 120.336 89.52 121.104 89.472C122.112 89.376 130.32 86.592 130.8 86.448C131.28 86.304 131.616 85.824 131.808 85.392C131.808 85.392 128.256 87.072 126.288 85.344C124.368 83.616 121.824 81.072 121.056 79.92C120.288 78.768 121.92 76.176 120.288 73.728C118.656 71.28 115.776 71.376 115.776 71.376C115.44 72.192 117.84 74.112 118.752 75.36Z" fill="#0085E5"/>
<path opacity="0.5" d="M118.752 75.36C119.664 76.608 117.072 78.864 117.072 78.864C117.072 78.864 117.216 79.296 117.408 79.488C117.696 79.824 117.6 80.304 117.216 80.544L116.832 80.784C116.592 80.928 116.256 80.88 116.016 80.688C115.584 80.304 114.816 79.68 114.432 79.392C113.808 78.96 112.368 79.056 111.456 80.736C110.544 82.416 112.608 83.952 114.432 84.768C115.44 85.2 116.208 85.008 116.736 84.72C117.072 84.528 117.504 84.624 117.696 84.96C118.512 86.4 120.336 89.52 121.104 89.472C122.112 89.376 130.32 86.592 130.8 86.448C131.28 86.304 131.616 85.824 131.808 85.392C131.808 85.392 128.256 87.072 126.288 85.344C124.368 83.616 121.824 81.072 121.056 79.92C120.288 78.768 121.92 76.176 120.288 73.728C118.656 71.28 115.776 71.376 115.776 71.376C115.44 72.192 117.84 74.112 118.752 75.36Z" fill="white"/>
<path d="M123.024 68.7842C123.264 68.4482 126.576 71.9042 126.72 72.2882C126.864 72.6722 126.96 73.3442 127.008 73.7282C127.056 73.9202 127.152 74.0642 127.296 74.1602L129.6 75.7442C129.936 75.9842 129.984 76.4162 129.792 76.7042L128.976 77.8562C128.832 78.0482 128.832 78.3362 128.928 78.5282C129.6 79.9202 131.856 84.8642 131.712 85.2482C131.52 85.6802 131.184 86.1602 130.704 86.3042C130.272 86.4962 122.016 89.2802 121.008 89.3282C120.24 89.3762 118.416 86.3042 117.6 84.8162C117.408 84.4802 116.976 84.3842 116.64 84.5762C116.16 84.8642 115.344 85.1042 114.336 84.6242C112.56 83.8082 110.496 82.2722 111.36 80.5922C112.272 78.9122 113.712 78.8162 114.336 79.2482C114.768 79.5362 115.488 80.1602 115.92 80.5442C116.16 80.7362 116.448 80.7842 116.736 80.6402L117.12 80.4002C117.504 80.1602 117.6 79.6802 117.312 79.3442C117.12 79.1522 116.976 78.7202 116.976 78.7202C116.976 78.7202 119.568 76.4642 118.656 75.2162C117.744 73.9682 115.344 72.0962 115.632 71.0882C115.92 70.0802 119.472 68.8322 121.008 68.8322C121.68 68.9762 122.832 69.0722 123.024 68.7842Z" stroke="#263238" stroke-miterlimit="10" stroke-linecap="round"/>
<path d="M125.568 73.5842C125.568 73.5842 123.648 73.5842 123.12 73.8722C122.592 74.1602 121.872 76.0802 121.872 76.0802L123.648 74.9762L125.712 74.5442L126.24 73.0562L125.568 73.5842Z" fill="#263238"/>
<path d="M125.712 75.5044L124.032 76.3204H125.712" fill="white"/>
<path d="M125.712 75.5044L124.032 76.3204H125.712" stroke="#263238" stroke-miterlimit="10" stroke-linecap="round"/>
<path d="M123.936 163.392C123.936 163.392 119.28 164.736 115.056 167.328C110.832 169.92 103.872 174.048 100.704 174.24C97.5843 174.432 96.5763 173.424 94.7043 172.704C92.8323 171.984 91.8243 174.336 91.8243 175.68C91.8243 177.024 91.8243 177.648 90.9123 178.896C90.0003 180.144 87.6963 184.8 87.6963 184.8C87.6963 184.8 86.4483 189.84 87.6963 189.984C88.9443 190.176 89.7603 188.448 92.3523 186.288C94.9443 184.128 99.0723 179.472 102.768 179.136C106.464 178.8 122.832 177.072 129.648 173.856C136.464 170.64 136.032 171.504 138 170.016C139.968 168.48 139.248 165.6 138.288 163.632C137.28 161.664 136.032 160.752 136.032 160.752" fill="white"/>
<path d="M133.728 172.081C132.912 171.937 132.288 171.745 132.288 171.409C132.288 170.641 134.64 170.641 135.792 169.057C136.944 167.521 135.6 165.937 134.064 164.209C133.488 163.537 132.72 162.577 131.952 161.665L124.032 163.393C124.032 163.393 119.376 164.737 115.152 167.329C110.928 169.921 103.968 174.049 100.8 174.241C97.68 174.433 96.672 173.425 94.8 172.705C92.928 171.985 91.92 174.337 91.92 175.681C91.92 177.025 91.92 177.649 91.008 178.897C90.096 180.145 87.792 184.801 87.792 184.801C87.792 184.801 86.544 189.841 87.792 189.985C89.04 190.177 89.856 188.449 92.448 186.289C95.04 184.129 99.168 179.473 102.864 179.137C106.56 178.801 122.928 177.073 129.744 173.857C131.472 173.041 132.768 172.465 133.728 172.081Z" fill="#0085E5"/>
<path opacity="0.5" d="M133.728 172.081C132.912 171.937 132.288 171.745 132.288 171.409C132.288 170.641 134.64 170.641 135.792 169.057C136.944 167.521 135.6 165.937 134.064 164.209C133.488 163.537 132.72 162.577 131.952 161.665L124.032 163.393C124.032 163.393 119.376 164.737 115.152 167.329C110.928 169.921 103.968 174.049 100.8 174.241C97.68 174.433 96.672 173.425 94.8 172.705C92.928 171.985 91.92 174.337 91.92 175.681C91.92 177.025 91.92 177.649 91.008 178.897C90.096 180.145 87.792 184.801 87.792 184.801C87.792 184.801 86.544 189.841 87.792 189.985C89.04 190.177 89.856 188.449 92.448 186.289C95.04 184.129 99.168 179.473 102.864 179.137C106.56 178.801 122.928 177.073 129.744 173.857C131.472 173.041 132.768 172.465 133.728 172.081Z" fill="white"/>
<path d="M123.936 163.392C123.936 163.392 119.28 164.736 115.056 167.328C110.832 169.92 103.872 174.048 100.704 174.24C97.5843 174.432 96.5763 173.424 94.7043 172.704C92.8323 171.984 91.8243 174.336 91.8243 175.68C91.8243 177.024 91.8243 177.648 90.9123 178.896C90.0003 180.144 87.6963 184.8 87.6963 184.8C87.6963 184.8 86.4483 189.84 87.6963 189.984C88.9443 190.176 89.7603 188.448 92.3523 186.288C94.9443 184.128 99.0723 179.472 102.768 179.136C106.464 178.8 122.832 177.072 129.648 173.856C136.464 170.64 136.032 171.504 138 170.016C139.968 168.48 139.248 165.6 138.288 163.632C137.28 161.664 136.032 160.752 136.032 160.752" stroke="#263238" stroke-miterlimit="10" stroke-linecap="round"/>
<path d="M138.672 164.592C138.672 164.592 136.56 156.24 122.256 144.192C112.656 136.08 108.384 134.352 102.912 139.152C97.44 144 98.496 147.12 100.512 150.192C102.48 153.216 110.544 159.072 117.168 162.048C123.792 165.024 130.512 169.152 134.304 168.768" fill="white"/>
<path d="M128.016 158.592C126.096 158.4 129.552 162.288 125.472 161.328C121.392 160.368 107.232 148.32 104.304 144.432C101.904 141.216 103.968 138.576 104.784 137.712C104.16 138.096 103.536 138.576 102.864 139.152C97.3922 144 98.4482 147.12 100.464 150.192C102.432 153.216 110.496 159.072 117.12 162.048C123.744 165.024 130.464 169.152 134.256 168.768L136.032 167.088C135.696 166.176 134.88 165.216 134.016 164.256C132.48 162.48 129.936 158.784 128.016 158.592Z" fill="#0085E5"/>
<path opacity="0.5" d="M128.016 158.592C126.096 158.4 129.552 162.288 125.472 161.328C121.392 160.368 107.232 148.32 104.304 144.432C101.904 141.216 103.968 138.576 104.784 137.712C104.16 138.096 103.536 138.576 102.864 139.152C97.3922 144 98.4482 147.12 100.464 150.192C102.432 153.216 110.496 159.072 117.12 162.048C123.744 165.024 130.464 169.152 134.256 168.768L136.032 167.088C135.696 166.176 134.88 165.216 134.016 164.256C132.48 162.48 129.936 158.784 128.016 158.592Z" fill="white"/>
<path d="M138.672 164.592C138.672 164.592 136.56 156.24 122.256 144.192C112.656 136.08 108.384 134.352 102.912 139.152C97.44 144 98.496 147.12 100.512 150.192C102.48 153.216 110.544 159.072 117.168 162.048C123.792 165.024 130.512 169.152 134.304 168.768" stroke="#263238" stroke-miterlimit="10" stroke-linecap="round"/>
<path d="M116.688 172.512C115.776 170.496 116.016 168.24 116.448 166.512C116.016 166.752 115.536 167.04 115.104 167.28C110.88 169.872 103.92 174 100.752 174.192C97.6321 174.384 96.6241 173.376 94.7521 172.656C92.8801 171.936 91.8721 174.288 91.8721 175.632C91.8721 176.976 91.8721 177.6 90.9601 178.848C90.0481 180.096 87.7441 184.752 87.7441 184.752C87.7441 184.752 86.4961 189.792 87.7441 189.936C88.9921 190.128 89.8081 188.4 92.4001 186.24C94.9921 184.08 99.1201 179.424 102.816 179.088C105.36 178.848 113.856 177.984 121.152 176.4C119.616 175.872 117.696 174.768 116.688 172.512Z" fill="#0085E5"/>
<path opacity="0.2" d="M116.688 172.512C115.776 170.496 116.016 168.24 116.448 166.512C116.016 166.752 115.536 167.04 115.104 167.28C110.88 169.872 103.92 174 100.752 174.192C97.6321 174.384 96.6241 173.376 94.7521 172.656C92.8801 171.936 91.8721 174.288 91.8721 175.632C91.8721 176.976 91.8721 177.6 90.9601 178.848C90.0481 180.096 87.7441 184.752 87.7441 184.752C87.7441 184.752 86.4961 189.792 87.7441 189.936C88.9921 190.128 89.8081 188.4 92.4001 186.24C94.9921 184.08 99.1201 179.424 102.816 179.088C105.36 178.848 113.856 177.984 121.152 176.4C119.616 175.872 117.696 174.768 116.688 172.512Z" fill="black"/>
<path d="M116.688 172.512C115.776 170.496 116.016 168.24 116.448 166.512C116.016 166.752 115.536 167.04 115.104 167.28C110.88 169.872 103.92 174 100.752 174.192C97.6321 174.384 96.6241 173.376 94.7521 172.656C92.8801 171.936 91.8721 174.288 91.8721 175.632C91.8721 176.976 91.8721 177.6 90.9601 178.848C90.0481 180.096 87.7441 184.752 87.7441 184.752C87.7441 184.752 86.4961 189.792 87.7441 189.936C88.9921 190.128 89.8081 188.4 92.4001 186.24C94.9921 184.08 99.1201 179.424 102.816 179.088C105.36 178.848 113.856 177.984 121.152 176.4C119.616 175.872 117.696 174.768 116.688 172.512Z" stroke="#263238" stroke-miterlimit="10" stroke-linecap="round" stroke-linejoin="round"/>
<path d="M101.137 148.992C101.137 148.992 120.721 161.52 126.481 163.632C132.241 165.744 130.945 161.808 130.945 161.808" stroke="#263238" stroke-miterlimit="10" stroke-linecap="round" stroke-linejoin="round"/>
<path d="M118.656 173.568C118.656 173.568 124.128 174.096 127.824 170.688" stroke="#263238" stroke-miterlimit="10" stroke-linecap="round" stroke-linejoin="round"/>
<path d="M117.456 103.296C117.456 103.296 110.496 98.7364 102.48 99.6964C94.4165 100.656 84.8644 108.864 78.6724 115.92C72.4804 122.976 44.9284 161.328 44.9284 161.328L44.0645 155.04C43.6805 152.064 44.4485 149.088 46.2245 146.688L50.5925 140.88C50.5925 140.88 51.0245 133.728 54.9125 130.032C58.8005 126.336 62.2565 124.272 63.2645 123.552C64.2725 122.88 74.3045 112.8 81.4085 105.6C88.5125 98.4004 97.0565 93.2644 104.88 95.4244C112.656 97.5844 115.776 99.2644 117.6 100.848C119.424 102.432 119.472 102.288 119.472 102.288L117.456 103.296Z" fill="#0085E5" stroke="#263238" stroke-miterlimit="10" stroke-linecap="round"/>
<path d="M70.2725 120.385L71.9045 118.561" stroke="#263238" stroke-miterlimit="10" stroke-linecap="round"/>
<path d="M50.6406 140.928L69.6006 121.008" stroke="#263238" stroke-miterlimit="10" stroke-linecap="round"/>
<path d="M96.7684 98.6401C96.2404 98.8321 95.7604 99.0721 95.2324 99.3121" stroke="#263238" stroke-miterlimit="10" stroke-linecap="round"/>
<path d="M118.321 103.105C118.321 103.105 108.529 95.2325 98.2568 98.1605" stroke="#263238" stroke-miterlimit="10" stroke-linecap="round"/>
<path d="M101.28 159.792C101.28 159.792 102.096 158.256 101.568 157.536C101.04 156.816 100.56 156.72 99.6 155.856C98.592 154.944 98.064 154.704 96.912 154.704C95.76 154.704 94.512 154.8 94.512 154.8C94.512 154.8 92.736 154.08 92.736 148.896C92.736 145.2 93.552 141.888 94.32 139.44C93.12 140.16 91.392 140.88 89.184 141.072C86.256 141.36 84.384 139.872 83.376 138.672C83.664 141.264 84.192 144.144 85.056 147.024C87.024 153.552 88.368 156.432 88.896 157.584C89.424 158.736 94.08 164.688 94.896 164.832C95.712 165.024 96.528 165.168 97.152 164.832C97.776 164.496 102.432 163.392 102.24 162.048C102.048 160.704 101.712 160.368 101.52 160.08C101.28 159.792 101.28 159.792 101.28 159.792Z" fill="#0085E5"/>
<path opacity="0.2" d="M102.192 162.048C102.192 161.904 102.144 161.76 102.144 161.664C102.144 161.616 102.144 161.568 102.144 161.568C102.144 161.472 102.096 161.376 102.096 161.328C102.096 161.28 102.048 161.184 102.048 161.136C100.32 161.376 97.2 162.432 96.336 162.432C95.424 162.432 94.464 161.04 93.12 159.504C91.728 157.968 89.568 153.936 89.28 149.04C89.088 146.064 89.808 143.232 90.384 140.928C90 141.024 89.616 141.072 89.184 141.12C86.256 141.408 84.384 139.92 83.376 138.72C83.376 138.864 83.424 138.96 83.424 139.104C83.472 139.344 83.472 139.536 83.52 139.776C83.52 139.92 83.568 140.064 83.568 140.256C83.616 140.448 83.616 140.688 83.664 140.88C83.712 141.024 83.712 141.216 83.76 141.36C83.808 141.552 83.808 141.792 83.856 141.984C83.904 142.128 83.904 142.32 83.952 142.464C84 142.704 84.048 142.896 84.096 143.136C84.144 143.28 84.144 143.472 84.192 143.616C84.24 143.856 84.288 144.096 84.336 144.288C84.384 144.432 84.384 144.576 84.432 144.768C84.48 145.008 84.576 145.296 84.624 145.536C84.672 145.68 84.672 145.776 84.72 145.92C84.816 146.304 84.912 146.688 85.056 147.072C87.024 153.6 88.368 156.48 88.896 157.632C88.944 157.728 88.992 157.776 89.04 157.92C89.136 158.064 89.28 158.256 89.424 158.496C89.664 158.88 90 159.312 90.384 159.792C90.48 159.888 90.528 159.984 90.624 160.08C92.208 162.192 94.416 164.784 94.944 164.88C95.76 165.072 96.576 165.216 97.2 164.88C97.296 164.832 97.584 164.736 97.92 164.592C98.016 164.544 98.16 164.496 98.304 164.448C99.744 163.92 102.288 163.056 102.192 162.048Z" fill="black"/>
<path d="M100.752 158.208L99.6484 159.168C99.6484 159.168 100.464 159.12 101.472 160.08" stroke="#263238" stroke-miterlimit="10" stroke-linecap="round" stroke-linejoin="round"/>
<path d="M101.28 159.792C101.28 159.792 102.096 158.256 101.568 157.536C101.04 156.816 100.56 156.72 99.6 155.856C98.592 154.944 98.064 154.704 96.912 154.704C95.76 154.704 94.512 154.8 94.512 154.8C94.512 154.8 92.736 154.08 92.736 148.896C92.736 145.2 93.552 141.888 94.32 139.44C93.12 140.16 91.392 140.88 89.184 141.072C86.256 141.36 84.384 139.872 83.376 138.672C83.664 141.264 84.192 144.144 85.056 147.024C87.024 153.552 88.368 156.432 88.896 157.584C89.424 158.736 94.08 164.688 94.896 164.832C95.712 165.024 96.528 165.168 97.152 164.832C97.776 164.496 102.432 163.392 102.24 162.048C102.048 160.704 101.712 160.368 101.52 160.08C101.28 159.792 101.28 159.792 101.28 159.792Z" stroke="#263238" stroke-miterlimit="10" stroke-linecap="round" stroke-linejoin="round"/>
<path d="M171.264 66.2402L155.808 80.7362" stroke="#263238" stroke-miterlimit="10" stroke-linecap="round" stroke-linejoin="round"/>
<path d="M154.368 82.0801L151.872 84.4321" stroke="#263238" stroke-miterlimit="10" stroke-linecap="round" stroke-linejoin="round"/>
<path d="M59.3278 158.16L56.5918 160.704" stroke="#263238" stroke-miterlimit="10" stroke-linecap="round" stroke-linejoin="round"/>
<path d="M79.2483 139.44L61.4883 156.096" stroke="#263238" stroke-miterlimit="10" stroke-linecap="round" stroke-linejoin="round"/>
<path d="M95.9996 191.376L94.2236 193.056" stroke="#263238" stroke-miterlimit="10" stroke-linecap="round" stroke-linejoin="round"/>
<path d="M107.136 180.912L97.8242 189.648" stroke="#263238" stroke-miterlimit="10" stroke-linecap="round" stroke-linejoin="round"/>
<path d="M31.5838 166.32L29.4238 168.336" stroke="#263238" stroke-miterlimit="10" stroke-linecap="round" stroke-linejoin="round"/>
<path d="M52.0799 147.072L34.4639 163.632" stroke="#263238" stroke-miterlimit="10" stroke-linecap="round" stroke-linejoin="round"/>
<path d="M83.3756 97.4883L80.6396 100.032" stroke="#263238" stroke-miterlimit="10" stroke-linecap="round" stroke-linejoin="round"/>
<path d="M103.296 78.7681L85.6797 95.2801" stroke="#263238" stroke-miterlimit="10" stroke-linecap="round" stroke-linejoin="round"/>
<path d="M167.471 73.5361L144.815 94.8001" stroke="#263238" stroke-miterlimit="10" stroke-linecap="round" stroke-linejoin="round"/>
<path d="M200.736 124.272C197.472 122.496 195.984 123.984 194.784 122.496C193.584 121.008 198.048 117.168 189.12 113.28C189.12 113.28 188.544 104.976 176.352 104.688C164.16 104.4 167.424 112.992 164.16 115.104C160.896 117.168 159.984 113.904 156.72 116.016C153.456 118.08 154.944 122.256 152.256 122.832C149.568 123.408 146.016 120.144 142.752 122.256C139.488 124.32 139.488 126.096 138 126.096C136.512 126.096 133.536 124.896 131.76 126.096C129.984 127.296 127.92 128.784 127.92 128.784H203.04C203.136 128.688 204 126.048 200.736 124.272Z" fill="white"/>
<path d="M91.872 76.1762C90.624 75.5042 90.048 76.0802 89.568 75.5042C89.088 74.9282 90.816 73.4402 87.408 71.9522C87.408 71.9522 87.168 68.7362 82.464 68.6402C77.76 68.5442 79.008 71.8562 77.76 72.6722C76.512 73.4882 76.176 72.1922 74.88 73.0082C73.632 73.8242 74.208 75.4082 73.152 75.6482C72.144 75.8882 70.752 74.6402 69.504 75.4082C68.256 76.2242 68.256 76.8962 67.68 76.8962C67.104 76.8962 65.952 76.4162 65.28 76.8962C64.608 77.3762 63.792 77.9042 63.792 77.9042H92.784C92.784 77.9042 93.12 76.8482 91.872 76.1762Z" fill="white"/>
</svg>
