<svg width="130" height="130" viewBox="0 0 130 130" fill="none" xmlns="http://www.w3.org/2000/svg">
<path d="M68.6145 114.218C94.8779 114.218 116.169 112.472 116.169 110.318C116.169 108.164 94.8779 106.418 68.6145 106.418C42.3512 106.418 21.0605 108.164 21.0605 110.318C21.0605 112.472 42.3512 114.218 68.6145 114.218Z" fill="#0085E5"/>
<path opacity="0.5" d="M68.6145 114.218C94.8779 114.218 116.169 112.472 116.169 110.318C116.169 108.164 94.8779 106.418 68.6145 106.418C42.3512 106.418 21.0605 108.164 21.0605 110.318C21.0605 112.472 42.3512 114.218 68.6145 114.218Z" fill="white"/>
<path d="M113.751 76.076C113.751 76.05 113.725 76.05 113.751 76.076C113.413 76.024 110.163 75.738 107.173 77.298C108.317 75.816 109.097 73.866 108.863 71.422C108.135 64.2201 101.349 60.112 100.829 59.8C100.829 59.8 100.829 59.8 100.803 59.8H100.777V59.8261C100.257 60.1381 93.4708 64.246 92.7428 71.448C92.5868 73.008 92.8468 74.386 93.3668 75.53C89.5448 73.242 85.0728 73.632 84.6828 73.658V73.632C84.6828 73.632 84.6828 73.632 84.6828 73.658H84.6568V73.684C84.4488 74.152 81.9008 80.288 84.9688 85.488C87.6988 90.142 93.4708 88.92 95.0308 88.478C96.3308 89.856 98.7228 93.002 99.7888 98.358H98.3068L99.0348 108.498H102.389L103.117 98.358H101.375C102.415 93.86 104.131 90.48 105.665 88.166C107.225 88.556 111.463 89.206 113.543 85.67C115.987 81.432 113.907 76.466 113.751 76.076ZM100.699 76.05L97.1628 71.136C97.1368 71.084 97.1368 71.032 97.1888 71.006C97.2408 70.98 97.2928 70.98 97.3188 71.032L100.699 75.738V70.746L97.1628 65.832C97.1368 65.78 97.1368 65.728 97.1888 65.702C97.2408 65.676 97.2928 65.676 97.3188 65.728L100.699 70.434V63.18C100.699 63.128 100.751 63.076 100.803 63.076C100.855 63.076 100.907 63.128 100.907 63.18V70.2L104.573 65.546C104.599 65.494 104.677 65.494 104.703 65.52C104.755 65.546 104.755 65.624 104.729 65.65L100.907 70.512V75.504L104.573 70.85C104.599 70.798 104.677 70.798 104.703 70.824C104.755 70.85 104.755 70.928 104.729 70.954L100.907 75.816V80.028L104.573 75.374C104.599 75.322 104.677 75.322 104.703 75.348C104.755 75.374 104.755 75.452 104.729 75.478L100.907 80.34V80.444H100.595L97.1628 75.66C97.1368 75.608 97.1368 75.556 97.1888 75.53C97.2408 75.504 97.2928 75.504 97.3188 75.556L100.699 80.262V76.05ZM95.0828 88.062L94.7448 87.594L89.7528 86.216C89.7008 86.216 89.6748 86.164 89.7008 86.112C89.7008 86.06 89.7528 86.034 89.8048 86.06L94.5888 87.386L92.5088 84.552L87.5168 83.174C87.4648 83.174 87.4388 83.122 87.4648 83.07C87.4648 83.018 87.5168 82.992 87.5688 83.018L92.3528 84.344L89.8828 80.99L84.8908 79.612C84.8388 79.612 84.8128 79.56 84.8388 79.508C84.8388 79.456 84.8908 79.43 84.9428 79.456L89.7268 80.782L86.2688 76.05C86.2428 76.024 86.2428 75.972 86.2948 75.946C86.3208 75.92 86.3728 75.92 86.3988 75.972L89.9868 80.86L89.9608 75.998C89.9608 75.946 89.9868 75.92 90.0388 75.92C90.0908 75.92 90.1168 75.946 90.1168 75.998L90.1428 81.068L92.6128 84.422L92.5868 79.56C92.5868 79.508 92.6128 79.482 92.6648 79.482C92.7168 79.482 92.7428 79.508 92.7428 79.56L92.7688 84.63L94.8488 87.464L94.8228 82.602C94.8228 82.55 94.8488 82.524 94.9008 82.524C94.9528 82.524 94.9788 82.55 94.9788 82.602L95.0048 87.672L95.2908 88.088H95.0828V88.062ZM95.6548 88.062C96.3828 86.944 98.4888 83.33 97.2148 79.82C98.4628 80.652 99.6848 81.172 100.309 81.406V97.162C99.1648 92.326 96.9808 89.44 95.6808 88.036H95.6548V88.062ZM101.089 96.2V81.484C101.609 81.302 102.779 80.834 104.053 80.028C102.051 83.226 104.287 86.944 104.885 87.802C103.585 89.83 102.129 92.586 101.089 96.2ZM113.569 80.834L109.513 81.952L107.511 84.682L111.385 83.59C111.411 83.59 111.463 83.59 111.463 83.642C111.463 83.668 111.463 83.72 111.411 83.72L107.355 84.838L105.665 87.152L109.539 86.06C109.565 86.06 109.617 86.06 109.617 86.112C109.617 86.138 109.617 86.19 109.565 86.19L105.509 87.308L105.301 87.594C105.275 87.568 105.223 87.542 105.197 87.516L105.327 87.36L105.353 83.252C105.353 83.226 105.379 83.174 105.431 83.2C105.457 83.2 105.509 83.226 105.483 83.278L105.457 87.23L107.147 84.916L107.173 80.808C107.173 80.782 107.199 80.73 107.251 80.756C107.277 80.756 107.329 80.782 107.303 80.834L107.277 84.786L109.279 82.056L109.305 77.948C109.305 77.922 109.331 77.87 109.383 77.896C109.409 77.896 109.461 77.922 109.435 77.974L109.409 81.926L112.321 77.948C112.347 77.922 112.373 77.922 112.425 77.922C112.451 77.948 112.451 77.974 112.451 78.026L109.643 81.874L113.517 80.782C113.543 80.782 113.595 80.782 113.595 80.834C113.621 80.782 113.595 80.834 113.569 80.834Z" fill="#263238"/>
<path d="M32.3965 59.0459V61.3599" stroke="#263238" stroke-miterlimit="10" stroke-linecap="round" stroke-linejoin="round"/>
<path d="M33.566 60.2159H31.252" stroke="#263238" stroke-miterlimit="10" stroke-linecap="round" stroke-linejoin="round"/>
<path d="M104.859 39.286V41.6" stroke="#263238" stroke-miterlimit="10" stroke-linecap="round" stroke-linejoin="round"/>
<path d="M106.003 40.4561H103.715" stroke="#263238" stroke-miterlimit="10" stroke-linecap="round" stroke-linejoin="round"/>
<path d="M57.5391 69.9659V72.2799" stroke="#263238" stroke-miterlimit="10" stroke-linecap="round" stroke-linejoin="round"/>
<path d="M58.6825 71.136H56.3945" stroke="#263238" stroke-miterlimit="10" stroke-linecap="round" stroke-linejoin="round"/>
<path d="M78.3379 21.45V23.738" stroke="#263238" stroke-miterlimit="10" stroke-linecap="round" stroke-linejoin="round"/>
<path d="M79.4814 22.594H77.1934" stroke="#263238" stroke-miterlimit="10" stroke-linecap="round" stroke-linejoin="round"/>
<path d="M78.3379 83.356V85.644" stroke="#263238" stroke-miterlimit="10" stroke-linecap="round" stroke-linejoin="round"/>
<path d="M79.4814 84.5H77.1934" stroke="#263238" stroke-miterlimit="10" stroke-linecap="round" stroke-linejoin="round"/>
<path d="M60.0586 29.6399V31.1999" stroke="#263238" stroke-miterlimit="10" stroke-linecap="round" stroke-linejoin="round"/>
<path d="M60.8653 30.4199H59.2793" stroke="#263238" stroke-miterlimit="10" stroke-linecap="round" stroke-linejoin="round"/>
<path d="M31.3555 36.5559V38.8439" stroke="#263238" stroke-miterlimit="10" stroke-linecap="round" stroke-linejoin="round"/>
<path d="M32.4995 37.7H30.1855" stroke="#263238" stroke-miterlimit="10" stroke-linecap="round" stroke-linejoin="round"/>
<path d="M40.3789 84.8899V87.1779" stroke="#263238" stroke-miterlimit="10" stroke-linecap="round" stroke-linejoin="round"/>
<path d="M41.5224 86.0339H39.2344" stroke="#263238" stroke-miterlimit="10" stroke-linecap="round" stroke-linejoin="round"/>
<path d="M103.771 31.4588C104.033 30.4438 103.422 29.4087 102.407 29.1468C101.392 28.885 100.357 29.4955 100.095 30.5106C99.8334 31.5256 100.444 32.5607 101.459 32.8225C102.474 33.0844 103.509 32.4738 103.771 31.4588Z" stroke="#263238" stroke-miterlimit="10" stroke-linecap="round" stroke-linejoin="round"/>
<path d="M80.6007 70.9799C80.6007 72.0459 79.7427 72.8779 78.7027 72.8779C77.6627 72.8779 76.8047 72.0199 76.8047 70.9799C76.8047 69.9399 77.6627 69.0819 78.7027 69.0819C79.7427 69.0819 80.6007 69.9139 80.6007 70.9799Z" stroke="#263238" stroke-miterlimit="10" stroke-linecap="round" stroke-linejoin="round"/>
<path d="M28.4427 76.7689C29.4163 76.3805 29.8907 75.2765 29.5024 74.3029C29.114 73.3293 28.0099 72.8548 27.0363 73.2432C26.0627 73.6316 25.5883 74.7357 25.9766 75.7093C26.365 76.6829 27.4691 77.1573 28.4427 76.7689Z" stroke="#263238" stroke-miterlimit="10" stroke-linecap="round" stroke-linejoin="round"/>
<path d="M61.1002 90.7399C61.8038 90.7399 62.3742 90.1695 62.3742 89.4659C62.3742 88.7623 61.8038 88.1919 61.1002 88.1919C60.3966 88.1919 59.8262 88.7623 59.8262 89.4659C59.8262 90.1695 60.3966 90.7399 61.1002 90.7399Z" stroke="#263238" stroke-miterlimit="10" stroke-linecap="round" stroke-linejoin="round"/>
<path d="M81.8215 50.4919C81.8215 50.7259 81.6395 50.9339 81.3795 50.9339C81.1455 50.9339 80.9375 50.7519 80.9375 50.4919C80.9375 50.2579 81.1195 50.0499 81.3795 50.0499C81.6135 50.0499 81.8215 50.2319 81.8215 50.4919Z" stroke="#263238" stroke-miterlimit="10" stroke-linecap="round" stroke-linejoin="round"/>
<path d="M52.5988 44.2519C52.5988 44.4859 52.4168 44.6939 52.1568 44.6939C51.9228 44.6939 51.7148 44.5119 51.7148 44.2519C51.7148 44.0179 51.8968 43.8099 52.1568 43.8099C52.4168 43.8099 52.5988 43.9919 52.5988 44.2519Z" stroke="#263238" stroke-miterlimit="10" stroke-linecap="round" stroke-linejoin="round"/>
<path d="M66.5598 71.5C66.5598 71.734 66.3778 71.942 66.1178 71.942C65.8578 71.942 65.6758 71.76 65.6758 71.5C65.6758 71.266 65.8578 71.058 66.1178 71.058C66.3778 71.058 66.5598 71.266 66.5598 71.5Z" stroke="#263238" stroke-miterlimit="10" stroke-linecap="round" stroke-linejoin="round"/>
<path d="M87.6203 91.7799C87.6203 92.0139 87.4383 92.2219 87.1783 92.2219C86.9183 92.2219 86.7363 92.0399 86.7363 91.7799C86.7363 91.5459 86.9183 91.3379 87.1783 91.3379C87.4383 91.3379 87.6203 91.5459 87.6203 91.7799Z" stroke="#263238" stroke-miterlimit="10" stroke-linecap="round" stroke-linejoin="round"/>
<path d="M50.7522 32.8121C50.7522 32.8121 52.1302 31.7201 51.1682 30.2901C50.2062 28.8341 45.3962 28.6781 41.9642 30.2381C38.5322 31.7981 38.8442 33.8521 39.1302 34.5021C39.4422 35.1521 39.8582 36.0101 39.8582 36.0101V38.0641C39.8582 38.0641 39.6762 39.2601 37.6222 40.7681C35.5682 42.2761 34.0082 44.7461 34.4242 46.5401C34.8402 48.3341 36.1662 48.4121 35.0742 49.7901C33.9822 51.1681 30.2642 52.0781 30.0302 54.9641C29.7963 57.8501 30.6282 62.1141 36.8422 62.7901C43.0302 63.4401 45.5782 61.2821 48.6462 57.4861C51.7142 53.6901 52.4422 50.8041 52.2082 47.5021C51.9742 44.2001 50.3362 43.7061 50.4142 41.6781C50.4662 39.6241 53.3002 36.3221 52.5722 34.2681C51.8442 32.2141 50.7522 32.8121 50.7522 32.8121Z" fill="#263238" stroke="#263238" stroke-miterlimit="10" stroke-linecap="round" stroke-linejoin="round"/>
<path d="M45.3444 42.5621C45.3444 42.5621 45.8384 44.4341 45.4744 45.3181C45.1104 46.2281 44.0964 46.5921 41.9124 47.4241C39.7544 48.2561 39.3904 50.5441 40.2224 52.4161C41.0544 54.2881 43.9404 58.9161 43.5244 59.9301C43.1084 60.9441 38.8184 64.2721 38.7664 69.0041C38.7144 73.7621 41.3664 80.1321 41.3664 80.1321H50.8044C50.8044 80.1321 51.8184 60.6321 51.8184 58.7601C51.8184 56.8881 51.6884 56.6541 52.4164 55.6401C52.4164 55.6401 56.4464 60.2681 57.5384 59.9041C58.6304 59.5401 64.4024 47.8661 64.4024 47.8661C64.4024 47.8661 65.5984 47.1381 66.4564 46.3581C67.2884 45.5781 67.7824 45.1621 67.5484 44.3041C67.3144 43.4721 66.5864 43.3421 66.5864 43.3421C66.5864 43.3421 68.1464 40.6901 67.9124 40.4041C67.6784 40.0921 67.1844 40.5341 66.7164 41.4961C66.2224 42.4581 65.3384 43.2901 64.5584 44.8761C63.7784 46.4361 63.5964 46.9301 63.5964 46.9301C63.5964 46.9301 58.5784 53.6901 57.9804 54.3401C57.3824 54.9901 57.2004 55.1201 57.2004 55.1201C57.2004 55.1201 55.6924 53.3261 54.6784 51.8181C53.6644 50.3101 53.5344 49.8421 52.6244 49.0621C51.7144 48.2821 48.6464 46.5401 48.2304 46.1761C47.8144 45.8121 48.1784 43.6541 48.1784 43.6541L45.3444 42.5621Z" fill="white" stroke="#263238" stroke-miterlimit="10" stroke-linecap="round" stroke-linejoin="round"/>
<path d="M68.3291 44.1221C68.3291 44.1221 68.8231 44.3561 68.5631 44.9541C68.3291 45.5521 67.3671 45.9681 67.1851 45.7341C67.0031 45.5001 68.3291 44.1221 68.3291 44.1221Z" fill="white" stroke="#263238" stroke-miterlimit="10" stroke-linecap="round" stroke-linejoin="round"/>
<path d="M67.8346 43.212C67.8346 43.212 68.7966 43.446 68.3286 44.122C67.8346 44.772 66.9506 45.682 66.7686 45.5C66.5866 45.318 67.0806 44.668 67.1326 44.408C67.1846 44.174 67.8346 43.212 67.8346 43.212Z" fill="white" stroke="#263238" stroke-miterlimit="10" stroke-linecap="round" stroke-linejoin="round"/>
<path d="M66.8207 43.758C66.8207 43.758 66.0407 44.954 66.3267 45.136C66.6387 45.318 67.3407 44.538 67.7047 43.81C68.0687 43.108 67.2887 42.926 66.8207 43.758Z" fill="white" stroke="#263238" stroke-miterlimit="10" stroke-linecap="round" stroke-linejoin="round"/>
<path d="M64.5849 46.4621C64.5849 46.4621 65.4169 45.9681 65.6769 45.4481C65.9109 44.9021 65.6769 44.2521 65.6769 44.2521C65.6769 44.2521 66.7689 44.0181 67.0029 44.0181C67.2369 44.0181 67.5489 43.6541 67.4969 43.2381C67.4449 42.8221 65.7549 43.2901 65.1569 43.4201C64.5589 43.5501 64.5589 44.9281 64.5589 44.9281L63.9609 46.5401" fill="white"/>
<path d="M64.5849 46.4621C64.5849 46.4621 65.4169 45.9681 65.6769 45.4481C65.9109 44.9021 65.6769 44.2521 65.6769 44.2521C65.6769 44.2521 66.7689 44.0181 67.0029 44.0181C67.2369 44.0181 67.5489 43.6541 67.4969 43.2381C67.4449 42.8221 65.7549 43.2901 65.1569 43.4201C64.5589 43.5501 64.5589 44.9281 64.5589 44.9281L63.9609 46.5401" stroke="#263238" stroke-miterlimit="10" stroke-linecap="round" stroke-linejoin="round"/>
<path d="M51.4804 79.3C51.4804 79.3 51.7144 82.732 50.9604 85.02C50.5184 86.398 48.9324 97.162 48.7504 99.372C48.5424 101.894 48.4124 105.56 48.8284 106.652C49.1404 107.484 51.6104 110.89 52.6244 111.358C52.9364 111.514 52.7284 112.008 52.3904 112.06C51.8704 112.138 50.5184 112.06 49.5044 111.696C48.5684 111.358 48.1264 110.006 47.1904 109.564C46.2544 109.122 44.8504 109.226 45.3704 108.056C45.8904 106.86 46.2544 105.898 46.2544 105.898C46.2544 105.898 46.2284 104.078 44.9544 93.912C44.6424 91.468 46.4364 86.086 46.4364 84.786C46.4364 83.486 45.6564 79.4561 45.6564 79.4561L51.4804 79.3Z" fill="white" stroke="#263238" stroke-miterlimit="10" stroke-linecap="round" stroke-linejoin="round"/>
<path d="M46.5137 110.786L46.8517 110.63L47.2937 109.538L46.5917 109.382L46.5137 110.786Z" fill="#0085E5" stroke="#263238" stroke-miterlimit="10" stroke-linecap="round" stroke-linejoin="round"/>
<path d="M45.3184 108.732L45.8644 110.604L46.5144 110.786L46.7224 109.304L45.3184 108.732Z" fill="#0085E5" stroke="#263238" stroke-miterlimit="10" stroke-linecap="round" stroke-linejoin="round"/>
<path d="M52.6246 111.358C52.4166 111.15 51.8186 110.786 51.5586 110.474C51.1166 110.578 50.4146 110.682 49.9466 110.552C48.8546 110.266 48.4126 108.966 47.5026 108.212C46.5926 107.458 45.9426 106.73 45.9426 106.73H45.9166C45.7606 107.094 45.5786 107.562 45.3446 108.082C44.8246 109.252 46.2286 109.148 47.1646 109.59C48.1006 110.032 48.5426 111.384 49.4786 111.722C50.4926 112.086 51.8446 112.138 52.3646 112.086C52.7286 112.008 52.8586 111.592 52.6246 111.358Z" fill="#0085E5" stroke="#263238" stroke-miterlimit="10" stroke-linecap="round" stroke-linejoin="round"/>
<path d="M47.3189 76.6221C47.3189 76.6221 47.2409 83.2781 47.0069 85.2021C46.7729 86.9961 45.9929 91.5721 41.8849 98.5141C40.5069 100.854 38.3229 105.586 38.3229 106.626C38.3749 107.042 38.9209 109.122 39.5709 109.954C40.5849 111.254 41.3129 111.93 40.8189 112.19C40.3249 112.45 38.5829 111.982 37.4649 111.384C36.5029 110.838 35.8529 109.46 35.0989 108.472C34.3449 107.484 34.8389 106.86 35.6189 106.21C36.3989 105.56 36.7629 103.688 37.0229 103.038C37.2829 102.388 39.2329 91.9101 39.9609 89.7521C40.6889 87.5941 42.0929 85.2801 42.0929 85.2801L40.7929 76.8301L47.3189 76.6221Z" fill="white" stroke="#263238" stroke-miterlimit="10" stroke-linecap="round" stroke-linejoin="round"/>
<path d="M35.3594 110.786L35.8534 110.682L36.2434 109.616L35.5934 109.096L35.3594 110.786Z" fill="#0085E5" stroke="#263238" stroke-miterlimit="10" stroke-linecap="round" stroke-linejoin="round"/>
<path d="M34.7617 107.484V110.578L35.3597 110.786L35.5937 109.096L34.7617 107.484Z" fill="#0085E5" stroke="#263238" stroke-miterlimit="10" stroke-linecap="round" stroke-linejoin="round"/>
<path d="M39.2858 110.37C38.7138 110.552 37.8038 110.422 36.7638 109.408C35.8278 108.524 35.4118 106.808 35.3338 106.418C34.6838 106.964 34.4238 107.588 35.0738 108.446C35.8018 109.434 36.4518 110.838 37.4398 111.358C38.5578 111.982 40.2998 112.424 40.7938 112.164C41.2618 111.93 40.6118 111.28 39.7018 110.136C39.5978 110.266 39.4678 110.318 39.2858 110.37Z" fill="#0085E5" stroke="#263238" stroke-miterlimit="10" stroke-linecap="round" stroke-linejoin="round"/>
<path d="M54.6511 51.8181C53.6371 50.3101 53.5072 49.842 52.5972 49.062C52.1552 48.672 51.2191 48.0741 50.3091 47.5281C49.9191 48.4901 49.0351 49.738 47.0591 49.92C44.7191 50.128 43.8871 48.022 43.6011 46.774C43.1331 46.982 42.5611 47.19 41.8851 47.45C39.7271 48.282 39.3631 50.57 40.1951 52.442C41.0271 54.314 43.9131 58.9421 43.4971 59.9561C43.0811 60.9701 38.7911 64.2981 38.7391 69.0301C38.6871 73.7881 41.0011 82.498 41.0011 82.498L51.9991 82.4201C51.9991 82.4201 52.9091 77.428 52.7791 73.788C52.6491 70.2 51.6091 64.4021 51.6091 64.2201C51.7391 61.4901 51.8171 59.3581 51.8171 58.7861C51.8171 56.9141 51.6872 56.6801 52.4152 55.6661C52.4152 55.6661 53.0911 56.4461 53.9491 57.3301L56.1852 53.924C55.7172 53.3 55.1451 52.5201 54.6511 51.8181Z" fill="#0085E5" stroke="#263238" stroke-miterlimit="10" stroke-linecap="round" stroke-linejoin="round"/>
<path d="M52.4414 55.666C52.4414 55.666 53.5854 53.508 52.9354 51.87" stroke="#263238" stroke-miterlimit="10" stroke-linecap="round" stroke-linejoin="round"/>
<path d="M47.4766 73.7101C47.5286 74.2301 47.5546 74.7501 47.5806 75.2701" stroke="#263238" stroke-miterlimit="10" stroke-linecap="round" stroke-linejoin="round"/>
<path d="M45.3691 65C45.3691 65 46.7991 68.51 47.3711 72.67" stroke="#263238" stroke-miterlimit="10" stroke-linecap="round" stroke-linejoin="round"/>
<path d="M50.0507 72.54C50.0507 72.54 49.4007 75.4 47.9707 77.87" stroke="#263238" stroke-miterlimit="10" stroke-linecap="round" stroke-linejoin="round"/>
<path d="M41.6515 47.5021C41.6515 47.5021 39.4935 47.8661 38.6355 48.8281C37.8035 49.7901 32.4475 61.1001 32.6295 61.7761C32.8115 62.4261 35.4635 62.1401 36.6075 60.9961C37.7515 59.8521 41.9635 50.9341 41.9635 50.9341" fill="#0085E5"/>
<path d="M41.6515 47.5021C41.6515 47.5021 39.4935 47.8661 38.6355 48.8281C37.8035 49.7901 32.4475 61.1001 32.6295 61.7761C32.8115 62.4261 35.4635 62.1401 36.6075 60.9961C37.7515 59.8521 41.9635 50.9341 41.9635 50.9341" stroke="#263238" stroke-miterlimit="10" stroke-linecap="round" stroke-linejoin="round"/>
<path d="M39.4156 56.134L35.5676 54.782C34.0336 58.006 32.5516 61.412 32.6556 61.776C32.8376 62.426 35.4896 62.14 36.6336 60.996C37.1276 60.45 38.2976 58.292 39.4156 56.134Z" fill="white" stroke="#263238" stroke-miterlimit="10" stroke-linecap="round" stroke-linejoin="round"/>
<path d="M34.3722 58.552C34.3722 58.552 43.7062 56.94 44.1222 56.81C44.5382 56.68 46.5922 54.392 46.7742 54.34C46.9562 54.288 48.6462 54.028 49.3742 54.21C50.1022 54.392 50.6482 54.574 50.2842 54.704C49.9202 54.834 48.6722 54.938 48.4122 54.938C48.1522 54.938 47.8142 54.99 47.8142 54.99C47.8142 54.99 49.6862 55.484 49.9722 55.718C50.2842 55.952 50.2842 56.212 49.9202 56.212C49.5562 56.212 47.6322 55.848 47.6322 55.848C47.6322 55.848 50.0502 56.94 49.9202 57.122C49.7902 57.304 49.3742 57.252 48.8282 57.122C48.2822 56.992 47.4502 56.576 47.4502 56.576C47.4502 56.576 48.9062 58.084 48.4642 58.136C48.0482 58.188 47.9702 58.006 47.6842 57.642C47.3722 57.278 46.6702 56.914 46.6702 56.914C46.6702 56.914 46.0722 58.058 45.1622 58.292C44.2522 58.526 43.3682 58.344 43.3682 58.344C43.3682 58.344 38.1422 61.1 36.5042 61.646C34.8922 62.192 33.3062 62.608 32.7862 62.01C32.2402 61.412 33.5662 59.358 33.5662 59.358" fill="white"/>
<path d="M34.3722 58.552C34.3722 58.552 43.7062 56.94 44.1222 56.81C44.5382 56.68 46.5922 54.392 46.7742 54.34C46.9562 54.288 48.6462 54.028 49.3742 54.21C50.1022 54.392 50.6482 54.574 50.2842 54.704C49.9202 54.834 48.6722 54.938 48.4122 54.938C48.1522 54.938 47.8142 54.99 47.8142 54.99C47.8142 54.99 49.6862 55.484 49.9722 55.718C50.2842 55.952 50.2842 56.212 49.9202 56.212C49.5562 56.212 47.6322 55.848 47.6322 55.848C47.6322 55.848 50.0502 56.94 49.9202 57.122C49.7902 57.304 49.3742 57.252 48.8282 57.122C48.2822 56.992 47.4502 56.576 47.4502 56.576C47.4502 56.576 48.9062 58.084 48.4642 58.136C48.0482 58.188 47.9702 58.006 47.6842 57.642C47.3722 57.278 46.6702 56.914 46.6702 56.914C46.6702 56.914 46.0722 58.058 45.1622 58.292C44.2522 58.526 43.3682 58.344 43.3682 58.344C43.3682 58.344 38.1422 61.1 36.5042 61.646C34.8922 62.192 33.3062 62.608 32.7862 62.01C32.2402 61.412 33.5662 59.358 33.5662 59.358" stroke="#263238" stroke-miterlimit="10" stroke-linecap="round" stroke-linejoin="round"/>
<path opacity="0.6" d="M75.2706 46.9041H65.5986C64.5586 46.9041 63.7266 46.0721 63.7266 45.0321V35.9321C63.7266 34.8921 64.5586 34.0601 65.5986 34.0601H75.2706C76.3106 34.0601 77.1426 34.8921 77.1426 35.9321V45.0321C77.1426 46.0721 76.3106 46.9041 75.2706 46.9041Z" fill="#0085E5"/>
<path d="M61.6465 41.2621V39.6241" stroke="#263238" stroke-miterlimit="10" stroke-linecap="round" stroke-linejoin="round"/>
<path d="M69.4725 49.1661H63.5185C62.4785 49.1661 61.6465 48.3341 61.6465 47.2941V41.9641" stroke="#263238" stroke-miterlimit="10" stroke-linecap="round" stroke-linejoin="round"/>
<path d="M72.6701 49.1661H70.7461" stroke="#263238" stroke-miterlimit="10" stroke-linecap="round" stroke-linejoin="round"/>
<path d="M79.248 37.7001V47.2941C79.248 48.3341 78.416 49.1661 77.376 49.1661H73.918" stroke="#263238" stroke-miterlimit="10" stroke-linecap="round" stroke-linejoin="round"/>
<path d="M64.5332 31.7981H77.3772C78.4172 31.7981 79.2492 32.6301 79.2492 33.6701V35.9841" stroke="#263238" stroke-miterlimit="10" stroke-linecap="round" stroke-linejoin="round"/>
<path d="M76.1551 47.7362H64.7411C63.7011 47.7362 62.8691 46.9041 62.8691 45.8641V35.1001C62.8691 34.0601 63.7011 33.2281 64.7411 33.2281H76.1551C77.1951 33.2281 78.0271 34.0601 78.0271 35.1001V45.8902C78.0271 46.9042 77.1951 47.7362 76.1551 47.7362Z" stroke="#263238" stroke-miterlimit="10" stroke-linecap="round" stroke-linejoin="round"/>
<path opacity="0.5" d="M95.577 47.736H84.163C83.123 47.736 82.291 46.904 82.291 45.864V35.1C82.291 34.06 83.123 33.228 84.163 33.228H95.577C96.617 33.228 97.449 34.06 97.449 35.1V45.89C97.423 46.904 96.591 47.736 95.577 47.736Z" fill="white" stroke="#263238" stroke-miterlimit="10" stroke-linecap="round" stroke-linejoin="round"/>
<path opacity="0.5" d="M76.1551 66.638H64.7411C63.7011 66.638 62.8691 65.806 62.8691 64.766V53.976C62.8691 52.936 63.7011 52.104 64.7411 52.104H76.1551C77.1951 52.104 78.0271 52.936 78.0271 53.976V64.766C78.0271 65.806 77.1951 66.638 76.1551 66.638Z" fill="white" stroke="#263238" stroke-miterlimit="10" stroke-linecap="round" stroke-linejoin="round"/>
<path opacity="0.5" d="M95.577 66.638H84.163C83.123 66.638 82.291 65.806 82.291 64.766V53.976C82.291 52.936 83.123 52.104 84.163 52.104H95.577C96.617 52.104 97.449 52.936 97.449 53.976V64.766C97.423 65.806 96.591 66.638 95.577 66.638Z" fill="white" stroke="#263238" stroke-miterlimit="10" stroke-linecap="round" stroke-linejoin="round"/>
<path d="M94.6925 46.9041H85.0204C83.9804 46.9041 83.1484 46.0721 83.1484 45.0321V35.9321C83.1484 34.8921 83.9804 34.0601 85.0204 34.0601H94.6925C95.7325 34.0601 96.5645 34.8921 96.5645 35.9321V45.0321C96.5645 46.0721 95.7325 46.9041 94.6925 46.9041Z" fill="#0085E5"/>
<path d="M75.2705 65.806H65.5986C64.5586 65.806 63.7266 64.974 63.7266 63.934V54.834C63.7266 53.794 64.5586 52.962 65.5986 52.962H75.2705C76.3105 52.962 77.1425 53.794 77.1425 54.834V63.934C77.1425 64.948 76.3105 65.806 75.2705 65.806Z" fill="#0085E5"/>
<path d="M94.6925 65.806H85.0204C83.9804 65.806 83.1484 64.974 83.1484 63.934V54.834C83.1484 53.794 83.9804 52.962 85.0204 52.962H94.6925C95.7325 52.962 96.5645 53.794 96.5645 54.834V63.934C96.5645 64.948 95.7325 65.806 94.6925 65.806Z" fill="#0085E5"/>
<path d="M43.2893 38.35C43.2893 38.35 42.7953 37.518 42.4573 38.038C42.0933 38.584 42.1453 39.598 42.6913 40.274C43.2373 40.924 44.2513 40.638 44.2513 40.638C44.2513 40.638 44.8493 42.926 45.9413 43.706C47.0333 44.486 49.1913 44.538 50.2833 43.342C51.3753 42.146 51.4273 39.546 51.2453 37.258C51.0633 34.97 49.9713 33.826 49.9713 33.826C49.9713 33.826 47.4493 35.802 46.1753 36.296C44.9013 36.79 43.6533 36.946 43.6533 36.946L43.2893 38.35Z" fill="white" stroke="#263238" stroke-miterlimit="10" stroke-linecap="round" stroke-linejoin="round"/>
<path d="M49.4518 41.2881C49.4518 41.2881 48.6458 41.6521 47.8398 41.0021" stroke="#263238" stroke-miterlimit="10" stroke-linecap="round" stroke-linejoin="round"/>
<path d="M44.7194 35.984H39.8574V38.038H44.7194V35.984Z" fill="#0085E5" stroke="#263238" stroke-miterlimit="10" stroke-linecap="round" stroke-linejoin="round"/>
<path d="M52.4407 40.092H44.2507C43.8087 40.092 43.4707 39.754 43.4707 39.312V36.842C43.4707 36.4 43.8087 36.062 44.2507 36.062H52.4407C52.8827 36.062 53.2207 36.4 53.2207 36.842V39.312C53.2207 39.728 52.8567 40.092 52.4407 40.092Z" fill="#0085E5" stroke="#263238" stroke-miterlimit="10" stroke-linecap="round" stroke-linejoin="round"/>
<path d="M53.4553 40.092H45.8112C45.3692 40.092 45.0312 39.754 45.0312 39.312V36.842C45.0312 36.4 45.3692 36.062 45.8112 36.062H53.4553C53.8973 36.062 54.2353 36.4 54.2353 36.842V39.312C54.2353 39.728 53.8973 40.092 53.4553 40.092Z" fill="#0085E5"/>
<path opacity="0.3" d="M53.4553 40.092H45.8112C45.3692 40.092 45.0312 39.754 45.0312 39.312V36.842C45.0312 36.4 45.3692 36.062 45.8112 36.062H53.4553C53.8973 36.062 54.2353 36.4 54.2353 36.842V39.312C54.2353 39.728 53.8973 40.092 53.4553 40.092Z" fill="black"/>
<path d="M53.4553 40.092H45.8112C45.3692 40.092 45.0312 39.754 45.0312 39.312V36.842C45.0312 36.4 45.3692 36.062 45.8112 36.062H53.4553C53.8973 36.062 54.2353 36.4 54.2353 36.842V39.312C54.2353 39.728 53.8973 40.092 53.4553 40.092Z" stroke="#263238" stroke-miterlimit="10" stroke-linecap="round" stroke-linejoin="round"/>
</svg>
