<svg width="637" height="637" viewBox="0 0 637 637" fill="none" xmlns="http://www.w3.org/2000/svg">
<path d="M637 487.178H0V487.56H637V487.178Z" fill="#EBEBEB"/>
<path d="M573.172 507.689H531.003V508.071H573.172V507.689Z" fill="#EBEBEB"/>
<path d="M421.949 511.129H410.865V511.511H421.949V511.129Z" fill="#EBEBEB"/>
<path d="M529.729 495.841H505.269V496.223H529.729V495.841Z" fill="#EBEBEB"/>
<path d="M121.922 498.007H66.8848V498.389H121.922V498.007Z" fill="#EBEBEB"/>
<path d="M141.286 498.007H133.26V498.389H141.286V498.007Z" fill="#EBEBEB"/>
<path d="M286.905 503.357H167.531V503.74H286.905V503.357Z" fill="#EBEBEB"/>
<path d="M301.938 430.357H55.9288C51.9794 430.357 48.667 427.045 48.667 423.095V77.3318C48.667 73.3824 51.9794 70.07 55.9288 70.07H301.938C305.888 70.07 309.2 73.3824 309.2 77.3318V423.095C309.2 427.045 306.015 430.357 301.938 430.357ZM55.9288 70.3248C52.1068 70.3248 48.9218 73.3824 48.9218 77.3318V423.095C48.9218 426.917 51.9794 430.103 55.9288 430.103H301.938C305.76 430.103 308.945 427.045 308.945 423.095V77.3318C308.945 73.5098 305.888 70.3248 301.938 70.3248H55.9288Z" fill="#EBEBEB"/>
<path d="M577.504 430.357H331.495C327.545 430.357 324.233 427.045 324.233 423.095V77.3318C324.233 73.3824 327.545 70.07 331.495 70.07H577.504C581.453 70.07 584.766 73.3824 584.766 77.3318V423.095C584.766 427.045 581.581 430.357 577.504 430.357ZM331.495 70.3248C327.673 70.3248 324.488 73.3824 324.488 77.3318V423.095C324.488 426.917 327.545 430.103 331.495 430.103H577.504C581.326 430.103 584.511 427.045 584.511 423.095V77.3318C584.511 73.5098 581.453 70.3248 577.504 70.3248H331.495Z" fill="#EBEBEB"/>
<path d="M457.366 302.575H428.956V314.678H457.366V302.575Z" fill="#0085E5" fill-opacity="0.06"/>
<path d="M422.968 302.575H394.558V314.678H422.968V302.575Z" fill="#0085E5" fill-opacity="0.06"/>
<path d="M388.57 302.575H360.16V314.678H388.57V302.575Z" fill="#0085E5" fill-opacity="0.06"/>
<path d="M474.565 319.392H446.155V331.495H474.565V319.392Z" fill="#0085E5" fill-opacity="0.06"/>
<path d="M440.167 319.392H411.757V331.495H440.167V319.392Z" fill="#0085E5" fill-opacity="0.06"/>
<path d="M405.769 319.392H377.359V331.495H405.769V319.392Z" fill="#0085E5" fill-opacity="0.06"/>
<path d="M371.499 319.392H343.088V331.495H371.499V319.392Z" fill="#0085E5" fill-opacity="0.06"/>
<path d="M529.984 336.209H501.574V348.312H529.984V336.209Z" fill="#0085E5" fill-opacity="0.06"/>
<path d="M495.586 336.209H467.176V348.312H495.586V336.209Z" fill="#0085E5" fill-opacity="0.06"/>
<path d="M422.968 336.209H394.558V348.312H422.968V336.209Z" fill="#0085E5" fill-opacity="0.06"/>
<path d="M388.57 336.209H360.16V348.312H388.57V336.209Z" fill="#0085E5" fill-opacity="0.06"/>
<path d="M354.299 336.209H325.889V348.312H354.299V336.209Z" fill="#0085E5" fill-opacity="0.06"/>
<path d="M512.785 353.025H484.375V365.128H512.785V353.025Z" fill="#0085E5" fill-opacity="0.06"/>
<path d="M440.167 353.025H411.757V365.128H440.167V353.025Z" fill="#0085E5" fill-opacity="0.06"/>
<path d="M405.769 353.025H377.359V365.128H405.769V353.025Z" fill="#0085E5" fill-opacity="0.06"/>
<path d="M371.499 353.025H343.088V365.128H371.499V353.025Z" fill="#0085E5" fill-opacity="0.06"/>
<path d="M237.346 131.222H208.936V143.325H237.346V131.222Z" fill="#0085E5" fill-opacity="0.06"/>
<path d="M202.948 131.222H174.538V143.325H202.948V131.222Z" fill="#0085E5" fill-opacity="0.06"/>
<path d="M254.545 148.039H226.135V160.142H254.545V148.039Z" fill="#0085E5" fill-opacity="0.06"/>
<path d="M220.147 148.039H191.737V160.142H220.147V148.039Z" fill="#0085E5" fill-opacity="0.06"/>
<path d="M151.479 148.039H123.068V160.142H151.479V148.039Z" fill="#0085E5" fill-opacity="0.06"/>
<path d="M117.081 148.039H88.6704V160.142H117.081V148.039Z" fill="#0085E5" fill-opacity="0.06"/>
<path d="M202.948 164.856H174.538V176.959H202.948V164.856Z" fill="#0085E5" fill-opacity="0.06"/>
<path d="M515.843 229.702H487.433V241.805H515.843V229.702Z" fill="#0085E5" fill-opacity="0.06"/>
<path d="M456.092 229.702H427.682V241.805H456.092V229.702Z" fill="#0085E5" fill-opacity="0.06"/>
<path d="M533.042 246.519H504.631V258.622H533.042V246.519Z" fill="#0085E5" fill-opacity="0.06"/>
<path d="M498.771 246.519H470.361V258.622H498.771V246.519Z" fill="#0085E5" fill-opacity="0.06"/>
<path d="M205.369 212.631H176.958V224.734H205.369V212.631Z" fill="#0085E5" fill-opacity="0.06"/>
<path d="M132.751 212.631H104.341V224.734H132.751V212.631Z" fill="#0085E5" fill-opacity="0.06"/>
<path d="M222.568 229.447H194.158V241.55H222.568V229.447Z" fill="#0085E5" fill-opacity="0.06"/>
<path d="M175.43 229.447H147.02V241.55H175.43V229.447Z" fill="#0085E5" fill-opacity="0.06"/>
<path d="M515.843 263.336H487.433V275.439H515.843V263.336Z" fill="#0085E5" fill-opacity="0.06"/>
<path d="M456.092 263.336H427.682V275.439H456.092V263.336Z" fill="#0085E5" fill-opacity="0.06"/>
<path d="M134.28 164.856H105.87V176.959H134.28V164.856Z" fill="#0085E5" fill-opacity="0.06"/>
<path d="M536.736 131.604H508.326V143.707H536.736V131.604Z" fill="#0085E5" fill-opacity="0.06"/>
<path d="M502.338 131.604H473.928V143.707H502.338V131.604Z" fill="#0085E5" fill-opacity="0.06"/>
<path d="M519.537 148.421H491.127V160.524H519.537V148.421Z" fill="#0085E5" fill-opacity="0.06"/>
<path d="M382.709 131.859H354.299V143.962H382.709V131.859Z" fill="#0085E5" fill-opacity="0.06"/>
<path d="M348.312 131.859H319.901V143.962H348.312V131.859Z" fill="#0085E5" fill-opacity="0.06"/>
<path d="M399.909 148.676H371.499V160.779H399.909V148.676Z" fill="#0085E5" fill-opacity="0.06"/>
<path d="M365.511 148.676H337.101V160.779H365.511V148.676Z" fill="#0085E5" fill-opacity="0.06"/>
<path d="M331.112 148.676H302.702V160.779H331.112V148.676Z" fill="#0085E5" fill-opacity="0.06"/>
<path d="M417.107 165.493H388.697V177.596H417.107V165.493Z" fill="#0085E5" fill-opacity="0.06"/>
<path d="M382.709 165.493H354.299V177.596H382.709V165.493Z" fill="#0085E5" fill-opacity="0.06"/>
<path d="M348.312 165.493H319.901V177.596H348.312V165.493Z" fill="#0085E5" fill-opacity="0.06"/>
<path d="M399.909 182.309H371.499V194.412H399.909V182.309Z" fill="#0085E5" fill-opacity="0.06"/>
<path d="M365.511 182.309H337.101V194.412H365.511V182.309Z" fill="#0085E5" fill-opacity="0.06"/>
<path d="M168.932 297.989H140.522V310.092H168.932V297.989Z" fill="#0085E5" fill-opacity="0.06"/>
<path d="M134.534 297.989H106.124V310.092H134.534V297.989Z" fill="#0085E5" fill-opacity="0.06"/>
<path d="M267.54 299.517H239.13V311.62H267.54V299.517Z" fill="#0085E5" fill-opacity="0.06"/>
<path d="M186.004 314.805H157.594V326.908H186.004V314.805Z" fill="#0085E5" fill-opacity="0.06"/>
<path d="M151.733 314.805H123.323V326.908H151.733V314.805Z" fill="#0085E5" fill-opacity="0.06"/>
<path d="M284.739 316.334H256.329V328.437H284.739V316.334Z" fill="#0085E5" fill-opacity="0.06"/>
<path d="M250.341 316.334H221.931V328.437H250.341V316.334Z" fill="#0085E5" fill-opacity="0.06"/>
<path d="M341.56 261.934H313.149V274.037H341.56V261.934Z" fill="#0085E5" fill-opacity="0.06"/>
<path d="M163.327 254.036H134.917V266.139H163.327V254.036Z" fill="#0085E5" fill-opacity="0.06"/>
<path d="M302.83 202.311H274.419V214.414H302.83V202.311Z" fill="#0085E5" fill-opacity="0.06"/>
<path d="M324.36 245.118H295.95V257.221H324.36V245.118Z" fill="#0085E5" fill-opacity="0.06"/>
<path d="M358.758 245.118H330.348V257.221H358.758V245.118Z" fill="#0085E5" fill-opacity="0.06"/>
<path d="M487.815 474.82H459.404V486.923H487.815V474.82Z" fill="white" fill-opacity="0.4"/>
<path d="M505.014 458.003H476.604V470.106H505.014V458.003Z" fill="white" fill-opacity="0.4"/>
<path d="M168.932 331.622H140.522V343.725H168.932V331.622Z" fill="#0085E5" fill-opacity="0.06"/>
<path d="M134.534 331.622H106.124V343.725H134.534V331.622Z" fill="#0085E5" fill-opacity="0.06"/>
<path d="M186.004 348.439H157.594V360.542H186.004V348.439Z" fill="#0085E5" fill-opacity="0.06"/>
<path d="M151.733 348.439H123.323V360.542H151.733V348.439Z" fill="#0085E5" fill-opacity="0.06"/>
<path d="M240.021 411.884H211.611V423.987H240.021V411.884Z" fill="white" fill-opacity="0.4"/>
<path d="M205.624 411.884H177.213V423.987H205.624V411.884Z" fill="white" fill-opacity="0.4"/>
<path d="M257.221 428.701H228.811V440.804H257.221V428.701Z" fill="white" fill-opacity="0.4"/>
<path d="M222.823 428.701H194.413V440.804H222.823V428.701Z" fill="white" fill-opacity="0.4"/>
<path d="M188.424 428.701H160.014V440.804H188.424V428.701Z" fill="white" fill-opacity="0.4"/>
<path d="M240.021 445.518H211.611V457.621H240.021V445.518Z" fill="white" fill-opacity="0.4"/>
<path d="M205.624 445.518H177.213V457.621H205.624V445.518Z" fill="white" fill-opacity="0.4"/>
<path d="M171.226 445.518H142.815V457.621H171.226V445.518Z" fill="white" fill-opacity="0.4"/>
<path d="M472.526 411.12H444.116V423.223H472.526V411.12Z" fill="#0085E5" fill-opacity="0.06"/>
<path d="M399.909 411.12H371.499V423.223H399.909V411.12Z" fill="white" fill-opacity="0.4"/>
<path d="M365.638 411.12H337.228V423.223H365.638V411.12Z" fill="white" fill-opacity="0.4"/>
<path d="M331.24 411.12H302.83V423.223H331.24V411.12Z" fill="white" fill-opacity="0.4"/>
<path d="M489.726 427.937H461.315V440.04H489.726V427.937Z" fill="white" fill-opacity="0.4"/>
<path d="M455.328 427.937H426.917V440.04H455.328V427.937Z" fill="white" fill-opacity="0.4"/>
<path d="M382.837 427.937H354.427V440.04H382.837V427.937Z" fill="white" fill-opacity="0.4"/>
<path d="M348.439 427.937H320.029V440.04H348.439V427.937Z" fill="white" fill-opacity="0.4"/>
<path d="M434.307 444.753H405.896V456.857H434.307V444.753Z" fill="white" fill-opacity="0.4"/>
<path d="M399.909 444.753H371.499V456.857H399.909V444.753Z" fill="white" fill-opacity="0.4"/>
<path d="M365.638 444.753H337.228V456.857H365.638V444.753Z" fill="white" fill-opacity="0.4"/>
<path d="M331.24 444.753H302.83V456.857H331.24V444.753Z" fill="white" fill-opacity="0.4"/>
<path d="M393.765 337.993H516.451V197.598L393.765 197.598V337.993Z" fill="#0085E5" fill-opacity="0.02"/>
<path d="M393.962 337.993H511.934V197.598L393.962 197.598V337.993Z" fill="#0085E5" fill-opacity="0.02"/>
<path d="M389.938 337.993H512.625V197.598L389.938 197.598V337.993Z" fill="#0085E5" fill-opacity="0.06"/>
<path d="M395.499 331.561H507.229V202.123H395.499V331.561Z" fill="#FFF4E1"/>
<path d="M395.499 331.561H398.938V202.123H395.499V331.561Z" fill="#0085E5" fill-opacity="0.02"/>
<path d="M398.58 295.277V298.716H507.507V295.277H398.58Z" fill="#0085E5" fill-opacity="0.02"/>
<path d="M395.46 295.153H509.101V289.293H395.46V295.153Z" fill="#0085E5" fill-opacity="0.06"/>
<path d="M134.945 337.993H257.631V197.598L134.945 197.598V337.993Z" fill="#0085E5" fill-opacity="0.02"/>
<path d="M135.141 337.993H253.114L253.114 197.598L135.141 197.598V337.993Z" fill="#0085E5" fill-opacity="0.02"/>
<path d="M131.118 337.993H253.804L253.804 197.598L131.118 197.598V337.993Z" fill="#0085E5" fill-opacity="0.06"/>
<path d="M136.679 331.561H248.409L248.409 202.123H136.679V331.561Z" fill="#FFF4E1"/>
<path d="M136.678 331.561H140.118L140.118 202.123H136.678L136.678 331.561Z" fill="#0085E5" fill-opacity="0.02"/>
<path d="M139.795 295.241V298.681H248.722V295.241H139.795Z" fill="#0085E5" fill-opacity="0.02"/>
<path d="M136.64 295.153H250.281V289.293H136.64V295.153Z" fill="#0085E5" fill-opacity="0.06"/>
<path d="M318.5 544.635C454.93 544.635 565.528 538.19 565.528 530.239C565.528 522.288 454.93 515.843 318.5 515.843C182.07 515.843 71.4712 522.288 71.4712 530.239C71.4712 538.19 182.07 544.635 318.5 544.635Z" fill="white"/>
<path d="M113.896 497.37C113.896 497.37 112.112 484.375 103.831 482.973C95.55 481.572 98.098 475.329 95.9322 472.909C93.7664 470.488 88.1608 477.623 93.002 484.63C97.8432 491.509 93.8938 489.343 95.9322 495.841C97.9706 502.211 114.66 508.071 113.896 497.37Z" fill="#263238"/>
<path opacity="0.2" d="M113.896 497.37C113.896 497.37 112.112 484.375 103.831 482.973C95.55 481.572 98.098 475.329 95.9322 472.909C93.7664 470.488 88.1608 477.623 93.002 484.63C97.8432 491.509 93.8938 489.343 95.9322 495.841C97.9706 502.211 114.66 508.071 113.896 497.37Z" fill="white"/>
<path d="M113.513 505.778C113.513 505.778 107.143 492.528 110.455 470.998C113.768 449.467 126.38 441.059 115.424 417.362C104.595 393.666 92.1099 376.722 98.3525 359.905" stroke="#263238" stroke-width="0.9024" stroke-miterlimit="10" stroke-linecap="round" stroke-linejoin="round"/>
<path d="M108.8 503.23C108.8 503.23 103.449 495.204 111.22 491C118.992 486.795 120.52 490.235 125.234 487.178C130.075 484.247 133.643 476.986 134.407 481.572C135.171 486.158 129.693 488.834 131.604 491C133.643 493.165 118.609 506.797 108.8 503.23Z" fill="#263238"/>
<path d="M96.0594 366.785C96.0594 366.785 90.836 350.86 102.684 350.605C114.66 350.223 101.538 365.001 96.0594 366.785Z" fill="#263238"/>
<path d="M106.379 378.888C106.379 378.888 109.946 364.491 118.355 367.549C126.763 370.607 114.787 379.142 106.379 378.888Z" fill="#263238"/>
<path d="M92.11 380.162C92.11 380.162 93.384 368.696 84.466 368.441C75.548 368.186 79.4974 378.251 92.11 380.162Z" fill="#263238"/>
<path d="M98.0977 403.603C98.0977 403.603 86.1221 392.902 81.7905 400.928C77.4589 408.827 90.8359 410.483 98.0977 403.603Z" fill="#263238"/>
<path d="M119.246 401.82C119.246 401.82 121.539 384.111 131.222 389.589C140.904 395.195 127.782 403.476 119.246 401.82Z" fill="#263238"/>
<path d="M127.782 427.172C127.782 427.172 120.648 409.209 133.897 411.247C147.274 413.286 137.21 422.841 127.782 427.172Z" fill="#263238"/>
<path d="M107.398 433.542C107.398 433.542 96.187 420.293 87.5238 424.497C78.988 428.701 85.995 441.951 107.398 433.542Z" fill="#263238"/>
<path d="M117.59 462.972C117.59 462.972 127.145 441.696 135.681 448.83C144.216 455.965 130.33 466.666 117.59 462.972Z" fill="#263238"/>
<path d="M103.704 461.698C103.704 461.698 106.252 445.263 96.6966 446.537C87.269 447.811 89.817 457.876 103.704 461.698Z" fill="#263238"/>
<g opacity="0.2">
<path opacity="0.2" d="M96.0594 366.785C96.0594 366.785 90.836 350.86 102.684 350.605C114.66 350.223 101.538 365.001 96.0594 366.785Z" fill="white"/>
<path opacity="0.2" d="M106.379 378.888C106.379 378.888 109.946 364.491 118.355 367.549C126.763 370.607 114.787 379.142 106.379 378.888Z" fill="white"/>
<path opacity="0.2" d="M92.11 380.162C92.11 380.162 93.384 368.696 84.466 368.441C75.548 368.186 79.4974 378.251 92.11 380.162Z" fill="white"/>
<path opacity="0.2" d="M98.0977 403.603C98.0977 403.603 86.1221 392.902 81.7905 400.928C77.4589 408.827 90.8359 410.483 98.0977 403.603Z" fill="white"/>
<path opacity="0.2" d="M119.246 401.82C119.246 401.82 121.539 384.111 131.222 389.589C140.904 395.195 127.782 403.476 119.246 401.82Z" fill="white"/>
<path opacity="0.2" d="M127.782 427.172C127.782 427.172 120.648 409.209 133.897 411.247C147.274 413.286 137.21 422.841 127.782 427.172Z" fill="white"/>
<path opacity="0.2" d="M107.398 433.542C107.398 433.542 96.187 420.293 87.5238 424.497C78.988 428.701 85.995 441.951 107.398 433.542Z" fill="white"/>
<path opacity="0.2" d="M117.59 462.972C117.59 462.972 127.145 441.696 135.681 448.83C144.216 455.965 130.33 466.666 117.59 462.972Z" fill="white"/>
<path opacity="0.2" d="M103.704 461.698C103.704 461.698 106.252 445.263 96.6966 446.537C87.269 447.811 89.817 457.876 103.704 461.698Z" fill="white"/>
</g>
<path d="M89.1797 376.34C89.1797 376.34 94.2757 383.984 101.283 387.806C101.283 387.806 105.869 378.888 109.564 376.722" stroke="#263238" stroke-width="0.9024" stroke-miterlimit="10" stroke-linecap="round" stroke-linejoin="round"/>
<path d="M88.7979 402.584C88.7979 402.584 101.793 402.202 112.112 409.973C112.112 409.973 117.845 400.291 125.362 395.832" stroke="#263238" stroke-width="0.9024" stroke-miterlimit="10" stroke-linecap="round" stroke-linejoin="round"/>
<path d="M131.731 418.636C131.731 418.636 126.126 433.287 118.991 439.02C118.991 439.02 104.213 430.485 93.3838 430.23" stroke="#263238" stroke-width="0.9024" stroke-miterlimit="10" stroke-linecap="round" stroke-linejoin="round"/>
<path d="M97.8433 451.888C97.8433 451.888 105.105 466.157 110.583 469.214C110.583 469.214 115.679 462.08 126.636 458.767" stroke="#263238" stroke-width="0.9024" stroke-miterlimit="10" stroke-linecap="round" stroke-linejoin="round"/>
<path d="M109.564 501.319C109.564 501.319 104.977 494.057 99.7539 492.911C94.5305 491.891 92.3647 485.904 90.4537 489.471C88.5427 493.165 93.7661 505.013 109.564 501.319Z" fill="#263238"/>
<path d="M90.8361 529.984H129.183L131.731 499.026H88.2881L90.8361 529.984Z" fill="#407BFF"/>
<path d="M87.3963 504.886H132.623L133.26 498.389H86.7593L87.3963 504.886Z" fill="#407BFF"/>
<path opacity="0.3" d="M87.3963 504.886H132.623L133.26 498.389H86.7593L87.3963 504.886Z" fill="white"/>
<path d="M104.596 323.596C104.723 323.469 104.851 323.341 105.105 323.214L128.165 277.732L117.59 279.77L108.29 297.861H108.418C108.8 298.116 108.8 298.626 108.673 298.88C108.418 299.263 108.29 299.517 108.163 299.9C108.29 300.027 108.418 300.154 108.673 300.154C108.927 300.282 109.055 300.664 108.927 300.919C108.927 301.174 108.672 301.428 108.29 301.556C108.163 301.556 108.036 301.556 108.036 301.683H107.908C107.781 301.811 107.526 301.811 107.399 301.938C107.399 301.938 107.271 301.938 107.271 302.065L107.144 302.193C107.016 302.32 106.889 302.448 106.762 302.575C106.634 302.702 106.634 302.702 106.507 302.83C106.507 302.83 106.507 302.957 106.379 302.957C106.252 303.085 106.124 303.212 105.997 303.467C105.742 303.849 105.487 304.231 105.233 304.486C105.105 304.613 104.978 304.741 104.723 304.741L91.0913 331.367L92.3653 338.247L98.3531 337.1C98.6079 336.591 98.8627 335.954 99.2449 335.572C99.4997 335.444 99.6271 335.189 99.8819 335.062V334.935C100.009 331.877 101.283 328.947 102.812 326.271C102.685 326.017 102.685 325.762 102.812 325.38C103.067 324.997 103.067 324.615 103.067 324.233C103.067 323.341 104.086 322.959 104.596 323.596Z" fill="#0085E6"/>
<path d="M144.217 319.519C144.217 319.647 144.09 319.901 144.09 320.029C143.708 320.793 143.071 321.303 142.306 321.685C142.179 321.94 142.051 322.067 141.797 322.322C141.669 322.449 141.542 322.577 141.414 322.577C141.414 322.704 141.287 322.832 141.287 322.959C141.16 323.341 140.65 323.596 140.268 323.469C139.886 323.341 139.631 322.832 139.758 322.449C139.886 321.94 140.013 321.558 140.268 321.175L139.503 321.303C139.121 321.43 138.739 321.048 138.612 320.666V320.538L138.229 320.666L135.299 305.76L126.126 307.544L129.057 322.449L106.252 326.908C106.125 327.036 105.997 327.036 105.87 327.163V327.291C105.997 327.673 105.87 328.055 105.488 328.31C105.233 328.437 104.723 328.31 104.596 328.055C104.214 328.437 103.831 328.819 103.449 329.202C103.704 329.074 103.959 329.202 104.214 329.456C104.468 329.711 104.468 330.348 104.086 330.476C103.831 330.603 103.704 330.858 103.449 330.985C103.577 331.24 103.577 331.622 103.449 331.877V332.004V332.132C103.449 332.259 103.449 332.514 103.449 332.641C103.449 333.024 103.322 333.278 103.067 333.533C102.812 333.788 102.43 333.915 102.048 334.043C102.048 334.043 102.048 334.043 101.92 334.043C101.92 334.425 102.048 334.807 102.048 335.189C102.175 335.572 102.303 335.954 102.43 336.336L130.331 330.985L133.643 347.802L143.198 346.018L139.886 329.202L152.88 326.654L151.224 318.245L144.217 319.519Z" fill="#0085E6"/>
<path d="M199.381 273.655C199.127 273.783 198.999 274.037 198.744 274.165C198.49 274.42 198.235 274.674 197.853 274.929C197.725 275.057 197.598 275.184 197.47 275.311C197.47 275.311 197.47 275.311 197.343 275.311C197.343 275.439 197.216 275.439 197.216 275.566C196.706 276.203 195.942 276.458 195.177 276.076C194.413 275.694 194.158 274.929 194.413 274.165C194.54 273.655 194.668 273.273 194.795 272.763L194.668 272.636C194.54 272.381 194.54 272.254 194.54 271.999C194.54 271.744 194.54 271.617 194.668 271.362C194.668 271.235 194.795 271.107 194.795 270.852C194.54 270.598 194.285 270.343 194.158 269.961V269.833C188.935 267.03 182.947 266.139 176.704 267.413C160.652 270.47 151.224 285.503 155.556 307.926C159.887 330.221 174.284 340.668 190.336 337.483C191.865 337.228 193.266 336.846 194.54 336.336C194.922 335.699 195.432 335.062 195.814 334.425C196.579 333.278 197.853 333.661 198.49 334.552C209.319 328.565 214.924 315.188 211.357 297.097C209.319 286.523 205.114 278.624 199.381 273.655ZM188.68 328.819C177.851 330.858 168.805 323.596 165.366 306.015C161.926 288.434 167.659 278.242 178.488 276.203C184.348 275.057 189.826 276.84 194.031 281.554C194.158 281.427 194.413 281.299 194.668 281.299C195.559 281.044 196.324 281.681 196.579 282.573C196.706 283.338 196.706 284.229 196.579 284.994C198.872 288.561 200.528 293.275 201.675 299.135C204.987 316.462 199.254 326.781 188.68 328.819Z" fill="#0085E6"/>
<path d="M269.197 295.313L266.266 280.407L257.094 282.191L260.024 297.097L233.652 302.193L258.877 252.379L248.303 254.418L238.875 273.018C238.748 275.311 238.366 277.605 237.474 279.77C237.219 280.535 236.2 280.28 236.073 279.77C235.69 281.681 234.926 283.592 233.397 284.994C233.142 285.249 232.888 285.249 232.633 285.121L221.931 306.142L223.205 313.022L239.003 309.964C240.149 308.818 242.315 308.181 243.717 307.798C245.245 307.416 246.774 307.289 248.303 307.161C249.45 307.161 250.596 307.161 251.743 307.416L261.298 305.505L264.61 322.322L274.165 320.538L270.853 303.722L283.848 301.174L282.191 292.765L269.197 295.313Z" fill="#0085E6"/>
<path d="M94.0212 254.418L92.4924 246.646L108.035 243.589L106.889 237.601L91.3458 240.659L89.9444 233.397L107.526 229.957L106.379 223.714L81.0264 228.556L83.1922 239.767C83.5744 240.022 83.9566 240.276 84.2114 240.531C84.721 241.168 84.9758 241.933 85.1032 242.697C85.2306 244.353 84.8484 245.882 85.1032 247.538C85.1032 247.793 84.9758 248.048 84.8484 248.175L87.5238 262.062L113.386 257.093L112.239 250.851L94.0212 254.418Z" fill="#0085E6"/>
<path d="M139.631 240.913C143.453 238.238 145.236 234.289 144.472 229.447C144.344 229.575 144.217 229.702 143.962 229.702C143.707 229.702 143.325 229.575 143.198 229.32C143.07 228.938 142.943 228.556 142.816 228.046V227.919C142.561 227.664 142.433 227.282 142.306 226.899C142.179 226.517 142.561 226.135 142.943 226.008C143.07 226.008 143.198 226.008 143.453 226.135C141.032 220.657 135.172 218.236 127.528 219.765L113.004 222.568L114.915 232.632C115.042 232.632 115.17 232.76 115.297 233.015C116.444 235.563 117.336 238.238 117.59 241.041C117.59 241.423 117.463 241.805 116.953 241.933C116.826 241.933 116.826 241.933 116.699 241.933L119.501 256.074L127.273 254.545L125.489 245.245L132.624 243.844L140.905 251.87L149.186 250.214L139.631 240.913ZM130.713 237.728L124.343 239.002L122.049 227.282L128.419 226.008C133.133 225.116 135.936 226.772 136.7 230.467C137.337 234.161 135.426 236.837 130.713 237.728Z" fill="#0085E6"/>
<path d="M174.793 234.161C178.742 231.486 180.653 227.282 179.634 222.313C178.232 214.796 171.735 211.229 162.69 213.013L148.166 215.816L154.663 249.322L162.435 247.793L160.651 238.493L167.786 237.091L176.067 245.118L184.348 243.461L174.793 234.161ZM165.875 230.976L159.505 232.25L157.211 220.529L163.581 219.255C163.964 219.128 164.346 219.128 164.728 219.128C164.855 219.001 164.855 219.001 164.983 218.873C164.983 218.618 164.983 218.491 165.11 218.364C165.238 217.854 165.747 217.599 166.257 217.599C166.766 217.599 167.149 217.854 167.531 217.981C167.658 217.854 167.658 217.854 167.786 217.727C167.786 217.472 167.786 217.217 167.913 216.962C168.04 216.58 168.55 216.325 168.932 216.453C169.314 216.58 169.442 216.962 169.442 217.472C169.314 218.109 169.569 218.618 169.569 219.128C169.569 219.255 169.442 219.383 169.442 219.51C170.843 220.275 171.735 221.676 172.117 223.46C172.499 227.409 170.588 230.084 165.875 230.976Z" fill="#0085E6"/>
<path d="M211.484 206.388C211.357 206.388 211.229 206.388 211.102 206.515C210.974 206.515 210.974 206.643 210.847 206.643C210.847 206.643 210.72 206.643 210.72 206.77C210.592 206.898 210.465 207.025 210.337 207.025C210.083 207.025 209.955 207.025 209.828 206.898C209.7 206.77 209.573 206.643 209.446 206.388C209.446 206.261 209.446 206.006 209.573 205.878L209.7 205.751C206.643 204.732 203.203 204.477 199.636 205.241C189.062 207.28 182.692 216.198 184.73 226.135C186.641 236.072 195.814 241.933 206.388 239.894C216.962 237.856 223.332 229.065 221.294 219.001C220.02 213.013 216.453 208.681 211.484 206.388ZM204.987 233.142C198.999 234.289 193.648 230.849 192.501 224.479C191.227 218.109 194.922 212.885 200.91 211.739C202.439 211.484 203.84 211.484 205.241 211.739C205.241 211.611 205.369 211.357 205.369 211.229C205.496 210.847 205.878 210.72 206.261 210.72C206.643 210.72 206.77 210.974 206.77 211.357C206.898 211.357 207.025 211.229 207.152 211.229C207.28 210.974 207.407 210.592 207.407 210.337C207.407 210.21 207.535 209.955 207.535 209.828C207.535 209.7 207.535 209.7 207.662 209.573C207.662 209.573 207.662 209.573 207.662 209.446C207.662 209.318 207.662 209.191 207.789 208.936V208.809C207.662 208.299 208.299 207.662 208.809 207.917C209.318 208.172 209.828 208.426 210.337 208.681C210.72 208.809 210.974 209.191 210.847 209.7C210.72 209.828 210.72 210.083 210.592 210.337C210.592 210.465 210.592 210.465 210.592 210.592V210.72C210.592 210.974 210.592 211.357 210.592 211.611C210.592 212.376 210.592 213.013 210.465 213.777C210.592 213.905 210.592 214.159 210.465 214.287C210.465 214.414 210.337 214.414 210.337 214.542C211.866 216.07 213.013 218.109 213.522 220.657C214.542 226.772 210.974 231.995 204.987 233.142Z" fill="#0085E6"/>
<path d="M255.31 208.554H255.182C254.927 208.426 254.545 208.299 254.418 208.044C254.29 208.299 254.163 208.426 254.036 208.554C253.781 208.809 253.399 209.063 253.016 208.809C252.762 208.554 252.507 208.044 252.762 207.789C253.526 206.77 253.908 205.624 254.163 204.35C251.615 199.126 245.882 196.96 238.365 198.362L223.842 201.165L230.339 234.671L238.111 233.142L236.327 223.842L243.461 222.44L251.742 230.467L260.023 228.81L250.468 219.51C254.036 216.962 255.819 213.14 255.31 208.554ZM241.296 216.325L234.926 217.599L232.632 205.878L239.002 204.604C243.716 203.713 246.519 205.369 247.283 209.063C248.048 212.758 246.009 215.433 241.296 216.325Z" fill="#0085E6"/>
<path d="M298.371 273.146L296.46 273.528C295.695 273.655 295.313 272.763 295.823 272.254C295.823 272.254 295.823 272.254 295.95 272.126C295.44 272.381 294.803 272.636 294.294 272.763C294.166 273.655 294.294 274.42 294.294 275.311L306.906 340.158L260.405 349.203C260.405 349.331 260.405 349.331 260.405 349.458C260.405 349.84 260.023 350.223 259.641 350.223C258.877 350.095 258.112 349.968 257.348 349.84L195.686 361.816C195.686 361.943 195.686 362.071 195.559 362.071C195.304 362.453 195.049 362.835 194.794 363.217C194.794 363.472 194.794 363.727 194.667 363.854C194.03 365.256 193.648 366.657 192.756 367.931C192.501 368.313 192.119 368.568 191.737 368.568C191.482 368.696 191.227 368.568 190.972 368.441C190.718 369.078 190.463 369.715 190.335 370.479L289.07 351.369C289.07 351.369 289.07 351.242 289.198 351.242C290.344 350.095 291.873 349.713 293.529 349.713C294.166 349.076 294.803 348.439 295.568 348.057C296.205 347.675 297.097 347.42 297.861 347.802C298.371 348.057 298.753 348.566 298.88 349.076C299.899 348.949 300.791 348.949 301.81 348.821L315.824 346.146L301.938 275.566C300.536 275.057 299.262 274.165 298.371 273.146Z" fill="#0085E6"/>
<path d="M170.716 180.653C170.843 180.653 170.971 180.653 171.225 180.781L180.398 178.997C181.418 178.487 182.437 178.105 183.456 177.596C185.367 176.831 187.278 176.067 189.316 175.939C190.59 175.812 191.737 176.067 192.883 176.449L272.126 161.034L279.516 198.871C279.898 198.362 280.79 198.362 280.917 199.126C281.299 200.782 281.681 202.566 281.554 204.222C281.554 205.114 281.299 205.878 281.044 206.643L293.529 271.107C294.294 270.852 295.058 270.47 295.695 270.215C295.95 269.324 296.332 268.432 297.097 268.05C297.606 267.795 298.243 267.795 298.753 267.922C299.135 267.158 299.263 266.521 299.39 265.884C299.517 265.119 299.645 264.1 299.645 263.208L299.135 260.533C299.135 260.406 299.008 260.278 299.008 260.151C298.88 259.896 298.88 259.641 299.008 259.514L285.885 191.737C285.758 191.737 285.758 191.737 285.631 191.737C284.739 191.737 283.72 191.482 283.21 190.59C282.828 189.826 282.828 188.934 282.955 188.17C283.083 187.151 283.338 186.259 283.465 185.367C283.592 184.475 283.847 183.583 283.592 182.819C283.592 182.437 283.72 182.182 283.975 182.055L278.114 151.988L163.836 174.156C161.671 175.175 159.377 176.194 156.829 175.939C156.574 175.939 156.32 175.812 156.32 175.557L99.6267 186.514C99.6267 186.768 99.3719 187.023 98.9897 187.151L96.0595 187.788C96.0595 188.17 95.9321 188.679 95.6773 189.062C95.6773 189.189 95.5499 189.444 95.4225 189.571C95.1677 189.699 95.0403 189.953 94.9129 190.081C94.5307 190.463 94.2759 190.718 93.8937 191.1C93.7663 191.227 93.6389 191.355 93.5115 191.355C93.2567 191.355 93.0019 191.355 92.7471 191.1C92.6197 190.973 92.4923 190.718 92.6197 190.59C92.6197 190.463 92.6197 190.463 92.6197 190.336C92.1101 190.336 91.7279 190.336 91.2183 190.208C90.8361 190.208 90.4539 189.826 90.4539 189.444C90.4539 189.062 90.8361 188.679 91.2183 188.679C91.7279 188.679 92.2375 188.807 92.6197 188.807C92.7471 188.807 92.8745 188.807 93.0019 188.807H93.1293C92.7471 188.807 92.4923 188.552 92.1101 188.297C92.1101 188.297 92.1101 188.297 91.9827 188.17L59.1135 194.54C59.2409 194.54 59.3683 194.54 59.4957 194.667C59.8779 194.922 59.8779 195.432 59.7505 195.686C59.4957 196.069 59.2409 196.323 58.8587 196.706C58.8587 196.706 58.8587 196.833 58.7313 196.833C58.7313 196.706 58.8587 196.833 58.7313 196.833C58.7313 196.96 58.6039 196.96 58.6039 197.088V197.215V197.343C58.6039 197.343 58.6039 197.343 58.6039 197.47C58.4765 197.98 57.9669 198.362 57.4573 197.98C57.3299 197.98 57.3299 197.98 57.2025 197.852C57.0751 197.852 57.0751 197.852 56.9477 197.725C56.9477 198.107 56.8203 198.489 56.6929 198.744C56.5655 198.999 56.3107 199.126 56.0559 198.999C55.9285 199.763 55.6737 200.4 55.2915 201.037C54.9093 201.674 54.3997 202.311 53.7627 202.693C53.8901 202.821 54.0175 203.076 54.0175 203.203L102.812 193.775C102.812 193.775 102.812 193.775 102.812 193.648C103.066 193.266 103.321 193.011 103.576 192.756C104.086 192.374 104.468 192.374 105.105 192.501C105.487 192.629 105.869 192.884 106.251 193.138L169.442 180.908C169.951 180.781 170.334 180.653 170.716 180.653Z" fill="#0085E6"/>
<path d="M85.7403 382.964L74.2743 323.978C74.0195 324.233 73.7647 324.36 73.5099 324.233C73.1277 324.106 72.8729 323.596 73.0003 323.214C73.1277 322.704 73.5099 322.067 73.8921 321.685L58.8589 244.098C58.8589 243.971 58.7315 243.971 58.7315 243.844C58.3493 243.207 58.2219 242.57 58.0945 241.805C57.8397 241.805 57.5849 241.805 57.3301 241.805C56.8205 241.933 56.4383 241.55 56.4383 241.041C56.4383 239.639 56.8205 238.111 57.5849 236.837L51.4697 205.496C51.3423 205.369 51.3423 205.114 51.2149 204.987C51.0875 204.732 50.9601 204.604 50.9601 204.477C50.7053 204.477 50.4505 204.35 50.3231 204.095C50.1957 203.713 50.3231 203.203 50.7053 203.076C51.0875 202.948 51.2149 202.821 51.5971 202.566C51.7245 202.439 51.9793 202.056 51.9793 201.929C52.2341 201.419 52.2341 200.782 52.2341 200.273C52.1067 200.018 51.8519 199.763 51.8519 199.381C51.7245 198.999 51.8519 198.489 51.9793 198.107C51.9793 197.98 52.1067 197.852 52.1067 197.852C52.1067 197.343 51.9793 196.833 51.9793 196.451L42.2969 198.362L70.0701 341.814C70.3249 341.687 70.7071 341.687 70.9619 342.069C71.5989 342.833 72.2359 343.853 72.1085 344.872C72.1085 345.127 71.9811 345.254 71.9811 345.509C72.2359 345.764 72.3633 346.018 72.2359 346.401C71.8537 347.165 71.7263 347.929 71.8537 348.821C71.9811 349.586 72.2359 350.35 72.4907 351.114C72.8729 352.388 73.1277 353.662 72.6181 354.936L79.8799 392.392L81.9183 392.01C83.0649 391.628 84.2115 391.245 85.4855 391.118C85.4855 390.991 85.4855 390.736 85.6129 390.608C85.8677 390.226 86.2499 389.971 86.6321 389.589C86.6321 389.462 86.6321 389.334 86.6321 389.207C86.8869 388.315 87.2691 387.551 88.0335 386.914C88.6705 386.404 89.4349 386.277 90.1993 386.277C91.7281 386.404 93.1295 387.423 93.8939 388.697C95.9323 388.188 98.2255 387.423 100.264 388.443L179.507 373.155C179.507 372.9 179.634 372.772 179.634 372.518C179.889 371.498 180.653 370.607 181.418 369.842C181.672 369.587 182.055 369.587 182.309 369.842C182.309 369.842 182.309 369.715 182.437 369.715C182.692 369.46 183.329 369.46 183.456 369.842C183.583 369.97 183.711 370.097 183.838 370.224L183.966 370.352C184.093 370.352 184.093 370.479 184.22 370.479C184.348 370.479 184.348 370.607 184.475 370.607C184.22 369.842 184.22 369.078 184.475 368.313C184.73 367.422 185.494 366.785 186.259 366.402C186.004 366.02 186.131 365.383 186.768 365.256C187.66 365.128 187.915 366.148 187.405 366.657C187.405 366.657 187.405 366.657 187.533 366.785C187.66 367.167 187.533 367.676 187.151 367.804C187.023 367.804 186.896 367.931 186.896 367.931C186.896 367.931 186.768 367.931 186.768 368.059C186.768 368.059 186.768 368.059 186.641 368.186C186.514 368.186 186.514 368.313 186.386 368.313C186.386 368.313 186.386 368.313 186.259 368.441L186.131 368.568C186.131 368.568 186.131 368.568 186.131 368.696C186.131 368.823 186.131 368.823 186.004 368.95C186.259 368.568 186.514 368.313 186.896 368.059C187.151 367.931 187.405 367.804 187.66 367.676C188.297 366.275 188.934 364.874 189.444 363.472L85.7403 382.964Z" fill="#0085E6"/>
<path d="M246.901 403.476H301.301C307.543 403.476 312.512 408.572 312.512 414.687V433.797C312.512 440.04 307.416 445.008 301.301 445.008H265.119L248.557 462.717L257.475 445.008H246.774C240.531 445.008 235.562 439.912 235.562 433.797V414.687C235.563 408.444 240.659 403.476 246.901 403.476Z" fill="#407BFF"/>
<path d="M246.901 403.476H301.301C307.543 403.476 312.512 408.572 312.512 414.687V433.797C312.512 440.04 307.416 445.008 301.301 445.008H265.119L248.557 462.717L257.475 445.008H246.774C240.531 445.008 235.562 439.912 235.562 433.797V414.687C235.563 408.444 240.659 403.476 246.901 403.476Z" fill="white"/>
<path d="M249.577 423.223C249.577 419.656 252.379 416.98 256.074 416.98C259.769 416.98 262.571 419.656 262.571 423.223C262.571 426.79 259.769 429.465 256.074 429.465C252.252 429.465 249.577 426.79 249.577 423.223ZM260.66 423.223C260.66 420.547 258.622 418.509 255.947 418.509C253.271 418.509 251.233 420.547 251.233 423.223C251.233 425.898 253.271 427.937 255.947 427.937C258.749 427.937 260.66 425.898 260.66 423.223Z" fill="#407BFF"/>
<path d="M263.973 424.624C263.973 421.821 266.011 419.91 268.814 419.91C271.617 419.91 273.528 421.821 273.528 424.624C273.528 427.427 271.489 429.338 268.814 429.338C266.011 429.338 263.973 427.427 263.973 424.624ZM271.871 424.624C271.871 422.713 270.597 421.439 268.814 421.439C267.03 421.439 265.756 422.713 265.756 424.624C265.756 426.535 267.03 427.809 268.814 427.809C270.597 427.937 271.871 426.663 271.871 424.624Z" fill="#407BFF"/>
<path d="M285.376 424.624C285.376 427.427 283.465 429.338 280.662 429.338C279.388 429.338 278.241 428.828 277.477 427.809V432.523H275.821V419.91H277.477V421.312C278.241 420.293 279.388 419.783 280.789 419.783C283.465 420.038 285.376 421.821 285.376 424.624ZM283.72 424.624C283.72 422.713 282.446 421.439 280.662 421.439C278.878 421.439 277.604 422.713 277.604 424.624C277.604 426.535 278.878 427.809 280.662 427.809C282.318 427.937 283.72 426.663 283.72 424.624Z" fill="#407BFF"/>
<path d="M286.522 428.319L287.159 427.045C287.924 427.554 289.198 427.937 290.344 427.937C291.873 427.937 292.51 427.427 292.51 426.663C292.51 424.624 286.65 426.408 286.65 422.713C286.65 421.057 288.179 419.91 290.472 419.91C291.618 419.91 293.02 420.165 293.784 420.802L293.02 422.076C292.128 421.567 291.236 421.312 290.344 421.312C288.943 421.312 288.179 421.821 288.179 422.586C288.179 424.752 294.039 422.968 294.039 426.535C294.039 428.191 292.51 429.211 290.09 429.211C288.816 429.338 287.287 428.956 286.522 428.319Z" fill="#407BFF"/>
<path d="M296.078 428.319C296.078 427.682 296.587 427.172 297.224 427.172C297.861 427.172 298.371 427.682 298.371 428.319C298.371 428.956 297.861 429.465 297.224 429.465C296.46 429.338 296.078 428.828 296.078 428.319ZM296.205 417.108H298.116L297.734 425.389H296.46L296.205 417.108Z" fill="#407BFF"/>
<path d="M564.255 204.859C564.255 209.063 541.578 212.631 508.963 214.159C508.071 214.159 507.18 214.287 506.288 214.287C505.141 214.287 503.995 214.414 502.721 214.414C497.879 214.542 492.783 214.796 487.56 214.924C486.796 214.924 486.031 214.924 485.267 214.924C484.885 214.924 484.375 214.924 483.993 214.924C479.916 215.051 475.839 215.051 471.762 215.051C464.246 215.051 456.857 214.924 449.85 214.796C448.066 214.796 446.41 214.669 444.754 214.669C432.014 214.287 420.293 213.522 410.483 212.631C391.246 210.72 379.143 208.044 379.143 204.987C379.143 200.4 406.661 196.578 444.499 195.304C445.518 195.304 446.537 195.177 447.429 195.177C450.104 195.049 452.78 195.049 455.455 195.049C458.768 194.922 462.08 194.922 465.392 194.922C465.647 194.922 465.902 194.922 466.157 194.922C467.94 194.922 469.724 194.922 471.508 194.922C481.063 194.922 490.235 195.049 498.899 195.432C500.3 195.432 501.701 195.559 502.975 195.559C504.759 195.686 506.543 195.686 508.326 195.814C508.836 195.814 509.218 195.814 509.728 195.941C510.874 195.941 512.148 196.069 513.295 196.069C543.616 197.47 564.255 200.91 564.255 204.859Z" fill="#263238"/>
<path opacity="0.4" d="M564.255 204.859C564.255 209.063 541.578 212.631 508.963 214.159C508.071 214.159 507.18 214.287 506.288 214.287C505.141 214.287 503.995 214.414 502.721 214.414C497.879 214.542 492.783 214.796 487.56 214.924C486.796 214.924 486.031 214.924 485.267 214.924C484.885 214.924 484.375 214.924 483.993 214.924C479.916 215.051 475.839 215.051 471.762 215.051C464.246 215.051 456.857 214.924 449.85 214.796C448.066 214.796 446.41 214.669 444.754 214.669C432.014 214.287 420.293 213.522 410.483 212.631C391.246 210.72 379.143 208.044 379.143 204.987C379.143 203.585 381.563 202.311 385.895 201.165C391.373 202.566 399.781 203.967 410.483 204.987C420.293 205.878 431.886 206.643 444.754 207.025C446.41 207.152 448.193 207.152 449.85 207.152C456.857 207.28 464.246 207.407 471.762 207.407C475.967 207.407 480.043 207.407 483.993 207.28C484.375 207.28 484.885 207.28 485.267 207.28C486.031 207.28 486.796 207.28 487.56 207.28C492.783 207.152 497.879 207.025 502.721 206.77C503.867 206.77 505.141 206.643 506.288 206.643C507.18 206.643 508.071 206.515 508.963 206.515C530.876 205.496 548.33 203.458 557.503 201.037C561.962 202.184 564.255 203.458 564.255 204.859Z" fill="white"/>
<path d="M465.647 194.667C465.519 196.196 465.01 197.597 463.991 198.871C462.971 200.145 462.08 201.165 460.933 202.184C460.296 202.821 459.659 203.458 459.149 203.967C458.767 204.35 458.258 204.732 457.875 205.114C455.71 207.025 453.544 208.936 450.996 210.72C450.868 210.847 450.741 210.974 450.614 210.974C450.231 211.229 449.849 211.484 449.467 211.739C447.938 212.758 446.409 213.65 444.753 214.542C444.116 214.796 443.479 215.179 442.842 215.433C441.313 216.07 439.402 216.707 438.128 216.962C436.727 217.344 435.326 217.727 433.924 217.981C432.013 218.364 430.102 218.746 428.319 219.128C424.879 219.765 421.439 220.402 417.872 220.912C414.942 221.421 411.884 221.803 408.954 222.186C406.533 222.44 404.113 222.695 401.692 222.95C401.437 222.95 401.182 222.95 400.928 222.95C400.291 222.823 399.654 222.568 399.144 222.186C398.38 221.549 397.87 220.657 397.743 219.638C397.743 219.51 397.743 219.255 397.743 219.128C397.87 217.727 398.762 216.453 400.163 215.943C400.291 215.943 400.418 215.816 400.418 215.816C403.73 214.669 407.043 213.522 410.355 212.376C412.011 211.866 413.668 211.229 415.451 210.72C420.547 209.063 425.643 207.535 430.612 205.878C431.886 205.496 433.032 204.987 434.179 204.604C435.453 204.222 436.09 203.84 436.982 203.33C437.491 202.948 438.128 202.693 438.765 202.184C440.039 201.419 441.186 200.4 442.46 199.381C444.116 197.98 445.772 196.451 447.429 194.922C450.104 194.795 452.779 194.795 455.455 194.795C458.895 194.795 462.207 194.795 465.647 194.667Z" fill="#FFB573"/>
<path d="M465.774 199.891C465.647 200.145 465.647 200.4 465.519 200.655C465.392 200.91 465.265 201.165 465.137 201.419C465.01 201.674 464.882 201.929 464.755 202.184C464.628 202.439 464.5 202.693 464.373 202.948C464.373 202.948 464.373 202.948 464.373 203.076C464.118 203.585 463.736 203.967 463.481 204.35C463.099 204.732 462.844 205.241 462.334 205.624C462.207 205.751 462.08 205.878 461.952 206.006C461.443 206.643 460.806 207.152 460.169 207.662C459.914 207.789 459.787 208.044 459.532 208.172C459.404 208.299 459.404 208.299 459.277 208.426C456.984 210.21 454.691 211.611 453.162 212.503C452.907 212.631 452.652 212.758 452.397 212.885C452.015 213.013 451.76 213.14 451.633 213.268C451.505 213.395 451.378 213.395 451.378 213.395L450.486 212.631L449.722 211.866L447.938 210.337L439.02 202.439L438.383 201.802C438.383 201.802 441.059 198.744 444.753 195.177C445.772 195.177 446.792 195.049 447.683 195.049C450.359 194.922 453.034 194.922 455.71 194.922C459.022 194.795 462.334 194.795 465.647 194.795C465.902 194.795 466.156 194.795 466.411 194.795C466.539 196.323 466.411 198.107 465.774 199.891Z" fill="#407BFF"/>
<path opacity="0.7" d="M465.774 199.891C465.647 200.145 465.519 200.4 465.519 200.655C465.392 200.91 465.265 201.165 465.137 201.419C465.01 201.674 464.882 201.929 464.755 202.184C464.628 202.439 464.5 202.693 464.373 202.948C464.373 202.948 464.373 202.948 464.373 203.076C464.118 203.585 463.736 203.967 463.481 204.35C463.099 204.732 462.844 205.241 462.334 205.624C462.207 205.751 462.08 205.878 461.952 206.006C461.443 206.643 460.806 207.152 460.169 207.662C459.914 207.789 459.787 208.044 459.532 208.172C459.404 208.299 459.404 208.299 459.277 208.426C456.984 210.21 454.691 211.611 453.162 212.503C452.907 212.631 452.652 212.758 452.397 212.885C452.015 213.013 451.76 213.14 451.633 213.268C451.505 213.395 451.378 213.395 451.378 213.395L450.486 212.631L449.722 211.866L447.938 210.337L439.02 202.439L438.383 201.802C438.383 201.802 441.059 198.744 444.753 195.177C445.772 195.177 446.792 195.049 447.683 195.049C450.359 194.922 453.034 194.922 455.71 194.922C459.022 194.795 462.334 194.795 465.647 194.795C465.902 194.795 466.156 194.795 466.411 194.795C466.539 196.323 466.411 198.107 465.774 199.891Z" fill="white"/>
<path opacity="0.1" d="M459.277 208.426C455.328 211.611 451.251 213.395 451.251 213.395L447.684 210.337C450.232 201.929 457.366 196.451 457.366 196.451C459.022 199.126 459.404 205.369 459.277 208.426Z" fill="black"/>
<path d="M401.692 215.943L389.844 214.159L389.972 224.606C389.972 224.606 398.125 227.027 402.329 221.549L401.692 215.943Z" fill="#EBB376"/>
<path d="M381.818 216.962L383.729 224.734L389.971 224.606L389.844 214.159L381.818 216.962Z" fill="#EBB376"/>
<path d="M508.581 195.559C508.453 195.814 508.326 196.069 508.199 196.323C507.944 197.088 507.562 197.852 507.307 198.744C507.179 199.254 506.925 199.763 506.797 200.145C506.67 200.655 506.415 201.165 506.288 201.674C505.778 203.203 505.396 204.604 504.886 206.133C504.886 206.261 504.886 206.261 504.759 206.388C504.249 208.044 503.867 209.828 503.485 211.484C503.485 211.611 503.485 211.611 503.485 211.739C503.23 212.631 503.103 213.522 502.848 214.414C502.72 214.796 502.72 215.179 502.593 215.561C502.211 217.09 501.956 218.746 501.574 220.275C501.446 220.912 501.319 221.421 501.192 222.058C501.064 222.695 500.937 223.332 500.809 223.842C500.809 223.969 500.809 224.097 500.809 224.224C500.682 224.606 500.682 224.861 500.682 225.243C500.555 226.135 500.3 227.027 500.172 228.046C500.172 228.173 500.172 228.301 500.045 228.428C500.045 228.81 499.918 229.065 499.918 229.447C499.663 231.358 499.281 233.142 499.153 234.926C499.153 235.053 499.153 235.18 499.153 235.18C498.898 237.091 498.644 239.002 498.389 240.786C498.261 241.55 498.261 242.315 498.134 242.952C498.007 243.971 497.879 244.99 497.879 245.882C497.752 246.646 497.752 247.283 497.624 247.92C497.497 248.557 497.497 249.194 497.497 249.704C497.497 250.341 497.37 250.851 497.37 251.36C497.242 252.889 497.115 254.29 496.987 255.564C496.987 256.074 496.86 256.584 496.86 257.093C496.733 258.749 496.733 260.023 496.733 260.533C496.733 260.788 496.733 260.915 496.733 260.915L474.183 258.877H473.801L469.979 258.495L464.246 257.985L457.366 257.348L455.71 257.221L447.301 256.456C447.301 255.692 447.174 254.927 447.174 254.036C447.174 253.781 447.174 253.653 447.174 253.399C446.919 246.392 447.047 240.022 447.429 234.289C447.684 231.231 447.938 228.428 448.193 225.625C448.703 221.676 449.212 218.109 449.849 214.796C449.977 214.032 450.104 213.268 450.232 212.631C450.359 212.121 450.486 211.611 450.614 211.229C451.633 206.898 452.652 203.203 453.799 199.891C454.436 198.107 455.073 196.451 455.582 195.049C458.895 194.922 462.207 194.922 465.52 194.922C465.774 194.922 466.029 194.922 466.284 194.922C468.068 194.922 469.851 194.922 471.635 194.922C481.19 194.922 490.363 195.049 499.026 195.432C500.427 195.432 501.829 195.559 503.103 195.559C505.141 195.432 506.797 195.432 508.581 195.559Z" fill="#407BFF"/>
<path opacity="0.7" d="M508.581 195.559C508.453 195.814 508.326 196.069 508.199 196.323C507.944 197.088 507.562 197.852 507.307 198.744C507.179 199.254 506.925 199.763 506.797 200.145C506.67 200.655 506.415 201.165 506.288 201.674V201.802C505.778 203.203 505.396 204.732 505.014 206.133C505.014 206.261 505.014 206.261 504.886 206.388C504.249 208.554 503.74 210.72 503.103 213.013C502.975 213.522 502.848 214.032 502.72 214.414C502.593 214.796 502.593 215.179 502.466 215.561C502.083 217.09 501.829 218.746 501.446 220.275C501.319 220.912 501.192 221.421 501.064 222.058C500.937 222.695 500.809 223.205 500.682 223.842C500.682 223.969 500.682 224.097 500.555 224.224C500.427 224.606 500.427 224.861 500.427 225.243C500.3 226.135 500.045 227.027 499.918 228.046C499.918 228.173 499.918 228.301 499.79 228.428C499.79 228.81 499.663 229.065 499.663 229.447C499.408 231.358 499.026 233.142 498.898 234.926C498.898 235.053 498.898 235.18 498.898 235.18C498.644 237.091 498.389 239.002 498.134 240.786C498.007 241.55 498.007 242.315 497.879 242.952C497.752 243.971 497.624 244.99 497.624 245.882C497.497 246.646 497.497 247.283 497.37 247.92C497.242 248.557 497.242 249.194 497.242 249.704C497.242 250.341 497.115 250.851 497.115 251.36C496.987 252.889 496.86 254.29 496.733 255.564C496.733 256.074 496.605 256.584 496.605 257.093C496.478 258.749 496.478 260.023 496.478 260.533C496.478 260.788 496.478 260.915 496.478 260.915L473.928 258.877H473.546L469.724 258.495L463.991 257.985L457.366 257.348L455.71 257.221L447.301 256.456C447.301 255.692 447.174 254.927 447.174 254.036C447.174 253.781 447.174 253.653 447.174 253.399C446.919 246.392 447.047 240.022 447.429 234.289C447.684 231.231 447.938 228.428 448.193 225.625C448.703 221.676 449.212 218.109 449.849 214.796C449.977 214.032 450.104 213.268 450.232 212.631C450.359 212.121 450.486 211.611 450.614 211.229C451.633 206.898 452.652 203.203 453.799 199.891C454.436 198.107 455.073 196.451 455.582 195.049C458.895 194.922 462.207 194.922 465.52 194.922C465.774 194.922 466.029 194.922 466.284 194.922C468.068 194.922 469.851 194.922 471.635 194.922C481.19 194.922 490.363 195.049 499.026 195.432C500.427 195.432 501.829 195.559 503.103 195.559C505.141 195.432 506.797 195.432 508.581 195.559Z" fill="white"/>
<path d="M386.659 364.619C386.659 364.619 402.584 357.994 403.094 351.369C403.094 350.732 403.603 350.223 404.368 350.223L416.471 350.987C416.98 350.987 417.617 351.369 417.745 351.879L422.586 363.09L419.273 363.6L417.872 362.071L416.598 363.982C398.252 366.53 390.354 367.422 386.659 366.785C386.022 365.256 386.659 364.619 386.659 364.619Z" fill="black"/>
<path d="M461.315 298.498C460.678 298.371 460.169 298.243 460.169 298.243L402.839 291.109L419.91 351.879L402.584 353.535C402.584 353.535 362.963 277.095 379.142 266.139C395.322 255.182 445.518 267.285 445.518 267.285L447.429 252.125L497.37 255.819C505.396 305.633 468.195 299.9 461.315 298.498Z" fill="#263238"/>
<path d="M444.753 473.801C444.753 473.801 461.952 472.144 464.373 466.029C464.628 465.392 465.265 465.137 465.902 465.392L477.368 469.596C477.877 469.851 478.26 470.361 478.387 470.87L479.788 483.101L476.476 482.591L475.584 480.68L473.801 482.082C455.582 479.151 447.684 477.623 444.371 475.966C443.862 474.31 444.753 473.801 444.753 473.801Z" fill="black"/>
<path d="M497.879 273.783C497.752 274.037 495.713 283.72 493.038 297.352C492.911 298.116 492.783 298.88 492.528 299.772C491.254 306.27 489.853 313.659 488.452 321.303C486.795 330.603 485.139 340.413 483.738 349.713C481.699 363.217 480.298 375.83 480.043 384.748C479.406 414.305 478.132 472.527 478.132 472.527L462.207 469.979C462.207 469.979 453.416 407.807 453.544 377.741C453.671 358.631 458.385 319.264 461.57 294.804C463.226 282.191 464.5 273.528 464.5 273.528L482.464 273.655L497.879 273.783Z" fill="#263238"/>
<path d="M496.605 260.66H497.625V257.221H496.733L496.605 260.66Z" fill="#263238"/>
<path d="M457.366 257.603L478.642 259.259L478.769 255.819L457.621 254.163L457.366 257.603Z" fill="#263238"/>
<path d="M455.965 254.036L446.919 253.271L446.665 256.711L455.71 257.475L455.965 254.036Z" fill="#263238"/>
<path d="M495.077 257.093L480.426 255.947L480.298 259.386L494.949 260.533L495.077 257.093Z" fill="#263238"/>
<g opacity="0.2">
<path opacity="0.2" d="M496.605 260.66H497.625V257.221H496.733L496.605 260.66Z" fill="white"/>
<path opacity="0.2" d="M457.366 257.603L478.642 259.259L478.769 255.819L457.621 254.163L457.366 257.603Z" fill="white"/>
<path opacity="0.2" d="M455.965 254.036L446.919 253.271L446.665 256.711L455.71 257.475L455.965 254.036Z" fill="white"/>
<path opacity="0.2" d="M495.077 257.093L480.426 255.947L480.298 259.386L494.949 260.533L495.077 257.093Z" fill="white"/>
</g>
<path d="M464.119 255.31L463.991 257.348C463.991 257.73 464.246 257.985 464.501 257.985L469.852 258.495C470.234 258.495 470.489 258.24 470.489 257.858V255.692C470.489 255.31 470.234 255.055 469.852 255.055L464.628 254.673C464.373 254.673 464.119 254.927 464.119 255.31Z" stroke="white" stroke-width="0.7259" stroke-miterlimit="10"/>
<path d="M468.195 256.584L469.851 256.711" stroke="white" stroke-width="0.7259" stroke-miterlimit="10" stroke-linecap="round" stroke-linejoin="round"/>
<path opacity="0.1" d="M505.014 206.388C504.377 208.554 503.867 210.72 503.23 213.013C502.975 213.905 502.848 214.796 502.593 215.688C501.574 220.02 500.809 224.351 500.172 228.556C500.172 228.938 500.045 229.193 500.045 229.575C491.254 232.378 482.209 230.467 482.464 222.058C482.846 210.72 492.528 205.496 492.528 205.496C496.733 202.948 501.319 203.84 505.014 206.388Z" fill="black"/>
<path d="M419.401 529.984H431.122L392.774 227.154H381.054L419.401 529.984Z" fill="#263238"/>
<path opacity="0.4" d="M419.401 529.984H431.122L392.774 227.154H381.054L419.401 529.984Z" fill="white"/>
<path d="M394.686 271.999H432.141C433.033 271.999 433.797 271.362 434.307 270.47L436.728 265.374H390.227L392.647 270.47C393.029 271.489 393.794 271.999 394.686 271.999Z" fill="#263238"/>
<path opacity="0.4" d="M394.686 271.999H432.141C433.033 271.999 433.797 271.362 434.307 270.47L436.728 265.374H390.227L392.647 270.47C393.029 271.489 393.794 271.999 394.686 271.999Z" fill="white"/>
<path d="M390.863 267.922H436.09C437.492 267.922 438.511 266.776 438.511 265.502V264.992C438.511 263.591 437.364 262.571 436.09 262.571H390.863C389.462 262.571 388.443 263.718 388.443 264.992V265.502C388.315 266.776 389.462 267.922 390.863 267.922Z" fill="#263238"/>
<path opacity="0.1" d="M390.863 267.922H436.09C437.492 267.922 438.511 266.776 438.511 265.502V264.992C438.511 263.591 437.364 262.571 436.09 262.571H390.863C389.462 262.571 388.443 263.718 388.443 264.992V265.502C388.315 266.776 389.462 267.922 390.863 267.922Z" fill="white"/>
<path d="M401.565 315.315H439.021C439.913 315.315 440.677 314.678 441.187 313.786L443.607 308.69H397.106L399.527 313.786C399.782 314.805 400.674 315.315 401.565 315.315Z" fill="#263238"/>
<path opacity="0.4" d="M401.565 315.315H439.021C439.913 315.315 440.677 314.678 441.187 313.786L443.607 308.69H397.106L399.527 313.786C399.782 314.805 400.674 315.315 401.565 315.315Z" fill="white"/>
<path d="M397.616 311.111H442.843C444.244 311.111 445.264 309.964 445.264 308.69V308.181C445.264 306.779 444.117 305.76 442.843 305.76H397.616C396.215 305.76 395.195 306.907 395.195 308.181V308.69C395.195 310.092 396.342 311.111 397.616 311.111Z" fill="#263238"/>
<path opacity="0.1" d="M397.616 311.111H442.843C444.244 311.111 445.264 309.964 445.264 308.69V308.181C445.264 306.779 444.117 305.76 442.843 305.76H397.616C396.215 305.76 395.195 306.907 395.195 308.181V308.69C395.195 310.092 396.342 311.111 397.616 311.111Z" fill="white"/>
<path d="M408.445 372.645H445.9C446.792 372.645 447.557 372.008 448.066 371.116L450.487 366.02H403.858L406.279 371.116C406.661 372.008 407.553 372.645 408.445 372.645Z" fill="#263238"/>
<path opacity="0.4" d="M408.445 372.645H445.9C446.792 372.645 447.557 372.008 448.066 371.116L450.487 366.02H403.858L406.279 371.116C406.661 372.008 407.553 372.645 408.445 372.645Z" fill="white"/>
<path d="M404.495 368.441H449.722C451.124 368.441 452.143 367.294 452.143 366.02V365.511C452.143 364.109 450.996 363.09 449.722 363.09H404.495C403.094 363.09 402.075 364.237 402.075 365.511V366.02C402.075 367.422 403.094 368.441 404.495 368.441Z" fill="#263238"/>
<path opacity="0.1" d="M404.495 368.441H449.722C451.124 368.441 452.143 367.294 452.143 366.02V365.511C452.143 364.109 450.996 363.09 449.722 363.09H404.495C403.094 363.09 402.075 364.237 402.075 365.511V366.02C402.075 367.422 403.094 368.441 404.495 368.441Z" fill="white"/>
<path d="M415.197 429.975H452.653C453.545 429.975 454.309 429.338 454.819 428.446L457.239 423.35H410.738L413.159 428.446C413.541 429.338 414.305 429.975 415.197 429.975Z" fill="#263238"/>
<path opacity="0.4" d="M415.197 429.975H452.653C453.545 429.975 454.309 429.338 454.819 428.446L457.239 423.35H410.738L413.159 428.446C413.541 429.338 414.305 429.975 415.197 429.975Z" fill="white"/>
<path d="M411.248 425.771H456.475C457.876 425.771 458.895 424.624 458.895 423.35V422.841C458.895 421.439 457.749 420.42 456.475 420.42H411.248C409.846 420.42 408.827 421.567 408.827 422.841V423.35C408.827 424.624 409.974 425.771 411.248 425.771Z" fill="#263238"/>
<path opacity="0.1" d="M411.248 425.771H456.475C457.876 425.771 458.895 424.624 458.895 423.35V422.841C458.895 421.439 457.749 420.42 456.475 420.42H411.248C409.846 420.42 408.827 421.567 408.827 422.841V423.35C408.827 424.624 409.974 425.771 411.248 425.771Z" fill="white"/>
<path d="M422.077 487.305H459.532C460.424 487.305 461.188 486.668 461.698 485.776L464.119 480.68H417.618L420.038 485.776C420.293 486.668 421.185 487.305 422.077 487.305Z" fill="#263238"/>
<path opacity="0.4" d="M422.077 487.305H459.532C460.424 487.305 461.188 486.668 461.698 485.776L464.119 480.68H417.618L420.038 485.776C420.293 486.668 421.185 487.305 422.077 487.305Z" fill="white"/>
<path d="M418.127 483.101H463.354C464.756 483.101 465.775 481.954 465.775 480.68V480.171C465.775 478.769 464.628 477.75 463.354 477.75H418.127C416.726 477.75 415.707 478.897 415.707 480.171V480.68C415.707 481.954 416.853 483.101 418.127 483.101Z" fill="#263238"/>
<path opacity="0.1" d="M418.127 483.101H463.354C464.756 483.101 465.775 481.954 465.775 480.68V480.171C465.775 478.769 464.628 477.75 463.354 477.75H418.127C416.726 477.75 415.707 478.897 415.707 480.171V480.68C415.707 481.954 416.853 483.101 418.127 483.101Z" fill="white"/>
<path d="M464.883 529.984H476.604L438.256 227.154H426.536L464.883 529.984Z" fill="#263238"/>
<path opacity="0.7" d="M464.883 529.984H476.604L438.256 227.154H426.536L464.883 529.984Z" fill="white"/>
<path d="M341.177 529.984H329.329L367.676 227.154H379.397L341.177 529.984Z" fill="#263238"/>
<path opacity="0.4" d="M341.177 529.984H329.329L367.676 227.154H379.397L341.177 529.984Z" fill="white"/>
<path d="M411.248 271.999H373.792C372.9 271.999 372.136 271.362 371.626 270.47L369.206 265.374H415.707L413.286 270.47C412.904 271.489 412.139 271.999 411.248 271.999Z" fill="#263238"/>
<path opacity="0.5" d="M411.248 271.999H373.792C372.9 271.999 372.136 271.362 371.626 270.47L369.206 265.374H415.707L413.286 270.47C412.904 271.489 412.139 271.999 411.248 271.999Z" fill="white"/>
<path d="M415.197 267.922H369.97C368.569 267.922 367.549 266.776 367.549 265.502V264.992C367.549 263.591 368.696 262.571 369.97 262.571H415.197C416.598 262.571 417.617 263.718 417.617 264.992V265.502C417.617 266.776 416.471 267.922 415.197 267.922Z" fill="#263238"/>
<path opacity="0.2" d="M415.197 267.922H369.97C368.569 267.922 367.549 266.776 367.549 265.502V264.992C367.549 263.591 368.696 262.571 369.97 262.571H415.197C416.598 262.571 417.617 263.718 417.617 264.992V265.502C417.617 266.776 416.471 267.922 415.197 267.922Z" fill="white"/>
<path d="M404.368 315.315H366.912C366.02 315.315 365.256 314.678 364.746 313.786L362.326 308.69H408.954L406.534 313.786C406.151 314.805 405.259 315.315 404.368 315.315Z" fill="#263238"/>
<path opacity="0.5" d="M404.368 315.315H366.912C366.02 315.315 365.256 314.678 364.746 313.786L362.326 308.69H408.954L406.534 313.786C406.151 314.805 405.259 315.315 404.368 315.315Z" fill="white"/>
<path d="M408.317 311.111H363.09C361.689 311.111 360.669 309.964 360.669 308.69V308.181C360.669 306.779 361.816 305.76 363.09 305.76H408.317C409.718 305.76 410.738 306.907 410.738 308.181V308.69C410.738 310.092 409.718 311.111 408.317 311.111Z" fill="#263238"/>
<path opacity="0.2" d="M408.317 311.111H363.09C361.689 311.111 360.669 309.964 360.669 308.69V308.181C360.669 306.779 361.816 305.76 363.09 305.76H408.317C409.718 305.76 410.738 306.907 410.738 308.181V308.69C410.738 310.092 409.718 311.111 408.317 311.111Z" fill="white"/>
<path d="M397.616 372.645H360.16C359.268 372.645 358.504 372.008 357.994 371.116L355.574 366.02H402.075L399.654 371.116C399.272 372.008 398.508 372.645 397.616 372.645Z" fill="#263238"/>
<path opacity="0.5" d="M397.616 372.645H360.16C359.268 372.645 358.504 372.008 357.994 371.116L355.574 366.02H402.075L399.654 371.116C399.272 372.008 398.508 372.645 397.616 372.645Z" fill="white"/>
<path d="M401.438 368.441H356.211C354.809 368.441 353.79 367.294 353.79 366.02V365.511C353.79 364.109 354.937 363.09 356.211 363.09H401.438C402.839 363.09 403.858 364.237 403.858 365.511V366.02C403.986 367.422 402.839 368.441 401.438 368.441Z" fill="#263238"/>
<path opacity="0.2" d="M401.438 368.441H356.211C354.809 368.441 353.79 367.294 353.79 366.02V365.511C353.79 364.109 354.937 363.09 356.211 363.09H401.438C402.839 363.09 403.858 364.237 403.858 365.511V366.02C403.986 367.422 402.839 368.441 401.438 368.441Z" fill="white"/>
<path d="M390.736 429.975H353.28C352.388 429.975 351.624 429.338 351.114 428.446L348.694 423.35H395.195L392.774 428.446C392.519 429.338 391.628 429.975 390.736 429.975Z" fill="#263238"/>
<path opacity="0.5" d="M390.736 429.975H353.28C352.388 429.975 351.624 429.338 351.114 428.446L348.694 423.35H395.195L392.774 428.446C392.519 429.338 391.628 429.975 390.736 429.975Z" fill="white"/>
<path d="M394.685 425.771H349.458C348.057 425.771 347.038 424.624 347.038 423.35V422.841C347.038 421.439 348.184 420.42 349.458 420.42H394.685C396.087 420.42 397.106 421.567 397.106 422.841V423.35C397.106 424.624 395.959 425.771 394.685 425.771Z" fill="#263238"/>
<path opacity="0.2" d="M394.685 425.771H349.458C348.057 425.771 347.038 424.624 347.038 423.35V422.841C347.038 421.439 348.184 420.42 349.458 420.42H394.685C396.087 420.42 397.106 421.567 397.106 422.841V423.35C397.106 424.624 395.959 425.771 394.685 425.771Z" fill="white"/>
<path d="M383.856 487.305H346.401C345.509 487.305 344.745 486.668 344.235 485.776L341.814 480.68H388.315L385.895 485.776C385.64 486.668 384.748 487.305 383.856 487.305Z" fill="#263238"/>
<path opacity="0.5" d="M383.856 487.305H346.401C345.509 487.305 344.745 486.668 344.235 485.776L341.814 480.68H388.315L385.895 485.776C385.64 486.668 384.748 487.305 383.856 487.305Z" fill="white"/>
<path d="M387.806 483.101H342.579C341.177 483.101 340.158 481.954 340.158 480.68V480.171C340.158 478.769 341.305 477.75 342.579 477.75H387.806C389.207 477.75 390.226 478.897 390.226 480.171V480.68C390.226 481.954 389.207 483.101 387.806 483.101Z" fill="#263238"/>
<path opacity="0.2" d="M387.806 483.101H342.579C341.177 483.101 340.158 481.954 340.158 480.68V480.171C340.158 478.769 341.305 477.75 342.579 477.75H387.806C389.207 477.75 390.226 478.897 390.226 480.171V480.68C390.226 481.954 389.207 483.101 387.806 483.101Z" fill="white"/>
<path d="M386.659 529.984H374.811L413.158 227.154H424.879L386.659 529.984Z" fill="#263238"/>
<path opacity="0.7" d="M386.659 529.984H374.811L413.158 227.154H424.879L386.659 529.984Z" fill="white"/>
<path d="M440.167 228.683H365.511C364.619 228.683 363.855 228.046 363.345 227.154L360.924 222.058H444.626L442.206 227.154C441.951 228.173 441.059 228.683 440.167 228.683Z" fill="#263238"/>
<path opacity="0.5" d="M440.167 228.683H365.511C364.619 228.683 363.855 228.046 363.345 227.154L360.924 222.058H444.626L442.206 227.154C441.951 228.173 441.059 228.683 440.167 228.683Z" fill="white"/>
<path d="M444.116 224.479H361.689C360.287 224.479 359.268 223.332 359.268 222.058V221.549C359.268 220.147 360.415 219.128 361.689 219.128H444.116C445.518 219.128 446.537 220.275 446.537 221.549V222.058C446.537 223.46 445.39 224.479 444.116 224.479Z" fill="#263238"/>
<path opacity="0.2" d="M444.116 224.479H361.689C360.287 224.479 359.268 223.332 359.268 222.058V221.549C359.268 220.147 360.415 219.128 361.689 219.128H444.116C445.518 219.128 446.537 220.275 446.537 221.549V222.058C446.537 223.46 445.39 224.479 444.116 224.479Z" fill="white"/>
<path d="M445.39 227.409L435.581 220.529L430.994 229.957C430.994 229.957 437.109 235.69 443.479 232.76L445.39 227.409Z" fill="#EBB376"/>
<path d="M427.172 219.51L425.389 227.282L430.994 229.957L435.581 220.529L427.172 219.51Z" fill="#EBB376"/>
<path d="M512.403 205.624C510.492 208.554 508.454 211.484 506.415 214.159C504.886 216.198 503.358 218.236 501.574 220.275C501.064 220.912 500.555 221.421 500.045 222.058C499.026 223.205 498.007 224.351 496.988 225.498C495.714 226.899 494.312 228.301 492.783 229.702C492.529 229.957 492.274 230.212 491.892 230.467C490.745 231.486 489.726 232.378 488.324 233.397C486.668 234.543 485.012 235.69 482.464 236.709C481.827 236.964 481.19 237.091 480.553 237.346C479.916 237.474 479.406 237.601 478.769 237.728C477.75 237.856 476.731 237.983 475.712 237.983C473.801 238.111 472.017 237.983 470.234 237.856C466.666 237.601 463.354 237.219 459.914 236.709C455.583 236.072 451.378 235.18 447.302 234.161C445.773 233.779 444.244 233.397 442.715 233.015C441.951 232.76 441.059 232.632 440.295 232.378C438.638 231.868 437.619 230.339 437.747 228.683C437.747 228.428 437.747 228.173 437.874 227.919C438.256 226.517 439.403 225.498 440.804 225.371C441.059 225.371 441.186 225.371 441.441 225.371C441.696 225.371 442.078 225.371 442.333 225.371C444.244 225.498 446.155 225.498 448.066 225.498C452.398 225.625 456.602 225.753 460.806 225.88C463.991 226.008 467.176 225.88 470.234 225.753C471.762 225.625 473.291 225.625 474.565 225.371C475.967 225.243 477.113 224.861 477.495 224.606C478.005 224.351 479.024 223.587 479.916 222.823C480.68 222.186 481.445 221.421 482.209 220.657C482.464 220.402 482.719 220.147 482.846 220.02C483.356 219.51 483.738 219.128 484.12 218.618C485.267 217.472 486.286 216.198 487.305 214.924C487.815 214.287 488.324 213.777 488.707 213.14C491 210.21 493.293 207.152 495.459 204.095C496.988 202.056 498.389 199.891 499.918 197.852L500.045 197.725C500.81 196.706 501.829 195.814 502.848 195.304C504.632 195.432 506.415 195.432 508.199 195.559C508.708 195.559 509.091 195.559 509.6 195.686C509.728 195.814 509.855 195.814 509.982 195.941C513.677 198.107 514.441 202.439 512.403 205.624Z" fill="#FFB573"/>
<path d="M509.09 214.159C507.052 217.09 504.504 220.402 501.064 223.969C500.3 224.734 499.408 225.625 498.516 226.517L497.115 225.753L484.63 218.746L483.483 218.109C483.483 218.109 484.247 216.962 485.521 215.051C487.05 212.758 489.216 209.446 491.254 206.388C492.783 203.967 494.312 201.674 495.204 200.018C496.35 197.98 497.879 196.451 499.28 195.304C500.682 195.304 502.083 195.432 503.357 195.432C505.141 195.559 506.924 195.559 508.708 195.686C509.218 195.686 509.6 195.686 510.109 195.814C511.256 195.814 512.53 195.941 513.677 195.941C515.206 199.636 514.823 205.624 509.09 214.159Z" fill="#407BFF"/>
<path opacity="0.7" d="M509.09 214.159C507.052 217.09 504.504 220.402 501.064 223.969C500.3 224.734 499.408 225.625 498.516 226.517L497.115 225.753L484.63 218.746L483.483 218.109C483.483 218.109 484.247 216.962 485.521 215.051C487.05 212.758 489.216 209.446 491.254 206.388C492.783 203.967 494.312 201.674 495.204 200.018C496.35 197.98 497.879 196.451 499.28 195.304C500.682 195.304 502.083 195.432 503.357 195.432C505.141 195.559 506.924 195.559 508.708 195.686C509.218 195.686 509.6 195.686 510.109 195.814C511.256 195.814 512.53 195.941 513.677 195.941C515.206 199.636 514.823 205.624 509.09 214.159Z" fill="white"/>
<path d="M322.704 529.729C322.704 529.857 322.704 529.857 322.704 529.984V530.111C322.704 530.111 322.704 530.239 322.577 530.239C322.577 530.366 322.45 530.366 322.45 530.494C322.45 530.621 322.322 530.621 322.195 530.748C321.813 531.258 321.048 531.64 320.156 532.15C320.029 532.277 319.774 532.277 319.519 532.405C318.882 532.659 318.245 532.914 317.481 533.169C316.971 533.296 316.462 533.424 315.952 533.679C307.034 536.099 289.963 538.01 268.305 539.157C267.413 539.157 266.648 539.284 265.757 539.284C264.355 539.284 262.954 539.412 261.552 539.412C260.151 539.412 258.75 539.539 257.221 539.539C256.202 539.539 255.182 539.666 254.291 539.666C251.87 539.666 249.577 539.794 247.156 539.794C246.901 539.794 246.519 539.794 246.264 539.794C245.755 539.794 245.118 539.794 244.608 539.794C244.099 539.794 243.589 539.794 242.952 539.794C240.659 539.794 238.493 539.794 236.2 539.921C235.945 539.921 235.69 539.921 235.435 539.921C233.652 539.921 231.868 539.921 230.085 539.921C222.695 539.921 215.434 539.794 208.427 539.666C207.407 539.666 206.388 539.666 205.369 539.539C204.477 539.539 203.585 539.539 202.694 539.412C201.292 539.412 199.891 539.284 198.617 539.284C196.833 539.157 195.05 539.157 193.266 539.029C192.756 539.029 192.374 539.029 191.865 538.902C190.718 538.902 189.444 538.775 188.297 538.775C182.437 538.392 176.959 538.01 171.863 537.628C159.76 536.609 150.205 535.207 144.217 533.551C144.09 533.551 143.835 533.424 143.707 533.424C143.453 533.424 143.325 533.296 143.198 533.296C142.179 533.042 141.414 532.659 140.65 532.405C140.395 532.277 140.14 532.15 139.885 532.022C139.503 531.768 139.121 531.64 138.739 531.385C138.611 531.258 138.484 531.258 138.357 531.131C138.229 531.003 138.102 531.003 138.102 530.876C137.974 530.748 137.847 530.748 137.847 530.621C137.72 530.494 137.72 530.494 137.592 530.366C137.465 530.239 137.465 530.111 137.337 529.857V529.729V529.602C137.337 525.398 160.015 521.83 192.629 520.302C193.521 520.302 194.413 520.174 195.177 520.174C196.324 520.174 197.47 520.047 198.744 520.047C200.528 519.919 202.311 519.919 204.095 519.919C205.114 519.919 206.006 519.792 207.025 519.792C209.318 519.792 211.612 519.665 213.905 519.665H214.287C214.924 519.665 215.561 519.665 216.325 519.665C216.835 519.665 217.217 519.665 217.727 519.665C219.765 519.665 221.804 519.665 223.842 519.665C223.969 519.665 224.224 519.665 224.479 519.665C226.263 519.665 228.174 519.665 230.085 519.665C237.601 519.665 244.99 519.792 251.997 519.919C253.654 519.919 255.437 520.047 257.093 520.047C257.858 520.047 258.495 520.047 259.259 520.174C259.387 520.174 259.387 520.174 259.387 520.174C260.151 520.174 260.915 520.174 261.807 520.302C262.317 520.302 262.826 520.302 263.336 520.302C264.737 520.302 266.011 520.429 267.413 520.429C268.687 520.429 269.961 520.556 271.235 520.556C278.497 520.939 285.249 521.448 291.364 522.085C310.601 523.996 322.704 526.799 322.704 529.729Z" fill="#263238"/>
<path opacity="0.4" d="M137.72 529.729C137.72 525.525 160.397 521.958 193.011 520.429C193.903 520.429 194.795 520.302 195.687 520.302C196.833 520.302 197.98 520.174 199.254 520.174C204.095 519.919 209.191 519.792 214.415 519.665C215.179 519.665 215.943 519.665 216.708 519.665C217.09 519.665 217.6 519.665 217.982 519.665C222.059 519.665 226.135 519.537 230.212 519.537C237.729 519.537 245.118 519.665 252.125 519.792C253.909 519.792 255.565 519.919 257.221 519.919C270.088 520.302 281.682 521.066 291.492 521.958C310.729 523.869 322.832 526.544 322.832 529.602C322.832 531.003 320.411 532.277 316.08 533.424C310.602 531.895 302.193 530.621 291.492 529.602C281.682 528.71 270.088 527.946 257.221 527.563C255.565 527.436 253.781 527.436 252.125 527.436C245.118 527.309 237.729 527.181 230.212 527.181C226.008 527.181 221.931 527.181 217.982 527.309C217.6 527.309 217.09 527.309 216.708 527.309C215.943 527.309 215.179 527.309 214.415 527.309C209.191 527.436 204.095 527.563 199.254 527.818C198.107 527.818 196.833 527.946 195.687 527.946C194.795 527.946 193.903 528.073 193.011 528.073C171.099 529.092 153.645 531.131 144.472 533.551C140.14 532.405 137.72 531.131 137.72 529.729Z" fill="white"/>
<path d="M222.441 525.015C221.676 525.907 221.039 526.544 220.402 527.309C220.02 527.691 219.765 527.946 219.383 528.328C218.746 528.965 218.236 529.602 217.599 530.111C217.217 530.494 216.708 530.876 216.325 531.258C214.16 533.169 211.994 535.08 209.446 536.864C209.318 536.991 209.191 537.118 209.064 537.118C208.681 537.373 208.299 537.628 207.917 537.883C207.153 538.392 206.261 538.902 205.496 539.412C204.605 539.412 203.713 539.412 202.821 539.284C201.42 539.284 200.018 539.157 198.744 539.157C196.961 539.029 195.177 539.029 193.393 538.902C192.884 538.902 192.502 538.902 191.992 538.775C190.845 538.775 189.571 538.647 188.425 538.647C182.564 538.265 177.086 537.883 171.99 537.501C172.627 537.246 173.264 537.118 174.029 536.864C179.125 535.207 184.221 533.679 189.189 532.022C190.463 531.64 191.61 531.258 192.756 530.748C194.03 530.366 194.667 529.984 195.559 529.474C196.069 529.092 196.706 528.837 197.343 528.328C197.598 528.073 197.98 527.946 198.235 527.691C199.126 527.054 200.018 526.289 200.91 525.525C202.694 523.996 204.605 522.34 206.388 520.684C206.77 520.302 207.025 520.047 207.407 519.792C207.917 519.282 208.554 518.645 209.064 518.136L211.612 515.588L211.739 515.46C213.395 513.804 215.561 513.04 217.727 513.295C219.256 513.422 220.657 514.059 221.931 515.206C223.205 516.48 223.842 518.008 224.097 519.537C224.224 521.576 223.715 523.487 222.441 525.015Z" fill="#FFB573"/>
<path d="M219.638 510.492C212.504 510.364 196.706 527.946 196.706 527.946L209.701 539.539C209.701 539.539 221.422 534.443 224.224 526.162C227.155 517.626 219.638 510.492 219.638 510.492Z" fill="#407BFF"/>
<path opacity="0.7" d="M224.224 526.034C223.078 529.474 220.402 532.405 217.727 534.57C213.778 537.755 209.701 539.539 209.701 539.539L206.134 536.481L196.579 528.073C196.579 528.073 212.376 510.364 219.511 510.619C219.638 510.492 227.155 517.626 224.224 526.034Z" fill="white"/>
<path opacity="0.1" d="M217.727 534.57C213.777 537.755 209.701 539.539 209.701 539.539L206.133 536.481C208.681 528.073 215.816 522.595 215.816 522.595C217.472 525.398 217.854 531.513 217.727 534.57Z" fill="black"/>
<path d="M268.687 517.881C268.56 518.136 268.56 518.263 268.432 518.391C268.177 518.9 268.05 519.282 267.795 519.792C267.668 520.047 267.54 520.302 267.54 520.556C267.54 520.556 267.54 520.684 267.413 520.684C267.286 520.811 267.286 521.066 267.158 521.321C266.903 521.83 266.776 522.34 266.521 522.85C266.266 523.487 266.012 524.124 265.757 524.888V525.015C265.629 525.525 265.375 526.035 265.247 526.417C265.12 526.926 264.865 527.436 264.738 527.946V528.073C264.61 528.583 264.483 528.965 264.228 529.474C263.973 530.494 263.591 531.385 263.336 532.405C263.336 532.532 263.336 532.532 263.209 532.659C262.572 534.825 262.062 536.991 261.425 539.284V539.412C260.024 539.412 258.622 539.539 257.094 539.539C256.074 539.539 255.055 539.666 254.163 539.666C251.743 539.666 249.45 539.794 247.029 539.794C246.774 539.794 246.392 539.794 246.137 539.794C245.628 539.794 244.991 539.794 244.481 539.794C243.971 539.794 243.462 539.794 242.825 539.794C240.532 539.794 238.366 539.794 236.073 539.921C235.818 539.921 235.563 539.921 235.308 539.921C233.525 539.921 231.741 539.921 229.957 539.921C222.568 539.921 215.306 539.794 208.299 539.666C208.427 539.284 208.427 539.029 208.554 538.775C208.554 538.52 208.682 538.392 208.682 538.138C208.682 538.01 208.809 537.755 208.809 537.501C208.809 537.373 208.809 537.373 208.936 537.246C209.446 534.698 210.083 532.405 210.72 530.239C210.975 529.474 211.102 528.837 211.357 528.073C211.484 527.818 211.484 527.691 211.612 527.436C211.739 526.926 211.994 526.417 212.121 525.907C212.249 525.652 212.249 525.398 212.376 525.143C212.504 524.761 212.631 524.378 212.758 523.996C212.886 523.487 213.141 523.104 213.268 522.722C213.395 522.34 213.523 521.958 213.65 521.703C213.905 521.066 214.16 520.429 214.415 519.792C215.052 518.391 215.561 517.117 216.071 516.097C216.198 515.97 216.326 515.715 216.326 515.588C216.453 515.206 216.708 514.951 216.835 514.569C217.09 514.186 217.217 513.804 217.472 513.422L217.6 513.295C217.854 512.912 217.982 512.53 218.237 512.275C218.491 512.021 218.619 511.766 218.746 511.511C219.128 511.001 219.256 510.747 219.383 510.619C219.383 510.619 224.734 510.11 230.722 510.237C231.486 510.237 232.378 510.237 233.142 510.364C233.907 510.364 234.671 510.492 235.563 510.619C237.347 510.874 239.385 511.129 241.551 511.384C242.825 511.638 244.226 511.893 245.5 512.021C246.774 512.275 248.176 512.53 249.45 512.785C249.704 512.785 249.959 512.912 250.087 512.912C251.106 513.04 252.125 513.295 253.017 513.549C253.654 513.677 254.291 513.804 254.928 513.932C255.31 514.059 255.565 514.059 255.82 514.186C256.074 514.314 256.457 514.314 256.711 514.441C257.858 514.696 259.005 515.078 260.151 515.333C260.533 515.46 260.916 515.588 261.17 515.715C261.807 515.97 262.572 516.097 263.209 516.352C263.846 516.48 264.355 516.734 264.992 516.862C267.158 517.371 268.56 517.881 268.687 517.881Z" fill="#407BFF"/>
<path opacity="0.7" d="M268.687 517.881C268.56 518.136 268.56 518.263 268.432 518.391C268.177 518.9 268.05 519.282 267.795 519.792C267.668 520.047 267.54 520.302 267.54 520.556V520.684C267.413 520.811 267.413 521.066 267.286 521.321C267.031 521.83 266.903 522.34 266.649 522.85C266.394 523.487 266.139 524.124 265.884 524.888V525.015C265.757 525.525 265.502 526.035 265.375 526.417C265.247 526.926 264.992 527.436 264.865 527.946C264.865 527.946 264.865 527.946 264.865 528.073C264.738 528.583 264.61 528.965 264.355 529.474C264.101 530.494 263.718 531.385 263.464 532.405C263.464 532.532 263.464 532.532 263.336 532.659C262.699 534.825 262.19 536.991 261.553 539.284V539.412C260.151 539.412 258.75 539.539 257.221 539.539C256.202 539.539 255.183 539.666 254.291 539.666C251.87 539.666 249.577 539.794 247.156 539.794C246.902 539.794 246.519 539.794 246.265 539.794C245.755 539.794 245.118 539.794 244.608 539.794C244.099 539.794 243.589 539.794 242.952 539.794C240.659 539.794 238.493 539.794 236.2 539.921C235.945 539.921 235.69 539.921 235.436 539.921C233.652 539.921 231.868 539.921 230.085 539.921C222.696 539.921 215.434 539.794 208.427 539.666C208.554 539.284 208.554 539.029 208.682 538.775C208.809 538.392 208.809 538.01 208.936 537.628C208.936 537.501 208.936 537.501 209.064 537.373C209.573 534.825 210.21 532.532 210.847 530.366C211.102 529.602 211.23 528.965 211.484 528.2C211.612 527.946 211.612 527.818 211.739 527.563C211.867 527.054 212.121 526.544 212.249 526.035C212.376 525.78 212.376 525.525 212.504 525.27C212.631 524.888 212.758 524.506 212.886 524.124C213.013 523.614 213.268 523.232 213.395 522.85C213.523 522.467 213.65 522.085 213.778 521.83C214.032 521.193 214.287 520.556 214.542 519.919C215.179 518.518 215.689 517.244 216.198 516.225C216.326 516.097 216.453 515.843 216.453 515.715C216.58 515.333 216.835 515.078 216.963 514.696C217.217 514.314 217.345 513.932 217.6 513.549L217.727 513.422C217.982 513.04 218.237 512.658 218.364 512.403C218.619 512.148 218.746 511.893 218.874 511.638C219.256 511.129 219.383 510.874 219.511 510.747C219.511 510.747 224.861 510.237 230.849 510.364C231.614 510.364 232.505 510.364 233.27 510.492C234.034 510.492 234.799 510.619 235.69 510.747C237.474 511.001 239.512 511.256 241.678 511.511C242.952 511.766 244.354 512.021 245.628 512.148C246.902 512.403 248.303 512.658 249.577 512.912C249.832 512.912 250.087 513.04 250.214 513.04C251.233 513.167 252.252 513.422 253.144 513.677C253.781 513.804 254.418 513.932 255.055 514.059C255.437 514.186 255.692 514.186 255.947 514.314C256.329 514.314 256.584 514.441 256.839 514.569C257.985 514.823 259.132 515.206 260.279 515.46C260.661 515.588 261.043 515.715 261.298 515.843C261.935 516.097 262.699 516.225 263.336 516.48C263.973 516.607 264.483 516.862 265.12 516.989C267.158 517.371 268.56 517.881 268.687 517.881Z" fill="white"/>
<path d="M245.627 494.949C245.627 494.949 246.01 508.453 247.284 510.492C248.558 512.53 253.271 513.422 253.271 513.422C253.271 513.422 242.06 519.028 236.837 517.881C231.613 516.862 229.065 509.982 229.065 509.982C229.065 509.982 232.76 510.11 233.652 509.6C234.544 509.09 233.015 500.172 233.015 500.172L245.627 494.949Z" fill="#EBB376"/>
<path opacity="0.2" d="M234.034 503.612L233.525 504.249C233.27 502.211 232.888 500.172 232.888 500.172L245.5 494.822C245.5 494.822 245.882 505.778 246.774 509.473C241.806 509.982 235.818 506.288 234.034 503.612Z" fill="black"/>
<path d="M241.296 472.144C244.736 473.928 249.704 479.788 244.226 481.699C238.875 483.61 235.436 469.087 241.296 472.144Z" fill="#263238"/>
<path d="M225.881 494.694C229.321 498.516 231.869 501.574 234.544 503.74C236.837 505.651 239.258 506.797 242.443 507.18C252.762 508.454 259.26 497.625 255.183 488.707C254.673 487.687 254.164 486.668 253.527 485.776C249.068 478.387 240.404 470.616 231.996 473.164C222.441 475.966 219.511 487.56 225.881 494.694Z" fill="#EBB376"/>
<path d="M230.084 494.057L230.467 495.586C230.467 495.586 231.741 500.045 234.543 503.74C236.837 505.651 239.257 506.797 242.442 507.179C252.762 508.453 259.259 497.624 255.182 488.706C254.673 487.687 254.163 486.668 253.526 485.776C253.526 485.776 254.29 489.343 253.653 491C253.653 491 249.831 489.98 247.92 491.637C247.92 491.637 243.844 490.49 240.404 494.822C240.404 494.694 235.308 498.389 230.084 494.057Z" fill="#263238"/>
<path opacity="0.5" d="M230.084 494.057L230.467 495.586C230.467 495.586 231.741 500.045 234.543 503.74C236.837 505.651 239.257 506.797 242.442 507.179C252.762 508.453 259.259 497.624 255.182 488.706C254.673 487.687 254.163 486.668 253.526 485.776C253.526 485.776 254.29 489.343 253.653 491C253.653 491 249.831 489.98 247.92 491.637C247.92 491.637 243.844 490.49 240.404 494.822C240.404 494.694 235.308 498.389 230.084 494.057Z" fill="white"/>
<path d="M215.306 489.853C210.72 486.031 215.052 480.298 219.893 478.387C220.53 478.132 220.912 477.75 221.167 477.368L226.9 486.158C226.39 486.413 225.881 486.668 225.371 486.795C225.371 486.795 232.123 492.783 231.486 498.644C222.059 501.446 213.013 496.605 215.306 489.853Z" fill="#263238"/>
<path d="M227.919 503.23C230.084 504.631 232.632 505.014 234.671 504.631C234.926 504.631 235.18 504.504 235.308 504.504C237.219 502.72 231.486 496.223 231.231 495.968C229.957 495.586 228.556 495.713 227.537 496.478C225.116 498.134 225.498 501.574 227.919 503.23Z" fill="#EBB376"/>
<path d="M239.003 487.687C239.512 488.324 240.149 488.579 240.659 488.197C241.041 487.815 241.041 487.178 240.531 486.541C240.022 485.903 239.385 485.649 238.875 486.031C238.366 486.286 238.493 487.05 239.003 487.687Z" fill="#263238"/>
<path d="M245.882 482.209C246.392 482.846 247.029 483.101 247.539 482.719C247.921 482.336 247.921 481.699 247.411 481.062C246.902 480.425 246.265 480.171 245.755 480.553C245.245 480.808 245.373 481.572 245.882 482.209Z" fill="#263238"/>
<path d="M243.844 484.247C243.844 484.247 247.921 486.541 250.723 486.923C250.469 488.706 248.175 489.726 248.175 489.726L243.844 484.247Z" fill="#D58745"/>
<path d="M236.2 482.973C236.072 483.101 235.945 483.228 235.945 483.356C235.945 485.394 234.544 486.286 234.544 486.413C234.289 486.541 234.289 486.795 234.416 487.05C234.544 487.305 234.798 487.305 235.053 487.178C235.181 487.178 236.837 485.904 236.964 483.356C236.964 483.101 236.709 482.846 236.455 482.846C236.327 482.846 236.327 482.846 236.2 482.973Z" fill="#263238"/>
<path d="M247.029 477.24C247.156 477.24 247.156 477.113 247.156 476.986C247.284 476.731 247.156 476.476 246.902 476.349C244.481 475.457 242.825 476.731 242.825 476.858C242.57 476.986 242.57 477.24 242.697 477.495C242.825 477.75 243.08 477.75 243.334 477.623C243.462 477.623 244.736 476.603 246.647 477.24C246.647 477.24 246.902 477.24 247.029 477.24Z" fill="#263238"/>
<path d="M248.175 498.134C248.43 498.007 248.685 497.879 248.94 497.752L249.577 492.783C249.577 492.783 249.322 492.783 248.812 492.783C247.284 492.783 243.716 493.165 242.825 494.949C242.697 495.076 242.697 495.331 242.57 495.586C242.442 496.35 242.315 497.242 242.697 498.007C243.207 499.153 244.736 499.663 248.175 498.134Z" fill="#263238"/>
<path d="M242.57 495.586L248.685 493.42L248.812 492.783C247.284 492.783 243.716 493.165 242.825 494.949C242.697 495.076 242.57 495.331 242.57 495.586Z" fill="white"/>
<path d="M248.175 498.134C247.156 496.35 244.226 497.242 242.57 498.007C243.207 499.153 244.736 499.663 248.175 498.134Z" fill="#DE5753"/>
<path d="M215.306 489.853C213.395 488.452 210.72 484.502 214.414 480.425C218.109 476.349 222.441 474.31 220.402 471.38C218.364 468.45 221.931 465.902 224.606 467.813C224.606 467.813 230.722 457.876 234.926 465.52C234.926 465.52 239.13 462.589 241.678 465.774C244.226 468.832 244.863 472.272 241.423 473.418C237.983 474.565 237.729 474.947 238.238 476.986C238.875 478.897 235.818 480.553 235.818 480.553C235.818 480.553 237.601 479.406 236.582 478.005C236.582 478.005 236.327 480.553 233.015 481.572C229.702 482.591 231.231 485.776 231.231 485.776C231.231 485.776 229.448 486.413 229.065 483.993C229.065 483.993 227.664 489.598 224.097 491C220.53 492.401 218.109 492.146 215.306 489.853Z" fill="#263238"/>
<path opacity="0.1" d="M263.464 532.532C262.827 534.698 262.317 536.864 261.68 539.157V539.284C260.279 539.284 258.877 539.412 257.348 539.412C256.329 539.412 255.31 539.539 254.418 539.539C251.998 539.539 249.704 539.666 247.284 539.666C247.029 539.666 246.647 539.666 246.392 539.666C245.882 539.666 245.245 539.666 244.736 539.666C244.226 539.666 243.717 539.666 243.08 539.666C244.991 535.972 247.793 533.551 249.45 532.277C250.341 531.64 250.978 531.258 250.978 531.258C252.125 530.621 253.272 530.239 254.418 530.111C257.603 529.729 260.788 530.748 263.464 532.532Z" fill="black"/>
<path d="M271.999 528.328C271.999 529.602 271.617 530.748 270.853 531.895C269.196 534.443 267.54 536.864 265.884 539.157C264.483 539.157 263.081 539.284 261.68 539.284C260.278 539.284 258.877 539.412 257.348 539.412C256.329 539.412 255.31 539.539 254.418 539.539C251.997 539.539 249.704 539.666 247.284 539.666C247.411 539.539 247.538 539.412 247.666 539.157C249.959 536.227 252.252 533.169 254.418 530.111C255.055 529.22 255.692 528.455 256.202 527.563C257.093 526.289 257.858 525.143 258.75 523.869L258.877 523.741C260.788 520.939 264.228 520.047 267.285 521.066C267.795 521.321 268.432 521.576 268.942 521.958C270.98 523.487 272.127 525.907 271.999 528.328Z" fill="#FFB573"/>
<path d="M272.764 528.455C272.382 531.385 271.108 534.953 268.432 539.029C267.54 539.029 266.776 539.157 265.884 539.157C264.483 539.157 263.081 539.284 261.68 539.284C260.279 539.284 258.877 539.412 257.348 539.412C256.329 539.412 255.31 539.539 254.418 539.539C251.998 539.539 249.704 539.666 247.284 539.666C247.029 539.666 246.647 539.666 246.392 539.666C245.882 539.666 245.245 539.666 244.736 539.666C246.137 537.501 247.921 534.825 249.577 532.277C250.724 530.494 251.743 528.837 252.635 527.436C253.017 526.926 253.272 526.417 253.526 525.907C255.183 523.104 257.348 521.193 259.387 519.919C263.973 517.244 268.687 517.754 268.687 517.754C269.706 518.391 270.598 519.282 271.362 520.556C272.509 522.595 273.146 525.143 272.764 528.455Z" fill="#407BFF"/>
<path opacity="0.7" d="M272.764 528.455C272.382 531.385 271.108 534.953 268.432 539.029C267.54 539.029 266.776 539.157 265.884 539.157C264.483 539.157 263.081 539.284 261.68 539.284C260.279 539.284 258.877 539.412 257.348 539.412C256.329 539.412 255.31 539.539 254.418 539.539C251.998 539.539 249.704 539.666 247.284 539.666C247.029 539.666 246.647 539.666 246.392 539.666C245.882 539.666 245.245 539.666 244.736 539.666C246.137 537.501 247.921 534.825 249.577 532.277C250.724 530.494 251.743 528.837 252.635 527.436C253.017 526.926 253.272 526.417 253.526 525.907C255.183 523.104 257.348 521.193 259.387 519.919C263.973 517.244 268.687 517.754 268.687 517.754C269.706 518.391 270.598 519.282 271.362 520.556C272.509 522.595 273.146 525.143 272.764 528.455Z" fill="white"/>
</svg>
